<svg width="33" height="33" viewBox="0 0 33 33" fill="none" xmlns="http://www.w3.org/2000/svg">
<path fill-rule="evenodd" clip-rule="evenodd" d="M23.2375 4.90875H23.375C27.172 4.90875 30.25 7.98679 30.25 11.7837V24.1587C30.25 27.9557 27.172 31.0337 23.375 31.0337H9.625C7.80164 31.0337 6.05295 30.3094 4.76364 29.0201C3.47433 27.7308 2.75 25.9821 2.75 24.1587V11.7837C2.75 7.98679 5.82804 4.90875 9.625 4.90875H9.7625V2.40625C9.7625 1.83671 10.2242 1.375 10.7937 1.375C11.3633 1.375 11.825 1.83671 11.825 2.40625V4.90875H21.175V2.40625C21.175 1.83671 21.6367 1.375 22.2062 1.375C22.7758 1.375 23.2375 1.83671 23.2375 2.40625V4.90875ZM10.3125 13.2824H22.6875C23.257 13.2824 23.7187 12.8207 23.7187 12.2511C23.7187 11.6816 23.257 11.2199 22.6875 11.2199H10.3125C9.74296 11.2199 9.28125 11.6816 9.28125 12.2511C9.28125 12.8207 9.74296 13.2824 10.3125 13.2824Z" fill="white"/>
</svg>
