<svg width="83" height="73" viewBox="0 0 83 73" fill="none" xmlns="http://www.w3.org/2000/svg">
<path d="M75.2188 0H54.4688C50.1729 0 46.6875 3.50335 46.6875 7.82143V28.6786C46.6875 32.9967 50.1729 36.5 54.4688 36.5H67.4375V46.9286C67.4375 52.6806 62.785 57.3571 57.0625 57.3571H55.7656C53.6096 57.3571 51.875 59.1007 51.875 61.2679V69.0893C51.875 71.2565 53.6096 73 55.7656 73H57.0625C71.393 73 83 61.333 83 46.9286V7.82143C83 3.50335 79.5146 0 75.2188 0ZM28.5312 0H7.78125C3.48535 0 0 3.50335 0 7.82143V28.6786C0 32.9967 3.48535 36.5 7.78125 36.5H20.75V46.9286C20.75 52.6806 16.0975 57.3571 10.375 57.3571H9.07812C6.92207 57.3571 5.1875 59.1007 5.1875 61.2679V69.0893C5.1875 71.2565 6.92207 73 9.07812 73H10.375C24.7055 73 36.3125 61.333 36.3125 46.9286V7.82143C36.3125 3.50335 32.8271 0 28.5312 0Z" fill="white"/>
</svg>
