<svg width="99" height="99" viewBox="0 0 99 99" fill="none" xmlns="http://www.w3.org/2000/svg">
<path d="M0 64C0 41.5979 0 30.3968 4.35974 21.8404C8.19467 14.3139 14.3139 8.19467 21.8404 4.35974C30.3968 0 41.5979 0 64 0H99V35C99 57.4021 99 68.6031 94.6403 77.1596C90.8053 84.6861 84.6861 90.8053 77.1596 94.6403C68.6031 99 57.4021 99 35 99H0V64Z" fill="#FF9900"/>
<path d="M61.9251 50.5709C61.9251 51.1232 61.4774 51.5709 60.9251 51.5709H52.7993C52.247 51.5709 51.7993 52.0187 51.7993 52.5709V60.5299C51.7993 61.0821 51.3516 61.5299 50.7993 61.5299H48.1258C47.5735 61.5299 47.1258 61.0821 47.1258 60.5299V52.5709C47.1258 52.0187 46.6781 51.5709 46.1258 51.5709H38C37.4477 51.5709 37 51.1232 37 50.5709V48.1757C37 47.6234 37.4477 47.1757 38 47.1757H46.1258C46.6781 47.1757 47.1258 46.728 47.1258 46.1757V38.1611C47.1258 37.6088 47.5735 37.1611 48.1258 37.1611H50.7993C51.3516 37.1611 51.7993 37.6088 51.7993 38.1611V46.1757C51.7993 46.728 52.247 47.1757 52.7993 47.1757H60.9251C61.4774 47.1757 61.9251 47.6234 61.9251 48.1757V50.5709Z" fill="white"/>
</svg>
