<svg width="43" height="43" viewBox="0 0 43 43" fill="none" xmlns="http://www.w3.org/2000/svg">
<path d="M21.8193 20.3356C24.7532 20.336 27.1454 17.9837 27.1943 15.0502V13.0435C27.1944 11.8526 26.7164 10.7114 25.8676 9.876C25.0187 9.04062 23.8701 8.58098 22.6793 8.60019H20.9772C18.5302 8.61006 16.5517 10.5965 16.5518 13.0435V15.0502C16.5994 17.9423 18.9273 20.2781 21.8193 20.3356Z" fill="white"/>
<path d="M40.812 29.5809L40.597 26.8754C40.3646 25.5168 39.1981 24.5159 37.8199 24.4925H30.0799C29.9612 24.474 29.8403 24.474 29.7216 24.4925C29.0349 23.7212 28.0488 23.2837 27.0162 23.2921H16.6424C15.5489 23.2873 14.513 23.7822 13.8295 24.6359C13.5368 24.5288 13.2274 24.4742 12.9157 24.4746H5.17575C3.79184 24.4995 2.62336 25.5097 2.39866 26.8754L2.18366 29.6704C2.00362 30.5276 2.21051 31.4205 2.74917 32.1111C3.28783 32.8017 4.1035 33.2197 4.97866 33.2538H13.1307C13.2915 33.2723 13.4538 33.2723 13.6145 33.2538C14.3251 34.0381 15.3332 34.4869 16.3916 34.49H27.267C28.2931 34.4851 29.2719 34.0574 29.9724 33.3075H38.017C38.924 33.2825 39.7699 32.8448 40.3142 32.119C40.8586 31.3932 41.0419 30.4585 40.812 29.5809Z" fill="white"/>
<path d="M34.041 21.6974C36.2179 21.6974 37.9827 19.9326 37.9827 17.7557V16.2328C37.983 15.338 37.6215 14.481 36.9804 13.8568C36.3393 13.2325 35.473 12.894 34.5785 12.9182H33.3243C31.4938 12.9182 30.0098 14.4022 30.0098 16.2328V17.7557C30.0095 18.8168 30.437 19.8332 31.1957 20.575C31.9544 21.3169 32.9802 21.7215 34.041 21.6974Z" fill="white"/>
<path d="M9.04714 21.6971C11.2241 21.6971 12.9888 19.9324 12.9888 17.7555V16.2326C12.9888 14.402 11.5048 12.918 9.67422 12.918H8.42005C6.58946 12.918 5.10547 14.402 5.10547 16.2326V17.7555C5.10547 19.9324 6.87021 21.6971 9.04714 21.6971Z" fill="white"/>
</svg>
