<svg width="28" height="30" viewBox="0 0 28 30" fill="none" xmlns="http://www.w3.org/2000/svg">
<path fill-rule="evenodd" clip-rule="evenodd" d="M27.4647 6.61057V20.1682C27.4647 20.8632 26.9012 21.4266 26.2062 21.4266H5.56777C3.98313 21.4266 2.69852 22.7112 2.69852 24.2959C2.69852 25.8805 3.98313 27.1651 5.56777 27.1651H26.2062C26.9012 27.1651 27.4647 27.7285 27.4647 28.4236C27.4647 29.1186 26.9012 29.682 26.2062 29.682H5.56777C2.59309 29.682 0.181641 27.2705 0.181641 24.2959V6.61057C0.181641 3.13548 2.99876 0.318359 6.47385 0.318359H21.1724C24.6475 0.318359 27.4647 3.13548 27.4647 6.61057ZM4.30922 24.2958C4.30922 23.6008 4.87264 23.0374 5.56766 23.0374H24.1423C24.8373 23.0374 25.4007 23.6008 25.4007 24.2958C25.4007 24.9908 24.8373 25.5542 24.1423 25.5542H5.56766C4.87264 25.5542 4.30922 24.9908 4.30922 24.2958Z" fill="white"/>
</svg>
