<svg width="496" height="496" viewBox="0 0 496 496" fill="none" xmlns="http://www.w3.org/2000/svg">
<mask id="mask0_205_907" style="mask-type:alpha" maskUnits="userSpaceOnUse" x="0" y="0" width="496" height="496">
<circle cx="248" cy="248" r="248" fill="#121D54"/>
</mask>
<g mask="url(#mask0_205_907)">
<circle cx="248" cy="248" r="248" fill="#121D54"/>
<path d="M-437.631 267.544C-441.47 259.581 -442.293 254.452 -441.581 251.139C-437.823 232.42 -457.673 201 -476.907 170.686C-499.032 135.745 -519.889 102.749 -510.679 83.8753C-506.809 75.8235 -497.904 71.2001 -483.528 69.7124C-440.532 65.1477 -376.365 90.1278 -330.192 111.825C-273.128 138.663 -223.368 169.683 -203.77 183.987L-204.414 184.875L-203.77 183.987C-144.848 227.167 -93.2325 265.456 -58.7538 296.256C-22.3728 328.777 -5.85941 351.909 -5.17475 371.29C-4.73981 382.627 -9.83406 392.588 -20.5985 401.737C-35.568 414.48 -43.5255 429.451 -45.6 448.925C-47.4821 466.575 -44.4123 486.456 -41.0593 507.438C-37.0717 532.814 -32.5691 561.654 -36.0036 592.506C-36.576 597.648 -38.9517 601.103 -42.9967 602.805C-53.2902 606.944 -74.6398 598.928 -106.45 578.965C-134.473 561.383 -170.142 534.787 -209.677 502.054C-265.628 455.627 -325.534 399.973 -369.88 352.983C-411.347 309.058 -430.178 283.002 -437.631 267.544ZM-447.981 215.627C-441.303 229.479 -437.496 241.994 -439.394 251.569C-441.939 264.425 -416.047 300.849 -368.23 351.445C-323.948 398.301 -264.109 453.988 -208.29 500.313C-123.541 570.545 -62.0781 608.046 -43.8977 600.766C-40.6557 599.45 -38.7879 596.652 -38.3267 592.306C-34.8969 561.786 -39.4019 533.113 -43.3572 507.803C-49.9892 465.31 -55.7752 428.676 -22.0695 400.054C-11.8428 391.33 -7.02342 381.996 -7.43566 371.39C-8.85755 331.663 -83.5341 274.966 -205.158 185.728C-224.557 171.493 -274.218 140.509 -331.118 113.839C-377.092 92.2107 -440.831 67.4361 -483.294 71.9088C-496.871 73.3415 -505.139 77.5753 -508.633 84.8683C-517.229 102.621 -495.722 136.623 -474.897 169.552C-465.121 185.21 -454.983 201.105 -447.981 215.627Z" fill="white" fill-opacity="0.05"/>
<path d="M-428.712 268.935C-431.648 262.845 -432.94 257.942 -432.324 254.429C-429.121 237.297 -447.216 208.66 -464.662 181.03C-484.965 148.839 -504.133 118.493 -495.708 101.07C-492.179 93.6777 -484.077 89.4415 -471.031 87.9347C-448.328 85.0716 -415.512 90.528 -376.228 103.753C-342.764 115 -305.424 131.719 -273.784 149.619C-240.962 168.599 -216.544 185.032 -209.898 189.581C-150.743 232.73 -108.043 264.844 -78.3583 291.687C-46.0175 320.961 -30.6501 342.913 -29.9762 360.732C-29.5986 371.437 -34.2865 380.872 -44.4785 389.498C-58.2041 401.229 -65.6119 414.945 -67.6302 432.825C-69.4586 449.047 -66.7293 467.195 -63.883 486.442C-60.3949 509.585 -56.4862 535.824 -59.7486 563.954C-60.4178 568.895 -62.7241 572.152 -66.6998 573.656C-93.2308 583.974 -185.126 511.578 -223.381 479.96C-312.926 405.936 -408.773 310.291 -428.712 268.935ZM-438.173 222.114C-432.107 234.695 -428.583 246.11 -430.237 254.825C-434.958 280.441 -324.151 393.946 -222.028 478.318C-142.924 543.685 -85.1121 578.575 -67.4025 571.686C-64.1282 570.437 -62.3297 567.838 -61.7717 563.692C-58.5141 535.895 -62.4252 509.822 -65.881 486.745C-71.7004 447.819 -76.7658 414.219 -45.8181 387.917C-36.1638 379.716 -31.6838 370.875 -32.071 360.835C-33.4618 323.567 -103.89 269.523 -211.119 191.324C-217.766 186.776 -242.085 170.377 -274.807 151.432C-306.348 133.567 -343.556 116.949 -376.854 105.704C-415.907 92.6156 -448.359 87.2309 -470.762 90.0319C-483.042 91.4168 -490.574 95.2957 -493.794 101.961C-501.706 118.395 -481.953 149.614 -462.818 179.893C-453.821 194.277 -444.561 208.864 -438.173 222.114Z" fill="white" fill-opacity="0.05"/>
<path d="M-419.735 270.792C-422.349 265.372 -423.514 260.902 -422.97 257.754C-420.321 242.208 -436.595 216.322 -452.351 191.341C-470.868 162.001 -488.311 134.204 -480.672 118.232C-477.485 111.5 -470.218 107.584 -458.436 106.192C-437.59 103.069 -406.25 107.175 -370.317 117.727C-336.898 127.512 -302.252 142.066 -275.33 157.704C-257.509 168.494 -241.675 178.756 -228.9 186.948C-223.963 190.176 -219.682 192.896 -216.027 195.174C-172.192 226.906 -127.545 259.978 -97.9967 287.052C-69.1703 313.484 -55.4699 333.518 -54.8091 349.942C-54.3897 360.049 -58.8374 368.956 -68.3579 377.093C-95.7075 400.423 -91.4546 430.456 -86.5398 465.282C-83.5512 486.192 -80.2042 509.898 -83.2598 535.206C-84.9675 545.349 -93.8497 546.086 -101.042 544.852C-138.699 538.595 -226.615 469.147 -290.414 411.577C-348.312 359.573 -405.475 300.37 -419.735 270.792ZM-428.202 228.771C-422.749 240.08 -419.737 250.091 -421.081 258.08C-423.851 275.086 -369.661 337.702 -289.232 410.265C-251.576 444.233 -213.021 475.789 -180.761 499.081C-144.487 525.221 -116.861 540.438 -100.885 543.127C-91.5697 544.656 -86.4815 542.038 -85.3522 535.143C-82.3014 510.167 -85.6831 486.56 -88.6071 465.784C-93.614 430.425 -97.9588 399.859 -69.7691 375.876C-60.7195 368.132 -56.512 359.752 -56.874 350.277C-58.1681 317.829 -111.852 273.196 -217.216 196.985C-220.804 194.674 -225.085 191.954 -230.089 188.759C-242.797 180.535 -258.599 170.339 -276.42 159.549C-303.21 144.012 -337.757 129.493 -370.977 119.778C-406.712 109.295 -437.688 105.261 -458.234 108.321C-469.25 109.591 -476.014 113.182 -478.958 119.221C-486.152 134.235 -468.156 162.837 -450.71 190.468C-442.197 203.848 -433.88 216.993 -428.202 228.771Z" fill="white" fill-opacity="0.05"/>
<path d="M1.3144 472.162C-4.62222 459.849 -5.78249 450.429 -2.06728 443.937C2.67085 435.631 15.2803 432.191 35.4265 433.777C57.2982 435.52 88.6879 443.149 128.834 456.453C181.944 474.064 229.41 493.653 269.878 514.637C304.969 532.852 335.917 552.736 361.832 573.643C407.126 610.28 431.279 645.151 450.586 677.327C471.287 711.883 482.072 745.199 482.785 776.443C483.358 803.631 476.35 828.783 461.941 851.07C431.832 897.587 376.04 920.94 339.418 916.659C322.269 914.618 310.323 906.604 305.886 893.98C287.049 840.712 266.871 795.099 244.329 754.503C213.236 698.566 177.607 653.063 138.453 619.239C110.459 595.046 70.7389 559.021 40.0316 524.753C20.9634 503.678 8.02536 486.081 1.3144 472.162ZM449.547 677.91L448.576 678.461C429.333 646.419 405.376 611.784 360.346 575.35C334.562 554.544 303.813 534.73 268.753 516.581C228.484 495.667 181.149 476.179 128.107 458.536C88.1263 445.235 56.9349 437.675 35.2293 435.934C16.0128 434.395 4.13948 437.48 -0.155307 444.994C-7.44953 457.748 7.01325 484.837 41.5134 523.379C72.1562 557.512 111.844 593.471 139.739 617.63C179.056 651.622 214.815 697.393 246.072 753.498C268.745 794.196 288.888 839.907 307.79 893.31C311.973 905.066 323.195 912.604 339.516 914.467C375.441 918.672 430.331 895.672 459.898 849.911C474.069 827.986 480.97 803.297 480.425 776.508C479.806 745.631 469.017 712.647 448.576 678.461L449.547 677.91Z" fill="white" fill-opacity="0.05"/>
<path d="M25.4268 482.145C19.9741 470.836 18.9357 462.182 22.3438 456.25C31.5452 440.267 71.0298 444.158 142.987 468.187C235.857 500.524 309.064 539.291 360.697 583.263C402.581 618.987 423.837 651.955 440.481 682.199C458.545 712.995 468.086 742.705 468.651 770.391C469.2 794.622 462.932 816.86 450.254 836.581C441.453 850.144 425.096 869.247 397.089 882.833C377.18 892.514 355.651 896.956 338.001 895.074C320.185 893.189 307.743 885.002 302.944 872.141C265.776 776.576 221.159 679.076 147.001 614.046C121.834 591.953 86.1865 559.243 59.3414 529.052C42.7659 510.239 31.4279 494.592 25.4268 482.145ZM448.509 701.587C445.573 695.497 442.305 689.402 438.672 683.236C422.026 653.159 400.966 620.426 359.345 584.905C307.941 541.069 234.898 502.471 142.294 470.17C105.422 457.844 76.6832 450.752 56.7031 449.168C39.0138 447.718 28.0427 450.45 24.0897 457.305C17.4097 468.938 29.7956 492.575 60.8901 527.645C87.636 557.802 123.251 590.445 148.319 612.503C222.738 677.902 267.518 775.571 304.781 871.503C309.292 883.596 321.144 891.243 338.129 893.115C355.38 895.025 376.509 890.611 396.084 881.09C411.31 873.667 432.809 859.755 448.441 835.558C460.948 816.167 467.077 794.325 466.489 770.526C466.141 748.591 460.059 725.544 448.509 701.587Z" fill="white" fill-opacity="0.05"/>
<path d="M49.4716 492.16C44.4707 481.788 43.5541 473.9 46.7221 468.496C55.2053 453.931 91.3355 457.708 157.205 479.888C243.87 511.671 311.937 549.699 359.661 592.917C398.463 628.065 417.272 660.234 430.542 687.073C446.1 714.211 454.231 740.312 454.747 764.476C455.172 785.714 449.808 805.208 438.696 822.359C427.517 839.543 411.132 853.628 391.228 862.978C373.095 871.555 353.802 875.331 336.98 873.627C318.433 871.766 305.294 863.502 300.036 850.202L296.951 842.947C280.434 803.9 261.733 759.638 239.064 718.608C213.125 671.65 185.897 635.705 155.717 608.689C123.141 579.611 97.3244 554.12 78.8214 533.02C64.5677 516.799 54.763 503.135 49.4716 492.16ZM436.368 702.409C434.078 697.657 431.522 692.869 428.767 688.011C415.562 661.306 396.85 629.338 358.31 594.393C310.783 551.41 242.914 513.452 156.48 481.805C92.5616 460.251 56.2031 456.172 48.3688 469.516C42.3723 479.83 53.1354 500.785 80.2685 531.745C98.6401 552.743 124.491 578.136 157 607.245C187.312 634.363 214.736 670.544 240.772 717.702C263.473 758.799 282.206 803.128 298.755 842.242L301.841 849.497C306.843 862.096 319.357 869.918 337.14 871.736C353.332 873.331 372.759 869.49 390.389 861.238C409.959 852.05 426.041 838.193 437.049 821.339C447.924 804.549 453.216 785.42 452.818 764.581C452.337 744.937 446.822 724.09 436.368 702.409Z" fill="white" fill-opacity="0.05"/>
<path d="M73.384 502.24C68.867 492.871 68.0724 485.749 71.0001 480.874C78.7305 467.827 111.541 471.389 171.257 491.753C251.815 523.017 314.775 560.373 358.524 602.703C394.604 637.679 410.571 668.744 420.47 692.012C451.722 748.45 441.206 786.51 426.901 808.5C417.25 823.38 402.856 835.434 385.33 843.389C369.309 850.701 351.885 853.906 336.288 852.518C317.074 850.813 302.814 841.935 297.095 828.363C292.618 818.563 288.046 808.396 283.6 798.663C251.209 726.691 217.657 652.311 164.332 603.463C113.895 557.183 83.7731 523.788 73.384 502.24ZM412.939 679.643C402.744 658.497 386.737 632.482 357.278 603.881C313.724 561.787 250.928 524.599 170.635 493.372C112.705 473.632 79.6661 469.768 72.5822 481.76C67.2693 490.755 76.3774 508.962 99.6137 535.945C115.17 554.011 136.722 575.62 165.616 602.02C219.236 651.137 252.885 725.719 285.34 797.824C289.751 807.656 294.291 817.756 298.835 827.524C304.361 840.695 317.7 848.862 336.515 850.594C351.78 851.977 368.872 848.767 384.625 841.584C401.816 833.791 415.975 821.933 425.423 807.316C439.49 785.688 449.764 748.322 418.899 692.688L418.866 692.621L418.834 692.554C417.097 688.608 415.166 684.261 412.939 679.643Z" fill="white" fill-opacity="0.05"/>
<path d="M97.3939 512.354C93.5544 504.391 92.4873 497.73 95.2788 493.085C102.256 481.556 131.747 484.905 185.442 503.387C259.927 534.198 317.747 570.816 357.455 612.29C382.858 638.806 400.169 666.501 410.466 696.753C435.957 744.834 427.094 776.572 415.102 794.807C406.849 807.281 394.575 817.405 379.495 823.933C365.653 829.948 350.296 832.651 336.125 831.483C316.311 829.902 301.253 821.079 294.639 807.361C294.477 807.026 294.316 806.692 294.187 806.424C286.019 789.826 278.184 773.232 270.574 757.107C241.494 695.251 213.991 636.841 172.981 598.139C142.036 568.852 108.364 535.107 97.3939 512.354ZM399.521 674.566C389.229 653.218 374.899 633.076 356.208 613.468C316.731 572.13 259.075 535.681 184.821 505.007C132.812 487.113 103.127 483.363 96.6948 493.97C85.2242 512.943 149.838 573.915 174.096 596.859C215.401 635.831 242.968 694.375 272.114 756.365C279.691 772.423 287.492 789.116 295.726 805.682C301.874 819.46 316.667 828.246 336.248 829.857C350.154 830.987 365.211 828.346 378.786 822.461C393.565 815.995 405.569 806.166 413.619 793.955C425.306 776.114 434.029 744.939 408.892 697.594L408.86 697.527L408.828 697.46C406.216 689.647 403.103 681.994 399.521 674.566Z" fill="white" fill-opacity="0.05"/>
<path d="M121.242 522.3C117.822 515.207 116.941 509.446 119.425 505.361C125.717 495.318 151.92 498.519 199.528 515.153C268.072 545.446 320.753 581.326 356.32 621.91C385.185 654.921 396.205 683.423 400.429 701.592C420.291 741.419 412.976 767.131 403.231 781.644C389.954 801.489 363.837 813.009 336.653 811.023C315.542 809.489 298.671 799.644 291.444 784.654C291.412 784.587 291.38 784.52 291.347 784.453C278.957 761.149 268.31 739.065 258.017 717.718C233.233 666.657 211.872 622.522 181.631 592.814C154.733 566.277 129.856 540.168 121.242 522.3ZM387.968 671.641C368.513 631.289 319.983 570.15 199.009 516.641C152.888 500.527 126.524 496.991 120.809 506.179C111.387 521.361 159.613 568.872 182.743 591.7C213.181 621.644 234.574 665.845 259.356 717.073C269.648 738.42 280.362 760.471 292.686 783.808C292.718 783.875 292.75 783.942 292.783 784.009C299.784 798.53 316.161 808.036 336.706 809.595C363.36 811.507 388.974 800.312 401.912 780.961C411.419 766.81 418.593 741.66 398.989 702.369L398.957 702.302L398.925 702.235C397.175 694.501 393.937 684.021 387.968 671.641Z" fill="white" fill-opacity="0.05"/>
<path d="M145.153 532.38C142.184 526.223 141.262 521.06 143.573 517.471C149.112 508.945 172.095 511.967 213.747 526.855C276.348 556.796 323.922 592.004 355.249 631.663C366.867 646.351 375.856 661.233 382.057 675.976C388.29 690.785 389.964 701.442 390.388 706.598C399.182 725.864 401.43 742.842 397.139 757.035C393.407 769.308 384.794 778.986 372.313 785.087C358.528 791.733 341.393 793.314 325.234 789.393C308.148 785.26 295.061 775.735 288.405 762.614C271.134 732.095 257.675 704.522 245.765 680.161C226.399 640.508 211.066 609.22 190.28 587.489L188.97 586.141C173.651 570.104 152.735 548.106 145.153 532.38ZM377.502 669.264C372.34 658.557 364.876 646.156 354.174 632.512C322.943 593.053 275.501 557.947 213.195 528.275C172.864 513.906 149.787 510.517 144.724 518.319C137.248 529.841 170.276 564.474 189.981 585.159L191.291 586.507C212.241 608.406 227.539 639.793 247.036 679.548C258.914 703.842 272.373 731.415 289.644 761.934C296.139 774.72 308.864 784.007 325.586 788.069C341.38 791.918 358.182 790.333 371.7 783.815C383.879 777.943 392.221 768.56 395.815 756.683C400.002 742.788 397.749 726.142 389.085 707.144L389.02 707.01L389.023 706.844C388.631 701.755 386.633 688.203 377.502 669.264Z" fill="white" fill-opacity="0.05"/>
<path d="M168.663 542.653C166.05 537.233 165.251 532.669 167.355 529.676C172.274 522.603 192.002 525.545 227.897 538.754L227.996 538.789C266.947 559.02 320.548 593.218 354.246 641.384C364.142 655.582 371.773 670.212 376.263 683.8C379.764 694.483 381.314 704.54 380.482 711.539C395.484 749.668 375.443 763.866 366.109 768.284C354.133 773.893 337.845 774.324 322.497 769.517C305.958 764.295 292.881 754.106 285.629 740.777C262.166 701.862 246.776 669.942 234.419 644.312C221.094 616.674 211.447 596.665 198.929 582.164C197.949 580.987 196.87 579.775 195.791 578.564C185.593 566.821 173.729 553.16 168.663 542.653ZM227.382 539.91C192.71 527.183 172.853 523.973 168.441 530.389C162.741 538.581 183.268 562.169 196.8 577.748C197.879 578.959 198.891 580.203 199.938 581.348C212.619 596.018 222.266 616.026 235.656 643.798C248.013 669.428 263.338 701.214 286.67 740.027C293.696 752.888 306.806 763.144 322.781 768.225C337.864 772.995 353.82 772.56 365.461 767.112C384.496 758.182 389.471 738.051 379.149 711.852L379.084 711.719L379.087 711.553C380.745 697.887 373.356 671.099 353.106 642.099C334.614 615.55 297.764 576.41 227.382 539.91Z" fill="white" fill-opacity="0.05"/>
<path d="M191.836 553.254C189.481 548.369 188.611 544.17 190.642 541.541C192.708 538.813 197.537 538.051 205.394 539.294C213.881 540.646 226.221 544.346 241.95 550.453L242.049 550.488C305.524 586.689 337.401 625.093 353.011 650.969C371.055 680.868 374.651 705.774 370.345 716.344C377.5 740.936 366.272 749.978 358.884 753.128C338.622 761.908 300.072 748.494 282.625 718.637C251.171 669.307 236.008 635.463 225 610.749C218.271 595.767 213.443 584.898 207.613 576.74C206.636 575.397 205.626 573.987 204.616 572.577C199.791 566.161 194.707 559.21 191.836 553.254ZM241.569 551.544C212.324 540.324 195.524 537.125 191.562 542.252C187.566 547.477 197.505 561.078 205.421 572.024C206.431 573.434 207.441 574.844 208.418 576.187C214.38 584.447 219.208 595.315 225.969 610.365C236.945 635.011 252.076 668.788 283.53 718.119C291.314 731.355 304.541 742.71 319.798 749.21C334.131 755.33 348.602 756.436 358.432 752.191C370.57 746.917 374.44 734.246 369.212 716.561L369.115 716.36L369.185 716.161C372.829 707.641 371.217 683.429 352.005 651.619C336.526 625.845 304.78 587.542 241.569 551.544Z" fill="white" fill-opacity="0.05"/>
<path d="M18.9455 383.001C17.3969 379.789 16.1158 376.448 15.1372 372.878C9.92352 354.196 13.3687 334.143 17.9599 315.269C21.2103 301.826 9.12794 280.187 -2.53262 259.252C-14.1286 238.451 -25.077 218.822 -18.8965 209.574C-15.8744 205.066 -9.17173 203.401 1.47674 204.618C83.3795 214.037 164.251 269.727 217.695 314.888C277.935 365.762 327.704 423.828 345.831 454.924C368.886 494.531 387.282 539.187 376.566 549.633C372.656 553.497 365.431 552.197 355.221 545.903C316.72 522.156 127.655 443.743 67.666 421.614C43.1725 412.723 27.1407 399.998 18.9455 383.001ZM11.9302 281.723C18.2217 294.772 22.3013 306.826 20.1121 315.799C15.6249 334.375 12.1175 354.128 17.2391 372.277C23.245 393.629 39.9353 409.087 68.359 419.631C128.38 441.827 317.71 520.276 356.311 544.058C365.434 549.638 371.893 551.061 374.894 548.047C383.185 539.926 370.151 501.261 343.821 456.058C325.858 425.131 276.185 367.265 216.208 316.594C163.059 271.703 82.5848 216.152 1.2449 206.874C-8.44161 205.771 -14.5743 207.078 -17.0538 210.83C-22.454 218.96 -11.863 238.019 -0.557309 258.217C3.8151 266.089 8.25203 274.094 11.9302 281.723Z" fill="white" fill-opacity="0.05"/>
<path d="M30.7782 382.739C29.3263 379.728 28.1421 376.588 27.2256 373.318C22.3895 356.103 25.6818 337.444 29.8893 319.827C32.8601 307.343 21.5867 287.211 10.636 267.749C-0.183276 248.388 -10.4541 230.164 -4.71455 221.541C-1.89558 217.295 4.30637 215.79 14.1912 216.962C90.3569 225.601 165.569 277.421 215.305 319.339C271.343 366.631 317.682 420.661 334.444 449.61C355.811 486.401 372.825 527.848 362.85 537.606C359.21 541.176 352.481 540.049 342.963 534.163C307.195 512.151 131.607 439.281 75.8826 418.643C53.1768 410.208 38.3281 398.398 30.7782 382.739ZM24.3519 289.012C30.1272 300.991 33.8221 312.075 31.8754 320.354C23.4232 355.852 19.1654 395.431 76.608 416.726C132.399 437.332 308.185 510.271 344.085 532.385C352.549 537.624 358.512 538.873 361.376 536.09C369.06 528.591 357.017 492.665 332.635 450.647C315.97 421.899 269.827 368.104 213.952 320.981C164.447 279.199 89.5646 227.55 13.9295 218.985C5.00662 217.926 -0.726898 219.206 -3.00335 222.695C-8.02946 230.232 1.9163 247.953 12.4452 266.711C16.624 274.181 20.8351 281.718 24.3519 289.012Z" fill="white" fill-opacity="0.05"/>
<path d="M42.5122 382.443C41.1893 379.699 40.1019 376.76 39.2153 373.723C34.6027 357.143 38.0789 339.549 41.6532 324.382C44.4112 312.826 33.8477 294.166 23.7059 276.21C13.1746 257.618 4.1024 241.538 9.40096 233.54C11.9821 229.656 17.6511 228.243 26.8071 229.271C97.2356 237.13 166.855 285.049 212.848 323.823C264.685 367.532 307.494 417.49 323.025 444.229C342.673 478.138 358.404 516.41 349.136 525.414C345.7 528.72 339.501 527.667 330.708 522.258C297.64 501.912 135.529 434.586 84.1344 415.572C63.1817 407.694 49.4813 396.897 42.5122 382.443ZM36.7419 296.235C42.001 307.142 45.378 317.226 43.5747 324.776C40.0698 339.744 36.6306 357.072 41.1511 373.12C46.2381 391.368 60.4679 404.631 84.7283 413.553C136.222 432.603 298.532 499.998 331.631 520.41C339.47 525.208 345.002 526.418 347.631 523.83C354.774 516.922 343.655 483.768 321.186 445.033C305.787 418.396 263.107 368.705 211.501 325.132C165.738 286.495 96.5126 238.881 26.5155 231.062C18.3215 230.146 13.0218 231.299 10.9162 234.459C6.33105 241.371 15.5646 257.785 25.3168 275.104C29.4012 282.207 33.4509 289.409 36.7419 296.235Z" fill="white" fill-opacity="0.05"/>
<path d="M54.3121 382.114C53.0861 379.571 52.0954 376.833 51.3378 374.064C47.2343 359.052 50.2923 342.815 53.5499 328.873C56.0283 318.276 46.2738 301.123 36.8765 284.541C27.1542 267.455 18.7942 252.681 23.5849 245.34C25.896 241.752 31.1312 240.465 39.4913 241.383C104.215 248.528 168.11 292.443 210.361 328.073C258.029 368.266 297.308 414.154 311.541 438.714C329.501 469.808 343.849 504.87 335.358 513.088C332.223 516.166 326.523 515.12 318.454 510.186C288.087 491.507 139.453 429.725 92.3554 412.267C73.1509 405.279 60.6682 395.297 54.3121 382.114ZM49.131 303.457C53.8738 313.294 56.866 322.408 55.3053 329.264C52.1171 343.007 48.9969 358.945 53.0729 373.557C57.6509 390.237 70.7347 402.32 92.9446 410.581C140.141 428.074 288.974 489.925 319.373 508.671C326.552 513.127 331.687 514.198 334.08 511.807C340.652 505.422 330.488 475.105 309.999 439.622C295.898 415.164 256.748 369.544 209.244 329.519C167.157 294.058 103.524 250.345 39.2642 243.307C31.7669 242.468 26.9332 243.561 25.0308 246.458C20.8519 252.844 29.4079 267.853 38.3834 283.732C42.2097 290.299 46.0336 297.033 49.131 303.457Z" fill="white" fill-opacity="0.05"/>
<path d="M66.046 381.818C64.9168 379.476 63.9883 377.037 63.3275 374.469C59.6338 360.992 62.405 346.212 65.3806 333.396C67.5471 323.692 58.6338 308.113 49.9464 293.002C41.033 277.423 33.3183 263.988 37.7003 257.339C39.8405 254.08 44.5428 252.885 52.1393 253.759C111.126 260.124 169.429 300.138 207.905 332.557C251.371 369.167 287.187 410.951 300.055 433.365C316.328 461.643 329.294 493.496 321.543 501.026C318.679 503.81 313.475 502.937 306.065 498.345C278.465 481.301 143.309 425.062 100.441 409.194C83.1557 402.765 71.8213 393.796 66.046 381.818ZM61.5209 310.68C65.7798 319.513 68.4541 327.626 67.0368 333.752C60.5121 362.3 57.766 391.501 101.062 407.575C143.962 423.51 279.317 479.818 307.016 496.897C313.57 500.912 318.207 501.975 320.432 499.748C326.396 493.986 317.223 466.408 298.648 434.209C285.843 411.929 250.191 370.313 206.889 333.871C168.545 301.554 110.504 261.743 51.9493 255.418C45.1486 254.655 40.8479 255.657 39.0494 258.256C35.2446 264.049 43.0562 277.685 51.354 292.159C55.019 298.392 58.6171 304.657 61.5209 310.68Z" fill="white" fill-opacity="0.05"/>
<path d="M77.8462 381.49C76.8138 379.348 76.0143 377.177 75.3834 374.842C72.1665 362.867 74.4777 350.041 77.2106 337.919C79.1644 329.142 70.6037 314.465 63.0825 301.432C54.9113 287.392 47.9087 275.263 51.7829 269.271C53.6853 266.375 57.9215 265.239 64.789 265.97C118.071 271.621 170.682 307.699 205.482 336.941C244.779 370.036 277.065 407.749 288.67 427.885C303.291 453.249 314.874 481.891 307.864 488.735C305.27 491.223 300.529 490.457 293.843 486.34C268.91 471.062 147.23 420.367 108.66 406.056C93.1598 400.251 83.0085 392.197 77.8462 381.49ZM73.8779 317.835C77.6205 325.598 79.9101 332.741 78.7677 338.241C76.104 350.164 73.7953 362.824 76.9177 374.432C80.5767 388.008 91.1678 397.83 109.247 404.536C147.849 418.914 269.727 469.678 294.693 485.023C300.655 488.664 304.795 489.555 306.817 487.59C312.209 482.351 303.992 457.612 287.364 428.598C275.858 408.496 243.669 370.984 204.536 338.057C169.832 309.015 117.551 273.109 64.6337 267.529C58.5297 266.843 54.6628 267.718 53.0997 270.121C49.6689 275.321 56.8352 287.619 64.4233 300.62C67.7955 306.417 71.1999 312.281 73.8779 317.835Z" fill="white" fill-opacity="0.05"/>
<path d="M89.6121 381.26C88.7087 379.386 87.9738 377.349 87.3728 375.247C84.5658 364.806 86.5184 353.803 88.9741 342.475C90.6483 334.657 82.9957 321.522 76.1521 309.894C68.8221 297.427 62.4649 286.637 65.8981 281.27C67.5973 278.636 71.3329 277.66 77.4046 278.279C124.949 283.15 171.936 315.259 202.993 341.358C238.088 370.87 266.844 404.512 277.184 422.537C290.118 445.085 300.318 470.518 294.084 476.575C291.725 478.867 287.483 478.108 281.521 474.467C259.355 460.824 151.152 415.672 116.847 402.851C103.164 397.737 94.1614 390.696 89.6121 381.26ZM86.2353 324.991C89.494 331.75 91.4657 337.892 90.4667 342.662C86.3714 361.709 80.6462 387.81 117.431 401.497C151.737 414.318 260.138 459.539 282.336 473.249C287.606 476.482 291.382 477.3 293.201 475.599C297.985 470.982 290.826 448.949 276.044 423.251C265.769 405.36 237.177 371.887 202.213 342.476C171.22 316.512 124.531 284.506 77.3508 279.707C71.9758 279.165 68.5426 279.913 67.1827 282.053C64.2251 286.695 70.6469 297.62 77.4582 309.181C80.6046 314.51 83.7832 319.905 86.2353 324.991Z" fill="white" fill-opacity="0.05"/>
<path d="M101.447 380.832C96.123 369.791 98.7293 357.235 100.938 346.933C102.399 340.043 95.4886 328.447 89.3548 318.291C82.8338 307.331 77.1219 297.879 80.1141 293.137C81.5756 290.866 84.8773 290.016 90.1532 290.524C131.961 294.615 173.288 322.854 200.57 345.742C231.464 371.672 256.722 401.309 265.732 417.089C276.978 436.821 285.796 459.044 280.303 464.415C278.214 466.411 274.468 465.826 269.165 462.526C249.8 450.585 155.041 410.91 125.065 399.713C112.01 394.873 104.996 388.193 101.447 380.832ZM98.5251 332.179C101.268 337.867 102.919 343.174 102.063 347.215C98.421 364.806 93.8191 386.737 125.414 398.555C155.556 409.755 250.414 449.464 269.911 461.507C274.588 464.366 277.834 465.11 279.484 463.572C283.696 459.479 277.493 440.284 264.692 417.838C255.714 402.125 230.552 372.689 199.79 346.861C172.574 323.941 131.51 295.904 89.9679 291.85C85.2896 291.384 82.3225 292.073 81.1334 293.883C78.5499 297.933 84.3264 307.519 90.3933 317.707C93.3807 322.535 96.2988 327.561 98.5251 332.179Z" fill="white" fill-opacity="0.05"/>
<path d="M113.213 380.603C108.793 371.435 110.872 360.865 112.699 351.654L112.769 351.456C113.918 345.458 107.881 335.503 102.492 326.72C96.7131 317.3 91.7134 309.154 94.2969 305.104C95.4883 303.127 98.3563 302.404 102.836 302.801C138.939 306.178 174.609 330.383 198.181 350.193C224.906 372.607 246.701 398.141 254.346 411.774C263.873 428.625 271.34 447.705 266.622 452.289C264.836 454.057 261.588 453.479 257.01 450.655C240.245 440.346 158.964 406.215 133.218 396.607C122.214 392.428 116.214 386.826 113.213 380.603ZM110.918 339.235C113.176 343.919 114.542 348.292 113.862 351.671L113.793 351.869C110.675 367.641 107.162 385.5 133.666 395.484C159.445 405.159 240.825 439.324 257.522 449.666C261.54 452.183 264.389 452.788 265.804 451.446C269.409 447.976 264.196 431.52 253.375 412.325C245.695 398.791 224.063 373.426 197.47 351.113C174.062 331.471 138.59 307.336 102.753 303.996C98.7709 303.606 96.2698 304.235 95.284 305.783C93.1067 309.307 98.3992 317.889 103.496 326.236C106.091 330.593 108.917 335.086 110.918 339.235Z" fill="white" fill-opacity="0.05"/>
<path d="M125.046 380.341C121.464 372.913 123.014 364.496 124.384 357.072L124.599 355.979C125.536 350.909 120.273 342.559 115.561 335.182C110.591 327.268 106.336 320.495 108.38 317.036C109.4 315.389 111.668 314.79 115.419 315.044C171.537 319.905 231.525 385.994 242.895 406.326C247.235 414.131 250.715 421.69 252.523 427.664C254.556 434.106 254.628 438.36 252.809 440.062C251.226 441.568 248.509 441.063 244.655 438.715C230.69 430.108 162.886 401.52 141.437 393.469C132.349 390.016 127.498 385.427 125.046 380.341ZM123.243 346.324C125.049 350.071 126.097 353.442 125.593 356.16L125.378 357.253C123.035 370.012 120.335 384.427 141.816 392.544C163.297 400.662 231.201 429.284 245.165 437.892C248.558 439.967 250.943 440.467 252.088 439.42C255.12 436.473 250.864 422.855 241.923 406.877C230.652 386.579 171.091 320.862 115.338 316.073C112.053 315.76 109.986 316.261 109.203 317.546C107.467 320.445 112.015 327.654 116.367 334.628C118.935 338.586 121.436 342.576 123.243 346.324Z" fill="white" fill-opacity="0.05"/>
<path d="M136.779 380.045C134.101 374.491 135.188 368.193 136.17 362.359C136.278 361.729 136.419 361.167 136.461 360.569C137.118 356.458 132.697 349.683 128.73 343.678C124.47 337.237 120.86 331.802 122.561 329.002C123.344 327.718 125.146 327.179 128.133 327.388C173.872 330.738 222.311 384.333 231.475 400.945C237.207 411.295 242.631 424.598 239.128 427.936C237.814 429.147 235.593 428.816 232.399 426.81C221.135 419.869 166.807 396.825 149.656 390.331C142.485 387.603 138.682 383.993 136.779 380.045ZM135.503 353.279C136.826 356.022 137.586 358.625 137.257 360.68C137.148 361.31 137.074 361.841 136.965 362.47C135.29 372.68 133.511 383.188 149.968 389.439C167.152 395.999 221.578 419.078 232.842 426.019C234.752 427.242 237.293 428.408 238.473 427.262C240.899 424.938 237.633 414.059 230.672 401.333C221.572 384.854 173.461 331.596 128.022 328.184C125.466 328.014 123.833 328.389 123.253 329.411C121.891 331.717 125.694 337.554 129.369 343.122C131.679 346.545 133.954 350.066 135.503 353.279Z" fill="white" fill-opacity="0.05"/>
<path d="M148.512 379.749C146.673 375.934 147.333 371.657 147.926 367.413C148.037 366.617 148.148 365.821 148.259 365.025C148.704 361.842 145.024 356.605 141.767 352.073C138.38 347.273 135.45 343.077 136.644 340.934C137.224 339.913 138.525 339.533 140.717 339.631C159.64 340.734 178.401 353.132 190.78 363.411C204.801 375.043 216.301 388.632 219.957 395.53C224.098 403.265 227.976 413.189 225.315 415.709C224.304 416.692 222.514 416.4 220.044 414.869C211.58 409.63 170.697 392.063 157.776 387.159C152.621 385.191 149.868 382.559 148.512 379.749ZM147.798 360.134C148.701 362.008 149.208 363.743 149.055 365.136C148.944 365.932 148.833 366.728 148.722 367.524C147.617 374.984 146.62 381.981 158.152 386.4C171.106 391.371 211.989 408.939 220.552 414.212C222.067 415.131 223.981 416.022 224.891 415.172C226.811 413.339 224.499 405.464 219.387 395.887C212.818 383.631 175.433 342.357 140.739 340.362C138.88 340.269 137.712 340.584 137.304 341.276C136.315 342.99 139.441 347.421 142.372 351.616C144.423 354.503 146.507 357.457 147.798 360.134Z" fill="white" fill-opacity="0.05"/>
<path d="M-360.607 64.1383C-361.284 62.733 -361.565 61.4663 -361.35 60.3729C-361.021 58.3175 -359.44 56.9779 -356.505 56.2227C-345.368 53.4922 -300.735 57.4573 -250.414 65.6909C-166.945 79.3857 -128.111 93.9 -115.267 99.501C-59.099 123.967 -16.4526 152.891 -6.57737 173.202L-6.54511 173.269C-2.25396 182.169 -9.49796 186.816 -17.1781 191.756C-27.5745 198.418 -39.2793 205.958 -34.0501 225.87C-29.5439 242.914 -19.9638 262.955 -11.4784 280.555C-0.639957 303.206 7.94233 321.007 3.10862 326.719C1.79055 328.261 0.117568 329.068 -1.81114 329.173C-10.8524 329.408 -26.4348 313.169 -60.6781 277.554C-66.7999 271.186 -73.6412 264.01 -81.1396 256.327C-104.942 231.761 -169.629 192.021 -232.307 153.539C-306.313 107.982 -353.796 78.0921 -360.607 64.1383ZM-8.58494 174.17C-19.5894 151.516 -70.5588 121.41 -116.193 101.514C-143.137 89.763 -192.27 77.4927 -250.777 67.8455C-300.833 59.6489 -345.067 55.6563 -355.971 58.357C-358.839 59.0799 -359.089 60.2725 -359.128 60.7039C-359.862 65.5113 -347.168 76.958 -321.371 94.5411C-297.515 110.834 -265.204 130.637 -231.115 151.562C-168.338 190.079 -103.453 229.889 -79.5539 254.655C-72.1223 262.371 -65.2142 269.515 -59.0923 275.883C-27.4362 308.868 -9.92144 327.063 -1.94375 326.845C-0.647205 326.797 0.423487 326.281 1.36991 325.165C5.2572 320.569 -3.90583 301.564 -13.5182 281.456C-22.0013 263.69 -31.6806 243.615 -36.2166 226.338C-41.8557 204.891 -28.8101 196.54 -18.3791 189.778C-9.92815 184.384 -5.29399 180.995 -8.58494 174.17Z" fill="white" fill-opacity="0.05"/>
<path d="M-341.655 70.259C-342.3 68.9206 -342.548 67.7208 -342.4 66.6597C-342.141 64.8027 -340.726 63.4607 -338.19 62.733C-327.232 58.6044 -282.174 63.1072 -242.227 69.4969C-190.013 77.7245 -143.791 89.089 -118.526 99.7531C-115.52 101.026 -112.416 102.333 -109.445 103.705C-62.8933 124.477 -27.2005 149.413 -18.4521 167.216L-18.4198 167.283C-14.4836 175.447 -21.0584 179.772 -28.0024 184.357C-37.3281 190.503 -47.9622 197.527 -43.0736 215.706C-38.9128 231.349 -30.0401 249.752 -22.2668 266.046C-12.3294 286.657 -4.52387 303.017 -8.58922 308.441C-9.67905 310.286 -11.1238 311.395 -12.9879 311.634C-21.0768 312.648 -36.7955 296.638 -71.1797 261.587C-75.2403 257.442 -79.6282 252.959 -84.2791 248.274C-105.894 226.365 -164.088 190.34 -220.405 155.471C-290.257 112.201 -335.169 83.7097 -341.655 70.259ZM-20.2936 168.186C-28.8806 150.718 -64.2137 126.186 -110.269 105.587C-113.208 104.282 -116.312 102.975 -119.318 101.702C-176.256 77.6899 -319.012 57.6927 -337.455 64.7705L-337.522 64.8027C-340.058 65.5305 -340.206 66.5916 -340.278 66.9561C-340.91 71.632 -328.873 82.5709 -304.328 99.4381C-281.626 115.049 -251.294 133.827 -219.184 153.728C-162.768 188.631 -104.474 224.691 -82.6635 246.835C-78.0126 251.52 -73.7238 255.968 -69.5641 260.148C-36.6533 293.683 -20.1483 310.468 -13.0584 309.606C-11.8933 309.457 -10.9194 308.74 -10.169 307.388L-10.0674 307.257C-6.64854 302.887 -15.0695 285.421 -23.9744 266.951C-31.8469 250.623 -40.7518 232.154 -44.9426 216.277C-50.1419 196.598 -38.4346 188.892 -29.0074 182.614C-21.4587 177.573 -17.293 174.41 -20.2936 168.186Z" fill="white" fill-opacity="0.05"/>
<path d="M-322.671 76.4466C-323.285 75.1751 -323.533 73.9754 -323.42 73.0134C-323.195 71.2556 -321.948 70.0774 -319.812 69.3771C-313.549 65.9451 -287.754 65.2199 -233.943 73.3376C-198.102 78.7378 -149.799 88.6037 -121.687 100.04C-118.912 101.176 -116.137 102.313 -113.429 103.481C-71.3267 121.698 -38.6249 144.364 -30.3282 161.23L-30.2959 161.297C-26.6823 168.792 -32.5879 172.794 -38.7959 177.024C-47.1177 182.686 -56.5474 189.129 -52.0662 205.608C-48.2184 219.918 -40.1201 236.715 -32.9897 251.504C-23.988 270.174 -16.8253 285.03 -20.1892 290.199C-21.0532 292.512 -22.302 293.856 -24.0693 294.296C-31.3372 295.986 -46.5696 280.814 -83.3569 244.2L-87.2884 240.322C-106.648 221.038 -158.318 188.794 -208.242 157.606C-274.104 116.454 -316.477 89.2951 -322.671 76.4466ZM-32.0036 162.203L-32.0358 162.136C-40.2059 145.704 -72.4141 123.377 -114.187 105.331C-116.895 104.162 -119.702 102.959 -122.444 101.89C-150.425 90.5551 -198.562 80.6916 -234.237 75.2937C-277.67 68.6878 -311.704 67.035 -318.906 71.0847L-318.973 71.117L-319.04 71.1493C-321.177 71.8495 -321.357 72.8437 -321.429 73.2082C-322.026 77.785 -310.48 88.2184 -287.156 104.437C-265.706 119.332 -237.186 137.087 -207.055 155.962C-157.032 187.185 -105.33 219.495 -85.8066 238.948L-81.8752 242.826C-47.7741 276.776 -30.6417 293.836 -24.4075 292.397C-23.6738 292.208 -22.67 291.725 -21.873 289.443L-21.8383 289.344L-21.7367 289.213C-18.8532 285.101 -26.5321 269.174 -34.6304 252.377C-41.7931 237.521 -49.9559 220.591 -53.8683 206.147C-58.6625 188.335 -48.192 181.142 -39.8355 175.381C-32.9906 170.761 -29.2611 167.891 -32.0036 162.203Z" fill="white" fill-opacity="0.05"/>
<path d="M-303.72 82.5673C-304.333 81.2959 -304.584 80.2622 -304.503 79.2333C-304.355 78.1722 -303.736 76.7191 -301.498 75.8874C-287.345 64.528 -170.944 82.551 -124.914 100.359C-122.37 101.359 -119.893 102.391 -117.448 103.357C-79.0676 119.327 -50.2472 139.246 -42.1715 155.311L-42.1393 155.378C-38.8806 162.137 -44.0178 165.851 -49.4897 169.726C-56.8077 174.904 -65.0005 180.834 -60.9938 195.644C-57.4914 208.554 -50.1005 223.712 -43.6154 237.163C-35.4501 253.927 -29.0618 267.177 -31.7911 272.122C-32.2656 275.072 -33.353 276.751 -35.1228 277.357C-41.2327 279.396 -54.3834 267.344 -90.3642 232.403C-107.536 215.775 -152.483 187.383 -195.981 159.943C-257.95 120.706 -297.784 94.8804 -303.72 82.5673ZM-43.7131 156.22L-43.7453 156.153C-51.5306 140.69 -80.6809 120.6 -118.104 105.075C-120.549 104.11 -123.026 103.077 -125.57 102.077C-174.045 83.3039 -288.447 67.2035 -300.456 77.3644L-300.557 77.4958L-300.691 77.5604C-302.295 78.1686 -302.572 78.9621 -302.646 79.4926C-303.756 89.6775 -245.934 126.129 -194.928 158.363C-151.398 185.87 -106.352 214.297 -89.0162 231.093C-58.475 260.74 -40.971 277.373 -35.6294 275.622C-34.5611 275.272 -33.8776 273.953 -33.5119 271.632L-33.5095 271.466L-33.408 271.334C-31.0252 267.381 -37.9297 253.061 -45.2883 237.969C-51.7735 224.519 -59.2289 209.226 -62.7959 196.183C-67.1503 180.138 -58.0182 173.591 -50.5663 168.349C-44.5221 163.95 -41.261 161.305 -43.7131 156.22Z" fill="white" fill-opacity="0.05"/>
</g>
</svg>
