<svg width="610" height="188" viewBox="0 0 610 188" fill="none" xmlns="http://www.w3.org/2000/svg">
<path d="M331.5 99.5L331.39 100.494L331.5 99.5ZM2.48783 185.291C2.99701 185.077 3.58318 185.316 3.79708 185.826C4.01098 186.335 3.7716 186.921 3.26242 187.135L2.48783 185.291ZM12.4713 183.252C11.9627 183.467 11.3759 183.229 11.1607 182.721C10.9455 182.212 11.1833 181.625 11.6919 181.41L12.4713 183.252ZM15.2959 179.883C15.8043 179.667 16.3914 179.904 16.6071 180.413C16.8229 180.921 16.5856 181.508 16.0772 181.724L15.2959 179.883ZM25.2808 177.805C24.7729 178.022 24.1853 177.786 23.9683 177.278C23.7513 176.77 23.987 176.183 24.4949 175.966L25.2808 177.805ZM28.1296 174.41C28.6372 174.193 29.2251 174.428 29.4426 174.936C29.6601 175.443 29.4249 176.031 28.9172 176.249L28.1296 174.41ZM38.0459 172.325C37.5387 172.544 36.9503 172.31 36.7316 171.803C36.513 171.296 36.7468 170.707 37.254 170.488L38.0459 172.325ZM40.9136 168.909C41.4206 168.689 42.0092 168.923 42.2283 169.43C42.4474 169.937 42.214 170.525 41.7071 170.744L40.9136 168.909ZM50.785 166.81C50.2785 167.03 49.6894 166.798 49.4693 166.291C49.2492 165.785 49.4813 165.196 49.9878 164.976L50.785 166.81ZM53.6657 163.376C54.172 163.155 54.7613 163.387 54.9818 163.893C55.2023 164.4 54.9705 164.989 54.4642 165.209L53.6657 163.376ZM63.5133 161.26C63.0073 161.481 62.4177 161.25 62.1964 160.744C61.9751 160.238 62.2059 159.649 62.7119 159.427L63.5133 161.26ZM66.4003 157.813C66.9062 157.591 67.4959 157.822 67.7175 158.328C67.9391 158.834 67.7086 159.423 67.2028 159.645L66.4003 157.813ZM76.242 155.679C75.7364 155.902 75.1464 155.672 74.9243 155.166C74.7022 154.66 74.9321 154.07 75.4377 153.848L76.242 155.679ZM79.1286 152.227C79.6342 152.004 80.2242 152.234 80.4465 152.74C80.6687 153.245 80.439 153.835 79.9334 154.057L79.1286 152.227ZM88.9783 150.08C88.4728 150.302 87.8827 150.073 87.6604 149.567C87.438 149.062 87.6676 148.472 88.1732 148.249L88.9783 150.08ZM91.858 146.629C92.3636 146.407 92.9536 146.636 93.1759 147.142C93.3982 147.647 93.1685 148.237 92.6629 148.46L91.858 146.629ZM101.726 144.479C101.22 144.701 100.63 144.471 100.408 143.965C100.186 143.459 100.416 142.87 100.922 142.648L101.726 144.479ZM104.593 141.039C105.099 140.818 105.688 141.048 105.91 141.554C106.131 142.06 105.901 142.65 105.395 142.872L104.593 141.039ZM114.484 138.905C113.977 139.125 113.388 138.893 113.168 138.387C112.948 137.88 113.18 137.291 113.686 137.071L114.484 138.905ZM117.335 135.487C117.842 135.267 118.431 135.5 118.65 136.007C118.87 136.514 118.637 137.102 118.13 137.322L117.335 135.487ZM127.251 133.394C126.744 133.611 126.156 133.375 125.939 132.868C125.722 132.36 125.957 131.772 126.465 131.555L127.251 133.394ZM130.087 130.01C130.596 129.794 131.183 130.031 131.399 130.539C131.615 131.047 131.378 131.635 130.87 131.851L130.087 130.01ZM140.029 127.995C139.519 128.208 138.933 127.966 138.721 127.456C138.509 126.947 138.75 126.361 139.26 126.149L140.029 127.995ZM142.929 124.629C143.439 124.418 144.024 124.662 144.234 125.172C144.445 125.683 144.202 126.267 143.691 126.478L142.929 124.629ZM152.88 122.747C152.367 122.952 151.785 122.702 151.58 122.189C151.375 121.676 151.625 121.095 152.138 120.89L152.88 122.747ZM155.858 119.416C156.372 119.213 156.952 119.466 157.154 119.98C157.357 120.494 157.104 121.075 156.59 121.277L155.858 119.416ZM165.841 117.719C165.324 117.913 164.748 117.651 164.554 117.134C164.36 116.617 164.621 116.041 165.138 115.847L165.841 117.719ZM168.834 114.475C169.353 114.284 169.928 114.55 170.118 115.069C170.308 115.587 170.042 116.162 169.524 116.352L168.834 114.475ZM178.874 113.028C178.351 113.208 177.783 112.929 177.603 112.407C177.424 111.885 177.702 111.316 178.225 111.137L178.874 113.028ZM182.015 109.856C182.539 109.681 183.105 109.965 183.279 110.489C183.454 111.013 183.17 111.579 182.646 111.754L182.015 109.856ZM192.078 108.756C191.549 108.915 190.991 108.617 190.831 108.088C190.671 107.559 190.97 107.001 191.499 106.841L192.078 108.756ZM195.312 105.712C195.842 105.558 196.397 105.864 196.55 106.394C196.704 106.925 196.398 107.48 195.868 107.633L195.312 105.712ZM205.422 105.033C204.887 105.169 204.343 104.845 204.206 104.31C204.07 103.775 204.394 103.231 204.929 103.094L205.422 105.033ZM208.796 102.14C209.333 102.011 209.873 102.343 210.001 102.88C210.13 103.417 209.798 103.956 209.261 104.085L208.796 102.14ZM218.921 101.959C218.38 102.068 217.853 101.717 217.744 101.176C217.636 100.634 217.987 100.107 218.528 99.9985L218.921 101.959ZM222.444 99.2446C222.987 99.1444 223.509 99.5034 223.609 100.047C223.709 100.59 223.35 101.111 222.807 101.211L222.444 99.2446ZM232.566 99.6054C232.019 99.6845 231.512 99.3055 231.433 98.7589C231.354 98.2123 231.733 97.7051 232.279 97.626L232.566 99.6054ZM236.229 97.0859C236.777 97.0153 237.278 97.4021 237.349 97.9499C237.419 98.4976 237.033 98.9989 236.485 99.0695L236.229 97.0859ZM246.311 97.9926C245.761 98.0425 245.275 97.637 245.225 97.087C245.175 96.537 245.581 96.0507 246.131 96.0008L246.311 97.9926ZM250.116 95.6689C250.666 95.6271 251.147 96.0396 251.188 96.5903C251.23 97.141 250.818 97.6214 250.267 97.6632L250.116 95.6689ZM260.161 97.0854C259.609 97.1082 259.143 96.6794 259.121 96.1276C259.098 95.5758 259.527 95.1099 260.078 95.0871L260.161 97.0854ZM264.027 94.9492C264.579 94.9334 265.039 95.3681 265.055 95.9202C265.071 96.4722 264.636 96.9325 264.084 96.9483L264.027 94.9492ZM273.981 96.8157C273.428 96.815 272.981 96.3668 272.982 95.8145C272.982 95.2622 273.431 94.815 273.983 94.8157L273.981 96.8157ZM278.004 94.8428C278.556 94.8495 278.999 95.3027 278.992 95.8549C278.985 96.4072 278.532 96.8494 277.98 96.8427L278.004 94.8428ZM287.891 97.0895C287.339 97.0691 286.908 96.6051 286.928 96.0532C286.949 95.5013 287.413 95.0704 287.965 95.0909L287.891 97.0895ZM291.894 95.254C292.445 95.2794 292.872 95.7471 292.847 96.2989C292.821 96.8506 292.354 97.2773 291.802 97.2519L291.894 95.254ZM301.697 97.8091C301.146 97.7726 300.729 97.2963 300.765 96.7452C300.802 96.1941 301.278 95.7769 301.829 95.8134L301.697 97.8091ZM305.806 96.0912C306.356 96.1317 306.77 96.611 306.73 97.1618C306.689 97.7126 306.21 98.1263 305.659 98.0859L305.806 96.0912ZM315.53 98.8937C314.98 98.8443 314.574 98.3584 314.624 97.8083C314.673 97.2582 315.159 96.8523 315.709 96.9017L315.53 98.8937ZM319.732 97.2749C320.282 97.3275 320.685 97.8159 320.633 98.3656C320.58 98.9154 320.092 99.3185 319.542 99.2658L319.732 97.2749ZM329.374 100.272C328.825 100.213 328.428 99.7192 328.488 99.1702C328.548 98.6211 329.041 98.2244 329.59 98.2841L329.374 100.272ZM333.642 98.725C334.191 98.7824 334.59 99.2741 334.533 99.8234C334.475 100.373 333.984 100.772 333.434 100.714L333.642 98.725ZM343.447 101.59C342.896 101.552 342.481 101.074 342.52 100.523C342.559 99.9718 343.037 99.5566 343.588 99.5953L343.447 101.59ZM347.64 99.8509C348.191 99.8817 348.613 100.354 348.582 100.905C348.552 101.457 348.08 101.879 347.528 101.848L347.64 99.8509ZM357.597 102.224C357.045 102.214 356.606 101.758 356.616 101.206C356.626 100.653 357.082 100.214 357.634 100.224L357.597 102.224ZM361.641 100.267C362.193 100.269 362.64 100.718 362.638 101.27C362.637 101.822 362.188 102.269 361.635 102.267L361.641 100.267ZM371.723 102.094C371.171 102.114 370.707 101.684 370.686 101.132C370.665 100.58 371.095 100.116 371.647 100.095L371.723 102.094ZM375.602 99.9126C376.153 99.8825 376.625 100.305 376.655 100.857C376.685 101.408 376.262 101.88 375.711 101.91L375.602 99.9126ZM385.779 101.14C385.23 101.194 384.74 100.793 384.686 100.243C384.632 99.6935 385.033 99.204 385.583 99.1497L385.779 101.14ZM389.598 98.716C390.146 98.6516 390.643 99.0441 390.708 99.5926C390.772 100.141 390.38 100.638 389.831 100.702L389.598 98.716ZM399.824 99.2938C399.279 99.3837 398.764 99.0149 398.674 98.4699C398.584 97.925 398.953 97.4104 399.498 97.3204L399.824 99.2938ZM403.401 96.6383C403.944 96.538 404.466 96.897 404.566 97.4401C404.666 97.9832 404.307 98.5047 403.764 98.605L403.401 96.6383ZM413.665 96.5263C413.128 96.653 412.589 96.32 412.463 95.7824C412.336 95.2449 412.669 94.7064 413.207 94.5797L413.665 96.5263ZM417.102 93.6208C417.637 93.4835 418.182 93.8058 418.319 94.3407C418.456 94.8757 418.134 95.4207 417.599 95.558L417.102 93.6208ZM427.298 92.8113C426.77 92.9749 426.21 92.6798 426.046 92.1523C425.883 91.6248 426.178 91.0646 426.705 90.901L427.298 92.8113ZM430.53 89.6736C431.054 89.4996 431.62 89.7836 431.794 90.3077C431.968 90.8319 431.684 91.3978 431.16 91.5718L430.53 89.6736ZM440.659 88.1614C440.143 88.3605 439.564 88.1042 439.365 87.589C439.166 87.0738 439.423 86.4948 439.938 86.2958L440.659 88.1614ZM443.651 84.821C444.163 84.6123 444.746 84.8578 444.955 85.3691C445.164 85.8805 444.918 86.4641 444.407 86.6728L443.651 84.821ZM453.67 82.647C453.168 82.8782 452.574 82.6591 452.343 82.1575C452.112 81.656 452.331 81.062 452.832 80.8307L453.67 82.647ZM456.444 79.129C456.941 78.8894 457.539 79.0987 457.779 79.5963C458.018 80.0939 457.809 80.6915 457.311 80.9311L456.444 79.129ZM466.322 76.3764C465.833 76.6346 465.228 76.4481 464.97 75.9598C464.712 75.4716 464.898 74.8665 465.387 74.6084L466.322 76.3764ZM468.911 72.7144C469.395 72.4498 470.003 72.6283 470.268 73.1131C470.532 73.5978 470.354 74.2053 469.869 74.4699L468.911 72.7144ZM478.644 69.5165C478.166 69.7941 477.554 69.6321 477.276 69.1547C476.999 68.6772 477.161 68.0651 477.638 67.7875L478.644 69.5165ZM481.104 65.7534C481.579 65.472 482.193 65.6292 482.474 66.1044C482.755 66.5797 482.598 67.193 482.123 67.4744L481.104 65.7534ZM490.733 62.3018C490.261 62.5882 489.646 62.4374 489.359 61.9652C489.073 61.4929 489.224 60.878 489.696 60.5916L490.733 62.3018ZM493.142 58.5017C493.615 58.2155 494.229 58.3664 494.516 58.8388C494.802 59.3111 494.651 59.926 494.179 60.2122L493.142 58.5017ZM502.796 55.0581C502.319 55.3371 501.707 55.1768 501.428 54.7001C501.149 54.2234 501.309 53.6109 501.786 53.332L502.796 55.0581ZM505.277 51.3184C505.757 51.0459 506.368 51.2143 506.64 51.6947C506.913 52.175 506.744 52.7854 506.264 53.0579L505.277 51.3184ZM515.075 48.3539C514.58 48.5982 513.98 48.3946 513.736 47.8992C513.492 47.4039 513.695 46.8044 514.191 46.5601L515.075 48.3539ZM517.849 44.8332C518.353 44.6066 518.945 44.8313 519.172 45.335C519.398 45.8387 519.173 46.4307 518.67 46.6572L517.849 44.8332ZM527.941 43.1327C527.413 43.2924 526.855 42.9932 526.695 42.4645C526.535 41.9358 526.834 41.3778 527.363 41.2181L527.941 43.1327ZM531.312 40.1715C531.85 40.0493 532.386 40.3868 532.508 40.9254C532.63 41.464 532.293 41.9997 531.754 42.1219L531.312 40.1715ZM541.491 40.9616C540.939 40.9645 540.489 40.5191 540.486 39.9668C540.483 39.4145 540.928 38.9645 541.481 38.9617L541.491 40.9616ZM0.613203 186.078C1.23998 185.815 1.86485 185.553 2.48783 185.291L3.26242 187.135C2.63911 187.397 2.01391 187.659 1.3868 187.922L0.613203 186.078ZM11.6919 181.41C12.9006 180.899 14.1019 180.39 15.2959 179.883L16.0772 181.724C14.8826 182.231 13.6806 182.74 12.4713 183.252L11.6919 181.41ZM24.4949 175.966C25.7142 175.445 26.9258 174.926 28.1296 174.41L28.9172 176.249C27.7128 176.765 26.5007 177.283 25.2808 177.805L24.4949 175.966ZM37.254 170.488C38.4821 169.959 39.7019 169.432 40.9136 168.909L41.7071 170.744C40.4949 171.268 39.2745 171.795 38.0459 172.325L37.254 170.488ZM49.9878 164.976C51.2225 164.439 52.4483 163.906 53.6657 163.376L54.4642 165.209C53.2464 165.74 52.0201 166.273 50.785 166.81L49.9878 164.976ZM62.7119 159.427C63.9504 158.886 65.1798 158.347 66.4003 157.813L67.2028 159.645C65.982 160.18 64.7522 160.718 63.5133 161.26L62.7119 159.427ZM75.4377 153.848C76.6774 153.304 77.9076 152.763 79.1286 152.227L79.9334 154.057C78.7123 154.594 77.4819 155.135 76.242 155.679L75.4377 153.848ZM88.1732 148.249C89.4111 147.705 90.6393 147.165 91.858 146.629L92.6629 148.46C91.4444 148.995 90.2163 149.536 88.9783 150.08L88.1732 148.249ZM100.922 142.648C102.156 142.107 103.379 141.571 104.593 141.039L105.395 142.872C104.182 143.403 102.959 143.939 101.726 144.479L100.922 142.648ZM113.686 137.071C114.912 136.538 116.129 136.01 117.335 135.487L118.13 137.322C116.925 137.844 115.709 138.372 114.484 138.905L113.686 137.071ZM126.465 131.555C127.682 131.034 128.889 130.519 130.087 130.01L130.87 131.851C129.673 132.359 128.467 132.874 127.251 133.394L126.465 131.555ZM139.26 126.149C140.492 125.636 141.715 125.129 142.929 124.629L143.691 126.478C142.48 126.977 141.259 127.483 140.029 127.995L139.26 126.149ZM152.138 120.89C153.387 120.391 154.627 119.9 155.858 119.416L156.59 121.277C155.362 121.76 154.126 122.25 152.88 122.747L152.138 120.89ZM165.138 115.847C166.378 115.381 167.61 114.924 168.834 114.475L169.524 116.352C168.304 116.8 167.077 117.256 165.841 117.719L165.138 115.847ZM178.225 111.137C179.494 110.701 180.758 110.274 182.015 109.856L182.646 111.754C181.395 112.17 180.138 112.594 178.874 113.028L178.225 111.137ZM191.499 106.841C192.774 106.455 194.044 106.079 195.312 105.712L195.868 107.633C194.608 107.998 193.345 108.372 192.078 108.756L191.499 106.841ZM204.929 103.094C206.219 102.766 207.508 102.448 208.796 102.14L209.261 104.085C207.983 104.391 206.703 104.707 205.422 105.033L204.929 103.094ZM218.528 99.9985C219.832 99.7372 221.137 99.4859 222.444 99.2446L222.807 101.211C221.51 101.451 220.215 101.7 218.921 101.959L218.528 99.9985ZM232.279 97.626C233.591 97.4363 234.907 97.2563 236.229 97.0859L236.485 99.0695C235.173 99.2385 233.867 99.4172 232.566 99.6054L232.279 97.626ZM246.131 96.0008C247.451 95.881 248.779 95.7704 250.116 95.6689L250.267 97.6632C248.941 97.764 247.622 97.8738 246.311 97.9926L246.131 96.0008ZM260.078 95.0871C261.385 95.033 262.701 94.987 264.027 94.9492L264.084 96.9483C262.767 96.986 261.459 97.0317 260.161 97.0854L260.078 95.0871ZM273.983 94.8157C275.313 94.8173 276.653 94.8263 278.004 94.8428L277.98 96.8427C276.636 96.8263 275.303 96.8173 273.981 96.8157L273.983 94.8157ZM287.965 95.0909C289.263 95.139 290.573 95.1934 291.894 95.254L291.802 97.2519C290.487 97.1916 289.183 97.1374 287.891 97.0895L287.965 95.0909ZM301.829 95.8134C303.143 95.9004 304.469 95.993 305.806 96.0912L305.659 98.0859C304.327 97.988 303.006 97.8957 301.697 97.8091L301.829 95.8134ZM315.709 96.9017C317.039 97.0211 318.38 97.1455 319.732 97.2749L319.542 99.2658C318.193 99.1367 316.856 99.0127 315.53 98.8937L315.709 96.9017ZM329.59 98.2841C330.261 98.3569 330.934 98.431 331.61 98.5061L331.39 100.494C330.715 100.419 330.043 100.345 329.374 100.272L329.59 98.2841ZM331.61 98.5061C332.29 98.5816 332.967 98.6546 333.642 98.725L333.434 100.714C332.755 100.643 332.074 100.57 331.39 100.494L331.61 98.5061ZM343.588 99.5953C344.949 99.691 346.3 99.7762 347.64 99.8509L347.528 101.848C346.179 101.773 344.818 101.687 343.447 101.59L343.588 99.5953ZM357.634 100.224C358.981 100.249 360.317 100.263 361.641 100.267L361.635 102.267C360.3 102.263 358.955 102.249 357.597 102.224L357.634 100.224ZM371.647 100.095C372.977 100.045 374.295 99.9838 375.602 99.9126L375.711 101.91C374.393 101.981 373.064 102.043 371.723 102.094L371.647 100.095ZM385.583 99.1497C386.934 99.0162 388.273 98.8715 389.598 98.716L389.831 100.702C388.493 100.859 387.143 101.005 385.779 101.14L385.583 99.1497ZM399.498 97.3204C400.812 97.1036 402.113 96.876 403.401 96.6383L403.764 98.605C402.464 98.8451 401.151 99.0748 399.824 99.2938L399.498 97.3204ZM413.207 94.5797C414.519 94.2703 415.818 93.9505 417.102 93.6208L417.599 95.558C416.302 95.8909 414.991 96.2139 413.665 96.5263L413.207 94.5797ZM426.705 90.901C427.995 90.5012 429.269 90.0918 430.53 89.6736L431.16 91.5718C429.887 91.9941 428.6 92.4075 427.298 92.8113L426.705 90.901ZM439.938 86.2958C441.19 85.8119 442.428 85.32 443.651 84.821L444.407 86.6728C443.172 87.1765 441.923 87.673 440.659 88.1614L439.938 86.2958ZM452.832 80.8307C454.051 80.269 455.254 79.7015 456.444 79.129L457.311 80.9311C456.112 81.5082 454.898 82.0805 453.67 82.647L452.832 80.8307ZM465.387 74.6084C466.576 73.9796 467.75 73.3479 468.911 72.7144L469.869 74.4699C468.701 75.1074 467.519 75.7433 466.322 76.3764L465.387 74.6084ZM477.638 67.7875C478.807 67.1079 479.962 66.4294 481.104 65.7534L482.123 67.4744C480.977 68.1527 479.818 68.8339 478.644 69.5165L477.638 67.7875ZM489.696 60.5916C490.857 59.8879 492.006 59.19 493.142 58.5017L494.179 60.2122C493.042 60.9006 491.895 61.597 490.733 62.3018L489.696 60.5916ZM501.786 53.332C502.96 52.6449 504.123 51.9729 505.277 51.3184L506.264 53.0579C505.119 53.7074 503.964 54.3748 502.796 55.0581L501.786 53.332ZM514.191 46.5601C515.417 45.9555 516.636 45.3788 517.849 44.8332L518.67 46.6572C517.48 47.1922 516.283 47.7587 515.075 48.3539L514.191 46.5601ZM527.363 41.2181C528.68 40.8205 529.995 40.4703 531.312 40.1715L531.754 42.1219C530.486 42.4096 529.216 42.7477 527.941 43.1327L527.363 41.2181ZM541.481 38.9617C542.167 38.9581 542.854 38.9711 543.543 39.001L543.457 40.9991C542.8 40.9706 542.145 40.9583 541.491 40.9616L541.481 38.9617Z" fill="#28334C" fill-opacity="0.16"/>
<mask id="mask0_509_809" style="mask-type:alpha" maskUnits="userSpaceOnUse" x="502" y="0" width="108" height="108">
<circle cx="556" cy="54" r="54" fill="#C4C4C4"/>
</mask>
<g mask="url(#mask0_509_809)">
<path d="M555.921 107.949C586.006 107.949 610.395 83.5599 610.395 53.4745C610.395 23.3891 586.006 -1 555.921 -1C525.835 -1 501.446 23.3891 501.446 53.4745C501.446 83.5599 525.835 107.949 555.921 107.949Z" fill="#CBCDEB"/>
<path d="M540.655 38.4787C540.655 38.4787 541.37 55.5612 542.626 59.0588C543.863 62.5372 552.713 68.7595 555.071 68.8754C558.685 69.03 566.356 62.4599 567.419 59.9671C568.733 56.8559 570.066 40.701 570.066 40.701L567.902 27.5027L542.53 29.725L540.655 38.4787Z" fill="#FF6B42"/>
<path d="M575.825 83.8322C575.825 83.8322 564.211 105.108 563.051 106.422C561.892 107.736 556.984 108.47 555.534 108.49C554.066 108.509 548.79 103.91 548.327 103.002C547.863 102.074 533.698 84.354 533.698 84.354C533.698 84.354 541.428 78.0737 544.558 73.8997C545.08 73.204 545.467 72.3924 545.737 71.5228C546.587 68.7981 546.433 65.4744 546.182 63.3294C546.027 61.9961 545.834 61.1072 545.834 61.1072L564.25 60.2183C564.25 60.2183 563.998 67.6387 565.37 72.7982C566.704 77.9384 575.825 83.8322 575.825 83.8322Z" fill="#FF6B42"/>
<path d="M541.486 43.7542C541.37 43.7155 539.766 43.0779 538.375 43.7542C536.984 44.4305 537.486 48.1794 538.375 49.6674C540.076 52.4887 542.646 52.6433 542.646 52.6433L541.486 43.7542Z" fill="#FF6B42"/>
<path d="M568.752 43.4065C568.868 43.3679 570.472 42.7302 571.863 43.4065C573.255 44.0829 572.752 47.8318 571.863 49.3197C570.163 52.141 567.593 52.2956 567.593 52.2956L568.752 43.4065Z" fill="#FF6B42"/>
<path d="M547.38 45.3582C547.129 44.5466 546.182 44.7399 546.085 45.5322C546.047 45.9959 546.027 46.8848 546.51 47.136C546.897 47.3486 547.264 47.0588 547.399 46.6916C547.496 46.4597 547.535 45.822 547.38 45.3582Z" fill="black"/>
<path d="M564.076 44.9525C563.825 44.1409 562.878 44.3341 562.781 45.1264C562.743 45.5902 562.724 46.4791 563.207 46.7303C563.593 46.9429 563.96 46.653 564.096 46.2858C564.192 46.0346 564.211 45.4163 564.076 44.9525Z" fill="black"/>
<path d="M549.08 40.7979C549.157 39.5805 546.336 39.5032 545.776 39.5419C544.906 39.5998 544.017 39.7931 543.206 40.1795C542.761 40.3921 540.867 41.5902 542.181 41.9187C543.322 42.2086 544.423 41.7641 545.544 41.5516C546.259 41.4163 548.616 42.0926 549.003 41.0878C549.061 40.9912 549.08 40.8945 549.08 40.7979Z" fill="#A6462B"/>
<path d="M560.5 41.0487C560.346 39.8313 563.167 39.5994 563.727 39.5994C564.597 39.5994 565.505 39.7346 566.336 40.0825C566.781 40.2564 568.752 41.3579 567.457 41.7637C566.336 42.1115 565.215 41.7443 564.075 41.6091C563.341 41.5124 561.041 42.3241 560.597 41.3579C560.539 41.2226 560.52 41.126 560.5 41.0487Z" fill="#A6462B"/>
<path d="M561.525 69.4746C560.385 70.7113 557.467 73.1075 554.51 73.3007C552.095 73.4553 547.399 72.0447 545.737 71.5036C546.588 68.7789 546.433 65.5325 546.182 63.3682C546.182 63.3682 552.134 69.1267 555.728 68.2958C558.453 67.6774 560.018 66.5373 560.81 66.6146C561.602 66.6919 562.665 68.2378 561.525 69.4746Z" fill="#D94921"/>
<path d="M555.882 45.6671C555.67 45.126 554.8 45.3579 555.013 45.899C556.037 48.5464 557.525 50.8266 556.133 53.6479C555.882 54.1697 556.655 54.6141 556.906 54.1117C558.452 51.0005 557.042 48.6623 555.882 45.6671Z" fill="#D94921"/>
<path d="M544.558 73.8806C544.558 73.8806 553.814 82.4025 555.36 81.8421C556.906 81.2817 566.124 74.5763 566.124 74.5763L576.617 82.5378C576.617 82.5378 572.114 134.056 571.998 138.23C571.882 142.404 572.443 182.694 572.443 182.694C572.443 182.694 559.728 189.226 559.38 189.226C559.032 189.226 544.558 182.694 544.558 182.694C544.558 182.694 540.925 122.925 538.22 112.683C535.514 102.442 530.22 85.6683 530.22 85.6683L544.558 73.8806Z" fill="#FFD6B3"/>
<path d="M570.279 38.6721C570.124 37.2421 569.854 35.8121 569.854 34.3628C569.854 33.3 569.061 34.3628 568.945 34.6334C568.617 35.4257 568.907 37.0489 568.868 37.9378C568.771 40.218 568.578 42.4982 568.288 44.7592C568.056 46.5176 567.612 48.1795 567.052 49.8607C566.684 50.9622 566.588 52.4501 565.602 53.2038C565.351 53.397 565.061 53.513 564.752 53.6289C562.143 54.5758 559.303 54.5758 556.559 54.6144C553.834 54.6337 551.032 55.0202 548.327 54.711C545.66 54.4019 544.771 52.8559 543.785 50.595C543.167 49.1844 542.684 47.6964 542.278 46.2085C541.467 43.1939 541.177 40.1021 541.138 36.9909C541.138 36.4112 540.23 36.4112 540.23 36.9909C540.249 39.1745 539.669 41.3002 539.805 43.4838C539.901 45.1456 539.921 46.7882 540.075 48.4501C540.442 52.3922 541.389 57.0299 542.626 60.7981C543.747 64.1991 545.679 66.4601 548.153 68.9142C551.496 72.2379 556.327 73.2621 560.752 71.4843C570.027 67.7741 569.293 54.827 569.95 46.7302C570.085 44.9524 570.201 43.1746 570.356 41.3968C570.433 40.4692 570.375 39.5803 570.279 38.6721Z" fill="#A6462B"/>
<path d="M574.646 25.1067C574.607 24.5463 574.51 23.9859 574.356 23.4641C573.911 21.9375 572.539 20.894 571.109 20.3143C568.945 19.4641 566.781 20.3723 564.616 20.7395C558.607 21.783 553.196 17.5703 547.167 19.0389C544.925 19.58 542.935 20.9713 541.543 22.7878C540.848 23.696 540.268 24.7395 539.92 25.8217C539.572 26.8845 539.592 28.0633 539.862 29.1454C538.007 29.3966 537.795 31.7735 537.891 33.2421C538.142 36.7204 539.031 40.1021 539.824 43.4839C539.959 44.0442 540.828 43.8124 540.693 43.2326V43.2133C540.886 43.1747 541.041 43.0394 541.06 42.7882C541.118 39.3485 542.394 35.9861 542.432 32.5078C543.63 33.1262 545.118 33.3194 546.413 33.1841C547.94 33.0295 549.254 32.1406 550.742 31.7928C552.867 31.2904 555.283 31.8315 557.389 32.2179C560.307 32.759 565.235 34.3822 568.636 33.3387C568.616 34.6141 568.868 35.8702 568.887 37.1456C568.887 37.3195 568.984 37.4354 569.1 37.5127C569.1 37.7253 569.1 37.9379 569.1 38.1697C569.1 38.363 569.196 38.4789 569.331 38.5369V41.4162C569.235 41.88 569.119 42.3244 569.003 42.7689C568.868 43.3293 569.737 43.5805 569.872 43.0201C570.723 39.5997 571.283 36.0441 570.781 32.5078C572.249 31.8121 573.428 30.2469 574.085 28.7976C574.549 27.6768 574.742 26.3628 574.646 25.1067Z" fill="#A6462B"/>
<path d="M559.264 56.8751C559.168 56.7978 559.013 56.7398 558.723 56.7591C556.926 56.8751 555.11 56.8171 553.312 56.8364C552.675 56.8364 551.651 57.1263 552.25 57.9186C553.254 59.2326 554.916 59.8896 556.926 59.5031C557.873 59.3292 560.076 57.5707 559.264 56.8751Z" fill="white"/>
<path d="M540.23 77.4556C540.23 77.4556 544.926 94.1322 546.085 112.587C547.245 131.041 550.008 198.579 547.496 200.492C544.984 202.405 537.563 202.405 530.24 199.023C522.916 195.641 516.172 192.936 516.848 187.777C517.524 182.598 514.51 98.4221 516.809 95.7168C519.09 92.9921 540.23 77.4556 540.23 77.4556Z" fill="#28334C"/>
<path d="M570.395 77.842C570.395 77.842 567.032 86.306 566.588 104.857C566.143 123.389 561.583 200.704 564.192 201.786C566.82 202.869 583.69 199.699 589.545 195.429C595.4 191.158 598.105 189.728 598.318 186.501C598.55 183.274 596.289 95.9293 595.168 93.224C594.047 90.5186 570.395 77.842 570.395 77.842Z" fill="#28334C"/>
<path d="M530.239 84.9148C530.239 84.9148 514.432 94.6928 509.872 104.857C506.664 111.988 502.219 169.999 507.843 174.83C513.466 179.661 548.23 170.404 548.23 170.404L530.239 84.9148Z" fill="#002B4D"/>
<path d="M555.129 82.3639C553.969 82.5765 551.477 86.963 552.23 89.0307C552.868 90.7505 558.24 90.3834 558.472 89.1273C558.897 86.6925 556.288 82.1513 555.129 82.3639Z" fill="#D42E00"/>
<path d="M557.138 89.5911L553.756 89.707C553.756 89.707 549.795 137.263 550.104 139.292C550.413 141.322 553.969 147.988 554.781 147.988C555.592 147.988 561.293 141.012 561.215 139.215C561.138 137.418 557.138 89.5911 557.138 89.5911Z" fill="#D42E00"/>
<path d="M595.168 93.2236C595.168 93.2236 601.255 98.6344 603.497 111.234C605.738 123.833 607.999 166.771 602.376 172.472C593.313 181.631 536.075 160.085 536.075 160.085L541.351 139.254L580.868 142.983L594.724 94.3638L595.168 93.2236Z" fill="#002B4D"/>
<path d="M530.124 121.785C529.39 117.36 529.448 112.915 528.848 108.49C528.056 102.674 525.003 96.6833 519.534 94.0359C519.013 93.7847 518.549 94.5576 519.071 94.8088C525.022 97.6881 527.631 104.336 528.153 110.577C528.423 113.824 528.462 117.07 528.964 120.317C529.583 124.317 530.704 128.394 529.834 132.433C529.718 132.993 530.588 133.244 530.704 132.665C531.496 129.012 530.723 125.399 530.124 121.785Z" fill="#001526"/>
<path d="M590.627 92.335C586.009 93.5525 584.482 99.7555 583.651 103.775C582.859 107.62 581.912 111.466 581.777 115.408C581.7 117.669 581.603 119.852 581.12 122.075C580.753 123.814 580.366 125.495 580.385 127.292C580.385 127.872 581.294 127.872 581.294 127.292C581.255 124.026 582.453 120.857 582.608 117.572C582.782 113.765 583.265 110.171 584.038 106.422C584.888 102.19 585.873 94.5187 590.878 93.2046C591.439 93.0694 591.188 92.1998 590.627 92.335Z" fill="#001526"/>
</g>
</svg>
