<svg width="214" height="406" viewBox="0 0 214 406" fill="none" xmlns="http://www.w3.org/2000/svg">
<path d="M0.0312755 5.32222C0.0412659 5.87441 0.497014 6.31395 1.0492 6.30396C1.6014 6.29396 2.04093 5.83822 2.03094 5.28602L0.0312755 5.32222ZM2.39936 15.3443C2.36867 14.7929 1.89678 14.3707 1.34535 14.4014C0.793924 14.4321 0.371765 14.904 0.40244 15.4554L2.39936 15.3443ZM0.652457 19.4048C0.691595 19.9557 1.16992 20.3706 1.72082 20.3315C2.27171 20.2923 2.68657 19.814 2.64743 19.2631L0.652457 19.4048ZM3.56709 29.2972C3.50518 28.7484 3.0101 28.3537 2.46129 28.4156C1.91249 28.4775 1.51779 28.9726 1.5797 29.5214L3.56709 29.2972ZM2.06219 33.4942C2.13348 34.0419 2.63524 34.4281 3.18291 34.3568C3.73057 34.2855 4.11676 33.7837 4.04546 33.2361L2.06219 33.4942ZM5.55809 43.1255C5.46216 42.5816 4.94348 42.2185 4.39959 42.3144C3.8557 42.4104 3.49256 42.9291 3.5885 43.4729L5.55809 43.1255ZM4.32644 47.4385C4.43261 47.9805 4.95805 48.3338 5.50003 48.2276C6.042 48.1215 6.39531 47.596 6.28915 47.054L4.32644 47.4385ZM8.44197 56.786C8.30938 56.2498 7.76727 55.9227 7.23115 56.0553C6.69501 56.1879 6.36786 56.73 6.50046 57.2661L8.44197 56.786ZM7.51336 61.1896C7.65692 61.7229 8.20561 62.0389 8.73892 61.8954C9.27222 61.7518 9.58818 61.2031 9.44463 60.6698L7.51336 61.1896ZM12.2818 70.2104C12.1104 69.6853 11.5458 69.3987 11.0208 69.5701C10.4958 69.7415 10.2092 70.3061 10.3806 70.8311L12.2818 70.2104ZM11.6824 74.6756C11.8653 75.1967 12.436 75.4709 12.9572 75.288C13.4783 75.1052 13.7525 74.5345 13.5696 74.0133L11.6824 74.6756ZM17.1245 83.3104C16.9129 82.8002 16.3278 82.5583 15.8177 82.7699C15.3075 82.9815 15.0656 83.5666 15.2772 84.0768L17.1245 83.3104ZM16.8745 87.8057C17.0978 88.3108 17.6883 88.5393 18.1935 88.316C18.6986 88.0927 18.9271 87.5022 18.7038 86.9971L16.8745 87.8057ZM22.9918 95.9867C22.7397 95.4953 22.1369 95.3014 21.6456 95.5536C21.1542 95.8057 20.9603 96.4084 21.2124 96.8998L22.9918 95.9867ZM23.103 100.48C23.3666 100.965 23.9737 101.145 24.4591 100.881C24.9444 100.618 25.1241 100.011 24.8604 99.5252L23.103 100.48ZM29.8739 108.141C29.5823 107.672 28.9656 107.529 28.4966 107.82C28.0276 108.112 27.8839 108.729 28.1755 109.198L29.8739 108.141ZM30.3482 112.602C30.6508 113.064 31.2706 113.193 31.7327 112.89C32.1947 112.588 32.3239 111.968 32.0214 111.506L30.3482 112.602ZM37.7283 119.69C37.3994 119.246 36.7732 119.153 36.3295 119.482C35.8858 119.811 35.7927 120.437 36.1215 120.881L37.7283 119.69ZM38.557 124.09C38.8959 124.526 39.5241 124.605 39.9602 124.266C40.3963 123.927 40.475 123.298 40.1361 122.862L38.557 124.09ZM46.4832 130.573C46.1205 130.156 45.4888 130.112 45.0723 130.475C44.6559 130.838 44.6122 131.469 44.9749 131.886L46.4832 130.573ZM47.6472 134.888C48.0188 135.297 48.6513 135.327 49.0598 134.955C49.4684 134.584 49.4984 133.951 49.1268 133.543L47.6472 134.888ZM56.045 140.757C55.6525 140.368 55.0194 140.372 54.6308 140.764C54.2422 141.156 54.2453 141.79 54.6378 142.178L56.045 140.757ZM57.5267 144.982C57.9268 145.363 58.5598 145.347 58.9405 144.947C59.3212 144.547 59.3054 143.914 58.9052 143.533L57.5267 144.982ZM66.3071 150.242C65.8893 149.881 65.2578 149.927 64.8966 150.345C64.5354 150.763 64.5813 151.394 64.9991 151.755L66.3071 150.242ZM68.0815 154.371C68.5058 154.725 69.1364 154.668 69.4899 154.243C69.8435 153.819 69.7862 153.188 69.3619 152.835L68.0815 154.371ZM77.1723 159.064C76.7334 158.729 76.1058 158.813 75.7705 159.252C75.4352 159.691 75.5191 160.318 75.958 160.654L77.1723 159.064ZM79.1886 163.081C79.6327 163.41 80.2588 163.316 80.5872 162.872C80.9155 162.428 80.8216 161.802 80.3775 161.473L79.1886 163.081ZM88.5293 167.268C88.0735 166.956 87.4512 167.073 87.1394 167.529C86.8275 167.984 86.9442 168.607 87.4 168.919L88.5293 167.268ZM90.7401 171.171C91.2001 171.476 91.8208 171.351 92.1265 170.891C92.4322 170.431 92.3071 169.811 91.8471 169.505L90.7401 171.171ZM100.272 174.916C99.8026 174.625 99.186 174.769 98.8945 175.238C98.603 175.707 98.7469 176.323 99.216 176.615L100.272 174.916ZM102.635 178.714C103.107 179 103.722 178.849 104.009 178.377C104.295 177.905 104.144 177.29 103.672 177.003L102.635 178.714ZM112.306 182.093C111.827 181.818 111.216 181.984 110.941 182.463C110.666 182.942 110.832 183.553 111.311 183.828L112.306 182.093ZM114.812 185.818C115.293 186.089 115.903 185.918 116.174 185.437C116.445 184.955 116.274 184.346 115.793 184.075L114.812 185.818ZM124.567 188.909C124.081 188.646 123.474 188.827 123.212 189.313C122.949 189.799 123.13 190.406 123.616 190.668L124.567 188.909ZM127.176 192.579C127.663 192.839 128.269 192.654 128.529 192.167C128.789 191.68 128.604 191.074 128.117 190.814L127.176 192.579ZM136.995 195.488C136.505 195.233 135.901 195.423 135.646 195.913C135.391 196.403 135.581 197.007 136.071 197.262L136.995 195.488ZM139.623 199.108C140.113 199.362 140.716 199.171 140.971 198.68C141.225 198.19 141.033 197.586 140.543 197.332L139.623 199.108ZM149.462 201.947C148.972 201.693 148.368 201.885 148.114 202.375C147.86 202.866 148.052 203.469 148.542 203.723L149.462 201.947ZM152.11 205.575C152.6 205.83 153.203 205.64 153.459 205.15C153.714 204.66 153.523 204.057 153.033 203.801L152.11 205.575ZM161.931 208.492C161.444 208.231 160.838 208.415 160.577 208.901C160.316 209.388 160.499 209.994 160.986 210.255L161.931 208.492ZM164.515 212.164C165 212.429 165.608 212.25 165.872 211.765C166.137 211.281 165.959 210.673 165.474 210.409L164.515 212.164ZM174.237 215.349C173.76 215.07 173.148 215.23 172.869 215.707C172.59 216.184 172.75 216.796 173.227 217.075L174.237 215.349ZM176.67 219.128C177.142 219.415 177.757 219.265 178.044 218.793C178.331 218.321 178.181 217.706 177.709 217.419L176.67 219.128ZM186.204 222.902C185.749 222.588 185.127 222.702 184.813 223.156C184.499 223.611 184.613 224.234 185.067 224.548L186.204 222.902ZM188.265 226.83C188.71 227.158 189.336 227.064 189.664 226.619C189.992 226.175 189.897 225.549 189.453 225.221L188.265 226.83ZM197.334 231.682C196.928 231.307 196.295 231.332 195.921 231.738C195.546 232.144 195.571 232.776 195.977 233.151L197.334 231.682ZM198.785 235.896C199.168 236.294 199.801 236.306 200.199 235.923C200.597 235.54 200.609 234.907 200.226 234.509L198.785 235.896ZM206.612 242.512C206.315 242.047 205.697 241.91 205.231 242.207C204.765 242.504 204.629 243.122 204.926 243.588L206.612 242.512ZM206.854 246.967C207.103 247.46 207.705 247.658 208.198 247.409C208.691 247.16 208.889 246.559 208.64 246.066L206.854 246.967ZM211.935 255.803C211.836 255.26 211.315 254.9 210.772 254.999C210.229 255.098 209.869 255.619 209.968 256.162L211.935 255.803ZM210.484 260.089C210.539 260.638 211.029 261.039 211.578 260.984C212.128 260.93 212.529 260.44 212.474 259.89L210.484 260.089ZM212.877 269.783C212.889 269.231 212.452 268.773 211.9 268.761C211.348 268.748 210.89 269.186 210.877 269.738L212.877 269.783ZM210.68 273.635C210.637 274.186 211.047 274.668 211.598 274.712C212.148 274.755 212.63 274.345 212.674 273.794L210.68 273.635ZM211.117 283.64C211.247 283.103 210.918 282.563 210.381 282.433C209.844 282.302 209.304 282.632 209.173 283.169L211.117 283.64ZM208.137 286.885C207.97 287.412 208.262 287.974 208.789 288.14C209.315 288.307 209.877 288.015 210.044 287.488L208.137 286.885ZM206.22 296.705C206.475 296.215 206.284 295.612 205.794 295.357C205.304 295.102 204.7 295.293 204.446 295.783L206.22 296.705ZM202.552 299.148C202.265 299.62 202.416 300.235 202.888 300.522C203.36 300.808 203.975 300.658 204.262 300.186L202.552 299.148ZM198.471 308.286C198.823 307.861 198.763 307.23 198.337 306.879C197.911 306.527 197.281 306.587 196.929 307.013L198.471 308.286ZM194.384 309.944C194.012 310.352 194.042 310.985 194.451 311.357C194.859 311.728 195.492 311.699 195.863 311.29L194.384 309.944ZM188.842 318.286C189.249 317.913 189.277 317.281 188.904 316.873C188.531 316.466 187.898 316.438 187.491 316.811L188.842 318.286ZM184.577 319.413C184.161 319.776 184.118 320.408 184.481 320.824C184.844 321.24 185.476 321.283 185.892 320.92L184.577 319.413ZM178.338 327.256C178.765 326.907 178.828 326.277 178.478 325.849C178.128 325.422 177.498 325.359 177.071 325.709L178.338 327.256ZM174.028 328.197C173.601 328.547 173.538 329.177 173.888 329.604C174.238 330.031 174.868 330.094 175.295 329.744L174.028 328.197ZM167.801 336.048C168.215 335.683 168.256 335.051 167.891 334.636C167.526 334.222 166.894 334.181 166.479 334.546L167.801 336.048ZM163.544 337.206C163.14 337.583 163.119 338.216 163.497 338.619C163.874 339.022 164.507 339.043 164.91 338.666L163.544 337.206ZM158.224 345.678C158.576 345.253 158.516 344.622 158.091 344.27C157.665 343.918 157.035 343.978 156.683 344.403L158.224 345.678ZM154.244 347.579C153.925 348.029 154.031 348.653 154.482 348.973C154.932 349.292 155.556 349.186 155.876 348.735L154.244 347.579ZM151.286 357.118C151.488 356.604 151.234 356.023 150.719 355.822C150.205 355.621 149.625 355.875 149.424 356.389L151.286 357.118ZM148.164 360.227C148.021 360.761 148.338 361.309 148.872 361.452C149.405 361.594 149.953 361.277 150.096 360.744L148.164 360.227ZM148.922 370.175C148.918 369.623 148.468 369.178 147.916 369.182C147.363 369.185 146.918 369.636 146.922 370.188L148.922 370.175ZM0.00138082 3.25048C0.00884494 3.94359 0.0188149 4.63417 0.0312755 5.32222L2.03094 5.28602C2.01858 4.60287 2.00868 3.91719 2.00126 3.22895L0.00138082 3.25048ZM0.40244 15.4554C0.47622 16.7817 0.559615 18.0981 0.652457 19.4048L2.64743 19.2631C2.55531 17.9667 2.47257 16.6605 2.39936 15.3443L0.40244 15.4554ZM1.5797 29.5214C1.73032 30.8563 1.89119 32.1806 2.06219 33.4942L4.04546 33.2361C3.87594 31.9338 3.71644 30.6209 3.56709 29.2972L1.5797 29.5214ZM3.5885 43.4729C3.8237 44.8063 4.06974 46.1281 4.32644 47.4385L6.28915 47.054C6.03487 45.756 5.79111 44.4466 5.55809 43.1255L3.5885 43.4729ZM6.50046 57.2661C6.8269 58.5862 7.16463 59.894 7.51336 61.1896L9.44463 60.6698C9.09946 59.3874 8.76515 58.0928 8.44197 56.786L6.50046 57.2661ZM10.3806 70.8311C10.8032 72.1254 11.2372 73.4068 11.6824 74.6756L13.5696 74.0133C13.1292 72.7584 12.6999 71.4908 12.2818 70.2104L10.3806 70.8311ZM15.2772 84.0768C15.7983 85.3329 16.3309 86.5758 16.8745 87.8057L18.7038 86.9971C18.1663 85.7812 17.6398 84.5524 17.1245 83.3104L15.2772 84.0768ZM21.2124 96.8998C21.8317 98.1065 22.462 99.2998 23.103 100.48L24.8604 99.5252C24.2269 98.3589 23.6039 97.1794 22.9918 95.9867L21.2124 96.8998ZM28.1755 109.198C28.8894 110.346 29.6138 111.48 30.3482 112.602L32.0214 111.506C31.2954 110.397 30.5795 109.276 29.8739 108.141L28.1755 109.198ZM36.1215 120.881C36.9239 121.964 37.7358 123.033 38.557 124.09L40.1361 122.862C39.3243 121.818 38.5215 120.76 37.7283 119.69L36.1215 120.881ZM44.9749 131.886C45.8573 132.899 46.7482 133.9 47.6472 134.888L49.1268 133.543C48.2374 132.565 47.356 131.575 46.4832 130.573L44.9749 131.886ZM54.6378 142.178C55.5936 143.125 56.5567 144.059 57.5267 144.982L58.9052 143.533C57.9448 142.619 56.9912 141.694 56.045 140.757L54.6378 142.178ZM64.9991 151.755C66.0209 152.638 67.0485 153.51 68.0815 154.371L69.3619 152.835C68.3379 151.982 67.3195 151.117 66.3071 150.242L64.9991 151.755ZM75.958 160.654C77.0306 161.473 78.1077 162.282 79.1886 163.081L80.3775 161.473C79.3049 160.68 78.2363 159.877 77.1723 159.064L75.958 160.654ZM87.4 168.919C88.5108 169.679 89.6244 170.429 90.7401 171.171L91.8471 169.505C90.7387 168.768 89.6326 168.023 88.5293 167.268L87.4 168.919ZM99.216 176.615C100.355 177.323 101.495 178.022 102.635 178.714L103.672 177.003C102.538 176.316 101.404 175.62 100.272 174.916L99.216 176.615ZM111.311 183.828C112.479 184.498 113.646 185.162 114.812 185.818L115.793 184.075C114.632 183.421 113.469 182.761 112.306 182.093L111.311 183.828ZM123.616 190.668C124.806 191.311 125.993 191.948 127.176 192.579L128.117 190.814C126.937 190.185 125.753 189.55 124.567 188.909L123.616 190.668ZM136.071 197.262C137.261 197.882 138.445 198.497 139.623 199.108L140.543 197.332C139.366 196.722 138.183 196.108 136.995 195.488L136.071 197.262ZM148.542 203.723C149.741 204.344 150.93 204.961 152.11 205.575L153.033 203.801C151.852 203.186 150.662 202.569 149.462 201.947L148.542 203.723ZM160.986 210.255C162.176 210.893 163.353 211.529 164.515 212.164L165.474 210.409C164.306 209.771 163.125 209.132 161.931 208.492L160.986 210.255ZM173.227 217.075C174.394 217.759 175.543 218.442 176.67 219.128L177.709 217.419C176.571 216.727 175.413 216.038 174.237 215.349L173.227 217.075ZM185.067 224.548C186.162 225.304 187.228 226.064 188.265 226.83L189.453 225.221C188.398 224.442 187.315 223.67 186.204 222.902L185.067 224.548ZM195.977 233.151C196.957 234.056 197.894 234.971 198.785 235.896L200.226 234.509C199.305 233.553 198.341 232.611 197.334 231.682L195.977 233.151ZM204.926 243.588C205.632 244.695 206.276 245.821 206.854 246.967L208.64 246.066C208.03 244.857 207.352 243.673 206.612 242.512L204.926 243.588ZM209.968 256.162C210.085 256.805 210.184 257.454 210.264 258.111L212.249 257.869C212.165 257.173 212.06 256.485 211.935 255.803L209.968 256.162ZM210.264 258.111C210.345 258.777 210.419 259.436 210.484 260.089L212.474 259.89C212.407 259.223 212.332 258.549 212.249 257.869L210.264 258.111ZM210.877 269.738C210.848 271.068 210.781 272.366 210.68 273.635L212.674 273.794C212.778 272.486 212.846 271.15 212.877 269.783L210.877 269.738ZM209.173 283.169C208.865 284.44 208.519 285.678 208.137 286.885L210.044 287.488C210.439 286.238 210.798 284.956 211.117 283.64L209.173 283.169ZM204.446 295.783C203.847 296.934 203.215 298.055 202.552 299.148L204.262 300.186C204.947 299.056 205.601 297.897 206.22 296.705L204.446 295.783ZM196.929 307.013C196.104 308.012 195.254 308.988 194.384 309.944L195.863 311.29C196.753 310.312 197.624 309.312 198.471 308.286L196.929 307.013ZM187.491 316.811C186.53 317.692 185.558 318.558 184.577 319.413L185.892 320.92C186.883 320.056 187.868 319.179 188.842 318.286L187.491 316.811ZM177.071 325.709C176.068 326.53 175.023 327.382 174.028 328.197L175.295 329.744C176.317 328.907 177.304 328.103 178.338 327.256L177.071 325.709ZM166.479 334.546C165.481 335.425 164.5 336.31 163.544 337.206L164.91 338.666C165.85 337.787 166.815 336.915 167.801 336.048L166.479 334.546ZM156.683 344.403C155.827 345.438 155.012 346.495 154.244 347.579L155.876 348.735C156.612 347.696 157.397 346.678 158.224 345.678L156.683 344.403ZM149.424 356.389C148.938 357.631 148.516 358.909 148.164 360.227L150.096 360.744C150.428 359.499 150.827 358.292 151.286 357.118L149.424 356.389ZM146.922 370.188C146.926 370.86 146.947 371.542 146.984 372.233L148.981 372.124C148.946 371.465 148.926 370.815 148.922 370.175L146.922 370.188Z" fill="#28334C" fill-opacity="0.16"/>
<mask id="mask0_572_806" style="mask-type:alpha" maskUnits="userSpaceOnUse" x="104" y="295" width="109" height="109">
<circle cx="158.762" cy="349.504" r="54" fill="#C4C4C4"/>
</mask>
<g mask="url(#mask0_572_806)">
<path d="M63.7617 307.504C63.7617 296.458 72.716 287.504 83.7617 287.504H233.762C244.807 287.504 253.762 296.458 253.762 307.504V410.504H63.7617V307.504Z" fill="#858FA9"/>
<g style="mix-blend-mode:color">
<path d="M63.7617 307.504C63.7617 296.458 72.716 287.504 83.7617 287.504H233.762C244.807 287.504 253.762 296.458 253.762 307.504V410.504H63.7617V307.504Z" fill="#858FA9"/>
</g>
<path d="M158.826 415.218C193.264 415.218 221.182 387.3 221.182 352.861C221.182 318.422 193.264 290.504 158.826 290.504C124.387 290.504 96.4688 318.422 96.4688 352.861C96.4688 387.3 124.387 415.218 158.826 415.218Z" fill="#CBCDEB"/>
<path d="M123.211 384.869C123.211 384.869 110.359 391.195 107.395 401.171C104.453 411.147 96.4679 460.962 97.4855 464.678C103.104 485.317 118.61 495.602 123.433 496.421C128.255 497.217 135.665 486.113 135.93 481.291C136.196 476.468 135.93 448.907 135.93 448.907L132.59 423.977L123.211 384.869Z" fill="#A6462B"/>
<path d="M176.255 350.184C176.078 352.861 175.569 355.582 174.817 358.17C173.866 361.466 167.518 365.978 166.323 366.155C162.165 366.752 153.051 359.585 150.22 357.285C147.388 354.962 146.238 349.609 146.238 349.609L143.053 336.094C143.053 336.094 147.831 328.418 151.923 326.958C156.037 325.498 167.562 320.057 167.562 320.057C167.827 319.924 170.017 322.578 170.305 322.888C171.234 323.972 174.176 325.122 175.105 326.228C176.056 327.378 176.233 331.426 176.344 334.169C176.388 335.076 176.41 335.961 176.432 336.824C176.454 337.399 176.454 337.952 176.476 338.505C176.587 342.044 176.543 345.495 176.255 350.184Z" fill="#FF6B42"/>
<path d="M176.256 379.604C176.256 379.604 161.9 399.335 161.392 399.18C160.883 399.025 139.139 377.193 139.139 377.193C139.139 377.193 146.062 372.68 146.416 371.331C146.77 369.982 146.969 352.086 146.969 352.086C146.969 352.086 156.414 355.139 156.879 355.139C157.344 355.139 167.209 361.532 167.209 361.532C167.209 361.532 167.209 362.262 167.187 363.368C167.187 364.076 167.165 364.916 167.165 365.823C167.143 367.305 167.143 368.964 167.165 370.402C167.165 371.021 167.165 371.596 167.187 372.105C167.209 373.189 167.253 373.941 167.32 374.118C167.585 374.804 176.256 379.604 176.256 379.604Z" fill="#FF6B42"/>
<path d="M155.95 341.801C155.64 340.85 154.512 341.049 154.423 342.022C154.357 342.575 154.335 343.615 154.932 343.946C155.397 344.19 155.839 343.858 155.972 343.416C156.082 343.106 156.127 342.354 155.95 341.801Z" fill="black"/>
<path d="M172.694 342.044C172.428 341.181 171.389 341.358 171.3 342.243C171.256 342.752 171.234 343.703 171.765 343.99C172.185 344.212 172.583 343.902 172.716 343.504C172.826 343.216 172.848 342.53 172.694 342.044Z" fill="black"/>
<path d="M150.574 337.863C149.888 339.323 152.764 338.571 153.273 338.527C154.268 338.394 155.241 338.328 156.237 338.284C156.679 338.262 158.382 338.527 158.294 337.731C158.028 334.855 151.525 335.828 150.574 337.863Z" fill="#FFD6B3"/>
<path d="M176.5 338.505C175.792 338.571 174.819 338.394 174.531 338.372C173.536 338.306 172.54 338.283 171.545 338.306C171.103 338.306 169.421 338.66 169.444 337.863C169.554 335.386 174.399 335.496 176.434 336.824C176.478 337.377 176.5 337.93 176.5 338.505Z" fill="#FFD6B3"/>
<path d="M167.34 347.463C167.053 346.003 166.5 344.61 166.124 343.172C165.947 342.508 164.951 342.884 165.128 343.548C165.394 344.61 165.77 345.649 166.057 346.711C166.544 348.437 166.257 349.498 165.482 351.025C165.173 351.644 166.146 352.086 166.456 351.489C167.097 350.162 167.628 348.945 167.34 347.463Z" fill="#D94921"/>
<path d="M167.164 372.083C165.925 371.994 164.288 371.862 162.452 371.596C158.603 371.043 154.6 367.681 154.6 365.115C154.6 363.832 156.037 363.699 156.546 363.876C157.055 364.053 162.541 366.31 164.266 366.354C165.969 366.398 167.164 365.801 167.164 365.801C167.142 367.283 167.142 368.942 167.164 370.38C167.164 370.999 167.164 371.574 167.164 372.083Z" fill="#D94921"/>
<path d="M146.637 368.212C146.637 368.212 158.427 375.357 160.573 375.623C162.718 375.91 167.164 372.083 167.164 372.083C167.164 372.083 171.544 376.441 172.783 377.038C174.022 377.636 177.583 379.848 177.716 380.047C177.849 380.246 177.096 400.309 161.435 400.619C143.053 400.972 137.59 378.321 138.121 377.503C138.652 376.707 142.545 373.278 143.673 372.061C144.845 370.889 146.637 368.212 146.637 368.212Z" fill="#A6462B"/>
<path d="M139.536 376.042C139.536 376.042 148.783 396.15 163.382 393.407C177.981 390.664 176.411 379.184 176.411 379.184C176.411 379.184 191.187 387.788 192.802 389.337C194.417 390.885 200.632 396.504 202.115 406.015C203.597 415.527 203.176 430.657 204.393 438.444C205.61 446.208 210.675 464.656 212.29 477.441C212.976 482.817 213.86 491.775 206.251 498.743C202.402 502.283 200.5 502.504 200.5 502.504C200.5 502.504 195.722 487.904 194.66 487.241C193.598 486.577 189.395 489.254 178.402 489.254C167.408 489.254 157.896 487.108 150.398 486.975C142.899 486.843 132.989 485.626 130.158 483.768C127.348 481.888 123.853 475.871 125.07 471.314C126.286 466.757 128.963 458.462 128.83 454.702C128.698 450.942 120.38 423.888 119.584 418.801C118.788 413.713 114.496 390.929 118.921 387.589C123.345 384.161 139.536 376.042 139.536 376.042Z" fill="#A6462B"/>
<path d="M160.948 378.387C159.555 378.631 156.591 383.851 157.498 386.329C158.25 388.386 164.664 387.943 164.908 386.461C165.439 383.541 162.342 378.144 160.948 378.387Z" fill="#001526"/>
<path d="M163.338 386.992L159.312 387.125C159.312 387.125 154.601 443.731 154.955 446.142C155.308 448.553 159.556 456.494 160.507 456.494C161.458 456.494 168.249 448.177 168.16 446.053C168.072 443.93 163.338 386.992 163.338 386.992Z" fill="#001526"/>
<path d="M149.557 350.029C149.49 349.985 149.446 349.941 149.402 349.897C149.225 349.476 149.004 349.1 148.76 348.724C148.827 348.569 148.849 348.392 148.782 348.193C148.517 347.441 148.163 346.667 148.097 345.871C148.075 345.561 148.075 345.251 148.097 344.942C148.097 344.831 148.119 344.698 148.141 344.588C148.185 344.499 148.185 344.455 148.185 344.411C148.871 344.145 148.893 343.061 148.251 342.884C148.296 342.818 148.318 342.774 148.318 342.752C149.092 343.437 150.242 342.309 149.446 341.624C149.402 341.579 149.335 341.535 149.291 341.513C149.247 341.336 149.136 341.159 148.959 341.048C148.097 340.451 147.322 340.628 146.725 341.181C145.951 341.69 145.442 342.663 145.376 343.659C145.354 344.079 145.376 344.499 145.42 344.897C145.553 347.043 146.615 349.565 148.185 350.98C148.252 351.047 148.318 351.113 148.384 351.157C148.406 351.18 148.429 351.202 148.451 351.202C149.225 351.799 150.375 350.649 149.557 350.029Z" fill="#FF6B42"/>
<path d="M168.845 354.1C168.735 353.989 168.558 353.923 168.248 353.945C166.213 354.011 164.134 353.834 162.099 353.768C161.391 353.746 160.196 354.033 160.86 355.029C161.944 356.666 163.802 357.55 166.103 357.174C167.164 357.019 169.73 354.962 168.845 354.1Z" fill="white"/>
<path d="M180.701 322.799C180.568 320.985 180.723 319.26 179.462 317.778C178.71 316.915 177.98 315.986 177.073 315.278C175.835 314.305 174.463 314.305 173.003 313.929C171.809 313.619 170.592 313.398 169.354 313.398C166.832 313.089 165.195 310.877 162.717 310.412C160.815 310.058 158.78 309.903 156.922 310.5C154.29 311.341 152.166 313.487 149.843 314.925C148.671 315.632 147.477 315.721 146.26 316.163C144.601 316.783 143.583 318.021 143.053 319.658C142.632 321.008 142.146 321.848 141.15 322.888C140.642 323.397 140.111 323.927 139.801 324.591C139.182 325.962 139.58 328.152 140.288 329.524C139.956 331.316 139.558 333.129 139.779 334.943C139.934 336.182 140.42 337.244 140.774 338.416C141.261 340.031 140.973 341.579 141.172 343.216C141.438 345.45 142.632 347.751 143.406 349.83C143.915 351.224 146.902 353.038 146.99 352.772C147.211 352.131 147.521 351.401 147.587 350.737C147.919 347.862 148.14 344.964 148.361 342.088C148.583 339.058 148.627 335.828 148.45 332.687C149.246 331.979 149.866 330.851 150.618 330.187C152.387 328.639 154.931 326.759 157.165 326.029C159.222 325.365 162.231 324.834 164.354 325.542C165.881 326.051 167.495 326.737 169 327.29C171.013 328.02 170.725 329.922 172.008 331.338C173.07 332.51 174.485 333.948 175.768 334.855C176.609 335.452 177.693 335.695 178.71 335.408C179.883 335.076 180.347 334.147 181.033 333.262C181.121 333.152 181.21 333.041 181.276 332.93C181.431 332.731 181.586 332.554 181.719 332.333C183.887 329.126 180.922 326.095 180.701 322.799Z" fill="#FFD6B3"/>
<path d="M149.423 338.991C149.091 338.283 148.251 337.974 147.388 338.062C146.083 338.217 145.021 339.434 144.667 340.628C143.915 343.106 145.663 347.861 148.406 348.525C148.76 348.613 149.158 348.282 149.025 347.906C148.914 347.596 148.76 347.33 148.583 347.065C148.826 346.8 148.914 346.379 148.627 346.025C148.538 345.915 148.472 345.804 148.406 345.649C148.45 345.605 148.472 345.539 148.494 345.472C148.782 344.787 148.937 343.968 148.738 343.26C148.959 343.172 149.136 342.951 149.158 342.641C149.202 341.889 149.291 341.137 149.18 340.407C149.224 340.186 149.29 339.987 149.379 339.81C149.467 339.787 149.556 339.721 149.556 339.611C149.556 339.611 149.556 339.611 149.556 339.588C149.578 339.566 149.578 339.566 149.6 339.544C149.843 339.411 149.689 339.058 149.423 338.991Z" fill="#FF6B42"/>
</g>
</svg>
