<svg width="128" height="565" viewBox="0 0 128 565" fill="none" xmlns="http://www.w3.org/2000/svg">
<path d="M2.80809 3.16422C3.02613 3.67164 2.79154 4.25975 2.28412 4.47779C1.7767 4.69583 1.1886 4.46125 0.970555 3.95383L2.80809 3.16422ZM4.91866 13.2746C4.7059 12.7649 4.94659 12.1793 5.45625 11.9665C5.96591 11.7538 6.55155 11.9944 6.7643 12.5041L4.91866 13.2746ZM8.30329 16.2125C8.51392 16.7231 8.27079 17.3077 7.76024 17.5183C7.2497 17.7289 6.66507 17.4858 6.45445 16.9753L8.30329 16.2125ZM10.2675 26.3593C10.0623 25.8465 10.3117 25.2645 10.8245 25.0594C11.3372 24.8542 11.9192 25.1036 12.1244 25.6164L10.2675 26.3593ZM13.6158 29.3675C13.8188 29.8812 13.5669 30.4621 13.0533 30.665C12.5396 30.868 11.9587 30.6161 11.7558 30.1025L13.6158 29.3675ZM15.412 39.5062C15.2147 38.9903 15.4729 38.4122 15.9888 38.2149C16.5046 38.0176 17.0827 38.2758 17.28 38.7916L15.412 39.5062ZM18.721 42.5841C18.916 43.1008 18.6552 43.6778 18.1385 43.8728C17.6218 44.0678 17.0448 43.807 16.8498 43.2903L18.721 42.5841ZM20.3482 52.7191C20.159 52.2002 20.4263 51.6262 20.9451 51.437C21.464 51.2478 22.038 51.5151 22.2272 52.0339L20.3482 52.7191ZM23.6146 55.866C23.8014 56.3858 23.5316 56.9585 23.0118 57.1454C22.4921 57.3322 21.9193 57.0623 21.7325 56.5426L23.6146 55.866ZM25.0777 66.0196C24.8969 65.4977 25.1734 64.9281 25.6952 64.7473C26.2171 64.5664 26.7867 64.8429 26.9675 65.3647L25.0777 66.0196ZM28.292 69.2164C28.4703 69.7391 28.1912 70.3075 27.6685 70.4858C27.1458 70.6642 26.5775 70.385 26.3991 69.8623L28.292 69.2164ZM29.6001 79.428C29.4279 78.9032 29.7138 78.3382 30.2386 78.1661C30.7633 77.9939 31.3283 78.2798 31.5004 78.8046L29.6001 79.428ZM32.7477 82.6379C32.9173 83.1635 32.6287 83.7271 32.1031 83.8967C31.5775 84.0663 31.014 83.7777 30.8443 83.2521L32.7477 82.6379ZM33.8932 92.9006C33.7301 92.373 34.0255 91.813 34.5531 91.6498C35.0808 91.4866 35.6408 91.7821 35.8039 92.3097L33.8932 92.9006ZM36.9788 96.1419C37.1394 96.6703 36.8412 97.2288 36.3128 97.3894C35.7844 97.55 35.2258 97.2518 35.0652 96.7234L36.9788 96.1419ZM37.9513 106.439C37.7974 105.908 38.1026 105.353 38.633 105.199C39.1634 105.046 39.7181 105.351 39.872 105.881L37.9513 106.439ZM40.982 109.742C41.1333 110.273 40.8253 110.826 40.2941 110.978C39.7629 111.129 39.2097 110.821 39.0585 110.29L40.982 109.742ZM41.7678 120.042C41.6234 119.509 41.9385 118.96 42.4716 118.815C43.0047 118.671 43.5539 118.986 43.6983 119.519L41.7678 120.042ZM44.7402 123.406C44.8819 123.94 44.5639 124.487 44.0301 124.629C43.4963 124.771 42.9487 124.453 42.8071 123.919L44.7402 123.406ZM45.336 133.71C45.2014 133.175 45.5266 132.632 46.0622 132.497C46.5979 132.362 47.1412 132.688 47.2757 133.223L45.336 133.71ZM48.2467 137.132C48.3784 137.669 48.0504 138.21 47.514 138.342C46.9777 138.474 46.4361 138.146 46.3044 137.609L48.2467 137.132ZM48.6486 147.442C48.5242 146.904 48.8595 146.367 49.3976 146.242C49.9357 146.118 50.4728 146.453 50.5972 146.991L48.6486 147.442ZM51.4942 150.919C51.6157 151.458 51.2775 151.993 50.7387 152.114C50.2 152.236 49.6647 151.898 49.5432 151.359L51.4942 150.919ZM51.6983 161.233C51.5843 160.693 51.9299 160.162 52.4703 160.048C53.0107 159.934 53.5412 160.28 53.6552 160.82L51.6983 161.233ZM54.4754 164.763C54.5864 165.304 54.2378 165.832 53.6968 165.943C53.1558 166.054 52.6272 165.706 52.5162 165.165L54.4754 164.763ZM54.4773 175.081C54.3741 174.538 54.7301 174.015 55.2727 173.911C55.8152 173.808 56.3388 174.164 56.4421 174.707L54.4773 175.081ZM57.1828 178.659C57.283 179.202 56.924 179.723 56.3808 179.824C55.8377 179.924 55.3162 179.565 55.216 179.022L57.1828 178.659ZM56.9782 188.978C56.8859 188.434 57.2525 187.917 57.7971 187.825C58.3416 187.733 58.8578 188.099 58.9501 188.644L56.9782 188.978ZM59.609 192.601C59.6981 193.146 59.3285 193.66 58.7834 193.749C58.2384 193.839 57.7243 193.469 57.6352 192.924L59.609 192.601ZM59.1935 202.918C59.1124 202.372 59.4896 201.864 60.036 201.783C60.5823 201.702 61.0908 202.079 61.1718 202.625L59.1935 202.918ZM61.7509 206.612C61.8287 207.159 61.4485 207.665 60.9017 207.743C60.3549 207.82 59.8486 207.44 59.7708 206.893L61.7509 206.612ZM61.116 216.893C61.0465 216.345 61.4344 215.844 61.9822 215.775C62.5301 215.705 63.0306 216.093 63.1001 216.641L61.116 216.893ZM63.5993 220.676C63.6654 221.224 63.2745 221.722 62.7262 221.788C62.1779 221.855 61.6798 221.464 61.6137 220.915L63.5993 220.676ZM62.7429 230.923C62.6852 230.373 63.0837 229.881 63.633 229.824C64.1822 229.766 64.6743 230.164 64.732 230.714L62.7429 230.923ZM65.1452 234.768C65.1994 235.318 64.7979 235.807 64.2483 235.862C63.6987 235.916 63.2091 235.514 63.1548 234.965L65.1452 234.768ZM64.0675 245.006C64.0218 244.456 64.431 243.973 64.9814 243.927C65.5318 243.881 66.015 244.291 66.0607 244.841L64.0675 245.006ZM66.3828 248.875C66.425 249.425 66.0128 249.906 65.4621 249.948C64.9115 249.99 64.4308 249.578 64.3886 249.028L66.3828 248.875ZM65.0808 259.095C65.0473 258.544 65.467 258.07 66.0182 258.036C66.5695 258.003 67.0436 258.423 67.0771 258.974L65.0808 259.095ZM67.3079 262.978C67.3379 263.529 66.9152 264 66.3638 264.03C65.8123 264.061 65.3409 263.638 65.3108 263.086L67.3079 262.978ZM65.7797 273.17C65.7585 272.618 66.1886 272.153 66.7405 272.132C67.2924 272.111 67.757 272.541 67.7782 273.093L65.7797 273.17ZM67.922 277.166C67.9397 277.718 67.5066 278.18 66.9546 278.198C66.4026 278.215 65.9407 277.782 65.923 277.23L67.922 277.166ZM66.1659 287.315C66.157 286.762 66.5974 286.308 67.1496 286.299C67.7018 286.29 68.1567 286.73 68.1656 287.283L66.1659 287.315ZM68.2178 291.324C68.2231 291.876 67.7798 292.329 67.2275 292.334C66.6753 292.339 66.2232 291.896 66.2179 291.344L68.2178 291.324ZM66.2358 301.427C66.2392 300.874 66.6897 300.429 67.242 300.433C67.7942 300.436 68.2392 300.887 68.2358 301.439L66.2358 301.427ZM68.1981 305.489C68.1913 306.041 67.738 306.484 67.1858 306.477C66.6335 306.47 66.1914 306.017 66.1983 305.464L68.1981 305.489ZM65.9936 315.558C66.0091 315.006 66.4692 314.571 67.0213 314.586C67.5734 314.602 68.0083 315.062 67.9929 315.614L65.9936 315.558ZM67.8673 319.649C67.8484 320.201 67.3857 320.633 66.8337 320.614C66.2817 320.596 65.8496 320.133 65.8685 319.581L67.8673 319.649ZM65.4489 329.638C65.476 329.087 65.9452 328.661 66.4968 328.689C67.0484 328.716 67.4736 329.185 67.4465 329.736L65.4489 329.638ZM67.2339 333.815C67.2035 334.367 66.7319 334.789 66.1804 334.759C65.629 334.728 65.2066 334.257 65.2369 333.705L67.2339 333.815ZM64.612 343.767C64.65 343.216 65.1275 342.801 65.6784 342.839C66.2294 342.877 66.6452 343.354 66.6072 343.905L64.612 343.767ZM66.3181 347.94C66.2772 348.491 65.7976 348.904 65.2468 348.863C64.696 348.822 64.2827 348.342 64.3236 347.792L66.3181 347.94ZM63.5137 357.859C63.5612 357.309 64.0458 356.901 64.596 356.949C65.1462 356.996 65.5538 357.481 65.5063 358.031L63.5137 357.859ZM65.151 362.047C65.1012 362.597 64.6149 363.003 64.0649 362.953C63.5148 362.903 63.1093 362.417 63.1591 361.867L65.151 362.047ZM62.2026 371.927C62.257 371.378 62.7467 370.976 63.2963 371.031C63.8459 371.085 64.2473 371.575 64.1929 372.124L62.2026 371.927ZM63.8063 376.139C63.759 376.69 63.2747 377.097 62.7244 377.05C62.1741 377.003 61.7664 376.518 61.8136 375.968L63.8063 376.139ZM61.304 386.209C61.3114 385.657 61.765 385.215 62.3173 385.222C62.8695 385.23 63.3112 385.683 63.3039 386.236L61.304 386.209ZM63.3101 390.303C63.3192 390.855 62.8789 391.31 62.3267 391.319C61.7745 391.328 61.3195 390.888 61.3104 390.336L63.3101 390.303ZM61.8615 400.594C61.8114 400.044 62.2167 399.558 62.7667 399.508C63.3167 399.457 63.8032 399.863 63.8533 400.413L61.8615 400.594ZM64.2795 404.434C64.3457 404.983 63.955 405.481 63.4067 405.547C62.8584 405.613 62.3602 405.223 62.2939 404.674L64.2795 404.434ZM63.8908 414.815C63.7857 414.273 64.1401 413.748 64.6823 413.643C65.2245 413.538 65.7492 413.893 65.8543 414.435L63.8908 414.815ZM66.6806 418.409C66.8003 418.948 66.4602 419.483 65.921 419.602C65.3819 419.722 64.8478 419.382 64.7281 418.843L66.6806 418.409ZM67.2692 428.786C67.1163 428.256 67.4225 427.701 67.9532 427.548C68.4839 427.395 69.0381 427.702 69.191 428.232L67.2692 428.786ZM70.3592 432.121C70.5239 432.648 70.23 433.209 69.7029 433.374C69.1757 433.538 68.6149 433.245 68.4502 432.717L70.3592 432.121ZM71.7488 442.421C71.5591 441.902 71.8259 441.328 72.3445 441.138C72.8632 440.948 73.4375 441.215 73.6272 441.734L71.7488 442.421ZM75.0536 445.54C75.2514 446.056 74.9936 446.634 74.4779 446.832C73.9623 447.03 73.3839 446.772 73.1862 446.256L75.0536 445.54ZM76.9984 455.751C76.7859 455.241 77.0269 454.655 77.5366 454.443C78.0464 454.23 78.6319 454.471 78.8444 454.981L76.9984 455.751ZM80.4261 458.735C80.6422 459.243 80.4055 459.83 79.8972 460.046C79.389 460.262 78.8018 460.026 78.5856 459.517L80.4261 458.735ZM82.6221 468.895C82.4031 468.388 82.6365 467.799 83.1435 467.58C83.6505 467.361 84.2391 467.594 84.4581 468.101L82.6221 468.895ZM86.0727 471.852C86.2902 472.36 86.0549 472.948 85.5472 473.165C85.0395 473.383 84.4517 473.147 84.2343 472.64L86.0727 471.852ZM88.1526 482.035C87.9468 481.523 88.1955 480.94 88.708 480.735C89.2205 480.529 89.8028 480.777 90.0086 481.29L88.1526 482.035ZM91.5063 485.103C91.7039 485.619 91.4461 486.197 90.9304 486.395C90.4147 486.593 89.8364 486.335 89.6388 485.819L91.5063 485.103ZM93.014 495.381C92.8465 494.855 93.1375 494.292 93.6638 494.125C94.19 493.957 94.7524 494.248 94.9199 494.775L93.014 495.381ZM96.1069 498.712C96.2579 499.243 95.9495 499.796 95.4183 499.947C94.887 500.098 94.334 499.79 94.1831 499.259L96.1069 498.712ZM96.4846 509.091C96.3868 508.547 96.7481 508.027 97.2916 507.929C97.8352 507.831 98.3551 508.193 98.453 508.736L96.4846 509.091ZM99.0891 512.814C99.1611 513.362 98.7755 513.864 98.2279 513.936C97.6804 514.008 97.1781 513.623 97.1062 513.075L99.0891 512.814ZM97.76 523.11C97.7621 522.558 98.2115 522.112 98.7637 522.114C99.316 522.116 99.762 522.565 99.76 523.118L97.76 523.11ZM1.99802 1.28445C2.2691 1.91169 2.53912 2.53829 2.80809 3.16422L0.970555 3.95383C0.702132 3.32916 0.432658 2.70384 0.162132 2.07786L1.99802 1.28445ZM6.7643 12.5041C7.28141 13.7429 7.7944 14.979 8.30329 16.2125L6.45445 16.9753C5.94662 15.7443 5.4347 14.5108 4.91866 13.2746L6.7643 12.5041ZM12.1244 25.6164C12.6258 26.8695 13.1229 28.1199 13.6158 29.3675L11.7558 30.1025C11.2639 28.8575 10.7678 27.6098 10.2675 26.3593L12.1244 25.6164ZM17.28 38.7916C17.7647 40.0587 18.245 41.3229 18.721 42.5841L16.8498 43.2903C16.3749 42.0319 15.8956 40.7705 15.412 39.5062L17.28 38.7916ZM22.2272 52.0339C22.6941 53.3144 23.1566 54.5918 23.6146 55.866L21.7325 56.5426C21.2755 55.2712 20.8141 53.9967 20.3482 52.7191L22.2272 52.0339ZM26.9675 65.3647C27.4135 66.6519 27.855 67.9358 28.292 69.2164L26.3991 69.8623C25.9631 68.5847 25.5227 67.3037 25.0777 66.0196L26.9675 65.3647ZM31.5004 78.8046C31.9207 80.0857 32.3364 81.3635 32.7477 82.6379L30.8443 83.2521C30.434 81.9807 30.0193 80.706 29.6001 79.428L31.5004 78.8046ZM35.8039 92.3097C36.2001 93.5906 36.5917 94.868 36.9788 96.1419L35.0652 96.7234C34.679 95.4526 34.2884 94.1784 33.8932 92.9006L35.8039 92.3097ZM39.872 105.881C40.2466 107.172 40.6166 108.459 40.982 109.742L39.0585 110.29C38.694 109.01 38.3249 107.726 37.9513 106.439L39.872 105.881ZM43.6983 119.519C44.0502 120.819 44.3975 122.114 44.7402 123.406L42.8071 123.919C42.4653 122.63 42.1189 121.338 41.7678 120.042L43.6983 119.519ZM47.2757 133.223C47.6041 134.53 47.9277 135.833 48.2467 137.132L46.3044 137.609C45.9863 136.314 45.6635 135.014 45.336 133.71L47.2757 133.223ZM50.5972 146.991C50.901 148.305 51.2 149.614 51.4942 150.919L49.5432 151.359C49.2498 150.058 48.9516 148.752 48.6486 147.442L50.5972 146.991ZM53.6552 160.82C53.9334 162.139 54.2068 163.453 54.4754 164.763L52.5162 165.165C52.2484 163.859 51.9757 162.548 51.6983 161.233L53.6552 160.82ZM56.4421 174.707C56.6938 176.029 56.9407 177.346 57.1828 178.659L55.216 179.022C54.9746 177.713 54.7284 176.399 54.4773 175.081L56.4421 174.707ZM58.9501 188.644C59.1745 189.968 59.3941 191.287 59.609 192.601L57.6352 192.924C57.421 191.614 57.202 190.299 56.9782 188.978L58.9501 188.644ZM61.1718 202.625C61.3697 203.96 61.5627 205.289 61.7509 206.612L59.7708 206.893C59.5832 205.574 59.3908 204.249 59.1935 202.918L61.1718 202.625ZM63.1001 216.641C63.2715 217.992 63.4378 219.337 63.5993 220.676L61.6137 220.915C61.4527 219.581 61.2869 218.24 61.116 216.893L63.1001 216.641ZM64.732 230.714C64.8747 232.072 65.0124 233.423 65.1452 234.768L63.1548 234.965C63.0224 233.624 62.8852 232.277 62.7429 230.923L64.732 230.714ZM66.0607 244.841C66.1729 246.193 66.2802 247.537 66.3828 248.875L64.3886 249.028C64.2864 247.694 64.1794 246.354 64.0675 245.006L66.0607 244.841ZM67.0771 258.974C67.1587 260.316 67.2356 261.651 67.3079 262.978L65.3108 263.086C65.2388 261.764 65.1621 260.433 65.0808 259.095L67.0771 258.974ZM67.7782 273.093C67.8309 274.459 67.8787 275.817 67.922 277.166L65.923 277.23C65.8799 275.885 65.8322 274.532 65.7797 273.17L67.7782 273.093ZM68.1656 287.283C68.1874 288.639 68.2048 289.986 68.2178 291.324L66.2179 291.344C66.2049 290.01 66.1876 288.667 66.1659 287.315L68.1656 287.283ZM68.2358 301.439C68.2274 302.799 68.2148 304.149 68.1981 305.489L66.1983 305.464C66.2149 304.129 66.2275 302.783 66.2358 301.427L68.2358 301.439ZM67.9929 315.614C67.9548 316.971 67.9129 318.316 67.8673 319.649L65.8685 319.581C65.9139 318.251 65.9557 316.911 65.9936 315.558L67.9929 315.614ZM67.4465 329.736C67.379 331.11 67.308 332.469 67.2339 333.815L65.2369 333.705C65.3108 332.363 65.3816 331.007 65.4489 329.638L67.4465 329.736ZM66.6072 343.905C66.5134 345.265 66.4169 346.61 66.3181 347.94L64.3236 347.792C64.4221 346.466 64.5183 345.124 64.612 343.767L66.6072 343.905ZM65.5063 358.031C65.3891 359.388 65.2705 360.727 65.151 362.047L63.1591 361.867C63.2784 360.549 63.3968 359.213 63.5137 357.859L65.5063 358.031ZM64.1929 372.124C64.1271 372.788 64.0615 373.447 63.996 374.1L62.006 373.901C62.0714 373.248 62.1369 372.59 62.2026 371.927L64.1929 372.124ZM63.996 374.1C63.9276 374.783 63.8644 375.463 63.8063 376.139L61.8136 375.968C61.8725 375.282 61.9366 374.593 62.006 373.901L63.996 374.1ZM63.3039 386.236C63.2856 387.604 63.2881 388.959 63.3101 390.303L61.3104 390.336C61.288 388.973 61.2856 387.597 61.304 386.209L63.3039 386.236ZM63.8533 400.413C63.9766 401.766 64.119 403.106 64.2795 404.434L62.2939 404.674C62.1311 403.327 61.9866 401.967 61.8615 400.594L63.8533 400.413ZM65.8543 414.435C66.1133 415.772 66.3891 417.096 66.6806 418.409L64.7281 418.843C64.4329 417.512 64.1533 416.17 63.8908 414.815L65.8543 414.435ZM69.191 428.232C69.5676 429.539 69.9575 430.835 70.3592 432.121L68.4502 432.717C68.0443 431.418 67.6501 430.108 67.2692 428.786L69.191 428.232ZM73.6272 441.734C74.0946 443.012 74.5706 444.28 75.0536 445.54L73.1862 446.256C72.6997 444.987 72.22 443.709 71.7488 442.421L73.6272 441.734ZM78.8444 454.981C79.3691 456.24 79.8969 457.491 80.4261 458.735L78.5856 459.517C78.055 458.27 77.5253 457.014 76.9984 455.751L78.8444 454.981ZM84.4581 468.101C85.0004 469.357 85.5393 470.607 86.0727 471.852L84.2343 472.64C83.702 471.397 83.164 470.149 82.6221 468.895L84.4581 468.101ZM90.0086 481.29C90.5199 482.563 91.0199 483.834 91.5063 485.103L89.6388 485.819C89.1566 484.561 88.6604 483.3 88.1526 482.035L90.0086 481.29ZM94.9199 494.775C95.3371 496.086 95.7336 497.398 96.1069 498.712L94.1831 499.259C93.8159 497.966 93.4254 496.674 93.014 495.381L94.9199 494.775ZM98.453 508.736C98.6969 510.091 98.9098 511.45 99.0891 512.814L97.1062 513.075C96.9312 511.743 96.7232 510.416 96.4846 509.091L98.453 508.736ZM99.76 523.118C99.7573 523.807 99.7449 524.499 99.7222 525.193L97.7232 525.127C97.7453 524.453 97.7574 523.781 97.76 523.11L99.76 523.118Z" fill="#28334C" fill-opacity="0.16"/>
<mask id="mask0_572_808" style="mask-type:alpha" maskUnits="userSpaceOnUse" x="18" y="455" width="109" height="109">
<circle cx="72.166" cy="509.163" r="54" fill="#C4C4C4"/>
</mask>
<g mask="url(#mask0_572_808)">
<path d="M-22.834 467.163C-22.834 456.117 -13.8797 447.163 -2.83398 447.163H147.166C158.212 447.163 167.166 456.117 167.166 467.163V570.163H-22.834V467.163Z" fill="#858FA9"/>
<g style="mix-blend-mode:color">
<path d="M-22.834 467.163C-22.834 456.117 -13.8797 447.163 -2.83398 447.163H147.166C158.212 447.163 167.166 456.117 167.166 467.163V570.163H-22.834V467.163Z" fill="#858FA9"/>
</g>
<path d="M72.2035 564.614C102.954 564.614 127.882 539.687 127.882 508.936C127.882 478.186 102.954 453.258 72.2035 453.258C41.4533 453.258 16.5254 478.186 16.5254 508.936C16.5254 539.687 41.4533 564.614 72.2035 564.614Z" fill="#CBCDEB"/>
<path d="M45.3615 506.685C43.7024 504.473 42.5371 502.281 43.6432 499.515C44.1962 498.093 45.2233 496.928 46.2306 495.783C47.7514 494.044 48.8574 492.287 49.529 490.055C50.5363 486.737 50.7338 483.181 52.1559 479.982C55.6715 472.2 65.0928 471.114 72.2821 473.879C72.4204 473.938 72.4599 474.056 72.4401 474.155C76.5483 475.775 79.4517 480.752 80.7553 484.564C81.8811 487.862 82.3156 491.339 82.5724 494.815C82.8292 498.469 83.2834 502.36 82.0194 505.875C81.9206 506.152 81.6243 506.231 81.4071 506.172C81.0713 507.06 80.696 507.929 80.1825 508.779C79.6097 509.766 78.9382 510.971 78.0297 511.741C75.6398 514.823 72.7759 513.993 69.3392 512.571C67.2851 511.722 65.2508 510.833 63.1572 510.082C62.6436 509.905 62.1104 509.746 61.5771 509.608C61.7746 514.447 60.7475 519.424 56.6788 522.13C52.3929 524.975 45.1047 522.664 46.0923 516.679C46.4083 514.783 47.7909 513.045 47.6724 511.09C47.5736 509.371 46.349 507.989 45.3615 506.685Z" fill="#002B4D"/>
<path d="M54.7824 507.673C56.718 511.781 61.1817 515.079 62.2285 515.237C65.9615 515.77 74.6124 511.86 77.1405 509.806C79.6686 507.732 80.6957 502.952 80.6957 502.952L83.5398 490.884C83.5398 490.884 79.2736 484.031 75.6197 482.727C71.946 481.423 61.6557 476.584 61.6557 476.584C61.6557 476.584 55.5131 482.253 53.8541 488.889C53.8146 489.028 53.7751 489.166 53.7553 489.324C53.6368 489.818 53.5381 490.331 53.4788 490.845C52.4715 497.284 53.8541 505.737 54.7824 507.673Z" fill="#FF6B42"/>
<path d="M58.2793 528.233C58.2793 528.233 66.7722 547.333 67.2265 547.194C67.6807 547.056 84.0938 525.745 84.0938 525.745C84.0938 525.745 80.7362 523.533 80.4201 522.328C80.1041 521.123 79.9264 505.145 79.9264 505.145C79.9264 505.145 71.5914 507.85 71.1964 507.85C70.7817 507.85 62.0912 513.558 62.0912 513.558C62.0912 513.558 62.111 514.21 62.111 515.198C62.1307 516.837 62.1702 519.405 62.1505 521.479C62.1505 523.197 62.111 524.58 62.032 524.797C61.7555 525.429 58.2793 528.233 58.2793 528.233Z" fill="#FF6B42"/>
<path d="M62.1489 521.499C64.3017 520.906 67.8767 519.603 69.5753 518.457C71.8664 516.936 73.0712 513.756 72.0441 513.381C71.0368 513.006 71.0961 513.124 67.2841 514.329C63.4722 515.534 62.1094 515.198 62.1094 515.198C62.1291 516.857 62.1489 519.425 62.1489 521.499Z" fill="#D94921"/>
<path d="M71.1561 493.65C71.4523 492.741 72.5189 492.939 72.6176 493.847C72.6769 494.381 72.6967 495.368 72.1436 495.664C71.7091 495.901 71.2943 495.566 71.1561 495.171C71.0178 494.874 70.9783 494.163 71.1561 493.65Z" fill="black"/>
<path d="M56.1651 493.709C56.4219 492.879 57.3897 493.077 57.4885 493.886C57.528 494.36 57.5477 495.249 57.0539 495.526C56.6589 495.743 56.2837 495.447 56.1454 495.071C56.0467 494.834 56.0269 494.183 56.1651 493.709Z" fill="black"/>
<path d="M60.9845 504.572C61.182 504.532 61.3795 504.512 61.5375 504.493C62.6633 504.453 63.7891 504.354 64.8952 504.394C65.7642 504.374 66.6727 504.157 67.5418 504.335C68.6083 504.552 68.4701 505.125 67.7985 505.915C67.3245 506.487 66.6925 506.922 66.0604 507.218C64.2236 508.107 61.1227 507.672 60.3919 505.401C60.2339 504.907 60.5894 504.67 60.9845 504.572Z" fill="white"/>
<path d="M69.2201 489.956C69.4966 489.186 70.7212 489.146 71.373 489.146C72.5975 489.126 74.6319 489.344 75.3232 490.549C75.6984 491.2 74.5727 491.003 74.2764 490.983C73.4666 490.924 72.6568 490.865 71.847 490.825C71.136 490.805 70.3459 490.904 69.6744 490.588C69.2399 490.391 69.1411 490.154 69.2201 489.956Z" fill="#002B4D"/>
<path d="M53.123 490.845C53.8341 490.805 55.3944 490.687 56.1252 490.667C56.8362 490.647 57.6263 490.746 58.2978 490.43C58.7126 490.232 58.8113 490.015 58.7323 489.818C58.4558 489.047 57.2313 489.008 56.5795 489.008C55.9277 489.008 54.1896 489.107 53.4193 489.344C53.2811 489.818 53.1823 490.331 53.123 490.845Z" fill="#002B4D"/>
<path d="M61.8928 475.301C61.9323 475.203 62.0904 475.202 62.1694 475.281C62.3471 475.064 62.6039 474.906 62.9397 474.788C63.8482 474.472 64.9345 475.044 65.8628 475.064C66.2973 475.084 66.7121 475.025 67.1269 474.946C70.2475 473.326 73.9805 472.714 77.2789 473.069C82.2956 473.622 86.9569 476.407 89.9393 480.476C93.1784 484.88 94.324 490.885 92.2502 496.04C90.0578 501.491 84.5867 503.407 80.9525 507.634C80.6563 507.969 80.202 507.792 80.0243 507.476C79.9453 507.416 79.6292 505.975 79.6292 505.896C80.0243 502.933 81.1303 499.654 79.0762 496.06C77.3776 493.097 74.0002 491.813 71.1956 490.134C68.4897 488.515 66.0011 486.461 64.0852 483.952C62.2879 481.622 60.5498 478.264 61.8928 475.301Z" fill="#002B4D"/>
<path d="M81.6447 500.918C81.9015 500.424 82.6126 500.779 82.5138 501.273C82.3163 502.162 82.1386 503.051 81.9806 503.9C82.1583 503.94 82.336 503.979 82.494 503.999C82.7706 504.038 83.0668 504.117 83.3236 504.196C89.0909 504.749 91.9153 510.773 97.0703 512.689C99.2627 513.499 101.593 513.736 103.549 515.119C105.366 516.422 106.689 518.397 107.183 520.57C107.756 523.039 106.808 525.942 108.289 528.154C109.889 530.564 113.325 531.058 115.676 532.44C119.428 534.672 121.957 538.741 122.49 543.047C123.023 547.471 121.226 551.875 117.967 554.877C114.333 558.215 109.513 559.163 104.734 558.215C95.273 556.339 87.4713 548.577 84.7654 539.452C83.9359 536.628 83.7186 533.744 83.5606 530.821C83.3631 526.653 82.652 523.039 81.3485 519.089C79.4524 513.361 78.7611 506.507 81.6447 500.918Z" fill="#002B4D"/>
<path d="M76.0151 493.827C77.2989 491.299 80.7554 493.175 81.4862 495.15C82.3947 497.619 80.5974 501.629 77.773 501.905C77.3779 501.945 77.1607 501.451 77.3385 501.135C78.01 500.029 79.0963 499.436 79.7086 498.39C79.5506 498.311 79.4123 498.172 79.353 497.975C79.116 497.303 78.879 496.632 78.5235 496.039C78.0297 495.545 77.5952 494.973 77.0027 494.558C76.8841 494.479 76.8052 494.38 76.7459 494.262C76.6274 494.281 76.5286 494.321 76.4101 494.341C76.0941 494.42 75.8768 494.104 76.0151 493.827Z" fill="#FF6B42"/>
<path d="M79.8663 500.819C80.0836 500.464 80.3996 500.167 80.6169 499.851C81.0514 499.219 81.5057 498.587 81.9205 497.955C81.96 497.916 81.9994 497.896 82.0389 497.876C82.1179 497.718 82.2167 497.58 82.2957 497.422C82.3945 497.244 82.7105 497.363 82.6315 497.56C82.2365 498.508 81.881 499.397 81.3279 500.266C81.2687 500.365 81.1897 500.483 81.1304 500.602C81.0514 500.938 80.8539 501.155 80.6564 501.53C80.2219 502.439 80.0441 503.545 80.3206 504.532C80.5576 505.401 81.0909 506.132 81.7822 506.705C82.3155 507.14 82.8488 507.357 83.1648 507.969C83.2833 508.186 83.1648 508.384 82.9673 508.463C81.0119 509.233 79.2738 506.231 79.0368 504.671C78.8985 503.723 79.0763 501.827 79.8663 500.819Z" fill="#002B4D"/>
<path d="M82.4931 524.58C82.4931 524.58 77.2986 530.347 73.1509 535.067C69.0032 539.808 67.8576 542.513 67.2454 542.079C66.6331 541.664 60.7275 526.16 60.7275 526.16C60.7275 526.16 49.4695 530.248 45.539 533.922C41.6086 537.595 35.7623 543.185 35.5252 553.08C35.2882 562.976 42.4974 569.454 43.0109 574.016C43.5244 578.579 43.0109 585.808 44.4132 589.106C45.8155 592.405 48.7189 595.328 48.7189 595.328C48.7189 595.328 57.4686 597.856 70.1685 597.481C82.8684 597.105 92.0724 596.592 94.6005 590.508C97.1286 584.425 95.6078 577.433 95.7461 572.12C95.8843 566.807 105.938 538.247 103.034 534.06C100.072 529.873 82.4931 524.58 82.4931 524.58Z" fill="#4949B7"/>
<path d="M99.6575 531.414C99.6575 531.414 111.251 537.615 118.48 549.782C125.709 561.968 135.348 575.656 134.716 583.023C134.083 590.39 129.442 592.405 125.986 596.473C122.529 600.542 112.752 605.48 108.96 603.84C105.148 602.181 100.211 593.056 100.329 589.244C100.448 585.433 107.439 578.46 106.807 575.676C106.175 572.891 95.0357 559.183 94.5815 559.183C94.1074 559.183 99.6575 531.414 99.6575 531.414Z" fill="#4949B7"/>
<path d="M82.4939 524.58C82.4939 524.58 87.6884 526.614 87.9451 528.629C88.2019 530.663 84.6862 530.623 82.1779 533.29C79.6695 535.956 78.9782 537.358 75.9958 539.827C72.4011 542.81 67.2461 542.099 67.2461 542.099C67.2461 542.099 73.2701 533.764 76.2723 530.051C77.8129 528.135 82.4939 524.58 82.4939 524.58Z" fill="white"/>
<path d="M60.7084 526.18C60.7084 526.18 55.4941 527.72 54.8621 529.281C54.2301 530.841 58.2395 533.804 59.3061 535.463C60.3726 537.122 60.1158 538.465 61.7157 540.242C63.3155 542.02 67.2262 542.099 67.2262 542.099C67.2262 542.099 64.8758 534.831 63.987 532.658C63.118 530.505 60.7084 526.18 60.7084 526.18Z" fill="white"/>
<path d="M41.8057 550.631C41.7069 548.518 41.8452 546.325 42.5562 544.33C43.366 542.079 44.7683 540.123 45.2621 537.734C45.4004 537.102 46.3682 537.358 46.2497 538.01C45.8546 539.906 44.9461 541.506 44.1363 543.244C43.05 545.614 42.7142 548.044 42.8327 550.631C43.0697 555.47 44.6301 560.131 44.9461 564.97C45.5387 574.036 41.4304 584.267 47.0397 592.424C47.415 592.957 46.5262 593.471 46.1707 592.938C40.5811 584.8 44.4326 574.944 43.9981 565.918C43.7216 560.743 42.0625 555.786 41.8057 550.631Z" fill="black"/>
<path d="M80.1428 506.191C80.7551 505.599 82.4537 505.342 82.8882 505.046C83.303 504.769 83.935 504.177 84.409 504.611C85.9891 506.093 81.1896 509.529 79.9848 506.902C79.8465 506.626 79.9256 506.389 80.1428 506.191Z" fill="#D42E00"/>
<path d="M62.1698 493.965C62.3278 493.333 63.2956 493.59 63.1573 494.242C62.6241 496.415 60.6095 499.397 62.2685 501.491C62.6636 502.004 61.9525 502.715 61.5575 502.202C59.4836 499.634 61.4983 496.652 62.1698 493.965Z" fill="#D94921"/>
</g>
</svg>
