<svg width="197" height="613" viewBox="0 0 197 613" fill="none" xmlns="http://www.w3.org/2000/svg">
<path d="M92.0246 332.477L91.0296 332.377L92.0246 332.477ZM2.69569 4.40732C2.91506 4.91417 2.68201 5.50289 2.17516 5.72226C1.66831 5.94163 1.07959 5.70858 0.860225 5.20173L2.69569 4.40732ZM4.84193 14.3683C4.62124 13.862 4.85274 13.2727 5.35901 13.052C5.86529 12.8313 6.45461 13.0628 6.67531 13.5691L4.84193 14.3683ZM8.24128 17.1564C8.46248 17.6625 8.23157 18.2521 7.72552 18.4733C7.21947 18.6945 6.62992 18.4636 6.40871 17.9575L8.24128 17.1564ZM10.4269 27.1183C10.2044 26.6128 10.4339 26.0227 10.9394 25.8002C11.4449 25.5778 12.035 25.8072 12.2575 26.3127L10.4269 27.1183ZM13.8518 29.9304C14.0747 30.4357 13.8458 31.0261 13.3406 31.249C12.8353 31.472 12.2449 31.2431 12.022 30.7378L13.8518 29.9304ZM16.0438 39.8237C15.8197 39.3189 16.0472 38.728 16.5519 38.5039C17.0567 38.2798 17.6476 38.5073 17.8717 39.0121L16.0438 39.8237ZM19.4908 42.6545C19.7154 43.159 19.4884 43.7501 18.9838 43.9747C18.4793 44.1992 17.8882 43.9722 17.6636 43.4677L19.4908 42.6545ZM21.6958 52.5027C21.4702 51.9986 21.696 51.407 22.2001 51.1815C22.7042 50.9559 23.2958 51.1817 23.5213 51.6858L21.6958 52.5027ZM25.1608 55.3462C25.3868 55.8502 25.1614 56.4419 24.6575 56.6678C24.1535 56.8937 23.5618 56.6684 23.3359 56.1644L25.1608 55.3462ZM27.3827 65.1705C27.1559 64.6669 27.3803 64.0748 27.8839 63.8481C28.3875 63.6213 28.9796 63.8458 29.2063 64.3494L27.3827 65.1705ZM30.8604 68.0202C31.0874 68.5237 30.8633 69.1159 30.3599 69.3429C29.8564 69.5699 29.2642 69.3458 29.0372 68.8423L30.8604 68.0202ZM33.0996 77.8384C32.8721 77.3351 33.0956 76.7427 33.5988 76.5152C34.1021 76.2877 34.6945 76.5112 34.922 77.0144L33.0996 77.8384ZM36.5835 80.6876C36.8111 81.1908 36.5878 81.7832 36.0846 82.0109C35.5814 82.2386 34.989 82.0152 34.7613 81.5121L36.5835 80.6876ZM38.836 90.5136C38.6082 90.0105 38.8314 89.418 39.3345 89.1902C39.8377 88.9625 40.4302 89.1857 40.6579 89.6888L38.836 90.5136ZM42.3179 93.356C42.5456 93.8591 42.3223 94.4516 41.8192 94.6793C41.316 94.907 40.7235 94.6838 40.4958 94.1806L42.3179 93.356ZM44.5735 103.2C44.3462 102.696 44.5701 102.104 45.0734 101.877C45.5768 101.65 46.1691 101.873 46.3963 102.377L44.5735 103.2ZM48.0442 106.03C48.2711 106.533 48.0469 107.126 47.5434 107.352C47.0399 107.579 46.4477 107.355 46.2208 106.852L48.0442 106.03ZM50.2851 115.897C50.0595 115.393 50.2851 114.802 50.7892 114.576C51.2933 114.35 51.8849 114.576 52.1105 115.08L50.2851 115.897ZM53.7337 118.712C53.9587 119.216 53.7322 119.807 53.2278 120.032C52.7234 120.257 52.1322 120.031 51.9072 119.527L53.7337 118.712ZM55.9334 128.605C55.7107 128.099 55.9399 127.509 56.4453 127.287C56.9507 127.064 57.541 127.293 57.7637 127.798L55.9334 128.605ZM59.3475 131.404C59.569 131.91 59.3384 132.5 58.8325 132.721C58.3266 132.943 57.7369 132.712 57.5154 132.206L59.3475 131.404ZM61.4692 141.323C61.2514 140.816 61.4863 140.228 61.9938 140.01C62.5014 139.792 63.0894 140.027 63.3071 140.535L61.4692 141.323ZM64.8667 144.187C65.0826 144.695 64.8456 145.282 64.3372 145.498C63.8289 145.714 63.2418 145.477 63.0259 144.969L64.8667 144.187ZM66.8554 154.117C66.645 153.606 66.8885 153.022 67.3992 152.812C67.9098 152.601 68.4943 152.845 68.7046 153.355L66.8554 154.117ZM70.2188 157.059C70.4265 157.571 70.1799 158.154 69.6681 158.362C69.1563 158.569 68.5732 158.323 68.3655 157.811L70.2188 157.059ZM72.0227 167.024C71.8231 166.509 72.0787 165.929 72.5937 165.73C73.1086 165.53 73.6879 165.786 73.8875 166.301L72.0227 167.024ZM75.2992 169.982C75.4951 170.498 75.2352 171.076 74.7188 171.271C74.2025 171.467 73.6251 171.207 73.4292 170.691L75.2992 169.982ZM76.8536 180.005C76.6687 179.485 76.9407 178.913 77.4611 178.728C77.9815 178.543 78.5533 178.815 78.7382 179.335L76.8536 180.005ZM80.0598 183.112C80.2396 183.634 79.9621 184.203 79.44 184.383C78.9178 184.563 78.3487 184.285 78.1688 183.763L80.0598 183.112ZM81.2683 193.162C81.1026 192.635 81.3954 192.074 81.9223 191.908C82.4491 191.743 83.0105 192.035 83.1762 192.562L81.2683 193.162ZM84.3464 196.363C84.5057 196.892 84.2062 197.45 83.6773 197.609C83.1485 197.768 82.5907 197.469 82.4314 196.94L84.3464 196.363ZM85.1345 206.466C84.9927 205.932 85.3104 205.384 85.8441 205.242C86.3779 205.1 86.9256 205.418 87.0674 205.952L85.1345 206.466ZM88.0635 209.808C88.1978 210.344 87.8724 210.887 87.3367 211.021C86.801 211.155 86.2579 210.83 86.1235 210.294L88.0635 209.808ZM88.353 219.931C88.2386 219.391 88.5839 218.86 89.1242 218.746C89.6645 218.631 90.1952 218.976 90.3096 219.517L88.353 219.931ZM91.1056 223.424C91.2117 223.966 90.8583 224.492 90.3163 224.598C89.7743 224.704 89.2489 224.35 89.1428 223.808L91.1056 223.424ZM90.8538 233.549C90.7688 233.004 91.1424 232.492 91.6881 232.407C92.2338 232.322 92.745 232.696 92.83 233.242L90.8538 233.549ZM93.4126 237.185C93.4891 237.732 93.1077 238.238 92.5608 238.314C92.0138 238.391 91.5084 238.009 91.4319 237.462L93.4126 237.185ZM92.6145 247.276C92.5588 246.727 92.959 246.236 93.5084 246.181C94.0579 246.125 94.5485 246.525 94.6043 247.074L92.6145 247.276ZM94.9791 251.056C95.0268 251.606 94.6195 252.091 94.0693 252.138C93.5191 252.186 93.0343 251.779 92.9866 251.229L94.9791 251.056ZM93.6709 261.116C93.6421 260.564 94.0659 260.094 94.6174 260.065C95.169 260.036 95.6394 260.46 95.6682 261.012L93.6709 261.116ZM95.8486 264.958C95.8703 265.51 95.4406 265.975 94.8887 265.997C94.3369 266.019 93.8719 265.589 93.8502 265.037L95.8486 264.958ZM94.0894 274.932C94.0841 274.379 94.5275 273.927 95.0797 273.922C95.632 273.917 96.084 274.36 96.0893 274.912L94.0894 274.932ZM96.1055 278.934C96.1047 279.486 95.6563 279.933 95.104 279.932C94.5517 279.931 94.1047 279.483 94.1055 278.931L96.1055 278.934ZM93.9653 288.844C93.9798 288.292 94.4391 287.856 94.9912 287.87C95.5433 287.885 95.9791 288.344 95.9646 288.896L93.9653 288.844ZM95.8438 292.827C95.8244 293.379 95.3613 293.81 94.8093 293.791C94.2574 293.772 93.8257 293.308 93.8451 292.757L95.8438 292.827ZM93.3945 302.657C93.4251 302.106 93.8968 301.683 94.4483 301.714C94.9997 301.744 95.422 302.216 95.3915 302.768L93.3945 302.657ZM95.1565 306.747C95.1219 307.298 94.6471 307.717 94.0959 307.683C93.5447 307.648 93.1258 307.173 93.1604 306.622L95.1565 306.747ZM92.4589 316.501C92.5024 315.951 92.9839 315.54 93.5345 315.583C94.0851 315.627 94.4962 316.108 94.4527 316.659L92.4589 316.501ZM94.1228 320.686C94.0761 321.236 93.5922 321.644 93.0419 321.598C92.4916 321.551 92.0833 321.067 92.13 320.517L94.1228 320.686ZM91.2294 330.359C91.2832 329.809 91.7723 329.407 92.322 329.461C92.8717 329.515 93.2737 330.004 93.2199 330.554L91.2294 330.359ZM92.8226 334.61C92.7712 335.16 92.2837 335.564 91.7338 335.513C91.1839 335.461 90.7799 334.974 90.8313 334.424L92.8226 334.61ZM90.063 344.446C90.0957 343.894 90.5693 343.474 91.1206 343.507C91.6719 343.54 92.0922 344.013 92.0594 344.564L90.063 344.446ZM91.8475 348.619C91.8227 349.171 91.3553 349.598 90.8035 349.573C90.2518 349.548 89.8247 349.081 89.8495 348.529L91.8475 348.619ZM89.5819 358.602C89.5862 358.05 90.0374 357.605 90.5896 357.61C91.1419 357.614 91.5861 358.065 91.5819 358.617L89.5819 358.602ZM91.5819 362.624C91.5863 363.176 91.1421 363.628 90.5898 363.632C90.0376 363.636 89.5863 363.192 89.582 362.64L91.5819 362.624ZM89.8643 372.725C89.8375 372.173 90.263 371.704 90.8147 371.678C91.3663 371.651 91.8352 372.076 91.862 372.628L89.8643 372.725ZM92.087 376.58C92.123 377.131 91.7054 377.607 91.1543 377.643C90.6032 377.679 90.1272 377.262 90.0912 376.711L92.087 376.58ZM90.9692 386.77C90.909 386.221 91.3052 385.728 91.8542 385.667C92.4032 385.607 92.8971 386.003 92.9573 386.552L90.9692 386.77ZM93.4342 390.563C93.5045 391.111 93.1173 391.612 92.5695 391.682C92.0218 391.752 91.5207 391.365 91.4504 390.817L93.4342 390.563ZM92.9666 400.794C92.8708 400.25 93.234 399.732 93.778 399.636C94.3219 399.54 94.8405 399.903 94.9363 400.447L92.9666 400.794ZM95.6604 404.342C95.7665 404.884 95.4132 405.41 94.8712 405.516C94.3292 405.622 93.8038 405.269 93.6977 404.727L95.6604 404.342ZM95.8829 414.605C95.7504 414.069 96.0777 413.527 96.6138 413.395C97.15 413.262 97.692 413.589 97.8245 414.125L95.8829 414.605ZM98.8253 418.01C98.9683 418.544 98.6519 419.092 98.1185 419.235C97.585 419.378 97.0366 419.062 96.8935 418.528L98.8253 418.01ZM99.7445 428.197C99.5753 427.671 99.8643 427.107 100.39 426.938C100.916 426.769 101.479 427.058 101.648 427.584L99.7445 428.197ZM102.917 431.395C103.096 431.917 102.819 432.486 102.296 432.665C101.774 432.845 101.205 432.567 101.026 432.045L102.917 431.395ZM104.538 441.507C104.333 440.994 104.583 440.412 105.096 440.207C105.609 440.003 106.191 440.253 106.396 440.766L104.538 441.507ZM107.91 444.463C108.125 444.972 107.885 445.559 107.376 445.773C106.867 445.987 106.281 445.748 106.067 445.239L107.91 444.463ZM110.192 454.458C109.956 453.959 110.168 453.362 110.667 453.126C111.166 452.889 111.763 453.102 111.999 453.601L110.192 454.458ZM113.74 457.194C113.985 457.689 113.782 458.289 113.287 458.533C112.792 458.778 112.192 458.576 111.947 458.081L113.74 457.194ZM116.599 467.041C116.335 466.556 116.515 465.949 117.001 465.685C117.486 465.422 118.093 465.602 118.357 466.087L116.599 467.041ZM120.288 469.591C120.558 470.073 120.386 470.682 119.904 470.952C119.422 471.222 118.813 471.05 118.543 470.568L120.288 469.591ZM123.591 479.289C123.308 478.814 123.464 478.2 123.938 477.918C124.412 477.635 125.026 477.79 125.309 478.265L123.591 479.289ZM127.38 481.709C127.667 482.181 127.516 482.796 127.044 483.082C126.572 483.369 125.957 483.218 125.67 482.746L127.38 481.709ZM130.935 491.3C130.644 490.83 130.788 490.214 131.257 489.923C131.726 489.631 132.343 489.775 132.634 490.244L130.935 491.3ZM134.761 493.668C135.052 494.137 134.908 494.754 134.439 495.045C133.97 495.336 133.353 495.192 133.062 494.723L134.761 493.668ZM138.308 503.284C138.024 502.81 138.178 502.196 138.652 501.912C139.125 501.628 139.74 501.782 140.024 502.255L138.308 503.284ZM142.075 505.725C142.352 506.202 142.191 506.814 141.713 507.092C141.236 507.369 140.624 507.208 140.346 506.73L142.075 505.725ZM145.145 515.49C144.895 514.998 145.092 514.396 145.585 514.146C146.077 513.897 146.679 514.094 146.929 514.587L145.145 515.49ZM148.695 518.226C148.927 518.728 148.709 519.322 148.207 519.554C147.706 519.786 147.112 519.568 146.88 519.066L148.695 518.226ZM150.504 528.3C150.339 527.773 150.632 527.211 151.159 527.046C151.686 526.881 152.247 527.174 152.412 527.701L150.504 528.3ZM153.501 531.638C153.629 532.175 153.298 532.714 152.76 532.842C152.223 532.97 151.684 532.638 151.556 532.101L153.501 531.638ZM152.821 541.825C152.812 541.273 153.253 540.818 153.805 540.809C154.357 540.8 154.812 541.241 154.821 541.793L152.821 541.825ZM1.88865 2.54128C2.15828 3.16519 2.42729 3.7872 2.69569 4.40732L0.860225 5.20173C0.591688 4.58127 0.322532 3.95893 0.0527569 3.33469L1.88865 2.54128ZM6.67531 13.5691C7.19976 14.7722 7.72175 15.9679 8.24128 17.1564L6.40871 17.9575C5.88891 16.7684 5.36666 15.572 4.84193 14.3683L6.67531 13.5691ZM12.2575 26.3127C12.7916 27.5264 13.323 28.7322 13.8518 29.9304L12.022 30.7378C11.493 29.5391 10.9613 28.3326 10.4269 27.1183L12.2575 26.3127ZM17.8717 39.0121C18.4144 40.2344 18.9541 41.4485 19.4908 42.6545L17.6636 43.4677C17.1267 42.2612 16.5867 41.0465 16.0438 39.8237L17.8717 39.0121ZM23.5213 51.6858C24.0712 52.9146 24.6177 54.1347 25.1608 55.3462L23.3359 56.1644C22.7925 54.9524 22.2458 53.7319 21.6958 52.5027L23.5213 51.6858ZM29.2063 64.3494C29.7613 65.582 30.3127 66.8056 30.8604 68.0202L29.0372 68.8423C28.4893 67.6274 27.9378 66.4035 27.3827 65.1705L29.2063 64.3494ZM34.922 77.0144C35.4799 78.2482 36.0337 79.4725 36.5835 80.6876L34.7613 81.5121C34.2115 80.2968 33.6576 79.0723 33.0996 77.8384L34.922 77.0144ZM40.6579 89.6888C41.2157 90.9208 41.769 92.1431 42.3179 93.356L40.4958 94.1806C39.947 92.9679 39.3937 91.7456 38.836 90.5136L40.6579 89.6888ZM46.3963 102.377C46.9505 103.604 47.4998 104.822 48.0442 106.03L46.2208 106.852C45.6766 105.644 45.1275 104.427 44.5735 103.2L46.3963 102.377ZM52.1105 115.08C52.6569 116.3 53.198 117.511 53.7337 118.712L51.9072 119.527C51.3718 118.326 50.8312 117.117 50.2851 115.897L52.1105 115.08ZM57.7637 127.798C58.2974 129.01 58.8253 130.212 59.3475 131.404L57.5154 132.206C56.9939 131.015 56.4666 129.815 55.9334 128.605L57.7637 127.798ZM63.3071 140.535C63.8336 141.761 64.3534 142.979 64.8667 144.187L63.0259 144.969C62.5136 143.763 61.9947 142.548 61.4692 141.323L63.3071 140.535ZM68.7046 153.355C69.2168 154.599 69.7215 155.833 70.2188 157.059L68.3655 157.811C67.8696 156.589 67.3662 155.357 66.8554 154.117L68.7046 153.355ZM73.8875 166.301C74.366 167.535 74.8366 168.762 75.2992 169.982L73.4292 170.691C72.9684 169.476 72.4995 168.254 72.0227 167.024L73.8875 166.301ZM78.7382 179.335C79.1877 180.6 79.6282 181.859 80.0598 183.112L78.1688 183.763C77.7394 182.517 77.301 181.264 76.8536 180.005L78.7382 179.335ZM83.1762 192.562C83.5757 193.833 83.9658 195.1 84.3464 196.363L82.4314 196.94C82.0532 195.685 81.6655 194.426 81.2683 193.162L83.1762 192.562ZM87.0674 205.952C87.4093 207.238 87.7413 208.523 88.0635 209.808L86.1235 210.294C85.8037 209.019 85.4741 207.743 85.1345 206.466L87.0674 205.952ZM90.3096 219.517C90.5849 220.817 90.8502 222.119 91.1056 223.424L89.1428 223.808C88.8894 222.514 88.6262 221.222 88.353 219.931L90.3096 219.517ZM92.83 233.242C93.0339 234.551 93.2281 235.865 93.4126 237.185L91.4319 237.462C91.2488 236.153 91.0561 234.849 90.8538 233.549L92.83 233.242ZM94.6043 247.074C94.7383 248.394 94.8632 249.721 94.9791 251.056L92.9866 251.229C92.8715 249.903 92.7475 248.586 92.6145 247.276L94.6043 247.074ZM95.6682 261.012C95.7363 262.318 95.7964 263.633 95.8486 264.958L93.8502 265.037C93.7983 263.72 93.7386 262.414 93.6709 261.116L95.6682 261.012ZM96.0893 274.912C96.102 276.242 96.1074 277.582 96.1055 278.934L94.1055 278.931C94.1074 277.587 94.102 276.254 94.0894 274.932L96.0893 274.912ZM95.9646 288.896C95.9305 290.195 95.8902 291.505 95.8438 292.827L93.8451 292.757C93.8913 291.441 93.9314 290.137 93.9653 288.844L95.9646 288.896ZM95.3915 302.768C95.3186 304.083 95.2403 305.409 95.1565 306.747L93.1604 306.622C93.2439 305.289 93.322 303.967 93.3945 302.657L95.3915 302.768ZM94.4527 316.659C94.3477 317.989 94.2377 319.332 94.1228 320.686L92.13 320.517C92.2445 319.166 92.3542 317.828 92.4589 316.501L94.4527 316.659ZM93.2199 330.554C93.1542 331.225 93.0875 331.899 93.0196 332.576L91.0296 332.377C91.0973 331.701 91.1639 331.029 91.2294 330.359L93.2199 330.554ZM93.0196 332.576C92.9514 333.257 92.8857 333.935 92.8226 334.61L90.8313 334.424C90.8948 333.744 90.9609 333.062 91.0296 332.377L93.0196 332.576ZM92.0594 344.564C91.9784 345.927 91.9078 347.278 91.8475 348.619L89.8495 348.529C89.9103 347.179 89.9814 345.818 90.063 344.446L92.0594 344.564ZM91.5819 358.617C91.5714 359.964 91.5715 361.3 91.5819 362.624L89.582 362.64C89.5715 361.305 89.5714 359.959 89.5819 358.602L91.5819 358.617ZM91.862 372.628C91.9265 373.957 92.0016 375.275 92.087 376.58L90.0912 376.711C90.0051 375.394 89.9294 374.065 89.8643 372.725L91.862 372.628ZM92.9573 386.552C93.1053 387.902 93.2644 389.239 93.4342 390.563L91.4504 390.817C91.2791 389.481 91.1186 388.133 90.9692 386.77L92.9573 386.552ZM94.9363 400.447C95.1673 401.759 95.4088 403.057 95.6604 404.342L93.6977 404.727C93.4437 403.429 93.1998 402.119 92.9666 400.794L94.9363 400.447ZM97.8245 414.125C98.148 415.435 98.4818 416.729 98.8253 418.01L96.8935 418.528C96.5466 417.235 96.2096 415.927 95.8829 414.605L97.8245 414.125ZM101.648 427.584C102.062 428.869 102.485 430.139 102.917 431.395L101.026 432.045C100.59 430.777 100.162 429.494 99.7445 428.197L101.648 427.584ZM106.396 440.766C106.893 442.013 107.398 443.245 107.91 444.463L106.067 445.239C105.55 444.01 105.04 442.766 104.538 441.507L106.396 440.766ZM111.999 453.601C112.574 454.813 113.155 456.011 113.74 457.194L111.947 458.081C111.357 456.888 110.772 455.68 110.192 454.458L111.999 453.601ZM118.357 466.087C118.998 467.27 119.642 468.437 120.288 469.591L118.543 470.568C117.893 469.407 117.245 468.232 116.599 467.041L118.357 466.087ZM125.309 478.265C126.001 479.426 126.692 480.574 127.38 481.709L125.67 482.746C124.98 481.608 124.286 480.455 123.591 479.289L125.309 478.265ZM132.634 490.244C133.35 491.397 134.061 492.539 134.761 493.668L133.062 494.723C132.361 493.594 131.653 492.454 130.935 491.3L132.634 490.244ZM140.024 502.255C140.723 503.422 141.408 504.578 142.075 505.725L140.346 506.73C139.684 505.593 139.004 504.444 138.308 503.284L140.024 502.255ZM146.929 514.587C147.547 515.806 148.136 517.019 148.695 518.226L146.88 519.066C146.332 517.883 145.753 516.691 145.145 515.49L146.929 514.587ZM152.412 527.701C152.824 529.013 153.188 530.325 153.501 531.638L151.556 532.101C151.254 530.837 150.903 529.57 150.504 528.3L152.412 527.701ZM154.821 541.793C154.832 542.479 154.826 543.167 154.803 543.856L152.805 543.791C152.826 543.134 152.831 542.479 152.821 541.825L154.821 541.793Z" fill="#28334C" fill-opacity="0.16"/>
<mask id="mask0_566_807" style="mask-type:alpha" maskUnits="userSpaceOnUse" x="87" y="502" width="108" height="109">
<circle cx="141" cy="556.473" r="54" fill="#C4C4C4"/>
</mask>
<g mask="url(#mask0_566_807)">
<path d="M140.921 610.422C171.006 610.422 195.395 586.033 195.395 555.948C195.395 525.862 171.006 501.473 140.921 501.473C110.835 501.473 86.4463 525.862 86.4463 555.948C86.4463 586.033 110.835 610.422 140.921 610.422Z" fill="#CBCDEB"/>
<path d="M125.655 540.952C125.655 540.952 126.37 558.035 127.626 561.532C128.863 565.011 137.713 571.233 140.071 571.349C143.685 571.503 151.356 564.933 152.419 562.44C153.733 559.329 155.066 543.174 155.066 543.174L152.902 529.976L127.53 532.198L125.655 540.952Z" fill="#FF6B42"/>
<path d="M160.825 586.305C160.825 586.305 149.211 607.581 148.051 608.895C146.892 610.209 141.984 610.944 140.534 610.963C139.066 610.982 133.79 606.383 133.327 605.475C132.863 604.547 118.698 586.827 118.698 586.827C118.698 586.827 126.428 580.547 129.558 576.373C130.08 575.677 130.467 574.866 130.737 573.996C131.587 571.271 131.433 567.948 131.182 565.803C131.027 564.469 130.834 563.58 130.834 563.58L149.25 562.691C149.25 562.691 148.998 570.112 150.37 575.271C151.704 580.412 160.825 586.305 160.825 586.305Z" fill="#FF6B42"/>
<path d="M126.486 546.227C126.37 546.189 124.766 545.551 123.375 546.227C121.984 546.904 122.486 550.653 123.375 552.141C125.076 554.962 127.646 555.116 127.646 555.116L126.486 546.227Z" fill="#FF6B42"/>
<path d="M153.752 545.88C153.868 545.841 155.472 545.203 156.863 545.88C158.255 546.556 157.752 550.305 156.863 551.793C155.163 554.614 152.593 554.769 152.593 554.769L153.752 545.88Z" fill="#FF6B42"/>
<path d="M132.38 547.831C132.129 547.02 131.182 547.213 131.085 548.005C131.047 548.469 131.027 549.358 131.51 549.609C131.897 549.822 132.264 549.532 132.399 549.165C132.496 548.933 132.535 548.295 132.38 547.831Z" fill="black"/>
<path d="M149.076 547.426C148.825 546.614 147.878 546.807 147.781 547.6C147.743 548.063 147.724 548.952 148.207 549.203C148.593 549.416 148.96 549.126 149.096 548.759C149.192 548.508 149.211 547.889 149.076 547.426Z" fill="black"/>
<path d="M134.08 543.271C134.157 542.054 131.336 541.976 130.776 542.015C129.906 542.073 129.017 542.266 128.206 542.653C127.761 542.865 125.867 544.063 127.181 544.392C128.322 544.682 129.423 544.237 130.544 544.025C131.259 543.889 133.616 544.566 134.003 543.561C134.061 543.464 134.08 543.368 134.08 543.271Z" fill="#A6462B"/>
<path d="M145.5 543.522C145.346 542.305 148.167 542.073 148.727 542.073C149.597 542.073 150.505 542.208 151.336 542.556C151.781 542.73 153.752 543.831 152.457 544.237C151.336 544.585 150.215 544.218 149.075 544.082C148.341 543.986 146.041 544.797 145.597 543.831C145.539 543.696 145.52 543.599 145.5 543.522Z" fill="#A6462B"/>
<path d="M146.525 571.948C145.385 573.184 142.467 575.581 139.51 575.774C137.095 575.928 132.399 574.518 130.737 573.977C131.588 571.252 131.433 568.006 131.182 565.841C131.182 565.841 137.134 571.6 140.728 570.769C143.453 570.151 145.018 569.01 145.81 569.088C146.602 569.165 147.665 570.711 146.525 571.948Z" fill="#D94921"/>
<path d="M140.882 548.14C140.67 547.599 139.8 547.831 140.013 548.372C141.037 551.02 142.525 553.3 141.133 556.121C140.882 556.643 141.655 557.088 141.906 556.585C143.452 553.474 142.042 551.136 140.882 548.14Z" fill="#D94921"/>
<path d="M129.558 576.354C129.558 576.354 138.814 584.875 140.36 584.315C141.906 583.755 151.124 577.049 151.124 577.049L161.617 585.011C161.617 585.011 157.114 636.529 156.998 640.703C156.882 644.877 157.443 685.167 157.443 685.167C157.443 685.167 144.728 691.699 144.38 691.699C144.032 691.699 129.558 685.167 129.558 685.167C129.558 685.167 125.925 625.398 123.22 615.156C120.514 604.914 115.22 588.141 115.22 588.141L129.558 576.354Z" fill="#FFD6B3"/>
<path d="M155.279 541.145C155.124 539.715 154.854 538.285 154.854 536.836C154.854 535.773 154.061 536.836 153.945 537.107C153.617 537.899 153.907 539.522 153.868 540.411C153.771 542.691 153.578 544.971 153.288 547.232C153.056 548.991 152.612 550.653 152.052 552.334C151.684 553.435 151.588 554.923 150.602 555.677C150.351 555.87 150.061 555.986 149.752 556.102C147.143 557.049 144.303 557.049 141.559 557.088C138.834 557.107 136.032 557.493 133.327 557.184C130.66 556.875 129.771 555.329 128.785 553.068C128.167 551.658 127.684 550.17 127.278 548.682C126.467 545.667 126.177 542.575 126.138 539.464C126.138 538.884 125.23 538.884 125.23 539.464C125.249 541.648 124.669 543.773 124.805 545.957C124.901 547.619 124.921 549.261 125.075 550.923C125.442 554.865 126.389 559.503 127.626 563.271C128.747 566.672 130.679 568.933 133.153 571.387C136.496 574.711 141.327 575.735 145.752 573.957C155.027 570.247 154.293 557.3 154.95 549.203C155.085 547.426 155.201 545.648 155.356 543.87C155.433 542.942 155.375 542.053 155.279 541.145Z" fill="#A6462B"/>
<path d="M159.646 527.58C159.607 527.019 159.51 526.459 159.356 525.937C158.911 524.411 157.539 523.367 156.109 522.787C153.945 521.937 151.781 522.845 149.616 523.213C143.607 524.256 138.196 520.043 132.167 521.512C129.925 522.053 127.935 523.444 126.543 525.261C125.848 526.169 125.268 527.213 124.92 528.295C124.572 529.358 124.592 530.536 124.862 531.619C123.007 531.87 122.795 534.247 122.891 535.715C123.142 539.194 124.031 542.575 124.824 545.957C124.959 546.517 125.828 546.286 125.693 545.706V545.686C125.886 545.648 126.041 545.513 126.06 545.261C126.118 541.822 127.394 538.459 127.432 534.981C128.63 535.599 130.118 535.793 131.413 535.657C132.94 535.503 134.254 534.614 135.742 534.266C137.867 533.764 140.283 534.305 142.389 534.691C145.307 535.232 150.235 536.855 153.636 535.812C153.616 537.087 153.868 538.343 153.887 539.619C153.887 539.793 153.984 539.909 154.1 539.986C154.1 540.198 154.1 540.411 154.1 540.643C154.1 540.836 154.196 540.952 154.331 541.01V543.889C154.235 544.353 154.119 544.798 154.003 545.242C153.868 545.802 154.737 546.054 154.872 545.493C155.723 542.073 156.283 538.517 155.781 534.981C157.249 534.285 158.428 532.72 159.085 531.271C159.549 530.15 159.742 528.836 159.646 527.58Z" fill="#A6462B"/>
<path d="M144.264 559.348C144.168 559.271 144.013 559.213 143.723 559.232C141.926 559.348 140.11 559.29 138.312 559.31C137.675 559.31 136.651 559.599 137.25 560.392C138.254 561.706 139.916 562.363 141.926 561.976C142.873 561.802 145.076 560.044 144.264 559.348Z" fill="white"/>
<path d="M125.23 579.929C125.23 579.929 129.926 596.605 131.085 615.06C132.245 633.514 135.008 701.052 132.496 702.965C129.984 704.878 122.563 704.878 115.24 701.496C107.916 698.115 101.172 695.409 101.848 690.25C102.524 685.071 99.5098 600.895 101.809 598.19C104.09 595.465 125.23 579.929 125.23 579.929Z" fill="#28334C"/>
<path d="M155.395 580.315C155.395 580.315 152.032 588.779 151.588 607.33C151.143 625.862 146.583 703.177 149.192 704.259C151.82 705.341 168.69 702.172 174.545 697.902C180.4 693.631 183.105 692.201 183.318 688.974C183.55 685.747 181.289 598.402 180.168 595.697C179.047 592.992 155.395 580.315 155.395 580.315Z" fill="#28334C"/>
<path d="M115.239 587.388C115.239 587.388 99.4322 597.166 94.8718 607.33C91.664 614.461 87.2194 672.471 92.8427 677.302C98.466 682.133 133.23 672.877 133.23 672.877L115.239 587.388Z" fill="#002B4D"/>
<path d="M140.129 584.837C138.969 585.049 136.477 589.436 137.23 591.504C137.868 593.223 143.24 592.856 143.472 591.6C143.897 589.165 141.288 584.624 140.129 584.837Z" fill="#D42E00"/>
<path d="M142.138 592.064L138.756 592.18C138.756 592.18 134.795 639.736 135.104 641.765C135.413 643.794 138.969 650.461 139.781 650.461C140.592 650.461 146.293 643.485 146.215 641.688C146.138 639.891 142.138 592.064 142.138 592.064Z" fill="#D42E00"/>
<path d="M180.168 595.697C180.168 595.697 186.255 601.108 188.497 613.707C190.738 626.306 192.999 669.244 187.376 674.945C178.313 684.104 121.075 662.558 121.075 662.558L126.351 641.727L165.868 645.456L179.724 596.837L180.168 595.697Z" fill="#002B4D"/>
<path d="M115.124 624.258C114.39 619.833 114.448 615.389 113.848 610.963C113.056 605.147 110.003 599.156 104.534 596.509C104.013 596.258 103.549 597.031 104.071 597.282C110.022 600.161 112.631 606.809 113.153 613.05C113.423 616.297 113.462 619.543 113.964 622.79C114.583 626.79 115.704 630.867 114.834 634.906C114.718 635.466 115.588 635.717 115.704 635.138C116.496 631.486 115.723 627.872 115.124 624.258Z" fill="#001526"/>
<path d="M175.627 594.808C171.009 596.026 169.482 602.229 168.651 606.248C167.859 610.094 166.912 613.939 166.777 617.881C166.7 620.142 166.603 622.326 166.12 624.548C165.753 626.287 165.366 627.968 165.385 629.765C165.385 630.345 166.294 630.345 166.294 629.765C166.255 626.5 167.453 623.33 167.608 620.045C167.782 616.239 168.265 612.644 169.038 608.895C169.888 604.663 170.873 596.992 175.878 595.678C176.439 595.542 176.188 594.673 175.627 594.808Z" fill="#001526"/>
</g>
</svg>
