<svg width="122" height="610" viewBox="0 0 122 610" fill="none" xmlns="http://www.w3.org/2000/svg">
<path d="M49.6961 546.862C49.6173 546.315 49.1103 545.936 48.5637 546.014C48.017 546.093 47.6377 546.6 47.7165 547.147L49.6961 546.862ZM46.405 537.286C46.4718 537.835 46.9703 538.225 47.5185 538.158C48.0668 538.091 48.4571 537.593 48.3903 537.045L46.405 537.286ZM47.9375 533.183C47.8756 532.635 47.3805 532.24 46.8317 532.302C46.2829 532.364 45.8882 532.859 45.9501 533.407L47.9375 533.183ZM44.946 523.47C44.9951 524.02 45.4808 524.426 46.0309 524.377C46.581 524.328 46.9872 523.842 46.9381 523.292L44.946 523.47ZM46.6094 519.398C46.5655 518.848 46.0837 518.437 45.5331 518.481C44.9826 518.525 44.5718 519.007 44.6157 519.557L46.6094 519.398ZM43.9463 509.621C43.9766 510.173 44.4482 510.595 44.9997 510.565C45.5511 510.535 45.9736 510.063 45.9433 509.512L43.9463 509.621ZM45.7477 505.595C45.7229 505.043 45.2555 504.616 44.7038 504.641C44.1521 504.666 43.7249 505.133 43.7497 505.685L45.7477 505.595ZM43.4311 495.749C43.4416 496.301 43.8978 496.74 44.45 496.73C45.0022 496.719 45.4413 496.263 45.4308 495.711L43.4311 495.749ZM45.3765 491.782C45.3718 491.23 44.9203 490.786 44.368 490.791C43.8158 490.796 43.3719 491.247 43.3766 491.799L45.3765 491.782ZM43.4255 481.865C43.4153 482.417 43.8546 482.873 44.4068 482.883C44.959 482.894 45.4149 482.454 45.4251 481.902L43.4255 481.865ZM45.5195 477.973C45.5357 477.421 45.1014 476.96 44.5494 476.944C43.9973 476.928 43.5366 477.362 43.5203 477.914L45.5195 477.973ZM43.9525 467.989C43.9207 468.54 44.3419 469.013 44.8933 469.045C45.4446 469.077 45.9174 468.655 45.9492 468.104L43.9525 467.989ZM46.1977 464.187C46.2358 463.636 45.82 463.158 45.2691 463.12C44.7181 463.082 44.2406 463.498 44.2025 464.049L46.1977 464.187ZM45.0317 454.144C44.9776 454.694 45.3793 455.183 45.9289 455.237C46.4786 455.291 46.968 454.89 47.0221 454.34L45.0317 454.144ZM47.4283 450.446C47.4888 449.897 47.0929 449.403 46.5439 449.343C45.995 449.282 45.5009 449.678 45.4404 450.227L47.4283 450.446ZM46.6766 440.359C46.5998 440.906 46.9809 441.411 47.5278 441.488C48.0748 441.565 48.5804 441.184 48.6572 440.637L46.6766 440.359ZM49.2224 436.778C49.3057 436.232 48.9306 435.722 48.3846 435.639C47.8386 435.555 47.3285 435.931 47.2453 436.477L49.2224 436.778ZM48.8931 426.663C48.7935 427.206 49.1531 427.727 49.6963 427.827C50.2396 427.926 50.7607 427.567 50.8603 427.024L48.8931 426.663ZM51.5948 423.15C51.7009 422.608 51.3476 422.082 50.8056 421.976C50.2636 421.87 49.7382 422.223 49.6321 422.765L51.5948 423.15ZM51.6793 413.077C51.5572 413.615 51.8947 414.151 52.4333 414.273C52.9719 414.395 53.5076 414.058 53.6298 413.519L51.6793 413.077ZM54.534 409.64C54.6626 409.103 54.3314 408.564 53.7943 408.435C53.2572 408.306 52.7176 408.638 52.589 409.175L54.534 409.64ZM55.0376 399.567C54.8935 400.1 55.2089 400.649 55.742 400.793C56.2752 400.937 56.8242 400.622 56.9683 400.089L55.0376 399.567ZM58.0207 396.281C58.1708 395.75 57.8617 395.197 57.3302 395.047C56.7987 394.897 56.2462 395.206 56.096 395.737L58.0207 396.281ZM58.9259 386.228C58.7611 386.755 59.0549 387.316 59.5821 387.48C60.1092 387.645 60.6701 387.351 60.8348 386.824L58.9259 386.228ZM62.0222 383.094C62.1925 382.569 61.9046 382.005 61.3793 381.834C60.8539 381.664 60.2899 381.952 60.1197 382.477L62.0222 383.094ZM63.2994 373.078C63.1159 373.599 63.3894 374.17 63.9103 374.354C64.4313 374.537 65.0023 374.263 65.1858 373.743L63.2994 373.078ZM66.5233 370.003C66.7117 369.484 66.4437 368.91 65.9245 368.722C65.4054 368.533 64.8318 368.801 64.6433 369.321L66.5233 370.003ZM68.131 360.039C67.9312 360.554 68.1866 361.133 68.7015 361.333C69.2164 361.533 69.7958 361.277 69.9956 360.762L68.131 360.039ZM71.4367 357.092C71.6406 356.579 71.3898 355.998 70.8765 355.794C70.3632 355.59 69.7819 355.841 69.578 356.354L71.4367 357.092ZM73.3177 347.181C73.1049 347.69 73.3456 348.276 73.8552 348.489C74.3649 348.701 74.9505 348.461 75.1633 347.951L73.3177 347.181ZM76.6987 344.304C76.9145 343.796 76.6772 343.209 76.1689 342.993C75.6605 342.777 75.0734 343.014 74.8577 343.523L76.6987 344.304ZM78.7844 334.424C78.5629 334.93 78.7935 335.519 79.2994 335.741C79.8054 335.962 80.395 335.732 80.6165 335.226L78.7844 334.424ZM82.2041 331.615C82.4271 331.11 82.1983 330.519 81.693 330.296C81.1878 330.073 80.5974 330.302 80.3744 330.807L82.2041 331.615ZM84.3836 321.776C84.159 322.281 84.386 322.872 84.8905 323.096C85.3951 323.321 85.9862 323.094 86.2108 322.589L84.3836 321.776ZM87.8308 318.947C88.055 318.443 87.8276 317.852 87.3229 317.628C86.8182 317.403 86.2273 317.631 86.003 318.135L87.8308 318.947ZM89.9867 309.091C89.7664 309.598 89.9984 310.187 90.5049 310.407C91.0114 310.627 91.6005 310.395 91.8207 309.889L89.9867 309.091ZM93.3869 306.26C93.6041 305.752 93.3687 305.164 92.8609 304.947C92.3532 304.73 91.7654 304.965 91.5481 305.473L93.3869 306.26ZM95.3417 296.346C95.1361 296.859 95.385 297.441 95.8976 297.647C96.4102 297.852 96.9924 297.603 97.198 297.091L95.3417 296.346ZM98.6425 293.423C98.8414 292.907 98.5851 292.328 98.0699 292.13C97.5547 291.931 96.9757 292.187 96.7768 292.702L98.6425 293.423ZM100.145 283.421C99.9685 283.945 100.25 284.512 100.773 284.688C101.297 284.864 101.864 284.583 102.04 284.059L100.145 283.421ZM103.263 280.29C103.428 279.762 103.133 279.202 102.606 279.037C102.079 278.873 101.518 279.167 101.354 279.694L103.263 280.29ZM103.96 270.213C103.834 270.75 104.167 271.289 104.705 271.415C105.243 271.541 105.781 271.207 105.907 270.67L103.96 270.213ZM106.748 266.784C106.855 266.243 106.503 265.716 105.961 265.609C105.419 265.502 104.893 265.854 104.786 266.396L106.748 266.784ZM106.198 256.704C106.148 257.254 106.554 257.74 107.104 257.79C107.654 257.84 108.14 257.434 108.19 256.884L106.198 256.704ZM108.453 252.894C108.476 252.343 108.047 251.877 107.495 251.854C106.944 251.831 106.478 252.26 106.455 252.812L108.453 252.894ZM106.215 243.066C106.267 243.616 106.754 244.02 107.304 243.969C107.854 243.918 108.258 243.43 108.207 242.881L106.215 243.066ZM107.761 238.916C107.699 238.367 107.204 237.972 106.656 238.034C106.107 238.095 105.712 238.59 105.774 239.139L107.761 238.916ZM104.851 229.028C104.891 229.579 105.369 229.994 105.92 229.954C106.471 229.914 106.885 229.435 106.846 228.884L104.851 229.028ZM106.583 224.877C106.55 224.325 106.077 223.905 105.526 223.937C104.974 223.97 104.554 224.443 104.586 224.995L106.583 224.877ZM104.132 214.865C104.149 215.417 104.611 215.85 105.163 215.833C105.715 215.815 106.148 215.353 106.131 214.801L104.132 214.865ZM106.021 210.775C106.009 210.223 105.551 209.786 104.999 209.798C104.447 209.811 104.009 210.268 104.022 210.821L106.021 210.775ZM103.897 200.699C103.898 201.252 104.347 201.698 104.9 201.696C105.452 201.695 105.898 201.246 105.897 200.694L103.897 200.699ZM105.899 196.647C105.902 196.095 105.456 195.645 104.903 195.643C104.351 195.641 103.902 196.087 103.899 196.639L105.899 196.647ZM104.018 186.531C104.007 187.084 104.447 187.54 104.999 187.55C105.551 187.561 106.007 187.121 106.017 186.569L104.018 186.531ZM106.105 182.524C106.118 181.972 105.681 181.514 105.129 181.5C104.577 181.487 104.119 181.924 104.105 182.476L106.105 182.524ZM104.409 172.365C104.39 172.917 104.821 173.38 105.373 173.4C105.925 173.419 106.388 172.988 106.408 172.436L104.409 172.365ZM106.56 168.411C106.582 167.859 106.152 167.394 105.6 167.372C105.048 167.35 104.583 167.779 104.561 168.331L106.56 168.411ZM105.009 158.225C104.982 158.777 105.408 159.246 105.959 159.273C106.511 159.3 106.98 158.874 107.007 158.323L105.009 158.225ZM107.209 154.288C107.238 153.737 106.814 153.266 106.262 153.238C105.711 153.209 105.241 153.633 105.212 154.185L107.209 154.288ZM105.771 144.091C105.739 144.642 106.159 145.115 106.711 145.148C107.262 145.18 107.735 144.759 107.768 144.208L105.771 144.091ZM108.01 140.175C108.043 139.624 107.624 139.15 107.073 139.116C106.521 139.082 106.047 139.502 106.013 140.053L108.01 140.175ZM106.658 129.965C106.622 130.517 107.039 130.993 107.59 131.03C108.141 131.066 108.617 130.649 108.654 130.098L106.658 129.965ZM108.925 126.066C108.963 125.515 108.547 125.038 107.996 125C107.445 124.963 106.968 125.379 106.93 125.93L108.925 126.066ZM107.638 115.847C107.598 116.398 108.013 116.876 108.564 116.916C109.114 116.956 109.593 116.541 109.633 115.991L107.638 115.847ZM109.925 111.964C109.965 111.413 109.552 110.934 109.001 110.893C108.45 110.853 107.971 111.267 107.93 111.818L109.925 111.964ZM108.681 101.735C108.639 102.286 109.052 102.766 109.603 102.808C110.153 102.849 110.634 102.437 110.675 101.886L108.681 101.735ZM110.98 97.8594C111.022 97.3087 110.61 96.8283 110.059 96.7864C109.508 96.7445 109.028 97.157 108.986 97.7076L110.98 97.8594ZM109.757 87.643C109.714 88.1936 110.126 88.6743 110.677 88.7166C111.228 88.759 111.709 88.3469 111.751 87.7962L109.757 87.643ZM112.062 83.7497C112.104 83.199 111.692 82.7183 111.141 82.676C110.591 82.6338 110.11 83.0458 110.068 83.5965L112.062 83.7497ZM110.837 73.5263C110.796 74.077 111.208 74.5573 111.759 74.599C112.31 74.6408 112.79 74.2282 112.832 73.6775L110.837 73.5263ZM113.136 69.6488C113.177 69.098 112.764 68.6181 112.213 68.5768C111.662 68.5355 111.183 68.9484 111.141 69.4992L113.136 69.6488ZM111.883 59.417C111.843 59.9678 112.258 60.4465 112.809 60.486C113.36 60.5255 113.838 60.111 113.878 59.5602L111.883 59.417ZM114.162 55.5515C114.201 55.0006 113.785 54.5227 113.234 54.4842C112.683 54.4456 112.205 54.861 112.167 55.4119L114.162 55.5515ZM112.844 45.3107C112.809 45.8619 113.227 46.3371 113.778 46.3721C114.329 46.4072 114.805 45.9888 114.84 45.4376L112.844 45.3107ZM115.088 41.4341C115.121 40.8828 114.701 40.409 114.149 40.3758C113.598 40.3426 113.124 40.7626 113.091 41.3139L115.088 41.4341ZM113.646 31.1996C113.619 31.7512 114.044 32.2201 114.596 32.247C115.148 32.2738 115.617 31.8484 115.644 31.2968L113.646 31.1996ZM115.827 27.2789C115.851 26.7271 115.422 26.2608 114.871 26.2374C114.319 26.2139 113.852 26.6421 113.829 27.1939L115.827 27.2789ZM114.158 17.105C114.147 17.6571 114.585 18.1142 115.137 18.1257C115.689 18.1374 116.146 17.6991 116.158 17.147L114.158 17.105ZM116.219 13.0756C116.224 12.5234 115.78 12.0718 115.228 12.067C114.676 12.0622 114.224 12.506 114.219 13.0582L116.219 13.0756ZM114.092 3.00196C114.114 3.55382 114.579 3.98341 115.131 3.96147C115.682 3.93954 116.112 3.47444 116.09 2.92258L114.092 3.00196ZM49.9876 548.853C49.8887 548.188 49.7915 547.524 49.6961 546.862L47.7165 547.147C47.8124 547.812 47.91 548.479 48.0093 549.147L49.9876 548.853ZM48.3903 537.045C48.2328 535.751 48.0819 534.464 47.9375 533.183L45.9501 533.407C46.0952 534.694 46.2468 535.987 46.405 537.286L48.3903 537.045ZM46.9381 523.292C46.8218 521.988 46.7122 520.69 46.6094 519.398L44.6157 519.557C44.7191 520.855 44.8291 522.159 44.946 523.47L46.9381 523.292ZM45.9433 509.512C45.8712 508.199 45.806 506.894 45.7477 505.595L43.7497 505.685C43.8083 506.99 43.8738 508.302 43.9463 509.621L45.9433 509.512ZM45.4308 495.711C45.4057 494.394 45.3876 493.085 45.3765 491.782L43.3766 491.799C43.3878 493.109 43.4059 494.425 43.4311 495.749L45.4308 495.711ZM45.4251 481.902C45.4495 480.585 45.481 479.275 45.5195 477.973L43.5203 477.914C43.4817 479.223 43.45 480.54 43.4255 481.865L45.4251 481.902ZM45.9492 468.104C46.0251 466.79 46.1079 465.485 46.1977 464.187L44.2025 464.049C44.1122 465.354 44.0288 466.667 43.9525 467.989L45.9492 468.104ZM47.0221 454.34C47.1507 453.034 47.2861 451.736 47.4283 450.446L45.4404 450.227C45.2973 451.525 45.1611 452.83 45.0317 454.144L47.0221 454.34ZM48.6572 440.637C48.839 439.342 49.0275 438.056 49.2224 436.778L47.2453 436.477C47.0492 437.762 46.8596 439.056 46.6766 440.359L48.6572 440.637ZM50.8603 427.024C51.0988 425.723 51.3437 424.432 51.5948 423.15L49.6321 422.765C49.3794 424.056 49.133 425.355 48.8931 426.663L50.8603 427.024ZM53.6298 413.519C53.9252 412.217 54.2267 410.924 54.534 409.64L52.589 409.175C52.2798 410.466 51.9765 411.767 51.6793 413.077L53.6298 413.519ZM56.9683 400.089C57.3138 398.81 57.6647 397.541 58.0207 396.281L56.096 395.737C55.738 397.005 55.3851 398.281 55.0376 399.567L56.9683 400.089ZM60.8348 386.824C61.2262 385.572 61.6222 384.328 62.0222 383.094L60.1197 382.477C59.7175 383.718 59.3194 384.968 58.9259 386.228L60.8348 386.824ZM65.1858 373.743C65.6282 372.487 66.0741 371.24 66.5233 370.003L64.6433 369.321C64.1921 370.564 63.7439 371.816 63.2994 373.078L65.1858 373.743ZM69.9956 360.762C70.4739 359.53 70.9544 358.306 71.4367 357.092L69.578 356.354C69.0938 357.573 68.6113 358.801 68.131 360.039L69.9956 360.762ZM75.1633 347.951C75.6747 346.726 76.1866 345.511 76.6987 344.304L74.8577 343.523C74.3441 344.733 73.8306 345.952 73.3177 347.181L75.1633 347.951ZM80.6165 335.226C81.1473 334.013 81.6767 332.81 82.2041 331.615L80.3744 330.807C79.8463 332.004 79.3161 333.209 78.7844 334.424L80.6165 335.226ZM86.2108 322.589C86.755 321.367 87.2953 320.153 87.8308 318.947L86.003 318.135C85.4679 319.34 84.9279 320.553 84.3836 321.776L86.2108 322.589ZM91.8207 309.889C92.3502 308.671 92.8726 307.462 93.3869 306.26L91.5481 305.473C91.0356 306.671 90.5148 307.877 89.9867 309.091L91.8207 309.889ZM97.198 297.091C97.6911 295.861 98.173 294.638 98.6425 293.423L96.7768 292.702C96.3106 293.909 95.8319 295.124 95.3417 296.346L97.198 297.091ZM102.04 284.059C102.465 282.797 102.873 281.54 103.263 280.29L101.354 279.694C100.969 280.93 100.565 282.172 100.145 283.421L102.04 284.059ZM105.907 270.67C106.212 269.37 106.492 268.076 106.748 266.784L104.786 266.396C104.535 267.663 104.259 268.935 103.96 270.213L105.907 270.67ZM108.19 256.884C108.31 255.552 108.398 254.223 108.453 252.894L106.455 252.812C106.401 254.107 106.315 255.404 106.198 256.704L108.19 256.884ZM108.207 242.881C108.144 242.214 108.073 241.546 107.991 240.879L106.006 241.121C106.085 241.77 106.155 242.418 106.215 243.066L108.207 242.881ZM107.991 240.879C107.912 240.23 107.835 239.576 107.761 238.916L105.774 239.139C105.849 239.805 105.926 240.466 106.006 241.121L107.991 240.879ZM106.846 228.884C106.75 227.565 106.663 226.229 106.583 224.877L104.586 224.995C104.667 226.355 104.755 227.7 104.851 229.028L106.846 228.884ZM106.131 214.801C106.088 213.471 106.052 212.129 106.021 210.775L104.022 210.821C104.053 212.18 104.089 213.528 104.132 214.865L106.131 214.801ZM105.897 200.694C105.893 199.354 105.894 198.005 105.899 196.647L103.899 196.639C103.894 198.001 103.893 199.354 103.897 200.699L105.897 200.694ZM106.017 186.569C106.043 185.227 106.072 183.879 106.105 182.524L104.105 182.476C104.072 183.834 104.043 185.186 104.018 186.531L106.017 186.569ZM106.408 172.436C106.456 171.098 106.506 169.756 106.56 168.411L104.561 168.331C104.508 169.68 104.457 171.024 104.409 172.365L106.408 172.436ZM107.007 158.323C107.072 156.98 107.14 155.635 107.209 154.288L105.212 154.185C105.142 155.534 105.074 156.881 105.009 158.225L107.007 158.323ZM107.768 144.208C107.847 142.865 107.927 141.52 108.01 140.175L106.013 140.053C105.931 141.4 105.85 142.746 105.771 144.091L107.768 144.208ZM108.654 130.098C108.743 128.753 108.834 127.409 108.925 126.066L106.93 125.93C106.838 127.274 106.748 128.62 106.658 129.965L108.654 130.098ZM109.633 115.991C109.73 114.646 109.827 113.304 109.925 111.964L107.93 111.818C107.832 113.158 107.735 114.502 107.638 115.847L109.633 115.991ZM110.675 101.886C110.777 100.54 110.879 99.1977 110.98 97.8594L108.986 97.7076C108.884 99.0463 108.782 100.389 108.681 101.735L110.675 101.886ZM111.751 87.7962C111.855 86.4417 111.959 85.0926 112.062 83.7497L110.068 83.5965C109.965 84.9394 109.861 86.2883 109.757 87.643L111.751 87.7962ZM112.832 73.6775C112.934 72.3266 113.035 70.9836 113.136 69.6488L111.141 69.4992C111.041 70.8333 110.94 72.1759 110.837 73.5263L112.832 73.6775ZM113.878 59.5602C113.974 58.2131 114.069 56.8767 114.162 55.5515L112.167 55.4119C112.074 56.7358 111.979 58.071 111.883 59.417L113.878 59.5602ZM114.84 45.4376C114.925 44.0881 115.008 42.7533 115.088 41.4341L113.091 41.3139C113.012 42.6308 112.929 43.9633 112.844 45.3107L114.84 45.4376ZM115.644 31.2968C115.71 29.9357 115.771 28.5961 115.827 27.2789L113.829 27.1939C113.773 28.5068 113.712 29.8423 113.646 31.1996L115.644 31.2968ZM116.158 17.147C116.187 15.7549 116.208 14.3972 116.219 13.0756L114.219 13.0582C114.208 14.3709 114.187 15.7204 114.158 17.105L116.158 17.147ZM116.09 2.92258C116.063 2.24869 116.032 1.58975 115.998 0.946043L114 1.05447C114.035 1.68792 114.065 2.33717 114.092 3.00196L116.09 2.92258Z" fill="#28334C" fill-opacity="0.16"/>
<mask id="mask0_572_809" style="mask-type:alpha" maskUnits="userSpaceOnUse" x="7" y="500" width="109" height="109">
<circle cx="61.1621" cy="554.163" r="54" fill="#C4C4C4"/>
</mask>
<g mask="url(#mask0_572_809)">
<path d="M-33.8379 512.163C-33.8379 501.117 -24.8836 492.163 -13.8379 492.163H136.162C147.208 492.163 156.162 501.117 156.162 512.163V615.163H-33.8379V512.163Z" fill="#858FA9"/>
<g style="mix-blend-mode:color">
<path d="M-33.8379 512.163C-33.8379 501.117 -24.8836 492.163 -13.8379 492.163H136.162C147.208 492.163 156.162 501.117 156.162 512.163V615.163H-33.8379V512.163Z" fill="#858FA9"/>
</g>
<path d="M61.8835 608.606C92.1053 608.606 116.605 584.106 116.605 553.884C116.605 523.663 92.1053 499.163 61.8835 499.163C31.6617 499.163 7.16211 523.663 7.16211 553.884C7.16211 584.106 31.6617 608.606 61.8835 608.606Z" fill="#CBCDEB"/>
<path d="M76.3254 550.313C76.3254 550.313 78.2665 550.818 80.5377 552.759C81.3724 553.477 82.0712 554.37 82.5759 555.341C82.9447 556.039 83.3718 556.816 83.4689 557.612C83.6047 558.738 82.44 558.971 81.5665 558.893C81.353 558.874 81.3918 560.543 81.3918 560.698C81.3918 561.378 81.2171 562.271 80.3436 562.174C79.6253 562.096 78.9653 561.475 78.383 561.086C77.1601 560.31 76.0536 559.262 75.316 557.981C73.5883 554.991 74.1318 552.526 74.1318 552.526L76.3254 550.313Z" fill="black"/>
<path d="M46.4708 549.129C46.6261 551.652 47.0143 555.321 47.7325 557.767C48.4507 560.213 54.7595 566.619 55.8854 566.774C59.826 567.337 68.4642 560.562 71.143 558.369C73.8218 556.175 74.9088 551.089 74.9088 551.089L77.9176 538.278C77.9176 538.278 73.3947 530.998 69.5124 529.62C65.6301 528.242 54.7013 523.098 54.7013 523.098C54.4489 522.981 52.3719 525.485 52.1001 525.777C51.2072 526.805 48.4314 527.892 47.5578 528.941C46.6455 530.028 46.4902 533.871 46.3931 536.472C46.3543 537.346 46.3349 538.181 46.2961 538.996C46.2767 539.539 46.2572 540.063 46.2572 540.588C46.1602 543.926 46.199 544.683 46.4708 549.129Z" fill="#FF6B42"/>
<path d="M46.4707 579.508C46.4707 579.508 60.0783 598.182 60.5441 598.066C61.0294 597.93 81.6252 577.237 81.6252 577.237C81.6252 577.237 75.0641 572.967 74.7341 571.686C74.4041 570.404 74.2099 553.458 74.2099 553.458C74.2099 553.458 65.2612 556.35 64.8147 556.35C64.3682 556.35 55.0313 562.407 55.0313 562.407C55.0313 562.407 55.0312 563.086 55.0701 564.154C55.0701 564.814 55.0895 565.61 55.0895 566.483C55.1089 567.9 55.1089 569.453 55.1089 570.812C55.1089 571.394 55.1089 571.938 55.0895 572.423C55.0701 573.452 55.0312 574.17 54.973 574.326C54.6818 574.966 46.4707 579.508 46.4707 579.508Z" fill="#FF6B42"/>
<path d="M65.7089 543.694C66 542.781 67.0677 542.995 67.1647 543.907C67.223 544.431 67.2424 545.421 66.6795 545.732C66.2524 545.965 65.8253 545.635 65.6894 545.227C65.573 544.936 65.5342 544.218 65.7089 543.694Z" fill="black"/>
<path d="M49.8485 543.927C50.1009 543.112 51.0909 543.286 51.1685 544.121C51.2073 544.606 51.2267 545.499 50.7415 545.771C50.3532 545.984 49.965 545.693 49.8485 545.324C49.732 545.033 49.6932 544.412 49.8485 543.927Z" fill="black"/>
<path d="M70.7934 539.966C71.434 541.345 68.7164 540.646 68.2311 540.588C67.2993 540.471 66.3676 540.394 65.4164 540.355C65.0088 540.335 63.3782 540.568 63.4558 539.831C63.747 537.113 69.9005 538.045 70.7934 539.966Z" fill="black"/>
<path d="M46.2383 540.568C46.9177 540.627 47.83 540.471 48.1018 540.432C49.0336 540.374 49.9847 540.355 50.9165 540.355C51.3241 540.355 52.9353 540.685 52.8965 539.947C52.78 537.598 48.1988 537.695 46.2771 538.957C46.2577 539.501 46.2383 540.044 46.2383 540.568Z" fill="black"/>
<path d="M54.9341 549.071C55.2059 547.692 55.7299 546.372 56.0794 545.014C56.2347 544.373 57.1858 544.742 57.0305 545.363C56.7782 546.372 56.4288 547.343 56.157 548.352C55.7105 549.983 55.9629 550.992 56.7005 552.429C57.0111 553.011 56.0794 553.438 55.7882 552.856C55.1476 551.614 54.6429 550.468 54.9341 549.071Z" fill="#D94921"/>
<path d="M55.0703 572.384C56.235 572.306 57.8074 572.17 59.535 571.918C63.1844 571.394 66.9697 568.191 66.9697 565.784C66.9697 564.58 65.6108 564.444 65.1256 564.599C64.6403 564.755 59.4379 566.909 57.8073 566.948C56.1768 566.987 55.0703 566.424 55.0703 566.424C55.0897 567.841 55.0897 569.394 55.0897 570.753C55.0897 571.355 55.0897 571.918 55.0703 572.384Z" fill="#D94921"/>
<path d="M74.5202 568.715C74.5202 568.715 63.3391 575.471 61.3203 575.742C59.282 576.014 55.0697 572.384 55.0697 572.384C55.0697 572.384 50.9156 576.519 49.7315 577.082C48.5474 577.645 45.1892 579.741 45.0533 579.935C44.9174 580.129 45.6551 599.133 60.4662 599.425C77.8784 599.755 83.0613 578.285 82.5566 577.528C82.0519 576.771 78.3637 573.51 77.296 572.384C76.2284 571.258 74.5202 568.715 74.5202 568.715Z" fill="#FFD6B3"/>
<path d="M81.2374 576.13C81.2374 576.13 72.4827 595.173 58.6422 592.572C44.8017 589.971 46.3158 579.1 46.3158 579.1C46.3158 579.1 32.3201 587.253 30.7865 588.709C29.2724 590.165 23.3713 595.503 21.9737 604.51C20.576 613.517 20.9643 627.862 19.819 635.219C18.6737 642.576 13.879 660.047 12.3261 672.16C11.6661 677.246 10.8508 685.748 18.0331 692.348C21.6825 695.706 23.4878 695.9 23.4878 695.9C23.4878 695.9 28.0107 682.06 29.0395 681.438C30.0489 680.798 34.0283 683.341 44.4329 683.341C54.8375 683.341 63.8445 681.303 70.9686 681.186C78.0927 681.07 87.4685 679.924 90.1279 678.139C92.7873 676.353 96.0873 670.646 94.942 666.336C93.7967 662.027 91.2538 654.146 91.3896 650.593C91.5255 647.041 99.3872 621.398 100.144 616.584C100.901 611.77 104.958 590.184 100.785 587.02C96.592 583.817 81.2374 576.13 81.2374 576.13Z" fill="#FFD6B3"/>
<path d="M55.0706 572.384C55.0706 572.384 51.1883 584.73 50.8583 598.842C50.6836 606.335 51.1689 640.286 51.1689 640.286C51.1689 640.286 21.7408 642.945 21.4885 642.479C21.2361 642.013 19.9355 588.631 19.9355 588.631L55.0706 572.384Z" fill="black"/>
<path d="M74.5215 568.715C74.5215 568.715 75.3174 589.292 75.7638 601.773C76.2103 614.236 75.725 647.76 75.725 647.76C75.725 647.76 114.199 628.193 113.908 627.63C113.636 627.067 109.229 590.223 109.229 590.223C109.229 590.223 104.241 587.234 97.3884 583.352C90.5361 579.469 74.5215 568.715 74.5215 568.715Z" fill="black"/>
<path d="M71.7652 551.497C71.8234 551.458 71.8622 551.4 71.9205 551.361C72.0952 550.973 72.3087 550.604 72.5416 550.255C72.4834 550.119 72.464 549.944 72.5222 549.75C72.7746 549.032 73.1046 548.294 73.1822 547.537C73.2211 547.246 73.2016 546.935 73.1822 546.644C73.1822 546.528 73.1628 546.411 73.1434 546.314C73.1046 546.237 73.0852 546.178 73.1046 546.159C72.4446 545.907 72.4252 544.878 73.0269 544.722C72.9881 544.645 72.9493 544.606 72.9687 544.606C72.231 545.247 71.1634 544.179 71.901 543.538C71.9593 543.5 71.9981 543.461 72.0563 543.422C72.0952 543.247 72.1922 543.092 72.3669 542.975C73.1822 542.412 73.9199 542.587 74.4828 543.092C75.2204 543.577 75.7057 544.509 75.764 545.441C75.7834 545.848 75.764 546.237 75.7251 546.625C75.5893 548.663 74.5993 551.051 73.1046 552.39C73.0463 552.448 72.9881 552.507 72.9105 552.545C72.8911 552.565 72.8716 552.584 72.8522 552.604C72.0758 553.167 70.9887 552.099 71.7652 551.497Z" fill="#FF6B42"/>
<path d="M80.4413 531.542C80.0336 527.64 78.8107 526.01 75.3554 522.477C72.9678 520.031 69.5319 519.041 66.3678 517.663C63.2037 516.284 59.5543 516.614 56.3903 517.798C53.7309 518.769 49.7515 519.798 46.995 520.458C45.6362 520.788 44.025 521.06 43.1321 522.244C41.2492 524.728 40.725 528.669 40.6474 531.717C40.5892 534.376 41.4045 537.268 44.4133 537.734C45.4421 537.889 46.4709 537.443 47.3444 536.88C48.4897 536.142 49.4603 535.172 50.2367 534.065C51.2462 533.464 52.2556 532.92 53.7114 532.901C54.682 532.901 55.6332 532.998 56.6038 532.804C58.1761 532.493 59.1467 531.833 60.8937 532.26C63.2231 532.842 64.8343 534.551 67.3966 534.201C68.2508 534.085 69.1243 533.813 69.9396 534.124C71.0072 534.512 71.2984 535.696 71.5507 536.667C71.706 537.327 72.0554 537.967 72.3854 538.549C72.6766 539.054 72.9872 539.559 73.3754 539.986C73.4143 540.025 73.8801 540.452 73.8607 540.413C74.1131 541.966 74.249 543.461 74.2878 544.664C74.4431 548.585 74.1519 553.438 74.1519 553.438C74.1519 553.438 78.7524 550.099 79.956 544.47C80.5577 541.888 80.713 534.182 80.4413 531.542Z" fill="black"/>
<path d="M73.6868 540.296C73.6868 540.296 75.9579 541.267 76.4821 542.859C77.2391 545.208 75.5309 549.711 72.9491 550.332C72.4832 550.449 72.2697 549.963 72.4056 549.595C72.4833 549.4 72.6774 549.265 72.7356 549.051C72.7938 548.818 72.5997 548.643 72.5997 548.43C72.5997 548.255 72.7162 548.1 72.7938 547.945C72.9297 547.673 73.085 543.13 72.988 542.859C72.8327 542.432 73.6868 540.296 73.6868 540.296Z" fill="#FF6B42"/>
<path d="M61.4173 554.816C59.6702 556.195 57.3408 556.622 55.2638 555.787C54.662 555.535 54.3903 556.525 54.992 556.758C57.4185 557.728 60.1167 557.126 62.1355 555.535C62.6402 555.127 61.922 554.409 61.4173 554.816Z" fill="#D94921"/>
</g>
</svg>
