<svg width="20" height="20" viewBox="0 0 20 20" fill="none" xmlns="http://www.w3.org/2000/svg">
<path fill-rule="evenodd" clip-rule="evenodd" d="M10.2916 5.93338C9.17077 5.90872 8.08726 6.33679 7.28592 7.12088C6.48458 7.90497 6.03303 8.97891 6.03331 10.1C6.02708 10.996 6.30416 11.871 6.82497 12.6C7.65732 13.7138 8.12059 15.0599 8.14997 16.45C8.28297 17.4994 9.1756 18.286 10.2333 18.286C11.291 18.286 12.1836 17.4994 12.3166 16.45C12.2744 15.1187 12.689 13.8131 13.4916 12.75C14.0594 12.0383 14.3785 11.1602 14.4 10.25C14.4376 7.93126 12.6095 6.01038 10.2916 5.93338ZM11.125 16.1917H9.24164C8.93547 16.1415 8.71071 15.877 8.71071 15.5667C8.71071 15.2564 8.93547 14.9919 9.24164 14.9417H11.1583C11.4645 14.9919 11.6892 15.2564 11.6892 15.5667C11.6892 15.877 11.4645 16.1415 11.1583 16.1917H11.125ZM12.4417 9.96671C12.437 10.3087 12.7081 10.591 13.05 10.6L13.0833 10.6084C13.4174 10.6039 13.6872 10.3341 13.6917 10C13.7072 9.11452 13.3698 8.2592 12.7538 7.62287C12.1378 6.98654 11.2939 6.62152 10.4083 6.60837C10.0631 6.60837 9.78332 6.88819 9.78332 7.23337C9.78332 7.57855 10.0631 7.85837 10.4083 7.85837C11.5396 7.90719 12.4338 8.83444 12.4417 9.96671Z" fill="white"/>
<path d="M10.2334 5.17508C10.5767 5.17059 10.8539 4.89338 10.8584 4.55008V2.29175C10.8584 2.06846 10.7393 1.86213 10.5459 1.75048C10.3525 1.63884 10.1143 1.63884 9.9209 1.75048C9.72752 1.86213 9.6084 2.06846 9.6084 2.29175V4.55008C9.61289 4.89338 9.8901 5.17059 10.2334 5.17508Z" fill="white"/>
<path d="M16.3256 4.05852C16.0816 3.8148 15.6863 3.8148 15.4423 4.05852L13.884 5.60852C13.7055 5.78725 13.6521 6.05588 13.7487 6.28929C13.8454 6.52269 14.073 6.67496 14.3256 6.67518C14.4915 6.67597 14.6507 6.60988 14.7673 6.49185L16.3256 4.94185C16.5694 4.69783 16.5694 4.30253 16.3256 4.05852Z" fill="white"/>
<path d="M18.0256 9.19165H15.834C15.4888 9.19165 15.209 9.47147 15.209 9.81665C15.209 10.1618 15.4888 10.4416 15.834 10.4416H18.0256C18.3708 10.4416 18.6506 10.1618 18.6506 9.81665C18.6506 9.47147 18.3708 9.19165 18.0256 9.19165Z" fill="white"/>
<path d="M4.48366 9.19165H2.29199C1.94681 9.19165 1.66699 9.47147 1.66699 9.81665C1.66699 10.1618 1.94681 10.4416 2.29199 10.4416H4.48366C4.82884 10.4416 5.10866 10.1618 5.10866 9.81665C5.10866 9.47147 4.82884 9.19165 4.48366 9.19165Z" fill="white"/>
<path d="M6.49165 6.49165C6.61077 6.37558 6.67796 6.21631 6.67796 6.04998C6.67796 5.88366 6.61077 5.72439 6.49165 5.60832L4.94165 4.05832C4.78584 3.8911 4.55119 3.82227 4.32974 3.87883C4.1083 3.93538 3.93538 4.1083 3.87883 4.32974C3.82227 4.55119 3.8911 4.78584 4.05832 4.94165L5.60832 6.49165C5.72489 6.60968 5.88409 6.67577 6.04998 6.67498C6.21606 6.67672 6.37563 6.61049 6.49165 6.49165Z" fill="white"/>
</svg>
