<svg width="20" height="20" viewBox="0 0 20 20" fill="none" xmlns="http://www.w3.org/2000/svg">
<path d="M13.732 3.53373L9.12366 11.6004C9.03503 11.7539 9.03426 11.9428 9.12163 12.097C9.209 12.2512 9.37147 12.3476 9.54866 12.3504H12.1737C12.7213 12.3504 13.1653 12.7944 13.1653 13.3421V16.6754C13.1659 16.8957 13.3107 17.0896 13.5217 17.1529C13.7327 17.2162 13.9602 17.134 14.082 16.9504L18.6153 10.1421C18.7171 9.99123 18.7273 9.79653 18.6417 9.63594C18.5562 9.47534 18.389 9.37511 18.207 9.3754H15.6153C15.063 9.3754 14.6153 8.92768 14.6153 8.3754V3.75873C14.5884 3.56023 14.4436 3.39794 14.2495 3.34849C14.0554 3.29904 13.8507 3.37232 13.732 3.53373Z" fill="white"/>
<path d="M7.29102 6.75879H3.29102C2.94584 6.75879 2.66602 6.47897 2.66602 6.13379C2.66602 5.78861 2.94584 5.50879 3.29102 5.50879H7.29102C7.63619 5.50879 7.91602 5.78861 7.91602 6.13379C7.91602 6.47897 7.63619 6.75879 7.29102 6.75879Z" fill="white"/>
<path d="M6.29102 10.7004H2.29102C2.06772 10.7004 1.8614 10.5813 1.74975 10.3879C1.6381 10.1946 1.6381 9.95631 1.74975 9.76294C1.8614 9.56956 2.06772 9.45044 2.29102 9.45044H6.29102C6.63619 9.45044 6.91602 9.73026 6.91602 10.0754C6.91602 10.4206 6.63619 10.7004 6.29102 10.7004Z" fill="white"/>
<path d="M7.29102 15.5088H3.29102C2.94584 15.5088 2.66602 15.229 2.66602 14.8838C2.66602 14.5386 2.94584 14.2588 3.29102 14.2588H7.29102C7.63619 14.2588 7.91602 14.5386 7.91602 14.8838C7.91602 15.229 7.63619 15.5088 7.29102 15.5088Z" fill="white"/>
</svg>
