<svg width="41" height="21" viewBox="0 0 41 21" fill="none" xmlns="http://www.w3.org/2000/svg">
<path d="M30.1031 0.10498C31.9855 0.10498 33.6857 0.545226 35.2038 1.42572C36.7523 2.27585 37.9667 3.47514 38.8472 5.02359C39.7277 6.54167 40.168 8.24193 40.168 10.1244C40.168 12.0068 39.7277 13.7222 38.8472 15.2707C37.9667 16.7888 36.7523 17.9881 35.2038 18.8685C33.6857 19.7187 31.9855 20.1437 30.1031 20.1437C27.8259 20.1437 25.898 19.7035 24.3191 18.823C22.7707 17.9425 21.3741 16.728 20.1292 15.1796C18.9451 16.728 17.5637 17.9425 15.9848 18.823C14.4364 19.7035 12.5236 20.1437 10.2465 20.1437C8.33368 20.1437 6.58788 19.7187 5.00907 18.8685C3.46062 17.9881 2.24615 16.7888 1.36566 15.2707C0.485167 13.7222 0.0449219 12.0068 0.0449219 10.1244C0.0449219 8.21157 0.485167 6.49613 1.36566 4.97804C2.24615 3.45996 3.46062 2.27585 5.00907 1.42572C6.58788 0.545226 8.33368 0.10498 10.2465 0.10498C12.5236 0.10498 14.4364 0.545226 15.9848 1.42572C17.5637 2.30621 18.9451 3.52068 20.1292 5.06913C21.3741 3.52068 22.7707 2.30621 24.3191 1.42572C25.898 0.545226 27.8259 0.10498 30.1031 0.10498ZM10.8385 14.1321C12.053 14.1321 13.1005 13.7981 13.981 13.1302C14.8615 12.4319 15.7571 11.4299 16.668 10.1244C15.7571 8.8188 14.8615 7.83205 13.981 7.16409C13.1005 6.46577 12.053 6.11661 10.8385 6.11661C9.71514 6.11661 8.77392 6.49613 8.01488 7.25517C7.25584 8.01422 6.87632 8.97061 6.87632 10.1244C6.87632 11.2781 7.25584 12.2345 8.01488 12.9935C8.77392 13.7526 9.71514 14.1321 10.8385 14.1321ZM29.3744 14.1321C30.4978 14.1321 31.4238 13.7526 32.1525 12.9935C32.9115 12.2345 33.291 11.2781 33.291 10.1244C33.291 8.97061 32.9115 8.01422 32.1525 7.25517C31.4238 6.49613 30.4978 6.11661 29.3744 6.11661C28.1599 6.11661 27.0972 6.46577 26.1864 7.16409C25.3059 7.83205 24.4406 8.8188 23.5905 10.1244C24.4406 11.4299 25.3059 12.4319 26.1864 13.1302C27.0972 13.7981 28.1599 14.1321 29.3744 14.1321Z" fill="#5845DD"/>
</svg>
