<svg width="1920" height="1080" viewBox="0 0 1920 1080" fill="none" xmlns="http://www.w3.org/2000/svg">
<rect width="1920" height="907" fill="#4949B7"/>
<path d="M874.658 718.74C865.817 718.74 860.84 717.254 858.165 715.174C842.936 703.659 806.013 707.893 770.353 712.053C729.27 716.808 690.491 721.265 677.49 704.773C671.918 697.79 671.621 687.76 676.524 674.165C691.085 633.454 741.454 586.502 781.051 554.334C830.009 514.588 879.561 483.238 900.957 471.797L901.477 472.763L900.957 471.797C965.441 437.474 1022.35 407.609 1065.07 389.928C1110.16 371.281 1138.17 366.452 1155.92 374.253C1166.32 378.785 1173.08 387.699 1176.65 401.369C1181.63 420.387 1191.66 434.057 1208.3 444.383C1223.38 453.744 1242.62 459.613 1262.98 465.705C1287.57 473.134 1315.5 481.603 1341.8 498.096C1346.18 500.844 1348.26 504.485 1348.04 508.868C1347.3 519.937 1330.8 535.687 1299.01 555.671C1271 573.278 1231.55 593.857 1184.9 615.252C1118.78 645.489 1042.63 675.279 981.042 694.818C923.467 713.094 891.819 718.74 874.658 718.74ZM823.397 705.516C838.775 705.516 851.702 707.522 859.502 713.391C869.977 721.266 914.032 713.762 980.374 692.664C1041.81 673.125 1117.96 643.409 1183.93 613.247C1284 567.409 1344.47 528.332 1345.81 508.794C1346.03 505.302 1344.32 502.405 1340.61 500.102C1314.61 483.758 1286.82 475.363 1262.31 467.934C1221.15 455.453 1185.64 444.755 1174.5 401.963C1171.08 388.962 1164.76 380.568 1155.03 376.333C1118.63 360.36 1035.13 403.003 901.922 473.803C880.675 485.095 831.198 516.371 782.463 556.043C743.014 588.062 693.017 634.717 678.604 674.908C673.998 687.76 674.221 697.047 679.273 703.361C691.531 718.814 731.499 714.208 770.205 709.75C788.555 707.745 807.276 705.516 823.397 705.516Z" fill="white" fill-opacity="0.05"/>
<path d="M879.784 711.31C873.024 711.31 868.046 710.345 865.149 708.264C851.108 697.938 817.454 701.801 784.989 705.516C747.175 709.825 711.515 713.911 699.48 698.755C694.354 692.366 694.057 683.228 698.366 670.822C705.646 649.129 724.814 621.939 753.787 592.296C778.452 567.038 809.728 540.664 839.593 519.937C870.944 498.616 896.351 483.757 903.334 479.746C967.893 445.201 1015.37 420.685 1052.44 405.604C1092.85 389.185 1119.3 384.876 1135.64 392.008C1145.45 396.317 1151.91 404.638 1155.25 417.564C1159.86 435.023 1169 447.652 1184.23 457.236C1198.05 465.928 1215.58 471.351 1234.15 477.146C1256.51 484.055 1281.85 491.93 1305.77 507.085C1309.93 509.834 1311.86 513.325 1311.49 517.56C1309.26 545.939 1204.14 597.274 1159.04 618.001C1053.48 666.513 925.696 711.31 879.784 711.31ZM833.501 699.498C847.468 699.498 859.28 701.281 866.412 706.556C887.436 721.934 1037.8 671.416 1158.15 616.07C1251.39 573.204 1307.92 536.281 1309.41 517.337C1309.71 513.845 1308.15 511.097 1304.65 508.794C1281.03 493.787 1255.84 485.986 1233.56 479.077C1195.97 467.414 1163.5 457.384 1153.25 418.084C1150.05 405.826 1144.04 397.952 1134.82 393.94C1100.65 379.007 1021.38 418.976 904.375 481.603C897.391 485.615 872.058 500.399 840.782 521.646C810.991 542.299 779.863 568.598 755.273 593.708C726.522 623.201 707.578 650.095 700.372 671.491C696.286 683.154 696.509 691.623 701.115 697.418C712.481 711.682 749.181 707.447 784.766 703.361C801.63 701.504 818.791 699.498 833.501 699.498Z" fill="white" fill-opacity="0.05"/>
<path d="M885.356 704.03C879.338 704.03 874.807 703.139 872.207 701.281C859.354 692.144 828.969 695.561 799.624 698.904C765.153 702.841 732.54 706.482 721.47 692.664C716.79 686.869 716.419 678.623 720.282 667.405C726.522 647.272 743.832 620.824 768.942 593.04C792.27 567.186 820.426 542.299 846.205 524.841C863.663 513.474 879.784 503.668 892.711 495.719C897.763 492.673 902.071 489.998 905.712 487.695C953.332 461.99 1002.51 436.137 1039.73 421.279C1076.06 406.792 1100.06 403.152 1115.14 409.69C1124.42 413.701 1130.52 421.576 1133.71 433.686C1142.85 468.454 1171.75 477.666 1205.25 488.364C1225.39 494.753 1248.19 502.033 1269.66 515.777C1278.06 521.72 1274.86 530.041 1270.63 535.984C1248.64 567.186 1147.9 616.218 1068.33 648.683C996.347 678.251 918.193 704.03 885.356 704.03ZM843.827 693.407C856.383 693.407 866.709 695.041 873.321 699.721C887.436 709.602 967.373 687.983 1067.67 647.049C1114.62 627.882 1159.79 606.858 1194.78 587.913C1234.08 566.592 1259.78 548.316 1269.14 535.093C1274.57 527.366 1274.42 521.646 1268.7 517.634C1247.52 504.039 1224.79 496.833 1204.81 490.444C1170.78 479.597 1141.36 470.237 1132 434.429C1128.96 422.913 1123.24 415.484 1114.54 411.696C1084.75 398.769 1021.23 427.742 906.826 489.552C903.186 491.781 898.877 494.456 893.825 497.576C880.899 505.451 864.852 515.257 847.393 526.624C821.763 544.008 793.681 568.821 770.502 594.525C745.541 622.162 728.454 648.312 722.288 668.148C718.647 678.623 718.944 686.275 723.105 691.549C733.505 704.55 767.085 700.761 799.55 697.047C815.3 695.19 830.752 693.407 843.827 693.407Z" fill="white" fill-opacity="0.05"/>
<path d="M890.556 696.675C885.579 696.675 881.567 696.007 879.19 694.372C867.526 686.423 840.484 689.469 814.259 692.366C784.394 695.709 753.564 699.127 743.46 686.646C739.3 681.446 738.854 674.091 742.197 664.136C753.118 624.984 805.865 560.946 852.891 529.818C860.766 524.989 868.195 520.457 875.475 516.074C888.773 508.051 900.288 501.142 908.163 495.793L908.237 495.718C963.807 465.408 999.318 447.875 1027.1 437.103C1059.35 424.622 1080.89 421.576 1094.78 427.519C1103.62 431.308 1109.34 438.663 1112.31 450.029C1120.56 481.454 1146.49 489.998 1176.43 499.879C1194.26 505.748 1214.54 512.434 1233.56 524.84C1239.87 529.669 1240.02 536.355 1233.93 544.825C1224.94 557.454 1201.54 574.392 1166.25 593.857C1135.05 611.018 1094.93 630.036 1053.18 647.272C1012.39 664.136 972.87 678.177 941.891 686.943C924.73 691.772 904.003 696.675 890.556 696.675ZM853.931 687.389C865.074 687.389 874.361 688.8 880.23 692.812C886.693 697.121 908.46 694.372 941.52 685.086C972.499 676.319 1011.95 662.278 1052.58 645.489C1122.79 616.515 1212.09 572.461 1232.59 543.71C1238.01 536.133 1238.01 530.412 1232.59 526.252C1213.8 513.994 1193.66 507.382 1175.91 501.513C1145.45 491.484 1119.07 482.792 1110.61 450.401C1107.78 439.629 1102.36 432.645 1094.11 429.079C1065.96 416.97 1004.96 444.903 909.129 497.13C901.18 502.479 889.739 509.462 876.367 517.486C869.16 521.869 861.657 526.4 853.856 531.155C807.202 562.209 754.752 625.727 743.98 664.581C740.786 673.942 741.083 680.777 744.872 685.457C754.307 697.195 784.692 693.778 814.037 690.509C828.3 688.949 842.193 687.389 853.931 687.389Z" fill="white" fill-opacity="0.05"/>
<path d="M895.979 689.321C891.744 689.321 888.327 688.726 886.247 687.389C875.846 680.628 851.999 683.229 828.894 685.755C802.15 688.726 774.513 691.772 765.45 680.554C761.735 675.948 761.29 669.485 764.113 660.719C768.199 643.632 781.348 618.893 799.252 594.674C818.271 568.895 840.261 547.053 859.577 534.721L865.297 531.452C883.35 521.126 900.437 511.32 910.614 503.816L910.689 503.742C1004.96 451.664 1050.88 435.246 1074.35 445.275C1082.67 448.841 1088.1 455.676 1090.92 466.299C1098.35 494.307 1121.15 502.182 1147.68 511.32C1163.28 516.669 1180.96 522.76 1197.6 533.83L1197.67 533.904C1203.47 538.733 1203.39 545.345 1197.38 553.665C1177.99 580.41 1102.43 618.744 1038.17 645.637C1002.81 660.421 968.338 672.902 941.222 680.703C926.067 684.937 907.791 689.321 895.979 689.321ZM864.034 681.371C873.766 681.371 881.864 682.56 887.213 685.977C898.802 693.258 962.098 675.651 1037.65 643.929C1074.05 628.699 1109.12 611.835 1136.38 596.531C1167.14 579.221 1187.87 563.992 1196.19 552.477C1201.61 544.899 1201.83 539.253 1196.78 535.018C1180.36 524.172 1162.76 518.08 1147.23 512.731C1120.26 503.445 1097.01 495.496 1089.43 466.596C1086.76 456.493 1081.63 450.03 1073.83 446.686C1047.31 435.394 989.808 461.842 911.654 505.079C901.402 512.657 884.315 522.463 866.188 532.79L860.542 536.058C841.45 548.242 819.608 570.009 800.738 595.64C782.983 619.71 769.907 644.226 765.896 661.164C763.221 669.411 763.518 675.354 766.862 679.514C775.405 689.989 802.595 687.017 828.82 684.12C841.375 682.709 853.633 681.371 864.034 681.371Z" fill="white" fill-opacity="0.05"/>
<path d="M901.477 682.04C897.836 682.04 895.088 681.52 893.305 680.48C884.093 674.834 863.514 677.062 843.604 679.217C819.98 681.743 795.538 684.417 787.44 674.462C784.171 670.45 783.726 664.879 786.029 657.375C791.823 626.767 828.82 562.432 866.189 539.55C884.093 530.189 902.442 520.309 912.992 511.691L913.066 511.617C990.106 468.305 1032.23 453.67 1053.77 462.733C1061.65 466.076 1066.77 472.465 1069.45 482.42C1075.99 507.085 1095.82 514.217 1118.78 522.537C1132.15 527.366 1147.31 532.864 1161.49 542.522L1161.57 542.596C1166.92 547.499 1166.62 554.111 1160.6 562.283C1142.62 586.725 1077.77 620.453 1023.09 643.78C977.105 663.541 923.69 682.04 901.477 682.04ZM874.138 675.354C882.458 675.354 889.442 676.319 894.048 679.142C904.448 685.234 958.532 669.782 1022.57 642.443C1077.1 619.19 1141.73 585.685 1159.49 561.466C1164.99 553.962 1165.43 548.168 1160.68 543.859C1146.64 534.35 1131.63 528.926 1118.33 524.097C1094.93 515.628 1074.8 508.273 1068.04 482.866C1065.51 473.431 1060.68 467.339 1053.25 464.219C1032.15 455.378 990.551 469.939 913.958 512.954C903.26 521.646 884.91 531.527 867.006 540.887C830.009 563.546 793.309 627.436 787.589 657.747V657.821C785.36 664.804 785.732 669.93 788.703 673.496C796.281 682.783 820.277 680.183 843.53 677.657C854.376 676.468 865.074 675.354 874.138 675.354Z" fill="white" fill-opacity="0.05"/>
<path d="M906.9 674.685C904.077 674.685 901.774 674.314 900.288 673.496C892.339 669.039 875.029 670.896 858.313 672.605C837.809 674.759 816.636 676.988 809.43 668.37C806.607 665.027 806.161 660.198 807.944 653.958C811.287 627.436 840.929 562.877 872.874 544.453C886.247 538.287 905.117 529.001 915.369 519.714L915.517 519.64C976.213 484.723 1013.58 472.242 1033.12 480.266C1040.55 483.312 1045.53 489.552 1048.05 498.69C1053.7 519.937 1070.49 526.475 1089.95 533.978C1101.1 538.287 1113.65 543.19 1125.46 551.436L1125.54 551.511C1130.44 556.562 1129.92 563.249 1123.9 571.346C1116.55 581.227 1101.32 593.114 1078.59 606.635C1058.75 618.447 1034.38 630.705 1008.16 642.22C970.121 658.935 925.547 674.685 906.9 674.685ZM884.315 669.336C891.224 669.336 897.093 670.079 901.031 672.308C910.317 677.137 955.189 663.987 1007.71 640.957C1076.43 610.869 1112.24 584.867 1122.86 570.529C1128.36 563.1 1129.03 557.008 1124.65 552.551C1112.98 544.379 1101.02 539.773 1089.51 535.241C1069.67 527.515 1052.58 520.903 1046.72 498.987C1044.34 490.146 1039.73 484.426 1032.6 481.529C1013.51 473.654 976.585 486.06 916.335 520.754C905.934 530.189 886.915 539.476 873.543 545.642C841.969 563.917 812.625 627.882 809.356 654.255V654.404C807.647 660.198 808.019 664.507 810.544 667.553C817.231 675.576 838.032 673.422 858.165 671.268C867.526 670.302 876.589 669.336 884.315 669.336Z" fill="white" fill-opacity="0.05"/>
<path d="M850.514 667.702C841.896 667.702 834.838 666.439 831.421 662.427C829.044 659.678 828.524 655.741 829.861 650.763C830.678 627.882 852.371 563.769 879.561 549.431H879.636C897.688 542.447 910.541 535.167 917.821 527.812L917.97 527.738C963.287 500.844 995.009 490.741 1012.24 497.65C1019.38 500.547 1024.28 506.416 1026.58 515.034C1031.41 532.938 1045.16 538.733 1061.05 545.568C1069.89 549.356 1080 553.665 1089.36 560.5L1089.43 560.574C1093.89 565.849 1093.15 572.609 1087.06 580.781C1074.65 597.348 1039.66 619.71 993.301 640.734C973.911 649.501 954.595 657.004 938.994 661.833C927.479 665.399 912.621 669.113 907.198 666.736C900.437 663.467 886.47 664.879 872.949 666.216C865.298 666.885 857.423 667.702 850.514 667.702ZM880.156 550.471C864.406 558.791 851.999 583.53 845.982 597.497C837.661 616.813 831.569 638.728 831.198 650.838V650.986C829.935 655.667 830.381 659.084 832.461 661.61C838.256 668.37 855.937 666.587 873.024 664.879C887.362 663.393 900.883 662.056 907.94 665.473C924.73 672.902 1058.23 617.407 1086.24 579.964C1091.88 572.461 1092.7 566.22 1088.69 561.466C1079.4 554.705 1069.89 550.619 1060.68 546.682C1044.49 539.773 1030.45 533.83 1025.47 515.331C1023.24 507.085 1018.63 501.513 1011.87 498.839C995.009 492.004 963.659 502.107 918.787 528.778C911.284 536.133 898.357 543.487 880.156 550.471Z" fill="white" fill-opacity="0.05"/>
<path d="M869.68 660.719C862.399 660.719 856.382 659.678 853.41 656.335C851.479 654.181 850.959 651.135 851.776 647.346C850.884 637.317 854.376 615.995 859.948 597.794C864.108 584.125 873.097 560.277 886.247 554.26H886.321C895.162 551.734 911.357 545.939 920.272 535.687L920.421 535.613C951.771 516 976.213 508.719 990.997 514.44C998.129 517.189 1002.88 522.835 1005.19 531.155C1009.12 545.642 1019.82 550.842 1032.23 556.934C1039.21 560.352 1046.42 563.843 1053.4 569.341L1053.55 569.489C1057.56 575.135 1056.52 582.193 1050.43 590.365C1039.88 604.48 1013.14 622.756 978.887 639.1C948.725 653.512 921.535 662.204 914.403 659.753C908.905 657.598 898.728 658.564 887.955 659.604C881.641 660.124 875.326 660.719 869.68 660.719ZM886.692 555.3C864.777 565.403 851.33 629.888 852.964 647.346V647.42V647.495C852.147 650.986 852.593 653.661 854.302 655.518C859.205 661.09 873.766 659.678 887.881 658.341C898.802 657.301 909.128 656.261 914.849 658.49C921.683 660.793 949.023 651.952 978.442 637.837C1012.54 621.567 1039.14 603.515 1049.54 589.474C1055.26 581.747 1056.37 575.21 1052.73 570.009C1045.82 564.586 1038.69 561.169 1031.86 557.826C1019.23 551.66 1008.31 546.385 1004.22 531.378C1001.99 523.355 997.46 518.006 990.7 515.406C976.287 509.759 952.217 517.04 921.163 536.43C912.026 546.905 895.682 552.7 886.692 555.3Z" fill="white" fill-opacity="0.05"/>
<path d="M888.922 653.809C882.978 653.809 878.001 652.992 875.401 650.318C873.915 648.757 873.32 646.677 873.692 644.077C871.463 636.499 872.132 616.515 875.103 598.611C880.23 567.855 888.476 560.723 892.933 559.163H893.008C905.711 557.231 916.855 551.436 922.724 543.71L922.872 543.562C946.497 527.44 961.058 527.515 969.081 530.412C976.288 533.012 981.339 538.881 983.791 547.35C986.911 558.494 994.489 563.1 1003.33 568.375C1007.94 571.198 1012.76 574.021 1017.37 578.181L1017.44 578.33C1020.94 584.644 1019.75 592.073 1013.73 600.468C994.117 627.733 932.53 654.849 921.387 652.695C917.301 651.655 910.392 652.323 903.111 652.918C898.282 653.363 893.305 653.809 888.922 653.809ZM893.23 560.128C886.024 562.654 879.784 576.77 876.144 598.76C873.172 616.664 872.503 636.499 874.732 643.854V643.929V644.003C874.361 646.38 874.881 648.163 876.144 649.575C880.304 653.958 892.413 652.843 903.037 651.878C910.392 651.209 917.375 650.615 921.61 651.655C927.181 652.695 945.605 646.157 964.327 636.351C986.986 624.539 1004.67 611.241 1012.91 599.8C1018.63 591.851 1019.9 584.793 1016.63 578.85C1012.1 574.838 1007.34 572.015 1002.81 569.266C993.82 563.843 986.02 559.163 982.825 547.648C980.522 539.476 975.619 533.904 968.784 531.378C960.984 528.555 946.794 528.48 923.541 544.304C917.449 552.254 906.157 558.123 893.23 560.128Z" fill="white" fill-opacity="0.05"/>
<path d="M908.535 646.974C903.854 646.974 899.768 646.38 897.465 644.449C896.351 643.483 895.757 642.294 895.608 640.808C889.516 631.299 887.882 584.199 894.642 569.118C896.054 566.072 897.688 564.363 899.694 564.066H899.768H899.843C907.718 564.363 919.084 561.243 925.25 551.659L925.325 551.585C933.199 545.122 940.406 542.893 946.943 544.825C953.778 546.905 959.498 553.962 962.396 563.62C964.624 571.421 969.305 575.655 974.282 580.113C976.66 582.267 979.111 584.422 981.414 587.17L981.488 587.319C984.534 595.119 983.197 603.44 977.477 612.206C965.219 631.002 936.765 645.489 928.519 645.786C926.216 645.786 923.17 646.009 919.901 646.306C916.187 646.603 912.175 646.974 908.535 646.974ZM899.768 564.883C898.134 565.106 896.723 566.666 895.46 569.415C892.414 576.25 890.854 590.513 891.299 607.452C891.745 623.127 893.825 636.351 896.5 640.363L896.574 640.437V640.585C896.648 641.848 897.168 642.888 898.134 643.706C901.923 646.974 911.878 646.083 919.901 645.34C923.17 645.043 926.29 644.746 928.593 644.82C936.691 644.523 964.773 630.185 976.808 611.612C982.306 603.143 983.643 595.045 980.745 587.616C978.442 585.016 976.065 582.787 973.762 580.707C968.71 576.175 963.956 571.866 961.653 563.843C958.83 554.408 953.258 547.648 946.72 545.642C940.554 543.784 933.571 545.939 925.993 552.179C919.456 561.986 907.866 565.18 899.768 564.883Z" fill="white" fill-opacity="0.05"/>
<path d="M927.998 640.289C923.838 640.289 920.049 639.1 917.746 637.54C913.214 634.568 908.906 618.67 906.38 604.778C903.928 591.257 902.219 574.615 904.448 570.084C905.117 568.672 906.008 568.746 906.528 568.895C913.14 571.049 922.575 568.969 927.701 559.534C928.667 557.826 929.633 557.008 930.747 557.083C934.239 557.454 937.21 567.409 939.662 575.433C940.108 576.993 940.553 578.479 940.999 579.741C952.96 616.515 946.645 631.002 939.216 636.648C935.725 639.248 931.713 640.289 927.998 640.289ZM906.008 569.638C905.711 569.638 905.414 569.787 905.117 570.455C903.334 574.17 904.225 588.508 907.123 604.629C910.243 621.864 914.626 634.494 918.192 636.871C922.352 639.62 931.787 641.329 938.77 636.054C945.977 630.556 952.143 616.367 940.331 579.964C939.959 578.701 939.513 577.216 938.993 575.655C936.913 568.672 933.719 558.123 930.747 557.826C930.004 557.751 929.187 558.42 928.37 559.906C923.021 569.712 913.214 571.792 906.305 569.638C906.157 569.638 906.083 569.638 906.008 569.638Z" fill="white" fill-opacity="0.05"/>
<path d="M1249.6 412.215C1235.93 412.215 1226.95 409.17 1222.71 403.003C1217.29 395.129 1219.66 382.276 1229.84 364.818C1240.91 345.874 1261.42 320.912 1290.84 290.527C1329.76 250.336 1368.02 216.088 1404.5 188.749C1436.15 165.05 1467.5 145.808 1497.59 131.545C1550.26 106.657 1592.16 100.045 1629.53 96.6278C1669.64 92.9876 1704.34 97.7422 1732.79 110.669C1757.53 121.961 1777.14 139.196 1790.96 161.855C1819.79 209.179 1816.59 269.577 1796.83 300.705C1787.54 315.266 1775.14 322.546 1761.84 321.061C1705.68 314.894 1655.83 313.26 1609.47 315.934C1545.58 319.649 1489.12 331.981 1441.65 352.56C1407.69 367.269 1357.99 387.402 1313.79 400.18C1286.53 408.204 1265.06 412.215 1249.6 412.215ZM1629.6 97.8165L1629.68 98.9308C1592.46 102.348 1550.85 108.886 1498.48 133.625C1468.54 147.814 1437.34 166.907 1405.76 190.606C1369.44 217.796 1331.32 251.97 1292.4 292.087C1263.05 322.324 1242.69 347.137 1231.7 365.932C1221.97 382.573 1219.59 394.609 1224.49 401.74C1232.81 413.85 1263.5 412.587 1313.2 398.249C1357.25 385.471 1406.88 365.338 1440.75 350.703C1488.45 330.05 1545.21 317.717 1609.32 313.929C1655.83 311.18 1705.75 312.889 1762.06 319.055C1774.47 320.392 1786.13 313.557 1794.9 299.665C1814.29 269.131 1817.41 209.699 1789.03 163.192C1775.43 140.905 1756.19 123.967 1731.83 112.823C1703.74 99.9709 1669.35 95.3649 1629.68 98.9308L1629.6 97.8165Z" fill="white" fill-opacity="0.05"/>
<path d="M1269.07 394.831C1256.51 394.831 1248.27 392.008 1244.4 386.362C1234 371.132 1254.66 337.256 1307.55 282.875C1377.01 213.264 1443.73 164.158 1505.76 136.745C1556.13 114.532 1595.06 109.703 1629.53 107.846C1665.11 104.948 1696.02 109.257 1721.2 120.772C1743.27 130.801 1760.58 146.105 1772.83 166.09C1781.23 179.908 1791.33 202.938 1791.41 234.066C1791.48 256.204 1786.13 277.526 1776.77 292.607C1767.34 307.837 1754.56 315.489 1740.89 314.226C1638.67 306.202 1531.46 304.048 1440.68 342.605C1409.85 355.68 1364.9 373.584 1326.05 384.653C1301.91 391.414 1282.89 394.831 1269.07 394.831ZM1650.48 109.034C1643.72 109.034 1636.81 109.331 1629.68 109.926C1595.35 111.857 1556.72 116.612 1506.65 138.676C1444.84 165.941 1378.35 214.973 1309.04 284.361C1281.92 312.22 1263.05 335.027 1252.95 352.337C1243.96 367.641 1241.66 378.71 1246.11 385.248C1253.69 396.317 1280.36 395.426 1325.46 382.648C1364.24 371.652 1409.11 353.748 1439.86 340.747C1531.09 302.116 1638.52 304.196 1741.11 312.294C1753.97 313.483 1766 306.128 1775.06 291.641C1784.28 276.932 1789.48 255.982 1789.4 234.214C1789.33 217.276 1786.13 191.869 1771.13 167.278C1759.09 147.591 1742.08 132.584 1720.39 122.778C1700.48 113.566 1677.07 109.034 1650.48 109.034Z" fill="white" fill-opacity="0.05"/>
<path d="M1288.53 377.521C1277.02 377.521 1269.51 374.921 1266.02 369.721C1256.59 355.754 1275.68 324.849 1324.27 275.149C1390.53 210.887 1454.35 166.09 1514.01 141.871C1562.52 122.184 1599.66 119.212 1629.6 118.915C1660.8 116.686 1687.85 120.698 1709.84 130.727C1729.15 139.568 1744.38 152.866 1755.01 170.324C1765.63 187.857 1771.2 208.733 1770.98 230.723C1770.83 250.781 1765.85 269.8 1757.01 284.212C1747.28 300.11 1734.13 308.357 1719.87 307.317L1711.99 306.945C1669.64 304.865 1621.65 302.488 1574.85 305.088C1521.29 308.059 1477.08 316.974 1439.64 332.427C1399.3 349.142 1365.13 361.326 1338.08 368.829C1317.28 374.624 1300.72 377.521 1288.53 377.521ZM1645.95 120.326C1640.67 120.326 1635.25 120.549 1629.68 120.921C1599.89 121.218 1562.96 124.19 1514.75 143.728C1455.39 167.873 1391.72 212.521 1325.68 276.634C1278.5 324.849 1259.04 355.829 1267.66 368.681C1274.34 378.562 1297.89 377.967 1337.56 366.972C1364.46 359.543 1398.56 347.285 1438.9 330.644C1476.49 315.117 1520.99 306.128 1574.78 303.156C1621.65 300.556 1669.72 302.933 1712.14 305.014L1720.01 305.385C1733.53 306.351 1746.02 298.476 1755.38 283.246C1763.85 269.354 1768.82 250.187 1769.05 230.723C1769.27 209.104 1763.77 188.6 1753.37 171.364C1742.97 154.277 1728.04 141.202 1709.09 132.51C1691.19 124.412 1670.02 120.326 1645.95 120.326Z" fill="white" fill-opacity="0.05"/>
<path d="M1308 360.36C1297.6 360.36 1290.84 357.983 1287.72 353.229C1279.32 340.599 1296.78 312.591 1341.06 267.645C1404.2 208.658 1465.2 168.17 1522.33 147.146C1569.5 129.836 1604.42 128.944 1629.68 130.133C1694.09 126.493 1723.8 152.495 1737.4 174.93C1746.61 190.086 1751.22 208.287 1750.77 227.528C1750.4 245.135 1745.72 262.222 1737.69 275.669C1727.81 292.236 1713.62 301.225 1698.92 300.482C1688.14 300.259 1677 299.962 1666.3 299.739C1587.4 297.659 1505.83 295.579 1438.67 322.398C1375.08 347.731 1331.92 360.36 1308 360.36ZM1615.26 131.545C1591.79 131.545 1561.4 134.665 1522.85 148.78C1466.01 169.73 1405.24 210.144 1342.24 268.908C1299.3 312.517 1281.47 340.599 1289.2 352.188C1295 360.88 1315.35 360.583 1349.75 351.371C1372.78 345.205 1401.6 335.176 1437.93 320.615C1505.46 293.647 1587.26 295.727 1666.3 297.808C1677.07 298.105 1688.14 298.402 1698.92 298.55C1713.18 299.293 1726.33 290.824 1736.06 274.629C1743.94 261.479 1748.47 244.69 1748.84 227.38C1749.28 208.51 1744.75 190.606 1735.69 175.748C1722.32 153.683 1693.12 128.201 1629.6 131.842H1629.53H1629.45C1625.14 131.693 1620.39 131.545 1615.26 131.545Z" fill="white" fill-opacity="0.05"/>
<path d="M1327.53 343.125C1318.69 343.125 1312.23 341.193 1309.26 336.662C1301.9 325.369 1317.73 300.259 1357.7 259.919C1417.8 206.207 1475.89 170.027 1530.5 152.272C1565.41 140.905 1597.88 137.339 1629.6 141.202C1683.98 139.122 1708.72 160.889 1719.94 179.611C1727.59 192.463 1731.38 207.916 1730.71 224.334C1730.12 239.415 1725.88 254.422 1718.68 266.68C1708.65 283.841 1694.16 293.573 1678.93 293.573C1678.56 293.573 1678.19 293.573 1677.89 293.573C1659.39 293.721 1641.04 293.573 1623.21 293.424C1554.86 292.756 1490.31 292.161 1437.63 312.294C1397.81 327.45 1352.79 343.125 1327.53 343.125ZM1604.86 141.425C1581.16 141.425 1556.8 145.585 1531.02 153.906C1476.64 171.513 1418.76 207.618 1358.89 261.182C1320.18 300.259 1303.91 325.369 1310.67 335.77C1322.78 354.343 1405.76 322.621 1436.97 310.734C1490.01 290.453 1554.72 291.047 1623.21 291.716C1640.97 291.864 1659.39 292.087 1677.89 291.864C1692.97 292.31 1707.31 282.801 1717.26 265.862C1724.32 253.827 1728.48 239.118 1729.08 224.334C1729.67 208.213 1726.03 193.132 1718.53 180.576C1707.53 162.301 1683.24 140.905 1629.68 142.985H1629.6H1629.53C1621.36 141.945 1613.11 141.425 1604.86 141.425Z" fill="white" fill-opacity="0.05"/>
<path d="M1346.85 325.964C1338.98 325.964 1333.4 324.255 1330.8 320.244C1324.49 310.214 1338.75 288.001 1374.41 252.342C1431.47 203.755 1486.67 171.885 1538.67 157.472C1580.94 145.809 1611.4 148.26 1629.6 152.346C1674.1 151.752 1694.09 169.507 1702.93 184.588C1715.04 205.167 1714.07 233.695 1700.48 257.319C1689.93 275.669 1673.73 286.59 1657.09 286.59C1657.02 286.59 1656.94 286.59 1656.87 286.59C1630.49 287.63 1605.98 287.63 1582.28 287.63C1525.52 287.778 1476.49 287.853 1436.59 302.191C1401.01 314.895 1366.69 325.964 1346.85 325.964ZM1597.21 150.563C1552.41 150.563 1476.27 167.724 1375.53 253.456C1340.98 288.001 1326.35 310.214 1332.14 319.352C1341.72 334.433 1405.47 311.626 1436.07 300.705C1476.27 286.293 1525.37 286.218 1582.28 286.144C1605.98 286.144 1630.49 286.07 1656.87 285.104C1656.94 285.104 1657.02 285.104 1657.09 285.104C1673.21 285.104 1688.89 274.48 1699.21 256.651C1712.51 233.472 1713.55 205.538 1701.74 185.48C1693.12 170.77 1673.58 153.386 1629.68 153.981H1629.6H1629.53C1621.8 152.198 1610.95 150.563 1597.21 150.563Z" fill="white" fill-opacity="0.05"/>
<path d="M1366.32 308.803C1359.48 308.803 1354.43 307.391 1352.2 303.751C1346.93 295.059 1359.63 275.669 1391.13 244.615C1445.29 201.229 1497.66 173.667 1546.99 162.672C1565.27 158.586 1582.58 156.952 1598.55 157.769C1614.6 158.586 1624.92 161.707 1629.75 163.564C1650.92 164.01 1667.19 169.359 1678.11 179.388C1687.55 188.08 1692.53 200.041 1692.6 213.933C1692.6 229.237 1686.58 245.358 1676.03 258.211C1664.89 271.806 1650.63 279.458 1635.92 279.755C1600.93 282.058 1570.24 282.206 1543.13 282.355C1499 282.578 1464.16 282.801 1435.55 292.087L1433.77 292.681C1412.67 299.516 1383.77 308.803 1366.32 308.803ZM1590.53 158.958C1578.64 158.958 1564.23 160.295 1547.29 164.01C1498.18 175.005 1445.96 202.492 1392.17 245.73C1361.71 275.817 1348.63 295.133 1353.46 303.082C1360.59 314.82 1406.14 300.111 1433.33 291.344L1435.11 290.75C1463.93 281.389 1498.85 281.241 1543.13 280.944C1570.17 280.795 1600.85 280.646 1635.84 278.343C1650.18 278.046 1664.07 270.617 1674.99 257.319C1685.32 244.764 1691.19 228.94 1691.19 213.933C1691.19 200.412 1686.36 188.823 1677.22 180.428C1666.52 170.622 1650.55 165.421 1629.68 164.975H1629.53L1629.38 164.901C1624.62 163.044 1611.55 158.958 1590.53 158.958Z" fill="white" fill-opacity="0.05"/>
<path d="M1385.78 292.087C1379.76 292.087 1375.3 290.824 1373.52 287.63C1369.29 280.126 1380.5 263.634 1407.99 237.038L1408.07 236.963C1443.21 210.664 1497.29 177.234 1555.31 167.799C1572.4 165.05 1588.89 164.53 1603.08 166.387C1614.22 167.873 1623.96 170.845 1629.9 174.633C1670.76 177.679 1674.85 201.898 1674.77 212.225C1674.62 225.448 1667.94 240.306 1656.94 252.044C1645.05 264.674 1630.2 272.029 1615.04 272.772C1569.8 277.006 1534.36 277.006 1505.91 277.006C1475.23 277.006 1453.01 277.006 1434.51 281.984C1433.03 282.355 1431.47 282.801 1429.91 283.247C1414.9 287.333 1397.44 292.087 1385.78 292.087ZM1408.81 238.003C1382.29 263.708 1370.77 280.201 1374.64 286.961C1379.54 295.653 1409.7 287.407 1429.61 281.984C1431.17 281.538 1432.73 281.166 1434.22 280.721C1452.94 275.669 1475.15 275.669 1505.98 275.669C1534.44 275.669 1569.72 275.669 1614.82 271.509C1629.45 270.766 1644.39 263.411 1655.9 251.227C1666.75 239.712 1673.29 225.151 1673.43 212.299C1673.66 191.275 1657.68 178.051 1629.6 175.971H1629.45L1629.3 175.896C1617.72 168.467 1590.38 163.49 1555.46 169.136C1523.51 174.262 1472.25 190.457 1408.81 238.003Z" fill="white" fill-opacity="0.05"/>
<path d="M1405.39 275.817C1399.97 275.817 1395.81 274.777 1394.32 271.806C1392.76 268.76 1394.17 264.079 1398.71 257.542C1403.61 250.484 1412.3 240.975 1424.63 229.46L1424.71 229.386C1484.88 187.931 1533.32 175.896 1563.41 173.073C1598.18 169.804 1622.17 177.382 1629.82 185.851C1655.08 190.086 1658.35 204.127 1657.98 212.15C1657.09 234.215 1628.26 263.114 1593.79 265.862C1535.7 272.772 1498.63 271.731 1471.59 270.914C1455.17 270.468 1443.28 270.097 1433.4 271.806C1431.77 272.103 1430.06 272.4 1428.35 272.697C1420.47 274.257 1412 275.817 1405.39 275.817ZM1425.45 230.277C1402.64 251.747 1392.47 265.491 1395.36 271.286C1398.33 277.155 1414.9 274.109 1428.2 271.731C1429.91 271.434 1431.62 271.137 1433.25 270.84C1443.28 269.057 1455.17 269.428 1471.66 269.874C1498.63 270.691 1535.62 271.731 1593.72 264.822C1609.02 263.559 1625 256.576 1637.48 245.655C1649.21 235.403 1656.5 222.848 1656.94 212.15C1657.46 198.926 1647.73 189.937 1629.53 186.966H1629.3L1629.16 186.817C1623.06 179.834 1600.55 170.77 1563.56 174.262C1533.62 177.011 1485.33 188.971 1425.45 230.277Z" fill="white" fill-opacity="0.05"/>
<path d="M1487.63 266.085C1466.38 266.085 1452.79 264.228 1443.43 262.965C1438.97 262.371 1435.4 261.851 1432.36 261.776C1431.54 261.776 1430.8 261.702 1429.98 261.702C1422.92 261.479 1415.57 261.182 1414.01 256.873C1412.75 253.381 1414.23 245.952 1441.42 221.734L1441.5 221.659C1475.89 200.338 1509.92 186.668 1542.68 180.948C1577.08 175.005 1599.51 179.759 1609.77 183.177C1620.31 186.668 1627.67 191.646 1629.9 196.995C1642.31 201.526 1644.16 208.733 1643.57 214.007C1642.6 222.625 1634.06 232.951 1620.69 241.644C1606.79 250.707 1589.26 257.022 1572.77 258.953C1535.33 264.451 1507.91 266.085 1487.63 266.085ZM1432.36 260.811C1435.48 260.959 1438.97 261.405 1443.5 261.999C1461.85 264.451 1496.1 269.131 1572.69 257.988C1609.1 253.827 1640.74 230.426 1642.6 213.933C1643.42 206.875 1638.81 201.304 1629.38 197.96L1629.16 197.886L1629.08 197.663C1627.08 192.537 1619.87 187.634 1609.47 184.217C1597.95 180.428 1535.7 164.455 1442.02 222.551C1421.96 240.381 1413.12 251.524 1414.9 256.576C1416.24 260.216 1423.15 260.439 1429.91 260.736C1430.8 260.736 1431.62 260.736 1432.36 260.811Z" fill="white" fill-opacity="0.05"/>
<path d="M1470.84 260.736C1466.09 260.736 1461.7 260.588 1457.69 260.216C1438.08 258.582 1432.8 253.307 1431.02 251.524C1429.31 249.741 1428.57 247.884 1428.64 245.804C1429.02 239.489 1437.56 230.351 1458.06 214.082L1458.14 214.007C1491.05 196.178 1524.93 185.554 1555.98 183.325C1591.12 180.799 1610.66 189.417 1617.34 193.28C1625.14 197.663 1629.53 203.012 1629.9 208.213C1632.87 211.407 1633.84 214.899 1632.57 218.465C1629.68 226.86 1615.71 233.917 1604.42 238.375C1589.71 244.17 1570.99 248.998 1551.67 251.97C1518.17 257.839 1491.05 260.736 1470.84 260.736ZM1431.69 250.93C1443.35 262.742 1483.77 262.817 1551.67 251.153C1586.96 245.804 1627 232.432 1631.83 218.316C1632.94 215.048 1632.05 211.853 1629.23 208.881L1629.08 208.733V208.584C1628.86 203.607 1624.55 198.481 1616.97 194.172C1588.67 178.125 1527.08 177.753 1458.58 214.825C1438.6 230.649 1429.91 239.935 1429.54 245.878C1429.46 247.735 1430.13 249.37 1431.69 250.93Z" fill="white" fill-opacity="0.05"/>
<path d="M1453.76 255.313C1441.35 255.313 1433.7 253.456 1430.65 249.816C1428.79 247.587 1428.57 244.764 1429.98 241.049C1432.43 234.809 1441.72 227.157 1449.08 221.808C1457.47 215.716 1467.65 209.699 1474.85 206.43C1513.86 188.823 1546.02 185.851 1566.16 186.371C1589.56 187.04 1610.29 192.983 1621.73 202.344C1628.34 207.767 1631.24 213.933 1629.83 219.654C1626.48 234.14 1601.37 236.666 1572.32 239.638C1558.65 241.049 1544.54 242.461 1530.72 245.135C1496.18 251.896 1470.62 255.313 1453.76 255.313ZM1475.08 206.801L1475.23 207.173C1461.93 213.116 1434.89 230.649 1430.73 241.347C1429.39 244.69 1429.54 247.364 1431.25 249.37C1438.15 257.691 1471.59 255.982 1530.65 244.467C1544.54 241.718 1558.65 240.306 1572.32 238.969C1601.07 236.072 1625.96 233.546 1629.23 219.579C1630.49 214.082 1627.67 208.213 1621.36 203.012C1610.06 193.726 1589.49 187.857 1566.23 187.188C1546.17 186.668 1514.15 189.64 1475.3 207.173L1475.08 206.801Z" fill="white" fill-opacity="0.05"/>
<path d="M1822.01 1046.96C1800.32 1046.96 1778.33 1046.21 1756.12 1044.8C1631.31 1036.78 1551.22 997.331 1511.26 924.154C1476.64 860.71 1477.16 781.813 1477.68 712.202C1478.05 665.696 1478.35 621.864 1467.8 589.919C1432.8 483.758 1394.17 460.133 1371.07 446.018C1357.7 437.846 1348.86 432.423 1349.67 415.782C1350.49 399.438 1410.22 378.636 1537.55 350.257C1592.68 337.999 1635.4 348.623 1669.79 357.166C1687.03 361.475 1701.89 365.115 1714.96 365.115V366.23V365.115C1750.92 365.041 1760.8 361.103 1782.27 352.486C1800.25 345.279 1827.36 334.433 1885.53 319.872C1936.65 307.02 2016.36 304.345 2093.7 312.889C2137.68 317.718 2179.5 325.89 2217.84 337.107C2260.78 349.663 2298.52 365.784 2329.94 385.099C2388.19 420.833 2423.99 466.745 2436.4 521.497C2448.66 575.433 2447.02 630.556 2431.72 685.457C2416.49 739.987 2388.48 791.396 2348.51 838.348C2290.27 906.696 2208.77 961.745 2112.86 997.628C2061.75 1016.79 2006.4 1030.54 1948.38 1038.56C1907.75 1044.13 1865.4 1046.96 1822.01 1046.96ZM1587.7 346.914C1572.4 346.914 1555.9 348.474 1538.15 352.411C1480.2 365.338 1437.11 376.482 1406.28 386.511C1361.86 400.998 1352.2 410.507 1351.98 415.856C1351.23 431.234 1358.66 435.766 1372.26 444.086C1395.59 458.35 1434.66 482.272 1469.95 589.176C1480.57 621.419 1480.28 665.473 1479.91 712.128C1479.39 781.516 1478.79 860.115 1513.19 923.04C1552.78 995.548 1632.28 1034.62 1756.27 1042.57C1822.61 1046.81 1887.17 1044.73 1948.16 1036.26C2006.03 1028.24 2061.16 1014.57 2112.19 995.473C2207.81 959.739 2289.01 904.838 2346.95 836.788C2386.77 790.133 2414.63 738.947 2429.71 684.789C2444.94 630.259 2446.5 575.507 2434.39 521.943C2422.14 467.785 2386.63 422.393 2328.98 386.957C2297.7 367.715 2260.18 351.668 2217.39 339.188C2179.13 328.044 2137.45 319.872 2093.62 315.043C2016.51 306.574 1937.09 309.248 1886.2 321.952C1828.18 336.513 1801.14 347.36 1783.23 354.492C1761.39 363.184 1751.44 367.195 1715.04 367.27C1714.96 367.27 1714.89 367.27 1714.81 367.27C1701.51 367.27 1686.58 363.555 1669.27 359.246C1646.32 353.6 1619.5 346.914 1587.7 346.914Z" fill="white" fill-opacity="0.05"/>
<path d="M1833.08 1006.39C1815.55 1006.39 1797.8 1005.87 1779.89 1004.83C1667.19 998.668 1593.87 964.494 1555.76 900.232C1522.7 844.44 1520.84 774.161 1519.28 712.128C1518.16 668.891 1517.12 628.105 1505.61 598.314C1470.25 502.999 1433.25 479.82 1411.11 465.928C1397.74 457.533 1388.9 452.035 1389.49 435.84C1389.64 426.702 1406.06 415.707 1438.3 403.152C1467.28 391.86 1507.91 379.825 1555.76 368.235C1605.75 355.977 1644.76 364.298 1676.11 371.058C1691.26 374.327 1704.34 377.15 1716.15 377.15C1753.67 377.225 1762.95 374.327 1790.52 365.561C1809.01 359.692 1834.42 351.594 1881.15 340.302C1928.99 328.713 2003.43 326.261 2075.42 333.987C2116.58 338.445 2155.58 345.874 2191.31 356.2C2231.43 367.715 2266.57 382.648 2295.69 400.478C2348.29 432.646 2380.98 473.803 2392.72 522.835C2404.46 572.164 2403.56 622.756 2390.04 673.125C2376.67 723.197 2351.49 770.446 2315.31 813.684C2263.01 876.088 2189.61 926.606 2102.98 959.814C2056.77 977.495 2006.78 990.347 1954.25 997.999C1915.25 1003.5 1874.69 1006.39 1833.08 1006.39ZM1607.09 364.075C1591.49 364.075 1574.63 365.784 1556.2 370.316C1454.94 394.757 1391.87 419.868 1391.57 435.914C1391.05 450.921 1399 455.899 1412.23 464.145C1434.59 478.186 1472.03 501.587 1507.54 597.571C1519.13 627.659 1520.25 668.668 1521.36 712.054C1522.92 773.864 1524.78 843.846 1557.54 899.192C1595.2 962.785 1668.01 996.662 1779.97 1002.75C1840.14 1006.17 1898.68 1003.79 1953.88 995.77C2006.26 988.118 2056.11 975.34 2102.17 957.733C2188.49 924.674 2261.59 874.379 2313.6 812.272C2349.55 769.332 2374.59 722.306 2387.89 672.531C2401.26 622.533 2402.15 572.312 2390.56 523.28C2378.9 474.768 2346.58 434.057 2294.43 402.186C2255.87 378.636 2186.56 348.028 2075.05 336.067C2003.36 328.341 1929.22 330.718 1881.52 342.308C1834.87 353.6 1809.53 361.698 1791.04 367.567C1763.99 376.184 1753.89 379.379 1716.08 379.305C1704.04 379.305 1690.82 376.482 1675.59 373.213C1656.05 368.904 1633.46 364.075 1607.09 364.075Z" fill="white" fill-opacity="0.05"/>
<path d="M1844.75 965.831C1831.15 965.831 1817.48 965.534 1803.59 964.865C1702.85 960.482 1636.36 931.509 1600.33 876.162C1568.91 827.947 1564.75 766.212 1561.11 711.756C1558.43 671.936 1555.9 634.345 1543.42 606.783C1507.99 522.24 1472.48 499.582 1451.3 485.986C1437.78 477.369 1428.94 471.648 1429.24 455.899C1428.94 434.429 1503.98 404.712 1573.81 386.214C1618.9 373.807 1654.34 379.973 1682.72 384.951C1695.65 387.18 1706.72 389.111 1717.12 389.185C1759.68 389.557 1767.49 387.551 1810.87 376.63C1827.21 372.544 1847.5 367.418 1876.47 360.658C1906.11 353.749 1947.05 350.331 1991.77 351.148C2042.14 351.966 2092.8 358.058 2138.42 368.607C2192.35 381.088 2237.37 399.363 2272.14 422.913C2312.71 450.327 2338.41 484.352 2348.59 524.172C2359.81 568.969 2359.58 614.955 2347.92 660.793C2336.33 706.407 2314.04 749.496 2281.73 789.019C2235.44 845.48 2170.07 891.466 2092.8 921.925C2018.44 951.047 1935.16 965.831 1844.75 965.831ZM1627.3 380.939C1611.25 380.939 1593.64 382.796 1574.25 388.145C1491.12 410.135 1430.95 438.663 1431.1 455.973C1430.8 470.683 1438.9 475.809 1452.27 484.426C1473.66 498.096 1509.47 521.052 1545.13 606.115C1557.76 634.048 1560.29 671.788 1562.96 711.756C1566.6 765.989 1570.69 827.427 1601.89 875.271C1637.62 930.023 1703.59 958.773 1803.66 963.082C1909.83 968.208 2006.85 953.722 2092.06 920.142C2169.03 889.832 2234.11 844.068 2280.17 787.83C2312.33 748.605 2334.47 705.739 2345.99 660.421C2357.58 614.881 2357.8 569.192 2346.66 524.766C2336.55 485.466 2311.15 451.813 2271.03 424.696C2236.41 401.295 2191.69 383.168 2137.97 370.687C2092.51 360.138 2041.99 354.12 1991.77 353.303C1947.19 352.56 1906.41 355.903 1876.92 362.812C1847.94 369.573 1827.66 374.624 1811.32 378.785C1767.78 389.78 1759.91 391.711 1717.12 391.414C1706.57 391.34 1695.35 389.408 1682.42 387.18C1666.38 384.059 1648.17 380.939 1627.3 380.939Z" fill="white" fill-opacity="0.05"/>
<path d="M1855.67 925.417C1846.31 925.417 1836.87 925.268 1827.36 924.897C1738.51 922.297 1678.86 898.375 1644.91 851.795C1615.19 811.009 1609.1 760.12 1603.23 710.865C1598.92 674.685 1594.83 640.511 1581.16 615.178C1545.73 541.482 1513.19 520.234 1491.64 506.193C1477.45 496.907 1468.84 491.335 1468.91 475.957C1468.09 456.344 1522.1 424.771 1591.86 404.192C1632.57 391.488 1664.59 395.5 1690.37 398.695C1700.25 399.957 1709.54 401.072 1718.16 401.22L1722.54 401.295C1772.69 402.038 1776.77 402.112 1871.86 381.088C1898.61 375.144 1936.87 372.098 1976.91 372.618C2022.97 373.287 2069.33 378.413 2110.86 387.625C2160.26 398.546 2201.49 414.593 2233.51 435.394C2270.81 459.613 2294.73 489.924 2304.53 525.36C2315.31 565.552 2315.75 606.932 2305.95 648.386C2296.21 689.543 2276.82 728.546 2248.3 764.28C2207.96 814.872 2150.68 856.252 2082.7 883.963C2015.1 911.524 1938.87 925.417 1855.67 925.417ZM1649.07 397.283C1632.28 397.283 1613.48 399.363 1592.38 405.901C1524.55 425.959 1469.95 457.31 1470.69 475.883C1470.62 490.295 1478.94 495.718 1492.61 504.633C1512.97 517.931 1547.14 540.219 1582.8 614.287C1596.62 639.917 1600.7 674.239 1605.01 710.568C1610.88 759.6 1616.9 810.266 1646.32 850.606C1679.9 896.741 1739.18 920.365 1827.36 922.965C1921.42 926.457 2007.07 912.713 2082.03 882.18C2149.71 854.618 2206.69 813.386 2246.88 763.091C2275.19 727.58 2294.51 688.8 2304.16 647.94C2313.89 606.858 2313.45 565.775 2302.75 525.881C2293.09 490.815 2269.39 460.95 2232.47 436.954C2200.68 416.301 2159.59 400.329 2110.41 389.482C2068.96 380.345 2022.75 375.144 1976.84 374.476C1936.94 373.956 1898.76 377.002 1872.16 382.871C1776.85 403.895 1772.69 403.821 1722.39 403.078L1718.01 403.003C1709.32 402.929 1699.96 401.74 1690 400.477C1677.97 398.992 1664.3 397.283 1649.07 397.283Z" fill="white" fill-opacity="0.05"/>
<path d="M1866.51 885.077C1861.39 885.077 1856.26 885.003 1851.06 884.928C1678.34 882.997 1660.95 790.802 1645.65 709.379C1639.56 677.063 1633.84 646.529 1618.98 623.573C1583.84 560.797 1552.86 540.293 1532.35 526.698C1517.72 516.966 1508.8 511.097 1508.58 496.016C1507.91 486.506 1517.94 473.134 1536.22 459.465C1555.53 444.904 1581.68 431.68 1609.91 422.245C1647.21 408.65 1675.44 410.581 1700.25 412.29C1706.86 412.736 1713.1 413.181 1719.12 413.256C1728.26 413.479 1736.21 413.776 1743.19 414.147C1775.58 415.559 1795.05 416.45 1867.18 401.592C1913.17 392.083 2000.46 389.631 2083.3 406.867C2128.17 416.153 2165.68 430.045 2194.88 448.098C2228.98 469.197 2251.12 495.644 2260.48 526.846C2270.73 562.506 2271.92 599.28 2263.97 636.203C2256.02 672.977 2239.53 707.819 2214.86 739.838C2180.47 784.487 2131.29 821.261 2072.6 846.223C2011.83 872.002 1942.51 885.077 1866.51 885.077ZM1673.14 412.661C1655.01 412.661 1634.65 414.89 1610.43 423.731C1549.89 444.161 1509.03 478.112 1510.29 495.867C1510.51 510.131 1519.06 515.777 1533.32 525.212C1553.97 538.882 1585.1 559.609 1620.39 622.682C1635.4 645.935 1641.19 676.543 1647.28 709.082C1655.08 750.313 1663.11 792.882 1690.67 826.016C1722.02 863.681 1774.54 882.403 1851.06 883.22C1932.93 885.077 2007.3 872.076 2072 844.588C2130.4 819.701 2179.35 783.15 2213.6 738.724C2238.12 706.928 2254.54 672.308 2262.41 635.757C2270.29 599.131 2269.17 562.58 2258.99 527.218C2246.88 487.175 2206.54 434.057 2083.07 408.427C2000.46 391.266 1913.47 393.643 1867.63 403.152C1795.27 418.085 1775.66 417.193 1743.19 415.782C1736.21 415.484 1728.26 415.113 1719.2 414.89C1713.1 414.816 1706.86 414.37 1700.25 413.924C1691.63 413.33 1682.72 412.661 1673.14 412.661Z" fill="white" fill-opacity="0.05"/>
<path d="M1869.26 844.96C1806.71 844.96 1762.36 830.845 1733.91 801.946C1707.98 775.647 1698.1 740.804 1688.51 707.076C1680.49 678.994 1672.99 652.472 1656.79 631.968C1622.4 580.187 1593.12 560.5 1573.73 547.574C1558.28 537.247 1548.92 530.933 1548.4 516C1546.4 495.867 1580.05 459.168 1628.04 440.149C1665.04 423.805 1691.63 424.474 1717.34 425.142L1720.24 425.217C1732.64 425.588 1742.97 426.628 1753 427.594C1779.89 430.194 1805.3 432.646 1862.65 421.873C1904.48 413.924 1982.71 411.77 2055.88 425.811C2117.54 437.623 2195.4 464.888 2216.65 528.035C2236.26 590.217 2223.56 658.49 2181.73 715.322C2153.2 754.028 2112.05 786.196 2062.72 808.409C2008.71 832.702 1946.38 844.96 1877.36 844.96C1876.54 844.96 1875.73 844.96 1874.91 844.96C1872.9 844.96 1871.05 844.96 1869.26 844.96ZM1701.74 426.405C1680.71 426.405 1657.98 428.56 1628.56 441.561C1577.3 461.916 1548.18 498.542 1549.89 515.926C1550.41 530.115 1559.47 536.207 1574.55 546.311C1594.02 559.386 1623.51 579.073 1657.98 631.077C1674.25 651.729 1681.9 678.4 1689.93 706.63C1699.43 740.136 1709.32 774.829 1734.95 800.831C1763.92 830.25 1809.68 844.143 1874.76 843.326C1875.58 843.326 1876.4 843.326 1877.21 843.326C1946.01 843.326 2008.11 831.068 2061.9 806.923C2111.01 784.859 2152.01 752.839 2180.32 714.357C2201.05 686.2 2214.57 655.667 2220.59 623.573C2226.6 591.331 2224.75 559.386 2215.01 528.481C2194.06 466.077 2116.65 439.035 2055.44 427.297C1982.48 413.33 1904.48 415.484 1862.8 423.359C1805.23 434.206 1779.67 431.68 1752.7 429.08C1742.67 428.114 1732.35 427.074 1720.01 426.702L1717.12 426.628C1712.14 426.554 1707.01 426.405 1701.74 426.405Z" fill="white" fill-opacity="0.05"/>
<path d="M1881.89 805.288C1836.13 805.288 1802.1 795.705 1778.18 776.241C1754.41 756.851 1742.75 729.735 1731.53 703.584C1721.94 681.223 1711.99 658.118 1694.53 640.363C1661.62 599.651 1634.21 581.301 1616.01 569.192C1599.14 557.9 1588.89 551.065 1588 536.058C1585.62 517.04 1606.94 477.22 1645.94 458.127C1673.43 442.675 1695.87 436.434 1721.13 437.251C1734.5 437.846 1746.09 439.629 1758.35 441.635C1784.27 445.721 1811.09 450.029 1857.9 442.303C1895.71 435.989 1965.1 434.131 2028.17 444.903C2082.85 454.264 2152.16 476.477 2172.44 529.298C2191.31 582.564 2182.47 641.477 2148.3 690.955C2125.72 723.717 2092.51 751.279 2052.39 770.669C2008.04 792.139 1956.18 803.654 1898.39 804.917C1892.81 805.214 1887.24 805.288 1881.89 805.288ZM1716.67 438.589C1693.49 438.589 1672.32 444.903 1646.69 459.39C1608.21 478.186 1587.11 517.263 1589.48 535.91C1590.38 550.248 1599.74 556.563 1616.9 568.003C1635.1 580.187 1662.66 598.611 1695.65 639.397C1713.25 657.227 1723.21 680.48 1732.87 702.99C1744.01 728.992 1755.52 755.959 1779.07 775.126C1805.52 796.671 1844.6 805.957 1898.53 803.505C1956.18 802.243 2007.74 790.802 2051.94 769.406C2091.84 750.09 2124.82 722.751 2147.26 690.212C2181.21 641.106 2189.9 582.639 2171.26 529.818C2151.27 477.591 2082.4 455.601 2028.1 446.315C1965.17 435.543 1896.01 437.4 1858.27 443.715C1811.17 451.441 1784.27 447.206 1758.2 443.046C1745.94 441.115 1734.43 439.257 1721.13 438.737C1719.64 438.589 1718.16 438.589 1716.67 438.589Z" fill="white" fill-opacity="0.05"/>
<path d="M1893.85 766.36C1820.08 766.36 1797.87 733.152 1774.47 698.31C1762.95 681.074 1750.99 663.319 1732.42 648.758C1702.41 619.413 1678.34 603.663 1660.73 592.222C1640.45 578.999 1629.23 571.718 1627.89 556.117C1626.26 545.716 1628.78 530.264 1634.36 515.851C1641.12 498.393 1651.67 484.278 1664.22 476.18C1684.21 460.356 1701.14 448.395 1722.39 449.361C1735.76 450.104 1748.76 453.001 1762.51 456.047C1787.32 461.619 1815.4 467.859 1853.59 462.733C1880.04 459.093 1940.88 455.304 2000.98 463.996C2032.26 468.528 2058.63 475.809 2079.36 485.615C2103.87 497.204 2120.44 512.36 2128.76 530.635C2146.96 575.061 2142.13 624.762 2115.61 667.033C2098.82 693.778 2073.64 716.66 2042.73 733.226C2008.56 751.576 1968.14 762.2 1922.53 764.949C1911.98 765.914 1902.55 766.36 1893.85 766.36ZM1719.79 450.475C1700.1 450.475 1683.83 462.065 1664.74 477.146C1636.14 495.793 1626.26 538.361 1629.01 555.894C1630.34 570.827 1641.34 578.033 1661.32 591.034C1679 602.549 1703.15 618.298 1733.16 647.718C1751.88 662.353 1763.85 680.257 1775.43 697.567C1788.66 717.254 1801.14 735.901 1822.46 748.679C1846.53 763.091 1878.18 767.846 1922.08 763.611C1967.55 760.863 2007.82 750.239 2041.84 732.038C2072.52 715.545 2097.56 692.812 2114.28 666.29C2140.57 624.39 2145.33 575.135 2127.35 531.081C2119.25 513.103 2102.83 498.096 2078.62 486.655C2057.96 476.923 2031.74 469.642 2000.61 465.185C1940.66 456.493 1880.04 460.282 1853.59 463.922C1815.18 469.048 1786.95 462.733 1761.99 457.162C1748.32 454.116 1735.39 451.218 1722.09 450.475C1721.35 450.475 1720.61 450.475 1719.79 450.475Z" fill="white" fill-opacity="0.05"/>
<path d="M1904.55 728.992C1859.98 728.992 1839.4 711.311 1814.73 690.138C1801.88 679.068 1788.51 667.628 1770.16 657.078C1746.31 639.694 1726.85 627.882 1711.17 618.447C1684.35 602.177 1669.57 593.262 1667.49 576.101C1664 557.009 1664.74 511.914 1682.05 494.158C1683.09 492.747 1684.06 491.41 1685.1 489.998C1695.72 475.363 1706.64 460.282 1723.28 461.322C1736.21 462.213 1750.55 466.374 1765.78 470.757C1790.44 477.814 1818.37 485.912 1848.83 483.089C1881.89 479.969 2048.45 467.637 2084.48 531.898C2102.31 567.558 2101.72 608.195 2082.85 643.409C2071.56 664.433 2054.69 682.114 2032.63 695.932C2008.56 711.014 1979.44 720.746 1946.01 724.906C1930.11 727.729 1916.51 728.992 1904.55 728.992ZM1721.65 462.362C1706.49 462.362 1696.09 476.7 1685.99 490.667C1684.95 492.078 1683.91 493.49 1682.94 494.901L1682.87 494.976C1665.86 512.36 1665.19 557.009 1668.6 575.953C1670.61 592.52 1685.25 601.434 1711.77 617.481C1727.44 626.991 1746.91 638.803 1770.75 656.187C1789.18 666.736 1802.55 678.251 1815.48 689.321C1846.53 715.991 1871.05 737.09 1945.78 723.866C1979.07 719.78 2008.04 710.048 2031.96 695.041C2053.88 681.297 2070.67 663.765 2081.81 642.889C2100.53 607.972 2101.13 567.706 2083.44 532.418C2069.11 506.862 2031.96 490.592 1973.05 484.129C1921.27 478.483 1868.89 482.272 1848.83 484.203C1818.08 487.027 1790.07 478.929 1765.33 471.797C1750.18 467.414 1735.84 463.328 1723.06 462.362C1722.69 462.362 1722.17 462.362 1721.65 462.362Z" fill="white" fill-opacity="0.05"/>
<path d="M1911.24 696.155C1884.94 696.155 1863.77 687.686 1834.57 675.948C1826.25 672.605 1817.71 669.188 1807.97 665.473C1801.07 662.056 1794.53 658.936 1788.44 655.964C1735.09 630.111 1710.8 618.299 1707.24 596.16C1703.82 579.742 1693.42 529.892 1700.03 512.285C1703.6 493.49 1709.54 472.094 1724.25 473.283C1736.51 474.397 1752.63 480.043 1769.64 486.061C1793.71 494.53 1820.9 504.113 1844.23 503.445C1848.69 503.296 1853.96 503.073 1860.13 502.776C1885.31 501.588 1923.35 499.805 1958.49 502.999C2000.46 506.788 2028.1 516.966 2040.5 533.087C2058.41 559.609 2062.57 592.371 2051.65 620.602C2039.54 651.952 2010.49 674.76 1969.78 684.863C1946.08 692.812 1927.66 696.155 1911.24 696.155ZM1723.06 474.249C1709.91 474.249 1704.34 494.604 1701 512.508V512.583C1694.46 529.818 1704.78 579.593 1708.2 595.937C1711.62 617.556 1735.84 629.294 1788.81 654.998C1794.9 657.97 1801.44 661.164 1808.35 664.507C1818 668.148 1826.55 671.639 1834.87 674.982C1882.12 694.001 1908.12 704.402 1969.48 683.972C2009.9 673.942 2038.72 651.358 2050.68 620.379C2061.45 592.445 2057.37 560.054 2039.69 533.756C2027.43 517.857 2000.09 507.828 1958.41 504.039C1923.35 500.845 1885.39 502.628 1860.2 503.816C1854.03 504.113 1848.76 504.336 1844.3 504.485C1820.75 505.154 1793.49 495.496 1769.34 487.027C1752.33 481.083 1736.36 475.437 1724.17 474.323C1723.8 474.249 1723.43 474.249 1723.06 474.249Z" fill="white" fill-opacity="0.05"/>
<path d="M1895.93 679.291C1880.63 679.291 1863.99 677.434 1845.79 673.794C1781.38 657.152 1751.88 639.917 1746.98 616.218C1744.46 605.297 1736.95 584.422 1730.34 565.998C1725.14 551.437 1720.16 537.618 1718.23 530.486C1715.93 524.395 1714.52 515.925 1714.44 507.828C1714.37 498.987 1715.93 492.004 1718.75 488.364C1720.53 486.061 1722.76 485.095 1725.36 485.392C1737.03 486.803 1755.75 494.604 1775.58 502.776C1799.13 512.582 1823.43 522.686 1839.77 523.949C1848.69 524.617 1862.73 523.8 1879 522.909C1919.41 520.68 1974.68 517.634 1996.52 534.498C2016.14 551.882 2026.91 576.695 2024.75 599.206C2022.97 618.15 2012.2 633.974 1993.7 644.969C1972.6 661.016 1952.77 670.748 1931.3 675.577C1920.23 678.028 1908.56 679.291 1895.93 679.291ZM1724.4 486.135C1722.47 486.135 1720.76 487.026 1719.35 488.809C1713.55 496.313 1714.29 517.783 1718.97 530.115C1720.91 537.247 1725.81 551.065 1731.08 565.626C1737.69 584.05 1745.2 605 1747.8 615.921C1752.63 639.323 1781.97 656.335 1845.94 672.902C1879 679.514 1906.86 680.108 1931 674.685C1952.4 669.856 1972.08 660.198 1993.11 644.152C2011.38 633.305 2022.01 617.704 2023.79 599.057C2025.94 576.77 2015.17 552.254 1995.86 535.093C1974.31 518.451 1919.19 521.497 1878.92 523.726C1862.65 524.618 1848.54 525.36 1839.62 524.766C1823.13 523.503 1798.76 513.4 1775.14 503.593C1755.38 495.347 1736.73 487.621 1725.21 486.209C1724.92 486.135 1724.69 486.135 1724.4 486.135Z" fill="white" fill-opacity="0.05"/>
<path d="M1889.32 682.189C1887.39 682.189 1885.46 682.189 1883.53 682.114C1852.25 681 1827.96 675.577 1811.24 665.845C1798.09 658.267 1789.85 648.238 1786.73 636.203C1781.53 616.441 1751.51 563.918 1736.51 548.465C1730.93 542.67 1726.03 533.161 1723.21 522.315C1720.68 512.508 1720.31 503.593 1722.39 499.582C1723.28 497.799 1724.69 497.056 1726.4 497.279C1738.21 499.136 1763.92 511.617 1788.66 523.578C1807.9 532.864 1826.03 541.705 1835.16 544.231C1845.49 547.054 1867.03 543.785 1889.92 540.367C1913.47 536.801 1937.76 533.087 1952.39 535.687C1967.7 538.436 1985.08 547.499 1997.86 559.386C2012.79 573.278 2019.78 589.399 2017.62 604.629C2015.1 622.459 1999.42 642.22 1975.72 657.376C1950.61 673.497 1920.15 682.189 1889.32 682.189ZM1725.66 498.022C1724.54 498.022 1723.65 498.69 1722.98 499.953C1718.97 507.605 1724.62 535.316 1736.95 547.945C1752.03 563.472 1782.19 616.144 1787.39 635.98C1790.52 647.866 1798.61 657.673 1811.61 665.176C1828.25 674.76 1852.47 680.183 1883.6 681.297C1916.22 682.486 1948.75 673.72 1975.28 656.707C1998.46 641.849 2014.35 621.864 2016.81 604.48C2018.96 589.474 2011.98 573.65 1997.27 559.906C1984.64 548.094 1967.33 539.104 1952.17 536.356C1937.69 533.756 1913.39 537.47 1889.99 541.036C1867.11 544.528 1845.42 547.796 1834.94 544.899C1825.8 542.373 1807.6 533.533 1788.29 524.246C1763.55 512.285 1737.92 499.879 1726.18 498.022C1726.03 498.022 1725.81 498.022 1725.66 498.022Z" fill="white" fill-opacity="0.05"/>
<path d="M1176.95 357.612C1173.38 357.612 1169.82 357.315 1166.18 356.646C1147.08 353.229 1130.52 341.416 1115.51 329.084C1104.81 320.318 1080.07 321.803 1056.15 323.215C1032.38 324.627 1009.94 325.964 1004.3 316.38C1001.55 311.7 1002.96 304.939 1008.68 295.876C1052.73 226.191 1138.02 177.531 1201.91 149.003C1273.9 116.835 1347.82 97.2222 1383.7 94.3991C1429.39 90.8332 1477.6 93.6562 1482.36 107.846C1484.14 113.046 1479.83 118.989 1469.73 125.453C1431.62 149.82 1278.87 286.07 1232.89 330.496C1214.24 348.697 1195.82 357.612 1176.95 357.612ZM1082.67 319.946C1097.16 319.946 1109.79 321.506 1116.92 327.375C1131.7 339.485 1147.97 351.223 1166.55 354.491C1188.39 358.355 1209.56 350.034 1231.4 329.01C1277.46 284.584 1430.35 148.111 1468.54 123.67C1477.53 117.875 1481.61 112.675 1480.2 108.663C1476.49 97.6679 1436 92.6161 1383.85 96.7021C1348.19 99.4509 1274.49 119.064 1202.8 151.083C1139.28 179.462 1054.29 227.826 1010.61 297.065C1005.41 305.311 1003.92 311.403 1006.23 315.266C1011.2 323.661 1032.97 322.398 1056.08 320.986C1065.07 320.466 1074.2 319.946 1082.67 319.946Z" fill="white" fill-opacity="0.05"/>
<path d="M1181.85 346.84C1178.51 346.84 1175.16 346.542 1171.82 345.948C1154.21 342.828 1138.84 331.759 1124.79 320.318C1114.84 312.22 1091.81 313.632 1069.52 315.043C1047.38 316.38 1026.51 317.718 1021.23 308.803C1018.63 304.419 1019.97 298.179 1025.32 289.784C1066.18 224.928 1145.52 179.685 1204.88 153.089C1271.82 123.15 1340.61 104.874 1373.97 102.348C1416.39 99.0795 1461.11 101.754 1465.57 114.978C1467.2 119.807 1463.26 125.378 1453.83 131.396C1418.47 154.055 1276.57 280.572 1233.78 321.804C1216.32 338.593 1199.23 346.84 1181.85 346.84ZM1094.63 311.923C1107.93 311.923 1119.52 313.409 1126.13 318.758C1154.44 341.788 1188.24 362.812 1232.37 320.318C1275.16 279.012 1417.2 152.346 1452.71 129.613C1461.11 124.264 1464.82 119.435 1463.56 115.646C1460.14 105.469 1422.55 100.714 1374.12 104.428C1340.98 106.954 1272.49 125.156 1205.77 155.021C1146.64 181.468 1067.59 226.488 1027.03 290.899C1022.2 298.476 1020.86 304.197 1023.02 307.763C1027.62 315.563 1047.9 314.3 1069.37 312.963C1077.92 312.443 1086.54 311.923 1094.63 311.923Z" fill="white" fill-opacity="0.05"/>
<path d="M1186.68 336.141C1183.63 336.141 1180.51 335.844 1177.39 335.324C1160.45 332.278 1146.12 321.506 1134.01 311.7C1124.79 304.196 1103.4 305.608 1082.82 306.945C1061.5 308.357 1043.07 309.545 1038.17 301.299C1035.79 297.287 1036.98 291.567 1041.89 283.766C1079.55 223.739 1152.95 181.839 1207.85 157.249C1269.74 129.539 1333.33 112.675 1364.16 110.297C1403.24 107.326 1444.54 109.777 1448.63 122.035C1450.11 126.567 1446.47 131.693 1437.78 137.265C1405.09 158.215 1274.05 275 1234.6 313.037C1218.4 328.49 1202.73 336.141 1186.68 336.141ZM1106.52 303.899C1118.63 303.899 1129.18 305.236 1135.2 310.14C1147.16 319.797 1161.27 330.421 1177.69 333.318C1196.34 336.662 1214.46 329.604 1233.04 311.625C1272.56 273.514 1403.76 156.58 1436.52 135.63C1444.25 130.653 1447.74 126.195 1446.55 122.704C1443.43 113.269 1408.73 108.886 1364.09 112.303C1333.4 114.606 1270.11 131.47 1208.45 159.032C1153.77 183.474 1080.81 225.151 1043.37 284.806C1038.99 291.79 1037.73 297.064 1039.66 300.333C1043.89 307.465 1062.69 306.277 1082.52 305.014C1090.7 304.419 1098.94 303.899 1106.52 303.899Z" fill="white" fill-opacity="0.05"/>
<path d="M1191.51 325.37C1188.69 325.37 1185.79 325.072 1182.97 324.552C1167.66 321.729 1154.36 311.923 1143.22 302.934C1134.75 296.099 1115.06 297.436 1096.04 298.699C1076.43 300.036 1059.49 301.151 1054.96 293.647C1052.73 290.007 1053.85 284.732 1058.31 277.601C1092.85 222.402 1160.16 183.92 1210.6 161.335C1267.51 135.854 1325.9 120.401 1354.21 118.247C1390.01 115.572 1427.83 117.875 1431.54 129.093C1432.95 133.253 1429.54 137.934 1421.59 143.06C1391.57 162.301 1271.37 269.354 1235.19 304.197C1220.56 318.461 1206.14 325.37 1191.51 325.37ZM1118.41 295.876C1129.33 295.876 1138.84 297.139 1144.33 301.522C1155.33 310.363 1168.33 320.095 1183.26 322.769C1200.27 325.89 1216.84 319.352 1233.93 302.934C1270.18 268.017 1390.53 160.815 1420.62 141.574C1427.75 137.042 1430.95 132.882 1429.83 129.687C1426.94 120.995 1395.21 116.984 1354.35 120.03C1326.2 122.11 1268.1 137.562 1211.42 162.97C1161.2 185.48 1094.19 223.814 1059.94 278.641C1055.93 285.03 1054.81 289.859 1056.6 292.83C1060.53 299.368 1077.77 298.179 1095.97 296.99C1103.55 296.396 1111.27 295.876 1118.41 295.876Z" fill="white" fill-opacity="0.05"/>
<path d="M1196.34 314.672C1193.74 314.672 1191.14 314.449 1188.54 313.929C1174.79 311.403 1162.68 302.488 1152.43 294.242C1144.63 288.075 1126.73 289.338 1109.34 290.601C1091.44 291.864 1075.99 292.979 1071.9 286.144C1069.89 282.801 1070.86 278.046 1074.95 271.583C1106.3 221.214 1167.66 186.074 1213.57 165.495C1265.43 142.242 1318.62 128.127 1344.4 126.27C1376.94 123.893 1411.26 126.047 1414.68 136.299C1415.94 140.088 1412.89 144.397 1405.54 149.077C1378.2 166.536 1268.84 263.857 1235.93 295.579C1222.64 308.357 1209.63 314.672 1196.34 314.672ZM1130.29 287.853C1140.1 287.853 1148.57 288.967 1153.47 292.904C1176.35 311.18 1201.46 326.335 1234.75 294.316C1267.73 262.594 1377.23 165.124 1404.65 147.591C1411.11 143.431 1414.08 139.717 1413.04 136.745C1410.44 128.87 1381.62 125.156 1344.55 127.904C1318.92 129.762 1265.95 143.803 1214.32 166.981C1168.55 187.486 1107.48 222.477 1076.36 272.474C1072.72 278.269 1071.75 282.578 1073.31 285.327C1076.88 291.27 1092.55 290.156 1109.19 288.967C1116.4 288.373 1123.61 287.853 1130.29 287.853Z" fill="white" fill-opacity="0.05"/>
<path d="M1201.17 303.899C1198.79 303.899 1196.49 303.676 1194.11 303.231C1181.92 300.928 1171.38 293.276 1161.64 285.549C1154.59 279.978 1137.65 281.315 1122.64 282.429C1106.44 283.692 1092.48 284.732 1088.76 278.64C1086.98 275.669 1087.8 271.36 1091.44 265.491C1119.67 219.951 1175.02 188.228 1216.47 169.581C1263.35 148.557 1311.34 135.853 1334.52 134.145C1363.71 131.99 1394.54 133.996 1397.67 143.282C1398.78 146.7 1396.03 150.637 1389.42 154.872C1364.83 170.696 1266.32 258.285 1236.68 286.812C1224.72 298.253 1213.05 303.899 1201.17 303.899ZM1142.1 279.829C1150.72 279.829 1158.15 280.869 1162.61 284.287C1172.19 291.864 1182.59 299.442 1194.41 301.671C1208.22 304.271 1221.67 298.996 1235.56 285.624C1265.28 257.096 1363.94 169.359 1388.6 153.535C1394.47 149.746 1397.07 146.403 1396.18 143.728C1393.8 136.596 1367.95 133.253 1334.59 135.631C1311.49 137.265 1263.72 149.969 1217.06 170.919C1175.83 189.566 1120.78 221.065 1092.78 266.308C1089.51 271.509 1088.62 275.372 1090.1 277.823C1093.3 283.172 1107.48 282.058 1122.49 280.869C1129.18 280.349 1135.94 279.829 1142.1 279.829Z" fill="white" fill-opacity="0.05"/>
<path d="M1206.07 293.202C1203.99 293.202 1201.83 292.979 1199.68 292.607C1189.06 290.601 1179.99 284.064 1170.86 276.932C1164.54 272.029 1149.39 273.217 1135.94 274.332C1121.53 275.52 1109.05 276.56 1105.7 271.137C1104.07 268.463 1104.81 264.674 1108.01 259.474C1133.04 218.762 1182.37 190.383 1219.37 173.742C1261.19 154.946 1303.98 143.654 1324.71 142.168C1350.64 140.311 1377.98 142.168 1380.73 150.415C1381.77 153.535 1379.24 157.026 1373.37 160.815C1351.46 174.856 1263.79 252.713 1237.35 278.046C1226.8 288.15 1216.54 293.202 1206.07 293.202ZM1153.92 271.806C1161.42 271.806 1167.81 272.697 1171.67 275.669C1187.05 287.63 1208.07 304.122 1236.38 276.932C1262.83 251.599 1350.64 173.593 1372.63 159.552C1377.83 156.209 1380.21 153.163 1379.46 150.786C1377.38 144.471 1354.43 141.351 1324.86 143.506C1304.28 144.991 1261.71 156.209 1220.04 174.931C1183.19 191.572 1134.08 219.728 1109.27 260.142C1106.44 264.748 1105.63 268.166 1106.97 270.32C1109.86 275 1122.49 273.96 1135.86 272.846C1142.03 272.326 1148.27 271.806 1153.92 271.806Z" fill="white" fill-opacity="0.05"/>
<path d="M1210.82 282.355C1198.57 282.355 1188.39 274.554 1180.07 268.091C1174.5 263.782 1161.05 264.971 1149.24 266.085C1136.53 267.2 1125.54 268.24 1122.57 263.485C1121.15 261.182 1121.82 257.839 1124.57 253.307C1146.41 217.425 1189.8 192.463 1222.26 177.828C1259.04 161.261 1296.7 151.38 1314.83 150.117C1337.49 148.557 1361.34 150.266 1363.79 157.546C1364.68 160.295 1362.53 163.415 1357.25 166.758C1338.08 179.016 1261.19 247.141 1238.09 269.28C1228.06 278.938 1219 282.355 1210.82 282.355ZM1165.73 263.857C1172.04 263.857 1177.54 264.674 1180.81 267.2C1195.07 278.12 1212.83 291.79 1237.2 268.463C1260.38 246.175 1337.34 177.976 1356.66 165.644C1361.26 162.672 1363.34 160.072 1362.67 157.918C1360.82 152.346 1340.83 149.597 1315.05 151.38C1297 152.643 1259.56 162.524 1222.93 179.016C1190.47 193.577 1147.38 218.391 1125.69 254.05C1123.23 258.062 1122.57 261.033 1123.68 262.891C1126.21 266.977 1137.35 265.937 1149.16 264.897C1154.81 264.302 1160.6 263.857 1165.73 263.857Z" fill="white" fill-opacity="0.05"/>
<path d="M1215.73 271.657C1205.55 271.657 1196.93 265.194 1189.43 259.548L1189.28 259.399C1184.38 255.759 1172.79 256.873 1162.53 257.913C1151.54 259.028 1142.03 259.993 1139.5 255.907C1138.24 253.976 1138.84 251.079 1141.14 247.215C1159.86 216.162 1197.15 194.543 1225.24 181.914C1257.03 167.576 1289.5 159.032 1305.1 158.066C1324.41 156.803 1344.84 158.364 1346.92 164.604C1347.74 166.981 1345.81 169.656 1341.28 172.553C1324.71 183.177 1258.67 241.569 1238.83 260.588C1230.29 268.685 1222.64 271.657 1215.73 271.657ZM1177.47 255.759C1182.67 255.759 1187.2 256.427 1189.95 258.508L1190.1 258.656C1202.95 268.314 1217.51 279.235 1238.01 259.696C1257.92 240.678 1324.04 182.211 1340.61 171.662C1344.62 169.136 1346.4 166.833 1345.81 164.975C1344.25 160.221 1327.16 157.769 1305.17 159.181C1289.65 160.221 1257.4 168.69 1225.76 182.954C1197.9 195.509 1160.75 216.979 1142.18 247.81C1140.1 251.227 1139.58 253.753 1140.54 255.313C1142.77 258.805 1152.8 257.765 1162.53 256.799C1167.59 256.353 1172.86 255.759 1177.47 255.759Z" fill="white" fill-opacity="0.05"/>
<path d="M1220.63 260.885C1212.38 260.885 1205.47 255.833 1199.38 251.376L1198.49 250.707C1194.33 247.661 1184.52 248.776 1175.83 249.816C1166.55 250.856 1158.6 251.747 1156.37 248.404C1155.33 246.77 1155.77 244.467 1157.63 241.198C1186.38 192.76 1271.97 167.427 1295.22 166.016C1304.13 165.496 1312.45 165.644 1318.62 166.61C1325.31 167.576 1329.17 169.359 1329.91 171.736C1330.58 173.816 1328.95 176.045 1325.16 178.496C1311.34 187.337 1256.14 235.998 1239.57 251.822C1232.52 258.508 1226.28 260.885 1220.63 260.885ZM1189.21 247.736C1193.37 247.736 1196.86 248.256 1199.09 249.89L1199.98 250.559C1210.45 258.211 1222.26 266.903 1238.91 251.079C1255.55 235.255 1310.82 186.52 1324.64 177.679C1327.98 175.525 1329.47 173.593 1329.02 172.107C1327.68 168.096 1313.57 166.016 1295.29 167.13C1272.11 168.467 1187.05 193.578 1158.52 241.718C1156.81 244.541 1156.37 246.621 1157.19 247.884C1159.04 250.707 1167.51 249.741 1175.68 248.85C1180.36 248.256 1185.04 247.736 1189.21 247.736Z" fill="white" fill-opacity="0.05"/>
<path d="M1225.46 250.187C1219.29 250.187 1214.09 246.472 1209.26 243.055C1208.74 242.684 1208.3 242.312 1207.78 242.015C1204.36 239.638 1196.34 240.678 1189.21 241.643C1181.55 242.684 1175.09 243.575 1173.31 240.826C1172.49 239.563 1172.79 237.706 1174.27 235.106C1197.15 195.36 1266.47 175.005 1285.41 173.964C1297.22 173.296 1311.56 174.187 1313.05 178.793C1313.57 180.502 1312.31 182.359 1309.11 184.365C1297.97 191.497 1253.62 230.426 1240.32 243.055C1234.75 248.33 1229.84 250.187 1225.46 250.187ZM1200.79 239.712C1203.84 239.712 1206.52 240.158 1208.22 241.346C1208.74 241.718 1209.19 242.015 1209.71 242.386C1218.18 248.33 1226.87 254.496 1239.65 242.386C1253.02 229.757 1297.45 190.754 1308.59 183.622C1310.52 182.434 1312.68 180.651 1312.16 179.091C1311.12 175.896 1299.9 174.113 1285.41 174.856C1266.62 175.896 1197.75 196.103 1174.94 235.552C1173.68 237.78 1173.31 239.415 1173.98 240.381C1175.46 242.609 1182.37 241.718 1188.98 240.826C1193.07 240.232 1197.23 239.712 1200.79 239.712Z" fill="white" fill-opacity="0.05"/>
<path d="M1230.29 239.489C1226.05 239.489 1222.49 237.038 1218.92 234.66C1218.25 234.215 1217.58 233.769 1216.92 233.323C1214.24 231.54 1207.93 232.58 1202.43 233.546C1196.63 234.512 1191.58 235.329 1190.17 233.323C1189.5 232.357 1189.73 231.02 1190.77 229.089C1199.98 212.522 1219.29 201.007 1233.93 194.32C1250.5 186.743 1267.73 182.285 1275.53 181.988C1284.3 181.617 1294.92 182.434 1296.04 185.926C1296.48 187.263 1295.44 188.749 1292.99 190.309C1284.59 195.658 1251.02 224.854 1240.99 234.363C1236.97 238.152 1233.41 239.489 1230.29 239.489ZM1212.31 231.614C1214.39 231.614 1216.17 231.912 1217.36 232.654C1218.03 233.1 1218.7 233.546 1219.37 233.992C1225.61 238.226 1231.48 242.164 1240.47 233.695C1250.57 224.185 1284.15 194.989 1292.62 189.566C1294.1 188.6 1295.74 187.263 1295.37 186.074C1294.55 183.548 1286.45 182.211 1275.61 182.657C1261.71 183.251 1208.3 199.001 1191.43 229.386C1190.54 231.02 1190.32 232.209 1190.77 232.877C1191.88 234.512 1197.23 233.62 1202.28 232.803C1205.77 232.209 1209.34 231.614 1212.31 231.614Z" fill="white" fill-opacity="0.05"/>
<path d="M724.887 561.02C723.327 561.02 722.064 560.723 721.173 560.054C719.464 558.866 718.944 556.86 719.538 553.888C721.915 542.67 744.871 504.188 774.142 462.436C822.728 393.197 852.667 364.521 863.291 355.383C909.723 315.415 954.297 289.561 976.882 289.487H976.956C986.837 289.487 987.877 298.031 988.991 307.094C990.477 319.352 992.186 333.17 1012.39 337.108C1029.7 340.451 1051.92 340.525 1071.45 340.525C1096.56 340.599 1116.33 340.599 1119.37 347.434C1120.19 349.291 1120.19 351.148 1119.45 352.931C1115.73 361.178 1094.34 368.161 1047.38 383.539C1038.99 386.288 1029.55 389.334 1019.38 392.751C986.911 403.524 923.021 444.532 861.137 484.278C787.96 531.155 740.414 560.946 724.887 561.02ZM976.882 291.716C951.697 291.79 902.442 324.627 864.702 357.092C842.415 376.259 810.024 415.187 775.925 463.699C746.803 505.228 723.996 543.339 721.693 554.334C721.098 557.231 722.064 557.974 722.435 558.197C726.447 560.946 742.271 554.483 769.313 538.882C794.349 524.469 826.22 503.965 859.874 482.346C921.832 442.526 985.871 401.369 1018.56 390.597C1028.74 387.254 1038.17 384.134 1046.57 381.385C1090.03 367.195 1114.02 359.32 1117.29 352.04C1117.81 350.851 1117.81 349.663 1117.22 348.325C1114.77 342.828 1093.67 342.828 1071.38 342.754C1051.69 342.679 1029.41 342.679 1011.87 339.262C990.105 335.027 988.248 319.649 986.688 307.317C985.499 297.362 984.459 291.716 976.882 291.716Z" fill="white" fill-opacity="0.05"/>
<path d="M738.631 546.608C737.145 546.608 735.956 546.311 735.065 545.716C733.505 544.676 732.91 542.819 733.356 540.219C734.396 528.555 758.021 489.924 781.125 456.716C811.213 413.256 841.523 376.556 862.102 358.429C864.554 356.275 867.08 354.046 869.605 351.966C908.534 319.055 946.496 297.733 966.332 297.585H966.406C975.47 297.585 976.51 305.385 977.624 313.632C979.11 324.701 980.819 337.33 999.317 340.822C1015.22 343.868 1035.65 343.868 1053.7 343.942C1076.58 343.942 1094.71 344.017 1097.83 350.034C1099.02 351.817 1099.39 353.6 1098.79 355.383C1096.19 363.109 1074.95 370.315 1028.44 386.065C1022.94 387.922 1017 389.928 1010.76 392.083C981.636 402.038 923.912 438.812 868.045 474.397C798.732 518.526 753.563 546.608 738.631 546.608ZM966.406 299.665C946.942 299.813 909.5 320.986 870.943 353.526C868.491 355.606 865.965 357.835 863.514 359.989C817.156 400.849 737.145 520.755 735.51 540.442V540.516C735.065 543.116 735.956 543.71 736.253 543.933C740.191 546.533 755.272 540.442 781.125 525.658C805.047 511.988 835.134 492.821 867.005 472.54C922.946 436.88 980.745 400.032 1010.16 390.003C1016.4 387.848 1022.27 385.917 1027.84 383.985C1072.35 368.904 1094.63 361.326 1096.94 354.566C1097.31 353.451 1097.08 352.263 1096.19 351L1096.12 350.851C1093.67 345.874 1074.28 345.874 1053.77 345.874C1035.65 345.874 1015.14 345.874 999.02 342.754C979.036 338.89 977.179 324.998 975.618 313.78C974.356 304.791 973.315 299.665 966.406 299.665Z" fill="white" fill-opacity="0.05"/>
<path d="M752.448 532.195C751.037 532.195 749.848 531.898 749.031 531.378C747.545 530.412 747.025 528.778 747.322 526.549C746.951 519.417 757.5 495.867 788.182 450.921C808.612 420.982 838.477 381.756 860.987 361.401C863.216 359.395 865.445 357.389 867.674 355.457C902.367 325.444 936.987 305.831 955.783 305.682H955.857C964.177 305.682 965.218 312.74 966.332 320.169C967.818 330.124 969.526 341.416 986.316 344.536C1000.88 347.285 1019.52 347.285 1035.94 347.285C1056.67 347.285 1073.16 347.285 1076.36 352.56C1078.07 354.343 1078.73 356.052 1078.36 357.835C1076.73 365.115 1056.45 372.247 1007.49 389.482L1002.29 391.34C976.51 400.403 925.026 432.943 875.251 464.368C809.578 505.822 766.712 532.195 752.448 532.195ZM955.931 307.614H955.857C937.507 307.837 903.407 327.152 869.011 356.943C866.782 358.875 864.479 360.881 862.325 362.886C839.963 383.168 810.172 422.245 789.817 452.035C765.004 488.289 748.734 518.229 749.254 526.475V526.549V526.623C748.957 528.852 749.774 529.447 750.071 529.669C753.934 532.195 768.347 526.326 793.086 512.36C815.819 499.507 844.198 481.529 874.285 462.585C924.135 431.085 975.693 398.546 1001.69 389.408L1006.89 387.551C1052.29 371.578 1075.09 363.555 1076.51 357.315C1076.65 356.572 1076.65 355.457 1074.95 353.749L1074.87 353.674L1074.8 353.526C1072.34 349.143 1054.66 349.143 1036.02 349.143C1019.52 349.143 1000.73 349.143 986.019 346.394C967.892 342.976 965.96 330.421 964.4 320.392C963.212 312.22 962.246 307.614 955.931 307.614Z" fill="white" fill-opacity="0.05"/>
<path d="M766.193 517.783C764.781 517.783 763.741 517.56 762.85 517.04C761.958 516.446 760.918 515.257 761.141 512.88C757.055 495.198 823.843 398.174 859.874 364.446C861.88 362.589 863.885 360.806 865.817 359.023C896.871 331.387 927.33 314.077 945.308 313.78H945.382C952.886 313.78 954 320.02 955.115 326.632C956.6 335.473 958.383 345.428 973.464 348.251C986.614 350.703 1003.48 350.628 1018.41 350.628C1037.06 350.554 1051.77 350.554 1055.04 355.16C1057.49 356.869 1058.53 358.577 1058.3 360.435C1057.49 366.824 1040.92 373.436 993.82 390.671C971.384 398.917 926.29 427.074 882.681 454.338C820.425 493.118 779.862 517.783 766.193 517.783ZM945.457 315.563H945.382C928.073 315.86 897.316 333.393 867.08 360.36C865.148 362.143 863.142 363.926 861.137 365.784C823.174 401.295 758.987 497.353 762.924 512.582L762.998 512.731V512.88C762.85 514.588 763.444 515.183 763.89 515.48C772.582 520.903 830.529 484.649 881.715 452.704C925.398 425.439 970.567 397.209 993.226 388.888C1033.19 374.253 1055.78 365.709 1056.52 360.138C1056.67 359.023 1055.78 357.835 1053.85 356.497L1053.7 356.423L1053.62 356.274C1051.1 352.411 1035.2 352.411 1018.41 352.486C1003.48 352.486 986.465 352.56 973.167 350.108C956.823 347.062 954.892 335.993 953.406 327.004C952.069 319.649 951.103 315.563 945.457 315.563Z" fill="white" fill-opacity="0.05"/>
<path d="M779.862 503.37C778.599 503.37 777.559 503.148 776.816 502.702C775.999 502.182 775.033 501.216 775.033 499.136C773.324 495.421 775.182 487.769 780.531 476.477C785.285 466.448 792.789 453.596 802.149 439.332C820.499 411.473 843.232 382.573 858.759 367.418C860.542 365.709 862.251 364.075 863.959 362.441C890.778 337.702 917.894 322.101 934.833 321.729C941.667 321.655 942.782 327.152 943.896 333.021C945.382 340.673 947.165 349.365 960.537 351.817C972.35 353.897 987.431 353.897 1000.73 353.823C1017.22 353.749 1030.37 353.674 1033.64 357.537C1035.87 358.578 1038.62 360.286 1038.54 362.886C1038.32 368.087 1026.88 373.881 985.351 389.854C966.258 397.209 927.627 420.982 890.332 444.012C832.98 479.449 793.086 503.37 779.862 503.37ZM934.907 323.512H934.833C921.906 323.809 896.722 334.507 865.074 363.778C863.365 365.412 861.656 367.047 859.873 368.681C844.421 383.762 821.836 412.587 803.561 440.372C783.577 470.757 773.547 492.524 776.667 498.69L776.742 498.913V499.136C776.667 500.622 777.262 501.142 777.633 501.365C786.177 506.416 841.003 472.614 889.441 442.749C928.518 418.605 965.515 395.872 984.756 388.442C1019.15 375.219 1036.69 367.641 1036.83 362.961C1036.91 361.772 1035.5 360.509 1032.67 359.172L1032.45 359.098L1032.3 358.949C1029.78 355.606 1015.59 355.68 1000.65 355.68C987.282 355.754 972.127 355.829 960.092 353.674C945.531 351.074 943.673 341.342 942.113 333.542C940.999 327.078 940.033 323.512 934.907 323.512Z" fill="white" fill-opacity="0.05"/>
<path d="M793.532 488.958C792.343 488.958 791.452 488.735 790.709 488.364C789.966 487.918 789.074 487.101 788.926 485.466C786.474 482.198 787.292 475.734 791.452 465.779C795.018 457.236 801.11 446.092 809.133 433.611C823.62 410.878 843.604 384.876 857.571 370.464C859.057 368.978 860.542 367.492 862.028 366.007C884.613 344.165 908.46 330.273 924.284 329.901C930.301 329.827 931.416 334.582 932.604 339.633C934.165 346.171 935.873 353.526 947.537 355.606C958.012 357.389 971.31 357.315 983.048 357.24C997.46 357.166 1008.9 357.092 1012.17 360.286C1017 361.846 1019.15 363.481 1019.23 365.635C1019.45 370.315 1008.75 376.333 976.808 389.334C961.132 395.723 930.673 414.221 898.431 433.834C851.776 462.065 807.424 488.958 793.532 488.958ZM924.432 331.461C924.358 331.461 924.358 331.461 924.284 331.461C908.831 331.907 885.355 345.577 863.068 367.121C861.657 368.533 860.171 370.018 858.685 371.504C844.793 385.917 824.957 411.77 810.47 434.429C793.383 461.248 786.029 479.597 790.337 484.649L790.486 484.872V485.169C790.486 486.358 791.08 486.804 791.452 487.026C799.921 491.707 851.925 460.133 897.688 432.348C930.004 412.736 960.464 394.237 976.288 387.774C997.906 378.933 1017.89 370.167 1017.74 365.635C1017.67 364.298 1015.59 362.961 1011.58 361.698L1011.35 361.623L1011.2 361.475C1008.68 358.652 996.197 358.726 983.122 358.8C971.31 358.875 957.938 358.949 947.314 357.166C934.61 354.937 932.679 346.691 931.119 340.005C929.856 334.507 928.89 331.461 924.432 331.461Z" fill="white" fill-opacity="0.05"/>
<path d="M807.276 474.62C806.235 474.62 805.344 474.471 804.675 474.1C803.71 473.654 803.115 472.837 802.892 471.797C801.481 470.608 800.664 468.825 800.441 466.448C798.806 448.024 836.026 396.095 856.456 373.436L860.096 369.498C878.818 350.257 898.876 338.445 913.734 337.925C919.009 337.851 920.123 341.862 921.312 346.023C922.872 351.371 924.581 357.538 934.61 359.172C943.674 360.658 955.263 360.509 965.441 360.435C977.773 360.286 987.654 360.212 990.774 362.738C997.312 364.001 1000.36 365.635 1000.65 368.013C1001.03 371.059 997.312 375.665 968.412 388.368C956.229 393.717 932.604 407.833 907.643 422.691C864.925 448.321 820.871 474.62 807.276 474.62ZM913.957 339.411C913.883 339.411 913.883 339.411 913.809 339.411C908.385 339.559 888.475 342.382 861.136 370.539L857.496 374.476C837.215 396.912 800.218 448.321 801.852 466.299C802.075 468.38 802.744 469.865 804.007 470.831L804.23 470.98V471.277C804.304 472.02 804.675 472.466 805.27 472.763C805.79 473.06 806.533 473.134 807.424 473.134C820.425 473.134 868.12 444.681 906.9 421.502C931.936 406.57 955.634 392.454 967.892 387.031C981.636 381.014 999.837 372.47 999.317 368.087C999.169 366.527 996.123 365.115 990.403 364.001H990.18L990.031 363.852C987.431 361.549 976.733 361.624 965.441 361.772C955.189 361.847 943.599 361.995 934.387 360.509C923.466 358.652 921.535 351.817 919.975 346.32C918.712 341.937 917.82 339.411 913.957 339.411Z" fill="white" fill-opacity="0.05"/>
<path d="M820.945 460.208C819.98 460.208 819.237 460.059 818.568 459.836C817.677 459.465 817.082 458.87 816.785 458.127C814.705 457.013 813.368 455.156 812.848 452.704C811.362 445.647 816.116 433.24 826.963 415.707C837.512 398.695 850.29 382.648 855.268 376.556C856.233 375.367 857.199 374.253 858.165 373.139C872.875 356.572 889.293 346.691 903.185 346.097C907.717 346.022 908.831 349.217 910.02 352.634C911.58 356.869 913.289 361.698 921.609 363.035C929.336 364.224 939.142 364.075 947.76 363.927C958.086 363.778 966.258 363.629 969.378 365.561C978.293 366.452 982.454 368.013 982.899 370.761C983.345 373.287 981.116 377.596 959.869 387.922C951.474 392.008 936.245 400.923 918.638 411.176C872.8 437.92 833.5 460.208 820.945 460.208ZM903.482 347.36C903.408 347.36 903.408 347.36 903.334 347.36C889.813 347.954 873.692 357.612 859.205 373.956C858.314 375.07 857.348 376.185 856.308 377.373C851.33 383.465 838.627 399.512 828.077 416.376C817.528 433.314 812.699 445.795 814.111 452.407C814.556 454.636 815.745 456.196 817.602 457.087L817.825 457.236L817.899 457.533C818.048 458.053 818.419 458.425 819.014 458.722C828.226 462.511 880.155 432.126 918.043 409.987C935.65 399.66 950.88 390.82 959.349 386.66C974.727 379.23 982.231 373.882 981.711 370.91C981.339 368.904 977.105 367.567 969.156 366.75H969.007L968.858 366.675C966.258 364.892 957.343 365.041 947.834 365.189C939.142 365.338 929.261 365.487 921.461 364.298C912.397 362.886 910.466 357.463 908.906 353.08C907.717 349.737 906.9 347.36 903.482 347.36Z" fill="white" fill-opacity="0.05"/>
<path d="M834.541 445.795C833.798 445.795 833.203 445.721 832.683 445.572C831.866 445.349 831.272 444.904 830.826 444.309C827.78 443.269 825.7 441.338 824.809 438.589C820.797 426.554 838.924 400.998 850.959 384.059C852.148 382.425 853.188 380.865 854.228 379.453C854.971 378.488 855.639 377.522 856.382 376.556C867.08 362.738 880.007 354.714 892.785 354.12C896.499 354.046 897.688 356.423 898.877 359.023C900.437 362.144 902.145 365.709 908.757 366.601C915.146 367.492 923.17 367.27 930.302 367.121C938.251 366.972 945.16 366.824 948.057 368.087C959.572 368.31 965.59 369.944 966.407 373.139C967.224 376.482 962.395 381.013 951.549 387.031C948.057 388.963 942.782 392.008 936.616 395.574C905.786 413.404 849.696 445.795 834.541 445.795ZM893.008 355.309C892.933 355.309 892.933 355.309 892.859 355.309C880.378 355.903 867.749 363.778 857.274 377.299C856.605 378.265 855.862 379.23 855.193 380.196C854.228 381.608 853.113 383.168 851.925 384.802C840.781 400.478 822.06 426.777 825.923 438.292C826.74 440.743 828.523 442.378 831.42 443.343L831.643 443.418L831.718 443.641C831.94 444.086 832.386 444.384 832.981 444.532C833.426 444.681 834.021 444.755 834.689 444.755C849.399 444.755 907.494 411.175 936.096 394.683C942.188 391.117 947.463 388.071 951.029 386.139C963.732 379.082 965.813 375.367 965.367 373.51C964.921 371.727 961.578 369.573 947.983 369.275H947.834L947.76 369.201C945.085 367.938 937.954 368.161 930.376 368.31C923.244 368.458 915.146 368.681 908.683 367.79C901.477 366.75 899.471 362.738 897.911 359.543C896.648 357.092 895.756 355.309 893.008 355.309Z" fill="white" fill-opacity="0.05"/>
<path d="M848.062 431.382C846.576 431.382 845.461 431.085 844.793 430.491C840.113 429.599 837.067 427.594 835.655 424.548C832.163 416.673 840.335 403.523 847.467 391.86C849.547 388.517 851.479 385.322 853.039 382.499C853.559 381.682 854.005 380.865 854.376 380.122C861.137 368.904 870.498 362.886 882.235 362.218C885.133 362.143 886.321 363.703 887.659 365.486C889.145 367.492 890.853 369.795 895.831 370.39C900.882 370.91 907.197 370.687 912.843 370.538C918.787 370.315 923.987 370.167 926.736 370.835C936.988 370.315 949.543 370.835 951.177 375.739C952.069 378.487 949.394 382.053 943.08 386.362C934.685 392.083 911.655 405.158 890.779 415.41C875.104 423.062 856.234 431.382 848.062 431.382ZM882.533 363.258C882.458 363.258 882.384 363.258 882.31 363.258C870.943 363.926 861.88 369.795 855.342 380.716C854.971 381.459 854.451 382.276 854.005 383.093C852.445 385.916 850.513 389.111 848.433 392.454C841.747 403.3 833.352 416.821 836.621 424.176C837.884 426.999 840.633 428.782 845.164 429.599H845.313L845.387 429.674C852.296 436.36 923.764 398.249 942.485 385.471C948.28 381.533 950.955 378.264 950.212 375.961C949.097 372.618 940.48 371.058 926.661 371.727H926.587H926.513C923.838 371.058 918.489 371.207 912.843 371.43C907.197 371.653 900.808 371.801 895.682 371.281C890.259 370.687 888.327 368.087 886.842 366.006C885.579 364.446 884.687 363.258 882.533 363.258Z" fill="white" fill-opacity="0.05"/>
<path d="M861.359 417.119C860.319 417.119 859.428 416.97 858.759 416.747C851.33 416.153 846.798 414.296 844.941 411.101C842.415 406.718 845.312 400.7 848.284 394.311C849.621 391.414 851.107 388.442 851.924 385.619C852.147 384.951 852.37 384.356 852.518 383.762C855.416 375.144 861.136 371.133 871.76 370.315C873.84 370.241 875.103 370.984 876.44 371.801C877.926 372.767 879.635 373.807 882.903 374.03C886.767 374.253 891.298 373.956 895.756 373.733C899.396 373.51 902.888 373.361 905.414 373.436C923.169 371.578 935.501 373.436 937.656 378.116C938.622 380.196 937.656 382.722 934.684 385.619C929.93 390.225 914.18 398.695 896.499 406.198C889.961 408.947 870.051 417.119 861.359 417.119ZM872.131 371.207C872.057 371.207 871.908 371.207 871.834 371.207C861.508 371.95 856.159 375.664 853.41 383.985C853.261 384.579 853.039 385.248 852.816 385.917C851.924 388.74 850.513 391.785 849.101 394.683C846.204 400.849 843.381 406.644 845.684 410.655C847.392 413.553 851.701 415.261 858.907 415.856H859.056C867.748 419.273 923.541 395.129 934.09 384.951C936.764 382.351 937.73 380.196 936.913 378.487C934.907 374.179 922.575 372.544 905.488 374.327C903.036 374.179 899.545 374.401 895.904 374.624C891.447 374.847 886.841 375.144 882.978 374.921C879.486 374.699 877.629 373.51 876.069 372.618C874.731 371.801 873.691 371.207 872.131 371.207Z" fill="white" fill-opacity="0.05"/>
<path d="M872.726 402.855C872.726 402.855 872.651 402.855 872.726 402.855C859.353 402.855 853.559 401.963 851.479 399.586C850.141 398.1 850.364 396.243 850.661 393.791C850.884 391.934 851.107 389.78 850.661 387.328C850.216 384.579 850.439 382.722 851.479 381.385C853.41 378.859 858.09 378.562 865.891 377.967C870.72 377.596 876.737 377.15 884.092 376.036C904.299 372.99 921.906 374.624 925.844 379.973C926.884 381.385 927.032 382.945 926.215 384.728C922.278 393.271 883.721 402.855 872.726 402.855ZM903.334 375.293C897.539 375.293 891.001 375.813 884.167 376.853C876.812 377.967 870.794 378.413 865.965 378.785C858.388 379.379 853.856 379.676 852.073 381.905C851.181 383.019 850.959 384.728 851.404 387.254C851.85 389.854 851.627 392.157 851.404 393.94C851.181 396.243 850.959 397.877 852.073 399.14C854.004 401.295 859.725 402.112 872.726 402.112C883.349 402.112 921.832 392.529 925.547 384.505C926.215 383.019 926.141 381.682 925.249 380.493C922.724 377.15 914.403 375.293 903.334 375.293Z" fill="white" fill-opacity="0.05"/>
<path d="M559.07 1552.28C539.086 1552.28 519.77 1551.84 501.197 1550.87C399.568 1545.82 325.202 1527.25 280.256 1495.75C234.27 1463.51 220.378 1418.26 239.025 1361.28C295.635 1188.26 351.204 1081.06 387.978 1010.03C404.545 978.089 417.62 952.904 424.678 933.069L425.718 933.44L424.678 933.069C436.49 900.084 487.379 856.252 557.361 818.735C632.692 778.321 713.446 753.879 778.748 751.651C868.863 748.53 966.778 722.603 1033.05 701.356C1110.23 676.617 1190.25 643.483 1247 612.652C1283.7 592.742 1321.22 592.074 1355.54 610.721C1415.05 642.963 1457.32 728.695 1465.86 834.559C1469.95 884.705 1474.11 936.56 1475.08 986.633C1476.12 1041.98 1472.92 1089.08 1465.34 1130.61C1456.28 1180.23 1440.9 1223.47 1418.32 1262.7C1393.06 1306.6 1359.48 1344.64 1315.57 1379.04C1240.54 1437.8 1033.49 1501.02 811.956 1532.67C721.47 1545.67 635.218 1552.28 559.07 1552.28ZM1304.21 599.428C1285.71 599.428 1266.84 604.48 1248.27 614.584C1191.36 645.489 1111.2 678.697 1033.86 703.436C967.447 724.683 869.309 750.685 778.971 753.805C713.966 756.034 633.584 780.401 558.55 820.667C489.014 857.961 438.57 901.272 426.907 933.812C419.775 953.796 406.625 979.055 390.058 1011.07C353.284 1081.95 297.789 1189.08 241.179 1361.95C222.83 1417.89 236.425 1462.32 281.594 1493.89C326.242 1525.17 400.162 1543.59 501.42 1548.64C590.198 1553.1 697.548 1546.79 811.882 1530.44C1033.05 1498.79 1239.72 1435.8 1314.46 1377.25C1358.14 1343.01 1391.57 1305.19 1416.68 1261.58C1439.19 1222.51 1454.5 1179.57 1463.49 1130.16C1480.35 1037.6 1472.03 934.406 1464.01 834.708C1455.54 729.66 1413.64 644.523 1354.8 612.652C1338.46 603.886 1321.52 599.428 1304.21 599.428Z" fill="white" fill-opacity="0.05"/>
<path d="M571.476 1514.77C555.652 1514.77 540.348 1514.47 525.564 1513.8C432.329 1509.71 364.13 1493.22 322.899 1464.77C281.147 1436.02 268.295 1395.53 284.639 1344.42C332.78 1189.74 383 1087.07 416.282 1019.17C431.884 987.301 444.216 962.117 451.273 941.984C462.714 909.519 509.889 867.321 574.299 831.885C643.315 793.922 718.349 770.52 780.308 767.772C863.439 764.503 953.628 741.176 1014.62 722.083C1086.31 699.721 1158 670.971 1211.42 643.26C1245.15 625.728 1279.54 625.728 1311.04 643.112C1365.72 673.348 1404.57 752.245 1412.45 849.046C1419.95 940.349 1427.75 1034.77 1411.85 1121.54C1403.46 1167.23 1389.27 1207.05 1368.47 1243.38C1345.22 1283.87 1314.38 1319.01 1274.12 1350.81C1205.03 1405.56 1014.62 1465.07 810.841 1495.38C724.887 1508.23 643.167 1514.77 571.476 1514.77ZM1262.16 632.191C1245.67 632.191 1228.88 636.5 1212.31 645.117C1158.82 672.977 1086.98 701.727 1015.14 724.089C954.074 743.181 863.662 766.583 780.308 769.852C718.721 772.601 643.984 795.928 575.265 833.742C511.226 868.956 464.497 910.707 453.205 942.727C446.073 962.934 433.741 988.193 418.065 1020.14C384.857 1087.97 334.637 1190.56 286.571 1345.09C270.598 1395.23 283.153 1434.9 324.087 1463.06C365.022 1491.29 432.849 1507.71 525.713 1511.72C607.284 1515.29 705.794 1508.9 810.618 1493.3C1014.03 1462.99 1204.06 1403.7 1272.78 1349.02C1312.82 1317.38 1343.51 1282.38 1366.61 1242.19C1387.34 1206.16 1401.45 1166.49 1409.77 1121.02C1425.67 1034.55 1417.87 940.275 1410.37 849.12C1402.57 752.988 1364.09 674.759 1310 644.82C1294.62 636.425 1278.5 632.191 1262.16 632.191Z" fill="white" fill-opacity="0.05"/>
<path d="M584.031 1477.32C572.293 1477.32 560.927 1477.1 549.858 1476.73C465.017 1473.68 402.985 1459.2 365.468 1433.79C328.025 1408.46 316.139 1372.72 330.105 1327.55C369.999 1190.26 413.385 1095.91 444.959 1026.97C459.297 995.696 470.664 971.032 477.573 950.973C488.865 918.582 531.211 878.985 590.94 845.108C653.568 809.523 723.03 787.236 781.497 783.893C919.529 777.652 1092.7 714.654 1175.46 673.868C1206.22 658.713 1237.57 659.307 1266.24 675.502C1316.09 703.733 1351.53 775.795 1358.74 863.533C1365.35 942.43 1372.93 1031.88 1357.99 1112.41C1350.27 1154.16 1337.27 1190.64 1318.17 1223.92C1297 1260.99 1268.84 1293.23 1232.22 1322.43C1200.65 1347.98 1142.48 1374.65 1064.02 1399.62C988.62 1423.54 898.282 1444.34 809.579 1458.16C728.379 1470.79 651.19 1477.32 584.031 1477.32ZM1220.04 664.879C1205.55 664.879 1190.91 668.445 1176.35 675.651C1093.44 716.511 919.975 779.658 781.645 785.899C723.475 789.242 654.311 811.455 591.906 846.817C532.548 880.471 490.499 919.697 479.43 951.642C472.447 971.774 461.08 996.513 446.742 1027.86C415.094 1096.73 371.857 1190.93 331.962 1328.15C318.293 1372.43 329.882 1407.42 366.508 1432.23C403.727 1457.41 465.463 1471.75 549.932 1474.8C624.297 1477.47 714.04 1471.08 809.356 1456.23C897.91 1442.41 988.174 1421.68 1063.5 1397.76C1141.73 1372.87 1199.68 1346.35 1231.1 1320.94C1267.58 1291.82 1295.52 1259.8 1316.61 1222.95C1335.56 1189.89 1348.48 1153.64 1356.14 1112.11C1370.99 1031.8 1363.49 942.504 1356.88 863.755C1349.75 776.612 1314.68 705.219 1265.35 677.285C1250.79 668.965 1235.49 664.879 1220.04 664.879Z" fill="white" fill-opacity="0.05"/>
<path d="M596.736 1440.03C589.009 1440.03 581.432 1439.96 574.077 1439.73C497.632 1437.65 441.765 1425.32 407.962 1402.88C374.829 1381.04 363.982 1349.99 375.646 1310.69C407.665 1189.45 446.445 1098.81 474.75 1032.62C486.934 1004.09 497.483 979.501 504.095 959.888C515.016 928.017 553.721 889.98 607.805 858.258C664.192 825.124 728.008 803.877 782.983 800.014C837.661 797.191 904.894 784.561 977.328 763.611C1035.5 746.747 1094.71 725.203 1139.73 704.476C1167.51 691.698 1195.82 692.886 1221.6 707.967C1266.62 734.266 1298.64 799.419 1305.17 878.093C1312.31 960.705 1317.21 1034.62 1304.28 1103.34C1297.22 1141.16 1285.41 1174.22 1268.1 1204.53C1248.94 1238.18 1223.53 1267.53 1190.54 1294.12C1161.79 1317.9 1109.12 1342.71 1038.1 1365.96C970.196 1388.25 888.624 1407.71 808.39 1420.86C731.796 1433.49 659.214 1440.03 596.736 1440.03ZM1177.84 697.492C1165.43 697.492 1152.88 700.39 1140.4 706.11C1095.23 726.912 1035.94 748.53 977.699 765.394C905.117 786.419 837.735 798.974 782.983 801.871C728.305 805.734 664.786 826.907 608.622 859.892C554.91 891.466 516.501 929.057 505.729 960.556C499.043 980.169 488.494 1004.83 476.31 1033.36C448.08 1099.48 409.3 1190.04 377.355 1311.21C365.988 1349.69 376.612 1380 408.928 1401.4C442.508 1423.54 498.077 1435.87 574.151 1437.88C641.384 1439.66 722.287 1433.2 808.093 1419.08C888.253 1405.93 969.75 1386.47 1037.58 1364.25C1108.38 1341.07 1160.9 1316.34 1189.43 1292.71C1222.26 1266.19 1247.45 1237.07 1266.54 1203.56C1283.7 1173.47 1295.44 1140.56 1302.5 1102.97C1315.35 1034.48 1310.45 960.631 1303.32 878.168C1296.85 800.088 1265.13 735.381 1220.63 709.453C1206.89 701.504 1192.47 697.492 1177.84 697.492Z" fill="white" fill-opacity="0.05"/>
<path d="M609.588 1402.81C605.725 1402.81 601.936 1402.81 598.222 1402.74C530.245 1401.7 480.471 1391.37 450.383 1372.05C421.632 1353.63 411.751 1327.26 421.112 1293.83C445.554 1187 480.248 1098.89 505.655 1034.55C515.684 1009.07 524.376 987.004 530.468 968.877C541.166 937.006 575.414 901.495 624.521 871.407C674.593 840.725 732.837 820.518 784.246 816.061C886.173 809.895 1021.38 769.703 1103.85 734.935C1128.66 724.534 1153.92 726.317 1176.95 740.284C1217.06 764.577 1245.67 822.97 1251.54 892.506C1257.78 962.934 1262.46 1031.36 1250.57 1094.21C1244.18 1128.08 1233.48 1157.8 1218.03 1185.06C1200.87 1215.3 1178.21 1241.75 1148.87 1265.82C1122.94 1287.73 1075.69 1310.76 1012.17 1332.38C951.698 1352.96 878.892 1371.16 807.128 1383.72C735.288 1396.27 667.386 1402.81 609.588 1402.81ZM1135.57 730.032C1125.24 730.032 1114.84 732.186 1104.44 736.569C1021.83 771.338 886.47 811.603 784.32 817.769C733.134 822.227 675.187 842.285 625.338 872.819C576.603 902.684 542.578 937.898 532.028 969.323C525.937 987.524 517.245 1009.51 507.215 1035.07C481.882 1099.33 447.114 1187.44 422.747 1294.12C413.609 1326.81 423.267 1352.52 451.274 1370.49C481.139 1389.66 530.617 1399.84 598.296 1400.95C658.323 1401.84 730.385 1395.31 806.756 1382.01C878.447 1369.45 951.178 1351.25 1011.58 1330.75C1074.87 1309.2 1121.97 1286.32 1147.75 1264.48C1176.95 1240.56 1199.46 1214.26 1216.54 1184.25C1231.92 1157.2 1242.47 1127.64 1248.86 1093.91C1260.75 1031.28 1256.07 963.008 1249.83 892.729C1244.03 823.638 1215.8 765.84 1176.06 741.77C1163.06 733.969 1149.46 730.032 1135.57 730.032Z" fill="white" fill-opacity="0.05"/>
<path d="M622.811 1365.81C622.663 1365.81 622.514 1365.81 622.366 1365.81C562.784 1365.74 519.176 1357.49 492.728 1341.22C468.286 1326.14 459.446 1304.52 466.503 1276.96C483.293 1182.69 515.09 1094.65 538.268 1030.39C545.549 1010.26 551.789 992.873 556.767 977.792C567.093 946.441 597.85 912.49 641.161 884.557C685.067 856.252 737.665 837.233 785.508 832.182C829.563 829.061 881.492 819.924 939.885 805.066C983.791 793.848 1030.45 779.509 1067.89 765.617C1089.8 757.519 1112.02 760.045 1132.15 772.823C1167.36 795.185 1192.47 846.668 1197.67 907.141C1203.1 965.98 1207.55 1028.24 1196.56 1085.22C1190.77 1115.16 1181.33 1141.53 1167.66 1165.75C1152.51 1192.57 1132.67 1216.12 1106.89 1237.59C1061.2 1277.48 940.034 1321.31 805.567 1346.65C738.854 1359.13 675.632 1365.81 622.811 1365.81ZM1093.22 762.497C1085.05 762.497 1076.73 763.983 1068.48 767.029C1030.97 780.921 984.237 795.333 940.256 806.551C881.789 821.484 829.786 830.622 785.657 833.742C738.111 838.719 685.736 857.738 642.053 885.894C599.113 913.604 568.579 947.258 558.327 978.312C553.349 993.393 547.109 1010.78 539.829 1030.91C516.65 1095.1 484.928 1183.06 468.138 1277.26C461.229 1304.15 469.847 1325.25 493.62 1339.89C519.77 1356.01 563.082 1364.18 622.44 1364.25C622.589 1364.25 622.737 1364.25 622.886 1364.25C675.632 1364.25 738.78 1357.64 805.418 1345.09C939.662 1319.83 1060.53 1276.14 1106.07 1236.4C1131.7 1215 1151.39 1191.68 1166.47 1165C1180.07 1140.93 1189.43 1114.78 1195.15 1084.99C1206.07 1028.24 1201.69 966.128 1196.26 907.364C1191.14 847.411 1166.32 796.373 1131.48 774.235C1119.22 766.434 1106.3 762.497 1093.22 762.497Z" fill="white" fill-opacity="0.05"/>
<path d="M636.109 1329.11C590.197 1329.11 556.172 1322.87 535.074 1310.62C514.941 1298.95 507.215 1281.94 512.043 1260.17C520.513 1176.3 551.12 1083.88 573.482 1016.42C576.974 1005.8 580.317 995.845 583.214 986.855C593.392 955.505 619.914 923.857 657.876 897.855C696.211 871.63 741.974 854.098 786.771 848.452C817.75 845.851 903.631 835.525 1032.01 796.299C1051.02 790.505 1070.27 793.699 1087.65 805.437C1117.96 825.941 1139.5 870.516 1143.96 921.702C1148.64 969.694 1152.73 1025.12 1142.77 1076.15C1132.22 1130.09 1106.82 1173.62 1065.21 1209.28C1044.93 1227.63 1008.6 1247.02 960.017 1265.37C913.734 1282.83 859.873 1298.13 804.229 1309.58C746.803 1321.46 692.199 1328.15 646.436 1329.04C642.944 1329.04 639.527 1329.11 636.109 1329.11ZM1050.65 794.814C1044.63 794.814 1038.54 795.705 1032.53 797.562C1012.02 803.877 970.27 816.061 921.609 827.204C870.497 838.942 825.254 846.52 787.068 849.714C742.494 855.361 696.953 872.819 658.768 898.895C621.028 924.748 594.655 956.025 584.626 987.153C581.728 996.142 578.385 1006.17 574.894 1016.79C552.532 1084.25 521.924 1176.59 513.529 1260.32V1260.39C508.849 1281.49 516.352 1297.99 535.891 1309.35C558.029 1322.2 596.289 1328.52 646.51 1327.55C692.199 1326.66 746.654 1319.98 804.081 1308.09C859.65 1296.65 913.437 1281.34 959.646 1263.89C1008.08 1245.61 1044.26 1226.29 1064.4 1208.09C1105.78 1172.66 1131.03 1129.42 1141.51 1075.78C1151.46 1024.89 1147.38 969.62 1142.7 921.702C1138.24 870.887 1116.92 826.684 1086.98 806.477C1075.47 798.751 1063.13 794.814 1050.65 794.814Z" fill="white" fill-opacity="0.05"/>
<path d="M650.893 1292.86C618.279 1292.86 593.095 1288.55 577.345 1280.16C561.521 1271.76 554.909 1259.35 557.584 1243.31C555.206 1168.05 593.392 1047.25 609.662 995.696C630.166 931.286 703.565 877.351 788.183 864.498C855.49 857.664 934.759 840.28 982.156 829.879C987.208 828.765 991.888 827.725 996.271 826.833C1012.47 823.341 1028.74 827.204 1043.37 837.977C1068.63 856.549 1086.61 894.215 1090.4 936.189C1094.78 978.832 1097.68 1024.22 1089.06 1067.09C1079.85 1112.85 1058.38 1150.07 1023.54 1180.98C989.214 1213.59 902.591 1249.55 802.892 1272.65C754.9 1283.8 709.137 1290.63 670.58 1292.41C663.671 1292.71 657.134 1292.86 650.893 1292.86ZM1007.79 826.833C1004.07 826.833 1000.28 827.204 996.494 828.022C992.111 828.987 987.431 830.028 982.379 831.068C934.981 841.468 855.639 858.852 788.331 865.687C704.16 878.465 631.206 932.103 610.85 995.993C594.581 1047.48 556.395 1168.2 558.847 1243.23V1243.31V1243.38C556.247 1258.83 562.636 1270.8 577.939 1278.97C596.512 1288.85 628.457 1293.01 670.432 1291C708.989 1289.22 754.677 1282.38 802.521 1271.24C902.071 1248.21 988.471 1212.33 1022.64 1179.86C1100.13 1111.29 1097.98 1021.92 1089.13 936.189C1085.42 894.586 1067.59 857.292 1042.63 838.942C1031.71 830.993 1019.82 826.833 1007.79 826.833Z" fill="white" fill-opacity="0.05"/>
<path d="M666.197 1257.42C646.287 1257.42 630.24 1255.05 619.542 1250.22C607.953 1245.02 602.455 1236.99 603.124 1226.52C596.735 1206.01 597.924 1171.1 606.69 1122.66C613.079 1087.37 623.777 1044.36 636.109 1004.61C655.945 940.87 713.372 894.512 789.594 880.545C816.339 877.128 844.124 873.116 871.017 869.179C905.785 864.127 938.622 859.298 960.537 857.367C978.962 855.806 997.089 865.019 1011.5 883.443C1025.17 900.901 1034.38 925.417 1036.76 950.602C1043.22 1008.4 1039.36 1038.26 1035.27 1057.88C1027.47 1095.47 1009.94 1126.37 981.785 1152.52C953.034 1181.57 883.944 1213.52 801.481 1235.73C748.808 1250.07 701.337 1257.42 666.197 1257.42ZM964.475 858.332C963.138 858.332 961.875 858.407 960.537 858.481C938.696 860.487 905.859 865.241 871.091 870.293C844.198 874.305 816.413 878.391 789.668 881.734C713.892 895.626 656.836 941.687 637.149 1004.98C624.817 1044.65 614.119 1087.67 607.73 1122.88C598.964 1171.17 597.775 1206.01 604.164 1226.3V1226.37V1226.44C603.496 1236.47 608.77 1244.12 619.914 1249.1C649.407 1262.4 718.869 1256.9 801.109 1234.69C883.349 1212.48 952.291 1180.68 980.893 1151.78C1008.9 1125.78 1026.28 1095.02 1034.09 1057.73C1041.81 1020.58 1038.91 981.061 1035.5 950.824C1033.12 925.788 1023.98 901.495 1010.46 884.26C997.386 867.396 981.116 858.332 964.475 858.332Z" fill="white" fill-opacity="0.05"/>
<path d="M682.764 1223.69C674.518 1223.69 667.535 1222.95 662.186 1221.39C654.311 1219.16 649.705 1215.23 648.665 1209.8C633.732 1198.29 634.698 1159.21 638.19 1128.45C642.127 1093.76 651.191 1050.75 662.483 1013.6C672.289 981.581 687.222 956.619 708.172 937.304C729.568 917.616 756.609 904.318 790.858 896.741C842.713 888.272 895.236 884.854 924.655 887.974C938.994 889.609 952.96 898.821 963.955 914.125C974.282 928.389 981.191 947.036 983.048 965.163C989.14 1013.15 989.734 1074.67 940.034 1124.29C917.003 1149.7 865.074 1177.71 801.035 1199.18C754.232 1214.93 710.995 1223.69 682.764 1223.69ZM899.025 887.826C869.457 887.826 830.083 891.317 791.006 897.706C756.981 905.284 730.088 918.434 708.766 938.046C687.965 957.213 673.107 982.027 663.374 1013.9C642.202 1083.43 623.852 1189.97 649.333 1209.13L649.482 1209.28V1209.51C650.448 1214.63 654.757 1218.35 662.334 1220.5C686.033 1227.26 740.34 1218.57 800.59 1198.29C864.48 1176.82 916.261 1148.88 939.216 1123.63C988.62 1074.3 988.026 1013.08 982.008 965.311C980.151 947.333 973.242 928.834 963.064 914.719C952.217 899.712 938.548 890.575 924.507 889.014C917.301 888.197 908.683 887.826 899.025 887.826Z" fill="white" fill-opacity="0.05"/>
<path d="M702.6 1194.5C699.034 1194.5 696.285 1194.05 694.428 1193.09C688.485 1193.98 683.507 1192.12 679.644 1187.66C668.352 1174.59 668.501 1142.12 670.655 1117.09C673.255 1087.37 680.016 1052.01 688.856 1022.52C698.811 989.158 709.955 966.946 724.887 950.453C740.786 932.92 762.181 920.885 792.195 912.787C826.443 905.21 864.406 907.438 888.922 918.582C910.912 928.686 926.736 957.511 929.41 979.649C936.393 1025.34 925.918 1064.42 898.282 1095.91C888.03 1108.77 872.058 1122.21 850.81 1135.81C832.461 1147.62 810.619 1159.14 787.663 1169.17C751.706 1184.99 718.944 1194.5 702.6 1194.5ZM694.577 1192.2L694.725 1192.27C696.508 1193.24 699.183 1193.68 702.674 1193.68C738.631 1193.68 857.942 1145.32 897.614 1095.47C925.027 1064.19 935.428 1025.26 928.519 979.872C925.918 958.031 910.243 929.429 888.55 919.474C864.183 908.404 826.443 906.176 792.343 913.679C762.553 921.777 741.306 933.663 725.482 951.047C710.623 967.391 699.628 989.53 689.673 1022.74C680.907 1052.16 674.072 1087.45 671.546 1117.16C669.392 1141.97 669.169 1174.29 680.313 1187.07C684.027 1191.3 688.782 1193.01 694.428 1192.2H694.577Z" fill="white" fill-opacity="0.05"/>
<path d="M723.995 1181.72C720.429 1181.72 717.235 1180.68 714.486 1178.53C707.503 1173.18 699.479 1158.39 701.039 1117.9C702.079 1090.79 707.428 1058.47 715.303 1031.5C724.664 999.633 731.053 979.129 741.677 963.751C752.597 947.778 767.678 937.749 793.532 928.983C807.795 924.154 821.316 925.343 833.797 932.4C860.616 947.704 873.914 985.667 875.772 994.21C879.189 1010.26 876.589 1028.01 867.897 1047.11C860.468 1063.52 848.507 1080.98 832.46 1098.96C803.487 1131.5 765.821 1160.1 740.191 1176C734.099 1179.86 728.75 1181.72 723.995 1181.72ZM810.396 926.828C804.972 926.828 799.401 927.794 793.754 929.726C767.975 938.343 753.117 948.373 742.271 964.197C731.722 979.501 725.333 999.931 716.046 1031.8C701.634 1080.98 692.942 1161.36 714.932 1178.08C721.172 1182.83 729.567 1181.94 739.819 1175.55C765.375 1159.66 802.966 1131.05 831.94 1098.66C847.912 1080.76 859.799 1063.38 867.228 1046.96C875.846 1028.01 878.446 1010.33 875.029 994.507C873.171 985.964 860.022 948.373 833.426 933.217C826.071 928.909 818.419 926.828 810.396 926.828Z" fill="white" fill-opacity="0.05"/>
</svg>
