<svg width="67" height="68" viewBox="0 0 67 68" fill="none" xmlns="http://www.w3.org/2000/svg">
<path fill-rule="evenodd" clip-rule="evenodd" d="M1.45915 62.3943C0.34402 63.5094 0.344021 65.3174 1.45915 66.4325C2.57428 67.5476 4.38226 67.5476 5.49739 66.4325L33.765 38.1648L62.0327 66.4325C63.1478 67.5476 64.9558 67.5476 66.0709 66.4325C67.1861 65.3174 67.1861 63.5094 66.0709 62.3943L37.8033 34.1266L66.0709 5.85896C67.1861 4.74383 67.1861 2.93585 66.0709 1.82072C64.9558 0.705593 63.1478 0.705593 62.0327 1.82072L33.765 30.0884L5.49739 1.82072C4.38226 0.705593 2.57428 0.705593 1.45916 1.82072C0.344028 2.93585 0.344027 4.74383 1.45915 5.85896L29.7268 34.1266L1.45915 62.3943Z" fill="#AEABDB" fill-opacity="0.7"/>
</svg>
