<svg width="259" height="249" viewBox="0 0 259 249" fill="none" xmlns="http://www.w3.org/2000/svg">
<path d="M245.057 77.1463V200.341C245.057 201.371 244.885 202.402 244.369 203.261C243.338 205.667 240.933 207.213 238.012 207.213H22.3794C18.5993 207.213 15.3347 204.121 15.3347 200.169V76.9746C15.3347 73.1945 18.4275 70.1018 22.3794 70.1018H238.012C241.964 70.2736 245.057 73.3663 245.057 77.1463Z" fill="#E4E0FF"/>
<path d="M245.057 186.938V200.34C245.057 201.371 244.885 202.402 244.369 203.261C243.338 205.667 240.933 207.213 238.012 207.213H22.3794C18.5993 207.213 15.3347 204.12 15.3347 200.168V172.334C21.1766 169.069 28.7367 166.492 38.7022 167.007C51.2449 167.695 56.0558 175.77 56.0558 175.77C56.0558 175.77 57.774 169.241 64.1313 172.505C64.1313 172.505 67.2241 160.134 77.8768 167.179C77.8768 167.179 77.5332 145.874 93.856 143.812C113.272 141.578 118.426 156.011 118.426 156.011C118.426 156.011 125.986 142.781 139.732 141.406C153.477 140.032 160.178 157.901 160.178 157.901C160.178 157.901 166.364 151.028 172.549 156.526C178.563 161.853 176.157 167.523 176.157 167.695C176.329 167.695 184.576 164.43 186.295 172.505C186.295 172.505 199.868 162.368 209.662 169.069C219.456 175.77 214.817 189.516 214.817 189.516C214.817 189.516 222.72 185.392 225.297 190.031V190.203C226.672 192.78 230.796 194.498 232.686 192.093C236.466 187.454 241.105 186.423 245.057 186.938Z" fill="#AEABDB"/>
<path d="M244.369 203.261C243.338 205.667 240.933 207.213 238.012 207.213H22.3794C18.5993 207.213 15.3347 204.12 15.3347 200.169V193.468C22.0357 186.595 32.1729 180.238 46.7776 181.612C60.6949 182.815 63.9594 192.608 63.9594 192.608C63.9594 192.608 64.1313 178.176 79.0796 171.818C84.406 169.585 92.4814 172.162 92.4814 172.162C92.4814 172.162 94.1996 167.007 97.8078 166.836C102.103 166.664 104.337 170.272 104.337 170.272C104.337 170.272 105.883 167.007 109.663 166.836C113.787 166.664 115.505 170.272 115.505 170.272L126.33 153.262H132L142.481 170.272C142.481 170.272 152.274 161.166 161.381 165.461C167.738 168.554 168.082 176.629 168.082 176.629C168.082 176.629 182.686 167.007 194.885 176.629C203.648 183.674 203.305 194.842 203.305 194.842C203.305 194.842 213.786 190.031 225.126 191.749C231.998 192.952 239.215 198.45 244.369 203.261Z" fill="#E4E0FF"/>
<path d="M238.528 70.2739C238.356 70.2739 238.184 70.2739 238.012 70.2739H22.3794C18.5993 70.2739 15.3347 73.3667 15.3347 77.3185V200.341C15.3347 204.121 18.4275 207.385 22.3794 207.385H238.012C240.761 207.385 243.167 205.667 244.369 203.434C244.713 202.574 245.057 201.544 245.057 200.513V77.3185C245.057 73.5385 242.136 70.4457 238.528 70.2739ZM242.308 198.966C242.308 199.997 242.136 201.028 241.62 201.887C240.589 204.293 238.184 205.839 235.435 205.839H24.7848C21.0047 205.839 17.912 202.746 17.912 198.966V78.5213C17.912 74.7412 21.0047 71.6485 24.7848 71.6485H235.607C235.95 71.6485 236.466 71.6485 236.809 71.8203C240.074 72.3358 242.479 75.0849 242.479 78.5213V198.966H242.308Z" fill="#C8C2ED"/>
<path d="M25.9878 212.54H232.858C234.576 212.54 236.122 213.227 236.981 214.43L257.428 242.264C259.318 244.841 257.084 248.278 253.304 248.278H5.02585C1.24584 248.278 -0.987787 244.841 1.07404 242.092L22.036 214.258C22.7232 213.399 24.2696 212.54 25.9878 212.54Z" fill="#C8C2ED"/>
<path d="M30.9709 215.976H228.906C230.109 215.976 231.312 216.664 231.999 217.523L241.793 231.44C243.511 234.017 241.793 237.454 238.7 237.454H21.349C18.2562 237.454 16.5381 234.017 18.2563 231.44L27.8781 217.523C28.5654 216.492 29.5964 215.976 30.9709 215.976Z" fill="#E4E0FF"/>
<path d="M238.528 235.736H21.3488C19.4588 235.736 18.0842 234.362 17.5687 232.815C17.0533 235.049 18.7715 237.454 21.3488 237.454H238.528C241.105 237.454 242.823 235.049 242.308 232.815C241.964 234.362 240.418 235.736 238.528 235.736Z" fill="#AEABDB"/>
<path d="M59.6639 207.385H45.0593V212.712H59.6639V207.385Z" fill="#8B77E8"/>
<path d="M215.333 207.385H200.728V212.712H215.333V207.385Z" fill="#8B77E8"/>
<path d="M253.304 245.872H5.02554C2.79189 245.872 1.24556 244.67 0.558288 243.295C-0.472625 245.872 1.58916 248.622 5.02554 248.622H253.476C256.912 248.622 258.974 245.872 257.943 243.295C257.256 244.67 255.537 245.872 253.304 245.872Z" fill="#8B77E8"/>
<path d="M158.804 103.435L175.471 127.318L161.725 142.61L142.653 127.49L158.804 103.435Z" fill="#FE9736"/>
<path d="M102.275 103.435L85.7808 127.318L99.3545 142.61L118.426 127.49L102.275 103.435Z" fill="#FFA42F"/>
<path d="M138.357 6.18549C133.89 1.89002 130.625 0 130.625 0C130.625 0 127.704 1.89002 123.581 6.18549C128.22 7.90368 133.546 7.73186 138.357 6.18549Z" fill="#FF5B41"/>
<path d="M138.358 6.18604C133.547 7.73241 128.22 7.90422 123.409 6.18604C114.303 15.6361 99.3547 36.4262 99.3547 72.68C99.3547 98.4528 105.025 126.803 113.787 139.689H147.292C155.883 126.803 161.725 98.4528 161.725 72.68C161.725 35.0516 147.636 15.1206 138.358 6.18604Z" fill="#FFCC46"/>
<path d="M138.874 6.8728C147.637 17.5256 157.602 36.5975 157.602 68.384C157.602 94.1568 151.932 122.507 143.169 135.393H111.039C111.898 136.94 112.757 138.486 113.617 139.861H147.121C155.712 126.974 161.554 98.6241 161.554 72.8513C161.726 35.9102 148.152 15.9792 138.874 6.8728Z" fill="#FFA42F"/>
<path d="M146.776 66.6663C146.776 75.6008 139.56 82.8172 130.626 82.8172C129.251 82.8172 128.048 82.6454 126.845 82.3017C125.643 81.9581 124.44 81.6145 123.237 80.9272C122.722 80.7554 122.206 80.4118 121.863 80.0681C119.114 78.3499 116.88 75.6008 115.505 72.5081C114.646 70.6181 114.303 68.5562 114.303 66.3226C114.303 57.388 121.519 50.1716 130.454 50.1716C131.828 50.1716 133.031 50.3434 134.234 50.6871C137.498 51.5462 140.419 53.2644 142.653 55.8416C142.996 56.1853 143.34 56.7007 143.684 57.0444C144.371 58.0753 145.058 59.1062 145.574 60.3089C146.433 62.3708 146.776 64.4326 146.776 66.6663Z" fill="#3F327A"/>
<path d="M142.825 56.0125L121.863 80.4108C119.114 78.6926 116.88 75.9434 115.505 72.8507L134.405 50.8579C137.67 51.717 140.591 53.4352 142.825 56.0125Z" fill="#503DAD"/>
<path d="M145.574 60.4801L126.674 82.4729C125.471 82.1293 124.269 81.7857 123.066 81.0984L143.684 57.2156C144.543 58.2465 145.059 59.2774 145.574 60.4801Z" fill="#503DAD"/>
<path d="M117.223 22.3362C117.223 22.3362 100.385 50.3427 105.54 86.4247C105.54 86.4247 112.413 35.2226 126.673 22.3362H117.223Z" fill="#FFE194"/>
<path d="M123.925 141.236H134.75L129.423 161.51L123.925 141.236Z" fill="#FF5B41"/>
</svg>
