<svg width="827" height="644" viewBox="0 0 827 644" fill="none" xmlns="http://www.w3.org/2000/svg">
<path d="M459.888 556.674L405.822 640.973L339.236 617.788L361.864 537.478L459.888 556.674Z" fill="#FE9736"/>
<path d="M385.049 377.32L287.025 356.454L256.7 420.072L329.777 460.506L385.049 377.32Z" fill="#FFA42F"/>
<path d="M740.789 363.039C748.672 343.1 749.878 330.117 749.878 330.117C749.878 330.117 739.769 323.254 720.943 315.835C721.871 333.084 729.475 349.684 740.789 363.039Z" fill="#FF5B41"/>
<path d="M740.79 363.038C729.476 349.684 721.871 333.084 720.944 315.835C678.841 299.235 592.966 279.667 478.25 327.613C396.64 361.647 314.197 417.475 284.706 461.897L329.127 568.267C381.524 578.561 479.177 559.086 560.786 525.051C680.232 475.251 724.561 404.121 740.79 363.038Z" fill="#FFCC46"/>
<path d="M739.677 365.728C717.605 407.274 670.309 464.4 569.503 506.503C487.894 540.538 390.242 560.013 337.845 549.719L295.371 447.986C291.29 452.715 287.674 457.445 284.706 461.989L329.127 568.359C381.524 578.653 479.177 559.178 560.786 525.144C677.635 476.271 722.613 407.181 739.677 365.728Z" fill="#FFA42F"/>
<path d="M560.323 469.779C531.946 481.65 499.209 468.203 487.339 439.825C485.577 435.652 484.371 431.386 483.722 427.12C482.98 422.854 482.888 418.495 483.166 414.229C483.258 412.375 483.537 410.52 483.815 408.758C485.762 397.537 491.234 387.057 499.395 378.896C504.403 373.888 510.338 369.808 517.293 366.933C545.671 355.063 578.315 368.51 590.185 396.887C591.947 401.061 593.153 405.326 593.802 409.592C595.657 421.092 593.802 432.777 588.794 442.978C587.959 444.647 587.032 446.224 586.104 447.8C583.879 451.417 581.189 454.848 578.036 457.909C573.214 462.824 567.186 466.904 560.323 469.779Z" fill="#3F327A"/>
<path d="M588.886 442.885L483.907 408.758C485.855 397.537 491.326 387.057 499.487 378.896L593.894 409.592C595.749 421.092 593.894 432.777 588.886 442.885Z" fill="#503DAD"/>
<path d="M578.221 457.908L483.814 427.212C483.072 422.946 482.979 418.588 483.258 414.322L586.196 447.8C583.971 451.417 581.281 454.848 578.221 457.908Z" fill="#503DAD"/>
<path d="M449.409 358.773C449.409 358.773 546.598 302.11 670.032 321.956C670.032 321.956 494.016 343.193 448.945 391.416L449.409 358.773Z" fill="#FFE194"/>
<path d="M293.702 496.302L307.983 530.615L236.761 540.167L293.702 496.302Z" fill="#FF5B41"/>
<g filter="url(#filter0_b_205_4570)">
<path d="M198.393 209.711H393.883L323.217 198.675C323.217 198.675 322.847 177.438 299.569 186.063C299.569 186.063 297.715 169.926 279.723 169.092C261.732 168.35 262.938 183.652 262.938 183.652C262.938 183.652 240.124 168.721 226.677 183.281C213.323 197.841 234.56 201.828 234.56 201.828L198.393 209.711Z" fill="url(#paint0_radial_205_4570)" fill-opacity="0.3"/>
<path d="M234.661 201.294L234.676 202.36L203.448 209.166H386.868L323.133 199.213L322.681 199.142L322.673 198.685V198.685L322.673 198.685L322.673 198.683L322.673 198.674L322.672 198.634C322.67 198.597 322.668 198.542 322.664 198.469C322.656 198.322 322.641 198.106 322.614 197.833C322.56 197.286 322.458 196.511 322.263 195.606C321.874 193.791 321.122 191.484 319.678 189.45C318.242 187.426 316.12 185.668 312.96 184.925C309.788 184.179 305.513 184.441 299.759 186.573L299.108 186.815L234.661 201.294ZM234.661 201.294C234.661 201.293 234.661 201.293 234.661 201.293L234.661 201.293L234.661 201.293L234.658 201.293L234.649 201.291L234.607 201.282C234.569 201.275 234.513 201.263 234.439 201.248C234.292 201.216 234.076 201.167 233.805 201.1C233.262 200.965 232.499 200.757 231.625 200.462C229.868 199.869 227.696 198.939 225.944 197.584C224.195 196.23 222.922 194.499 222.819 192.296C222.716 190.081 223.787 187.238 227.078 183.65C233.6 176.588 242.41 176.641 249.714 178.533C253.358 179.477 256.594 180.872 258.92 182.033C260.082 182.614 261.016 183.134 261.657 183.509C261.977 183.696 262.225 183.847 262.391 183.95C262.474 184.002 262.537 184.042 262.579 184.068L262.626 184.098L262.637 184.105L262.639 184.107L262.64 184.107M234.661 201.294L262.64 184.107M262.64 184.107L262.64 184.107L263.568 184.715L263.481 183.609L263.481 183.609L263.481 183.609L263.481 183.609L263.48 183.603L263.479 183.575C263.477 183.55 263.475 183.511 263.473 183.458C263.469 183.354 263.465 183.198 263.466 182.998C263.468 182.599 263.49 182.025 263.572 181.336C263.734 179.957 264.133 178.136 265.067 176.345C265.998 174.56 267.463 172.802 269.773 171.531C272.085 170.258 275.28 169.454 279.7 169.636C288.501 170.045 293.31 174.18 295.938 178.189C297.258 180.203 298.033 182.195 298.477 183.684C298.698 184.428 298.837 185.044 298.92 185.471C298.961 185.685 298.989 185.852 299.006 185.963C299.014 186.019 299.02 186.061 299.024 186.088L299.028 186.118L299.028 186.124L299.028 186.125L299.028 186.125L262.64 184.107Z" stroke="white" stroke-opacity="0.2" stroke-width="1.08906"/>
<path d="M826.036 122.278H710.763L752.402 115.786C752.402 115.786 752.68 103.266 766.313 108.367C766.313 108.367 767.425 98.8151 777.997 98.3514C788.57 97.8877 787.92 106.976 787.92 106.976C787.92 106.976 801.367 98.1659 809.25 106.698C817.133 115.23 804.613 117.641 804.613 117.641L826.036 122.278Z" fill="url(#paint1_radial_205_4570)" fill-opacity="0.3"/>
<path d="M787.377 106.937L787.377 106.936L787.378 106.921C787.379 106.908 787.38 106.886 787.381 106.856C787.383 106.797 787.385 106.708 787.383 106.593C787.381 106.362 787.366 106.029 787.316 105.63C787.217 104.828 786.982 103.775 786.441 102.742C785.903 101.715 785.064 100.708 783.745 99.9801C782.424 99.2512 780.586 98.7829 778.021 98.8954C772.931 99.1187 770.162 101.514 768.646 103.831C767.882 105 767.432 106.157 767.173 107.023C767.044 107.455 766.964 107.813 766.915 108.06C766.891 108.183 766.876 108.279 766.866 108.342C766.861 108.374 766.858 108.397 766.856 108.412L766.854 108.428L766.853 108.43L766.853 108.43L766.853 108.431L766.853 108.431L766.773 109.121L766.122 108.877C762.778 107.626 760.319 107.48 758.512 107.905C756.717 108.326 755.511 109.324 754.689 110.479C753.86 111.645 753.42 112.973 753.19 114.026C753.076 114.549 753.015 114.998 752.982 115.314C752.966 115.472 752.957 115.596 752.952 115.679C752.949 115.72 752.948 115.752 752.947 115.772L752.946 115.794L752.946 115.798V115.798L752.946 115.799L752.946 115.799L752.936 116.254L752.486 116.324L717.79 121.733H820.946L804.498 118.173L804.51 117.107C804.51 117.106 804.51 117.106 804.51 117.106L804.51 117.106L804.511 117.106L804.516 117.105L804.539 117.1C804.56 117.096 804.593 117.089 804.635 117.08C804.72 117.061 804.845 117.032 805.002 116.993C805.318 116.913 805.761 116.789 806.27 116.615C807.295 116.265 808.549 115.721 809.553 114.939C810.555 114.159 811.252 113.19 811.307 111.982C811.363 110.763 810.773 109.149 808.85 107.067C805.111 103.02 800.035 103.049 795.767 104.164C793.641 104.72 791.75 105.538 790.388 106.22C789.709 106.56 789.163 106.865 788.789 107.084C788.602 107.193 788.458 107.281 788.361 107.341C788.313 107.371 788.276 107.395 788.252 107.41L788.226 107.427L788.22 107.431L788.219 107.431L788.219 107.432L787.299 108.034L787.377 106.937ZM787.377 106.937L787.377 106.938L787.377 106.938L787.377 106.937Z" stroke="white" stroke-opacity="0.2" stroke-width="1.08906"/>
</g>
<path d="M461.277 62.4751C461.277 62.4751 467.862 60.9913 469.531 63.217C471.2 65.4427 473.333 74.3455 469.995 76.1075C466.656 77.8695 461.741 63.7735 461.741 63.7735L461.277 62.4751Z" fill="#ED7E94"/>
<path d="M548.451 75.5515C553.644 69.6163 537.044 82.0431 537.044 82.0431C537.044 82.0431 537.137 82.785 537.137 83.9906C540.012 84.2688 542.886 83.8978 545.761 83.1559C545.947 80.4665 546.596 77.6844 548.451 75.5515Z" fill="#ED7E94"/>
<path d="M554.015 57.7456C550.213 62.8462 542.701 65.2573 542.979 71.9344C543.257 75.1802 545.39 76.9423 548.08 77.6842C553.644 75.3658 559.301 72.8618 559.487 72.1199C559.857 70.7289 555.87 64.6081 555.87 64.6081L558.281 61.9188L554.015 57.7456Z" fill="#FF96A9"/>
<path d="M543.072 71.8415C542.794 65.1644 550.306 62.7532 554.108 57.6526L550.491 54.1287C540.105 54.9633 527.585 72.5835 527.585 72.5835L537.137 81.95C537.137 81.95 542.701 79.8169 548.265 77.4985C545.391 76.8493 543.258 75.1801 543.072 71.8415Z" fill="#ED7E94"/>
<path d="M536.024 70.7288C536.024 70.7288 556.983 58.9511 565.793 35.0248C565.793 35.0248 544.834 42.1655 522.577 74.3454C522.577 74.3454 526.101 81.579 537.044 82.0427L536.581 75.3656C536.581 75.3656 529.162 75.2728 530.924 71.4706C532.593 67.7611 536.024 70.7288 536.024 70.7288Z" fill="#322666"/>
<path d="M450.15 62.9391C447.368 64.1447 444.586 66.2777 442.267 69.338C438.558 74.0676 438.187 83.0631 440.784 93.7279C441.618 93.9134 442.36 93.9135 443.195 94.0062C442.175 89.6475 441.711 85.0106 442.082 80.1883C442.731 73.7894 445.791 67.8542 450.15 62.9391Z" fill="#ED7E94"/>
<path d="M453.86 91.3168C453.489 90.3894 453.21 89.3693 452.932 88.3492C452.932 88.3492 467.585 84.6397 467.77 72.5838C467.956 63.4955 458.867 59.0441 450.15 62.8464C445.791 67.7615 442.731 73.6966 442.082 80.0955C441.711 84.9179 442.175 89.4621 443.195 93.9135C446.812 94.0989 450.428 93.0788 453.86 91.3168Z" fill="#FF96A9"/>
<path d="M691.174 2.10303C687.279 6.64717 682.643 10.5421 677.078 13.3243C679.675 17.9611 679.304 23.989 676.707 28.4404C675.316 31.5008 672.441 34.2829 668.546 34.0047C666.042 34.0974 663.075 33.0774 662.147 30.388C659.644 32.3355 657.14 34.3756 654.636 36.3231C655.192 37.436 655.749 38.5489 656.12 39.7545L660.293 36.5087C660.293 36.5087 672.256 41.702 679.397 29.4606C686.63 17.2193 679.118 14.4371 679.118 14.4371C679.118 14.4371 690.062 6.55443 691.174 2.10303Z" fill="#ED7E94"/>
<path d="M668.547 34.0049C672.442 34.2831 675.317 31.501 676.708 28.4406C679.397 24.082 679.675 17.9613 677.079 13.3245C682.643 10.5423 687.28 6.64737 691.175 2.10323C691.267 1.63954 691.267 1.17585 691.175 0.712165C689.691 -3.18282 672.071 10.1714 672.071 10.1714L647.681 28.3479C650.648 30.3881 652.967 33.1702 654.636 36.3233C657.14 34.3758 659.644 32.4284 662.148 30.3882C663.075 33.0776 665.95 34.0976 668.547 34.0049Z" fill="#FF96A9"/>
<path d="M515.622 125.908C503.566 132.492 490.954 138.891 477.6 142.971C465.265 130.081 450.52 115.985 444.585 99.0137C443.75 99.0137 443.008 99.0136 442.174 98.9209C447.553 115.892 459.794 135.923 477.878 150.39L515.529 131.75L517.477 130.545C517.106 128.968 516.457 127.391 515.622 125.908Z" fill="#F2F2F2"/>
<path d="M564.865 102.723L569.687 99.8479L617.54 69.3374L652.688 42.3506C652.131 41.2378 651.482 40.2177 650.833 39.1976C622.733 61.0837 593.799 82.2279 561.897 98.5497C563.103 99.848 564.03 101.239 564.865 102.723Z" fill="#F2F2F2"/>
<path d="M609.009 57.1892L547.246 92.7077L534.262 98.4574L486.781 129.432C486.781 129.432 464.987 117.098 455.435 95.5826C452.19 97.6228 448.387 98.9212 444.585 99.014C450.52 115.985 465.265 130.174 477.6 142.971C491.046 138.891 503.566 132.492 515.622 125.908C516.457 127.392 517.106 128.968 517.57 130.637L564.866 102.723C564.031 101.332 563.011 99.9413 561.805 98.643C593.8 82.3212 622.641 61.177 650.741 39.2909C648.793 36.3233 646.289 33.7266 643.507 31.4082L609.009 57.1892Z" fill="white"/>
<path d="M647.587 28.4409L643.6 31.4086C647.309 34.3762 650.462 38.1784 652.688 42.3516L656.119 39.755C654.357 35.2108 651.575 31.1303 647.587 28.4409Z" fill="#F2F2F2"/>
<path d="M455.436 95.4897C454.879 94.0987 454.323 92.7076 453.766 91.3165C449.686 93.3568 445.142 94.4696 440.69 93.7277C441.061 95.397 441.618 97.159 442.174 98.921C446.718 99.3847 451.541 98.0864 455.436 95.4897Z" fill="#F2F2F2"/>
<path d="M668.546 23.8037C670.401 18.7958 668.824 13.2316 665.207 9.42932C664.651 9.24384 664.095 9.33667 663.538 9.52215C658.809 11.6551 656.954 21.3926 656.119 22.0417L663.353 19.816C663.353 19.816 663.167 21.2997 663.353 22.8763C663.631 23.2472 663.909 23.711 664.28 24.0819C665.671 25.2875 667.526 25.4729 668.546 23.8037Z" fill="#FF96A9"/>
<path d="M665.3 9.33691C668.917 13.1392 670.401 18.7034 668.639 23.7112C667.526 25.3805 665.764 25.1951 664.465 23.9895C664.187 23.6186 663.816 23.2476 663.538 22.7839C663.816 25.195 664.836 27.7917 668.546 25.937C673.925 23.2476 669.659 10.6352 665.3 9.33691Z" fill="#ED7E94"/>
<path d="M591.111 162.818C574.233 177.192 554.758 186.929 535.654 197.409C536.025 189.433 534.726 181.643 532.593 174.039L505.329 177.007C505.329 177.007 473.705 222.262 517.292 213.267C560.878 204.271 582.208 178.769 582.208 178.769C564.217 201.86 557.354 250.733 556.334 258.894C565.979 231.443 577.757 207.053 587.309 179.139C589.256 173.761 591.111 168.382 591.111 162.818Z" fill="#322666"/>
<path d="M540.383 173.297L532.686 174.132C534.819 181.736 536.117 189.526 535.746 197.501C554.943 187.022 574.325 177.285 591.203 162.91C591.11 168.474 589.256 173.853 587.401 179.232C577.849 207.146 566.071 231.536 556.426 258.986C556.334 259.728 556.241 260.192 556.241 260.192C621.714 190.268 626.258 137.964 626.258 137.964C582.486 148.814 540.383 173.297 540.383 173.297Z" fill="#3F327A"/>
<path d="M456.456 261.212C467.399 228.383 488.265 200.19 511.356 175.058C509.131 175.615 507.091 176.264 505.328 177.006C493.087 182.385 450.242 257.966 450.242 257.966C422.514 269.929 387.459 329.745 387.459 329.745L390.983 327.334C394.971 321.862 398.866 316.483 403.039 310.734C418.062 289.96 434.199 272.433 456.456 261.212Z" fill="#322666"/>
<path d="M511.45 175.152C488.265 200.284 467.399 228.476 456.549 261.305C434.292 272.526 418.063 290.054 403.225 310.92C399.052 316.669 395.157 322.048 391.169 327.52L477.415 268.91C520.909 225.787 540.477 173.39 540.477 173.39C540.477 173.39 523.876 172.091 511.45 175.152Z" fill="#3F327A"/>
<path d="M531.48 175.43C530.645 175.244 529.81 174.966 529.069 174.688C515.251 169.587 518.218 153.544 519.053 141.673C519.238 136.48 518.404 130.823 515.714 125.815C514.973 126.186 514.231 126.65 513.581 127.021L515.714 131.658C515.714 131.658 514.045 163.281 506.812 175.059C514.416 180.53 523.319 179.418 531.48 175.43Z" fill="#F2F2F2"/>
<path d="M506.719 175.152C506.256 175.894 505.792 176.543 505.328 177.099C505.328 177.099 515.715 188.97 535.932 176.265C534.448 176.079 532.871 175.894 531.387 175.43C523.319 179.418 514.416 180.531 506.719 175.152Z" fill="#322666"/>
<path d="M536.024 176.264C537.415 175.43 538.898 174.41 540.382 173.297C540.382 173.297 540.104 172.091 540.104 170.051C537.415 172.184 534.54 174.039 531.479 175.523C532.963 175.801 534.447 176.079 536.024 176.264Z" fill="#322666"/>
<path d="M569.689 99.8483C565.979 92.7075 565.979 92.7075 565.979 92.7075L512.655 125.444L513.397 127.113C514.139 126.742 514.881 126.371 515.53 125.908C518.22 130.915 519.054 136.572 518.869 141.766C518.127 153.543 515.066 169.587 528.884 174.78C529.719 175.059 530.554 175.337 531.296 175.522C534.263 174.038 537.231 172.184 539.92 170.051C539.92 165.228 541.404 155.862 551.791 146.217C566.814 132.492 579.612 118.859 569.689 99.8483Z" fill="white"/>
<path d="M392.095 322.418L378.741 320.007L385.511 374.352L392.095 322.418Z" fill="#322666"/>
<path d="M557.352 252.124L544.462 249.064L559.393 303.315L557.352 252.124Z" fill="#322666"/>
<path d="M534.262 98.4568L544.834 104.763L547.152 92.7071C547.152 92.7071 545.483 88.0703 545.668 83.2479C542.794 83.9898 539.919 84.3607 537.044 84.0825C537.229 87.3283 537.044 94.0981 534.262 98.4568Z" fill="#FF96A9"/>
<path d="M531.479 101.703L543.443 114.779L545.576 105.784L552.438 110.142L550.398 92.1511L551.325 107.731L544.926 104.763L542.793 111.719L531.479 101.703Z" fill="#F2F2F2"/>
<path d="M545.577 105.784L544.557 110.235L548.544 112.09L549.101 108.01L545.577 105.784Z" fill="#DB4A87"/>
<path d="M503.288 182.663L527.493 184.611C527.493 184.611 560.507 132.121 547.802 109.586C548.637 113.481 549.471 117.283 548.08 121.271C539.456 146.125 525.174 168.753 503.288 182.663Z" fill="#E5649A"/>
<path d="M505.607 158.366L503.288 182.663C525.174 168.752 539.456 146.124 548.08 121.178C549.471 117.19 548.637 113.481 547.802 109.493C547.802 109.493 547.802 109.493 547.802 109.4C547.709 109.493 547.524 145.846 505.607 158.366Z" fill="#DB4A87"/>
<path d="M564.031 120.992C560.322 122.383 556.798 122.754 556.612 122.754C556.241 122.754 555.963 122.569 555.963 122.198C555.963 121.827 556.148 121.548 556.519 121.548C556.612 121.548 564.402 120.714 568.946 117.004C569.224 116.819 569.595 116.819 569.781 117.097C569.966 117.375 569.966 117.746 569.688 117.932C568.019 119.323 565.979 120.25 564.031 120.992Z" fill="#F2F2F2"/>
<path d="M443.848 97.3722C444.328 97.1947 444.516 96.5056 444.268 95.8331C444.019 95.1605 443.428 94.7591 442.948 94.9366C442.468 95.1141 442.28 95.8033 442.528 96.4759C442.777 97.1485 443.368 97.5497 443.848 97.3722Z" fill="#FEF2FE"/>
<path d="M653.942 40.0028C654.423 39.8253 654.668 39.2919 654.491 38.8115C654.313 38.3311 653.78 38.0855 653.3 38.263C652.819 38.4406 652.574 38.9739 652.751 39.4544C652.929 39.9348 653.462 40.1803 653.942 40.0028Z" fill="#FEF2FE"/>
<g filter="url(#filter1_b_205_4570)">
<path d="M225.723 543.97L228.135 543.042L140.776 561.775C140.776 561.775 130.853 537.107 107.576 557.602C107.576 557.602 98.1164 539.611 76.8795 546.752C55.5498 553.893 63.8035 571.234 63.8035 571.234C63.8035 571.234 30.5107 564.001 21.3297 587C12.2414 609.999 38.7643 605.084 38.7643 605.084L0 630.494L57.1264 615.192C57.1264 615.192 51.0057 631.05 69.1823 641.622C87.3588 652.194 117.035 616.676 117.035 616.676C117.035 616.676 122.135 633.183 138.272 626.043C154.408 618.902 149.679 601.281 149.679 601.281C174.439 602.209 166.279 579.766 166.279 579.766L225.723 543.97Z" fill="url(#paint2_radial_205_4570)" fill-opacity="0.3"/>
<path d="M223.706 544.549L140.89 562.308L140.442 562.404L140.271 561.979L140.271 561.979L140.27 561.976L140.265 561.965L140.245 561.917C140.227 561.874 140.199 561.81 140.161 561.725C140.086 561.556 139.971 561.308 139.817 560.999C139.507 560.379 139.039 559.514 138.405 558.538C137.134 556.581 135.214 554.203 132.602 552.456C130 550.715 126.709 549.598 122.656 550.147C118.592 550.698 113.703 552.932 107.936 558.011L107.416 558.468L107.094 557.856L107.094 557.856L107.094 557.856L107.093 557.854L107.089 557.847L107.07 557.813C107.053 557.782 107.027 557.734 106.992 557.672C106.921 557.548 106.812 557.365 106.667 557.133C106.375 556.668 105.932 556.008 105.335 555.236C104.14 553.691 102.33 551.706 99.8737 549.941C94.9795 546.426 87.4864 543.76 77.053 547.268L77.0523 547.268C71.7932 549.029 68.4019 551.403 66.2536 553.941C64.107 556.478 63.1747 559.21 62.8838 561.733C62.5922 564.263 62.9452 566.584 63.375 568.279C63.5895 569.125 63.822 569.811 64 570.283C64.089 570.519 64.1641 570.701 64.2164 570.823C64.2425 570.884 64.2629 570.93 64.2765 570.96L64.2914 570.992L64.2947 571L64.2952 571L223.706 544.549ZM223.706 544.549L165.998 579.3L165.614 579.531L165.767 579.952L165.767 579.952L223.706 544.549Z" stroke="white" stroke-opacity="0.2" stroke-width="1.08906"/>
</g>
<defs>
<filter id="filter0_b_205_4570" x="165.721" y="65.6625" width="692.986" height="176.72" filterUnits="userSpaceOnUse" color-interpolation-filters="sRGB">
<feFlood flood-opacity="0" result="BackgroundImageFix"/>
<feGaussianBlur in="BackgroundImage" stdDeviation="16.3359"/>
<feComposite in2="SourceAlpha" operator="in" result="effect1_backgroundBlur_205_4570"/>
<feBlend mode="normal" in="SourceGraphic" in2="effect1_backgroundBlur_205_4570" result="shape"/>
</filter>
<filter id="filter1_b_205_4570" x="-32.6717" y="510.371" width="293.478" height="165.889" filterUnits="userSpaceOnUse" color-interpolation-filters="sRGB">
<feFlood flood-opacity="0" result="BackgroundImageFix"/>
<feGaussianBlur in="BackgroundImage" stdDeviation="16.3359"/>
<feComposite in2="SourceAlpha" operator="in" result="effect1_backgroundBlur_205_4570"/>
<feBlend mode="normal" in="SourceGraphic" in2="effect1_backgroundBlur_205_4570" result="shape"/>
</filter>
<radialGradient id="paint0_radial_205_4570" cx="0" cy="0" r="1" gradientUnits="userSpaceOnUse" gradientTransform="translate(381.383 171.259) rotate(164.455) scale(115.684 62.2847)">
<stop stop-color="white" stop-opacity="0.700689"/>
<stop offset="1" stop-color="#F8FFF8" stop-opacity="0.246825"/>
</radialGradient>
<radialGradient id="paint1_radial_205_4570" cx="0" cy="0" r="1" gradientUnits="userSpaceOnUse" gradientTransform="translate(818.664 99.6263) rotate(164.47) scale(68.2095 36.6934)">
<stop stop-color="white" stop-opacity="0.700689"/>
<stop offset="1" stop-color="#F8FFF8" stop-opacity="0.246825"/>
</radialGradient>
<radialGradient id="paint2_radial_205_4570" cx="0" cy="0" r="1" gradientUnits="userSpaceOnUse" gradientTransform="translate(213.546 548.468) rotate(149.475) scale(150.99 137.761)">
<stop stop-color="white" stop-opacity="0.700689"/>
<stop offset="1" stop-color="#F8FFF8" stop-opacity="0.246825"/>
</radialGradient>
</defs>
</svg>
