<svg width="252" height="247" viewBox="0 0 252 247" fill="none" xmlns="http://www.w3.org/2000/svg">
<path d="M214.217 79.9443C214.217 79.9443 210.191 79.8398 210.243 81.4086C210.295 82.9774 209.092 88.3637 211.916 89.5664C214.688 90.8215 214.217 79.9443 214.217 79.9443Z" fill="#ED7E94"/>
<path d="M99.6947 177.89C99.5901 177.89 99.5378 177.89 99.4332 177.838C98.9626 177.733 98.7011 177.263 98.8057 176.792C98.8057 176.74 100.218 171.51 97.603 167.588C96.0864 165.287 93.4195 163.875 89.7589 163.405C84.6342 162.725 80.6599 164.451 78.0452 168.582C76.0057 171.719 75.5351 175.119 75.5351 175.119C75.4828 175.589 75.0644 175.903 74.5415 175.851C74.0709 175.798 73.7571 175.328 73.8094 174.857C73.8094 174.7 76.0057 159.797 89.9681 161.627C94.1516 162.202 97.2369 163.876 99.0672 166.595C102.1 171.144 100.531 176.949 100.479 177.21C100.427 177.629 100.061 177.89 99.6947 177.89Z" fill="#E8462C"/>
<path d="M177.769 71.2637L164.696 73.5123L164.173 74.4535C166.735 75.7608 169.455 76.4931 172.278 76.9114C174.37 73.5123 177.769 71.2637 177.769 71.2637Z" fill="#ED7E94"/>
<path d="M173.062 67.3419C175.154 63.3676 180.121 62.4263 184.148 60.2299L182.893 57.04C150.576 58.3474 164.747 73.5126 164.747 73.5126C164.747 73.5126 170.447 73.7739 175.781 73.9308C173.062 72.4143 171.388 70.3749 173.062 67.3419Z" fill="#ED7E94"/>
<path d="M184.096 60.2295C180.07 62.4781 175.154 63.3672 173.01 67.3415C171.389 70.3745 173.062 72.4139 175.677 73.9304C180.122 74.035 184.305 74.0873 184.724 73.8258C185.665 73.2506 183.73 66.4002 183.73 66.4002L185.979 65.1974L184.096 60.2295Z" fill="#FF96A9"/>
<path d="M170.395 64.361C170.395 64.361 188.332 60.439 197.013 48.5161C197.013 48.5161 166.682 53.3271 157.74 64.7271C157.74 64.7271 159.832 70.6362 164.695 73.5647L167.624 67.5509C167.624 67.5509 164.277 64.5702 166.316 62.583C168.356 60.5959 170.395 64.361 170.395 64.361Z" fill="#2E2362"/>
<path d="M86.882 168.582C81.548 165.183 80.5022 159.483 80.659 153.678C79.404 154.201 78.1489 154.829 76.9462 155.508C76.4756 162.934 78.1489 169.105 83.9012 171.563C91.6407 174.805 95.615 172.452 96.87 168.477C93.6801 170.046 89.6012 170.255 86.882 168.582Z" fill="#ED7E94"/>
<path d="M88.0325 154.149L88.9738 152.319C86.1499 151.953 83.3261 152.58 80.6591 153.626C80.5022 159.379 81.5481 165.079 86.882 168.53C89.6013 170.256 93.7325 169.994 96.8701 168.425C98.7004 162.568 94.6215 153.313 88.0325 154.149Z" fill="#FF96A9"/>
<path d="M215.891 89.5141C213.694 86.2719 212.753 82.5067 213.224 78.8984C211.027 83.9709 212.439 92.3903 221.015 95.2141C221.015 95.2141 220.859 95.7893 220.597 96.7306C221.591 97.0444 222.584 97.2536 223.578 97.3059C223.892 95.9985 224.153 94.6388 224.31 93.2792C220.911 93.959 217.982 92.0241 215.891 89.5141Z" fill="#ED7E94"/>
<path d="M231.579 95.6851C231.317 88.7824 228.807 82.1934 222.637 76.7549C218.506 73.0943 214.845 75.0291 213.224 78.8989C212.753 82.5071 213.695 86.2723 215.891 89.5145C217.983 92.0246 220.911 93.9595 224.31 93.3319C224.153 94.6916 223.892 96.0512 223.578 97.3585C226.297 97.5154 229.069 96.8879 231.579 95.6851Z" fill="#FF96A9"/>
<path d="M95.1968 114.249C104.662 105.254 114.65 97.2535 125.318 90.1416C114.179 96.3122 97.55 106.248 90.961 113.569C90.961 113.569 80.0317 134.277 77.417 151.116C78.5675 150.541 79.7179 150.018 80.9207 149.652C82.3326 136.526 85.7317 123.087 95.1968 114.249Z" fill="#5B5BCB"/>
<path d="M178.763 108.915C178.344 110.798 177.508 112.419 176.566 113.987C182.999 122.93 197.222 141.076 208.936 144.056C208.936 144.056 214.741 137.729 220.493 128.577C215.996 133.075 211.132 137.154 205.223 139.873C193.457 132.395 183.417 122.302 178.763 108.915Z" fill="#5B5BCB"/>
<path d="M222.794 100.13C220.964 105.725 217.774 110.641 213.747 114.824C211.446 119.269 208.727 123.139 205.694 124.76L182.632 87.4222L170.657 81.7744L160.565 81.0947L135.987 84.3891C135.987 84.3891 131.489 86.69 125.266 90.1414C114.598 97.2533 104.61 105.254 95.1453 114.249C85.6801 123.034 82.2811 136.526 80.8691 149.652C84.0068 148.658 87.3013 148.449 90.3343 149.495L107.068 117.7L133.581 104.941L173.01 108.863C173.01 108.863 174.318 110.85 176.462 113.883C177.403 112.314 178.24 110.693 178.658 108.81C183.312 122.197 193.353 132.29 205.066 139.768C210.976 137.049 215.839 132.97 220.336 128.473C225.513 120.263 230.586 109.752 231.37 99.502C228.703 100.443 225.722 100.6 222.794 100.13Z" fill="#8B77E8"/>
<path d="M222.793 100.13C221.799 99.9731 220.806 99.7117 219.812 99.3979C218.609 103.372 216.518 109.491 213.746 114.825C217.825 110.641 220.963 105.725 222.793 100.13Z" fill="#5B5BCB"/>
<path d="M231.527 99.607C231.631 98.2996 231.684 96.9924 231.631 95.7373C228.18 97.3584 224.258 97.9859 220.65 96.7832C220.44 97.463 220.179 98.4042 219.865 99.4501C223.63 100.601 227.709 100.757 231.527 99.607Z" fill="#F6DEF8"/>
<path d="M77.4169 151.168C77.2078 152.632 76.9986 154.044 76.9463 155.456C80.6591 153.365 84.7903 151.796 88.9738 152.319L90.438 149.547C86.2022 148.031 81.4958 149.024 77.4169 151.168Z" fill="#F6DEF8"/>
<path d="M177.088 84.8075C177.088 84.8075 179.86 104.941 173.689 117.02C167.466 129.048 154.863 138.199 151.412 151.743C147.961 165.235 129.972 157.862 129.972 157.862L155.909 81.7745L160.668 81.147L170.761 81.8268L177.088 84.8075Z" fill="#FEF2FE"/>
<path d="M105.028 235.361C84.7385 228.72 65.8082 219.411 46.5642 209.894C41.3348 207.175 36.8898 203.514 32.1834 199.906C30.9807 199.017 29.8302 198.233 28.6798 197.553C27.9477 197.501 27.5293 197.448 27.5293 197.448C44.4724 217.424 106.754 245.663 106.754 245.663C120.926 233.845 132.012 216.901 139.908 201.632C129.397 213.921 117.37 224.798 105.028 235.361Z" fill="#5B5BCB"/>
<path d="M152.301 173.445C154.027 168.739 154.864 165.915 154.864 165.915C154.864 165.915 152.981 166.124 149.53 166.386C144.405 166.752 135.829 167.222 125.161 167.275C116.167 167.275 110.519 175.171 106.963 184.427C103.616 193.108 102.152 203.043 101.524 208.953C110.257 188.872 132.744 180.505 152.301 173.445Z" fill="#5B5BCB"/>
<path d="M101.576 208.9C101.21 212.143 101.158 214.182 101.158 214.182C80.2929 202.416 36.4186 198.18 28.7314 197.553C29.8819 198.285 31.0324 199.017 32.2351 199.906C36.9415 203.514 41.3342 207.122 46.6159 209.894C65.8599 219.464 84.7901 228.72 105.08 235.361C117.421 224.798 129.449 213.921 139.96 201.632C145.817 190.388 149.948 180.034 152.353 173.393C132.743 180.505 110.257 188.872 101.576 208.9Z" fill="#8B77E8"/>
<path d="M156.8 85.2261L161.977 98.927L166.892 91.5013L170.814 98.7178L175.521 85.6967L170.553 96.0508L166.736 90.8215L162.552 96.4168L156.8 85.2261Z" fill="#F6DEF8"/>
<path d="M192.724 147.926C184.67 157.914 173.009 163.667 161.347 169.158C151.987 173.707 141.476 179.198 130.756 176.269C136.926 169.21 141.842 160.947 144.614 151.953C135.358 157.182 129.971 161.313 129.971 161.313L116.375 177.786C152.928 201.266 188.592 162.621 188.592 162.621C187.18 194.781 215.68 234.943 215.68 234.943C215.733 234.734 215.733 234.524 215.785 234.368C201.718 207.959 192.671 178.047 192.724 147.926Z" fill="#5B5BCB"/>
<path d="M206.948 130.722C180.749 133.912 158.42 144.213 144.666 152.005C141.895 161 136.979 169.21 130.809 176.322C141.529 179.198 152.04 173.759 161.4 169.21C173.062 163.719 184.671 157.967 192.776 147.979C192.724 178.1 201.771 208.012 215.89 234.472C222.688 187.199 206.948 130.722 206.948 130.722Z" fill="#8B77E8"/>
<path d="M158.158 81.4609C158.158 81.4609 163.858 151.168 112.349 183.799C112.349 183.799 98.3343 175.903 99.5371 148.501C99.5371 148.501 129.501 143.847 131.802 128.839C134.103 113.831 133.685 104.993 133.685 104.993L136.038 84.4416L158.158 81.4609Z" fill="#8B77E8"/>
<path d="M174.318 83.5005C174.318 83.5005 176.253 118.171 160.617 135.062C160.617 135.062 180.907 120.786 185.98 108.811L178.554 100.444L182.999 98.195L179.129 85.8015L174.318 83.5005Z" fill="#5B5BCB"/>
<path d="M212.074 229.504L211.133 246.343L251.085 211.672L212.074 229.504Z" fill="#2E2362"/>
<path d="M33.3338 197.971L28.8889 184.479L-0.395508 228.981L33.3338 197.971Z" fill="#2E2362"/>
<path d="M65.2852 173.289L108.48 176.792L95.1971 224.118L51.2705 216.535L65.2852 173.289Z" fill="#FF5B41"/>
<path d="M108.479 176.792L114.231 220.143L95.1963 224.118L108.479 176.792Z" fill="#E8462C"/>
<path d="M65.2852 173.289L78.5677 197.134L108.48 176.792L65.2852 173.289Z" fill="#E8462C"/>
<path d="M80.8131 197.376C81.3017 195.177 80.715 193.176 79.5026 192.906C78.2903 192.637 76.9114 194.201 76.4228 196.4C75.9342 198.6 76.5209 200.601 77.7332 200.87C78.9455 201.139 80.3244 199.575 80.8131 197.376Z" fill="#2E2362"/>
<path d="M164.173 74.4536L160.617 81.095L166.788 90.7693L170.71 81.7747C170.762 79.9967 171.39 78.3234 172.279 76.9115C169.455 76.4932 166.736 75.761 164.173 74.4536Z" fill="#FF96A9"/>
<path d="M158.158 81.4609L152.877 82.193L148.85 93.7499L153.086 97.8288L141.006 100.444C141.006 100.444 150.942 132.081 143.307 150.593C161.139 117.962 158.158 81.4609 158.158 81.4609Z" fill="#5B5BCB"/>
<path d="M166.891 91.5015L164.434 95.2144L166.735 98.8226L168.826 95.1097L166.891 91.5015Z" fill="#DB4A87"/>
<path d="M167.049 95.9984C166.996 95.7369 166.944 95.4231 166.892 95.1616C166.892 95.1616 159.675 123.086 115.069 126.015L105.499 142.906C121.867 141.389 136.875 134.905 150.105 124.289C158.891 117.334 166.526 107.189 167.049 95.9984Z" fill="#FC5BA3"/>
<path d="M167.049 95.9985C166.526 107.189 158.891 117.334 150.105 124.289C136.927 134.853 121.867 141.389 105.499 142.906V142.958L124.22 152.214C124.22 152.214 173.01 128.316 167.049 95.9985Z" fill="#F73E91"/>
<path d="M162.861 121.617C163.052 120.981 163.028 120.411 162.807 120.345C162.585 120.278 162.251 120.74 162.059 121.376C161.868 122.012 161.892 122.582 162.114 122.648C162.335 122.715 162.669 122.253 162.861 121.617Z" fill="#F6DEF8"/>
<path d="M149.269 146.975C149.548 146.373 149.605 145.805 149.395 145.708C149.185 145.611 148.789 146.021 148.51 146.624C148.23 147.226 148.174 147.794 148.383 147.891C148.593 147.988 148.99 147.578 149.269 146.975Z" fill="#F6DEF8"/>
<path d="M155.616 134.654C155.933 134.07 156.025 133.507 155.822 133.397C155.619 133.287 155.198 133.671 154.881 134.255C154.564 134.839 154.472 135.401 154.675 135.511C154.878 135.622 155.3 135.238 155.616 134.654Z" fill="#F6DEF8"/>
<path d="M182.632 108.34C182.527 108.34 182.475 108.287 182.37 108.235L180.017 105.045C179.912 104.941 179.965 104.731 180.069 104.627C180.174 104.522 180.383 104.574 180.488 104.679L182.841 107.869C182.945 107.974 182.893 108.183 182.789 108.287C182.736 108.287 182.684 108.34 182.632 108.34Z" fill="#8B77E8"/>
<path d="M138.68 153.779C139.488 153.757 140.126 153.085 140.105 152.276C140.083 151.468 139.411 150.83 138.602 150.852C137.794 150.873 137.156 151.546 137.178 152.354C137.199 153.162 137.872 153.8 138.68 153.779Z" fill="#5B5BCB"/>
<path d="M134.865 159.269C135.731 159.246 136.415 158.525 136.392 157.659C136.369 156.793 135.648 156.11 134.782 156.133C133.916 156.156 133.232 156.876 133.255 157.742C133.278 158.609 133.999 159.292 134.865 159.269Z" fill="#5B5BCB"/>
<path d="M79.2079 153.361C79.6699 153.349 80.0344 152.965 80.0221 152.503C80.0098 152.041 79.6254 151.676 79.1635 151.689C78.7016 151.701 78.3371 152.085 78.3494 152.547C78.3617 153.009 78.746 153.374 79.2079 153.361Z" fill="#FEF2FE"/>
<path d="M79.996 147.922C80.5445 147.908 80.9774 147.452 80.9629 146.903C80.9483 146.355 80.4919 145.922 79.9434 145.936C79.3949 145.951 78.962 146.407 78.9765 146.956C78.991 147.504 79.4475 147.937 79.996 147.922Z" fill="#8B77E8"/>
<path d="M80.5712 144.679C81.1197 144.664 81.5526 144.208 81.538 143.659C81.5235 143.111 81.0671 142.678 80.5186 142.692C79.97 142.707 79.5372 143.163 79.5517 143.712C79.5662 144.26 80.0226 144.693 80.5712 144.679Z" fill="#8B77E8"/>
<path d="M81.4589 141.229C82.0074 141.214 82.4403 140.758 82.4258 140.209C82.4112 139.661 81.9548 139.228 81.4063 139.242C80.8577 139.257 80.4249 139.713 80.4394 140.262C80.4539 140.81 80.9104 141.243 81.4589 141.229Z" fill="#8B77E8"/>
<g filter="url(#filter0_b_205_29929)">
<path d="M35.4249 40.1222H133.712L94.6689 32.7389C94.6689 32.7389 99.7487 21.2799 87.2856 22.4022C87.2856 22.4022 88.8213 9.23027 77.1261 12.0655C77.1261 12.0655 76.3582 -1.10637 61.5325 0.0749639C46.7067 1.2563 53.3222 16.9681 53.3222 16.9681C53.3222 16.9681 37.7285 6.15883 29.5182 16.9681C21.4261 27.8363 35.4249 40.1222 35.4249 40.1222Z" fill="url(#paint0_radial_205_29929)" fill-opacity="0.3"/>
<path d="M94.3131 32.5812L94.3131 32.5811L94.3135 32.5803L94.3157 32.5753L94.3251 32.5534C94.3299 32.5422 94.336 32.5278 94.3433 32.5103C94.349 32.4965 94.3555 32.4809 94.3626 32.4633C94.3952 32.3835 94.4421 32.2652 94.4976 32.1142C94.6089 31.812 94.7547 31.3804 94.8918 30.8658C95.1675 29.8308 95.4008 28.4858 95.2639 27.1906C95.1278 25.9027 94.6306 24.6932 93.4701 23.86C92.2994 23.0194 90.3877 22.5136 87.3205 22.7898L86.8436 22.8327L86.899 22.3573L86.899 22.3571L86.8991 22.356L86.8998 22.3502L86.9025 22.3247C86.9048 22.3017 86.9083 22.2669 86.9123 22.221C86.9203 22.1292 86.9308 21.9934 86.9401 21.8207C86.9588 21.4753 86.9728 20.9832 86.9538 20.401C86.9158 19.2326 86.7455 17.7203 86.2262 16.3047C85.7075 14.8907 84.8516 13.601 83.458 12.8245C82.0669 12.0494 80.077 11.7506 77.2178 12.4437L76.7647 12.5535L94.3131 32.5812ZM94.3131 32.5812L94.3131 32.5813M94.3131 32.5812L94.3131 32.5813M94.3131 32.5813L94.1141 33.03L94.5966 33.1213L129.56 39.733H35.5744C35.5618 39.7215 35.5481 39.7089 35.5334 39.6953C35.4353 39.605 35.2914 39.4701 35.1107 39.2942C34.749 38.9422 34.24 38.4262 33.6537 37.7728C32.4799 36.4647 31.0022 34.6127 29.7764 32.4301C27.3208 28.0582 25.9192 22.4549 29.8292 17.2021C33.7922 11.986 39.5354 11.9563 44.3961 13.2899C46.8222 13.9555 49.0005 14.9557 50.5748 15.7917C51.3612 16.2093 51.9948 16.5849 52.4309 16.8554C52.649 16.9907 52.8175 17.0996 52.931 17.1743C52.9877 17.2117 53.0307 17.2405 53.0592 17.2598L53.0909 17.2814L53.0985 17.2866L53.1002 17.2877L53.1005 17.2879L53.1005 17.2879L54.2001 18.0501L53.6809 16.8171L53.6809 16.817L53.6808 16.8169L53.6802 16.8153L53.6771 16.808L53.6643 16.7767C53.6529 16.7487 53.636 16.7062 53.6143 16.6503C53.5708 16.5386 53.5085 16.3732 53.434 16.1615C53.285 15.7379 53.0879 15.13 52.8968 14.3965C52.5136 12.9259 52.1593 10.9672 52.2564 8.98352C52.3534 7.00028 52.8994 5.02302 54.2852 3.4722C55.6666 1.9263 57.9287 0.752532 61.5634 0.462919C65.2109 0.172278 67.9665 0.766034 70.0508 1.79883C72.1353 2.83172 73.5716 4.31519 74.5627 5.83938C75.5553 7.36597 76.1004 8.93236 76.3969 10.1201C76.5449 10.7131 76.6304 11.2094 76.6787 11.5556C76.7028 11.7287 76.7177 11.864 76.7264 11.9551C76.7308 12.0006 76.7337 12.035 76.7354 12.0574L76.7372 12.0821L76.7375 12.0875L76.7376 12.0881L76.7376 12.0884L94.3131 32.5813Z" stroke="white" stroke-opacity="0.2" stroke-width="0.778369"/>
</g>
<defs>
<filter id="filter0_b_205_29929" x="3.64894" y="-23.3511" width="153.414" height="86.8242" filterUnits="userSpaceOnUse" color-interpolation-filters="sRGB">
<feFlood flood-opacity="0" result="BackgroundImageFix"/>
<feGaussianBlur in="BackgroundImage" stdDeviation="11.6755"/>
<feComposite in2="SourceAlpha" operator="in" result="effect1_backgroundBlur_205_29929"/>
<feBlend mode="normal" in="SourceGraphic" in2="effect1_backgroundBlur_205_29929" result="shape"/>
</filter>
<radialGradient id="paint0_radial_205_29929" cx="0" cy="0" r="1" gradientUnits="userSpaceOnUse" gradientTransform="translate(126.888 2.16517) rotate(153.297) scale(68.1019 57.011)">
<stop stop-color="white" stop-opacity="0.700689"/>
<stop offset="1" stop-color="#F8FFF8" stop-opacity="0.246825"/>
</radialGradient>
</defs>
</svg>
