<svg width="768" height="486" viewBox="0 0 768 486" fill="none" xmlns="http://www.w3.org/2000/svg">
<path d="M154.658 625.74C145.817 625.74 140.84 624.254 138.165 622.174C122.936 610.659 86.013 614.893 50.3533 619.053C9.2705 623.808 -29.5093 628.265 -42.5102 611.773C-48.0821 604.79 -48.3792 594.76 -43.476 581.165C-28.915 540.454 21.4542 493.502 61.0512 461.334C110.009 421.588 159.561 390.238 180.957 378.797L181.477 379.763L180.957 378.797C245.441 344.474 302.348 314.609 345.065 296.928C390.16 278.281 418.167 273.452 435.923 281.253C446.324 285.785 453.084 294.699 456.65 308.369C461.628 327.387 471.657 341.057 488.298 351.383C503.379 360.744 522.62 366.613 542.976 372.705C567.566 380.134 595.5 388.603 621.799 405.096C626.182 407.844 628.262 411.485 628.039 415.868C627.296 426.937 610.804 442.687 579.007 462.671C551 480.278 511.551 500.857 464.896 522.252C398.778 552.489 322.629 582.279 261.042 601.818C203.467 620.094 171.819 625.74 154.658 625.74ZM103.397 612.516C118.775 612.516 131.702 614.522 139.502 620.391C149.977 628.266 194.032 620.762 260.374 599.664C321.812 580.125 397.96 550.409 463.931 520.247C564 474.409 624.473 435.332 625.81 415.794C626.033 412.302 624.325 409.405 620.61 407.102C594.608 390.758 566.823 382.363 542.307 374.934C501.15 362.453 465.639 351.755 454.496 308.963C451.078 295.962 444.764 287.568 435.031 283.333C398.629 267.36 315.126 310.003 181.922 380.803C160.675 392.095 111.198 423.371 62.4627 463.043C23.0143 495.062 -26.9835 541.717 -41.3959 581.908C-46.0019 594.76 -45.7791 604.047 -40.7273 610.361C-28.4693 625.814 11.4992 621.208 50.2048 616.75C68.5546 614.745 87.2759 612.516 103.397 612.516Z" fill="white" fill-opacity="0.05"/>
<path d="M159.784 618.31C153.024 618.31 148.046 617.345 145.149 615.264C131.108 604.938 97.4542 608.801 64.9891 612.516C27.1751 616.825 -8.48455 620.911 -20.5197 605.755C-25.6457 599.366 -25.9429 590.228 -21.634 577.822C-14.3535 556.129 4.81351 528.939 33.7869 499.296C58.4515 474.038 89.728 447.664 119.593 426.937C150.944 405.616 176.351 390.757 183.334 386.746C247.893 352.201 295.365 327.685 332.436 312.604C372.851 296.185 399.298 291.876 415.642 299.008C425.448 303.317 431.912 311.638 435.255 324.564C439.861 342.023 448.999 354.652 464.228 364.236C478.046 372.928 495.579 378.351 514.152 384.146C536.513 391.055 561.846 398.93 585.768 414.085C589.928 416.834 591.86 420.325 591.489 424.56C589.26 452.939 484.138 504.274 439.044 525.001C333.476 573.513 205.696 618.31 159.784 618.31ZM113.501 606.498C127.468 606.498 139.28 608.281 146.412 613.556C167.436 628.934 317.801 578.416 438.152 523.07C531.387 480.204 587.923 443.281 589.408 424.337C589.706 420.845 588.146 418.097 584.654 415.794C561.029 400.787 535.845 392.986 513.557 386.077C475.966 374.414 443.501 364.384 433.249 325.084C430.055 312.826 424.037 304.952 414.825 300.94C380.651 286.007 301.383 325.976 184.375 388.603C177.391 392.615 152.058 407.399 120.782 428.646C90.9909 449.299 59.863 475.598 35.2728 500.708C6.5222 530.201 -12.422 557.095 -19.6282 578.491C-23.7142 590.154 -23.4913 598.623 -18.8853 604.418C-7.51877 618.682 29.1809 614.447 64.7663 610.361C81.6303 608.504 98.7915 606.498 113.501 606.498Z" fill="white" fill-opacity="0.05"/>
<path d="M165.355 611.03C159.337 611.03 154.806 610.139 152.206 608.281C139.353 599.144 108.968 602.561 79.6234 605.904C45.1524 609.841 12.5387 613.482 1.46937 599.664C-3.21096 593.869 -3.58241 585.623 0.280714 574.405C6.52115 554.272 23.8309 527.824 48.9412 500.04C72.2686 474.186 100.425 449.299 126.204 431.841C143.662 420.474 159.783 410.668 172.71 402.719C177.762 399.673 182.07 396.998 185.711 394.695C233.331 368.99 282.512 343.137 319.731 328.279C356.06 313.792 380.056 310.152 395.137 316.69C404.423 320.701 410.515 328.576 413.709 340.686C422.847 375.454 451.746 384.666 485.252 395.364C505.384 401.753 528.192 409.033 549.662 422.777C558.057 428.72 554.862 437.041 550.628 442.984C528.637 474.186 427.899 523.218 348.333 555.683C276.346 585.251 198.192 611.03 165.355 611.03ZM123.826 600.407C136.382 600.407 146.708 602.041 153.32 606.721C167.435 616.602 247.372 594.983 347.665 554.049C394.617 534.882 439.786 513.858 474.777 494.913C514.076 473.592 539.781 455.316 549.142 442.093C554.565 434.366 554.416 428.646 548.696 424.634C527.523 411.039 504.79 403.833 484.806 397.444C450.781 386.597 421.361 377.237 412.001 341.429C408.955 329.913 403.234 322.484 394.542 318.696C364.752 305.769 301.233 334.742 186.825 396.552C183.185 398.781 178.876 401.456 173.824 404.576C160.898 412.451 144.851 422.257 127.392 433.624C101.762 451.008 73.6801 475.821 50.5013 501.525C25.5396 529.162 8.45271 555.312 2.28657 575.148C-1.35368 585.623 -1.05652 593.275 3.10377 598.549C13.5045 611.55 47.084 607.761 79.5491 604.047C95.2987 602.19 110.751 600.407 123.826 600.407Z" fill="white" fill-opacity="0.05"/>
<path d="M170.556 603.675C165.579 603.675 161.567 603.007 159.19 601.372C147.526 593.423 120.484 596.469 94.2594 599.366C64.3945 602.709 33.5638 606.127 23.4602 593.646C19.2999 588.446 18.8542 581.091 22.1973 571.136C33.118 531.984 85.8646 467.946 132.891 436.818C140.766 431.989 148.195 427.457 155.475 423.074C168.773 415.051 180.288 408.142 188.163 402.793L188.237 402.718C243.807 372.408 279.318 354.875 307.103 344.103C339.345 331.622 360.889 328.576 374.782 334.519C383.622 338.308 389.343 345.663 392.314 357.029C400.561 388.454 426.488 396.998 456.427 406.879C474.257 412.748 494.539 419.434 513.557 431.84C519.872 436.669 520.02 443.355 513.929 451.825C504.939 464.454 481.538 481.392 446.25 500.857C415.047 518.018 374.93 537.036 333.179 554.272C292.393 571.136 252.87 585.177 221.891 593.943C204.73 598.772 184.003 603.675 170.556 603.675ZM133.931 594.389C145.074 594.389 154.361 595.8 160.23 599.812C166.693 604.121 188.46 601.372 221.52 592.086C252.499 583.319 291.947 569.278 332.585 552.489C402.789 523.515 492.087 479.461 512.591 450.71C518.015 443.133 518.015 437.412 512.591 433.252C493.796 420.994 473.663 414.382 455.907 408.513C425.448 398.484 399.075 389.792 390.606 357.401C387.783 346.629 382.359 339.645 374.113 336.079C345.957 323.97 284.964 351.903 189.129 404.13C181.18 409.479 169.739 416.462 156.367 424.486C149.16 428.869 141.657 433.4 133.856 438.155C87.2018 469.209 34.7524 532.727 23.9803 571.581C20.7857 580.942 21.0829 587.777 24.8717 592.457C34.3067 604.195 64.6917 600.778 94.0365 597.509C108.3 595.949 122.193 594.389 133.931 594.389Z" fill="white" fill-opacity="0.05"/>
<path d="M175.98 596.321C171.745 596.321 168.328 595.726 166.248 594.389C155.847 587.628 132 590.229 108.895 592.755C82.1507 595.726 54.5144 598.772 45.451 587.554C41.7364 582.948 41.2907 576.485 44.1137 567.719C48.1997 550.632 61.3492 525.893 79.2533 501.674C98.2718 475.895 120.262 454.053 139.578 441.721L145.298 438.452C163.351 428.126 180.437 418.32 190.615 410.816L190.69 410.742C284.965 358.664 330.877 342.246 354.352 352.275C362.673 355.841 368.096 362.676 370.919 373.299C378.348 401.307 401.156 409.182 427.678 418.32C443.279 423.669 460.96 429.76 477.601 440.83L477.675 440.904C483.47 445.733 483.396 452.345 477.378 460.665C457.988 487.41 382.434 525.744 318.173 552.637C282.81 567.421 248.339 579.902 221.223 587.703C206.068 591.937 187.792 596.321 175.98 596.321ZM144.035 588.371C153.767 588.371 161.865 589.56 167.214 592.977C178.803 600.258 242.099 582.651 317.653 550.929C354.055 535.699 389.121 518.835 416.385 503.531C447.142 486.221 467.869 470.992 476.189 459.477C481.613 451.899 481.836 446.253 476.784 442.018C460.366 431.172 442.759 425.08 427.232 419.731C400.264 410.445 377.011 402.496 369.433 373.596C366.759 363.493 361.633 357.03 353.832 353.686C327.311 342.394 269.809 368.842 191.655 412.079C181.403 419.657 164.316 429.463 146.189 439.79L140.543 443.058C121.451 455.242 99.609 477.009 80.7391 502.64C62.9836 526.71 49.9084 551.226 45.8967 568.164C43.2222 576.411 43.5194 582.354 46.8625 586.514C55.4059 596.989 82.5964 594.017 108.821 591.12C121.376 589.709 133.634 588.371 144.035 588.371Z" fill="white" fill-opacity="0.05"/>
<path d="M181.476 589.04C177.835 589.04 175.087 588.52 173.304 587.48C164.092 581.834 143.513 584.062 123.603 586.217C99.9786 588.743 75.5369 591.417 67.4392 581.462C64.1704 577.45 63.7247 571.879 66.0277 564.375C71.8224 533.767 108.819 469.432 146.188 446.55C164.092 437.189 182.441 427.309 192.991 418.691L193.065 418.617C270.105 375.305 312.228 360.67 333.772 369.733C341.647 373.076 346.773 379.465 349.447 389.42C355.985 414.085 375.821 421.217 398.777 429.537C412.149 434.366 427.304 439.864 441.494 449.522L441.568 449.596C446.917 454.499 446.62 461.111 440.602 469.283C422.624 493.725 357.768 527.453 303.09 550.78C257.104 570.541 203.689 589.04 181.476 589.04ZM154.137 582.354C162.457 582.354 169.441 583.319 174.047 586.142C184.447 592.234 238.531 576.782 302.57 549.443C357.099 526.19 421.732 492.685 439.488 468.466C444.985 460.962 445.431 455.168 440.677 450.859C426.636 441.35 411.629 435.926 398.331 431.097C374.929 422.628 354.796 415.273 348.036 389.866C345.51 380.431 340.681 374.339 333.252 371.219C312.153 362.378 270.55 376.939 193.957 419.954C183.259 428.646 164.909 438.527 147.005 447.887C110.008 470.546 73.3082 534.436 67.5878 564.747V564.821C65.3591 571.804 65.7305 576.93 68.7022 580.496C76.2798 589.783 100.276 587.183 123.529 584.657C134.375 583.468 145.073 582.354 154.137 582.354Z" fill="white" fill-opacity="0.05"/>
<path d="M186.901 581.685C184.078 581.685 181.775 581.314 180.289 580.496C172.34 576.039 155.03 577.896 138.314 579.605C117.81 581.759 96.6373 583.988 89.431 575.37C86.608 572.027 86.1622 567.198 87.9452 560.958C91.2883 534.436 120.93 469.877 152.875 451.453C166.248 445.287 185.118 436.001 195.37 426.714L195.518 426.64C256.214 391.723 293.582 379.242 313.121 387.266C320.55 390.312 325.527 396.552 328.053 405.69C333.699 426.937 350.489 433.475 369.953 440.978C381.097 445.287 393.652 450.19 405.464 458.436L405.539 458.511C410.442 463.562 409.922 470.249 403.904 478.346C396.55 488.227 381.32 500.114 358.587 513.635C338.751 525.447 314.384 537.705 288.159 549.22C250.122 565.935 205.548 581.685 186.901 581.685ZM164.316 576.336C171.225 576.336 177.094 577.079 181.032 579.308C190.318 584.137 235.19 570.987 287.713 547.957C356.432 517.869 392.241 491.867 402.864 477.529C408.362 470.1 409.03 464.008 404.647 459.551C392.984 451.379 381.023 446.773 369.508 442.241C349.672 434.515 332.585 427.903 326.716 405.987C324.339 397.146 319.733 391.426 312.601 388.529C293.508 380.654 256.586 393.06 196.336 427.754C185.935 437.189 166.916 446.476 153.544 452.642C121.97 470.917 92.6256 534.882 89.3568 561.255V561.404C87.6481 567.198 88.0195 571.507 90.5454 574.553C97.2316 582.576 118.033 580.422 138.166 578.268C147.527 577.302 156.59 576.336 164.316 576.336Z" fill="white" fill-opacity="0.05"/>
<path d="M130.514 574.702C121.896 574.702 114.838 573.439 111.421 569.427C109.044 566.678 108.524 562.741 109.861 557.763C110.678 534.882 132.371 470.769 159.561 456.431H159.636C177.688 449.447 190.541 442.167 197.821 434.812L197.97 434.738C243.287 407.844 275.009 397.741 292.245 404.65C299.377 407.547 304.28 413.416 306.583 422.034C311.412 439.938 325.156 445.733 341.054 452.568C349.895 456.356 359.998 460.665 369.359 467.5L369.433 467.574C373.891 472.849 373.148 479.609 367.056 487.781C354.649 504.348 319.658 526.71 273.301 547.734C253.911 556.501 234.595 564.004 218.994 568.833C207.479 572.399 192.621 576.113 187.198 573.736C180.437 570.467 166.47 571.879 152.949 573.216C145.298 573.885 137.423 574.702 130.514 574.702ZM160.156 457.471C144.406 465.791 131.999 490.53 125.982 504.497C117.661 523.813 111.569 545.728 111.198 557.838V557.986C109.935 562.667 110.381 566.084 112.461 568.61C118.256 575.37 135.937 573.587 153.024 571.879C167.362 570.393 180.883 569.056 187.94 572.473C204.73 579.902 338.231 524.407 366.239 486.964C371.885 479.461 372.702 473.22 368.69 468.466C359.404 461.705 349.895 457.619 340.683 453.682C324.487 446.773 310.446 440.83 305.469 422.331C303.24 414.085 298.634 408.513 291.873 405.839C275.009 399.004 243.659 409.107 198.787 435.778C191.284 443.133 178.357 450.487 160.156 457.471Z" fill="white" fill-opacity="0.05"/>
<path d="M149.681 567.719C142.4 567.719 136.383 566.678 133.411 563.335C131.48 561.181 130.96 558.135 131.777 554.346C130.885 544.317 134.377 522.995 139.949 504.794C144.109 491.125 153.098 467.277 166.248 461.26H166.322C175.163 458.734 191.358 452.939 200.273 442.687L200.422 442.613C231.772 423 256.214 415.719 270.998 421.44C278.13 424.189 282.884 429.835 285.187 438.155C289.125 452.642 299.823 457.842 312.229 463.934C319.213 467.352 326.419 470.843 333.402 476.341L333.551 476.489C337.562 482.135 336.522 489.193 330.431 497.365C319.881 511.48 293.137 529.756 258.888 546.1C228.726 560.512 201.536 569.204 194.404 566.753C188.906 564.598 178.729 565.564 167.956 566.604C161.642 567.124 155.327 567.719 149.681 567.719ZM166.693 462.3C144.778 472.403 131.331 536.888 132.965 554.346V554.42V554.495C132.148 557.986 132.594 560.661 134.303 562.518C139.206 568.09 153.767 566.678 167.882 565.341C178.803 564.301 189.129 563.261 194.85 565.49C201.684 567.793 229.024 558.952 258.443 544.837C292.542 528.567 319.138 510.515 329.539 496.474C335.259 488.747 336.374 482.21 332.734 477.009C325.825 471.586 318.693 468.169 311.858 464.826C299.228 458.66 288.308 453.385 284.222 438.378C281.993 430.355 277.461 425.006 270.701 422.406C256.288 416.759 232.218 424.04 201.164 443.43C192.027 453.905 175.683 459.7 166.693 462.3Z" fill="white" fill-opacity="0.05"/>
<path d="M168.923 560.809C162.979 560.809 158.002 559.992 155.402 557.318C153.916 555.757 153.321 553.677 153.693 551.077C151.464 543.499 152.133 523.515 155.104 505.611C160.23 474.855 168.477 467.723 172.934 466.163H173.009C185.712 464.231 196.856 458.436 202.725 450.71L202.873 450.562C226.498 434.44 241.059 434.515 249.082 437.412C256.289 440.012 261.34 445.881 263.792 454.35C266.912 465.494 274.49 470.1 283.33 475.375C287.937 478.198 292.765 481.021 297.371 485.181L297.446 485.33C300.937 491.644 299.749 499.073 293.731 507.468C274.118 534.733 212.531 561.849 201.388 559.695C197.302 558.655 190.393 559.323 183.112 559.918C178.283 560.363 173.306 560.809 168.923 560.809ZM173.231 467.128C166.025 469.654 159.785 483.77 156.144 505.76C153.173 523.664 152.504 543.499 154.733 550.854V550.929V551.003C154.362 553.38 154.882 555.163 156.144 556.575C160.305 560.958 172.414 559.843 183.038 558.878C190.393 558.209 197.376 557.615 201.611 558.655C207.182 559.695 225.606 553.157 244.328 543.351C266.986 531.539 284.668 518.241 292.914 506.8C298.634 498.851 299.897 491.793 296.629 485.85C292.097 481.838 287.342 479.015 282.81 476.266C273.821 470.843 266.021 466.163 262.826 454.648C260.523 446.476 255.62 440.904 248.785 438.378C240.985 435.555 226.795 435.48 203.542 451.304C197.45 459.254 186.158 465.123 173.231 467.128Z" fill="white" fill-opacity="0.05"/>
<path d="M188.534 553.974C183.853 553.974 179.767 553.38 177.464 551.449C176.35 550.483 175.756 549.294 175.607 547.808C169.515 538.299 167.881 491.199 174.641 476.118C176.053 473.072 177.687 471.363 179.693 471.066H179.767H179.842C187.717 471.363 199.083 468.243 205.249 458.659L205.324 458.585C213.198 452.122 220.405 449.893 226.942 451.825C233.777 453.905 239.497 460.962 242.395 470.62C244.623 478.421 249.304 482.655 254.281 487.113C256.659 489.267 259.11 491.422 261.413 494.17L261.487 494.319C264.533 502.119 263.196 510.44 257.476 519.206C245.218 538.002 216.764 552.489 208.518 552.786C206.215 552.786 203.169 553.009 199.9 553.306C196.186 553.603 192.174 553.974 188.534 553.974ZM179.767 471.883C178.133 472.106 176.722 473.666 175.459 476.415C172.413 483.25 170.853 497.513 171.298 514.452C171.744 530.127 173.824 543.351 176.499 547.363L176.573 547.437V547.585C176.647 548.848 177.167 549.888 178.133 550.706C181.922 553.974 191.877 553.083 199.9 552.34C203.169 552.043 206.289 551.746 208.592 551.82C216.69 551.523 244.772 537.185 256.807 518.612C262.305 510.143 263.642 502.045 260.745 494.616C258.442 492.016 256.064 489.787 253.761 487.707C248.709 483.175 243.955 478.866 241.652 470.843C238.829 461.408 233.257 454.648 226.719 452.642C220.553 450.784 213.57 452.939 205.992 459.179C199.455 468.986 187.865 472.18 179.767 471.883Z" fill="white" fill-opacity="0.05"/>
<path d="M207.999 547.289C203.839 547.289 200.05 546.1 197.747 544.54C193.215 541.568 188.907 525.67 186.381 511.778C183.929 498.257 182.22 481.615 184.449 477.084C185.118 475.672 186.009 475.746 186.529 475.895C193.141 478.049 202.576 475.969 207.702 466.534C208.668 464.826 209.634 464.008 210.748 464.083C214.24 464.454 217.211 474.409 219.663 482.433C220.109 483.993 220.554 485.479 221 486.741C232.961 523.515 226.646 538.002 219.217 543.648C215.726 546.248 211.714 547.289 207.999 547.289ZM186.009 476.638C185.712 476.638 185.415 476.787 185.118 477.455C183.335 481.17 184.226 495.508 187.124 511.629C190.244 528.864 194.627 541.494 198.193 543.871C202.353 546.62 211.788 548.329 218.771 543.054C225.978 537.556 232.144 523.367 220.332 486.964C219.96 485.701 219.514 484.216 218.994 482.655C216.914 475.672 213.72 465.123 210.748 464.826C210.005 464.751 209.188 465.42 208.371 466.906C203.022 476.712 193.215 478.792 186.306 476.638C186.158 476.638 186.083 476.638 186.009 476.638Z" fill="white" fill-opacity="0.05"/>
<path d="M529.604 319.215C515.934 319.215 506.945 316.17 502.711 310.003C497.287 302.129 499.665 289.276 509.843 271.818C520.912 252.874 541.416 227.912 570.835 197.527C609.764 157.336 648.024 123.088 684.5 95.7485C716.148 72.0497 747.499 52.8084 777.587 38.5445C830.259 13.6571 872.159 7.0452 909.527 3.62782C949.645 -0.0124345 984.338 4.74219 1012.79 17.6688C1037.53 28.961 1057.14 46.1965 1070.96 68.8552C1099.79 116.179 1096.59 176.577 1076.83 207.705C1067.54 222.266 1055.14 229.546 1041.84 228.061C985.676 221.894 935.826 220.26 889.469 222.934C825.579 226.649 769.118 238.981 721.646 259.56C687.695 274.269 637.994 294.402 593.791 307.18C566.526 315.204 545.056 319.215 529.604 319.215ZM909.602 4.81648L909.676 5.93084C872.456 9.34822 830.853 15.8858 778.478 40.6247C748.539 54.8142 717.337 73.907 685.763 97.6058C649.435 124.796 611.324 158.97 572.395 199.087C543.051 229.324 522.695 254.137 511.7 272.932C501.968 289.573 499.59 301.609 504.494 308.74C512.814 320.85 543.496 319.587 593.197 305.249C637.251 292.471 686.878 272.338 720.754 257.703C768.449 237.05 825.207 224.717 889.32 220.929C935.827 218.18 985.75 219.889 1042.06 226.055C1054.47 227.392 1066.13 220.557 1074.9 206.665C1094.29 176.131 1097.41 116.699 1069.03 70.1925C1055.43 47.9052 1036.19 30.9669 1011.83 19.8232C983.744 6.97091 949.347 2.36488 909.676 5.93084L909.602 4.81648Z" fill="white" fill-opacity="0.05"/>
<path d="M549.069 301.831C536.513 301.831 528.267 299.008 524.404 293.362C514.003 278.132 534.656 244.256 587.551 189.875C657.013 120.264 723.726 71.1581 785.759 43.7448C836.128 21.5318 875.057 16.7029 909.528 14.8456C945.113 11.9483 976.018 16.2571 1001.2 27.7722C1023.27 37.8015 1040.58 53.1054 1052.83 73.0897C1061.23 86.9078 1071.33 109.938 1071.41 141.066C1071.48 163.204 1066.13 184.526 1056.77 199.607C1047.34 214.837 1034.56 222.489 1020.89 221.226C918.666 213.202 811.464 211.048 720.68 249.605C689.85 262.68 644.904 280.584 606.05 291.653C581.905 298.414 562.887 301.831 549.069 301.831ZM930.478 16.0343C923.717 16.0343 916.808 16.3314 909.676 16.9258C875.354 18.8573 836.723 23.6119 786.651 45.6763C724.841 72.9411 658.35 121.973 589.037 191.361C561.921 219.22 543.051 242.027 532.947 259.337C523.958 274.641 521.655 285.71 526.113 292.248C533.69 303.317 560.361 302.426 605.455 289.648C644.235 278.652 689.107 260.748 719.863 247.747C811.092 209.116 918.517 211.196 1021.11 219.294C1033.97 220.483 1046 213.128 1055.06 198.641C1064.28 183.932 1069.48 162.982 1069.4 141.214C1069.33 124.276 1066.13 98.8686 1051.13 74.2783C1039.09 54.5912 1022.08 39.5845 1000.39 29.7781C980.476 20.566 957.074 16.0343 930.478 16.0343Z" fill="white" fill-opacity="0.05"/>
<path d="M568.532 284.522C557.017 284.522 549.513 281.921 546.022 276.721C536.587 262.754 555.679 231.849 604.266 182.149C670.533 117.887 734.349 73.0897 794.004 48.8709C842.516 29.1838 879.662 26.2122 909.601 25.915C940.803 23.6863 967.845 27.698 989.835 37.7273C1009.15 46.5679 1024.38 59.866 1035 77.3243C1045.63 94.857 1051.2 115.733 1050.98 137.723C1050.83 157.781 1045.85 176.8 1037.01 191.212C1027.28 207.11 1014.13 215.357 999.864 214.317L991.99 213.945C949.644 211.865 901.652 209.488 854.849 212.088C801.285 215.06 757.082 223.975 719.639 239.427C679.299 256.142 645.126 268.326 618.084 275.83C597.282 281.624 580.715 284.522 568.532 284.522ZM925.945 27.3266C920.67 27.3266 915.247 27.5494 909.675 27.9209C879.885 28.218 842.962 31.1897 794.747 50.7282C735.389 74.8727 671.722 119.522 605.677 183.635C558.502 231.849 539.038 262.829 547.656 275.681C554.342 285.562 577.892 284.967 617.564 273.972C644.457 266.543 678.556 254.285 718.896 237.644C756.488 222.117 800.988 213.128 854.774 210.156C901.652 207.556 949.718 209.934 992.138 212.014L1000.01 212.385C1013.53 213.351 1026.01 205.476 1035.38 190.246C1043.84 176.354 1048.82 157.187 1049.05 137.723C1049.27 116.104 1043.77 95.5999 1033.37 78.3644C1022.97 61.2775 1008.04 48.2023 989.092 39.5103C971.188 31.4126 950.015 27.3266 925.945 27.3266Z" fill="white" fill-opacity="0.05"/>
<path d="M587.998 267.36C577.597 267.36 570.836 264.983 567.716 260.229C559.321 247.599 576.78 219.591 621.057 174.645C684.204 115.658 745.197 75.1699 802.327 54.1456C849.501 36.8359 884.418 35.9444 909.677 37.133C974.087 33.4928 1003.8 59.4946 1017.4 81.9304C1026.61 97.0857 1031.22 115.287 1030.77 134.528C1030.4 152.135 1025.72 169.222 1017.7 182.669C1007.82 199.236 993.626 208.225 978.916 207.482C968.144 207.259 957 206.962 946.302 206.739C867.405 204.659 785.834 202.579 718.675 229.398C655.082 254.731 611.919 267.36 587.998 267.36ZM895.265 38.5445C871.789 38.5445 841.404 41.6648 802.847 55.78C746.014 76.7301 685.244 117.144 622.246 175.908C579.305 219.517 561.476 247.599 569.202 259.188C574.997 267.88 595.352 267.583 629.749 258.371C652.779 252.205 681.604 242.176 717.932 227.615C785.463 200.647 867.257 202.727 946.302 204.808C957.075 205.105 968.144 205.402 978.916 205.55C993.18 206.293 1006.33 197.824 1016.06 181.629C1023.94 168.479 1028.47 151.69 1028.84 134.38C1029.29 115.51 1024.75 97.6058 1015.69 82.7476C1002.32 60.6832 973.121 35.2015 909.603 38.8417H909.528H909.454C905.145 38.6931 900.391 38.5445 895.265 38.5445Z" fill="white" fill-opacity="0.05"/>
<path d="M607.536 250.125C598.695 250.125 592.232 248.193 589.26 243.662C581.905 232.37 597.729 207.259 637.698 166.919C697.799 113.207 755.895 77.0273 810.498 59.2718C845.415 47.9053 877.88 44.3393 909.602 48.2024C963.983 46.1223 988.722 67.8895 999.94 86.6108C1007.59 99.4631 1011.38 114.916 1010.71 131.334C1010.12 146.415 1005.88 161.422 998.677 173.68C988.648 190.841 974.161 200.573 958.932 200.573C958.56 200.573 958.189 200.573 957.891 200.573C939.393 200.722 921.043 200.573 903.213 200.424C834.866 199.756 770.307 199.161 717.635 219.294C677.815 234.45 632.795 250.125 607.536 250.125ZM884.864 48.4253C861.165 48.4253 836.797 52.5856 811.018 60.9062C756.637 78.5131 698.765 114.618 638.886 168.182C600.181 207.259 583.911 232.37 590.672 242.77C602.781 261.343 685.764 229.621 716.966 217.734C770.01 197.453 834.717 198.047 903.213 198.716C920.969 198.864 939.393 199.087 957.891 198.864C972.973 199.31 987.311 189.801 997.266 172.863C1004.32 160.827 1008.48 146.118 1009.08 131.334C1009.67 115.213 1006.03 100.132 998.529 87.5766C987.534 69.301 963.24 47.9053 909.677 49.9854H909.602H909.528C901.356 48.9453 893.11 48.4253 884.864 48.4253Z" fill="white" fill-opacity="0.05"/>
<path d="M626.851 232.964C618.976 232.964 613.404 231.255 610.804 227.243C604.489 217.214 618.753 195.001 654.413 159.342C711.468 110.755 766.666 78.8845 818.67 64.4721C860.941 52.8084 891.4 55.26 909.602 59.346C954.102 58.7517 974.086 76.5072 982.927 91.5883C995.036 112.167 994.07 140.695 980.475 164.319C969.926 182.669 953.731 193.59 937.089 193.59C937.015 193.59 936.941 193.59 936.867 193.59C910.493 194.63 885.977 194.63 862.278 194.63C805.52 194.778 756.488 194.853 716.594 209.191C681.009 221.894 646.686 232.964 626.851 232.964ZM877.211 57.563C832.414 57.563 756.265 74.7242 655.527 160.456C620.982 195.001 606.346 217.214 612.141 226.352C621.725 241.433 685.466 218.626 716.074 207.705C756.265 193.292 805.372 193.218 862.278 193.144C885.977 193.144 910.493 193.07 936.867 192.104C936.941 192.104 937.015 192.104 937.089 192.104C953.21 192.104 968.886 181.48 979.212 163.65C992.51 140.472 993.55 112.538 981.738 92.4798C973.12 77.7702 953.582 60.3861 909.676 60.9804H909.602H909.527C901.801 59.1974 890.955 57.563 877.211 57.563Z" fill="white" fill-opacity="0.05"/>
<path d="M646.314 215.802C639.48 215.802 634.428 214.391 632.199 210.751C626.924 202.059 639.628 182.669 671.127 151.615C725.286 108.229 777.661 80.6674 826.99 69.6723C845.265 65.5863 862.575 63.9519 878.548 64.7691C894.594 65.5863 904.921 68.7065 909.75 70.5638C930.923 71.0096 947.192 76.3585 958.113 86.3878C967.548 95.0798 972.526 107.041 972.6 120.933C972.6 136.237 966.582 152.358 956.033 165.21C944.889 178.806 930.625 186.458 915.916 186.755C880.925 189.058 850.243 189.206 823.127 189.355C778.998 189.578 744.155 189.801 715.553 199.087L713.77 199.681C692.672 206.516 663.773 215.802 646.314 215.802ZM870.524 65.9578C858.638 65.9578 844.225 67.295 827.287 71.0096C778.181 82.0046 725.954 109.492 672.168 152.73C641.708 182.817 628.633 202.133 633.462 210.082C640.594 221.82 686.134 207.11 713.325 198.344L715.108 197.75C743.933 188.389 778.849 188.241 823.127 187.943C850.169 187.795 880.851 187.646 915.842 185.343C930.18 185.046 944.072 177.617 954.993 164.319C965.319 151.764 971.188 135.94 971.188 120.933C971.188 107.412 966.359 95.8227 957.222 87.4278C946.524 77.6214 930.551 72.4211 909.675 71.9753H909.527L909.378 71.901C904.624 70.0438 891.549 65.9578 870.524 65.9578Z" fill="white" fill-opacity="0.05"/>
<path d="M665.779 199.087C659.761 199.087 655.304 197.824 653.521 194.63C649.286 187.126 660.504 170.634 687.992 144.038L688.066 143.963C723.205 117.664 777.289 84.2335 835.31 74.7986C852.397 72.0498 868.89 71.5298 883.079 73.3871C894.223 74.8729 903.955 77.8445 909.898 81.6333C950.758 84.6793 954.844 108.898 954.77 119.225C954.622 132.448 947.935 147.306 936.94 159.044C925.054 171.674 910.196 179.029 895.04 179.772C849.797 184.006 814.36 184.006 785.907 184.006C755.225 184.006 733.012 184.006 714.513 188.984C713.028 189.355 711.467 189.801 709.907 190.247C694.901 194.333 677.442 199.087 665.779 199.087ZM688.809 145.003C662.287 170.708 650.772 187.201 654.635 193.961C659.538 202.653 689.7 194.407 709.61 188.984C711.17 188.538 712.73 188.166 714.216 187.721C732.937 182.669 755.15 182.669 785.981 182.669C814.435 182.669 849.723 182.669 894.817 178.509C909.453 177.766 924.385 170.411 935.9 158.227C946.747 146.712 953.284 132.151 953.433 119.299C953.656 98.2745 937.683 85.0507 909.601 82.9706H909.453L909.304 82.8963C897.715 75.4672 870.376 70.4897 835.459 76.1358C803.514 81.2619 752.253 97.4573 688.809 145.003Z" fill="white" fill-opacity="0.05"/>
<path d="M685.392 182.817C679.969 182.817 675.808 181.777 674.323 178.806C672.762 175.76 674.174 171.079 678.706 164.542C683.609 157.484 692.301 147.975 704.633 136.46L704.708 136.386C764.883 94.9313 813.321 82.8962 843.409 80.0732C878.177 76.8044 902.173 84.382 909.825 92.8512C935.084 97.0858 938.352 111.127 937.981 119.15C937.089 141.215 908.265 170.114 873.794 172.862C815.698 179.772 778.627 178.731 751.585 177.914C735.167 177.468 723.28 177.097 713.4 178.806C711.765 179.103 710.056 179.4 708.348 179.697C700.473 181.257 692.004 182.817 685.392 182.817ZM705.45 137.277C682.643 158.747 672.465 172.491 675.363 178.286C678.334 184.155 694.901 181.109 708.199 178.731C709.908 178.434 711.617 178.137 713.251 177.84C723.28 176.057 735.167 176.428 751.659 176.874C778.627 177.691 815.624 178.731 873.719 171.822C889.023 170.559 904.996 163.576 917.477 152.655C929.215 142.403 936.495 129.848 936.941 119.15C937.461 105.926 927.729 96.9372 909.527 93.9656H909.305L909.156 93.817C903.064 86.8336 880.554 77.7701 843.557 81.2618C813.618 84.0106 765.329 95.9714 705.45 137.277Z" fill="white" fill-opacity="0.05"/>
<path d="M767.631 173.085C746.384 173.085 732.789 171.228 723.428 169.965C718.971 169.371 715.405 168.851 712.359 168.776C711.542 168.776 710.799 168.702 709.982 168.702C702.924 168.479 695.569 168.182 694.009 163.873C692.746 160.381 694.232 152.952 721.422 128.734L721.497 128.659C755.893 107.338 789.919 93.6683 822.681 87.9479C857.078 82.0046 879.513 86.7592 889.766 90.1766C900.315 93.6683 907.67 98.6457 909.898 103.995C922.305 108.526 924.162 115.733 923.568 121.007C922.602 129.625 914.059 139.951 900.686 148.644C886.794 157.707 869.261 164.022 852.769 165.953C815.326 171.451 787.913 173.085 767.631 173.085ZM712.359 167.811C715.479 167.959 718.971 168.405 723.503 168.999C741.852 171.451 776.101 176.131 852.694 164.988C889.097 160.827 920.745 137.426 922.602 120.933C923.419 113.875 918.813 108.304 909.378 104.96L909.156 104.886L909.081 104.663C907.075 99.5372 899.869 94.634 889.468 91.2167C877.953 87.4278 815.698 71.4553 722.017 129.551C701.958 147.381 693.118 158.524 694.901 163.576C696.238 167.216 703.147 167.439 709.907 167.736C710.799 167.736 711.616 167.736 712.359 167.811Z" fill="white" fill-opacity="0.05"/>
<path d="M750.843 167.736C746.088 167.736 741.705 167.588 737.693 167.216C718.081 165.582 712.806 160.307 711.023 158.524C709.314 156.741 708.571 154.884 708.646 152.804C709.017 146.489 717.561 137.351 738.065 121.082L738.139 121.007C771.05 103.177 804.927 92.5539 835.98 90.3252C871.12 87.7993 890.658 96.417 897.345 100.28C905.145 104.663 909.528 110.012 909.9 115.213C912.871 118.407 913.837 121.899 912.574 125.465C909.677 133.86 895.71 140.917 884.418 145.375C869.708 151.169 850.987 155.998 831.671 158.97C798.166 164.839 771.05 167.736 750.843 167.736ZM711.692 157.93C723.355 169.742 763.77 169.816 831.671 158.153C866.96 152.804 907.002 139.431 911.831 125.316C912.946 122.047 912.054 118.853 909.231 115.881L909.083 115.733V115.584C908.86 110.607 904.551 105.481 896.973 101.172C868.668 85.1248 807.081 84.7534 738.585 121.825C718.601 137.648 709.909 146.935 709.537 152.878C709.463 154.735 710.132 156.37 711.692 157.93Z" fill="white" fill-opacity="0.05"/>
<path d="M733.756 162.313C721.349 162.313 713.697 160.456 710.651 156.816C708.794 154.587 708.571 151.764 709.983 148.049C712.434 141.809 721.721 134.157 729.075 128.808C737.47 122.716 747.648 116.699 754.854 113.43C793.857 95.8228 826.025 92.8511 846.158 93.3712C869.559 94.0398 890.287 99.9831 901.727 109.344C908.339 114.767 911.237 120.933 909.825 126.653C906.482 141.14 881.372 143.666 852.324 146.638C838.654 148.049 824.539 149.461 810.721 152.135C776.176 158.896 750.62 162.313 733.756 162.313ZM755.077 113.801L755.226 114.173C741.928 120.116 714.886 137.649 710.726 148.346C709.388 151.69 709.537 154.364 711.246 156.37C718.155 164.69 751.586 162.982 810.647 151.467C824.539 148.718 838.654 147.306 852.324 145.969C881.075 143.072 905.962 140.546 909.231 126.579C910.494 121.082 907.671 115.213 901.356 110.012C890.064 100.726 869.485 94.857 846.232 94.1884C826.174 93.6683 794.154 96.64 755.3 114.173L755.077 113.801Z" fill="white" fill-opacity="0.05"/>
<path d="M1102.01 953.957C1080.32 953.957 1058.33 953.214 1036.12 951.802C911.31 943.779 831.225 904.331 791.256 831.154C756.636 767.71 757.156 688.813 757.677 619.202C758.048 572.696 758.345 528.864 747.796 496.919C712.805 390.758 674.174 367.133 651.069 353.018C637.697 344.846 628.856 339.423 629.673 322.782C630.491 306.438 690.22 285.636 817.555 257.257C872.679 244.999 915.396 255.623 949.793 264.166C967.028 268.475 981.886 272.115 994.962 272.115V273.23V272.115C1030.92 272.041 1040.8 268.103 1062.27 259.486C1080.25 252.279 1107.36 241.433 1165.53 226.872C1216.65 214.02 1296.36 211.345 1373.7 219.889C1417.68 224.718 1459.5 232.89 1497.84 244.107C1540.78 256.663 1578.52 272.784 1609.94 292.099C1668.19 327.833 1703.99 373.745 1716.4 428.497C1728.66 482.433 1727.02 537.556 1711.72 592.457C1696.49 646.987 1668.48 698.396 1628.51 745.348C1570.27 813.696 1488.77 868.745 1392.86 904.628C1341.75 923.795 1286.4 937.539 1228.38 945.562C1187.75 951.134 1145.4 953.957 1102.01 953.957ZM867.701 253.914C852.397 253.914 835.905 255.474 818.149 259.411C760.202 272.338 717.114 283.482 686.283 293.511C641.857 307.998 632.199 317.507 631.976 322.856C631.233 338.234 638.663 342.766 652.258 351.086C675.585 365.35 714.662 389.272 749.95 496.176C760.574 528.419 760.277 572.473 759.905 619.128C759.385 688.516 758.791 767.115 793.188 830.04C832.785 902.548 912.276 941.625 1036.27 949.574C1102.61 953.808 1167.17 951.728 1228.16 943.259C1286.03 935.236 1341.16 921.566 1392.19 902.473C1487.81 866.739 1569.01 811.838 1626.95 743.788C1666.77 697.133 1694.63 645.947 1709.71 591.789C1724.94 537.259 1726.5 482.507 1714.39 428.943C1702.14 374.785 1666.63 329.393 1608.98 293.957C1577.7 274.715 1540.18 258.668 1497.39 246.188C1459.13 235.044 1417.45 226.872 1373.62 222.043C1296.51 213.574 1217.09 216.248 1166.2 228.952C1108.18 243.513 1081.14 254.36 1063.23 261.492C1041.39 270.184 1031.44 274.195 995.036 274.27C994.962 274.27 994.887 274.27 994.813 274.27C981.515 274.27 966.582 270.555 949.273 266.246C926.317 260.6 899.498 253.914 867.701 253.914Z" fill="white" fill-opacity="0.05"/>
<path d="M1113.08 913.394C1095.55 913.394 1077.8 912.874 1059.89 911.834C947.192 905.668 873.867 871.494 835.756 807.232C802.697 751.44 800.839 681.161 799.279 619.128C798.165 575.891 797.125 535.105 785.61 505.314C750.247 409.999 713.25 386.82 691.112 372.928C677.739 364.533 668.899 359.035 669.493 342.84C669.642 333.702 686.06 322.707 718.302 310.152C747.276 298.86 787.913 286.825 835.756 275.235C885.754 262.977 924.756 271.298 956.107 278.058C971.263 281.327 984.338 284.15 996.15 284.15C1033.67 284.225 1042.95 281.327 1070.52 272.561C1089.01 266.692 1114.42 258.594 1161.15 247.302C1208.99 235.713 1283.43 233.261 1355.42 240.987C1396.58 245.445 1435.58 252.874 1471.31 263.2C1511.43 274.715 1546.57 289.648 1575.69 307.478C1628.29 339.646 1660.98 380.803 1672.72 429.835C1684.46 479.164 1683.56 529.756 1670.04 580.125C1656.67 630.197 1631.49 677.446 1595.31 720.684C1543.01 783.088 1469.61 833.606 1382.98 866.814C1336.77 884.495 1286.78 897.347 1234.25 904.999C1195.25 910.497 1154.69 913.394 1113.08 913.394ZM887.091 271.075C871.49 271.075 854.626 272.784 836.202 277.316C734.943 301.757 671.87 326.868 671.573 342.914C671.053 357.921 679.002 362.899 692.226 371.145C714.588 385.186 752.03 408.587 787.541 504.571C799.131 534.659 800.245 575.668 801.359 619.054C802.919 680.864 804.777 750.846 837.539 806.192C875.204 869.785 948.01 903.662 1059.97 909.754C1120.14 913.171 1178.68 910.794 1233.88 902.77C1286.26 895.118 1336.11 882.34 1382.17 864.733C1468.49 831.674 1541.59 781.379 1593.6 719.272C1629.55 676.332 1654.59 629.306 1667.89 579.531C1681.26 529.533 1682.15 479.312 1670.56 430.28C1658.9 381.768 1626.58 341.057 1574.43 309.186C1535.87 285.636 1466.56 255.028 1355.05 243.067C1283.36 235.341 1209.22 237.718 1161.52 249.308C1114.87 260.6 1089.53 268.698 1071.04 274.567C1043.99 283.184 1033.89 286.379 996.076 286.305C984.041 286.305 970.817 283.482 955.587 280.213C936.049 275.904 913.464 271.075 887.091 271.075Z" fill="white" fill-opacity="0.05"/>
<path d="M1124.75 872.831C1111.15 872.831 1097.48 872.534 1083.59 871.865C982.853 867.482 916.363 838.509 880.332 783.162C848.906 734.947 844.746 673.212 841.106 618.756C838.432 578.936 835.906 541.345 823.425 513.783C787.988 429.24 752.477 406.582 731.304 392.986C717.783 384.369 708.943 378.648 709.24 362.899C708.943 341.429 783.976 311.712 853.81 293.214C898.904 280.807 934.341 286.973 962.72 291.951C975.647 294.18 986.716 296.111 997.117 296.185C1039.69 296.557 1047.49 294.551 1090.87 283.63C1107.22 279.544 1127.5 274.418 1156.47 267.658C1186.11 260.749 1227.05 257.331 1271.77 258.148C1322.14 258.966 1372.81 265.058 1418.42 275.607C1472.36 288.088 1517.38 306.363 1552.14 329.913C1592.71 357.327 1618.41 391.352 1628.59 431.172C1639.81 475.969 1639.58 521.955 1627.92 567.793C1616.33 613.407 1594.04 656.496 1561.73 696.019C1515.44 752.48 1450.07 798.466 1372.81 828.925C1298.44 858.047 1215.16 872.831 1124.75 872.831ZM907.299 287.939C891.252 287.939 873.645 289.796 854.255 295.145C771.124 317.135 710.948 345.663 711.097 362.973C710.8 377.683 718.898 382.809 732.27 391.426C753.666 405.096 789.474 428.052 825.133 513.115C837.763 541.048 840.289 578.788 842.963 618.756C846.604 672.989 850.69 734.427 881.892 782.271C917.626 837.023 983.596 865.773 1083.67 870.082C1189.83 875.208 1286.85 860.722 1372.06 827.142C1449.03 796.832 1514.11 751.068 1560.17 694.83C1592.34 655.605 1614.47 612.739 1625.99 567.421C1637.58 521.881 1637.8 476.192 1626.66 431.766C1616.55 392.466 1591.15 358.813 1551.03 331.696C1516.41 308.295 1471.69 290.168 1417.97 277.687C1372.51 267.138 1321.99 261.12 1271.77 260.303C1227.2 259.56 1186.41 262.903 1156.92 269.812C1127.94 276.573 1107.66 281.624 1091.32 285.785C1047.78 296.78 1039.91 298.711 997.117 298.414C986.568 298.34 975.35 296.408 962.423 294.18C946.376 291.059 928.175 287.939 907.299 287.939Z" fill="white" fill-opacity="0.05"/>
<path d="M1135.67 832.417C1126.31 832.417 1116.87 832.268 1107.36 831.897C1018.51 829.297 958.856 805.375 924.905 758.795C895.188 718.009 889.096 667.12 883.227 617.865C878.919 581.685 874.833 547.511 861.163 522.178C825.726 448.482 793.187 427.234 771.643 413.193C757.453 403.907 748.835 398.335 748.91 382.957C748.092 363.344 802.102 331.771 871.861 311.192C912.572 298.488 944.592 302.5 970.371 305.695C980.251 306.957 989.538 308.072 998.155 308.22L1002.54 308.295C1052.68 309.038 1056.77 309.112 1151.86 288.088C1178.61 282.144 1216.87 279.098 1256.91 279.618C1302.97 280.287 1349.33 285.413 1390.86 294.625C1440.26 305.546 1481.49 321.593 1513.51 342.394C1550.81 366.613 1574.73 396.924 1584.53 432.36C1595.31 472.552 1595.75 513.932 1585.94 555.386C1576.21 596.543 1556.82 635.546 1528.3 671.28C1487.96 721.872 1430.68 763.252 1362.7 790.963C1295.1 818.524 1218.87 832.417 1135.67 832.417ZM929.065 304.283C912.275 304.283 893.48 306.363 872.381 312.901C804.553 332.959 749.95 364.31 750.693 382.883C750.618 397.295 758.939 402.718 772.608 411.633C792.964 424.931 827.138 447.219 862.797 521.287C876.616 546.917 880.702 581.239 885.01 617.568C890.879 666.6 896.897 717.266 926.316 757.606C959.896 803.741 1019.18 827.365 1107.36 829.965C1201.42 833.457 1287.07 819.713 1362.03 789.18C1429.71 761.618 1486.69 720.386 1526.88 670.091C1555.19 634.58 1574.5 595.8 1584.16 554.94C1593.89 513.858 1593.45 472.775 1582.75 432.881C1573.09 397.815 1549.39 367.95 1512.47 343.954C1480.67 323.301 1439.59 307.329 1390.41 296.482C1348.96 287.345 1302.75 282.144 1256.84 281.476C1216.94 280.956 1178.76 284.002 1152.16 289.871C1056.85 310.895 1052.68 310.821 1002.39 310.078L998.007 310.003C989.315 309.929 979.954 308.74 969.999 307.477C957.964 305.992 944.295 304.283 929.065 304.283Z" fill="white" fill-opacity="0.05"/>
<path d="M456.946 264.612C453.38 264.612 449.814 264.315 446.174 263.646C427.081 260.229 410.515 248.416 395.508 236.084C384.81 227.318 360.071 228.803 336.149 230.215C312.376 231.627 289.94 232.964 284.294 223.38C281.546 218.7 282.957 211.939 288.677 202.876C332.732 133.191 418.018 84.5306 481.908 56.0029C553.896 23.835 627.815 4.22217 663.698 1.39911C709.387 -2.16685 757.602 0.65621 762.356 14.8458C764.139 20.0461 759.83 25.9894 749.727 32.4527C711.615 56.8201 558.873 193.07 512.887 237.496C494.24 255.697 475.816 264.612 456.946 264.612ZM362.671 226.946C377.158 226.946 389.787 228.506 396.919 234.375C411.703 246.485 427.973 258.223 446.546 261.491C468.387 265.355 489.56 257.034 511.401 236.01C557.462 191.584 710.352 55.1114 748.538 30.6697C757.527 24.875 761.613 19.6747 760.202 15.663C756.487 4.66791 715.999 -0.383862 663.846 3.70214C628.187 6.4509 554.49 26.0637 482.799 58.0831C419.281 86.4622 334.292 134.826 290.609 204.065C285.409 212.311 283.923 218.403 286.226 222.266C291.203 230.661 312.971 229.398 336.075 227.986C345.064 227.466 354.202 226.946 362.671 226.946Z" fill="white" fill-opacity="0.05"/>
<path d="M461.849 253.839C458.506 253.839 455.163 253.542 451.82 252.948C434.213 249.828 418.835 238.758 404.794 227.318C394.839 219.22 371.809 220.631 349.521 222.043C327.383 223.38 306.507 224.717 301.232 215.803C298.632 211.419 299.969 205.179 305.318 196.784C346.178 131.928 425.521 86.685 484.879 60.0888C551.816 30.1496 620.609 11.8741 653.966 9.34816C696.386 6.07936 741.109 8.75383 745.566 21.9776C747.201 26.8065 743.263 32.3783 733.828 38.3959C698.466 61.0546 556.57 187.572 513.779 228.803C496.32 245.593 479.233 253.839 461.849 253.839ZM374.632 218.923C387.93 218.923 399.519 220.409 406.131 225.757C434.436 248.788 468.238 269.812 512.367 227.318C555.159 186.012 697.203 59.3459 732.714 36.6129C741.109 31.264 744.823 26.4351 743.56 22.6462C740.143 12.4684 702.552 7.71376 654.114 11.4283C620.98 13.9542 552.484 32.1555 485.771 62.0204C426.635 88.468 347.59 133.488 307.027 197.898C302.198 205.476 300.861 211.196 303.015 214.762C307.621 222.563 327.903 221.3 349.373 219.963C357.916 219.443 366.534 218.923 374.632 218.923Z" fill="white" fill-opacity="0.05"/>
<path d="M466.679 243.142C463.633 243.142 460.513 242.844 457.393 242.324C440.454 239.278 426.116 228.506 414.007 218.7C404.795 211.197 383.399 212.608 362.82 213.945C341.499 215.357 323.075 216.545 318.171 208.299C315.794 204.287 316.983 198.567 321.886 190.767C359.552 130.74 432.951 88.8394 487.852 64.2492C549.736 36.5387 613.329 19.6746 644.16 17.2973C683.237 14.3257 724.543 16.7773 728.629 29.0353C730.114 33.567 726.474 38.6931 717.782 44.2649C685.094 65.2149 554.045 182 514.597 220.037C498.401 235.49 482.726 243.142 466.679 243.142ZM386.519 210.899C398.629 210.899 409.178 212.237 415.195 217.14C427.156 226.798 441.271 237.421 457.69 240.319C476.337 243.662 494.464 236.604 513.036 218.626C552.559 180.514 683.757 63.5805 716.519 42.6305C724.245 37.653 727.737 33.1956 726.548 29.7039C723.428 20.269 688.734 15.8858 644.086 19.3032C613.403 21.6062 550.108 38.4702 488.446 66.0321C433.768 90.4738 360.814 132.151 323.372 191.807C318.989 198.79 317.726 204.065 319.657 207.333C323.892 214.465 342.687 213.277 362.523 212.014C370.695 211.419 378.941 210.899 386.519 210.899Z" fill="white" fill-opacity="0.05"/>
<path d="M471.507 232.369C468.684 232.369 465.786 232.072 462.963 231.552C447.659 228.729 434.361 218.923 423.218 209.934C414.748 203.099 395.061 204.436 376.043 205.699C356.43 207.036 339.492 208.151 334.96 200.647C332.731 197.007 333.846 191.732 338.303 184.6C372.848 129.402 440.156 90.9196 490.599 68.3352C547.506 42.8534 605.899 27.4009 634.204 25.2465C670.012 22.572 707.826 24.875 711.541 36.093C712.952 40.2532 709.535 44.9336 701.586 50.0596C671.572 69.301 551.369 176.354 515.19 211.197C500.554 225.46 486.142 232.369 471.507 232.369ZM398.404 202.876C409.325 202.876 418.834 204.139 424.332 208.522C435.327 217.363 448.328 227.095 463.26 229.769C480.273 232.889 496.84 226.352 513.927 209.934C550.181 175.017 670.532 67.8152 700.62 48.5738C707.752 44.0421 710.946 39.8818 709.832 36.6873C706.935 27.9953 675.212 23.9835 634.352 27.0295C606.196 29.1096 548.101 44.5621 491.417 69.9696C441.196 92.4797 374.186 130.814 339.938 185.641C335.926 192.03 334.811 196.858 336.594 199.83C340.532 206.368 357.767 205.179 375.969 203.99C383.546 203.396 391.273 202.876 398.404 202.876Z" fill="white" fill-opacity="0.05"/>
<path d="M476.336 221.671C473.736 221.671 471.135 221.449 468.535 220.929C454.791 218.403 442.682 209.488 432.43 201.241C424.629 195.075 406.725 196.338 389.341 197.601C371.437 198.864 355.984 199.979 351.898 193.144C349.893 189.801 350.858 185.046 354.944 178.583C386.295 128.214 447.659 93.0739 493.571 72.4954C545.426 49.2423 598.618 35.1271 624.397 33.2698C656.937 30.8925 691.259 33.0469 694.677 43.2991C695.94 47.0879 692.894 51.3968 685.539 56.0771C658.2 73.5354 548.844 170.856 515.933 202.579C502.635 215.357 489.634 221.671 476.336 221.671ZM410.291 194.852C420.098 194.852 428.567 195.967 433.47 199.904C456.351 218.18 481.462 233.335 514.744 201.316C547.729 169.594 657.234 72.1239 684.647 54.5913C691.111 50.431 694.082 46.7164 693.042 43.7448C690.442 35.87 661.617 32.1554 624.546 34.9042C598.916 36.7615 545.946 50.8024 494.314 73.9812C448.551 94.4855 387.484 129.476 356.356 179.474C352.716 185.269 351.75 189.578 353.31 192.327C356.876 198.27 372.551 197.155 389.193 195.967C396.399 195.372 403.605 194.852 410.291 194.852Z" fill="white" fill-opacity="0.05"/>
<path d="M481.166 210.899C478.788 210.899 476.485 210.676 474.108 210.231C461.924 207.928 451.375 200.276 441.643 192.549C434.585 186.978 417.647 188.315 402.64 189.429C386.445 190.692 372.478 191.732 368.764 185.64C366.981 182.669 367.798 178.36 371.438 172.491C399.669 126.951 455.015 95.2283 496.47 76.5813C543.347 55.557 591.339 42.8533 614.518 41.1446C643.714 38.9901 674.545 40.996 677.665 50.2824C678.779 53.6997 676.031 57.6372 669.419 61.8717C644.828 77.6957 546.319 165.285 516.677 193.812C504.716 205.253 493.052 210.899 481.166 210.899ZM422.104 186.829C430.722 186.829 438.151 187.869 442.609 191.286C452.192 198.864 462.593 206.442 474.405 208.671C488.223 211.271 501.67 205.996 515.562 192.624C545.279 164.096 643.937 76.3585 668.602 60.5345C674.471 56.7457 677.071 53.4026 676.179 50.7281C673.802 43.5962 647.949 40.2531 614.592 42.6304C591.488 44.2648 543.719 56.9685 497.064 77.9186C455.833 96.5656 400.783 128.065 372.775 173.308C369.507 178.508 368.615 182.372 370.101 184.823C373.295 190.172 387.485 189.058 402.492 187.869C409.178 187.349 415.938 186.829 422.104 186.829Z" fill="white" fill-opacity="0.05"/>
<path d="M486.068 200.202C483.988 200.202 481.833 199.979 479.679 199.607C469.055 197.601 459.992 191.064 450.854 183.932C444.539 179.029 429.384 180.217 415.937 181.332C401.525 182.52 389.044 183.56 385.701 178.137C384.067 175.463 384.81 171.674 388.004 166.473C413.04 125.762 462.369 97.3829 499.366 80.7418C541.192 61.9462 583.983 50.654 604.711 49.1682C630.638 47.3109 657.977 49.1682 660.726 57.4144C661.766 60.5347 659.24 64.0263 653.371 67.8152C631.455 81.8561 543.792 159.713 517.344 185.046C506.795 195.15 496.543 200.202 486.068 200.202ZM433.916 178.806C441.419 178.806 447.808 179.697 451.671 182.669C467.05 194.63 488.074 211.122 516.379 183.932C542.826 158.599 630.638 80.5932 652.628 66.5522C657.829 63.2091 660.206 60.1632 659.463 57.7859C657.383 51.4712 634.427 48.351 604.859 50.5054C584.281 51.9912 541.712 63.2091 500.035 81.9304C463.186 98.5716 414.08 126.728 389.267 167.142C386.444 171.748 385.627 175.165 386.964 177.32C389.861 182 402.491 180.96 415.863 179.846C422.029 179.326 428.27 178.806 433.916 178.806Z" fill="white" fill-opacity="0.05"/>
<path d="M490.824 189.355C478.566 189.355 468.388 181.555 460.067 175.091C454.495 170.782 441.049 171.971 429.236 173.085C416.533 174.2 405.538 175.24 402.566 170.485C401.154 168.182 401.823 164.839 404.572 160.307C426.413 124.425 469.799 99.4631 502.264 84.8278C539.038 68.261 576.704 58.3803 594.831 57.1173C617.49 55.5572 641.337 57.2659 643.788 64.5464C644.68 67.2952 642.526 70.4154 637.251 73.7585C618.084 86.0165 541.193 154.141 518.088 176.28C508.059 185.938 498.996 189.355 490.824 189.355ZM445.729 170.857C452.044 170.857 457.541 171.674 460.81 174.2C475.074 185.121 492.829 198.79 517.197 175.463C540.376 153.175 617.341 84.9764 636.657 72.6441C641.263 69.6725 643.343 67.0723 642.674 64.9179C640.817 59.3461 620.833 56.5973 595.054 58.3803C577.001 59.6432 539.558 69.5239 502.933 86.0165C470.468 100.577 427.379 125.391 405.686 161.05C403.235 165.062 402.566 168.034 403.68 169.891C406.206 173.977 417.35 172.937 429.162 171.897C434.808 171.302 440.603 170.857 445.729 170.857Z" fill="white" fill-opacity="0.05"/>
<path d="M495.726 178.657C485.548 178.657 476.93 172.194 469.427 166.548L469.278 166.399C464.375 162.759 452.786 163.873 442.534 164.913C431.539 166.028 422.029 166.993 419.504 162.907C418.241 160.976 418.835 158.079 421.138 154.215C439.859 123.162 477.153 101.543 505.235 88.9137C537.032 74.5756 569.497 66.0321 585.098 65.0663C604.414 63.8034 624.844 65.3635 626.924 71.6039C627.741 73.9812 625.809 76.6557 621.278 79.5531C604.711 90.1767 538.666 148.569 518.83 167.588C510.287 175.685 502.635 178.657 495.726 178.657ZM457.466 162.759C462.667 162.759 467.198 163.427 469.947 165.508L470.096 165.656C482.948 175.314 497.509 186.235 518.013 166.696C537.923 147.678 604.042 89.2109 620.609 78.6616C624.621 76.1357 626.404 73.8327 625.809 71.9754C624.249 67.2208 607.162 64.7692 585.172 66.1807C569.645 67.2208 537.403 75.6899 505.755 89.9538C477.896 102.509 440.751 123.979 422.178 154.81C420.098 158.227 419.578 160.753 420.544 162.313C422.772 165.805 432.802 164.765 442.534 163.799C447.586 163.353 452.86 162.759 457.466 162.759Z" fill="white" fill-opacity="0.05"/>
<path d="M500.629 167.885C492.383 167.885 485.474 162.833 479.382 158.376L478.491 157.707C474.33 154.661 464.524 155.776 455.832 156.816C446.545 157.856 438.596 158.747 436.368 155.404C435.328 153.77 435.773 151.467 437.631 148.198C466.381 99.7602 551.964 74.427 575.217 73.0155C584.132 72.4954 592.453 72.644 598.619 73.6098C605.305 74.5756 609.168 76.3586 609.911 78.7359C610.58 80.816 608.945 83.0447 605.156 85.4963C591.338 94.337 536.14 142.997 519.573 158.821C512.516 165.508 506.275 167.885 500.629 167.885ZM469.204 154.735C473.364 154.735 476.856 155.255 479.085 156.89L479.976 157.558C490.451 165.21 502.264 173.902 518.905 158.079C535.546 142.255 590.818 93.5198 604.636 84.6791C607.98 82.5247 609.465 80.5931 609.02 79.1073C607.682 75.0956 593.567 73.0155 575.292 74.1298C552.113 75.4671 467.05 100.577 438.522 148.718C436.813 151.541 436.368 153.621 437.185 154.884C439.042 157.707 447.511 156.741 455.683 155.85C460.364 155.255 465.044 154.735 469.204 154.735Z" fill="white" fill-opacity="0.05"/>
<path d="M505.457 157.187C499.291 157.187 494.091 153.472 489.262 150.055C488.742 149.684 488.296 149.312 487.776 149.015C484.359 146.638 476.335 147.678 469.203 148.644C461.552 149.684 455.088 150.575 453.305 147.826C452.488 146.563 452.785 144.706 454.271 142.106C477.153 102.36 546.466 82.0047 565.41 80.9646C577.222 80.296 591.561 81.1875 593.046 85.7935C593.566 87.5022 592.303 89.3595 589.109 91.3653C577.965 98.4972 533.614 137.426 520.316 150.055C514.744 155.33 509.841 157.187 505.457 157.187ZM480.793 146.712C483.839 146.712 486.513 147.158 488.222 148.346C488.742 148.718 489.188 149.015 489.708 149.386C498.177 155.33 506.869 161.496 519.647 149.386C533.019 136.757 577.445 97.7543 588.589 90.6224C590.52 89.4337 592.675 87.6508 592.155 86.0907C591.115 82.8961 579.897 81.1132 565.41 81.8561C546.615 82.8961 477.747 103.103 454.94 142.552C453.677 144.78 453.305 146.415 453.974 147.381C455.46 149.609 462.369 148.718 468.981 147.826C473.067 147.232 477.227 146.712 480.793 146.712Z" fill="white" fill-opacity="0.05"/>
<path d="M510.286 146.489C506.052 146.489 502.486 144.038 498.92 141.66C498.251 141.215 497.582 140.769 496.914 140.323C494.239 138.54 487.925 139.58 482.427 140.546C476.632 141.512 471.581 142.329 470.169 140.323C469.501 139.357 469.723 138.02 470.764 136.089C479.976 119.522 499.291 108.007 513.927 101.32C530.493 93.7427 547.729 89.2853 555.529 88.9881C564.296 88.6166 574.919 89.4338 576.034 92.9255C576.479 94.2627 575.439 95.7486 572.988 97.3087C564.593 102.658 531.013 131.854 520.984 141.363C516.972 145.152 513.406 146.489 510.286 146.489ZM492.308 138.614C494.388 138.614 496.171 138.912 497.36 139.654C498.028 140.1 498.697 140.546 499.366 140.992C505.606 145.226 511.475 149.164 520.464 140.695C530.568 131.185 564.147 101.989 572.616 96.5658C574.102 95.6 575.737 94.2627 575.365 93.0741C574.548 90.5482 566.45 89.211 555.604 89.6567C541.711 90.251 488.296 106.001 471.432 136.386C470.541 138.02 470.318 139.209 470.764 139.877C471.878 141.512 477.227 140.62 482.279 139.803C485.77 139.209 489.336 138.614 492.308 138.614Z" fill="white" fill-opacity="0.05"/>
<path d="M4.88802 468.02C3.32791 468.02 2.06497 467.723 1.17348 467.054C-0.535213 465.866 -1.05525 463.86 -0.460926 460.888C1.91638 449.67 24.8723 411.188 54.1429 369.436C102.729 300.197 132.668 271.521 143.292 262.383C189.724 222.415 234.298 196.561 256.883 196.487H256.957C266.838 196.487 267.878 205.031 268.992 214.094C270.478 226.352 272.187 240.17 292.394 244.108C309.703 247.451 331.916 247.525 351.455 247.525C376.565 247.599 396.327 247.599 399.373 254.434C400.19 256.291 400.19 258.148 399.447 259.931C395.732 268.178 374.337 275.161 327.385 290.539C318.99 293.288 309.555 296.334 299.377 299.751C266.912 310.524 203.022 351.532 141.137 391.278C67.961 438.155 20.4148 467.946 4.88802 468.02ZM256.883 198.716C231.698 198.79 182.443 231.627 144.703 264.092C122.416 283.259 90.0254 322.187 55.9259 370.699C26.8038 412.228 3.99653 450.339 1.69351 461.334C1.09918 464.231 2.06497 464.974 2.43642 465.197C6.44813 467.946 22.2721 461.483 49.314 445.882C74.35 431.469 106.221 410.965 139.875 389.346C201.833 349.526 265.872 308.369 298.56 297.597C308.738 294.254 318.173 291.134 326.568 288.385C370.028 274.195 394.024 266.32 397.292 259.04C397.812 257.851 397.812 256.663 397.218 255.325C394.767 249.828 373.668 249.828 351.381 249.754C331.694 249.679 309.406 249.679 291.874 246.262C270.106 242.027 268.249 226.649 266.689 214.317C265.5 204.362 264.46 198.716 256.883 198.716Z" fill="white" fill-opacity="0.05"/>
<path d="M18.6316 453.608C17.1457 453.608 15.9571 453.311 15.0656 452.716C13.5055 451.676 12.9112 449.819 13.3569 447.219C14.397 435.555 38.0215 396.924 61.1259 363.716C91.2138 320.256 121.524 283.556 142.103 265.429C144.555 263.275 147.08 261.046 149.606 258.966C188.535 226.055 226.497 204.733 246.333 204.585H246.407C255.471 204.585 256.511 212.385 257.625 220.632C259.111 231.701 260.82 244.33 279.318 247.822C295.217 250.868 315.646 250.868 333.699 250.942C356.581 250.942 374.708 251.017 377.828 257.034C379.017 258.817 379.388 260.6 378.794 262.383C376.194 270.109 354.946 277.315 308.44 293.065C302.943 294.922 296.999 296.928 290.759 299.083C261.637 309.038 203.913 345.812 148.046 381.397C78.7329 425.526 33.564 453.608 18.6316 453.608ZM246.407 206.665C226.943 206.813 189.501 227.986 150.944 260.526C148.492 262.606 145.966 264.835 143.515 266.989C97.157 307.849 17.1457 427.755 15.5113 447.442V447.516C15.0656 450.116 15.9571 450.71 16.2543 450.933C20.1917 453.533 35.2727 447.442 61.1259 432.658C85.0476 418.988 115.135 399.821 147.006 379.54C202.947 343.88 260.746 307.032 290.165 297.003C296.405 294.848 302.274 292.917 307.846 290.985C352.346 275.904 374.633 268.326 376.936 261.566C377.308 260.451 377.085 259.263 376.194 258L376.119 257.851C373.668 252.874 354.278 252.874 333.773 252.874C315.646 252.874 295.142 252.874 279.021 249.754C259.037 245.89 257.18 231.998 255.619 220.78C254.357 211.791 253.316 206.665 246.407 206.665Z" fill="white" fill-opacity="0.05"/>
<path d="M32.4504 439.195C31.0389 439.195 29.8502 438.898 29.033 438.378C27.5472 437.412 27.0271 435.778 27.3243 433.549C26.9529 426.417 37.5022 402.867 68.1843 357.921C88.6143 327.982 118.479 288.756 140.989 268.401C143.218 266.395 145.447 264.389 147.676 262.457C182.369 232.444 216.989 212.831 235.785 212.682H235.859C244.179 212.682 245.219 219.74 246.334 227.169C247.82 237.124 249.528 248.416 266.318 251.537C280.879 254.285 299.526 254.285 315.944 254.285C336.672 254.285 353.164 254.285 356.359 259.56C358.067 261.343 358.736 263.052 358.364 264.835C356.73 272.115 336.449 279.247 287.491 296.483L282.291 298.34C256.512 307.403 205.028 339.943 155.253 371.368C89.5801 412.822 46.7142 439.195 32.4504 439.195ZM235.933 214.614H235.859C217.509 214.837 183.409 234.153 149.013 263.943C146.784 265.875 144.481 267.881 142.327 269.886C119.965 290.168 90.1744 329.245 69.8187 359.036C45.0055 395.289 28.7358 425.229 29.2559 433.475V433.549V433.624C28.9587 435.852 29.7759 436.447 30.0731 436.669C33.9362 439.195 48.3486 433.326 73.0875 419.36C95.8205 406.507 124.2 388.529 154.287 369.585C204.137 338.085 255.694 305.546 281.696 296.408L286.897 294.551C332.288 278.579 355.096 270.555 356.507 264.315C356.656 263.572 356.656 262.457 354.947 260.749L354.873 260.674L354.798 260.526C352.347 256.143 334.666 256.143 316.019 256.143C299.526 256.143 280.73 256.143 266.021 253.394C247.894 249.977 245.962 237.421 244.402 227.392C243.214 219.22 242.248 214.614 235.933 214.614Z" fill="white" fill-opacity="0.05"/>
<path d="M46.1939 424.783C44.7823 424.783 43.7423 424.56 42.8508 424.04C41.9593 423.446 40.9192 422.257 41.1421 419.88C37.0561 402.198 103.844 305.175 139.875 271.447C141.881 269.589 143.886 267.806 145.818 266.023C176.872 238.387 207.331 221.077 225.309 220.78H225.383C232.887 220.78 234.001 227.021 235.116 233.632C236.601 242.473 238.384 252.428 253.465 255.251C266.615 257.703 283.479 257.628 298.411 257.628C317.058 257.554 331.768 257.554 335.037 262.16C337.488 263.869 338.528 265.578 338.306 267.435C337.488 273.824 320.922 280.436 273.821 297.671C251.385 305.917 206.291 334.074 162.682 361.339C100.426 400.118 59.8634 424.783 46.1939 424.783ZM225.458 222.563H225.383C208.074 222.86 177.317 240.393 147.081 267.361C145.149 269.144 143.143 270.926 141.138 272.784C103.175 308.295 38.9876 404.353 42.9251 419.583L42.9993 419.731V419.88C42.8508 421.588 43.4451 422.183 43.8908 422.48C52.5829 427.903 110.53 391.649 161.716 359.704C205.399 332.439 250.568 304.209 273.227 295.888C313.195 281.253 335.78 272.709 336.523 267.138C336.671 266.023 335.78 264.835 333.848 263.497L333.7 263.423L333.625 263.275C331.099 259.411 315.201 259.411 298.411 259.486C283.479 259.486 266.466 259.56 253.168 257.108C236.824 254.062 234.893 242.993 233.407 234.004C232.07 226.649 231.104 222.563 225.458 222.563Z" fill="white" fill-opacity="0.05"/>
<path d="M59.8639 410.37C58.601 410.37 57.5609 410.148 56.818 409.702C56.0008 409.182 55.035 408.216 55.035 406.136C53.3263 402.421 55.1836 394.769 60.5325 383.477C65.2872 373.448 72.7905 360.596 82.1512 346.332C100.501 318.473 123.234 289.573 138.761 274.418C140.544 272.709 142.253 271.075 143.961 269.441C170.78 244.702 197.896 229.101 214.835 228.729C221.669 228.655 222.784 234.152 223.898 240.021C225.384 247.673 227.167 256.365 240.539 258.817C252.352 260.897 267.433 260.897 280.731 260.823C297.223 260.749 310.373 260.674 313.642 264.537C315.87 265.578 318.619 267.286 318.545 269.886C318.322 275.087 306.881 280.881 265.352 296.854C246.26 304.209 207.628 327.982 170.334 351.012C112.982 386.449 73.0877 410.37 59.8639 410.37ZM214.909 230.512H214.835C201.908 230.809 176.723 241.507 145.076 270.778C143.367 272.412 141.658 274.047 139.875 275.681C124.423 290.762 101.838 319.587 83.5627 347.372C63.5785 377.757 53.5492 399.524 56.6694 405.69L56.7437 405.913V406.136C56.6694 407.622 57.2637 408.142 57.6352 408.365C66.1786 413.416 121.005 379.614 169.443 349.749C208.52 325.605 245.517 302.872 264.758 295.442C299.155 282.219 316.688 274.641 316.836 269.961C316.91 268.772 315.499 267.509 312.676 266.172L312.453 266.098L312.304 265.949C309.778 262.606 295.589 262.68 280.656 262.68C267.284 262.754 252.129 262.829 240.094 260.674C225.533 258.074 223.675 248.342 222.115 240.542C221.001 234.078 220.035 230.512 214.909 230.512Z" fill="white" fill-opacity="0.05"/>
<path d="M73.5319 395.958C72.3433 395.958 71.4518 395.735 70.7089 395.364C69.966 394.918 69.0745 394.101 68.9259 392.466C66.4743 389.198 67.2915 382.734 71.4518 372.779C75.0178 364.236 81.1096 353.092 89.133 340.611C103.62 317.878 123.604 291.877 137.571 277.464C139.057 275.978 140.542 274.493 142.028 273.007C164.613 251.165 188.46 237.273 204.284 236.901C210.301 236.827 211.416 241.582 212.604 246.633C214.165 253.171 215.873 260.526 227.537 262.606C238.012 264.389 251.31 264.315 263.048 264.24C277.46 264.166 288.901 264.092 292.17 267.286C296.999 268.846 299.153 270.481 299.228 272.635C299.451 277.316 288.753 283.333 256.808 296.334C241.132 302.723 210.673 321.222 178.431 340.834C131.776 369.065 87.4243 395.958 73.5319 395.958ZM204.432 238.461C204.358 238.461 204.358 238.461 204.284 238.461C188.831 238.907 165.355 252.577 143.068 274.121C141.657 275.533 140.171 277.018 138.685 278.504C124.793 292.917 104.957 318.77 90.4703 341.429C73.3834 368.248 66.0286 386.597 70.3374 391.649L70.486 391.872V392.169C70.486 393.358 71.0803 393.804 71.4518 394.027C79.921 398.707 131.925 367.133 177.688 339.348C210.004 319.736 240.464 301.237 256.288 294.774C277.906 285.933 297.89 277.167 297.742 272.635C297.668 271.298 295.587 269.961 291.576 268.698L291.353 268.624L291.204 268.475C288.678 265.652 276.197 265.726 263.122 265.801C251.31 265.875 237.938 265.949 227.314 264.166C214.61 261.937 212.679 253.691 211.119 247.005C209.856 241.507 208.89 238.461 204.432 238.461Z" fill="white" fill-opacity="0.05"/>
<path d="M87.2775 381.62C86.2374 381.62 85.3459 381.471 84.6773 381.1C83.7115 380.654 83.1172 379.837 82.8943 378.797C81.4828 377.608 80.6656 375.825 80.4427 373.448C78.8083 355.024 116.028 303.095 136.458 280.436L140.098 276.498C158.82 257.257 178.878 245.445 193.736 244.925C199.011 244.851 200.125 248.862 201.314 253.023C202.874 258.371 204.583 264.538 214.612 266.172C223.676 267.658 235.265 267.509 245.443 267.435C257.775 267.286 267.656 267.212 270.776 269.738C277.314 271.001 280.359 272.635 280.657 275.013C281.028 278.059 277.314 282.665 248.414 295.368C236.231 300.717 212.606 314.833 187.644 329.691C144.927 355.321 100.873 381.62 87.2775 381.62ZM193.959 246.411C193.885 246.411 193.885 246.411 193.811 246.411C188.387 246.559 168.477 249.382 141.138 277.539L137.498 281.476C117.217 303.912 80.2198 355.321 81.8542 373.299C82.0771 375.38 82.7457 376.865 84.0087 377.831L84.2316 377.98V378.277C84.3058 379.02 84.6773 379.466 85.2716 379.763C85.7917 380.06 86.5346 380.134 87.4261 380.134C100.427 380.134 148.122 351.681 186.902 328.502C211.938 313.57 235.636 299.454 247.894 294.031C261.638 288.014 279.839 279.47 279.319 275.087C279.171 273.527 276.125 272.115 270.404 271.001H270.182L270.033 270.852C267.433 268.549 256.735 268.624 245.443 268.772C235.191 268.847 223.601 268.995 214.389 267.509C203.468 265.652 201.537 258.817 199.977 253.32C198.714 248.937 197.822 246.411 193.959 246.411Z" fill="white" fill-opacity="0.05"/>
<path d="M100.945 367.208C99.9795 367.208 99.2366 367.059 98.568 366.836C97.6765 366.465 97.0822 365.87 96.785 365.127C94.7049 364.013 93.3676 362.156 92.8476 359.704C91.3618 352.647 96.1164 340.24 106.963 322.707C117.512 305.695 130.29 289.648 135.268 283.556C136.233 282.367 137.199 281.253 138.165 280.139C152.875 263.572 169.293 253.691 183.185 253.097C187.717 253.022 188.831 256.217 190.02 259.634C191.58 263.869 193.289 268.698 201.609 270.035C209.336 271.224 219.142 271.075 227.76 270.927C238.086 270.778 246.258 270.629 249.378 272.561C258.293 273.452 262.454 275.013 262.899 277.761C263.345 280.287 261.116 284.596 239.869 294.922C231.474 299.008 216.245 307.923 198.638 318.176C152.8 344.92 113.5 367.208 100.945 367.208ZM183.482 254.36C183.408 254.36 183.408 254.36 183.334 254.36C169.813 254.954 153.692 264.612 139.205 280.956C138.314 282.07 137.348 283.185 136.308 284.373C131.33 290.465 118.627 306.512 108.077 323.376C97.5279 340.314 92.699 352.795 94.1106 359.407C94.5563 361.636 95.745 363.196 97.6022 364.087L97.8251 364.236L97.8994 364.533C98.048 365.053 98.4194 365.425 99.0138 365.722C108.226 369.511 160.155 339.126 198.043 316.987C215.65 306.66 230.88 297.82 239.349 293.66C254.727 286.23 262.231 280.882 261.711 277.91C261.339 275.904 257.105 274.567 249.156 273.75H249.007L248.858 273.675C246.258 271.892 237.343 272.041 227.834 272.189C219.142 272.338 209.261 272.487 201.461 271.298C192.397 269.886 190.466 264.463 188.906 260.08C187.717 256.737 186.9 254.36 183.482 254.36Z" fill="white" fill-opacity="0.05"/>
<path d="M114.541 352.795C113.798 352.795 113.203 352.721 112.683 352.572C111.866 352.349 111.272 351.904 110.826 351.309C107.78 350.269 105.7 348.338 104.809 345.589C100.797 333.554 118.924 307.998 130.959 291.059C132.148 289.425 133.188 287.865 134.228 286.453C134.971 285.488 135.639 284.522 136.382 283.556C147.08 269.738 160.007 261.714 172.785 261.12C176.499 261.046 177.688 263.423 178.877 266.023C180.437 269.144 182.145 272.709 188.757 273.601C195.146 274.492 203.17 274.27 210.302 274.121C218.251 273.972 225.16 273.824 228.057 275.087C239.572 275.31 245.59 276.944 246.407 280.139C247.224 283.482 242.395 288.013 231.549 294.031C228.057 295.963 222.782 299.008 216.616 302.574C185.786 320.404 129.696 352.795 114.541 352.795ZM173.008 262.309C172.933 262.309 172.933 262.309 172.859 262.309C160.378 262.903 147.749 270.778 137.274 284.299C136.605 285.265 135.862 286.23 135.193 287.196C134.228 288.608 133.113 290.168 131.925 291.802C120.781 307.478 102.06 333.777 105.923 345.292C106.74 347.743 108.523 349.378 111.42 350.343L111.643 350.418L111.718 350.641C111.94 351.086 112.386 351.384 112.981 351.532C113.426 351.681 114.021 351.755 114.689 351.755C129.399 351.755 187.494 318.175 216.096 301.683C222.188 298.117 227.463 295.071 231.029 293.139C243.732 286.082 245.813 282.367 245.367 280.51C244.921 278.727 241.578 276.573 227.983 276.275H227.834L227.76 276.201C225.085 274.938 217.954 275.161 210.376 275.31C203.244 275.458 195.146 275.681 188.683 274.79C181.477 273.75 179.471 269.738 177.911 266.543C176.648 264.092 175.756 262.309 173.008 262.309Z" fill="white" fill-opacity="0.05"/>
<path d="M128.062 338.382C126.576 338.382 125.461 338.085 124.793 337.491C120.113 336.599 117.067 334.594 115.655 331.548C112.163 323.673 120.335 310.523 127.467 298.86C129.547 295.517 131.479 292.322 133.039 289.499C133.559 288.682 134.005 287.865 134.376 287.122C141.137 275.904 150.498 269.886 162.235 269.218C165.133 269.143 166.321 270.703 167.659 272.486C169.145 274.492 170.853 276.795 175.831 277.39C180.882 277.91 187.197 277.687 192.843 277.538C198.787 277.315 203.987 277.167 206.736 277.835C216.988 277.315 229.543 277.835 231.177 282.739C232.069 285.487 229.394 289.053 223.08 293.362C214.685 299.083 191.655 312.158 170.779 322.41C155.104 330.062 136.234 338.382 128.062 338.382ZM162.533 270.258C162.458 270.258 162.384 270.258 162.31 270.258C150.943 270.926 141.88 276.795 135.342 287.716C134.971 288.459 134.451 289.276 134.005 290.093C132.445 292.916 130.513 296.111 128.433 299.454C121.747 310.3 113.352 323.821 116.621 331.176C117.884 333.999 120.633 335.782 125.164 336.599H125.313L125.387 336.674C132.296 343.36 203.764 305.249 222.485 292.471C228.28 288.533 230.955 285.264 230.212 282.961C229.097 279.618 220.48 278.058 206.661 278.727H206.587H206.513C203.838 278.058 198.489 278.207 192.843 278.43C187.197 278.653 180.808 278.801 175.682 278.281C170.259 277.687 168.327 275.087 166.842 273.006C165.579 271.446 164.687 270.258 162.533 270.258Z" fill="white" fill-opacity="0.05"/>
<path d="M141.36 324.119C140.32 324.119 139.429 323.97 138.76 323.747C131.331 323.153 126.799 321.296 124.942 318.101C122.416 313.718 125.313 307.7 128.285 301.311C129.622 298.414 131.108 295.442 131.925 292.619C132.148 291.951 132.371 291.356 132.519 290.762C135.417 282.144 141.137 278.133 151.761 277.315C153.841 277.241 155.104 277.984 156.441 278.801C157.927 279.767 159.636 280.807 162.904 281.03C166.768 281.253 171.299 280.956 175.757 280.733C179.397 280.51 182.889 280.361 185.415 280.436C203.17 278.578 215.502 280.436 217.657 285.116C218.623 287.196 217.657 289.722 214.685 292.619C209.931 297.225 194.181 305.695 176.5 313.198C169.962 315.947 150.052 324.119 141.36 324.119ZM152.132 278.207C152.058 278.207 151.909 278.207 151.835 278.207C141.509 278.95 136.16 282.664 133.411 290.985C133.262 291.579 133.039 292.248 132.817 292.917C131.925 295.74 130.514 298.785 129.102 301.683C126.205 307.849 123.382 313.644 125.685 317.655C127.393 320.553 131.702 322.261 138.908 322.856H139.057C147.749 326.273 203.542 302.129 214.091 291.951C216.765 289.351 217.731 287.196 216.914 285.487C214.908 281.179 202.576 279.544 185.489 281.327C183.037 281.179 179.546 281.401 175.905 281.624C171.448 281.847 166.842 282.144 162.979 281.921C159.487 281.699 157.63 280.51 156.07 279.618C154.732 278.801 153.692 278.207 152.132 278.207Z" fill="white" fill-opacity="0.05"/>
<path d="M152.728 309.855C152.728 309.855 152.653 309.855 152.728 309.855C139.355 309.855 133.561 308.963 131.481 306.586C130.143 305.1 130.366 303.243 130.663 300.791C130.886 298.934 131.109 296.78 130.663 294.328C130.218 291.579 130.44 289.722 131.481 288.385C133.412 285.859 138.092 285.562 145.893 284.967C150.722 284.596 156.739 284.15 164.094 283.036C184.301 279.99 201.908 281.624 205.846 286.973C206.886 288.385 207.034 289.945 206.217 291.728C202.28 300.271 163.723 309.855 152.728 309.855ZM183.336 282.293C177.541 282.293 171.003 282.813 164.169 283.853C156.814 284.967 150.796 285.413 145.967 285.785C138.39 286.379 133.858 286.676 132.075 288.905C131.183 290.019 130.961 291.728 131.406 294.254C131.852 296.854 131.629 299.157 131.406 300.94C131.183 303.243 130.961 304.877 132.075 306.14C134.006 308.295 139.727 309.112 152.728 309.112C163.351 309.112 201.834 299.529 205.549 291.505C206.217 290.019 206.143 288.682 205.251 287.493C202.725 284.15 194.405 282.293 183.336 282.293Z" fill="white" fill-opacity="0.05"/>
</svg>
