<svg width="20" height="20" viewBox="0 0 20 20" fill="none" xmlns="http://www.w3.org/2000/svg">
<path fill-rule="evenodd" clip-rule="evenodd" d="M8.33342 1.66675H11.8667C13.6349 1.66675 15.3306 2.36913 16.5808 3.61937C17.831 4.86961 18.5334 6.5653 18.5334 8.33342V11.8667C18.5334 15.5486 15.5486 18.5334 11.8667 18.5334H8.33342C4.65152 18.5334 1.66675 15.5486 1.66675 11.8667V8.33342C1.66675 4.65152 4.65152 1.66675 8.33342 1.66675ZM10.1001 15.1001C10.5603 15.1001 10.9334 14.727 10.9334 14.2667V10.1001C10.9347 9.87857 10.8477 9.66567 10.6918 9.5084L7.35842 6.17507C7.14704 5.96369 6.83894 5.88113 6.55019 5.9585C6.26144 6.03587 6.03589 6.26142 5.95852 6.55017C5.88115 6.83892 5.96371 7.14702 6.17509 7.3584L9.26675 10.4417V14.2667C9.26675 14.727 9.63985 15.1001 10.1001 15.1001Z" fill="white"/>
</svg>
