<svg width="18" height="20" viewBox="0 0 18 20" fill="none" xmlns="http://www.w3.org/2000/svg">
<path fill-rule="evenodd" clip-rule="evenodd" d="M7.53174 7.65644C7.16414 7.52888 6.84318 7.27513 6.59628 6.94182C6.34939 6.60852 6.19165 6.17645 6.17108 5.72381C6.17108 5.61134 6.17245 5.49749 6.17794 5.38365C6.19439 5.27392 6.21634 5.16283 6.23828 5.05173L6.23829 5.05172C6.2519 4.96478 6.27992 4.88665 6.30828 4.80754L6.30828 4.80753C6.31706 4.78304 6.32587 4.75846 6.3343 4.7335C6.34502 4.70614 6.35524 4.67809 6.36551 4.64993C6.39332 4.5736 6.42141 4.4965 6.46049 4.43037L6.47779 4.39786C6.57239 4.22001 6.66962 4.03724 6.79243 3.88857L6.98308 3.64168L7.12985 3.46337C7.48784 3.00936 7.72102 2.54575 7.78686 1.97103C7.85681 1.39495 7.74845 0.729707 7.53311 0C7.88287 0.174197 8.16817 0.448523 8.40683 0.768113C8.64275 1.08907 8.81558 1.4745 8.89925 1.89697C8.98429 2.31806 8.9596 2.77618 8.8389 3.20276C8.71682 3.62933 8.50148 4.02162 8.23812 4.34807L7.89796 4.74584C7.82754 4.81626 7.7745 4.89073 7.72152 4.96512L7.72152 4.96512L7.72152 4.96513L7.72151 4.96513L7.72151 4.96514C7.69297 5.00521 7.66445 5.04526 7.63323 5.08464C7.4851 5.31507 7.34382 5.54824 7.28073 5.80337C7.2094 6.05849 7.18746 6.34242 7.23135 6.65652C7.26838 6.97474 7.37537 7.30531 7.53174 7.65644ZM4.54967 6.54007C4.31787 6.49481 4.11212 6.36039 3.94753 6.17248C3.7843 5.98319 3.67457 5.72258 3.65125 5.44414C3.64851 5.37556 3.64714 5.30561 3.64851 5.23428C3.65674 5.16707 3.66771 5.09849 3.68006 5.02991C3.68755 4.97424 3.7034 4.9261 3.71978 4.87634L3.71978 4.87634C3.72439 4.86234 3.72903 4.84822 3.73355 4.83377C3.73812 4.82062 3.74258 4.80724 3.74705 4.7938C3.76403 4.74275 3.78127 4.69095 3.80625 4.6486C3.86386 4.53475 3.92558 4.41542 4.00102 4.32078L4.18619 4.078L4.25614 3.99433L4.25616 3.9943L4.25616 3.9943C4.27399 3.9655 4.29181 3.93671 4.31238 3.90792C4.33912 3.87645 4.35685 3.84363 4.3746 3.81076L4.3746 3.81075C4.38781 3.7863 4.40103 3.76182 4.41799 3.73783C4.47286 3.62124 4.5291 3.50054 4.56064 3.35378C4.62648 3.06162 4.61688 2.69128 4.55104 2.2359C4.98996 2.39638 5.32327 2.78729 5.45083 3.29342C5.5153 3.54718 5.50021 3.82562 5.43574 4.08897L5.42413 4.12478C5.38686 4.24002 5.34849 4.35867 5.28761 4.45931L5.19022 4.63076C5.1613 4.67147 5.13071 4.7105 5.1004 4.74916L5.10039 4.74918L5.075 4.78164L4.96116 4.92018C4.93647 4.94898 4.91178 4.97779 4.88572 5.00522C4.8522 5.03714 4.82658 5.06999 4.80128 5.10242C4.7831 5.12573 4.76509 5.14882 4.74444 5.17119L4.71642 5.21008C4.64637 5.307 4.57865 5.40071 4.5387 5.50724C4.43034 5.74179 4.41799 6.09567 4.54967 6.54007ZM9.75782 6.17248C9.92242 6.36039 10.1282 6.49481 10.36 6.54007C10.2283 6.09567 10.242 5.74179 10.349 5.50724C10.3889 5.40071 10.4567 5.307 10.5267 5.21009L10.5547 5.17119C10.5754 5.14882 10.5934 5.12574 10.6116 5.10244L10.6116 5.10243L10.6116 5.10242C10.6369 5.06999 10.6625 5.03714 10.696 5.00522C10.7221 4.97779 10.7468 4.94898 10.7715 4.92018L10.8853 4.78164L10.9107 4.74921L10.9107 4.7492C10.941 4.71052 10.9716 4.67148 11.0005 4.63076L11.0979 4.45931C11.1588 4.35867 11.1972 4.24002 11.2344 4.12478L11.246 4.08897C11.3105 3.82562 11.3256 3.54718 11.2611 3.29342C11.1336 2.78729 10.8003 2.39638 10.3613 2.2359C10.4272 2.69128 10.4368 3.06162 10.3709 3.35378C10.3394 3.50054 10.2832 3.62124 10.2283 3.73783C10.2113 3.76182 10.1981 3.7863 10.1849 3.81076C10.1671 3.84363 10.1494 3.87645 10.1227 3.90792C10.1021 3.93671 10.0843 3.96551 10.0665 3.9943L10.0665 3.99431L10.0664 3.99432L10.0664 3.99433L9.99649 4.078L9.81132 4.32078C9.73588 4.41542 9.67415 4.53475 9.61654 4.6486C9.59157 4.69095 9.57433 4.74275 9.55734 4.7938L9.55734 4.79381C9.55287 4.80724 9.54842 4.82062 9.54385 4.83377C9.53933 4.84822 9.53468 4.86234 9.53008 4.87634L9.53007 4.87635C9.51369 4.9261 9.49785 4.97425 9.49035 5.02991C9.47801 5.09849 9.46704 5.16707 9.45881 5.23428C9.45744 5.30561 9.45881 5.37556 9.46155 5.44414C9.48487 5.72258 9.5946 5.98319 9.75782 6.17248ZM12.5135 19.4759H2.43618C2.12893 19.4759 1.88067 19.2276 1.88067 18.9203C1.88067 18.6131 2.12893 18.3648 2.43618 18.3648H12.5135C12.8208 18.3648 13.0691 18.6131 13.0691 18.9203C13.0691 19.2262 12.8208 19.4759 12.5135 19.4759ZM14.8437 9.54256H15.6324C17.1274 9.54256 18.163 11.0321 17.6418 12.434C16.945 14.309 15.155 15.553 13.1552 15.553H12.5105C11.191 16.8245 9.42163 17.6036 7.47391 17.6036C3.39743 17.6036 0.0917969 14.1924 0.0917969 9.98422C0.0917969 9.58096 0.123344 9.18593 0.180953 8.8005H14.7682C14.8053 9.04465 14.83 9.29155 14.8437 9.54256ZM14.4404 13.5175C15.0865 13.5175 15.6639 13.1157 15.8889 12.5108C16.0576 12.0581 15.7229 11.5767 15.2387 11.5781H14.6928C14.5776 12.1391 14.4006 12.6767 14.173 13.1856V13.5175H14.4404Z" fill="white"/>
</svg>
