<svg width="50" height="50" viewBox="0 0 50 50" fill="none" xmlns="http://www.w3.org/2000/svg">
<path fill-rule="evenodd" clip-rule="evenodd" d="M19 17H31C33.2091 17 35 18.7909 35 21V30C35 32.2091 33.2091 34 31 34H19C16.7909 34 15 32.2091 15 30V21C15 18.7909 16.7909 17 19 17ZM26.4 26.55L32.74 21.85C33.0229 21.642 33.0854 21.2448 32.88 20.96C32.7821 20.824 32.6333 20.7335 32.4675 20.709C32.3017 20.6845 32.1331 20.7281 32 20.83L25.59 25.5C25.4296 25.6681 25.2074 25.7633 24.975 25.7633C24.7426 25.7633 24.5204 25.6681 24.36 25.5L18 20.83C17.8676 20.7313 17.7013 20.6896 17.538 20.714C17.3746 20.7384 17.2278 20.8269 17.13 20.96C16.9224 21.2422 16.9804 21.6389 17.26 21.85L23.56 26.5C23.952 26.8719 24.4697 27.0825 25.01 27.09C25.5245 27.0899 26.0204 26.8973 26.4 26.55Z" fill="white"/>
<circle cx="25" cy="25" r="25" fill="#4949B7" fill-opacity="0.26"/>
</svg>
