<svg width="133" height="208" viewBox="0 0 133 208" fill="none" xmlns="http://www.w3.org/2000/svg">
<path d="M70.5 208C91.2107 208 108 206.433 108 204.5C108 202.567 91.2107 201 70.5 201C49.7893 201 33 202.567 33 204.5C33 206.433 49.7893 208 70.5 208Z" fill="#462F94"/>
<path d="M47.7371 58.4225C46.6876 54.9241 43.889 53.175 40.3906 53.8746C36.8923 54.9241 35.1431 57.7228 36.1926 61.571C37.2421 65.0693 40.0408 66.8185 43.5391 66.1188C47.0375 65.0693 48.4368 61.9208 47.7371 58.4225ZM38.2916 15.7427L22.1992 19.9407L35.8428 50.7261L42.8395 48.9769L38.2916 15.7427Z" fill="#A4AEC3" fill-opacity="0.6"/>
<path d="M109.658 72.0661C110.708 71.0166 112.107 71.0166 113.157 72.0661C114.206 73.1156 114.206 74.515 113.157 75.5645C112.107 76.614 110.708 76.614 109.658 75.5645C108.609 74.515 108.609 73.1156 109.658 72.0661ZM114.206 68.9176L126.45 53.5249L132.747 59.8219L116.305 71.0166L114.206 68.9176Z" fill="#A4AEC3"/>
<path d="M70.826 50.726C66.2782 50.3762 62.7798 53.1748 62.0802 58.0725C61.7303 62.6204 64.529 66.4685 69.0769 66.8184C73.9745 67.1682 77.1231 64.0197 77.4729 59.4719C78.1726 54.5742 75.3739 51.0758 70.826 50.726ZM76.0736 45.4785L87.2682 2.09901L63.4795 0L66.9779 44.7788L76.0736 45.4785Z" fill="#A4AEC3"/>
<path d="M114.349 40.8213C119.105 39.9828 122.282 35.4469 121.443 30.6901C120.605 25.9333 116.069 22.757 111.312 23.5955C106.555 24.434 103.379 28.9699 104.218 33.7267C105.056 38.4835 109.592 41.6599 114.349 40.8213Z" fill="#A4AEC3" fill-opacity="0.6"/>
<path d="M101.989 57.6452C104.272 57.2424 105.797 55.065 105.394 52.7818C104.991 50.4985 102.814 48.974 100.531 49.3768C98.2474 49.7795 96.723 51.9569 97.1257 54.2402C97.5284 56.5234 99.7058 58.0479 101.989 57.6452Z" fill="#A4AEC3" fill-opacity="0.6"/>
<path d="M94.2166 68.5587C95.168 68.391 95.8032 67.4839 95.6355 66.5325C95.4678 65.5812 94.5607 64.9459 93.6093 65.1136C92.6579 65.2813 92.0227 66.1885 92.1904 67.1398C92.3581 68.0912 93.2653 68.7265 94.2166 68.5587Z" fill="#A4AEC3" fill-opacity="0.6"/>
<path d="M14.4056 61.0301C14.6487 57.1736 11.7196 53.8503 7.86312 53.6071C4.00668 53.364 0.683335 56.2932 0.440212 60.1496C0.19709 64.0061 3.12626 67.3294 6.9827 67.5725C10.8391 67.8157 14.1625 64.8865 14.4056 61.0301Z" fill="#A4AEC3"/>
<path d="M24.9142 73.5011C25.0236 71.7657 23.7055 70.2702 21.9701 70.1608C20.2347 70.0514 18.7392 71.3695 18.6298 73.1049C18.5203 74.8403 19.8385 76.3358 21.5739 76.4452C23.3092 76.5546 24.8048 75.2365 24.9142 73.5011Z" fill="#A4AEC3"/>
<g style="mix-blend-mode:color-burn" opacity="0.7">
<path d="M97.0628 106.7C96.713 104.601 94.614 103.552 92.8648 103.901L91.4655 104.251L7.85506 126.641L6.45572 126.991C4.35672 127.69 3.30721 129.789 4.00688 131.538L10.3039 149.03L15.5514 147.631L31.9936 192.06C32.6933 193.809 34.4425 194.509 36.1916 194.159L100.211 177.017C101.961 176.667 103.01 174.918 102.66 173.169L94.9638 126.641L100.211 125.241L97.0628 106.7Z" fill="url(#paint0_linear_205_830)"/>
</g>
<g style="mix-blend-mode:color-burn" opacity="0.7">
<path d="M128.898 123.142C129.248 121.043 127.848 119.294 125.749 118.944H124.35L37.9409 111.248H36.5415C34.4425 110.898 32.6934 112.647 32.6934 114.746V133.287L38.2907 133.637L38.6405 180.865C38.6405 182.614 40.0399 184.013 41.789 184.363L107.908 190.311C109.657 190.311 111.406 189.261 111.756 187.512L120.502 140.984L126.099 141.334L128.898 123.142Z" fill="url(#paint1_linear_205_830)"/>
</g>
<path d="M78.5221 75.215C68.027 76.2645 63.829 100.403 62.4297 110.898C62.4297 111.948 62.7795 113.347 63.4792 114.047C64.1789 114.746 65.2284 115.096 65.928 114.746C66.2779 114.746 66.2779 114.746 66.6277 114.746C76.7729 111.598 99.862 102.852 99.1623 92.7068C98.4626 82.2117 89.3669 74.5154 78.5221 75.215ZM76.7729 90.9576C80.6211 90.6078 84.1194 93.4064 84.4693 97.2546C83.7696 99.0038 78.5221 101.802 71.8752 104.601C73.2746 97.6044 75.3736 91.6573 76.7729 90.9576Z" fill="#FF4141"/>
<path d="M69.4262 110.548C66.2777 100.403 57.5318 77.3137 47.3866 78.0134C36.8916 79.0629 28.8454 88.1586 29.8949 99.0034C30.9444 109.498 55.083 113.696 65.578 115.096C65.9278 115.096 65.9278 115.096 66.2776 115.096C67.3272 115.096 68.0268 114.746 68.7265 113.696C69.4262 112.997 69.776 111.597 69.4262 110.548ZM45.6374 100.753C45.2876 96.9044 48.0863 93.4061 51.9344 93.0562C53.6836 93.7559 56.4823 99.0034 59.281 105.65C52.2843 104.251 46.3371 102.152 45.6374 100.753Z" fill="#FF4141"/>
<path d="M55.4325 112.297C55.0826 106.35 59.2807 101.452 64.878 101.102C70.8252 100.753 75.7229 104.951 76.0727 110.548L55.4325 112.297Z" fill="#D83232"/>
<path d="M109.308 107.749L22.8984 115.445L35.4925 184.013C35.8423 185.762 37.5915 187.161 39.3407 186.812L105.459 180.864C107.209 180.864 108.608 179.115 108.608 177.366L109.308 107.749Z" fill="url(#paint2_linear_205_830)"/>
<path d="M18.3504 119.294L21.499 137.486L114.555 129.439V110.898C114.555 108.799 112.806 107.4 110.707 107.4L21.499 115.096C19.4 115.446 18.0006 117.545 18.3504 119.294Z" fill="url(#paint3_linear_205_830)"/>
<path d="M76.3595 110.483L55.4492 112.313L61.7908 184.802L82.7011 182.972L76.3595 110.483Z" fill="#F55142"/>
<path d="M108.957 141.334V130.139L27.0957 137.136L29.1947 148.331L108.957 141.334Z" fill="url(#paint4_linear_205_830)"/>
<path d="M76.4237 110.548L55.4336 112.297L62.0805 184.713L82.7207 182.964L76.4237 110.548Z" fill="#FF4141"/>
<defs>
<linearGradient id="paint0_linear_205_830" x1="24.4759" y1="186.209" x2="94.1567" y2="103.166" gradientUnits="userSpaceOnUse">
<stop stop-color="#F9CD86"/>
<stop offset="0.2523" stop-color="#FDF1DC"/>
<stop offset="0.35" stop-color="white"/>
</linearGradient>
<linearGradient id="paint1_linear_205_830" x1="39.1957" y1="106.954" x2="116.135" y2="183.893" gradientUnits="userSpaceOnUse">
<stop offset="0.5" stop-color="white"/>
<stop offset="1" stop-color="#F9CD86"/>
</linearGradient>
<linearGradient id="paint2_linear_205_830" x1="26.0743" y1="151.425" x2="112.329" y2="143.879" gradientUnits="userSpaceOnUse">
<stop stop-color="#F7B855"/>
<stop offset="1" stop-color="#F5AB35"/>
</linearGradient>
<linearGradient id="paint3_linear_205_830" x1="18.9479" y1="126.809" x2="115.073" y2="118.399" gradientUnits="userSpaceOnUse">
<stop stop-color="#F7B855"/>
<stop offset="1" stop-color="#F5AB35"/>
</linearGradient>
<linearGradient id="paint4_linear_205_830" x1="27.4811" y1="142.852" x2="109.454" y2="135.681" gradientUnits="userSpaceOnUse">
<stop stop-color="#F39C12"/>
<stop offset="1" stop-color="#F38812"/>
</linearGradient>
</defs>
</svg>
