<svg width="568" height="316" viewBox="0 0 568 316" fill="none" xmlns="http://www.w3.org/2000/svg">
<path d="M425.617 97.7384V253.595C425.617 254.899 425.4 256.204 424.748 257.29C423.443 260.334 420.4 262.29 416.705 262.29H143.902C139.119 262.29 134.989 258.377 134.989 253.378V97.5211C134.989 92.7389 138.902 88.8262 143.902 88.8262H416.705C421.705 89.0435 425.617 92.9562 425.617 97.7384Z" fill="#E4E0FF"/>
<path d="M425.617 236.64V253.595C425.617 254.899 425.4 256.203 424.748 257.29C423.443 260.333 420.4 262.29 416.705 262.29H143.902C139.119 262.29 134.989 258.377 134.989 253.377V218.163C142.38 214.033 151.944 210.772 164.552 211.424C180.42 212.294 186.507 222.51 186.507 222.51C186.507 222.51 188.68 214.25 196.723 218.38C196.723 218.38 200.636 202.73 214.113 211.642C214.113 211.642 213.678 184.688 234.329 182.079C258.892 179.253 265.413 197.513 265.413 197.513C265.413 197.513 274.978 180.775 292.367 179.036C309.757 177.297 318.235 199.904 318.235 199.904C318.235 199.904 326.06 191.209 333.886 198.165C341.494 204.903 338.451 212.077 338.451 212.294C338.668 212.294 349.102 208.164 351.276 218.38C351.276 218.38 368.448 205.555 380.838 214.033C393.229 222.51 387.36 239.9 387.36 239.9C387.36 239.9 397.359 234.683 400.619 240.552V240.77C402.358 244.03 407.575 246.204 409.966 243.161C414.749 237.292 420.618 235.988 425.617 236.64Z" fill="#AEABDB"/>
<path d="M424.748 257.291C423.444 260.334 420.4 262.29 416.705 262.29H143.902C139.119 262.29 134.989 258.378 134.989 253.378V244.9C143.467 236.206 156.292 228.163 174.769 229.902C192.376 231.423 196.506 243.814 196.506 243.814C196.506 243.814 196.723 225.554 215.635 217.511C222.373 214.686 232.59 217.946 232.59 217.946C232.59 217.946 234.764 211.425 239.328 211.208C244.763 210.99 247.589 215.555 247.589 215.555C247.589 215.555 249.545 211.425 254.327 211.208C259.544 210.99 261.718 215.555 261.718 215.555L275.412 194.035H282.586L295.845 215.555C295.845 215.555 308.236 204.034 319.757 209.469C327.799 213.381 328.234 223.598 328.234 223.598C328.234 223.598 346.711 211.425 362.144 223.598C373.23 232.51 372.796 246.639 372.796 246.639C372.796 246.639 386.055 240.553 400.402 242.727C409.097 244.248 418.227 251.204 424.748 257.291Z" fill="#E4E0FF"/>
<path d="M417.357 89.0449C417.14 89.0449 416.922 89.0449 416.705 89.0449H143.902C139.119 89.0449 134.989 92.9577 134.989 97.9572V253.596C134.989 258.379 138.902 262.509 143.902 262.509H416.705C420.183 262.509 423.226 260.335 424.748 257.509C425.182 256.422 425.617 255.118 425.617 253.814V97.9572C425.617 93.175 421.922 89.2623 417.357 89.0449ZM422.139 251.857C422.139 253.162 421.922 254.466 421.27 255.553C419.966 258.596 416.922 260.552 413.444 260.552H146.945C142.163 260.552 138.25 256.64 138.25 251.857V99.4789C138.25 94.6967 142.163 90.7839 146.945 90.7839H413.662C414.096 90.7839 414.749 90.784 415.183 91.0013C419.313 91.6535 422.357 95.1314 422.357 99.4789V251.857H422.139Z" fill="#C8C2ED"/>
<path d="M148.466 269.028H410.183C412.357 269.028 414.313 269.898 415.4 271.419L441.268 306.634C443.659 309.894 440.833 314.242 436.051 314.242H121.946C117.164 314.242 114.338 309.894 116.947 306.416L143.466 271.202C144.336 270.115 146.292 269.028 148.466 269.028Z" fill="#C8C2ED"/>
<path d="M154.77 273.377H405.184C406.706 273.377 408.227 274.246 409.097 275.333L421.487 292.941C423.661 296.201 421.487 300.549 417.574 300.549H142.597C138.685 300.549 136.511 296.201 138.685 292.941L150.857 275.333C151.727 274.029 153.031 273.377 154.77 273.377Z" fill="#E4E0FF"/>
<path d="M417.357 298.375H142.597C140.206 298.375 138.467 296.636 137.815 294.68C137.163 297.506 139.337 300.549 142.597 300.549H417.357C420.617 300.549 422.791 297.506 422.139 294.68C421.704 296.636 419.748 298.375 417.357 298.375Z" fill="#AEABDB"/>
<path d="M191.07 262.509H172.594V269.247H191.07V262.509Z" fill="#8B77E8"/>
<path d="M388.012 262.509H369.535V269.247H388.012V262.509Z" fill="#8B77E8"/>
<path d="M436.051 311.199H121.947C119.121 311.199 117.164 309.677 116.295 307.938C114.991 311.199 117.599 314.677 121.947 314.677H436.268C440.616 314.677 443.224 311.199 441.92 307.938C441.05 309.677 438.877 311.199 436.051 311.199Z" fill="#8B77E8"/>
<path d="M123.251 150.995C115.208 156.429 106.73 161.211 98.2526 165.776C84.7754 161.864 70.4288 157.733 58.2559 150.343C58.4732 150.995 58.9079 151.647 59.56 152.299C66.0812 159.472 95.6441 168.819 95.6441 168.819C105.426 165.994 117.381 158.168 124.989 152.517C124.337 152.082 123.685 151.647 123.251 150.995Z" fill="#322666"/>
<path d="M123.251 150.995C122.599 150.125 121.947 149.473 121.295 148.604C112.383 152.951 96.2971 158.82 96.2971 158.82C83.6894 149.256 75.2118 144.908 71.9512 143.821C71.9512 143.821 56.5178 145.126 58.2568 150.342C70.4297 157.733 84.7763 161.863 98.2535 165.776C106.731 161.211 115.209 156.429 123.251 150.995Z" fill="#3F327A"/>
<path d="M123.251 147.517C122.599 147.951 121.947 148.169 121.077 148.603C121.729 149.473 122.381 150.342 123.033 150.995C123.686 150.56 124.338 150.125 124.772 149.69C124.338 149.038 123.686 148.386 123.251 147.517Z" fill="#F2F0FF"/>
<path d="M123.251 150.995C123.686 151.647 124.338 152.082 124.99 152.516C125.642 152.082 126.512 151.429 127.164 150.995C126.512 150.56 125.859 150.125 125.207 149.69C124.338 150.125 123.903 150.56 123.251 150.995Z" fill="#DFDCF2"/>
<path d="M125.642 145.995C124.99 146.43 124.338 146.865 123.251 147.3C123.686 148.169 124.12 149.039 124.99 149.691C126.946 148.386 128.685 146.865 130.642 145.561C128.903 145.561 127.164 145.995 125.642 145.995Z" fill="#FF96A9"/>
<path d="M144.12 135.779L124.339 143.822C124.339 144.692 126.513 145.344 126.513 145.344C126.295 145.561 126.078 145.778 125.643 145.996C127.382 145.996 128.904 145.561 130.643 145.561C128.904 147.083 126.947 148.387 124.991 149.691C125.643 150.126 126.295 150.561 126.947 150.995C130.643 148.17 132.816 146.431 132.816 146.431C147.38 144.04 144.12 135.779 144.12 135.779Z" fill="#ED7E94"/>
<path d="M54.3436 136.866C54.561 139.474 55.4304 142.517 57.3868 144.474C61.2995 148.386 53.0394 149.256 52.1699 144.474C51.5178 141.431 51.3004 138.17 51.083 135.562C52.1699 136.214 53.2567 136.648 54.3436 136.866Z" fill="#FF96A9"/>
<path d="M51.083 132.736C51.083 130.78 54.3436 132.084 54.3436 132.084C54.3436 132.084 54.1262 134.258 54.3436 136.866C53.2567 136.649 52.1699 136.214 51.083 135.779C51.083 134.475 51.083 133.388 51.083 132.736Z" fill="#ED7E94"/>
<path d="M43.9083 125.128C43.9083 125.128 44.5604 121.215 54.3422 120.78L55.4291 122.519C54.1249 124.91 51.299 126.215 49.9948 128.606C48.6905 130.997 49.9947 132.953 51.951 134.257C50.8642 134.257 49.7774 133.823 48.4731 133.388C42.3867 130.562 43.9083 125.128 43.9083 125.128Z" fill="#ED7E94"/>
<path d="M49.9947 128.389C51.299 126.215 53.9075 124.694 55.4291 122.303L58.0376 126.215L56.7333 126.868C56.7333 126.868 58.2549 131.65 58.0376 131.867C57.8202 131.867 55.8637 134.258 51.951 133.823C49.9947 132.737 48.6905 130.78 49.9947 128.389Z" fill="#FF96A9"/>
<path d="M48.473 128.171C48.473 128.171 57.6027 120.563 59.3417 112.737C59.3417 112.737 45.4298 117.085 39.126 127.084C39.126 127.084 41.5171 133.388 49.5599 133.388L47.8209 130.127C47.8209 130.127 46.2993 130.127 46.2993 128.388C46.2993 126.649 48.473 128.171 48.473 128.171Z" fill="#3F327A"/>
<path d="M37.1707 197.73C35.2143 199.687 38.2576 200.339 39.7792 200.774C41.5181 200.991 43.0397 200.774 44.3439 200.121C42.3876 203.817 38.4749 204.686 34.9969 201.861C30.6495 198.165 34.1275 195.339 36.9533 194.47C36.9533 194.47 34.5622 193.166 35.4317 192.296C36.5186 191.209 36.5186 191.209 36.5186 191.209C36.5186 191.209 34.7796 190.34 31.7363 189.035C32.1711 188.383 32.6058 187.731 33.258 187.079C34.5622 187.731 35.8664 188.383 37.1707 189.253C40.4313 191.209 39.7791 195.122 37.1707 197.73Z" fill="#ED7E94"/>
<path d="M34.562 185.993C35.4315 185.341 36.5184 184.906 37.6053 184.906C42.1701 189.036 45.4307 192.732 45.4307 195.34C45.4307 197.297 44.9959 199.036 44.3438 200.34C43.0396 200.992 41.518 201.427 39.779 200.992C38.2574 200.557 35.4315 199.905 37.1705 197.949C39.779 195.34 40.4311 191.21 37.1705 189.471C35.8663 188.819 34.5621 188.167 33.2578 187.297C33.4752 186.645 33.9099 186.428 34.562 185.993Z" fill="#FF96A9"/>
<path d="M34.9972 182.515C35.8667 183.167 36.7362 184.036 37.6057 184.688C36.5188 184.906 35.4319 185.34 34.5624 185.775C34.1277 186.21 33.693 186.645 33.2582 187.079C32.3887 186.645 31.5193 186.21 30.8672 185.775C31.7367 184.471 33.2582 183.167 34.9972 182.515Z" fill="#F2F0FF"/>
<path d="M31.7372 189.036C31.0851 188.602 30.2156 188.384 29.5635 187.95C29.9982 187.297 30.433 186.645 30.8678 185.993C31.7373 186.428 32.6067 186.863 33.2588 187.297C32.6067 187.732 31.9546 188.384 31.7372 189.036Z" fill="#DFDCF2"/>
<path d="M54.125 151.213C55.6466 151.213 57.3856 151.43 58.9072 151.43C58.9072 151.213 58.9073 150.996 58.6899 150.778C57.3857 150.996 55.6466 150.996 54.125 151.213Z" fill="#7860DC"/>
<path d="M53.4747 140.996C48.6925 141.213 44.3451 142.083 40.215 143.17C25.651 148.169 12.1738 155.995 3.69629 169.037C10.8696 176.645 21.0861 181.21 30.6505 186.21C31.7374 184.688 33.259 183.384 34.998 182.732C25.6509 174.906 13.0433 166.863 13.0433 166.863C13.0433 166.863 23.0425 160.125 40.8671 153.604C44.9971 152.082 49.5619 151.43 54.1268 151.43C55.6484 151.213 57.3874 150.995 58.909 150.995C58.2569 147.735 57.8221 144.691 57.3874 141.431C54.7789 140.996 53.4747 140.996 53.4747 140.996Z" fill="#3F327A"/>
<path d="M56.7338 215.556C52.6037 215.121 48.0389 214.903 43.6914 214.034C44.7783 210.121 46.0825 206.426 47.3868 203.383C60.2118 172.733 67.8199 200.557 67.8199 200.557C67.8199 200.557 66.5156 208.817 64.1245 220.99C61.5161 218.381 58.9075 215.99 56.7338 215.556Z" fill="#322666"/>
<path d="M44.0004 212.999C48.3479 213.869 52.604 214.338 56.734 214.772C58.9078 214.99 62.1093 216.891 64.5004 219.499C59.0661 246.453 47.6044 293.679 32.1709 313.242C32.1709 313.025 34.2186 248.213 44.0004 212.999Z" fill="#3F327A"/>
<path d="M68.9072 188.384C74.7763 189.905 81.2974 195.774 81.2974 195.774C81.2974 195.774 83.4712 196.861 86.0796 207.947C82.3843 210.991 78.2167 214.348 72.9997 215C72.1302 206.087 70.6462 196.861 68.9072 188.384Z" fill="#322666"/>
<path d="M63.6907 188.601C65.2123 187.731 66.9513 187.949 68.9077 188.383C70.6467 197.078 72.3856 205.556 73.0377 214.685C78.2547 213.816 82.1674 211.208 85.8628 208.164C89.1234 222.076 93.0361 251.639 94.1229 314.242C94.1229 314.242 71.0814 275.767 67.8208 218.598C67.8208 218.598 64.1254 219.468 59.3432 211.642C54.7784 203.382 57.3869 191.644 63.6907 188.601Z" fill="#3F327A"/>
<path d="M62.6034 142.083C62.6034 142.083 75.6458 189.688 76.7326 199.469C76.7326 199.469 68.255 206.208 54.5605 203.382C54.5605 203.382 53.6911 151.43 47.1699 141.648C47.822 141.648 51.9521 140.996 53.2563 140.996C54.9953 140.996 60.647 141.648 62.6034 142.083Z" fill="#F2F0FF"/>
<path d="M54.5605 144.692V143.388L70.4288 179.254L66.5161 192.731C66.2987 184.254 64.125 175.994 61.5165 167.951C59.1254 160.343 56.0822 152.735 54.5605 144.692Z" fill="#FC5BA3"/>
<path d="M61.5165 168.167C63.9076 176.21 66.2987 184.47 66.5161 192.948V193.382L55.6474 181.21L54.5605 144.908C56.0822 152.734 59.1254 160.342 61.5165 168.167Z" fill="#F73E91"/>
<path d="M71.9501 143.822C71.9501 143.822 84.7751 191.21 86.5141 205.991C86.5141 205.991 79.5582 209.686 74.3413 211.208C74.3413 211.208 66.0811 155.126 57.6035 141.214C59.7772 141.431 62.1683 141.866 64.7768 142.301C67.3853 142.735 69.7764 143.17 71.9501 143.822Z" fill="#3F327A"/>
<path d="M49.3434 141.431C49.3434 141.431 61.5163 174.906 62.3858 210.555C62.3858 210.555 48.2565 215.772 40.2137 209.034C40.2137 209.034 49.126 195.557 44.9959 175.341C40.8658 155.343 35.8662 144.257 35.8662 144.257C38.9094 143.17 48.2565 141.213 49.3434 141.431Z" fill="#3F327A"/>
<path d="M34.5622 310.765L14.7812 314.025H36.7359L34.5622 310.765Z" fill="#3F327A"/>
<path d="M94.1221 312.72H93.2525C89.1225 305.329 70.6458 269.245 67.6025 218.38C67.8199 218.38 84.5577 297.069 94.1221 312.72Z" fill="#322666"/>
<path d="M92.6008 310.765L113.469 314.025H90.6445L92.6008 310.765Z" fill="#3F327A"/>
<path d="M53.9084 141.431L56.0821 142.952L54.7779 145.343L52.3867 143.17L53.9084 141.431Z" fill="#E5649A"/>
<path d="M27.4485 185.529C27.6703 185.437 27.7755 185.183 27.6836 184.961C27.5916 184.739 27.3373 184.634 27.1155 184.726C26.8937 184.818 26.7884 185.072 26.8804 185.294C26.9723 185.516 27.2267 185.621 27.4485 185.529Z" fill="#6750CC"/>
<path d="M24.0638 183.987C24.2856 183.895 24.3908 183.641 24.2988 183.419C24.2069 183.197 23.9525 183.092 23.7307 183.184C23.5089 183.276 23.4037 183.53 23.4956 183.752C23.5876 183.974 23.842 184.079 24.0638 183.987Z" fill="#6750CC"/>
<path d="M25.7737 184.865C25.9955 184.773 26.1007 184.519 26.0088 184.297C25.9168 184.075 25.6624 183.97 25.4407 184.062C25.2189 184.154 25.1136 184.408 25.2056 184.63C25.2975 184.852 25.5519 184.957 25.7737 184.865Z" fill="#6750CC"/>
<path d="M66.9504 197.731C67.1905 197.731 67.3852 197.536 67.3852 197.296C67.3852 197.056 67.1905 196.861 66.9504 196.861C66.7103 196.861 66.5156 197.056 66.5156 197.296C66.5156 197.536 66.7103 197.731 66.9504 197.731Z" fill="#DFDCF2"/>
<path d="M31.0842 187.949C31.3243 187.949 31.519 187.754 31.519 187.514C31.519 187.274 31.3243 187.079 31.0842 187.079C30.8441 187.079 30.6494 187.274 30.6494 187.514C30.6494 187.754 30.8441 187.949 31.0842 187.949Z" fill="#F2F0FF"/>
<path d="M58.4726 191.86C59.0729 191.86 59.5595 191.374 59.5595 190.773C59.5595 190.173 59.0729 189.687 58.4726 189.687C57.8723 189.687 57.3857 190.173 57.3857 190.773C57.3857 191.374 57.8723 191.86 58.4726 191.86Z" fill="#322666"/>
<path d="M61.2993 141.866L68.2552 150.561L65.8641 152.735L73.6895 157.3L69.9943 185.341C66.7337 168.603 62.3861 148.822 57.8213 141.214C58.9082 141.431 59.9951 141.649 61.2993 141.866Z" fill="#322666"/>
<path d="M59.9944 185.775L43.6914 157.951L48.4736 152.952L45.213 152.082L46.7347 141.648C47.8215 141.431 48.691 141.213 49.1257 141.431C49.3431 141.431 56.299 160.777 59.9944 185.775Z" fill="#322666"/>
<path d="M71.0815 158.385C71.0815 158.385 70.8642 158.385 71.0815 158.385L68.6904 157.298C68.6904 157.298 68.473 157.081 68.6904 157.081C68.6904 157.081 68.9078 156.864 68.9078 157.081L71.2989 158.168C71.0815 157.95 71.0815 158.168 71.0815 158.385C71.0815 158.168 71.0815 158.385 71.0815 158.385Z" fill="#3F327A"/>
<path d="M72.1689 189.471L74.7772 188.819L74.9947 188.601L74.7772 188.384L72.1689 189.036C72.1689 189.253 71.9515 189.253 72.1689 189.471Z" fill="#322666"/>
<path d="M78.6901 192.731L82.8201 190.557C83.0375 190.557 83.0376 190.34 83.0376 190.123C83.0376 189.905 82.8202 189.905 82.6028 189.905L78.6901 192.079C78.4727 192.079 78.4727 192.296 78.4727 192.514C78.4727 192.514 78.4727 192.731 78.6901 192.731Z" fill="#322666"/>
<path d="M54.9952 195.558C55.2126 195.558 55.43 195.34 55.43 195.34C55.43 195.123 55.4299 194.905 55.2125 194.905L46.9524 193.384C46.735 193.384 46.5176 193.384 46.5176 193.601C46.5176 193.819 46.5177 194.036 46.735 194.036L54.9952 195.558Z" fill="#322666"/>
<path d="M135.859 135.344C135.642 135.344 135.424 135.561 134.989 135.561C131.946 136.865 132.381 139.691 132.381 139.691L134.989 138.604C134.989 137.517 135.207 136.213 135.859 135.344Z" fill="#D43377"/>
<path d="M135.859 135.344C135.206 136.214 134.989 137.301 135.207 138.605L140.641 136.431C140.641 136.431 139.554 134.257 135.859 135.344Z" fill="#ED3784"/>
<path d="M128.469 134.474C129.99 134.474 131.73 134.474 133.251 134.257L129.556 132.735L125.426 136.865L124.339 143.169C124.339 143.169 124.991 142.517 126.513 141.865C128.034 139.691 128.686 137.3 128.469 134.474Z" fill="#FF96A9"/>
<path d="M128.466 134.474C128.684 137.083 128.032 139.474 126.728 141.648C127.162 141.43 127.597 141.213 128.249 140.995C131.075 139.909 129.553 136.213 129.553 136.213C133.031 136.431 134.77 134.909 134.77 134.909L133.466 134.257C131.727 134.474 129.988 134.474 128.466 134.474Z" fill="#ED7E94"/>
<path d="M119.773 146.214C119.338 146.214 119.121 145.996 118.904 145.779C118.686 145.344 118.904 144.909 119.338 144.692L150.64 132.084C151.075 131.867 151.51 132.084 151.727 132.519C151.944 132.954 151.727 133.389 151.292 133.606L119.991 146.214H119.773Z" fill="#FFCC46"/>
<path d="M151.943 132.301C151.943 132.084 151.726 131.866 151.509 131.866C151.509 132.301 151.291 132.736 151.074 132.736L119.772 145.343H119.555C119.338 145.343 119.337 145.343 119.12 145.343V145.561C119.337 145.995 119.555 145.995 119.99 145.995H120.207L151.509 133.388C151.944 133.17 152.161 132.736 151.943 132.301Z" fill="#FFA42F"/>
<path d="M40.214 143.169C25.65 148.169 12.1729 155.994 3.69537 169.036C10.8687 176.644 21.0851 181.209 30.6496 186.209C30.2148 186.861 29.7801 187.513 29.3454 188.165C20.2157 183.6 4.78221 175.123 0 168.602C0 168.167 15.4335 149.473 40.214 143.169Z" fill="#322666"/>
<path d="M316.495 130.997L337.581 161.212L320.191 180.558L296.062 161.429L316.495 130.997Z" fill="#FE9736"/>
<path d="M244.979 130.997L224.111 161.212L241.284 180.558L265.412 161.429L244.979 130.997Z" fill="#FFA42F"/>
<path d="M290.628 7.96412C284.976 2.52979 280.846 0.138672 280.846 0.138672C280.846 0.138672 277.151 2.52979 271.934 7.96412C277.803 10.1379 284.541 9.92048 290.628 7.96412Z" fill="#FF5B41"/>
<path d="M290.628 7.96484C284.541 9.9212 277.803 10.1386 271.716 7.96484C260.196 19.9204 241.284 46.2226 241.284 92.0883C241.284 124.694 248.457 160.561 259.543 176.864H301.931C312.8 160.561 320.191 124.694 320.191 92.0883C320.191 44.4836 302.366 19.2683 290.628 7.96484Z" fill="#FFCC46"/>
<path d="M291.281 8.83301C302.367 22.3101 314.974 46.4386 314.974 86.6526C314.974 119.259 307.801 155.125 296.715 171.428H256.066C257.153 173.385 258.24 175.341 259.327 177.08H301.715C312.583 160.777 319.974 124.91 319.974 92.3043C320.192 45.5691 303.019 20.3538 291.281 8.83301Z" fill="#FFA42F"/>
<path d="M301.279 84.4801C301.279 95.7836 292.149 104.913 280.846 104.913C279.107 104.913 277.585 104.696 276.064 104.261C274.542 103.826 273.02 103.392 271.499 102.522C270.846 102.305 270.194 101.87 269.76 101.435C266.282 99.2615 263.456 95.7835 261.717 91.8708C260.63 89.4797 260.195 86.8712 260.195 84.0454C260.195 72.742 269.325 63.6123 280.628 63.6123C282.367 63.6123 283.889 63.8297 285.411 64.2644C289.541 65.3513 293.236 67.525 296.062 70.7856C296.497 71.2203 296.931 71.8725 297.366 72.3072C298.236 73.6115 299.105 74.9157 299.757 76.4373C300.844 79.0458 301.279 81.6543 301.279 84.4801Z" fill="#3F327A"/>
<path d="M296.279 71.0017L269.76 101.869C266.282 99.695 263.456 96.2169 261.717 92.3042L285.628 64.4805C289.758 65.5673 293.453 67.7411 296.279 71.0017Z" fill="#503DAD"/>
<path d="M299.758 76.6535L275.847 104.477C274.325 104.043 272.804 103.608 271.282 102.738L297.367 72.5234C298.454 73.8277 299.106 75.1319 299.758 76.6535Z" fill="#503DAD"/>
<path d="M263.891 28.3965C263.891 28.3965 242.588 63.8284 249.109 109.477C249.109 109.477 257.804 44.6995 275.846 28.3965H263.891Z" fill="#FFE194"/>
<path d="M272.369 178.819H286.064L279.325 204.469L272.369 178.819Z" fill="#FF5B41"/>
<path d="M487.786 289.028C488.439 267.291 487.787 235.989 480.613 214.469C468.875 178.385 459.528 190.123 459.528 190.123C459.528 190.123 457.572 231.859 477.57 290.55C481.048 290.767 484.526 290.115 487.786 289.028Z" fill="#322666"/>
<path d="M487.786 289.026C484.525 290.113 481.047 290.765 477.569 290.548C480.178 298.156 483.004 305.981 486.482 314.024C486.482 314.024 487.351 303.59 487.786 289.026Z" fill="#FF96A9"/>
<path d="M483.221 139.039C484.308 139.256 485.612 139.474 486.699 139.256L484.743 146.647C484.743 146.647 486.482 148.603 483.004 150.125C479.308 151.647 479.743 149.908 479.961 145.778C479.961 143.821 481.7 140.995 483.221 139.039Z" fill="#FF96A9"/>
<path d="M483.223 139.04C484.744 137.084 486.049 135.562 486.049 135.562L487.57 135.997L486.701 139.258C485.614 139.258 484.31 139.258 483.223 139.04Z" fill="#ED7E94"/>
<path d="M486.048 132.083C485.179 130.344 483.222 128.823 481.918 126.866C483.44 126.432 484.744 126.432 484.744 126.432C497.134 128.605 494.091 139.039 488.222 137.735C486.483 137.3 484.961 136.648 483.657 135.779C485.613 135.561 487.135 134.257 486.048 132.083Z" fill="#ED7E94"/>
<path d="M478.656 128.824C479.091 127.737 480.395 127.302 481.917 126.867C483.221 128.824 485.178 130.563 486.047 132.084C487.134 134.258 485.612 135.562 483.656 135.779C480.178 133.606 478.004 130.345 478.656 128.824Z" fill="#FF96A9"/>
<path d="M488.873 132.301C488.873 132.301 475.831 124.475 482.569 118.171C489.308 111.868 500.612 121.649 498.003 136.865C498.003 136.865 505.176 139.257 501.046 150.56C501.046 150.56 529.305 169.689 505.394 188.166C481.483 206.642 464.745 164.907 477.57 155.125L484.526 146.647L487.786 134.04C487.786 134.04 491.047 134.909 491.047 132.953C491.047 130.996 488.873 132.301 488.873 132.301Z" fill="#3F327A"/>
<path d="M543 112.085C543 114.91 540.608 125.562 537.565 135.561C536.913 135.561 536.478 135.778 535.826 135.561C539.087 127.083 541.478 118.388 542.565 109.259C542.782 110.346 543 111.215 543 112.085Z" fill="#ED7E94"/>
<path d="M530.392 134.257C533.652 127.736 537.13 119.259 537.348 114.259C537.348 114.259 535.174 118.389 532.565 116.215C529.957 114.042 529.305 109.912 533.652 104.043C537.348 99.2604 541.26 104.695 542.347 109.26C541.26 118.172 538.869 127.084 535.609 135.562C533.87 135.562 532.131 135.127 530.392 134.257Z" fill="#FF96A9"/>
<path d="M436.92 166.863C438.224 166.428 439.746 165.994 440.833 165.776C441.702 165.559 442.789 165.341 443.658 165.124C448.441 172.732 456.484 178.819 455.831 188.6C455.397 191.426 453.658 193.383 451.049 194.904C448.441 192.078 448.875 185.992 453.223 185.992C453.006 185.774 443.006 177.949 436.92 166.863Z" fill="#FF96A9"/>
<path d="M455.832 188.6C456.484 178.819 448.659 172.732 443.659 165.124C444.746 165.124 446.05 165.124 447.137 165.341C451.702 171.645 460.18 184.253 459.745 189.035C459.093 195.556 455.18 197.73 451.919 195.556C451.702 195.339 451.485 195.122 451.05 194.904C453.441 193.383 455.397 191.426 455.832 188.6Z" fill="#ED7E94"/>
<path d="M482.352 154.04C485.177 152.301 487.786 149.91 489.742 147.301C501.915 148.388 519.088 146.866 525.174 144.041C525.174 144.041 527.565 139.693 530.174 134.259C531.695 135.128 533.652 135.563 535.391 135.563C533.652 140.345 531.478 144.91 529.087 149.475C514.523 155.344 498.22 155.561 482.352 154.04Z" fill="#FFD4CD"/>
<path d="M482.352 154.039C498.22 155.561 514.523 155.343 529.304 149.474C531.695 144.91 533.652 140.345 535.608 135.562C536.26 135.562 536.695 135.562 537.347 135.562C535.391 141.866 533 147.735 530.826 150.996C530.826 150.996 509.306 158.604 491.481 158.821C485.178 158.821 480.178 158.169 476.048 157.3C478.439 156.213 480.395 155.343 482.352 154.039Z" fill="#F7C6BE"/>
<path d="M474.961 143.821C478.874 144.691 481.917 145.995 481.917 145.995C484.091 146.647 486.917 146.865 489.96 147.299C486.482 152.081 481.483 155.342 476.266 157.081C475.831 157.081 475.613 156.864 475.179 156.864C474.092 152.516 474.309 148.169 474.961 143.821Z" fill="#FF96A9"/>
<path d="M474.527 150.56C474.527 152.733 474.744 154.69 475.179 156.646C468.44 154.907 464.962 152.733 464.962 152.733C464.962 152.733 454.311 159.907 444.312 161.428C444.312 161.428 445.399 162.95 447.138 165.124C446.051 164.906 444.964 164.906 443.66 164.906C442.356 162.95 441.486 160.993 440.834 159.037C452.137 156.863 462.354 149.473 474.527 150.56Z" fill="#F7C6BE"/>
<path d="M469.527 143.17C471.266 143.17 473.223 143.387 474.962 143.822C474.744 145.996 474.527 148.387 474.527 150.561C462.571 149.474 452.137 156.864 440.834 159.038C441.486 161.212 442.573 163.168 443.66 164.907C442.79 164.907 441.703 165.125 440.834 165.559C439.747 165.994 438.225 166.211 436.921 166.646C435.617 164.472 434.747 162.081 433.878 159.473C433.878 159.69 451.268 143.17 469.527 143.17Z" fill="#FFD4CD"/>
<path d="M464.744 192.296C466.7 154.038 479.743 190.122 479.743 190.122C479.743 190.122 491.481 208.381 492.35 245.118C492.35 245.118 494.307 234.684 510.175 221.207C512.783 224.032 514.74 227.728 515.392 231.64C508.653 242.944 499.958 255.986 490.394 265.116C490.394 265.116 462.787 230.554 464.744 192.296Z" fill="#3F327A"/>
<path d="M527.566 209.033C527.566 209.033 522.783 219.25 515.393 231.64C514.523 227.727 512.784 224.032 510.176 221.206C514.741 217.293 520.392 213.163 527.566 209.033Z" fill="#FF96A9"/>
<path d="M479.527 187.514C479.527 188.384 479.745 189.253 479.962 190.122C479.962 190.122 472.137 196.861 459.746 190.122C459.746 190.122 459.529 188.818 459.312 186.645C465.398 189.036 472.571 190.992 479.527 187.514Z" fill="#3F327A"/>
<path d="M464.31 155.778L465.832 148.605C465.832 148.605 468.223 147.3 474.309 147.735C474.092 150.996 474.309 154.256 475.179 157.3C479.526 155.995 483.439 153.822 486.7 150.561C489.091 151.431 491.917 152.517 494.96 153.822C494.96 153.822 478.222 171.646 479.309 187.515C472.57 190.993 465.397 189.036 458.876 186.645C458.659 182.95 458.441 176.646 459.745 170.125C461.267 167.516 463.658 165.342 466.484 164.473C461.05 165.125 455.615 162.517 453.659 157.734C453.659 157.517 453.659 157.517 453.659 157.3C453.007 149.257 464.31 155.778 464.31 155.778Z" fill="#FFD4CD"/>
<path d="M454.093 157.733C456.049 162.516 461.701 165.124 466.918 164.472C464.092 165.341 461.701 167.515 460.179 170.124C460.397 168.602 460.831 167.298 461.484 165.776C461.266 165.559 455.18 165.341 454.093 157.733Z" fill="#F7C6BE"/>
<path d="M474.528 147.733C477.571 147.951 481.701 148.82 486.918 150.559C483.657 153.603 479.527 155.994 475.397 157.298C474.528 154.255 474.31 150.994 474.528 147.733Z" fill="#FF96A9"/>
<path d="M470.18 165.125C470.18 165.125 474.962 172.734 484.092 163.821C484.092 163.821 478.222 168.603 470.18 165.125Z" fill="#F7C6BE"/>
<path d="M539.099 315.33H4.29629C3.87617 315.33 3.66602 315.118 3.66602 314.693C3.66602 314.269 4.08623 314.057 4.29629 314.057H539.099C539.519 314.057 539.729 314.269 539.729 314.693C539.729 314.906 539.519 315.33 539.099 315.33Z" fill="#AEABDB"/>
<path d="M159.986 136.215C159.552 136.215 159.552 135.78 159.552 135.563C160.421 132.302 160.421 129.476 159.117 127.52C157.378 124.912 154.117 124.477 154.117 124.477C153.9 124.477 153.683 124.26 153.683 124.042C153.683 123.825 153.9 123.607 154.117 123.607C154.335 123.607 157.813 124.042 159.769 127.085C161.291 129.259 161.508 132.302 160.421 135.78C160.421 135.998 160.204 136.215 159.986 136.215Z" fill="#8B77E8"/>
<path d="M166.506 135.563C166.506 135.563 166.289 135.563 166.506 135.563C166.072 135.346 165.854 135.128 165.854 134.693C167.159 130.346 166.941 126.651 165.202 124.042C162.811 120.564 158.681 120.129 158.464 120.129C158.029 120.129 157.812 119.695 157.812 119.477C157.812 119.043 158.246 118.825 158.464 118.825C158.681 118.825 163.463 119.477 166.072 123.39C168.028 126.216 168.245 130.129 166.941 134.911C166.941 135.346 166.724 135.563 166.506 135.563Z" fill="#8B77E8"/>
<path d="M567.857 30.236H422C422 30.236 425.478 21.9759 437.433 23.2801C437.433 23.2801 455.475 0.673239 486.777 10.455C500.037 14.5851 493.081 21.7585 493.081 21.7585C493.081 21.7585 511.34 9.58554 518.514 13.7156C525.687 17.8457 515.253 20.889 515.253 20.889C515.253 20.889 549.815 16.9762 548.076 22.4106C546.337 27.6275 533.078 26.9754 533.078 26.9754L567.857 30.236Z" fill="#EEEDFC"/>
<path d="M23 59.6238H104.732L76.4738 56.798C76.4738 56.798 98.6458 47.4509 77.1258 45.9293C67.1267 45.2772 63.214 46.3641 61.9097 47.6683C61.0402 44.1903 57.7796 39.4081 47.7805 40.0602C32.1296 41.1471 37.9987 49.842 37.9987 49.842C37.9987 49.842 27.1301 44.8425 26.2606 47.451C25.3911 50.0595 23.6521 55.7111 47.5631 56.3632C71.9089 56.798 23 59.6238 23 59.6238Z" fill="#EEEDFC"/>
</svg>
