<svg width="627" height="543" viewBox="0 0 627 543" fill="none" xmlns="http://www.w3.org/2000/svg">
<mask id="mask0_205_1582" style="mask-type:alpha" maskUnits="userSpaceOnUse" x="0" y="0" width="627" height="543">
<path d="M0 0H607C618.046 0 627 8.95431 627 20V543H0V0Z" fill="#4949B7"/>
</mask>
<g mask="url(#mask0_205_1582)">
<rect width="627" height="543" fill="#4949B7"/>
<path d="M508.658 527.74C499.817 527.74 494.84 526.254 492.165 524.174C476.936 512.659 440.013 516.893 404.353 521.054C363.27 525.808 324.491 530.266 311.49 513.773C305.918 506.79 305.621 496.761 310.524 483.165C325.085 442.454 375.454 395.502 415.051 363.334C464.009 323.589 513.561 292.238 534.957 280.797L535.477 281.763L534.957 280.797C599.441 246.475 656.348 216.61 699.065 198.928C744.16 180.281 772.167 175.453 789.923 183.253C800.324 187.785 807.084 196.7 810.65 210.369C815.628 229.388 825.657 243.057 842.298 253.384C857.379 262.744 876.62 268.613 896.976 274.705C921.566 282.134 949.5 290.603 975.799 307.096C980.182 309.845 982.262 313.485 982.039 317.868C981.296 328.937 964.804 344.687 933.007 364.671C905 382.278 865.551 402.857 818.896 424.253C752.778 454.489 676.629 484.28 615.042 503.818C557.467 522.094 525.819 527.74 508.658 527.74ZM457.397 514.516C472.775 514.516 485.702 516.522 493.502 522.391C503.977 530.266 548.032 522.762 614.374 501.664C675.812 482.125 751.96 452.409 817.931 422.247C918 376.409 978.473 337.332 979.81 317.794C980.033 314.302 978.325 311.405 974.61 309.102C948.608 292.758 920.823 284.363 896.307 276.934C855.15 264.453 819.639 253.755 808.496 210.964C805.078 197.963 798.764 189.568 789.031 185.333C752.629 169.361 669.126 212.004 535.922 282.803C514.675 294.095 465.198 325.372 416.463 365.043C377.014 397.062 327.017 443.717 312.604 483.908C307.998 496.761 308.221 506.047 313.273 512.362C325.531 527.814 365.499 523.208 404.205 518.751C422.555 516.745 441.276 514.516 457.397 514.516Z" fill="white" fill-opacity="0.05"/>
<path d="M513.784 520.31C507.024 520.31 502.046 519.345 499.149 517.264C485.108 506.938 451.454 510.801 418.989 514.516C381.175 518.825 345.515 522.911 333.48 507.755C328.354 501.366 328.057 492.228 332.366 479.822C339.646 458.129 358.814 430.939 387.787 401.296C412.452 376.038 443.728 349.664 473.593 328.937C504.944 307.616 530.351 292.757 537.334 288.746C601.893 254.201 649.365 229.685 686.436 214.604C726.851 198.185 753.298 193.876 769.642 201.008C779.448 205.317 785.912 213.638 789.255 226.564C793.861 244.023 802.999 256.652 818.228 266.236C832.046 274.928 849.579 280.351 868.152 286.146C890.513 293.055 915.846 300.93 939.768 316.085C943.928 318.834 945.86 322.325 945.489 326.56C943.26 354.939 838.138 406.274 793.044 427.001C687.476 475.513 559.696 520.31 513.784 520.31ZM467.501 508.498C481.468 508.498 493.28 510.281 500.412 515.556C521.436 530.934 671.801 480.416 792.152 425.07C885.387 382.204 941.923 345.281 943.408 326.337C943.706 322.845 942.146 320.097 938.654 317.794C915.029 302.787 889.845 294.986 867.557 288.077C829.966 276.414 797.501 266.384 787.249 227.084C784.055 214.826 778.037 206.952 768.825 202.94C734.651 188.007 655.383 227.976 538.375 290.603C531.391 294.615 506.058 309.399 474.782 330.646C444.991 351.299 413.863 377.598 389.273 402.708C360.522 432.201 341.578 459.095 334.372 480.491C330.286 492.154 330.509 500.623 335.115 506.418C346.481 520.682 383.181 516.447 418.766 512.361C435.63 510.504 452.791 508.498 467.501 508.498Z" fill="white" fill-opacity="0.05"/>
<path d="M519.356 513.03C513.338 513.03 508.807 512.139 506.207 510.281C493.354 501.144 462.969 504.561 433.624 507.904C399.153 511.841 366.54 515.482 355.47 501.664C350.79 495.869 350.419 487.623 354.282 476.405C360.522 456.272 377.832 429.824 402.942 402.04C426.27 376.186 454.426 351.299 480.205 333.841C497.663 322.474 513.784 312.668 526.711 304.719C531.763 301.673 536.071 298.998 539.712 296.695C587.332 270.99 636.513 245.137 673.732 230.279C710.061 215.792 734.057 212.152 749.138 218.69C758.424 222.701 764.516 230.576 767.71 242.686C776.848 277.454 805.747 286.666 839.253 297.364C859.385 303.753 882.193 311.033 903.663 324.777C912.058 330.72 908.863 339.041 904.628 344.984C882.638 376.186 781.9 425.218 702.334 457.683C630.347 487.251 552.193 513.03 519.356 513.03ZM477.827 502.407C490.383 502.407 500.709 504.041 507.321 508.721C521.436 518.602 601.373 496.983 701.666 456.049C748.618 436.882 793.786 415.858 828.777 396.913C868.077 375.592 893.782 357.316 903.143 344.093C908.566 336.366 908.417 330.646 902.697 326.634C881.524 313.039 858.791 305.833 838.807 299.444C804.782 288.597 775.362 279.237 766.002 243.429C762.956 231.913 757.235 224.484 748.543 220.696C718.753 207.769 655.234 236.742 540.826 298.552C537.186 300.781 532.877 303.456 527.825 306.576C514.899 314.451 498.852 324.257 481.393 335.624C455.763 353.008 427.681 377.821 404.502 403.525C379.541 431.162 362.454 457.312 356.288 477.148C352.647 487.623 352.944 495.275 357.105 500.549C367.505 513.55 401.085 509.761 433.55 506.047C449.3 504.19 464.752 502.407 477.827 502.407Z" fill="white" fill-opacity="0.05"/>
<path d="M524.556 505.675C519.579 505.675 515.567 505.007 513.19 503.372C501.526 495.423 474.484 498.469 448.259 501.366C418.394 504.71 387.564 508.127 377.46 495.646C373.3 490.446 372.854 483.091 376.197 473.136C387.118 433.985 439.865 369.946 486.891 338.818C494.766 333.989 502.195 329.457 509.475 325.074C522.773 317.051 534.288 310.142 542.163 304.793L542.237 304.719C597.807 274.408 633.318 256.875 661.103 246.103C693.345 233.622 714.889 230.576 728.782 236.52C737.622 240.308 743.343 247.663 746.314 259.03C754.561 290.455 780.488 298.998 810.427 308.879C828.257 314.748 848.539 321.434 867.557 333.841C873.872 338.67 874.02 345.356 867.929 353.825C858.939 366.454 835.538 383.393 800.25 402.857C769.047 420.018 728.93 439.036 687.179 456.272C646.393 473.136 606.87 487.177 575.891 495.943C558.73 500.772 538.003 505.675 524.556 505.675ZM487.931 496.389C499.074 496.389 508.361 497.801 514.23 501.812C520.693 506.121 542.46 503.372 575.52 494.086C606.499 485.32 645.947 471.279 686.585 454.489C756.789 425.516 846.087 381.461 866.591 352.71C872.015 345.133 872.015 339.412 866.591 335.252C847.796 322.994 827.663 316.382 809.907 310.513C779.448 300.484 753.075 291.792 744.606 259.401C741.783 248.629 736.359 241.646 728.113 238.08C699.957 225.97 638.964 253.904 543.129 306.13C535.18 311.479 523.739 318.462 510.367 326.486C503.16 330.869 495.657 335.401 487.856 340.155C441.202 371.209 388.752 434.728 377.98 473.582C374.786 482.942 375.083 489.777 378.872 494.457C388.307 506.195 418.692 502.778 448.037 499.509C462.3 497.949 476.193 496.389 487.931 496.389Z" fill="white" fill-opacity="0.05"/>
<path d="M529.979 498.321C525.744 498.321 522.327 497.726 520.247 496.389C509.846 489.628 485.999 492.229 462.894 494.755C436.15 497.726 408.513 500.772 399.45 489.554C395.735 484.948 395.29 478.485 398.113 469.719C402.199 452.632 415.348 427.893 433.252 403.674C452.271 377.895 474.261 356.053 493.577 343.721L499.297 340.452C517.35 330.126 534.437 320.32 544.614 312.816L544.689 312.742C638.964 260.664 684.876 244.246 708.351 254.275C716.672 257.841 722.095 264.676 724.918 275.299C732.347 303.307 755.155 311.182 781.677 320.32C797.278 325.669 814.959 331.76 831.6 342.83L831.674 342.904C837.469 347.733 837.395 354.345 831.377 362.665C811.987 389.41 736.433 427.744 672.172 454.637C636.809 469.421 602.338 481.902 575.222 489.703C560.067 493.937 541.791 498.321 529.979 498.321ZM498.034 490.371C507.766 490.371 515.864 491.56 521.213 494.977C532.802 502.258 596.098 484.651 671.652 452.929C708.054 437.699 743.12 420.835 770.384 405.531C801.141 388.221 821.868 372.992 830.189 361.477C835.612 353.899 835.835 348.253 830.783 344.018C814.365 333.172 796.758 327.08 781.231 321.731C754.263 312.445 731.01 304.496 723.432 275.596C720.758 265.493 715.632 259.03 707.831 255.686C681.31 244.394 623.808 270.842 545.654 314.079C535.402 321.657 518.315 331.463 500.188 341.79L494.542 345.058C475.45 357.242 453.608 379.009 434.738 404.64C416.983 428.71 403.907 453.226 399.896 470.164C397.221 478.411 397.518 484.354 400.862 488.514C409.405 498.989 436.595 496.017 462.82 493.12C475.375 491.709 487.633 490.371 498.034 490.371Z" fill="white" fill-opacity="0.05"/>
<path d="M535.477 491.04C531.836 491.04 529.088 490.52 527.305 489.48C518.093 483.834 497.514 486.063 477.604 488.217C453.98 490.743 429.538 493.417 421.44 483.462C418.171 479.451 417.726 473.879 420.029 466.376C425.823 435.768 462.82 371.432 500.189 348.55C518.093 339.19 536.442 329.309 546.992 320.691L547.066 320.617C624.106 277.305 666.229 262.67 687.773 271.733C695.648 275.076 700.774 281.466 703.448 291.42C709.986 316.085 729.822 323.217 752.777 331.538C766.15 336.366 781.305 341.864 795.495 351.522L795.569 351.596C800.918 356.499 800.621 363.111 794.603 371.283C776.625 395.725 711.769 429.453 657.091 452.78C611.105 472.542 557.69 491.04 535.477 491.04ZM508.138 484.354C516.458 484.354 523.442 485.32 528.048 488.143C538.448 494.235 592.532 478.782 656.571 451.443C711.1 428.19 775.733 394.685 793.489 370.466C798.986 362.963 799.432 357.168 794.678 352.859C780.637 343.35 765.63 337.927 752.332 333.098C728.93 324.629 708.797 317.274 702.037 291.866C699.511 282.431 694.682 276.339 687.253 273.219C666.154 264.379 624.551 278.94 547.958 321.954C537.26 330.646 518.91 340.527 501.006 349.887C464.009 372.546 427.309 436.436 421.589 466.747V466.821C419.36 473.805 419.732 478.931 422.703 482.497C430.281 491.783 454.277 489.183 477.53 486.657C488.376 485.468 499.074 484.354 508.138 484.354Z" fill="white" fill-opacity="0.05"/>
<path d="M540.9 483.685C538.077 483.685 535.774 483.314 534.288 482.497C526.339 478.039 509.029 479.897 492.313 481.605C471.809 483.76 450.636 485.988 443.43 477.371C440.607 474.028 440.161 469.199 441.944 462.958C445.287 436.436 474.929 371.878 506.874 353.454C520.247 347.287 539.117 338.001 549.369 328.715L549.517 328.64C610.213 293.724 647.581 281.243 667.12 289.266C674.549 292.312 679.526 298.553 682.052 307.69C687.698 328.938 704.488 335.475 723.952 342.979C735.096 347.287 747.651 352.191 759.463 360.437L759.538 360.511C764.441 365.563 763.921 372.249 757.903 380.347C750.549 390.228 735.319 402.114 712.586 415.635C692.75 427.447 668.383 439.705 642.158 451.22C604.121 467.936 559.547 483.685 540.9 483.685ZM518.315 478.336C525.224 478.336 531.093 479.079 535.031 481.308C544.317 486.137 589.189 472.988 641.712 449.957C710.431 419.87 746.24 393.868 756.863 379.53C762.361 372.101 763.029 366.009 758.646 361.551C746.983 353.379 735.022 348.773 723.507 344.241C703.671 336.515 686.584 329.903 680.715 307.987C678.338 299.147 673.732 293.426 666.6 290.529C647.507 282.654 610.585 295.061 550.335 329.755C539.934 339.19 520.915 348.476 507.543 354.642C475.969 372.918 446.625 436.882 443.356 463.255V463.404C441.647 469.199 442.019 473.508 444.544 476.554C451.231 484.577 472.032 482.423 492.165 480.268C501.526 479.302 510.589 478.336 518.315 478.336Z" fill="white" fill-opacity="0.05"/>
<path d="M484.514 476.702C475.896 476.702 468.838 475.439 465.421 471.427C463.044 468.679 462.524 464.741 463.861 459.764C464.678 436.882 486.371 372.769 513.561 358.431H513.636C531.688 351.448 544.541 344.167 551.821 336.812L551.97 336.738C597.287 309.845 629.009 299.741 646.245 306.65C653.377 309.548 658.28 315.417 660.583 324.034C665.412 341.938 679.156 347.733 695.054 354.568C703.895 358.357 713.998 362.666 723.359 369.5L723.433 369.575C727.891 374.849 727.148 381.61 721.056 389.782C708.649 406.349 673.658 428.71 627.301 449.734C607.911 458.501 588.595 466.004 572.994 470.833C561.479 474.399 546.621 478.114 541.198 475.736C534.437 472.467 520.47 473.879 506.949 475.216C499.298 475.885 491.423 476.702 484.514 476.702ZM514.156 359.471C498.406 367.792 485.999 392.53 479.982 406.497C471.661 425.813 465.569 447.729 465.198 459.838V459.987C463.935 464.667 464.381 468.084 466.461 470.61C472.256 477.371 489.937 475.588 507.024 473.879C521.362 472.393 534.883 471.056 541.94 474.473C558.73 481.902 692.231 426.407 720.239 388.964C725.885 381.461 726.702 375.221 722.69 370.466C713.404 363.706 703.895 359.62 694.683 355.682C678.487 348.773 664.446 342.83 659.469 324.331C657.24 316.085 652.634 310.513 645.873 307.839C629.009 301.004 597.659 311.108 552.787 337.778C545.284 345.133 532.357 352.488 514.156 359.471Z" fill="white" fill-opacity="0.05"/>
<path d="M503.68 469.719C496.399 469.719 490.382 468.678 487.41 465.335C485.479 463.181 484.959 460.135 485.776 456.346C484.884 446.317 488.376 424.995 493.948 406.794C498.108 393.125 507.097 369.277 520.247 363.26H520.321C529.162 360.734 545.357 354.939 554.272 344.687L554.421 344.613C585.771 325 610.213 317.719 624.997 323.44C632.129 326.189 636.883 331.835 639.186 340.155C643.124 354.642 653.822 359.842 666.228 365.934C673.212 369.352 680.418 372.843 687.401 378.341L687.55 378.489C691.562 384.135 690.521 391.193 684.43 399.365C673.88 413.48 647.136 431.756 612.887 448.1C582.725 462.512 555.535 471.204 548.403 468.753C542.905 466.598 532.728 467.564 521.955 468.604C515.641 469.124 509.326 469.719 503.68 469.719ZM520.692 364.3C498.777 374.403 485.33 438.888 486.964 456.346V456.42V456.495C486.147 459.986 486.593 462.661 488.302 464.518C493.205 470.09 507.766 468.678 521.881 467.341C532.802 466.301 543.128 465.261 548.849 467.49C555.683 469.793 583.023 460.952 612.442 446.837C646.541 430.567 673.137 412.515 683.538 398.474C689.258 390.747 690.373 384.21 686.733 379.009C679.824 373.586 672.692 370.169 665.857 366.826C653.227 360.66 642.307 355.385 638.221 340.378C635.992 332.355 631.46 327.006 624.7 324.406C610.287 318.759 586.217 326.04 555.163 345.43C546.026 355.905 529.682 361.7 520.692 364.3Z" fill="white" fill-opacity="0.05"/>
<path d="M522.922 462.81C516.978 462.81 512.001 461.993 509.401 459.318C507.915 457.758 507.32 455.678 507.692 453.078C505.463 445.5 506.132 425.516 509.103 407.612C514.23 376.855 522.476 369.723 526.933 368.163H527.008C539.711 366.232 550.855 360.437 556.724 352.711L556.872 352.562C580.497 336.441 595.058 336.515 603.081 339.413C610.288 342.013 615.339 347.882 617.791 356.351C620.911 367.495 628.489 372.101 637.329 377.375C641.936 380.198 646.764 383.021 651.37 387.182L651.445 387.33C654.936 393.645 653.748 401.074 647.73 409.469C628.117 436.734 566.53 463.85 555.387 461.695C551.301 460.655 544.392 461.324 537.111 461.918C532.282 462.364 527.305 462.81 522.922 462.81ZM527.23 369.129C520.024 371.655 513.784 385.77 510.144 407.76C507.172 425.664 506.503 445.5 508.732 452.855V452.929V453.003C508.361 455.381 508.881 457.164 510.144 458.575C514.304 462.958 526.413 461.844 537.037 460.878C544.392 460.21 551.375 459.615 555.61 460.655C561.181 461.695 579.605 455.158 598.327 445.351C620.986 433.539 638.667 420.241 646.913 408.8C652.633 400.851 653.896 393.793 650.628 387.85C646.096 383.838 641.341 381.015 636.809 378.267C627.82 372.843 620.02 368.163 616.825 356.648C614.522 348.476 609.619 342.904 602.784 340.378C594.984 337.555 580.794 337.481 557.541 353.305C551.449 361.254 540.157 367.123 527.23 369.129Z" fill="white" fill-opacity="0.05"/>
<path d="M542.535 455.975C537.854 455.975 533.768 455.381 531.465 453.449C530.351 452.483 529.757 451.295 529.608 449.809C523.516 440.3 521.882 393.199 528.642 378.118C530.054 375.072 531.688 373.363 533.694 373.066H533.768H533.843C541.718 373.363 553.084 370.243 559.25 360.66L559.325 360.585C567.199 354.122 574.406 351.893 580.943 353.825C587.778 355.905 593.498 362.963 596.396 372.621C598.624 380.421 603.305 384.656 608.282 389.113C610.66 391.268 613.111 393.422 615.414 396.171L615.488 396.319C618.534 404.12 617.197 412.44 611.477 421.207C599.219 440.002 570.765 454.489 562.519 454.786C560.216 454.786 557.17 455.009 553.901 455.306C550.187 455.603 546.175 455.975 542.535 455.975ZM533.768 373.884C532.134 374.106 530.723 375.667 529.46 378.415C526.414 385.25 524.854 399.514 525.299 416.452C525.745 432.128 527.825 445.351 530.5 449.363L530.574 449.437V449.586C530.648 450.849 531.168 451.889 532.134 452.706C535.923 455.975 545.878 455.083 553.901 454.341C557.17 454.043 560.29 453.746 562.593 453.82C570.691 453.523 598.773 439.185 610.808 420.612C616.306 412.143 617.643 404.046 614.745 396.617C612.442 394.016 610.065 391.788 607.762 389.707C602.71 385.176 597.956 380.867 595.653 372.843C592.83 363.409 587.258 356.648 580.72 354.642C574.554 352.785 567.571 354.939 559.993 361.18C553.456 370.986 541.866 374.181 533.768 373.884Z" fill="white" fill-opacity="0.05"/>
<path d="M561.998 449.289C557.838 449.289 554.049 448.1 551.746 446.54C547.214 443.568 542.906 427.67 540.38 413.778C537.928 400.257 536.219 383.615 538.448 379.084C539.117 377.672 540.008 377.746 540.528 377.895C547.14 380.049 556.575 377.969 561.701 368.534C562.667 366.826 563.633 366.008 564.747 366.083C568.239 366.454 571.21 376.409 573.662 384.433C574.108 385.993 574.553 387.479 574.999 388.741C586.96 425.515 580.645 440.002 573.216 445.648C569.725 448.248 565.713 449.289 561.998 449.289ZM540.008 378.638C539.711 378.638 539.414 378.787 539.117 379.455C537.334 383.17 538.225 397.508 541.123 413.629C544.243 430.864 548.626 443.494 552.192 445.871C556.352 448.62 565.787 450.329 572.77 445.054C579.977 439.556 586.143 425.367 574.331 388.964C573.959 387.701 573.513 386.216 572.993 384.655C570.913 377.672 567.719 367.123 564.747 366.826C564.004 366.751 563.187 367.42 562.37 368.906C557.021 378.712 547.214 380.792 540.305 378.638C540.157 378.638 540.083 378.638 540.008 378.638Z" fill="white" fill-opacity="0.05"/>
<path d="M358.887 370.02C357.327 370.02 356.064 369.723 355.173 369.054C353.464 367.866 352.944 365.86 353.538 362.888C355.915 351.67 378.871 313.187 408.142 271.436C456.728 202.197 486.667 173.521 497.291 164.383C543.723 124.414 588.297 98.5611 610.882 98.4868H610.956C620.837 98.4868 621.877 107.03 622.991 116.094C624.477 128.352 626.186 142.17 646.393 146.107C663.703 149.45 685.915 149.525 705.454 149.525C730.564 149.599 750.326 149.599 753.372 156.434C754.189 158.291 754.189 160.148 753.446 161.931C749.731 170.178 728.336 177.161 681.384 192.539C672.989 195.288 663.554 198.334 653.376 201.751C620.911 212.523 557.021 253.532 495.137 293.277C421.96 340.155 374.414 369.946 358.887 370.02ZM610.882 100.716C585.697 100.79 536.442 133.626 498.702 166.092C476.415 185.259 444.024 224.187 409.925 272.699C380.803 314.227 357.996 352.339 355.693 363.334C355.098 366.231 356.064 366.974 356.435 367.197C360.447 369.946 376.271 363.482 403.313 347.881C428.349 333.469 460.22 312.965 493.874 291.346C555.832 251.526 619.871 210.369 652.559 199.597C662.737 196.254 672.172 193.133 680.567 190.385C724.027 176.195 748.023 168.32 751.291 161.04C751.811 159.851 751.811 158.662 751.217 157.325C748.766 151.828 727.667 151.828 705.38 151.753C685.693 151.679 663.405 151.679 645.873 148.262C624.105 144.027 622.248 128.649 620.688 116.317C619.499 106.362 618.459 100.716 610.882 100.716Z" fill="white" fill-opacity="0.05"/>
<path d="M372.631 355.607C371.145 355.607 369.956 355.31 369.065 354.716C367.505 353.676 366.91 351.819 367.356 349.218C368.396 337.555 392.021 298.924 415.125 265.716C445.213 222.255 475.523 185.556 496.102 167.429C498.554 165.274 501.08 163.046 503.605 160.965C542.534 128.055 580.496 106.733 600.332 106.584H600.406C609.47 106.584 610.51 114.385 611.624 122.631C613.11 133.701 614.819 146.33 633.317 149.822C649.216 152.868 669.646 152.868 687.698 152.942C710.58 152.942 728.707 153.016 731.827 159.034C733.016 160.817 733.387 162.6 732.793 164.383C730.193 172.109 708.945 179.315 662.439 195.065C656.942 196.922 650.999 198.928 644.758 201.082C615.636 211.037 557.912 247.811 502.045 283.397C432.732 327.526 387.563 355.607 372.631 355.607ZM600.406 108.665C580.942 108.813 543.5 129.986 504.943 162.526C502.491 164.606 499.965 166.834 497.514 168.989C451.156 209.849 371.145 329.754 369.51 349.441V349.516C369.065 352.116 369.956 352.71 370.253 352.933C374.191 355.533 389.272 349.441 415.125 334.657C439.047 320.988 469.134 301.821 501.005 281.54C556.946 245.88 614.745 209.032 644.164 199.002C650.404 196.848 656.273 194.916 661.845 192.985C706.345 177.904 728.632 170.326 730.935 163.566C731.307 162.451 731.084 161.263 730.193 160L730.118 159.851C727.667 154.874 708.277 154.874 687.772 154.874C669.646 154.874 649.141 154.874 633.02 151.753C613.036 147.89 611.179 133.998 609.618 122.78C608.356 113.791 607.315 108.665 600.406 108.665Z" fill="white" fill-opacity="0.05"/>
<path d="M386.448 341.195C385.037 341.195 383.848 340.898 383.031 340.378C381.545 339.412 381.025 337.778 381.322 335.549C380.951 328.417 391.5 304.867 422.182 259.921C442.612 229.982 472.477 190.756 494.987 170.4C497.216 168.394 499.445 166.389 501.674 164.457C536.367 134.444 570.987 114.831 589.783 114.682H589.857C598.177 114.682 599.218 121.74 600.332 129.169C601.818 139.124 603.526 150.416 620.316 153.536C634.877 156.285 653.524 156.285 669.942 156.285C690.67 156.285 707.162 156.285 710.357 161.56C712.065 163.343 712.734 165.051 712.363 166.834C710.728 174.115 690.447 181.247 641.489 198.482L636.289 200.34C610.51 209.403 559.026 241.942 509.251 273.367C443.578 314.822 400.712 341.195 386.448 341.195ZM589.931 116.614H589.857C571.507 116.837 537.407 136.152 503.011 165.943C500.782 167.874 498.479 169.88 496.325 171.886C473.963 192.168 444.172 231.245 423.817 261.035C399.004 297.289 382.734 327.228 383.254 335.475V335.549V335.623C382.957 337.852 383.774 338.446 384.071 338.669C387.934 341.195 402.347 335.326 427.086 321.359C449.819 308.507 478.198 290.529 508.285 271.584C558.135 240.085 609.693 207.546 635.694 198.408L640.895 196.551C686.286 180.578 709.094 172.555 710.505 166.314C710.654 165.571 710.654 164.457 708.945 162.748L708.871 162.674L708.797 162.525C706.345 158.142 688.664 158.142 670.017 158.142C653.524 158.142 634.729 158.142 620.019 155.394C601.892 151.976 599.96 139.421 598.4 129.392C597.212 121.22 596.246 116.614 589.931 116.614Z" fill="white" fill-opacity="0.05"/>
<path d="M400.193 326.783C398.781 326.783 397.741 326.56 396.85 326.04C395.958 325.445 394.918 324.257 395.141 321.879C391.055 304.198 457.843 207.174 493.874 173.446C495.88 171.589 497.885 169.806 499.817 168.023C530.871 140.387 561.33 123.077 579.308 122.78H579.382C586.886 122.78 588 129.02 589.115 135.632C590.6 144.473 592.383 154.428 607.464 157.251C620.614 159.702 637.478 159.628 652.41 159.628C671.057 159.554 685.767 159.554 689.036 164.16C691.487 165.868 692.527 167.577 692.305 169.434C691.487 175.823 674.921 182.435 627.82 199.671C605.384 207.917 560.29 236.073 516.681 263.338C454.425 302.118 413.862 326.783 400.193 326.783ZM579.457 124.563H579.382C562.073 124.86 531.316 142.393 501.08 169.36C499.148 171.143 497.142 172.926 495.137 174.783C457.174 210.294 392.987 306.353 396.924 321.582L396.998 321.731V321.879C396.85 323.588 397.444 324.182 397.89 324.48C406.582 329.903 464.529 293.649 515.715 261.704C559.398 234.439 604.567 206.208 627.226 197.888C667.194 183.253 689.779 174.709 690.522 169.137C690.67 168.023 689.779 166.834 687.847 165.497L687.699 165.423L687.624 165.274C685.098 161.411 669.2 161.411 652.41 161.485C637.478 161.485 620.465 161.56 607.167 159.108C590.823 156.062 588.892 144.993 587.406 136.004C586.069 128.649 585.103 124.563 579.457 124.563Z" fill="white" fill-opacity="0.05"/>
<path d="M413.862 312.37C412.599 312.37 411.559 312.147 410.816 311.701C409.999 311.181 409.033 310.216 409.033 308.135C407.324 304.421 409.182 296.769 414.531 285.477C419.285 275.447 426.789 262.595 436.149 248.331C454.499 220.472 477.232 191.573 492.759 176.418C494.542 174.709 496.251 173.075 497.959 171.44C524.778 146.701 551.894 131.1 568.833 130.729C575.667 130.654 576.782 136.152 577.896 142.021C579.382 149.673 581.165 158.365 594.537 160.817C606.35 162.897 621.431 162.897 634.729 162.822C651.221 162.748 664.371 162.674 667.64 166.537C669.868 167.577 672.617 169.286 672.543 171.886C672.32 177.086 660.879 182.881 619.351 198.854C600.258 206.208 561.627 229.981 524.332 253.012C466.98 288.448 427.086 312.37 413.862 312.37ZM568.907 132.512H568.833C555.906 132.809 530.722 143.507 499.074 172.777C497.365 174.412 495.656 176.046 493.873 177.681C478.421 192.762 455.836 221.587 437.561 249.371C417.577 279.756 407.547 301.523 410.667 307.69L410.742 307.913V308.135C410.667 309.621 411.262 310.141 411.633 310.364C420.177 315.416 475.003 281.614 523.441 251.749C562.518 227.604 599.515 204.871 618.756 197.442C653.153 184.218 670.686 176.641 670.834 171.96C670.908 170.772 669.497 169.509 666.674 168.171L666.451 168.097L666.302 167.949C663.776 164.605 649.587 164.68 634.654 164.68C621.282 164.754 606.127 164.828 594.092 162.674C579.531 160.074 577.673 150.342 576.113 142.541C574.999 136.078 574.033 132.512 568.907 132.512Z" fill="white" fill-opacity="0.05"/>
<path d="M427.532 297.958C426.343 297.958 425.452 297.735 424.709 297.364C423.966 296.918 423.074 296.101 422.926 294.466C420.474 291.198 421.292 284.734 425.452 274.779C429.018 266.236 435.11 255.092 443.133 242.611C457.62 219.878 477.604 193.876 491.571 179.464C493.057 177.978 494.542 176.492 496.028 175.007C518.613 153.165 542.46 139.273 558.284 138.901C564.301 138.827 565.416 143.582 566.604 148.633C568.165 155.171 569.873 162.526 581.537 164.606C592.012 166.389 605.31 166.315 617.048 166.24C631.46 166.166 642.901 166.092 646.17 169.286C650.999 170.846 653.153 172.481 653.228 174.635C653.451 179.315 642.753 185.333 610.808 198.334C595.132 204.723 564.673 223.221 532.431 242.834C485.776 271.065 441.424 297.958 427.532 297.958ZM558.432 140.461C558.358 140.461 558.358 140.461 558.284 140.461C542.831 140.907 519.355 154.577 497.068 176.121C495.657 177.533 494.171 179.018 492.685 180.504C478.793 194.917 458.957 220.77 444.47 243.429C427.383 270.248 420.029 288.597 424.337 293.649L424.486 293.872V294.169C424.486 295.358 425.08 295.804 425.452 296.026C433.921 300.707 485.925 269.133 531.688 241.348C564.004 221.736 594.464 203.237 610.288 196.774C631.906 187.933 651.89 179.167 651.742 174.635C651.668 173.298 649.587 171.961 645.576 170.698L645.353 170.623L645.204 170.475C642.678 167.652 630.197 167.726 617.122 167.8C605.31 167.875 591.938 167.949 581.314 166.166C568.61 163.937 566.679 155.691 565.119 149.005C563.856 143.507 562.89 140.461 558.432 140.461Z" fill="white" fill-opacity="0.05"/>
<path d="M441.276 283.62C440.235 283.62 439.344 283.471 438.675 283.1C437.71 282.654 437.115 281.837 436.892 280.797C435.481 279.608 434.664 277.825 434.441 275.448C432.806 257.023 470.026 205.094 490.456 182.435L494.096 178.498C512.818 159.257 532.876 147.444 547.734 146.924C553.009 146.85 554.123 150.862 555.312 155.022C556.872 160.371 558.581 166.537 568.61 168.172C577.674 169.657 589.263 169.509 599.441 169.434C611.773 169.286 621.654 169.212 624.774 171.738C631.312 173 634.358 174.635 634.655 177.012C635.026 180.058 631.312 184.664 602.412 197.368C590.229 202.717 566.604 216.832 541.643 231.69C498.925 257.321 454.871 283.62 441.276 283.62ZM547.957 148.41C547.883 148.41 547.883 148.41 547.809 148.41C542.385 148.559 522.475 151.382 495.136 179.538L491.496 183.475C471.215 205.911 434.218 257.321 435.852 275.299C436.075 277.379 436.744 278.865 438.007 279.831L438.23 279.979V280.276C438.304 281.019 438.675 281.465 439.27 281.762C439.79 282.059 440.533 282.134 441.424 282.134C454.425 282.134 502.12 253.68 540.9 230.502C565.936 215.569 589.634 201.454 601.892 196.031C615.636 190.013 633.837 181.47 633.317 177.086C633.169 175.526 630.123 174.115 624.403 173H624.18L624.031 172.852C621.431 170.549 610.733 170.623 599.441 170.772C589.189 170.846 577.599 170.995 568.387 169.509C557.466 167.652 555.535 160.817 553.975 155.319C552.712 150.936 551.82 148.41 547.957 148.41Z" fill="white" fill-opacity="0.05"/>
<path d="M454.945 269.207C453.98 269.207 453.237 269.059 452.568 268.836C451.677 268.464 451.082 267.87 450.785 267.127C448.705 266.013 447.368 264.155 446.848 261.704C445.362 254.646 450.116 242.24 460.963 224.707C471.512 207.694 484.29 191.648 489.268 185.556C490.233 184.367 491.199 183.253 492.165 182.138C506.875 165.571 523.293 155.691 537.185 155.096C541.717 155.022 542.831 158.217 544.02 161.634C545.58 165.869 547.289 170.698 555.609 172.035C563.336 173.223 573.142 173.075 581.76 172.926C592.086 172.778 600.258 172.629 603.378 174.561C612.293 175.452 616.454 177.012 616.899 179.761C617.345 182.287 615.116 186.596 593.869 196.922C585.474 201.008 570.245 209.923 552.638 220.175C506.8 246.92 467.5 269.207 454.945 269.207ZM537.482 156.359C537.408 156.359 537.408 156.359 537.334 156.359C523.813 156.954 507.692 166.612 493.205 182.956C492.314 184.07 491.348 185.184 490.308 186.373C485.33 192.465 472.627 208.512 462.077 225.376C451.528 242.314 446.699 254.795 448.111 261.407C448.556 263.635 449.745 265.196 451.602 266.087L451.825 266.236L451.899 266.533C452.048 267.053 452.419 267.424 453.014 267.721C462.226 271.51 514.155 241.125 552.043 218.987C569.65 208.66 584.88 199.82 593.349 195.659C608.727 188.23 616.231 182.881 615.711 179.91C615.339 177.904 611.105 176.567 603.156 175.749H603.007L602.858 175.675C600.258 173.892 591.343 174.041 581.834 174.189C573.142 174.338 563.261 174.486 555.461 173.298C546.397 171.886 544.466 166.463 542.906 162.08C541.717 158.737 540.9 156.359 537.482 156.359Z" fill="white" fill-opacity="0.05"/>
<path d="M468.541 254.795C467.798 254.795 467.203 254.721 466.683 254.572C465.866 254.349 465.272 253.903 464.826 253.309C461.78 252.269 459.7 250.337 458.809 247.589C454.797 235.553 472.924 209.997 484.959 193.059C486.148 191.425 487.188 189.865 488.228 188.453C488.971 187.487 489.639 186.521 490.382 185.556C501.08 171.738 514.007 163.714 526.785 163.12C530.499 163.046 531.688 165.423 532.877 168.023C534.437 171.143 536.145 174.709 542.757 175.601C549.146 176.492 557.17 176.269 564.302 176.121C572.251 175.972 579.16 175.824 582.057 177.087C593.572 177.309 599.59 178.944 600.407 182.138C601.224 185.481 596.395 190.013 585.549 196.031C582.057 197.962 576.782 201.008 570.616 204.574C539.786 222.404 483.696 254.795 468.541 254.795ZM527.008 164.309C526.933 164.309 526.933 164.309 526.859 164.309C514.378 164.903 501.749 172.778 491.274 186.299C490.605 187.264 489.862 188.23 489.193 189.196C488.228 190.607 487.113 192.168 485.925 193.802C474.781 209.477 456.06 235.776 459.923 247.291C460.74 249.743 462.523 251.377 465.42 252.343L465.643 252.417L465.718 252.64C465.94 253.086 466.386 253.383 466.981 253.532C467.426 253.68 468.021 253.755 468.689 253.755C483.399 253.755 541.494 220.175 570.096 203.683C576.188 200.117 581.463 197.071 585.029 195.139C597.732 188.082 599.813 184.367 599.367 182.51C598.921 180.727 595.578 178.572 581.983 178.275H581.834L581.76 178.201C579.085 176.938 571.954 177.161 564.376 177.309C557.244 177.458 549.146 177.681 542.683 176.789C535.477 175.749 533.471 171.738 531.911 168.543C530.648 166.091 529.756 164.309 527.008 164.309Z" fill="white" fill-opacity="0.05"/>
<path d="M482.062 240.382C480.576 240.382 479.461 240.085 478.793 239.491C474.113 238.599 471.067 236.593 469.655 233.547C466.163 225.673 474.335 212.523 481.467 200.859C483.547 197.516 485.479 194.322 487.039 191.499C487.559 190.682 488.005 189.864 488.376 189.121C495.137 177.904 504.498 171.886 516.235 171.217C519.133 171.143 520.321 172.703 521.659 174.486C523.145 176.492 524.853 178.795 529.831 179.389C534.882 179.909 541.197 179.687 546.843 179.538C552.787 179.315 557.987 179.167 560.736 179.835C570.988 179.315 583.543 179.835 585.177 184.738C586.069 187.487 583.394 191.053 577.08 195.362C568.685 201.082 545.655 214.158 524.779 224.41C509.104 232.062 490.234 240.382 482.062 240.382ZM516.533 172.257C516.458 172.257 516.384 172.257 516.31 172.257C504.943 172.926 495.88 178.795 489.342 189.716C488.971 190.459 488.451 191.276 488.005 192.093C486.445 194.916 484.513 198.111 482.433 201.454C475.747 212.3 467.352 225.821 470.621 233.176C471.884 235.999 474.633 237.782 479.164 238.599H479.313L479.387 238.674C486.296 245.36 557.764 207.248 576.485 194.47C582.28 190.533 584.955 187.264 584.212 184.961C583.097 181.618 574.48 180.058 560.661 180.727H560.587H560.513C557.838 180.058 552.489 180.207 546.843 180.429C541.197 180.652 534.808 180.801 529.682 180.281C524.259 179.687 522.327 177.086 520.842 175.006C519.579 173.446 518.687 172.257 516.533 172.257Z" fill="white" fill-opacity="0.05"/>
<path d="M495.359 226.118C494.319 226.118 493.428 225.97 492.759 225.747C485.33 225.153 480.798 223.295 478.941 220.101C476.415 215.718 479.312 209.7 482.284 203.311C483.621 200.414 485.107 197.442 485.924 194.619C486.147 193.95 486.37 193.356 486.518 192.762C489.416 184.144 495.136 180.132 505.76 179.315C507.84 179.241 509.103 179.984 510.44 180.801C511.926 181.767 513.635 182.807 516.903 183.03C520.767 183.253 525.298 182.955 529.756 182.733C533.396 182.51 536.888 182.361 539.414 182.435C557.169 180.578 569.501 182.435 571.656 187.116C572.622 189.196 571.656 191.722 568.684 194.619C563.93 199.225 548.18 207.694 530.499 215.198C523.961 217.946 504.051 226.118 495.359 226.118ZM506.131 180.207C506.057 180.207 505.908 180.207 505.834 180.207C495.508 180.95 490.159 184.664 487.41 192.985C487.261 193.579 487.039 194.248 486.816 194.916C485.924 197.739 484.513 200.785 483.101 203.683C480.204 209.849 477.381 215.643 479.684 219.655C481.392 222.552 485.701 224.261 492.907 224.855H493.056C501.748 228.273 557.541 204.128 568.09 193.95C570.764 191.35 571.73 189.196 570.913 187.487C568.907 183.178 556.575 181.544 539.488 183.327C537.036 183.178 533.545 183.401 529.904 183.624C525.447 183.847 520.841 184.144 516.978 183.921C513.486 183.698 511.629 182.51 510.069 181.618C508.731 180.801 507.691 180.207 506.131 180.207Z" fill="white" fill-opacity="0.05"/>
<path d="M506.726 211.855C506.726 211.855 506.651 211.855 506.726 211.855C493.353 211.855 487.559 210.963 485.479 208.586C484.141 207.1 484.364 205.243 484.661 202.791C484.884 200.934 485.107 198.78 484.661 196.328C484.216 193.579 484.439 191.722 485.479 190.385C487.41 187.859 492.09 187.562 499.891 186.967C504.72 186.596 510.737 186.15 518.092 185.036C538.299 181.99 555.906 183.624 559.844 188.973C560.884 190.385 561.032 191.945 560.215 193.728C556.278 202.271 517.721 211.855 506.726 211.855ZM537.334 184.293C531.539 184.293 525.001 184.813 518.167 185.853C510.812 186.967 504.794 187.413 499.965 187.785C492.388 188.379 487.856 188.676 486.073 190.905C485.181 192.019 484.959 193.728 485.404 196.254C485.85 198.854 485.627 201.157 485.404 202.94C485.181 205.243 484.959 206.877 486.073 208.14C488.004 210.295 493.725 211.112 506.726 211.112C517.349 211.112 555.832 201.529 559.547 193.505C560.215 192.019 560.141 190.682 559.249 189.493C556.724 186.15 548.403 184.293 537.334 184.293Z" fill="white" fill-opacity="0.05"/>
<path d="M193.07 1361.28C173.086 1361.28 153.77 1360.84 135.197 1359.87C33.5675 1354.82 -40.7977 1336.25 -85.7437 1304.75C-131.73 1272.51 -145.622 1227.26 -126.975 1170.28C-70.3655 997.258 -14.7959 890.056 21.9781 819.034C38.545 787.089 51.6202 761.905 58.6778 742.069L59.7179 742.44L58.6778 742.069C70.4901 709.084 121.379 665.252 191.361 627.735C266.692 587.321 347.446 562.879 412.748 560.651C502.863 557.531 600.778 531.603 667.046 510.356C744.234 485.617 824.245 452.483 881.003 421.652C917.703 401.743 955.22 401.074 989.542 419.721C1049.05 451.963 1091.32 537.695 1099.86 643.559C1103.95 693.706 1108.11 745.561 1109.08 795.633C1110.12 850.979 1106.92 898.08 1099.34 939.609C1090.28 989.235 1074.9 1032.47 1052.32 1071.7C1027.06 1115.6 993.48 1153.64 949.574 1188.04C874.54 1246.8 667.492 1310.02 445.956 1341.67C355.47 1354.67 269.218 1361.28 193.07 1361.28ZM938.207 408.429C919.709 408.429 900.839 413.481 882.266 423.584C825.36 454.489 745.2 487.697 667.863 512.436C601.447 533.683 503.309 559.685 412.971 562.805C347.966 565.034 267.584 589.401 192.55 629.667C123.014 666.961 72.5702 710.273 60.9066 742.812C53.7746 762.796 40.6251 788.055 24.0582 820.074C-12.7157 890.948 -68.211 998.075 -124.821 1170.95C-143.17 1226.89 -129.575 1271.32 -84.4064 1302.89C-39.7576 1334.17 34.1618 1352.59 135.42 1357.64C224.198 1362.1 331.548 1355.79 445.882 1339.44C667.046 1307.79 873.723 1244.8 948.46 1186.25C992.143 1152.01 1025.57 1114.19 1050.68 1070.58C1073.19 1031.51 1088.5 988.566 1097.49 939.163C1114.35 846.596 1106.03 743.406 1098.01 643.708C1089.54 538.661 1047.64 453.523 988.8 421.652C972.456 412.886 955.517 408.429 938.207 408.429Z" fill="white" fill-opacity="0.05"/>
<path d="M205.476 1323.77C189.652 1323.77 174.348 1323.47 159.564 1322.8C66.3293 1318.71 -1.86975 1302.22 -43.1012 1273.77C-84.8527 1245.02 -97.705 1204.53 -81.361 1153.42C-33.2205 998.744 17.0001 896.074 50.2825 828.172C65.8835 796.301 78.2158 771.117 85.2734 750.984C96.7142 718.519 143.889 676.322 208.299 640.885C277.315 602.922 352.349 579.521 414.308 576.772C497.439 573.503 587.628 550.176 648.621 531.083C720.312 508.721 792.003 479.971 845.418 452.26C879.146 434.728 913.542 434.728 945.042 452.112C999.72 482.348 1038.57 561.245 1046.45 658.046C1053.95 749.35 1061.75 843.773 1045.85 930.545C1037.46 976.234 1023.27 1016.05 1002.47 1052.38C979.215 1092.87 948.385 1128.01 908.119 1159.81C839.029 1214.56 648.621 1274.07 444.841 1304.38C358.887 1317.23 277.167 1323.77 205.476 1323.77ZM896.158 441.191C879.666 441.191 862.876 445.5 846.309 454.118C792.82 481.977 720.98 510.727 649.141 533.089C588.074 552.182 497.662 575.583 414.308 578.852C352.721 581.601 277.984 604.928 209.265 642.742C145.226 677.956 98.4972 719.708 87.205 751.727C80.0731 771.934 67.7408 797.193 52.0654 829.138C18.8574 896.966 -31.3632 999.561 -79.4294 1154.09C-95.402 1204.23 -82.8468 1243.9 -41.9125 1272.06C-0.978279 1300.29 66.8493 1316.71 159.713 1320.72C241.284 1324.29 339.794 1317.9 444.618 1302.3C648.027 1271.99 838.063 1212.7 906.782 1158.02C946.825 1126.38 977.507 1091.38 1000.61 1051.19C1021.34 1015.16 1035.45 975.491 1043.77 930.025C1059.67 843.55 1051.87 749.275 1044.37 658.12C1036.57 561.988 998.085 483.76 944.002 453.82C928.623 445.426 912.502 441.191 896.158 441.191Z" fill="white" fill-opacity="0.05"/>
<path d="M218.031 1286.32C206.293 1286.32 194.927 1286.1 183.858 1285.73C99.0175 1282.68 36.9846 1268.2 -0.532341 1242.79C-37.9749 1217.46 -49.8615 1181.72 -35.8948 1136.55C3.99942 999.264 47.3853 904.915 78.9589 835.973C93.297 804.696 104.664 780.032 111.573 759.973C122.865 727.582 165.211 687.985 224.94 654.109C287.568 618.523 357.03 596.236 415.497 592.893C553.529 586.653 726.701 523.654 809.461 482.868C840.218 467.713 871.568 468.307 900.245 484.503C950.094 512.733 985.531 584.795 992.737 672.533C999.349 751.43 1006.93 840.876 991.994 921.407C984.267 963.159 971.267 999.636 952.174 1032.92C931.001 1069.99 902.845 1102.23 866.219 1131.43C834.646 1156.98 776.476 1183.65 698.025 1208.62C622.62 1232.54 532.282 1253.34 443.579 1267.16C362.379 1279.79 285.19 1286.32 218.031 1286.32ZM854.036 473.879C839.549 473.879 824.914 477.445 810.353 484.651C727.444 525.511 553.975 588.658 415.645 594.899C357.475 598.242 288.311 620.455 225.906 655.817C166.548 689.471 124.499 728.697 113.43 760.642C106.447 780.775 95.08 805.513 80.7419 836.864C49.094 905.732 5.85669 999.933 -34.0375 1137.15C-47.707 1181.43 -36.1177 1216.42 0.507751 1241.23C37.7275 1266.41 99.4632 1280.75 183.932 1283.8C258.297 1286.47 348.04 1280.08 443.356 1265.23C531.91 1251.41 622.174 1230.68 697.505 1206.76C775.733 1181.87 833.68 1155.35 865.105 1129.94C901.582 1100.82 929.515 1068.8 950.614 1031.95C969.558 998.893 982.484 962.639 990.136 921.11C1004.99 840.802 997.491 751.504 990.879 672.756C983.747 585.613 948.682 514.219 899.353 486.286C884.792 477.965 869.488 473.879 854.036 473.879Z" fill="white" fill-opacity="0.05"/>
<path d="M230.736 1249.03C223.009 1249.03 215.432 1248.96 208.077 1248.73C131.632 1246.65 75.7648 1234.32 41.9624 1211.88C8.82872 1190.04 -2.01775 1158.99 9.64592 1119.69C41.6653 998.447 80.4451 907.812 108.75 841.619C120.934 813.091 131.483 788.501 138.095 768.888C149.016 737.017 187.721 698.981 241.805 667.258C298.192 634.125 362.008 612.877 416.983 609.014C471.661 606.191 538.894 593.562 611.328 572.612C669.497 555.748 728.707 534.203 773.728 513.476C801.512 500.698 829.817 501.887 855.596 516.968C900.616 543.267 932.636 608.42 939.173 687.094C946.305 769.705 951.208 843.625 938.282 912.344C931.224 950.158 919.412 983.217 902.102 1013.53C882.935 1047.18 857.528 1076.53 824.542 1103.12C795.792 1126.9 743.12 1151.71 672.098 1174.96C604.196 1197.25 522.624 1216.71 442.39 1229.86C365.796 1242.49 293.214 1249.03 230.736 1249.03ZM811.839 506.493C799.432 506.493 786.877 509.39 774.396 515.111C729.227 535.912 669.943 557.531 611.699 574.395C539.117 595.419 471.735 607.974 416.983 610.872C362.305 614.735 298.786 635.908 242.622 668.893C188.91 700.466 150.501 738.057 139.729 769.557C133.043 789.17 122.494 813.834 110.31 842.362C82.0795 908.481 43.2997 999.041 11.3546 1120.21C-0.0119019 1158.69 10.6117 1189 42.9282 1210.4C76.5077 1232.54 132.077 1244.87 208.151 1246.88C275.384 1248.66 356.287 1242.2 442.093 1228.08C522.253 1214.93 603.75 1195.47 671.578 1173.25C742.377 1150.07 794.9 1125.34 823.428 1101.71C856.265 1075.19 881.449 1046.07 900.542 1012.56C917.703 982.474 929.441 949.564 936.499 911.973C949.351 843.476 944.448 769.631 937.316 687.168C930.853 609.089 899.131 544.381 854.63 518.454C840.886 510.505 826.474 506.493 811.839 506.493Z" fill="white" fill-opacity="0.05"/>
<path d="M243.588 1211.81C239.725 1211.81 235.936 1211.81 232.222 1211.74C164.245 1210.7 114.471 1200.37 84.3827 1181.05C55.6322 1162.63 45.7515 1136.26 55.1121 1102.83C79.5538 995.995 114.248 907.886 139.655 843.55C149.684 818.069 158.376 796.004 164.468 777.877C175.166 746.007 209.414 710.495 258.521 680.408C308.593 649.726 366.837 629.518 418.246 625.061C520.173 618.895 655.382 578.704 737.845 543.935C762.658 533.535 787.917 535.318 810.947 549.284C851.065 573.577 879.667 631.97 885.536 701.506C891.776 771.934 896.456 840.356 884.57 903.206C878.181 937.083 867.483 966.799 852.03 994.064C834.869 1024.3 812.21 1050.75 782.866 1074.82C756.938 1096.73 709.689 1119.76 646.17 1141.38C585.698 1161.96 512.892 1180.16 441.128 1192.72C369.288 1205.27 301.386 1211.81 243.588 1211.81ZM769.567 539.032C759.241 539.032 748.84 541.187 738.44 545.57C655.828 580.338 520.47 620.604 418.32 626.77C367.134 631.227 309.187 651.286 259.338 681.819C210.603 711.684 176.578 746.898 166.028 778.323C159.937 796.524 151.245 818.514 141.215 844.071C115.882 908.332 81.1139 996.441 56.7465 1103.12C47.6087 1135.81 57.2666 1161.52 85.2742 1179.49C115.139 1198.66 164.617 1208.84 232.296 1209.95C292.323 1210.84 364.385 1204.31 440.756 1191.01C512.447 1178.45 585.178 1160.25 645.576 1139.75C708.872 1118.2 755.972 1095.32 781.751 1073.48C810.947 1049.56 833.458 1023.26 850.544 993.247C865.923 966.205 876.472 936.637 882.861 902.909C894.747 840.282 890.067 772.008 883.827 701.729C878.032 632.639 849.802 574.84 810.056 550.77C797.055 542.97 783.46 539.032 769.567 539.032Z" fill="white" fill-opacity="0.05"/>
</g>
</svg>
