<svg width="149" height="88" viewBox="0 0 149 88" fill="none" xmlns="http://www.w3.org/2000/svg">
<path d="M147.912 0.921763C148.324 0.959434 148.628 1.32437 148.59 1.73686C148.553 2.14936 148.188 2.45322 147.775 2.41555L147.912 0.921763ZM0.657169 87.6479L0.878801 78.9905L8.26554 83.5112L0.657169 87.6479ZM143.735 2.12439C143.322 2.10239 143.004 1.74924 143.026 1.33561C143.048 0.921985 143.401 0.604507 143.815 0.626509L143.735 2.12439ZM135.609 0.484997C136.024 0.477682 136.365 0.807486 136.373 1.22163C136.38 1.63578 136.05 1.97745 135.636 1.98476L135.609 0.484997ZM127.543 2.39674C127.13 2.43122 126.768 2.12455 126.733 1.71177C126.699 1.299 127.005 0.936427 127.418 0.901949L127.543 2.39674ZM119.27 1.83957C119.68 1.77961 120.061 2.06325 120.121 2.4731C120.181 2.88295 119.897 3.26381 119.487 3.32377L119.27 1.83957ZM111.495 4.73753C111.089 4.82163 110.692 4.56102 110.608 4.15543C110.524 3.74985 110.785 3.35288 111.19 3.26878L111.495 4.73753ZM103.208 5.16418C103.608 5.0571 104.019 5.29466 104.126 5.69479C104.233 6.09493 103.996 6.5061 103.595 6.61319L103.208 5.16418ZM95.8227 8.92636C95.4291 9.05538 95.0054 8.8409 94.8764 8.44729C94.7474 8.05369 94.9619 7.63001 95.3555 7.50099L95.8227 8.92636ZM87.6297 10.2676C88.0157 10.1175 88.4504 10.3088 88.6005 10.6949C88.7505 11.0809 88.5592 11.5156 88.1732 11.6656L87.6297 10.2676ZM80.6937 14.8034C80.3161 14.9737 79.872 14.8055 79.7018 14.4279C79.5316 14.0503 79.6997 13.6062 80.0773 13.436L80.6937 14.8034ZM72.6887 17.0003C73.057 16.8108 73.5092 16.9557 73.6988 17.324C73.8883 17.6923 73.7434 18.1445 73.3751 18.334L72.6887 17.0003ZM66.2586 22.2286C65.9004 22.4365 65.4414 22.3147 65.2334 21.9565C65.0254 21.5983 65.1472 21.1393 65.5054 20.9313L66.2586 22.2286ZM58.5139 25.2279C58.8613 25.0023 59.3258 25.101 59.5514 25.4484C59.777 25.7958 59.6782 26.2603 59.3308 26.4859L58.5139 25.2279ZM52.6385 31.068C52.3025 31.3103 51.8338 31.2343 51.5915 30.8983C51.3493 30.5623 51.4253 30.0936 51.7612 29.8513L52.6385 31.068ZM45.2308 34.8024C45.5548 34.5443 46.0266 34.5978 46.2847 34.9218C46.5427 35.2458 46.4892 35.7177 46.1652 35.9757L45.2308 34.8024ZM39.9251 41.1896C39.6135 41.4626 39.1397 41.4312 38.8667 41.1196C38.5938 40.8081 38.6251 40.3342 38.9367 40.0613L39.9251 41.1896ZM32.9075 45.5915C33.2064 45.3046 33.6811 45.3143 33.968 45.6131C34.2548 45.912 34.2451 46.3867 33.9463 46.6736L32.9075 45.5915ZM28.2134 52.4283C27.9276 52.7282 27.4529 52.7396 27.153 52.4538C26.8532 52.1681 26.8418 51.6933 27.1275 51.3935L28.2134 52.4283ZM21.603 57.4484C21.8756 57.1364 22.3494 57.1045 22.6613 57.377C22.9732 57.6496 23.0051 58.1234 22.7326 58.4353L21.603 57.4484ZM17.5108 64.6728C17.2516 64.9959 16.7795 65.0477 16.4564 64.7885C16.1333 64.5293 16.0815 64.0573 16.3407 63.7342L17.5108 64.6728ZM11.354 70.2166C11.5999 69.8833 12.0695 69.8124 12.4028 70.0583C12.7361 70.3042 12.807 70.7737 12.5611 71.1071L11.354 70.2166ZM7.869 77.7379C7.63637 78.0806 7.16996 78.1699 6.82724 77.9372C6.48452 77.7046 6.39527 77.2382 6.6279 76.8955L7.869 77.7379ZM2.16151 83.7531C2.381 83.4018 2.84371 83.295 3.19498 83.5145C3.54626 83.734 3.65311 84.1967 3.43362 84.548L2.16151 83.7531ZM147.775 2.41555C146.447 2.29427 145.1 2.19699 143.735 2.12439L143.815 0.626509C145.199 0.700105 146.565 0.79874 147.912 0.921763L147.775 2.41555ZM135.636 1.98476C132.989 2.03152 130.288 2.16742 127.543 2.39674L127.418 0.901949C130.196 0.669931 132.929 0.532345 135.609 0.484997L135.636 1.98476ZM119.487 3.32377C116.854 3.70911 114.187 4.17922 111.495 4.73753L111.19 3.26878C113.912 2.70448 116.607 2.22922 119.27 1.83957L119.487 3.32377ZM103.595 6.61319C101.021 7.3023 98.4278 8.0724 95.8227 8.92636L95.3555 7.50099C97.9869 6.63841 100.606 5.86043 103.208 5.16418L103.595 6.61319ZM88.1732 11.6656C85.685 12.6329 83.1904 13.678 80.6937 14.8034L80.0773 13.436C82.5981 12.2997 85.117 11.2443 87.6297 10.2676L88.1732 11.6656ZM73.3751 18.334C70.9995 19.5566 68.626 20.8541 66.2586 22.2286L65.5054 20.9313C67.8949 19.5441 70.2906 18.2345 72.6887 17.0003L73.3751 18.334ZM59.3308 26.4859C57.09 27.9409 54.8581 29.4677 52.6385 31.068L51.7612 29.8513C54.0007 28.2367 56.2527 26.6961 58.5139 25.2279L59.3308 26.4859ZM46.1652 35.9757C44.07 37.6443 41.989 39.3818 39.9251 41.1896L38.9367 40.0613C41.0182 38.238 43.1172 36.4855 45.2308 34.8024L46.1652 35.9757ZM33.9463 46.6736C32.0164 48.5262 30.1046 50.444 28.2134 52.4283L27.1275 51.3935C29.0341 49.393 30.9616 47.4595 32.9075 45.5915L33.9463 46.6736ZM22.7326 58.4353C20.9703 60.4523 19.229 62.5311 17.5108 64.6728L16.3407 63.7342C18.072 61.5762 19.8269 59.4813 21.603 57.4484L22.7326 58.4353ZM12.5611 71.1071C10.9737 73.2591 9.40899 75.4691 7.869 77.7379L6.6279 76.8955C8.17884 74.6105 9.75485 72.3846 11.354 70.2166L12.5611 71.1071Z" fill="#A4AEC4" fill-opacity="0.58"/>
</svg>
