<svg width="171" height="32" viewBox="0 0 171 32" fill="none" xmlns="http://www.w3.org/2000/svg">
<path d="M0.610315 18.8593C0.256402 19.0745 0.143967 19.5359 0.359184 19.8898C0.574401 20.2437 1.03577 20.3562 1.38969 20.1409L0.610315 18.8593ZM171 32.0001L166.994 24.322L162.348 31.6303L171 32.0001ZM4.8901 18.103C5.25192 17.9013 5.38177 17.4446 5.18013 17.0827C4.97849 16.7209 4.52171 16.5911 4.15989 16.7927L4.8901 18.103ZM11.4674 13.0575C11.0922 13.233 10.9303 13.6794 11.1059 14.0546C11.2814 14.4298 11.7279 14.5916 12.103 14.4161L11.4674 13.0575ZM19.5528 11.2275C19.9386 11.0769 20.1294 10.6421 19.9789 10.2562C19.8284 9.87028 19.3935 9.67949 19.0076 9.83004L19.5528 11.2275ZM26.7377 7.08937C26.3433 7.21573 26.1259 7.63795 26.2523 8.03242C26.3787 8.42689 26.8009 8.64423 27.1954 8.51787L26.7377 7.08937ZM34.9955 6.27305C35.3968 6.17024 35.6387 5.76161 35.5359 5.36036C35.4331 4.95911 35.0245 4.71718 34.6232 4.81999L34.9955 6.27305ZM42.626 3.01227C42.2195 3.09204 41.9547 3.48621 42.0345 3.89267C42.1142 4.29913 42.5084 4.56396 42.9149 4.48419L42.626 3.01227ZM50.913 3.14387C51.3232 3.08668 51.6095 2.70774 51.5523 2.29749C51.4951 1.88725 51.1161 1.60105 50.7059 1.65824L50.913 3.14387ZM58.8612 0.745793C58.4485 0.780762 58.1422 1.1437 58.1772 1.55643C58.2122 1.96917 58.5751 2.27541 58.9879 2.24044L58.8612 0.745793ZM67.0851 1.76974C67.4991 1.75658 67.8241 1.41029 67.8109 0.996283C67.7978 0.582278 67.4515 0.257334 67.0375 0.270498L67.0851 1.76974ZM75.2407 0.222827C74.8266 0.214543 74.4842 0.543547 74.4759 0.957678C74.4676 1.37181 74.7966 1.71424 75.2107 1.72253L75.2407 0.222827ZM83.3148 2.09106C83.728 2.12033 84.0867 1.80911 84.116 1.39593C84.1452 0.982755 83.834 0.624078 83.4208 0.594807L83.3148 2.09106ZM91.5894 1.37933C91.1782 1.32949 90.8045 1.62244 90.7546 2.03364C90.7048 2.44485 90.9977 2.8186 91.4089 2.86843L91.5894 1.37933ZM99.4344 4.04105C99.8427 4.11088 100.23 3.8365 100.3 3.42822C100.37 3.01993 100.096 2.63235 99.6873 2.56252L99.4344 4.04105ZM107.73 4.13763C107.325 4.04835 106.925 4.30387 106.836 4.70835C106.746 5.11283 107.002 5.5131 107.406 5.60238L107.73 4.13763ZM115.303 7.54123C115.703 7.64934 116.115 7.41284 116.223 7.01299C116.331 6.61313 116.095 6.20134 115.695 6.09322L115.303 7.54123ZM123.542 8.40892C123.147 8.28269 122.725 8.50017 122.599 8.89469C122.473 9.2892 122.69 9.71134 123.085 9.83757L123.542 8.40892ZM130.764 12.4852C131.153 12.6289 131.584 12.4304 131.728 12.0419C131.871 11.6533 131.673 11.2219 131.284 11.0783L130.764 12.4852ZM138.908 14.0872C138.526 13.9269 138.087 14.1065 137.927 14.4884C137.766 14.8704 137.946 15.31 138.328 15.4703L138.908 14.0872ZM145.761 18.7763C146.135 18.9525 146.582 18.7914 146.758 18.4166C146.935 18.0417 146.774 17.595 146.399 17.4188L145.761 18.7763ZM153.728 21.0481C153.36 20.8568 152.908 20.9996 152.716 21.367C152.525 21.7344 152.668 22.1873 153.035 22.3786L153.728 21.0481ZM160.165 26.2707C160.525 26.4763 160.983 26.3513 161.188 25.9917C161.394 25.6321 161.269 25.1739 160.909 24.9684L160.165 26.2707ZM167.936 29.1635C167.585 28.9445 167.122 29.052 166.903 29.4036C166.684 29.7552 166.792 30.2178 167.143 30.4368L167.936 29.1635ZM1.38969 20.1409C2.52904 19.4481 3.69612 18.7684 4.8901 18.103L4.15989 16.7927C2.94956 17.4672 1.76609 18.1565 0.610315 18.8593L1.38969 20.1409ZM12.103 14.4161C14.5012 13.294 16.9862 12.2287 19.5528 11.2275L19.0076 9.83004C16.4108 10.8431 13.8957 11.9213 11.4674 13.0575L12.103 14.4161ZM27.1954 8.51787C29.7303 7.70582 32.3317 6.95559 34.9955 6.27305L34.6232 4.81999C31.9309 5.50984 29.301 6.26826 26.7377 7.08937L27.1954 8.51787ZM42.9149 4.48419C45.5306 3.97083 48.1978 3.52242 50.913 3.14387L50.7059 1.65824C47.9633 2.04061 45.2688 2.49358 42.626 3.01227L42.9149 4.48419ZM58.9879 2.24044C61.6478 2.01507 64.3479 1.85678 67.0851 1.76974L67.0375 0.270498C64.2738 0.358378 61.5474 0.518203 58.8612 0.745793L58.9879 2.24044ZM75.2107 1.72253C77.882 1.77596 80.5842 1.8976 83.3148 2.09106L83.4208 0.594807C80.6648 0.399558 77.9373 0.276765 75.2407 0.222827L75.2107 1.72253ZM91.4089 2.86843C94.0613 3.18989 96.7372 3.57973 99.4344 4.04105L99.6873 2.56252C96.966 2.09708 94.2659 1.70372 91.5894 1.37933L91.4089 2.86843ZM107.406 5.60238C110.022 6.17969 112.655 6.82506 115.303 7.54123L115.695 6.09322C113.024 5.37095 110.368 4.71999 107.73 4.13763L107.406 5.60238ZM123.085 9.83757C125.633 10.6528 128.193 11.5346 130.764 12.4852L131.284 11.0783C128.692 10.12 126.111 9.23096 123.542 8.40892L123.085 9.83757ZM138.328 15.4703C140.798 16.5069 143.276 17.6082 145.761 18.7763L146.399 17.4188C143.895 16.2418 141.398 15.132 138.908 14.0872L138.328 15.4703ZM153.035 22.3786C155.407 23.6134 157.784 24.9102 160.165 26.2707L160.909 24.9684C158.512 23.5982 156.117 22.292 153.728 21.0481L153.035 22.3786Z" fill="#A4AEC4" fill-opacity="0.58"/>
</svg>
