<svg width="182" height="34" viewBox="0 0 182 34" fill="none" xmlns="http://www.w3.org/2000/svg">
<path d="M0.610315 1.64093C0.256402 1.42571 0.143967 0.96434 0.359184 0.610428C0.574401 0.256516 1.03577 0.144077 1.38969 0.359295L0.610315 1.64093ZM181.5 10.5593L177.457 18.2179L172.846 10.8874L181.5 10.5593ZM4.7883 2.38285C5.14614 2.59149 5.26709 3.0507 5.05845 3.40853C4.84982 3.76637 4.39061 3.88732 4.03277 3.67868L4.7883 2.38285ZM10.9798 7.56622C10.6148 7.37025 10.4779 6.91555 10.6738 6.55063C10.8698 6.18571 11.3245 6.04876 11.6894 6.24473L10.9798 7.56622ZM18.7302 9.87342C19.1015 10.0569 19.2538 10.5068 19.0702 10.8781C18.8867 11.2494 18.4369 11.4017 18.0656 11.2181L18.7302 9.87342ZM25.2886 14.6385C24.9113 14.4676 24.7441 14.0231 24.915 13.6458C25.086 13.2685 25.5304 13.1013 25.9077 13.2723L25.2886 14.6385ZM33.164 16.4143C33.5468 16.5725 33.729 17.011 33.5709 17.3938C33.4127 17.7767 32.9742 17.9588 32.5913 17.8007L33.164 16.4143ZM40.0254 20.7225C39.6373 20.5777 39.4401 20.1458 39.5849 19.7577C39.7297 19.3696 40.1617 19.1724 40.5498 19.3172L40.0254 20.7225ZM48.0101 21.9511C48.4031 22.0819 48.6156 22.5066 48.4847 22.8996C48.3539 23.2926 47.9292 23.5051 47.5362 23.3742L48.0101 21.9511ZM55.1518 25.7557C54.7542 25.6394 54.5262 25.2229 54.6424 24.8253C54.7586 24.4278 55.1751 24.1997 55.5727 24.3159L55.1518 25.7557ZM63.2181 26.3926C63.6199 26.4934 63.8639 26.9007 63.7631 27.3025C63.6624 27.7043 63.255 27.9483 62.8532 27.8475L63.2181 26.3926ZM70.6251 29.6318C70.2196 29.5473 69.9593 29.1501 70.0437 28.7446C70.1282 28.3391 70.5253 28.0788 70.9309 28.1633L70.6251 29.6318ZM78.7158 29.6136C79.1245 29.6807 79.4015 30.0665 79.3343 30.4752C79.2672 30.884 78.8815 31.1609 78.4727 31.0938L78.7158 29.6136ZM86.3783 32.2129C85.967 32.1641 85.6731 31.7911 85.7219 31.3797C85.7708 30.9684 86.1438 30.6745 86.5551 30.7233L86.3783 32.2129ZM94.4282 31.4726C94.8413 31.5021 95.1523 31.861 95.1228 32.2741C95.0933 32.6873 94.7345 32.9983 94.3213 32.9688L94.4282 31.4726ZM102.297 33.3431C101.883 33.334 101.555 32.9908 101.564 32.5767C101.573 32.1626 101.916 31.8343 102.33 31.8435L102.297 33.3431ZM110.243 31.8168C110.657 31.8047 111.002 32.1305 111.014 32.5445C111.027 32.9586 110.701 33.304 110.287 33.3162L110.243 31.8168ZM118.261 32.8703C117.848 32.9046 117.486 32.5977 117.452 32.1849C117.417 31.7721 117.724 31.4097 118.137 31.3755L118.261 32.8703ZM125.991 30.5053C126.401 30.4482 126.78 30.7346 126.837 31.1448C126.894 31.5551 126.608 31.9339 126.198 31.991L125.991 30.5053ZM134.076 30.6658C133.67 30.7462 133.275 30.482 133.195 30.0756C133.114 29.6693 133.379 29.2747 133.785 29.1943L134.076 30.6658ZM141.492 27.4348C141.893 27.3308 142.303 27.5716 142.407 27.9725C142.511 28.3735 142.27 28.7828 141.869 28.8868L141.492 27.4348ZM149.548 26.6511C149.154 26.7786 148.731 26.5625 148.603 26.1684C148.476 25.7744 148.692 25.3515 149.086 25.224L149.548 26.6511ZM156.524 22.5699C156.91 22.4191 157.345 22.6097 157.496 22.9955C157.647 23.3813 157.456 23.8163 157.07 23.967L156.524 22.5699ZM164.419 20.8417C164.042 21.0151 163.597 20.8506 163.424 20.4744C163.25 20.0982 163.415 19.6527 163.791 19.4794L164.419 20.8417ZM170.865 15.9655C171.231 15.7705 171.685 15.9086 171.88 16.2741C172.075 16.6395 171.937 17.0938 171.571 17.2888L170.865 15.9655ZM178.507 13.3278C178.153 13.5434 177.692 13.4314 177.476 13.0778C177.261 12.7241 177.373 12.2626 177.726 12.047L178.507 13.3278ZM1.38969 0.359295C2.48812 1.02726 3.62142 1.70251 4.7883 2.38285L4.03277 3.67868C2.8579 2.99368 1.71665 2.3137 0.610315 1.64093L1.38969 0.359295ZM11.6894 6.24473C13.9433 7.45514 16.2925 8.66858 18.7302 9.87342L18.0656 11.2181C15.6124 10.0057 13.2482 8.78446 10.9798 7.56622L11.6894 6.24473ZM25.9077 13.2723C28.2611 14.3387 30.6815 15.3889 33.164 16.4143L32.5913 17.8007C30.0928 16.7687 27.6569 15.7117 25.2886 14.6385L25.9077 13.2723ZM40.5498 19.3172C42.9878 20.2268 45.4759 21.1071 48.0101 21.9511L47.5362 23.3742C44.9846 22.5245 42.4796 21.6382 40.0254 20.7225L40.5498 19.3172ZM55.5727 24.3159C58.084 25.0501 60.6337 25.7444 63.2181 26.3926L62.8532 27.8475C60.2495 27.1945 57.6811 26.4951 55.1518 25.7557L55.5727 24.3159ZM70.9309 28.1633C73.4978 28.6977 76.0939 29.1831 78.7158 29.6136L78.4727 31.0938C75.8292 30.6597 73.2122 30.1704 70.6251 29.6318L70.9309 28.1633ZM86.5551 30.7233C89.1592 31.0324 91.7846 31.2839 94.4282 31.4726L94.3213 32.9688C91.6537 32.7784 89.005 32.5246 86.3783 32.2129L86.5551 30.7233ZM102.33 31.8435C104.954 31.9016 107.593 31.8944 110.243 31.8168L110.287 33.3162C107.61 33.3945 104.946 33.4018 102.297 33.3431L102.33 31.8435ZM118.137 31.3755C120.748 31.1589 123.367 30.8704 125.991 30.5053L126.198 31.991C123.545 32.36 120.899 32.6515 118.261 32.8703L118.137 31.3755ZM133.785 29.1943C136.352 28.6864 138.922 28.1014 141.492 27.4348L141.869 28.8868C139.27 29.5608 136.671 30.1523 134.076 30.6658L133.785 29.1943ZM149.086 25.224C151.568 24.4207 154.048 23.5373 156.524 22.5699L157.07 23.967C154.566 24.9453 152.058 25.8387 149.548 26.6511L149.086 25.224ZM163.791 19.4794C166.156 18.39 168.514 17.2199 170.865 15.9655L171.571 17.2888C169.195 18.5571 166.81 19.7402 164.419 20.8417L163.791 19.4794Z" fill="#A4AEC4" fill-opacity="0.58"/>
</svg>
