<svg width="171" height="32" viewBox="0 0 171 32" fill="none" xmlns="http://www.w3.org/2000/svg">
<path d="M0.610315 13.1409C0.256402 12.9257 0.143967 12.4644 0.359184 12.1104C0.574401 11.7565 1.03577 11.6441 1.38969 11.8593L0.610315 13.1409ZM171 0.000150681L166.994 7.67822L162.348 0.369963L171 0.000150681ZM4.8901 13.8973C5.25192 14.0989 5.38177 14.5557 5.18013 14.9175C4.97849 15.2793 4.52171 15.4092 4.15989 15.2075L4.8901 13.8973ZM11.4674 18.9428C11.0922 18.7672 10.9303 18.3208 11.1059 17.9456C11.2814 17.5704 11.7279 17.4086 12.103 17.5841L11.4674 18.9428ZM19.5528 20.7728C19.9386 20.9233 20.1294 21.3582 19.9789 21.7441C19.8284 22.13 19.3935 22.3207 19.0076 22.1702L19.5528 20.7728ZM26.7377 24.9109C26.3433 24.7845 26.1259 24.3623 26.2523 23.9678C26.3787 23.5734 26.8009 23.356 27.1954 23.4824L26.7377 24.9109ZM34.9955 25.7272C35.3968 25.83 35.6387 26.2386 35.5359 26.6399C35.4331 27.0411 35.0245 27.2831 34.6232 27.1803L34.9955 25.7272ZM42.626 28.988C42.2195 28.9082 41.9547 28.514 42.0345 28.1076C42.1142 27.7011 42.5084 27.4363 42.9149 27.5161L42.626 28.988ZM50.913 28.8564C51.3232 28.9136 51.6095 29.2925 51.5523 29.7027C51.4951 30.113 51.1161 30.3992 50.7059 30.342L50.913 28.8564ZM58.8612 31.2545C58.4485 31.2195 58.1422 30.8565 58.1772 30.4438C58.2122 30.0311 58.5751 29.7248 58.9879 29.7598L58.8612 31.2545ZM67.0851 30.2305C67.4991 30.2437 67.8241 30.59 67.8109 31.004C67.7978 31.418 67.4515 31.7429 67.0375 31.7297L67.0851 30.2305ZM75.2407 31.7774C74.8266 31.7857 74.4842 31.4567 74.4759 31.0426C74.4676 30.6284 74.7966 30.286 75.2107 30.2777L75.2407 31.7774ZM83.3148 29.9092C83.728 29.8799 84.0867 30.1911 84.116 30.6043C84.1452 31.0175 83.834 31.3762 83.4208 31.4054L83.3148 29.9092ZM91.5894 30.6209C91.1782 30.6708 90.8045 30.3778 90.7546 29.9666C90.7048 29.5554 90.9977 29.1816 91.4089 29.1318L91.5894 30.6209ZM99.4344 27.9592C99.8427 27.8894 100.23 28.1637 100.3 28.572C100.37 28.9803 100.096 29.3679 99.6873 29.4377L99.4344 27.9592ZM107.73 27.8626C107.325 27.9519 106.925 27.6964 106.836 27.2919C106.746 26.8874 107.002 26.4871 107.406 26.3979L107.73 27.8626ZM115.303 24.459C115.703 24.3509 116.115 24.5874 116.223 24.9873C116.331 25.3871 116.095 25.7989 115.695 25.907L115.303 24.459ZM123.542 23.5913C123.147 23.7176 122.725 23.5001 122.599 23.1056C122.473 22.711 122.69 22.2889 123.085 22.1627L123.542 23.5913ZM130.764 19.515C131.153 19.3714 131.584 19.5699 131.728 19.9584C131.871 20.3469 131.673 20.7783 131.284 20.9219L130.764 19.515ZM138.908 17.9131C138.526 18.0734 138.087 17.8937 137.927 17.5118C137.766 17.1299 137.946 16.6903 138.328 16.53L138.908 17.9131ZM145.761 13.224C146.135 13.0478 146.582 13.2088 146.758 13.5837C146.935 13.9586 146.774 14.4053 146.399 14.5815L145.761 13.224ZM153.728 10.9522C153.36 11.1434 152.908 11.0006 152.716 10.6332C152.525 10.2658 152.668 9.81291 153.035 9.62165L153.728 10.9522ZM160.165 5.72951C160.525 5.52399 160.983 5.64893 161.188 6.00856C161.394 6.36819 161.269 6.82633 160.909 7.03185L160.165 5.72951ZM167.936 2.83673C167.585 3.05571 167.122 2.9482 166.903 2.59661C166.684 2.24501 166.792 1.78246 167.143 1.56348L167.936 2.83673ZM1.38969 11.8593C2.52904 12.5522 3.69612 13.2319 4.8901 13.8973L4.15989 15.2075C2.94956 14.533 1.76609 13.8438 0.610315 13.1409L1.38969 11.8593ZM12.103 17.5841C14.5012 18.7062 16.9862 19.7715 19.5528 20.7728L19.0076 22.1702C16.4108 21.1572 13.8957 20.079 11.4674 18.9428L12.103 17.5841ZM27.1954 23.4824C29.7303 24.2944 32.3317 25.0447 34.9955 25.7272L34.6232 27.1803C31.9309 26.4904 29.301 25.732 26.7377 24.9109L27.1954 23.4824ZM42.9149 27.5161C45.5306 28.0294 48.1978 28.4778 50.913 28.8564L50.7059 30.342C47.9633 29.9596 45.2688 29.5067 42.626 28.988L42.9149 27.5161ZM58.9879 29.7598C61.6478 29.9852 64.3479 30.1435 67.0851 30.2305L67.0375 31.7297C64.2738 31.6419 61.5474 31.482 58.8612 31.2545L58.9879 29.7598ZM75.2107 30.2777C77.882 30.2243 80.5842 30.1026 83.3148 29.9092L83.4208 31.4054C80.6648 31.6007 77.9373 31.7235 75.2407 31.7774L75.2107 30.2777ZM91.4089 29.1318C94.0613 28.8104 96.7372 28.4205 99.4344 27.9592L99.6873 29.4377C96.966 29.9032 94.2659 30.2965 91.5894 30.6209L91.4089 29.1318ZM107.406 26.3979C110.022 25.8206 112.655 25.1752 115.303 24.459L115.695 25.907C113.024 26.6293 110.368 27.2803 107.73 27.8626L107.406 26.3979ZM123.085 22.1627C125.633 21.3474 128.193 20.4657 130.764 19.515L131.284 20.9219C128.692 21.8803 126.111 22.7693 123.542 23.5913L123.085 22.1627ZM138.328 16.53C140.798 15.4933 143.276 14.392 145.761 13.224L146.399 14.5815C143.895 15.7584 141.398 16.8683 138.908 17.9131L138.328 16.53ZM153.035 9.62165C155.407 8.38685 157.784 7.09006 160.165 5.72951L160.909 7.03185C158.512 8.40208 156.117 9.70827 153.728 10.9522L153.035 9.62165Z" fill="#A4AEC4" fill-opacity="0.58"/>
</svg>
