<svg width="171" height="33" viewBox="0 0 171 33" fill="none" xmlns="http://www.w3.org/2000/svg">
<path d="M0.610315 18.9184C0.256402 19.1336 0.143967 19.595 0.359184 19.9489C0.574401 20.3028 1.03577 20.4152 1.38969 20.2L0.610315 18.9184ZM171 32.0592L166.994 24.3811L162.348 31.6894L171 32.0592ZM4.8901 18.1621C5.25192 17.9604 5.38177 17.5036 5.18013 17.1418C4.97849 16.78 4.52171 16.6501 4.15989 16.8518L4.8901 18.1621ZM11.4674 13.1165C11.0922 13.2921 10.9303 13.7385 11.1059 14.1137C11.2814 14.4889 11.7279 14.6507 12.103 14.4752L11.4674 13.1165ZM19.5528 11.2865C19.9386 11.136 20.1294 10.7011 19.9789 10.3153C19.8284 9.92937 19.3935 9.73858 19.0076 9.88912L19.5528 11.2865ZM26.7377 7.14845C26.3433 7.27482 26.1259 7.69703 26.2523 8.0915C26.3787 8.48597 26.8009 8.70331 27.1954 8.57695L26.7377 7.14845ZM34.9955 6.33213C35.3968 6.22932 35.6387 5.82069 35.5359 5.41944C35.4331 5.01819 35.0245 4.77626 34.6232 4.87907L34.9955 6.33213ZM42.626 3.07135C42.2195 3.15112 41.9547 3.54529 42.0345 3.95175C42.1142 4.35821 42.5084 4.62304 42.9149 4.54327L42.626 3.07135ZM50.913 3.20295C51.3232 3.14576 51.6095 2.76682 51.5523 2.35658C51.4951 1.94633 51.1161 1.66013 50.7059 1.71732L50.913 3.20295ZM58.8612 0.804875C58.4485 0.839844 58.1422 1.20278 58.1772 1.61551C58.2122 2.02825 58.5751 2.33449 58.9879 2.29952L58.8612 0.804875ZM67.0851 1.82882C67.4991 1.81566 67.8241 1.46937 67.8109 1.05536C67.7978 0.64136 67.4515 0.316416 67.0375 0.32958L67.0851 1.82882ZM75.2407 0.281909C74.8266 0.273625 74.4842 0.602629 74.4759 1.01676C74.4676 1.43089 74.7966 1.77333 75.2107 1.78161L75.2407 0.281909ZM83.3148 2.15014C83.728 2.17941 84.0867 1.86819 84.116 1.45501C84.1452 1.04184 83.834 0.68316 83.4208 0.653889L83.3148 2.15014ZM91.5894 1.43841C91.1782 1.38858 90.8045 1.68152 90.7546 2.09273C90.7048 2.50393 90.9977 2.87768 91.4089 2.92752L91.5894 1.43841ZM99.4344 4.10013C99.8427 4.16996 100.23 3.89559 100.3 3.4873C100.37 3.07902 100.096 2.69143 99.6873 2.6216L99.4344 4.10013ZM107.73 4.19672C107.325 4.10744 106.925 4.36295 106.836 4.76743C106.746 5.17191 107.002 5.57218 107.406 5.66146L107.73 4.19672ZM115.303 7.60031C115.703 7.70842 116.115 7.47192 116.223 7.07207C116.331 6.67221 116.095 6.26042 115.695 6.15231L115.303 7.60031ZM123.542 8.468C123.147 8.34177 122.725 8.55926 122.599 8.95377C122.473 9.34828 122.69 9.77042 123.085 9.89665L123.542 8.468ZM130.764 12.5443C131.153 12.6879 131.584 12.4894 131.728 12.1009C131.871 11.7124 131.673 11.281 131.284 11.1374L130.764 12.5443ZM138.908 14.1462C138.526 13.9859 138.087 14.1656 137.927 14.5475C137.766 14.9295 137.946 15.369 138.328 15.5293L138.908 14.1462ZM145.761 18.8354C146.135 19.0116 146.582 18.8505 146.758 18.4756C146.935 18.1008 146.774 17.654 146.399 17.4778L145.761 18.8354ZM153.728 21.1072C153.36 20.9159 152.908 21.0587 152.716 21.4261C152.525 21.7935 152.668 22.2464 153.035 22.4377L153.728 21.1072ZM160.165 26.3298C160.525 26.5353 160.983 26.4104 161.188 26.0508C161.394 25.6911 161.269 25.233 160.909 25.0275L160.165 26.3298ZM167.936 29.2226C167.585 29.0036 167.122 29.1111 166.903 29.4627C166.684 29.8143 166.792 30.2769 167.143 30.4958L167.936 29.2226ZM1.38969 20.2C2.52904 19.5072 3.69612 18.8275 4.8901 18.1621L4.15989 16.8518C2.94956 17.5263 1.76609 18.2155 0.610315 18.9184L1.38969 20.2ZM12.103 14.4752C14.5012 13.3531 16.9862 12.2878 19.5528 11.2865L19.0076 9.88912C16.4108 10.9021 13.8957 11.9804 11.4674 13.1165L12.103 14.4752ZM27.1954 8.57695C29.7303 7.76491 32.3317 7.01467 34.9955 6.33213L34.6232 4.87907C31.9309 5.56892 29.301 6.32734 26.7377 7.14845L27.1954 8.57695ZM42.9149 4.54327C45.5306 4.02991 48.1978 3.5815 50.913 3.20295L50.7059 1.71732C47.9633 2.09969 45.2688 2.55267 42.626 3.07135L42.9149 4.54327ZM58.9879 2.29952C61.6478 2.07415 64.3479 1.91586 67.0851 1.82882L67.0375 0.32958C64.2738 0.41746 61.5474 0.577285 58.8612 0.804875L58.9879 2.29952ZM75.2107 1.78161C77.882 1.83504 80.5842 1.95669 83.3148 2.15014L83.4208 0.653889C80.6648 0.45864 77.9373 0.335847 75.2407 0.281909L75.2107 1.78161ZM91.4089 2.92752C94.0613 3.24898 96.7372 3.63881 99.4344 4.10013L99.6873 2.6216C96.966 2.15616 94.2659 1.7628 91.5894 1.43841L91.4089 2.92752ZM107.406 5.66146C110.022 6.23877 112.655 6.88415 115.303 7.60031L115.695 6.15231C113.024 5.43003 110.368 4.77907 107.73 4.19672L107.406 5.66146ZM123.085 9.89665C125.633 10.7119 128.193 11.5937 130.764 12.5443L131.284 11.1374C128.692 10.1791 126.111 9.29004 123.542 8.468L123.085 9.89665ZM138.328 15.5293C140.798 16.566 143.276 17.6673 145.761 18.8354L146.399 17.4778C143.895 16.3009 141.398 15.191 138.908 14.1462L138.328 15.5293ZM153.035 22.4377C155.407 23.6725 157.784 24.9693 160.165 26.3298L160.909 25.0275C158.512 23.6572 156.117 22.3511 153.728 21.1072L153.035 22.4377Z" fill="#A4AEC4" fill-opacity="0.58"/>
</svg>
