<svg width="76" height="76" viewBox="0 0 76 76" fill="none" xmlns="http://www.w3.org/2000/svg">
<rect width="76" height="76" rx="23.3182" fill="#5C5CDC"/>
<path d="M38.8202 37.3356C41.7541 37.336 44.1463 34.9837 44.1952 32.0502V30.0435C44.1954 28.8526 43.7174 27.7114 42.8686 26.876C42.0197 26.0406 40.871 25.581 39.6802 25.6002H37.9782C35.5312 25.6101 33.5527 27.5965 33.5527 30.0435V32.0502C33.6004 34.9423 35.9283 37.2781 38.8202 37.3356Z" fill="white"/>
<path d="M57.813 46.5806L57.598 43.8752C57.3656 42.5165 56.1991 41.5156 54.8209 41.4923H47.0809C46.9622 41.4738 46.8413 41.4738 46.7226 41.4923C46.0359 40.721 45.0498 40.2835 44.0171 40.2919H33.6434C32.5498 40.2871 31.5139 40.7819 30.8305 41.6356C30.5377 41.5286 30.2284 41.474 29.9167 41.4744H22.1767C20.7928 41.4993 19.6243 42.5094 19.3996 43.8752L19.1846 46.6702C19.0046 47.5273 19.2115 48.4202 19.7501 49.1108C20.2888 49.8014 21.1045 50.2195 21.9796 50.2535H30.1317C30.2924 50.272 30.4548 50.272 30.6155 50.2535C31.3261 51.0379 32.3342 51.4866 33.3926 51.4898H44.268C45.2941 51.4849 46.2729 51.0571 46.9734 50.3073H55.018C55.9249 50.2822 56.7708 49.8446 57.3152 49.1187C57.8596 48.3929 58.0429 47.4583 57.813 46.5806Z" fill="white"/>
<path d="M51.043 38.6974C53.2199 38.6974 54.9846 36.9326 54.9846 34.7557V33.2328C54.985 32.338 54.6235 31.481 53.9824 30.8568C53.3412 30.2325 52.475 29.894 51.5805 29.9182H50.3263C48.4957 29.9182 47.0117 31.4022 47.0117 33.2328V34.7557C47.0114 35.8168 47.439 36.8332 48.1977 37.575C48.9564 38.3169 49.9821 38.7215 51.043 38.6974V38.6974Z" fill="white"/>
<path d="M26.0471 38.6969C28.2241 38.6969 29.9888 36.9321 29.9888 34.7552V33.2323C29.9888 31.4017 28.5048 29.9177 26.6742 29.9177H25.4201C23.5895 29.9177 22.1055 31.4017 22.1055 33.2323V34.7552C22.1055 36.9321 23.8702 38.6969 26.0471 38.6969V38.6969Z" fill="white"/>
</svg>
