<svg width="76" height="76" viewBox="0 0 76 76" fill="none" xmlns="http://www.w3.org/2000/svg">
<rect width="76" height="76" rx="23.3182" fill="#9595EF"/>
<path d="M49.7885 43.732C49.7885 45.89 49.0085 47.762 47.4485 49.348C45.9145 50.908 43.6785 51.909 40.7405 52.351V56.68H36.0605V52.507C34.1105 52.377 32.2645 52.052 30.5225 51.532C28.7805 50.986 27.3375 50.323 26.1935 49.543L28.7285 43.849C29.9505 44.655 31.3675 45.305 32.9795 45.799C34.5915 46.293 36.1775 46.54 37.7375 46.54C40.7015 46.54 42.1835 45.799 42.1835 44.317C42.1835 43.537 41.7545 42.965 40.8965 42.601C40.0645 42.211 38.7125 41.808 36.8405 41.392C34.7865 40.95 33.0705 40.482 31.6925 39.988C30.3145 39.468 29.1315 38.649 28.1435 37.531C27.1555 36.413 26.6615 34.905 26.6615 33.007C26.6615 30.771 27.4675 28.86 29.0795 27.274C30.6915 25.662 33.0185 24.674 36.0605 24.31V20.02H40.7405V24.232C42.2225 24.362 43.6395 24.622 44.9915 25.012C46.3695 25.402 47.5915 25.909 48.6575 26.533L46.2785 32.266C43.6785 30.862 41.1565 30.16 38.7125 30.16C37.1785 30.16 36.0605 30.394 35.3585 30.862C34.6565 31.304 34.3055 31.889 34.3055 32.617C34.3055 33.345 34.7215 33.891 35.5535 34.255C36.3855 34.619 37.7245 34.996 39.5705 35.386C41.6505 35.828 43.3665 36.309 44.7185 36.829C46.0965 37.323 47.2795 38.129 48.2675 39.247C49.2815 40.339 49.7885 41.834 49.7885 43.732Z" fill="white"/>
</svg>
