<svg width="1376" height="733" viewBox="0 0 1376 733" fill="none" xmlns="http://www.w3.org/2000/svg">
<path d="M152.08 731.293C152.08 731.293 -4.8234 692.646 0.114135 602.308C5.11262 511.969 152.08 503.496 152.08 503.496C152.08 503.496 10.2939 393.286 166.04 357.869C166.04 357.869 122.76 319.04 207.247 289.232C207.247 289.232 96.2436 161.77 281.797 83.8059C467.351 5.8417 601.579 111.481 601.579 111.481C601.579 111.481 639.677 66.3113 692.71 99.2281C692.71 99.2281 705.937 -8.97088 865.036 0.599402C1024.07 10.1697 1005.3 122.209 1005.3 122.209C1005.3 122.209 1138.43 66.616 1123.49 173.169C1123.49 173.169 1262.66 174.632 1279.24 276.492C1295.82 378.351 1189.75 402.795 1189.75 402.795C1189.75 402.795 1302.4 412.548 1217.92 473.444C1217.92 473.444 1370.37 481.308 1375.31 598.041C1380.31 714.774 1309.29 733 1309.29 733L152.08 731.293Z" fill="#121D54"/>
<path d="M311.241 221.203H526.054L448.395 209.073C448.395 209.073 447.968 185.726 422.427 195.236C422.427 195.236 420.355 177.497 400.604 176.644C380.854 175.79 382.195 192.675 382.195 192.675C382.195 192.675 357.081 176.217 342.39 192.249C327.7 208.28 351.046 212.608 351.046 212.608L311.241 221.203Z" fill="white"/>
<path d="M855.65 81.4892H730.627L775.857 74.4182C775.857 74.4182 776.101 60.8248 790.975 66.3719C790.975 66.3719 792.194 56.0701 803.654 55.5215C815.114 55.0338 814.382 64.8479 814.382 64.8479C814.382 64.8479 829.012 55.2776 837.546 64.6041C846.08 73.9305 832.486 76.4298 832.486 76.4298L855.65 81.4892Z" fill="white"/>
<path d="M340.391 582.679L318.263 587.738L318.934 589.384C324.603 593.407 331.064 596.516 337.769 597.918C334.965 590.116 340.391 582.679 340.391 582.679Z" fill="#ED7E94"/>
<path d="M326.249 583.168C319.056 571.159 335.698 566.77 345.451 562.442L343.013 557.078L311.62 564.393C311.62 564.393 299.428 580.546 318.264 587.861C326.128 590.909 332.894 591.397 338.014 590.97C333.199 589.751 328.81 587.557 326.249 583.168Z" fill="#ED7E94"/>
<path d="M326.249 583.167C328.809 587.556 333.198 589.811 338.013 590.909C345.145 590.299 349.229 587.8 349.229 587.8L346.547 575.852L350.083 572.743L345.45 562.442C335.697 566.77 319.056 571.159 326.249 583.167Z" fill="#FF96A9"/>
<path d="M344.232 539.096C336.368 537.024 329.358 535.866 324.299 536.231C312.961 537.146 326.554 544.156 343.927 552.019C345.939 548.057 346.122 542.937 344.232 539.096Z" fill="#FF96A9"/>
<path d="M348.499 540.314C347.036 539.887 345.634 539.522 344.232 539.095C346.121 542.935 345.938 548.056 343.927 552.018C345.329 552.627 346.67 553.237 348.133 553.907C350.083 549.762 350.205 544.642 348.499 540.314Z" fill="#F2F2F2"/>
<path d="M248.651 714.226C249.931 713.433 251.638 712.336 253.589 710.995C252.857 709.654 252.004 708.374 250.907 707.276C249.322 708.435 247.676 709.471 245.969 710.507C247.066 711.604 247.92 712.884 248.651 714.226Z" fill="#E6E6E6"/>
<path d="M236.521 700.692L230.913 705.508C236.46 704.472 242.251 706.483 246.03 710.506C247.737 709.47 249.383 708.373 250.968 707.276C247.31 703.314 241.946 700.875 236.521 700.692Z" fill="#F2F2F2"/>
<path d="M409.394 566.892C409.577 566.099 409.699 565.368 409.882 564.576C409.882 564.576 375.624 548.178 348.559 540.315C350.205 544.703 350.083 549.763 348.132 553.908C364.53 561.223 382.695 568.904 386.23 572.805C386.23 572.805 375.624 589.934 357.032 599.931L340.391 602.613L324.907 604.624L298.391 616.206L260.354 680.455L236.52 700.754C241.945 700.876 247.309 703.375 250.905 707.276C275.349 689.964 288.577 661.436 301.439 634.92C302.475 638.882 303.999 642.723 305.889 646.319L371.235 617.73C369.833 614.621 368.004 611.695 365.566 609.257C383.914 599.687 401.043 585.911 409.394 566.892Z" fill="white"/>
<path d="M409.395 566.892C401.044 585.91 383.976 599.687 365.627 609.257C368.066 611.695 369.834 614.56 371.296 617.73L372.455 617.242C372.394 617.182 402.689 597.675 409.395 566.892Z" fill="#F2F2F2"/>
<path d="M250.967 707.275C252.004 708.434 252.918 709.653 253.649 710.994C261.574 705.63 273.704 696.608 279.556 688.074C288.7 674.785 301.988 647.964 301.988 647.964L306.012 646.196C304.122 642.661 302.598 638.76 301.562 634.797C288.639 661.375 275.411 689.964 250.967 707.275Z" fill="#F2F2F2"/>
<path d="M246.822 718.432C247.188 717.517 247.066 716.542 246.09 715.811C246.09 715.811 247.066 715.262 248.651 714.226C247.919 712.824 247.066 711.605 246.03 710.507C244.262 711.605 242.372 712.641 240.482 713.616C242.86 714.652 245.847 715.993 246.822 718.432Z" fill="#ED7E94"/>
<path d="M230.913 705.509L222.257 712.885C222.257 712.885 218.112 709.898 209.761 711.422C201.348 712.885 204.213 720.261 177.575 719.164C170.687 718.859 167.273 720.2 167.334 722.029C188.486 731.355 212.138 731.599 232.985 721.175C238.959 729.161 248.59 729.77 258.039 728.063C262.245 725.198 262.062 720.87 255.417 720.87C246.152 720.87 243.653 722.394 243.348 722.638H243.287C243.287 722.638 243.287 722.638 243.348 722.638C243.653 722.394 246.152 720.444 246.883 718.493C245.969 716.055 242.982 714.714 240.544 713.678C242.434 712.702 244.323 711.666 246.091 710.569C242.19 706.485 236.46 704.473 230.913 705.509Z" fill="#FF96A9"/>
<path d="M232.924 721.114C212.076 731.537 188.425 731.355 167.273 721.967C167.395 725.32 179.464 730.379 204.213 730.501C219.087 730.562 230.303 724.893 230.303 724.893C230.303 724.893 236.52 730.501 248.59 730.501C252.674 730.501 255.844 729.404 257.977 727.941C248.529 729.77 238.898 729.099 232.924 721.114Z" fill="#ED7E94"/>
<path d="M317.167 570.732C317.167 570.732 348.377 566.953 362.031 544.886C362.031 544.886 325.335 550.616 298.331 568.355C298.331 568.355 304.305 584.935 318.203 587.8L316.192 575.426C316.192 575.426 309.364 576.097 311.559 570.367C313.875 564.576 317.167 570.732 317.167 570.732Z" fill="#322666"/>
<path d="M318.751 549.092C323.201 554.395 332.04 556.59 337.769 553.054C342.768 550.189 342.28 545.069 340.086 540.375C334.295 536.9 324.359 536.23 324.359 536.23C324.359 536.23 306.62 531.353 316.922 563.112C317.836 565.855 318.629 567.562 319.421 568.476C321.433 562.198 320.519 555.492 318.751 549.092Z" fill="#FF96A9"/>
<path d="M340.025 540.436C342.22 545.13 342.708 550.25 337.709 553.115C331.979 556.651 323.14 554.456 318.69 549.153C320.458 555.554 321.373 562.259 319.361 568.599C322.957 572.927 324.725 559.882 321.373 552.872C321.373 552.872 333.686 564.758 342.403 551.409C345.877 546.105 343.805 542.692 340.025 540.436Z" fill="#ED7E94"/>
<path d="M461.148 634.858C439.02 659.18 415.125 683.076 384.22 695.45C379.587 697.218 374.954 699.107 370.139 700.997C367.822 710.75 369.468 722.271 393.485 717.151C432.864 708.739 452.736 655.706 452.736 655.706C460.477 682.893 513.754 724.709 513.754 724.709L507.902 709.897C498.21 697.583 486.689 688.196 477.911 674.298C469.987 661.862 464.683 649.061 461.148 634.858Z" fill="#322666"/>
<path d="M374.771 689.293C374.771 689.293 371.663 694.779 370.139 701.058C374.893 699.168 379.587 697.278 384.22 695.511C394.156 691.548 403.36 686.367 412.016 680.393C401.105 680.637 390.133 682.344 379.404 684.599C376.356 687.525 374.771 689.293 374.771 689.293Z" fill="#322666"/>
<path d="M469.986 613.219C431.4 633.396 392.388 671.25 379.343 684.539C390.071 682.284 401.044 680.638 411.955 680.333C430.242 667.715 446.091 651.378 461.147 634.859C464.683 649.001 469.986 661.863 477.972 674.237C486.749 688.136 498.27 697.523 507.962 709.836L469.986 613.219Z" fill="#3F327A"/>
<path d="M372.882 689.964C351.852 696.792 342.952 681.613 339.965 719.163C339.965 719.163 339.904 720.748 341.977 722.82C349.718 709.654 360.325 698.255 372.882 689.964Z" fill="#322666"/>
<path d="M481.507 689.72C441.336 712.579 393.18 723.429 348.072 713.615C345.877 716.541 343.866 719.589 341.976 722.759C345.451 726.111 354.838 730.561 380.196 730.561C420.855 730.561 478.825 703.435 478.825 703.435C478.825 703.435 527.652 728.489 580.258 728.306C545.756 720.564 513.631 704.594 481.507 689.72Z" fill="#322666"/>
<path d="M481.506 689.721C513.63 704.594 545.816 720.565 580.257 728.306C582.268 728.306 584.28 728.245 586.291 728.185L469.558 672.043C469.558 672.043 397.202 680.882 374.77 689.294C374.16 689.538 373.49 689.721 372.88 689.964C363.371 696.304 354.959 704.411 348.071 713.677C393.179 723.43 441.335 712.579 481.506 689.721Z" fill="#3F327A"/>
<path d="M340.391 706.545C335.941 692.403 333.32 677.773 332.406 663.204C315.582 663.631 305.402 649.916 301.44 634.92C299.855 638.212 298.209 641.565 296.624 644.917C300.403 654.792 308.754 668.203 326.981 673.14C331.309 674.299 339.965 719.224 339.965 719.224C339.965 719.224 347.584 704.472 362.092 695.146C354.229 697.645 346.731 701.12 340.391 706.545Z" fill="#F2F2F2"/>
<path d="M332.405 663.204C333.32 677.773 335.941 692.403 340.391 706.545C346.73 701.119 354.228 697.645 362.092 695.085C365.871 692.646 370.077 690.635 374.771 689.294C374.771 689.294 375.929 661.863 381.232 649.489C386.535 637.114 384.158 617.364 373.552 607.916C362.945 598.468 293.637 633.396 293.637 633.396C293.637 633.396 294.124 638.394 296.624 644.856C298.269 641.503 299.854 638.212 301.439 634.859C305.462 649.915 315.642 663.631 332.405 663.204Z" fill="white"/>
<path d="M348.255 623.764C348.255 623.764 358.983 652.414 355.57 689.537L375.929 702.094L376.234 700.997C372.638 674.725 363.799 649.793 350.023 625.654C349.413 625.044 348.864 624.374 348.255 623.764Z" fill="#DB4A87"/>
<path d="M350.022 625.716C363.798 649.855 372.637 674.787 376.234 701.059L380.805 684.906C380.805 684.845 368.248 646.015 350.022 625.716Z" fill="#E5649A"/>
<path d="M507.049 719.163L495.04 730.562H571.115L507.049 719.163Z" fill="#322666"/>
<path d="M575.625 723.064L640.423 730.562H549.901L575.625 723.064Z" fill="#322666"/>
<path d="M346.548 586.519C347.154 586.519 347.645 586.028 347.645 585.422C347.645 584.816 347.154 584.325 346.548 584.325C345.942 584.325 345.451 584.816 345.451 585.422C345.451 586.028 345.942 586.519 346.548 586.519Z" fill="#ED7E94"/>
<path d="M324.909 604.563L344.354 617.181L340.392 602.613C339.112 601.089 338.259 599.565 337.771 598.041C331.066 596.639 324.665 593.469 318.935 589.507L324.909 604.563Z" fill="#FF96A9"/>
<path d="M322.287 610.111L346.548 630.288L345.451 618.95L355.57 625.777L345.451 605.539L351.303 620.9L344.354 617.182L344.171 624.862L322.287 610.111Z" fill="#F2F2F2"/>
<path d="M345.451 618.949L345.999 624.74L350.998 628.397L350.144 622.058L345.451 618.949Z" fill="#E5649A"/>
<path d="M362.092 631.202C361.726 631.202 361.421 631.019 361.299 630.653C361.116 630.226 361.36 629.678 361.787 629.495L378.002 622.85C378.428 622.668 378.977 622.911 379.16 623.338C379.343 623.765 379.099 624.313 378.672 624.496L362.457 631.141C362.275 631.202 362.153 631.202 362.092 631.202Z" fill="#F2F2F2"/>
<path d="M249.809 711.725C250.449 711.725 250.967 711.207 250.967 710.567C250.967 709.927 250.449 709.409 249.809 709.409C249.169 709.409 248.651 709.927 248.651 710.567C248.651 711.207 249.169 711.725 249.809 711.725Z" fill="white"/>
<path d="M645.299 532.329C635.181 518.674 626.647 507.58 617.015 493.438C612.992 488.074 608.725 483.563 605.433 478.382L599.155 479.052L664.501 593.164C669.499 601.82 679.131 606.757 689.067 605.66L761.423 597.736L753.864 587.068C734.419 586.946 715.156 584.447 696.808 576.827C675.107 568.172 659.441 550.982 645.299 532.329Z" fill="#322666"/>
<path d="M605.494 478.381C608.785 483.623 613.052 488.073 617.076 493.437C626.646 507.58 635.241 518.674 645.36 532.328C659.502 550.981 675.168 568.171 696.868 576.766C715.278 584.325 734.54 586.824 753.924 587.007L672.059 471.554L605.494 478.381Z" fill="#3F327A"/>
<path d="M851.211 422.789C839.63 396.516 817.929 377.864 798.24 356.65C789.949 347.446 781.233 339.034 772.455 330.683L756.118 398.04L865.475 500.326C865.414 473.932 861.696 447.538 851.211 422.789Z" fill="#322666"/>
<path d="M879.191 408.341L773.369 326.964L772.455 330.743C781.232 339.094 789.888 347.506 798.24 356.711C817.929 377.924 839.629 396.577 851.211 422.849C861.696 447.598 865.353 473.992 865.414 500.448L869.011 503.8L887.115 431.261C889.31 422.666 886.14 413.706 879.191 408.341Z" fill="#3F327A"/>
<path d="M675.595 399.564C686.201 391.518 702.843 383.776 708.573 371.828L697.905 364.818L646.213 409.927L656.698 431.749C658.71 419.497 664.379 408.159 675.595 399.564Z" fill="#3F327A"/>
<g opacity="0.2">
<path opacity="0.6" d="M989.829 587.617C989.829 587.617 1100.53 546.836 1040.42 462.776C1040.42 462.776 1179.34 400.051 1081.39 274.419C1081.39 274.419 1127.17 264.787 1129.3 221.142C1131.43 177.497 1053.77 143.422 1010.62 215.839C1010.62 215.839 919.423 134.949 836.461 194.565C753.498 254.181 819.819 292.584 846.823 274.419C846.823 274.419 790.804 382.801 897.235 424.373C897.235 424.373 869.56 456.376 889.798 482.953C910.036 509.591 977.515 461.679 977.515 461.679C977.515 461.679 972.273 497.888 1006.04 491.487C1006.04 491.487 1042.01 513.432 989.829 587.617Z" fill="#F2F0FF"/>
</g>
<path d="M725.336 382.922L708.572 371.889C702.842 383.776 686.201 391.578 675.594 399.625C664.378 408.219 658.709 419.497 656.698 431.81L660.416 439.612L725.336 382.922Z" fill="#322666"/>
<path d="M730.761 364.148L730.029 364.757C709.304 397.247 699.977 433.7 708.389 470.213C717.472 509.104 752.279 531.292 785.622 549.945C790.682 552.993 795.192 556.529 800.252 559.028C805.311 561.527 810.371 564.087 814.882 567.074C817.381 568.598 820.429 569.573 822.928 571.097C865.842 591.762 899.673 625.593 920.338 668.507C922.593 673.079 924.605 677.711 926.555 682.405L981.965 634.005C917.351 527.391 833.595 437.357 730.761 364.148Z" fill="#FFDD85"/>
<path d="M822.989 571.219C820.49 569.695 817.442 568.72 814.943 567.196C810.371 564.148 805.372 561.649 800.313 559.149C795.253 556.65 790.743 553.115 785.683 550.067C752.4 531.414 717.533 509.165 708.45 470.335C700.038 433.821 709.365 397.369 730.09 364.879L641.397 442.356C701.623 552.871 779.465 647.964 874.985 727.696L926.677 682.588C924.787 677.894 922.715 673.261 920.46 668.69C899.673 625.715 865.903 591.883 822.989 571.219Z" fill="#FFCC46"/>
<path d="M818.172 553.969L817.38 554.639C816.039 555.858 813.966 555.675 812.747 554.334L689.065 412.67C687.907 411.329 688.029 409.317 689.37 408.159L690.162 407.489C691.564 406.269 693.698 406.391 694.917 407.793L818.477 549.336C819.696 550.677 819.513 552.75 818.172 553.969Z" fill="#3F327A"/>
<path d="M648.652 446.257C649.998 446.257 651.09 445.165 651.09 443.819C651.09 442.472 649.998 441.38 648.652 441.38C647.305 441.38 646.213 442.472 646.213 443.819C646.213 445.165 647.305 446.257 648.652 446.257Z" fill="#FFA42F"/>
<path d="M659.136 465.275C660.483 465.275 661.574 464.183 661.574 462.836C661.574 461.49 660.483 460.398 659.136 460.398C657.789 460.398 656.698 461.49 656.698 462.836C656.698 464.183 657.789 465.275 659.136 465.275Z" fill="#FFA42F"/>
<path d="M682.117 502.824C683.464 502.824 684.556 501.733 684.556 500.386C684.556 499.039 683.464 497.948 682.117 497.948C680.771 497.948 679.679 499.039 679.679 500.386C679.679 501.733 680.771 502.824 682.117 502.824Z" fill="#FFA42F"/>
<path d="M706.196 539.642C707.542 539.642 708.634 538.551 708.634 537.204C708.634 535.857 707.542 534.766 706.196 534.766C704.849 534.766 703.757 535.857 703.757 537.204C703.757 538.551 704.849 539.642 706.196 539.642Z" fill="#FFA42F"/>
<path d="M732.468 576.583C733.814 576.583 734.906 575.491 734.906 574.145C734.906 572.798 733.814 571.706 732.468 571.706C731.121 571.706 730.029 572.798 730.029 574.145C730.029 575.491 731.121 576.583 732.468 576.583Z" fill="#FFA42F"/>
<path d="M670.047 484.233C671.393 484.233 672.485 483.142 672.485 481.795C672.485 480.448 671.393 479.357 670.047 479.357C668.7 479.357 667.608 480.448 667.608 481.795C667.608 483.142 668.7 484.233 670.047 484.233Z" fill="#FFA42F"/>
<path d="M693.455 521.601C694.802 521.601 695.894 520.509 695.894 519.163C695.894 517.816 694.802 516.724 693.455 516.724C692.109 516.724 691.017 517.816 691.017 519.163C691.017 520.509 692.109 521.601 693.455 521.601Z" fill="#FFA42F"/>
<path d="M718.508 558.295C719.854 558.295 720.946 557.203 720.946 555.857C720.946 554.51 719.854 553.418 718.508 553.418C717.161 553.418 716.069 554.51 716.069 555.857C716.069 557.203 717.161 558.295 718.508 558.295Z" fill="#FFA42F"/>
<path d="M761.422 612.427C762.769 612.427 763.86 611.335 763.86 609.989C763.86 608.642 762.769 607.55 761.422 607.55C760.076 607.55 758.984 608.642 758.984 609.989C758.984 611.335 760.076 612.427 761.422 612.427Z" fill="#FFA42F"/>
<path d="M746.732 593.956C748.079 593.956 749.171 592.864 749.171 591.518C749.171 590.171 748.079 589.079 746.732 589.079C745.386 589.079 744.294 590.171 744.294 591.518C744.294 592.864 745.386 593.956 746.732 593.956Z" fill="#FFA42F"/>
<path d="M917.044 667.248C940.274 646.966 942.664 611.692 922.382 588.462C902.1 565.232 866.826 562.842 843.596 583.124C820.366 603.406 817.976 638.679 838.258 661.91C858.54 685.14 893.814 687.53 917.044 667.248Z" fill="#E67A17"/>
<path d="M910.097 659.302C894.004 673.322 870.84 673.993 854.138 662.167C851.761 660.521 849.505 658.571 847.494 656.376C847.067 655.95 846.64 655.462 846.213 654.974C846.031 654.731 845.848 654.548 845.604 654.304C841.764 649.732 838.96 644.612 837.253 639.186C831.828 622.484 836.46 603.344 850.541 591.091C867 576.705 890.895 576.401 907.658 589.08C910.097 590.908 912.352 593.042 914.424 595.419C916.253 597.492 917.777 599.686 919.179 601.942C919.667 602.734 920.093 603.526 920.52 604.38C921.922 607.001 922.959 609.744 923.812 612.548C928.567 628.946 923.812 647.355 910.097 659.302Z" fill="#3F327A"/>
<g opacity="0.15">
<path opacity="0.15" d="M919.179 601.941L845.604 654.304C841.763 649.732 838.959 644.611 837.252 639.186L907.658 589.079C910.096 590.908 912.352 593.042 914.424 595.419C916.192 597.491 917.777 599.686 919.179 601.941Z" fill="#D6EAF5"/>
<path opacity="0.15" d="M923.811 612.549L854.137 662.168C851.76 660.522 849.504 658.572 847.493 656.377L920.519 604.381C921.921 607.002 922.958 609.745 923.811 612.549Z" fill="#D6EAF5"/>
</g>
<path d="M669.194 725.624C669.194 725.624 624.817 721.601 608.359 668.568C591.839 615.597 651.577 585.789 651.577 585.789C651.577 585.789 620.55 665.825 669.194 669.056C691.931 670.58 687.969 632.238 687.969 632.238C687.969 632.238 699.916 654.975 730.029 648.879C760.142 642.844 786.78 571.647 786.78 571.647C786.78 571.647 837.009 663.387 931.371 672.592C931.371 672.592 900.648 641.321 915.461 605.965C930.274 570.61 963.251 562.564 952.401 516.115C941.612 469.665 910.889 449.488 910.889 449.488C910.889 449.488 963.191 466.678 975.138 536.291C987.086 605.965 966.604 637.236 966.604 637.236C966.604 637.236 1004.15 621.57 1003.54 595.846C1003.54 595.846 1029.69 632.665 1003.54 664.972C1003.54 664.972 1025.12 694.231 1047.31 670.519C1069.5 646.807 1000.13 623.094 1017.2 560.004C1017.2 560.004 1022.87 632.665 1096.81 663.997C1170.75 695.268 1052.43 725.563 1052.43 725.563H669.194V725.624Z" fill="#FF5B41"/>
<path d="M645.055 607.795C647.92 595.298 651.577 585.85 651.577 585.85C651.577 585.85 593.851 614.622 607.566 666.009C608.176 636.566 631.888 616.572 645.055 607.795Z" fill="#E8462C"/>
<path d="M1049.51 687.404C1055.78 680.699 1054.75 673.994 1050.42 666.435C1049.69 667.837 1048.71 669.239 1047.43 670.641C1033.53 685.514 1019.88 679.541 1011.59 673.079C1010 676.005 1008.12 678.992 1005.74 681.918C1005.74 681.857 1027.32 711.116 1049.51 687.404Z" fill="#E8462C"/>
<path d="M1019.39 576.888C1019.39 576.888 1025.06 649.549 1099 680.881C1108.7 684.965 1115.1 689.05 1118.88 693.073C1124.61 684.173 1120.77 674.176 1096.93 664.118C1022.99 632.847 1017.32 560.125 1017.32 560.125C1013.6 573.962 1013.97 585.91 1016.71 596.395C1016.65 590.299 1017.5 583.837 1019.39 576.888Z" fill="#E8462C"/>
<path d="M954.596 533.06C954.657 565.246 928.262 575.426 915.522 606.026C910.219 618.644 910.767 630.775 913.632 641.138C913.815 635.286 914.973 629.129 917.655 622.789C932.346 587.495 965.263 579.388 954.596 533.06Z" fill="#E8462C"/>
<path d="M643.897 649.671C643.714 667.715 649.566 684.478 671.266 685.88C694.004 687.404 690.041 649.062 690.041 649.062C690.041 649.062 701.989 671.799 732.102 665.703C762.215 659.668 788.853 588.47 788.853 588.47C788.853 588.47 839.082 680.211 933.443 689.415C933.443 689.415 926.555 682.405 920.886 671.25C833.291 656.681 786.78 571.707 786.78 571.707C786.78 571.707 760.142 642.905 730.029 648.94C699.916 654.975 687.969 632.298 687.969 632.298C687.969 632.298 691.931 670.641 669.194 669.117C654.564 668.141 647.188 660.217 643.897 649.671Z" fill="#E8462C"/>
<path d="M939.356 482.466C954.29 495.328 971.114 517.273 977.271 553.116C977.515 554.457 977.698 555.798 977.942 557.139C977.332 550.617 976.418 543.667 975.199 536.353C963.251 466.679 910.95 449.55 910.95 449.55C910.95 449.55 926.494 459.79 939.356 482.466Z" fill="#E8462C"/>
<path d="M950.328 658.206C950.328 658.206 1006.29 638.455 1005.74 612.731C1005.74 612.731 1011.89 621.387 1015.25 634.005C1015.74 612.975 1003.6 595.907 1003.6 595.907C1003.97 612.731 977.698 630.653 966.665 637.297C961.849 648.026 950.328 658.206 950.328 658.206Z" fill="#E8462C"/>
<path d="M660.6 731.17C660.6 731.17 657.918 716.723 668.646 710.688C679.436 704.653 692.846 714.041 692.846 714.041C692.846 714.041 691.505 699.228 705.647 693.864C719.789 688.5 729.542 696.546 729.542 696.546C729.542 696.546 740.332 655.156 782.026 656.863C823.721 658.57 829.451 690.145 829.451 690.145C829.451 690.145 843.227 678.685 859.381 681.733C875.535 684.781 879.924 698.557 879.924 698.557C879.924 698.557 886.324 649.426 926.007 652.779C965.69 656.131 959.29 690.45 959.29 690.45C959.29 690.45 965.69 679.661 975.444 682.404C985.197 685.086 983.49 696.546 983.49 696.546C983.49 696.546 1004.03 673.992 1028.23 684.111C1052.43 694.229 1046.76 716.052 1046.76 716.052C1046.76 716.052 1058.89 700.569 1074.68 705.933C1090.47 711.297 1084.13 731.109 1084.13 731.109H660.6V731.17Z" fill="#F5B7AD"/>
<path d="M959.411 699.411C959.411 699.411 965.812 688.621 975.565 691.364C985.318 694.046 983.611 705.506 983.611 705.506C983.611 705.506 1004.15 682.952 1028.35 693.071C1041.76 698.618 1045.97 707.823 1047.13 714.894C1047.92 710.2 1049.26 692.827 1028.35 684.11C1004.15 673.992 983.611 696.546 983.611 696.546C983.611 696.546 985.318 685.086 975.565 682.404C966.726 679.965 960.63 688.56 959.594 690.206C960.143 695.509 959.411 699.411 959.411 699.411Z" fill="#FFD4CD"/>
<path d="M1046.88 725.014C1046.88 725.014 1059.01 709.531 1074.8 714.895C1081.57 717.211 1084.25 722.088 1085.17 727.025C1086.08 720.93 1086.08 709.774 1074.8 705.995C1060.54 701.119 1049.32 713.249 1047.25 715.687C1047.98 720.991 1046.88 725.014 1046.88 725.014Z" fill="#FFD4CD"/>
<path d="M660.781 731.17C661.574 727.024 663.707 722.453 668.706 719.649C679.495 713.614 692.906 723.001 692.906 723.001C692.906 723.001 691.565 708.189 705.707 702.824C719.849 697.46 729.602 705.507 729.602 705.507C729.602 705.507 740.391 664.117 782.086 665.823C823.781 667.53 829.511 699.106 829.511 699.106C829.511 699.106 843.287 687.646 859.441 690.694C875.594 693.742 879.983 707.518 879.983 707.518C879.983 707.518 886.384 658.387 926.067 661.739C951.974 663.934 958.252 679.295 959.472 689.719C960.142 684.72 962.276 655.826 926.067 652.779C886.384 649.426 879.983 698.557 879.983 698.557C879.983 698.557 875.594 684.781 859.441 681.733C843.287 678.685 829.511 690.145 829.511 690.145C829.511 690.145 823.781 658.509 782.086 656.863C740.33 655.156 729.602 696.546 729.602 696.546C729.602 696.546 719.849 688.5 705.707 693.864C691.565 699.228 692.906 714.041 692.906 714.041C692.906 714.041 679.434 704.592 668.706 710.688C657.916 716.723 660.659 731.17 660.659 731.17H660.781Z" fill="#FFD4CD"/>
<path d="M733.321 374.327C734.668 374.327 735.759 373.235 735.759 371.889C735.759 370.542 734.668 369.45 733.321 369.45C731.974 369.45 730.883 370.542 730.883 371.889C730.883 373.235 731.974 374.327 733.321 374.327Z" fill="#FFA42F"/>
<path d="M747.646 385.055C748.993 385.055 750.085 383.963 750.085 382.617C750.085 381.27 748.993 380.178 747.646 380.178C746.3 380.178 745.208 381.27 745.208 382.617C745.208 383.963 746.3 385.055 747.646 385.055Z" fill="#FFA42F"/>
<path d="M776.418 407.121C777.764 407.121 778.856 406.03 778.856 404.683C778.856 403.337 777.764 402.245 776.418 402.245C775.071 402.245 773.979 403.337 773.979 404.683C773.979 406.03 775.071 407.121 776.418 407.121Z" fill="#FFA42F"/>
<path d="M806.531 432.785C807.877 432.785 808.969 431.694 808.969 430.347C808.969 429 807.877 427.909 806.531 427.909C805.184 427.909 804.092 429 804.092 430.347C804.092 431.694 805.184 432.785 806.531 432.785Z" fill="#FFA42F"/>
<path d="M835.607 460.398C836.953 460.398 838.045 459.307 838.045 457.96C838.045 456.613 836.953 455.522 835.607 455.522C834.26 455.522 833.168 456.613 833.168 457.96C833.168 459.307 834.26 460.398 835.607 460.398Z" fill="#FFA42F"/>
<path d="M881.202 507.153C882.549 507.153 883.641 506.061 883.641 504.715C883.641 503.368 882.549 502.276 881.202 502.276C879.856 502.276 878.764 503.368 878.764 504.715C878.764 506.061 879.856 507.153 881.202 507.153Z" fill="#FFA42F"/>
<path d="M909.73 540.984C911.077 540.984 912.169 539.892 912.169 538.545C912.169 537.199 911.077 536.107 909.73 536.107C908.384 536.107 907.292 537.199 907.292 538.545C907.292 539.892 908.384 540.984 909.73 540.984Z" fill="#FFA42F"/>
<path d="M865.78 490.695C867.127 490.695 868.218 489.604 868.218 488.257C868.218 486.91 867.127 485.819 865.78 485.819C864.433 485.819 863.342 486.91 863.342 488.257C863.342 489.604 864.433 490.695 865.78 490.695Z" fill="#FFA42F"/>
<path d="M895.405 523.306C896.752 523.306 897.843 522.215 897.843 520.868C897.843 519.521 896.752 518.43 895.405 518.43C894.058 518.43 892.967 519.521 892.967 520.868C892.967 522.215 894.058 523.306 895.405 523.306Z" fill="#FFA42F"/>
<path d="M922.592 559.637C923.939 559.637 925.03 558.546 925.03 557.199C925.03 555.853 923.939 554.761 922.592 554.761C921.245 554.761 920.154 555.853 920.154 557.199C920.154 558.546 921.245 559.637 922.592 559.637Z" fill="#FFA42F"/>
<path d="M762.519 396.394C763.865 396.394 764.957 395.302 764.957 393.955C764.957 392.609 763.865 391.517 762.519 391.517C761.172 391.517 760.081 392.609 760.081 393.955C760.081 395.302 761.172 396.394 762.519 396.394Z" fill="#FFA42F"/>
<path d="M791.109 420.41C792.455 420.41 793.547 419.319 793.547 417.972C793.547 416.625 792.455 415.534 791.109 415.534C789.762 415.534 788.67 416.625 788.67 417.972C788.67 419.319 789.762 420.41 791.109 420.41Z" fill="#FFA42F"/>
<path d="M820.307 446.256C821.654 446.256 822.745 445.165 822.745 443.818C822.745 442.472 821.654 441.38 820.307 441.38C818.96 441.38 817.869 442.472 817.869 443.818C817.869 445.165 818.96 446.256 820.307 446.256Z" fill="#FFA42F"/>
<path d="M850.724 475.21C852.071 475.21 853.162 474.119 853.162 472.772C853.162 471.425 852.071 470.334 850.724 470.334C849.377 470.334 848.286 471.425 848.286 472.772C848.286 474.119 849.377 475.21 850.724 475.21Z" fill="#FFA42F"/>
<path d="M854.808 583.41C856.155 583.41 857.247 582.318 857.247 580.971C857.247 579.625 856.155 578.533 854.808 578.533C853.462 578.533 852.37 579.625 852.37 580.971C852.37 582.318 853.462 583.41 854.808 583.41Z" fill="#3F327A"/>
<path d="M917.656 593.348C919.002 593.348 920.094 592.256 920.094 590.91C920.094 589.563 919.002 588.471 917.656 588.471C916.309 588.471 915.217 589.563 915.217 590.91C915.217 592.256 916.309 593.348 917.656 593.348Z" fill="#3F327A"/>
<g opacity="0.2">
<path opacity="0.6" d="M635.667 612.427C635.667 612.427 578.49 608.648 597.142 549.581C597.142 549.581 573.43 538.974 586.292 518.553C586.292 518.553 559.044 520.87 544.658 503.07C530.272 485.271 540.879 463.326 540.879 463.326C540.879 463.326 452.308 459.547 456.819 355.798C461.391 252.049 670.291 196.821 723.324 338.364C776.357 479.906 658.282 406.514 658.282 406.514C658.282 406.514 694.552 430.714 662.001 454.975C662.001 454.975 705.951 495.877 639.325 513.25C639.325 513.25 664.317 548.849 626.463 564.759C626.463 564.759 602.933 583.168 635.667 612.427Z" fill="#F2F0FF"/>
</g>
</svg>
