<svg width="99" height="99" viewBox="0 0 99 99" fill="none" xmlns="http://www.w3.org/2000/svg">
<g filter="url(#filter0_b_205_3149)">
<path d="M0 63.9995C0 41.5974 0 30.3964 4.35974 21.8399C8.19467 14.3134 14.3139 8.19419 21.8404 4.35925C30.3968 -0.000488281 41.5979 -0.000488281 64 -0.000488281H99V34.9995C99 57.4016 99 68.6027 94.6403 77.1591C90.8053 84.6856 84.6861 90.8048 77.1596 94.6398C68.6031 98.9995 57.4021 98.9995 35 98.9995H0V63.9995Z" fill="url(#paint0_radial_205_3149)" fill-opacity="0.3"/>
<path d="M1 63.9995C1 52.782 1.00078 44.4289 1.54165 37.809C2.08156 31.2008 3.15468 26.4076 5.25075 22.2939C8.98981 14.9556 14.956 8.98932 22.2944 5.25026C26.4081 3.15419 31.2013 2.08107 37.8095 1.54116C44.4294 1.00029 52.7824 0.999512 64 0.999512H98V34.9995C98 46.2171 97.9992 54.5701 97.4584 61.19C96.9184 67.7982 95.8453 72.5914 93.7493 76.7051C90.0102 84.0435 84.044 90.0097 76.7056 93.7488C72.5919 95.8448 67.7987 96.918 61.1905 97.4579C54.5706 97.9987 46.2176 97.9995 35 97.9995H1V63.9995Z" stroke="white" stroke-opacity="0.2" stroke-width="2"/>
</g>
<path d="M61.9251 50.5705C61.9251 51.1227 61.4774 51.5705 60.9251 51.5705H52.7993C52.247 51.5705 51.7993 52.0182 51.7993 52.5705V60.5294C51.7993 61.0817 51.3516 61.5294 50.7993 61.5294H48.1258C47.5735 61.5294 47.1258 61.0817 47.1258 60.5294V52.5705C47.1258 52.0182 46.6781 51.5705 46.1258 51.5705H38C37.4477 51.5705 37 51.1227 37 50.5705V48.1752C37 47.6229 37.4477 47.1752 38 47.1752H46.1258C46.6781 47.1752 47.1258 46.7275 47.1258 46.1752V38.1606C47.1258 37.6084 47.5735 37.1606 48.1258 37.1606H50.7993C51.3516 37.1606 51.7993 37.6084 51.7993 38.1606V46.1752C51.7993 46.7275 52.247 47.1752 52.7993 47.1752H60.9251C61.4774 47.1752 61.9251 47.6229 61.9251 48.1752V50.5705Z" fill="white"/>
<defs>
<filter id="filter0_b_205_3149" x="-40" y="-40.0005" width="179" height="179" filterUnits="userSpaceOnUse" color-interpolation-filters="sRGB">
<feFlood flood-opacity="0" result="BackgroundImageFix"/>
<feGaussianBlur in="BackgroundImage" stdDeviation="20"/>
<feComposite in2="SourceAlpha" operator="in" result="effect1_backgroundBlur_205_3149"/>
<feBlend mode="normal" in="SourceGraphic" in2="effect1_backgroundBlur_205_3149" result="shape"/>
</filter>
<radialGradient id="paint0_radial_205_3149" cx="0" cy="0" r="1" gradientUnits="userSpaceOnUse" gradientTransform="translate(92.6694 5.34198) rotate(126.776) scale(94.2746)">
<stop stop-color="white" stop-opacity="0.700689"/>
<stop offset="1" stop-color="#F8FFF8" stop-opacity="0.246825"/>
</radialGradient>
</defs>
</svg>
