<svg width="243" height="523" viewBox="0 0 243 523" fill="none" xmlns="http://www.w3.org/2000/svg">
<path d="M139.975 56.5388C139.1 50.415 137.351 45.1661 137.351 45.1661L141.725 39.917L147.849 51.29C145.224 53.0397 142.6 54.7892 139.975 56.5388Z" fill="#ED7E94"/>
<path d="M139.976 56.533C142.6 54.7833 145.224 53.0339 147.849 51.2842L153.098 61.7821C153.098 61.7821 153.098 67.0311 151.348 70.5304C149.599 74.9046 137.351 78.4041 139.976 68.7809C140.85 65.2816 140.85 60.9072 139.976 56.533Z" fill="#FF96A9"/>
<path d="M137.352 52.1594C132.978 53.9091 128.604 54.7841 126.854 54.7841C124.229 53.9093 120.73 46.9106 118.98 42.5364C125.329 40.4999 129.329 39.417 135.602 38.1623C139.977 37.2874 140.851 46.9104 137.352 52.1594Z" fill="#FF96A9"/>
<path d="M140.849 21.5396C148.723 25.0389 148.723 35.5372 147.848 42.5359C146.973 46.0352 142.599 49.5344 137.35 52.1589C140.849 46.9099 139.099 38.1617 135.6 38.1617C130.351 39.0365 125.102 40.7862 118.978 42.5359C118.103 39.9114 117.229 38.1617 117.229 38.1617C117.229 38.1617 133.851 18.0402 140.849 21.5396Z" fill="#ED7E94"/>
<path d="M138.225 31.1642C138.225 31.1642 130.352 43.4121 109.355 42.5372C88.3594 41.6624 88.3593 4.04424 112.855 0.544891C132.976 -2.95446 148.723 11.043 151.348 24.1656C151.348 24.1656 166.22 19.7914 175.843 32.914C186.341 46.9114 181.967 56.5344 181.967 56.5344C181.967 56.5344 241.456 56.5346 235.332 103.776C230.083 151.017 167.97 162.39 139.975 127.396C111.98 92.4028 160.971 78.4053 160.971 78.4053L138.225 36.4133C138.225 36.4133 142.599 31.1643 139.975 28.5398C138.225 25.9153 138.225 31.1642 138.225 31.1642Z" fill="#322666"/>
<path d="M109.357 88.0276C96.2346 118.647 89.2358 150.141 68.2397 178.136C67.3649 177.261 66.4902 176.386 66.4902 176.386C67.3651 175.511 68.2398 174.637 69.1146 172.887C75.2385 164.138 72.6139 155.39 67.3649 148.391H68.2397C68.2397 148.391 102.358 74.9052 112.856 68.7813C117.231 66.1568 123.354 64.4071 128.603 63.5322C128.603 67.0316 129.478 71.4057 130.353 74.905C127.729 77.5295 125.104 81.029 123.355 85.4032C118.106 86.278 110.232 85.403 109.357 88.0276Z" fill="#F0F0FF"/>
<path d="M67.3296 177C88.3257 149.88 95.1086 119.523 108.231 88.0286C109.106 85.4041 116.979 86.279 123.103 84.5293C120.479 89.7783 117.854 95.0273 116.105 101.151C109.981 125.647 67.9886 183.386 67.9886 183.386C64.4893 182.511 61.8647 180.761 59.2402 179.012C60.9899 178.137 63.6143 177.262 65.3639 175.512C65.3639 176.387 66.4548 176.126 67.3296 177Z" fill="#EDCAF0"/>
<path d="M31.4924 136.148L61.2368 145.772C57.7375 150.146 52.4884 152.77 47.2394 152.77C52.4884 161.519 59.487 168.517 67.3605 176.391C65.6109 178.141 63.8614 179.015 61.2368 179.89C50.7388 172.017 45.4896 157.144 45.4896 157.144C29.7425 155.395 31.4924 136.148 31.4924 136.148Z" fill="#ED7E94"/>
<path d="M47.2402 152.763C52.4893 152.763 57.7383 150.139 61.2377 145.765L68.2363 147.514C73.4853 154.513 76.1099 163.261 69.986 172.01C69.1112 173.759 67.7039 175.626 66.8291 176.5C58.9556 169.502 51.6144 161.512 47.2402 152.763Z" fill="#FF96A9"/>
<path d="M145.829 61.9996C145.829 61.9996 137.096 66.1576 130.097 74.9059C129.223 71.4066 128.348 67.9074 128.348 63.5332C135.346 61.7835 145.829 61.9996 145.829 61.9996Z" fill="#FF96A9"/>
<path d="M96.2312 495.704C86.608 513.201 79.6094 521.949 79.6094 521.949C82.2339 514.075 83.9834 504.452 85.7331 493.954C89.2324 495.704 92.7319 496.579 96.2312 495.704Z" fill="#F73E91"/>
<path d="M119.329 443C111.456 464.871 103.228 482.578 96.2296 496.575C92.7302 496.575 89.2308 496.575 85.7314 494.826C88.356 480.828 88.5794 464.997 90.3291 447.5C99.9523 448.375 110.581 446.499 119.329 443Z" fill="#FF96A9"/>
<path d="M102.981 167.641C134.476 150.145 135.35 215.757 135.35 215.757C146.723 267.373 145.848 314.614 140.599 355.731C137.1 378.477 132.726 398.598 127.477 416.97C136.225 333.86 127.477 248.126 102.981 167.641Z" fill="#DE2B7B"/>
<path d="M96.2285 220.128C95.3536 193.008 94.4787 175.511 94.4787 175.511C97.978 172.012 101.477 169.387 104.102 167.638C128.597 248.123 137.346 332.982 127.723 416.966C125.098 425.715 122.474 434.463 118.974 443.211C110.226 446.711 99.7277 448.46 90.1045 447.586C97.978 373.224 97.1033 276.118 96.2285 220.128Z" fill="#F73E91"/>
<path d="M166.221 522.822C166.221 522.822 165.204 510.997 164.329 493.5C167.828 493.5 171.205 493.25 173.829 491.5C170.33 501.123 168.846 512.324 166.221 522.822Z" fill="#F73E91"/>
<path d="M185.461 437.089C182.836 454.586 179.337 472.957 174.088 491.329C171.463 493.079 167.964 493.953 164.465 493.953C163.59 479.956 163.454 460.996 160.829 440C169.577 441.75 177.587 440.588 185.461 437.089Z" fill="#FF96A9"/>
<path d="M145.223 175.512C145.223 175.512 215.209 254.248 185.465 437.089C177.591 440.588 168.843 442.338 160.97 440.588C153.096 358.354 135.599 234.126 95.3568 175.512C94.4819 175.512 124.226 159.765 145.223 175.512Z" fill="#F73E91"/>
<path d="M131.226 73.1572C133.85 74.0321 137.349 74.9068 141.723 75.7816C139.974 79.281 137.349 82.7804 135.6 86.2798C133.85 81.9056 132.1 77.5314 131.226 73.1572Z" fill="#F6DEF8"/>
<path d="M133.329 113.5C141.203 119.624 159.217 128.143 162.716 116.77C166.216 108.896 167.965 100.148 173.214 93.1494C174.964 94.8991 175.839 97.5234 175.839 99.2731C175.839 99.2731 166.216 115.895 157.467 133.392C149.594 128.143 138.578 123.123 133.329 113.5Z" fill="#EDCAF0"/>
<path d="M90.9824 99.404C90.9824 98.5291 90.9824 97.6541 90.9824 96.7793C90.9824 83.6567 112.853 91.5302 112.853 91.5302L122.477 70.5342C122.477 70.5342 126.851 71.4092 132.1 73.1589C132.975 77.533 134.724 82.7821 136.474 86.2814C138.224 82.7821 139.973 79.2826 142.598 75.7833C154.845 79.2826 168.843 85.4065 174.967 94.1549C169.718 101.154 167.968 109.902 164.469 117.775C160.969 128.273 143.473 121.275 135.599 115.151C140.848 124.774 151.346 129.148 160.094 134.397C153.096 150.145 146.097 166.766 146.097 174.64C146.097 174.64 122.477 191.262 96.2315 174.64C96.2315 174.64 95.3565 142.271 102.355 122.15C108.479 121.275 115.478 117.775 121.602 114.276C107.604 117.775 93.6069 110.777 90.9824 99.404Z" fill="#F0F0FF"/>
<path d="M90.9824 99.4004C94.4818 109.898 110.082 116.625 122.33 114C116.206 117.5 107.604 122.146 100.606 123.021C101.481 120.396 102.355 118.647 103.23 116.897C103.23 116.897 91.8573 110.773 90.9824 99.4004Z" fill="#EDCAF0"/>
<path d="M218.709 124.772C231.832 152.767 242.329 179.012 242.329 179.012C242.329 179.012 219.584 176.388 187.215 165.89C187.215 163.265 187.215 160.641 187.215 158.016C202.087 164.14 217.834 168.514 234.456 170.264C229.207 155.392 223.958 139.645 218.709 124.772Z" fill="#EDCAF0"/>
<path d="M203.833 145.768C203.833 145.768 202.083 141.394 198.584 136.145C193.335 120.398 185.461 106.401 176.713 91.5285C174.088 94.153 172.339 96.7775 170.589 100.277L113.725 88.9041L131.221 72.2822C132.096 77.5312 133.846 82.7801 136.47 87.1543C140.845 75.7814 148.718 67.9079 157.466 60.9092C163.59 60.9092 172.339 62.6589 181.087 66.1583C190.71 69.6576 206.457 98.5274 218.705 125.647C223.954 140.52 230.751 156.128 236 171C219.378 170.125 202.083 165.015 186.336 158.891C186.336 151.892 183.712 144.894 180.212 138.77C193.335 142.269 203.833 145.768 203.833 145.768Z" fill="#F0F0FF"/>
<path d="M198.591 135.272C191.593 122.149 180.22 102.028 176.72 100.278L170.597 99.4036C172.346 96.7791 174.096 93.2798 176.72 90.6553C185.469 105.528 193.342 119.525 198.591 135.272Z" fill="#EDCAF0"/>
<path d="M102.356 139.646C104.98 139.646 106.73 143.146 109.354 145.77C110.229 146.645 112.854 146.645 113.729 145.77C118.978 141.396 120.727 130.898 130.35 134.397C149.597 141.396 167.968 151.019 187.215 158.893C187.215 161.517 187.215 164.142 187.215 166.766C168.843 160.642 147.847 152.769 126.851 141.396C126.851 141.396 129.476 144.02 126.851 146.645C124.227 149.269 122.477 148.394 122.477 148.394C122.477 148.394 121.602 153.644 116.353 155.393C111.104 157.143 100.606 149.269 99.7311 144.02L84.8588 146.645C84.8588 146.645 78.7351 148.394 79.61 144.895C87.4835 144.02 94.482 138.771 102.356 139.646Z" fill="#ED7E94"/>
<path d="M179.346 138.771H180.221C183.72 144.895 186.344 151.894 186.344 158.893C184.595 158.018 183.72 158.018 181.97 157.143C182.845 151.019 181.97 144.021 179.346 138.771Z" fill="#ED7E94"/>
<path d="M79.6094 144.891C80.4842 141.392 105.854 132.644 117.227 128.269C124.226 125.645 156.595 133.518 179.341 138.768C181.965 144.891 182.84 151.015 182.84 157.139C165.343 150.14 147.847 141.392 130.35 134.393C121.601 131.769 119.852 141.392 113.728 145.766C112.853 146.641 110.229 146.641 109.354 145.766C106.729 143.142 104.979 139.642 102.355 139.642C94.4814 138.767 87.4829 144.016 79.6094 144.891Z" fill="#FF96A9"/>
<path d="M136.597 87.2773C134.848 82.9032 131.579 77.7489 129.829 72.4999L145.346 61.0322C145.346 61.0322 149.956 61.0322 157.829 61.0322C149.081 68.9058 141.846 76.7793 136.597 87.2773Z" fill="#FF96A9"/>
<path d="M121.602 165.891C122.477 165.891 123.352 165.017 123.352 164.142C123.352 163.267 123.352 161.517 121.602 161.517L2.6244 123.024C1.74957 123.024 0 123.025 0 124.774C0 125.649 -0.000160214 127.399 1.74951 127.399L121.602 165.891C120.727 165.891 121.602 165.891 121.602 165.891Z" fill="#DB4A87"/>
<path d="M0.874481 123.899C0.874481 123.024 0.874268 123.024 1.7491 123.024C1.7491 123.899 2.62405 124.774 3.49889 125.649L121.602 163.267H122.477C123.352 163.267 123.351 163.267 124.226 162.392C124.226 162.392 124.226 162.392 124.226 163.267C124.226 164.142 123.352 165.017 122.477 165.017H121.602L2.624 126.524C0.874321 126.524 -0.000355959 124.774 0.874481 123.899Z" fill="#CF407C"/>
</svg>
