<svg width="278" height="530" viewBox="0 0 278 530" fill="none" xmlns="http://www.w3.org/2000/svg">
<path d="M194.585 235.004C194.585 235.004 194.139 258.905 191.987 265.14C191.987 265.14 190.428 258.979 185.9 256.678L194.585 235.004Z" fill="#7860DC"/>
<path d="M149.53 74.8238C148.417 71.0383 148.046 68.4404 148.046 68.4404L141.143 71.261C141.143 71.261 141.143 72.4486 141.365 74.6754C144.112 75.0465 146.784 75.0465 149.53 74.8238Z" fill="#ED7E94"/>
<path d="M149.53 74.8242C146.784 75.0469 144.112 75.0469 141.365 74.6016C141.736 77.4964 142.479 82.1726 144.334 88.2591C147.526 98.9476 164.078 100.729 156.953 90.5601C153.093 85.1416 150.792 79.2036 149.53 74.8242Z" fill="#FF96A9"/>
<path d="M157.917 55.7478L160.96 53.7437L157.026 47.6572C151.905 52.4819 143.592 56.0447 146.709 64.2096C147.674 66.5106 149.53 68.4404 151.905 69.7765C156.061 68.5147 158.882 67.0301 158.882 67.0301L157.917 55.7478Z" fill="#FF96A9"/>
<path d="M146.709 64.1354C143.592 55.9705 151.831 52.4077 157.027 47.583L154.874 44.3171C142.924 40.9769 130.157 50.1809 127.93 55.0056C125.629 59.8303 141.142 71.2611 141.142 71.2611C145.076 71.3353 148.862 70.593 151.979 69.7023C149.53 68.292 147.674 66.4364 146.709 64.1354Z" fill="#ED7E94"/>
<path d="M142.107 55.2287C142.107 55.2287 157.62 49.6618 175.731 22.6436C175.731 22.6436 142.404 33.3321 117.464 57.7524C117.464 57.7524 125.851 68.2182 141.142 71.2615L139.88 59.8307C139.88 59.8307 132.977 59.608 135.278 53.2246C137.579 46.8412 142.107 55.2287 142.107 55.2287Z" fill="#322666"/>
<path d="M29.1351 83.212C29.2094 82.9893 29.3578 82.7666 29.432 82.5439C24.5331 83.9542 19.9311 92.1191 17.927 113.199C17.927 113.199 17.7786 115.055 17.8528 118.247C18.8177 119.286 20.0054 120.028 21.4157 120.622C20.4507 108.078 22.6033 95.3108 29.1351 83.212Z" fill="#ED7E94"/>
<path d="M32.7724 123.219C32.4755 120.547 32.4012 117.8 32.4755 114.98C32.4755 114.98 37.8197 115.202 38.0424 111.64C38.0424 111.64 49.9928 109.858 45.3908 97.2399C42.7928 90.1142 35.8156 80.6133 29.4322 82.4689C29.358 82.6916 29.2095 82.9143 29.1353 83.137C22.6034 95.2358 20.4509 108.003 21.4158 120.621C23.123 121.363 25.0529 121.734 26.8343 122.031C28.6899 122.625 30.694 123.07 32.7724 123.219Z" fill="#FF96A9"/>
<path d="M17.9277 118.32C17.9277 119.879 18.0762 121.809 18.2246 124.036C19.4865 124.778 20.7483 125.446 22.0844 126.04C21.7875 124.258 21.639 122.477 21.4906 120.77C20.0803 120.102 18.8184 119.359 17.9277 118.32Z" fill="#EAC7ED"/>
<path d="M32.7725 123.219C30.7684 123.071 28.7644 122.625 26.9087 122.106C25.1273 121.809 23.1974 121.363 21.4902 120.695C21.6387 122.477 21.8614 124.258 22.084 125.965C25.6469 127.45 29.5808 128.192 33.5148 128.118C33.1437 126.559 32.921 124.926 32.7725 123.219Z" fill="#F6DEF8"/>
<path d="M223.31 10.3223C222.271 17.0026 225.389 25.3159 236.3 30.5117C241.125 32.8127 242.683 28.5076 242.683 28.5076C242.683 28.5076 244.242 31.5509 247.805 30.5117C251.368 29.4725 251.368 29.4726 251.368 29.4726C251.368 29.4726 252.258 31.9962 253.372 36.1529C254.782 35.0395 256.192 33.7777 257.38 32.4416C256.489 29.1757 255.524 25.9839 254.411 22.8664C242.98 28.2107 228.803 21.3077 223.31 10.3223Z" fill="#ED7E94"/>
<path d="M236.523 0.746856C230.362 -1.9995 224.424 3.19628 223.311 10.322C228.803 21.3074 242.98 28.2104 254.337 22.8661C255.45 25.9836 256.415 29.2496 257.306 32.4413C259.236 30.2887 260.869 27.9877 261.908 25.3898C255.896 14.6271 247.731 5.71999 236.523 0.746856Z" fill="#FF96A9"/>
<path d="M253.297 36.2269C253.594 37.4145 253.965 38.6764 254.336 40.0867C255.746 39.196 257.157 38.231 258.493 37.1918C258.122 35.6331 257.75 34.0744 257.305 32.5156C256.043 33.8517 254.707 35.0393 253.297 36.2269Z" fill="#EAC7ED"/>
<path d="M264.728 30.9566C263.838 29.0267 262.873 27.1711 261.908 25.3896C260.794 27.9876 259.236 30.3628 257.306 32.4411C257.751 33.9998 258.122 35.5586 258.493 37.1173C260.868 35.3359 263.021 33.3318 264.728 30.9566Z" fill="#F6DEF8"/>
<path d="M55.8571 189.281C39.6759 172.58 25.573 149.718 22.0844 125.966C20.7483 125.446 19.4122 124.778 18.2246 123.962C19.4864 141.331 25.8699 175.92 55.1148 197.668C55.1148 197.668 98.6112 183.936 118.726 150.089L127.04 145.339C124.961 140.885 122.586 136.655 120.062 132.795C109.3 160.333 79.5351 173.248 55.8571 189.281Z" fill="#7860DC"/>
<path d="M258.865 80.0197C262.502 65.991 261.685 51.2943 258.419 37.1914C257.083 38.2306 255.673 39.1955 254.263 40.0862C256.861 50.1809 259.978 66.0653 258.865 80.0197Z" fill="#7860DC"/>
<path d="M258.493 37.192C261.685 51.2949 262.576 65.9916 258.939 80.0203C258.419 86.4779 257.009 92.4902 254.188 97.3149C254.188 97.3149 225.908 98.2056 181.447 76.0863L150.049 84.9934C133.868 88.7789 114.792 100.284 114.792 100.284C114.792 100.284 94.6768 151.203 61.5721 169.24C61.5721 169.24 38.7848 154.84 33.589 128.193C29.7292 128.267 25.7953 127.525 22.1582 126.04C25.6468 149.793 39.7497 172.728 55.9309 189.355C79.609 173.322 109.374 160.333 120.062 132.869C122.66 136.729 124.961 140.96 127.039 145.413L190.577 108.968C190.577 108.968 200.449 114.387 216.11 118.692C234.964 119.508 253.817 118.84 272.67 116.836C275.194 111.789 276.753 106.667 277.792 101.397C277.569 82.4697 275.268 53.6701 264.728 31.0312C263.021 33.3323 260.868 35.3363 258.493 37.192Z" fill="#8B77E8"/>
<path d="M216.11 118.618C231.995 122.997 253.891 126.189 277.272 121.364C277.272 121.364 278.015 113.348 277.866 101.323C276.827 106.593 275.194 111.789 272.745 116.762C253.817 118.766 234.964 119.434 216.11 118.618Z" fill="#7860DC"/>
<path d="M161.184 417.599C168.68 458.646 189.167 491.75 209.208 526.265C162.445 303.217 193.62 240.719 193.62 240.719C191.987 237.081 189.464 234.335 186.42 232.331C166.676 262.318 160.812 299.283 158.883 335.208C157.398 362.597 156.656 389.319 161.184 417.599Z" fill="#8B77E8"/>
<path d="M161.183 417.599C156.581 389.319 157.398 362.597 158.882 335.134C160.812 299.283 166.676 262.318 186.42 232.257C170.164 221.494 138.47 232.034 138.47 232.034C104.846 417.821 209.207 526.34 209.207 526.34C209.207 526.265 209.207 526.191 209.133 526.117C189.166 491.75 168.754 458.646 161.183 417.599Z" fill="#7860DC"/>
<path d="M158.14 275.605C161.48 259.349 160.738 243.465 160.144 227.432C151.756 226.022 143.74 226.764 138.544 232.109C138.544 232.109 124.367 243.985 107.146 269.073C123.105 278.054 141.142 284.067 158.14 275.605Z" fill="#7860DC"/>
<path d="M160.144 227.358C160.812 243.391 161.554 259.276 158.14 275.531C141.068 284.067 123.105 277.98 107.147 268.999C77.2337 312.644 38.0424 396.222 48.2114 526.34C48.2114 526.34 150.94 267.589 193.546 240.645C193.62 240.645 176.325 230.105 160.144 227.358Z" fill="#8B77E8"/>
<path d="M194.585 233.222C195.995 219.788 198.073 190.171 192.506 162.782C185.084 125.743 160.96 81.876 160.96 81.876C153.538 83.5089 146.635 85.3646 141.142 87.6656L135.353 92.3418C135.353 92.3418 152.573 168.943 147.897 195.664C145.447 209.544 143.072 218.748 141.291 224.464C157.026 236.785 176.251 237.824 194.585 233.222Z" fill="#F6DEF8"/>
<path d="M141.29 224.464C139.657 229.808 138.618 232.035 138.618 232.035C138.618 232.035 168.383 251.853 193.694 240.645C193.694 240.645 194.139 237.899 194.584 233.223C176.251 237.825 157.026 236.785 141.29 224.464Z" fill="#3F327A"/>
<path d="M154.576 95.7559C163.483 141.85 158.659 178.221 158.659 178.221C170.164 185.346 177.215 198.262 178.106 199.969C179.887 164.118 171.722 127.376 154.576 95.7559Z" fill="#F73E91"/>
<path d="M190.651 174.435C178.107 124.036 154.354 94.7168 154.354 94.7168C154.429 95.0879 154.503 95.4591 154.577 95.8302C171.798 127.45 179.888 164.192 178.107 200.043C178.181 200.192 178.181 200.266 178.181 200.266L190.651 174.435Z" fill="#FC5BA3"/>
<path d="M119.988 132.795C118.429 136.877 116.425 140.589 114.124 144.077C115.312 145.636 116.87 147.64 118.726 150.164C126.074 159.813 133.72 179.78 135.204 198.262C139.212 176.291 131.938 150.758 119.988 132.795Z" fill="#7860DC"/>
<path d="M141.142 87.665L134.685 90.1145L127.114 93.6774L109.374 137.842C109.374 137.842 109.374 137.842 114.198 144.151C116.499 140.662 118.503 136.951 120.062 132.869C132.013 150.831 139.287 176.365 135.278 198.261C135.724 203.383 135.65 208.356 134.982 213.032C131.938 234.409 92.5986 245.098 92.5986 245.098C120.062 282.137 149.975 276.05 149.975 276.05C180.556 183.194 141.142 87.665 141.142 87.665Z" fill="#8B77E8"/>
<path d="M157.249 82.915C157.249 82.915 203.714 146.601 191.987 265.139C191.987 265.139 216.927 168.869 173.133 82.915H157.249Z" fill="#8B77E8"/>
<path d="M165.488 80.54L184.638 94.1234L179.814 105.331L197.405 111.195C197.405 111.195 200.597 162.337 192.506 195.664L190.28 177.034L187.904 163.45L184.935 150.015L181.15 136.209L176.696 122.774L172.465 111.938L169.348 104.812L165.785 97.4635L161.777 90.0409L157.101 82.841L165.488 80.54Z" fill="#7860DC"/>
<path d="M53.3332 513.87L0.113281 529.309H61.2011L53.3332 513.87Z" fill="#3F327A"/>
<path d="M199.112 514.093L187.904 529.309H254.114L199.112 514.093Z" fill="#3F327A"/>
<path d="M131.864 91.3763V107.632L141.068 111.417L127.633 125.966C127.633 125.966 155.467 168.942 161.554 198.187C161.257 136.431 141.142 87.5908 141.142 87.5908L134.684 90.0403L131.864 91.3763Z" fill="#7860DC"/>
<path d="M156.655 208.43C157.926 208.43 158.956 207.4 158.956 206.129C158.956 204.858 157.926 203.828 156.655 203.828C155.385 203.828 154.354 204.858 154.354 206.129C154.354 207.4 155.385 208.43 156.655 208.43Z" fill="#7860DC"/>
<path d="M154.355 224.686C155.626 224.686 156.656 223.656 156.656 222.385C156.656 221.114 155.626 220.084 154.355 220.084C153.084 220.084 152.054 221.114 152.054 222.385C152.054 223.656 153.084 224.686 154.355 224.686Z" fill="#7860DC"/>
<path d="M139.806 238.047C139.509 238.047 139.212 237.973 138.989 237.75L129.043 228.324C128.598 227.878 128.598 227.136 128.969 226.691C129.414 226.245 130.157 226.245 130.602 226.616L140.548 236.043C140.994 236.488 140.994 237.231 140.622 237.676C140.474 237.899 140.103 238.047 139.806 238.047Z" fill="#7860DC"/>
<path d="M190.279 114.906C190.205 114.906 190.205 114.906 190.131 114.906L184.119 112.976C183.896 112.902 183.822 112.679 183.896 112.531C183.97 112.308 184.193 112.234 184.341 112.308L190.354 114.238C190.576 114.312 190.651 114.535 190.576 114.683C190.576 114.758 190.428 114.906 190.279 114.906Z" fill="#8B77E8"/>
<path d="M151.089 88.6299L149.976 94.1968L155.32 96.9432L156.433 92.267L151.089 88.6299Z" fill="#F73E91"/>
</svg>
