<svg width="246" height="441" viewBox="0 0 246 441" fill="none" xmlns="http://www.w3.org/2000/svg">
<path d="M200.384 282.428L245.892 347.639L208.36 389.394L156.285 348.109L200.384 282.428Z" fill="#FE9736"/>
<path d="M46.0345 282.428L0.996094 347.639L38.059 389.394L90.1343 348.109L46.0345 282.428Z" fill="#FFA42F"/>
<path d="M144.556 16.8894C132.358 5.16066 123.444 0 123.444 0C123.444 0 115.469 5.16066 104.209 16.8894C116.876 21.5809 131.42 21.1117 144.556 16.8894Z" fill="#FF5B41"/>
<path d="M144.556 16.8906C131.42 21.113 116.877 21.5821 103.74 16.8906C78.8755 42.6938 38.0596 99.4608 38.0596 198.451C38.0596 268.824 53.5413 346.233 77.4679 381.419H168.952C192.409 346.233 208.36 268.824 208.36 198.451C208.36 95.7077 169.89 41.2864 144.556 16.8906Z" fill="#FFCC46"/>
<path d="M145.966 18.7646C169.893 47.8519 197.103 99.9275 197.103 186.72C197.103 257.092 181.621 334.502 157.695 369.688H69.9639C72.3096 373.91 74.6554 378.132 77.0011 381.886H168.485C191.942 346.7 207.894 269.29 207.894 198.918C208.363 98.0507 171.3 43.6295 145.966 18.7646Z" fill="#FFA42F"/>
<path d="M167.544 182.031C167.544 206.427 147.84 226.131 123.444 226.131C119.691 226.131 116.407 225.662 113.123 224.724C109.839 223.786 106.555 222.847 103.27 220.971C101.863 220.502 100.456 219.563 99.5174 218.625C92.011 213.934 85.912 206.427 82.1588 197.982C79.8131 192.822 78.875 187.192 78.875 181.093C78.875 156.697 98.5791 136.993 122.975 136.993C126.728 136.993 130.012 137.462 133.296 138.401C142.21 140.746 150.186 145.438 156.285 152.475C157.223 153.413 158.161 154.821 159.099 155.759C160.976 158.574 162.852 161.389 164.26 164.673C166.606 170.303 167.544 175.933 167.544 182.031Z" fill="#3F327A"/>
<path d="M156.753 152.942L99.5168 219.561C92.0104 214.869 85.9114 207.363 82.1582 198.918L133.765 138.867C142.678 141.213 150.654 145.904 156.753 152.942Z" fill="#503DAD"/>
<path d="M164.26 165.14L112.654 225.191C109.37 224.253 106.086 223.315 102.802 221.438L159.1 156.227C161.445 159.041 162.853 161.856 164.26 165.14Z" fill="#503DAD"/>
<path d="M86.85 60.9883C86.85 60.9883 40.8735 137.46 54.948 235.981C54.948 235.981 73.7139 96.1744 112.653 60.9883H86.85Z" fill="#FFE194"/>
<path d="M105.148 385.641H134.705L120.161 441L105.148 385.641Z" fill="#FF5B41"/>
</svg>
