<svg width="260" height="496" viewBox="0 0 260 496" fill="none" xmlns="http://www.w3.org/2000/svg">
<path d="M93.861 47.7988H78.4487C78.4487 47.7988 80.3479 51.5971 81.1514 55.6875C85.8262 54.2997 90.3549 52.6197 94.6645 50.5745L93.861 47.7988Z" fill="#ED7E94"/>
<path d="M89.8436 44.2927C92.5462 41.0788 93.0575 35.6735 89.3323 34.0666C80.9322 30.7796 70.8522 29.9761 63.4018 24.4248L61.2104 38.3761H64.4244C64.4244 38.3761 64.0592 50.8666 66.9079 53.7884C68.2957 55.1762 74.3583 53.8614 80.494 52.1814C84.1462 50.2092 87.3601 47.7257 89.8436 44.2927Z" fill="#FF96A9"/>
<path d="M107.301 24.4975C107.301 24.4975 79.033 9.81572 64.3512 18.0697L63.3286 24.4975C70.7791 29.9758 80.786 30.8523 89.2591 34.1393C92.9843 35.7462 92.473 41.1514 89.7704 44.3654C87.2869 47.7984 84.073 50.3549 80.4208 52.2541C87.1409 50.3549 93.8609 47.8714 93.8609 47.8714L107.301 24.4975Z" fill="#ED7E94"/>
<path d="M91.2317 29.3188C91.2317 29.3188 62.5255 29.0266 41.562 7.33269C41.562 7.33269 91.2318 4.41095 117.235 22.0875C117.235 22.0875 110.515 40.0562 93.8613 47.8719L94.957 33.9206C94.957 33.9206 103.795 30.4145 98.6822 25.0823C93.6422 19.6771 91.2317 29.3188 91.2317 29.3188Z" fill="#322666"/>
<path d="M98.3898 225.441C87.3602 204.039 75.381 193.521 75.381 193.521C75.381 193.521 68.661 216.383 67.7114 259.406C75.1619 262.985 82.9775 265.468 91.5967 265.468C94.8836 252.321 97.075 238.954 98.3898 225.441Z" fill="#322666"/>
<path d="M110.515 257.36C107.228 244.87 102.845 234.206 98.3896 225.44C97.0748 238.954 94.8835 252.32 91.5965 265.395C82.9774 265.395 75.1618 262.912 67.7113 259.333C66.6157 309.221 73.3356 386.209 107.301 485.914C107.301 485.987 121.764 300.31 110.515 257.36Z" fill="#343482"/>
<path d="M127.534 256.338C136.884 255.461 146.014 251.59 154.341 246.258C145.065 212.95 135.788 189.284 135.788 189.284C135.788 189.284 128.995 187.75 120.522 187.02C126 209.736 130.748 232.599 127.534 256.338Z" fill="#322666"/>
<path d="M127.534 256.339C130.821 232.672 126 209.737 120.449 186.947C113.802 186.363 106.059 186.217 99.7774 187.678C100.07 204.405 99.1931 221.059 96.9287 237.493C109.273 276.864 130.018 329.821 130.018 329.821C85.0957 375.984 53.1025 444.061 53.1025 444.061C97.0748 419.883 172.748 353.414 172.748 353.414C171.725 317.038 163.033 277.448 154.268 246.186C146.014 251.591 136.884 255.462 127.534 256.339Z" fill="#343482"/>
<path d="M99.8507 187.677C93.4959 189.138 88.7481 192.279 88.0907 198.268C87.4333 204.331 91.3046 219.524 96.929 237.493C99.2664 221.058 100.07 204.404 99.8507 187.677Z" fill="#322666"/>
<path d="M254.192 55.103C255.799 52.9848 256.31 50.2822 255.799 47.5795C254.703 43.27 249.371 40.056 250.466 35.7465C253.753 25.9586 256.967 15.7325 257.771 5.43335C252.731 3.97248 243.966 31.583 243.966 31.583L239.656 29.8299C239.656 29.8299 239.291 -2.01709 232.863 0.101172C226.435 2.21944 231.767 30.4873 231.767 30.4873L227.092 33.336C227.092 33.336 225.193 29.8299 221.76 30.1221C218.327 30.4143 213.506 41.2247 213.506 45.5343C213.506 49.8438 216.72 59.4856 227.092 64.5256L225.193 68.47C230.452 72.1952 236.953 74.6787 243.6 75.4091C244.258 71.3917 244.769 67.2282 244.988 63.0648C245.572 60.4352 251.489 58.8282 254.192 55.103Z" fill="#FF96A9"/>
<path d="M252.877 34.9432C252.877 34.9432 262.884 7.62488 257.917 5.50662C257.844 5.50662 257.771 5.43359 257.771 5.43359C256.968 15.7327 253.681 25.8858 250.467 35.7467C249.371 40.0563 254.776 43.2702 255.799 47.5798C256.31 50.2824 255.799 52.9119 254.192 55.1033C251.49 58.8285 245.573 60.4354 245.062 63.1381C244.843 67.3015 244.404 71.392 243.674 75.4824C245.208 75.6285 246.742 75.7746 248.349 75.7016C248.714 73.145 249.079 70.5155 249.371 67.7398C249.298 67.7398 270.773 52.6198 252.877 34.9432Z" fill="#ED7E94"/>
<path d="M0.0730258 182.053C0.0730258 182.272 0 182.418 0 182.638C0 182.638 31.92 188.335 61.2835 183.879C60.9183 182.418 60.6992 180.885 60.4801 179.351C40.6853 183.514 20.16 184.61 0.0730258 182.053Z" fill="#322666"/>
<path d="M141.485 103.385C137.76 100.171 133.451 96.957 129.141 93.7431C128.922 96.2266 128.411 98.564 128.045 100.901C131.625 101.413 133.816 101.778 133.816 101.778C133.816 101.778 171.36 145.75 212.484 154.735C212.484 154.735 237.246 136.839 247.034 83.7361C245.427 83.6631 243.747 83.517 242.14 83.2979C236.954 105.357 225.924 125.663 213.945 144.655C187.649 135.597 163.472 122.157 141.485 103.385Z" fill="#322666"/>
<path d="M202.477 116.751C201.746 114.633 146.672 84.5393 132.72 67.0088C132.72 67.0088 103.211 58.6818 88.0906 60.1427C88.0906 60.1427 59.8957 65.5479 41.5617 78.7688C41.5617 78.7688 5.62436 145.77 0 182C20.087 184.629 40.5 184 60.4801 179.204C59.6766 172.557 60.3339 165.764 62.7444 159.774C53.1757 160.797 40.6122 161.6 35.353 159.263C35.353 159.263 43.4609 126.028 57.6313 108.498C69.1722 94.2541 112.268 98.7097 127.972 100.828C128.338 98.4906 128.849 96.1532 129.068 93.6697C133.378 96.8836 137.687 100.098 141.412 103.311C163.399 122.084 187.576 135.524 213.872 144.654C225.851 125.663 236.88 105.357 242.067 83.2975C234.689 82.3479 227.677 80.0105 221.906 75.6279L202.477 116.751Z" fill="#343482"/>
<path d="M134.546 183.441C129.506 159.336 110.004 67.2284 104.379 61.0927L100.508 60.5083L96.7097 60.1431L93.2767 59.9971H90.355L88.0906 60.1431L84.9497 60.8005L81.7358 61.604L78.1567 62.5536L73.9932 63.7953C73.9932 63.7953 84.3654 156.342 77.1341 187.823C95.9793 193.229 117.6 193.229 134.546 183.441Z" fill="#F2F0FF"/>
<path d="M77.1339 187.896C76.6226 190.087 76.0383 191.913 75.3809 193.52C75.3809 193.52 111.903 212.585 135.715 189.211C135.715 189.211 135.277 187.093 134.546 183.44C117.6 193.228 95.9792 193.228 77.1339 187.896Z" fill="#322666"/>
<path d="M96.4178 89.4338C96.0526 87.3155 95.4682 85.1973 94.8839 83.079C94.0804 81.399 93.5691 80.5225 93.5691 80.5225C98.9013 103.604 85.3882 164.596 85.3882 164.596C90.4282 176.21 114.898 194.836 114.898 194.836C115.044 194.617 115.263 194.324 115.482 193.959C114.679 177.744 112.414 161.82 109.347 145.312C105.548 125.883 100.727 108.717 96.4178 89.4338Z" fill="#FC5BA3"/>
<path d="M94.8105 83.0791C95.4679 85.1974 95.9792 87.3156 96.3444 89.4339C100.654 108.717 105.475 125.956 109.2 145.239C112.268 161.747 114.532 177.671 115.336 193.886C118.915 187.678 127.972 160.432 127.972 160.432C122.275 138.227 100.435 94.1087 94.8105 83.0791Z" fill="#F73E91"/>
<path d="M75.4543 63.4297C75.4543 63.4297 109.493 171.899 84.2195 257.361C84.2195 257.361 61.8682 255.608 49.3047 236.981C49.3047 236.981 71.729 197.319 69.6838 178.327C67.6386 159.263 49.3047 74.021 49.3047 74.021L52.7377 72.1949L55.8055 70.7341L59.0925 69.2732L62.5986 67.8123L66.3238 66.4245L69.6838 65.2558L75.4543 63.4297Z" fill="#343482"/>
<path d="M221.907 75.628C227.677 80.0106 234.762 82.4211 242.067 83.2976C242.651 80.668 243.236 78.1115 243.674 75.4089C237.027 74.6784 230.453 72.195 225.267 68.4697L221.907 75.628Z" fill="#F2F0FF"/>
<path d="M247.033 83.7364C247.545 81.1799 247.983 78.4772 248.348 75.7016C246.814 75.7016 245.28 75.6285 243.673 75.4824C243.235 78.112 242.724 80.7416 242.066 83.3712C243.746 83.5173 245.353 83.6633 247.033 83.7364Z" fill="#DBD7F2"/>
<path d="M81.2246 55.7605C81.5898 57.5136 81.6628 60.2162 81.3707 61.8232L91.3777 72.9988L97.6594 60.2892L94.7377 50.6475C90.4281 52.6927 85.8994 54.3727 81.2246 55.7605Z" fill="#FF96A9"/>
<path d="M101.677 60.7275C101.677 60.7275 133.67 168.832 132.793 243.848C132.793 245.09 134.108 245.82 135.131 245.163C140.974 241.364 155.437 231.211 157.409 223.03C157.409 223.03 131.552 140.272 133.451 100.025C134.546 77.1623 132.72 67.0823 132.72 67.0823L126.804 65.5484L119.719 63.7953L113.802 62.5536L107.447 61.531C107.447 61.531 103.43 60.8006 101.677 60.7275Z" fill="#343482"/>
<path d="M107.885 478.391L119.645 495.118H49.3774L107.885 478.391Z" fill="#322666"/>
<path d="M133.524 90.2371L112.852 87.3154L121.325 80.3032L109.2 61.8232L107.447 61.531C107.447 61.531 103.43 60.8006 101.604 60.7275C101.604 60.7275 120.23 123.472 128.63 186.582L133.524 90.2371Z" fill="#322666"/>
<path d="M58.362 433.615H33.8193L65.4473 495.118L58.362 433.615Z" fill="#322666"/>
<path d="M116.651 167.079C112.341 167.079 108.908 165.91 106.278 163.646C101.238 159.19 101.457 152.178 101.457 151.886C101.457 151.156 102.115 150.571 102.772 150.571H117.454C118.184 150.571 118.769 151.156 118.769 151.886C118.769 152.617 118.184 153.201 117.454 153.201H104.233C104.452 155.173 105.183 158.971 108.104 161.528C111.099 164.084 115.628 164.888 121.544 163.792C122.275 163.646 123.005 164.157 123.078 164.888C123.225 165.618 122.713 166.349 121.983 166.422C120.157 166.933 118.331 167.079 116.651 167.079Z" fill="#FE9736"/>
<path d="M112.853 148.088H157.555C157.555 148.088 155.802 175.625 135.204 175.991C114.606 176.356 112.853 148.088 112.853 148.088Z" fill="#FFCC46"/>
<path d="M137.906 171.024C122.859 171.316 117.893 156.196 116.286 148.161H112.853C112.853 148.161 114.606 176.429 135.204 176.064C145.576 175.918 151.127 168.832 154.195 161.82C150.835 166.787 145.722 170.878 137.906 171.024Z" fill="#FE9736"/>
<path d="M65.666 43.4158L75.8921 42.6123C75.8921 42.6123 73.2626 48.748 69.5374 49.0402C65.8121 49.3324 65.666 43.4158 65.666 43.4158Z" fill="#F2F0FF"/>
<path d="M61.2837 183.806C64.5706 183.295 67.7846 182.71 70.9985 181.907C70.5602 180.3 70.268 178.693 70.0489 177.086C66.908 177.889 63.7671 178.693 60.5532 179.35C60.6993 180.811 60.9915 182.345 61.2837 183.806Z" fill="#DBD7F2"/>
<path d="M72.3862 158.679C70.1949 158.971 66.7619 159.482 62.8175 159.92C60.4071 165.983 59.7496 172.776 60.5531 179.35C63.767 178.693 66.9079 177.889 70.0488 177.086C69.2453 170.877 69.9758 164.449 72.3862 158.679Z" fill="#F2F0FF"/>
<path d="M69.7565 65.2558L67.273 66.1323L65.666 86.5115L76.5495 90.748L57.7773 102.873C57.7773 102.873 83.1965 161.089 93.4957 190.964C94.5914 124.421 75.4539 63.4297 75.4539 63.4297L69.7565 65.2558Z" fill="#322666"/>
<path d="M93.2034 179.058C100.216 180.154 106.643 175.844 109.273 169.416C111.391 164.23 111.83 158.095 110.223 152.689C107.301 150.279 103.137 149.183 97.6591 150.425C76.1842 155.465 74.7964 158.314 74.7964 158.314C74.7964 158.314 73.9199 158.46 72.386 158.679C70.0486 164.522 69.2451 170.877 70.0485 177.086C75.5268 175.625 80.9321 173.945 86.2643 172.046C87.2869 175.844 89.9895 177.962 93.2034 179.058Z" fill="#FF96A9"/>
<path d="M110.223 152.616C111.903 158.021 111.391 164.157 109.273 169.343C106.57 175.771 100.143 180.081 93.2035 178.985C89.9896 177.889 87.287 175.771 86.1913 171.973C80.8591 173.872 75.4539 175.552 69.9756 177.013C70.1947 178.62 70.4869 180.3 70.9252 181.834C74.8695 180.884 78.5948 179.715 82.247 178.255C82.247 178.255 89.7704 190.088 105.11 183.295C116.65 178.255 118.769 159.701 110.223 152.616Z" fill="#ED7E94"/>
<path d="M239.145 43.7812C239.145 43.7812 232.425 49.9169 226.289 47.7987C226.289 47.7987 236.223 52.0352 236.734 60.6543C236.734 60.6543 239.364 50.2091 232.79 48.9673C232.79 49.0404 236.442 47.5795 239.145 43.7812Z" fill="#ED7E94"/>
<path d="M251.343 42.0284C251.343 42.0284 250.321 34.2858 245.208 32.3136L243.966 31.6562L239.656 29.9032C239.656 29.9032 239.291 -1.94385 232.863 0.174414C232.571 0.247458 232.352 0.393545 232.133 0.539632L236.954 30.7797L229.941 35.7467L239.072 32.3136C239.072 32.3136 239.437 32.2406 244.769 34.7971C250.248 37.4267 251.343 42.0284 251.343 42.0284Z" fill="#ED7E94"/>
<path d="M65.4471 181.907C66.1733 181.907 66.7619 181.318 66.7619 180.592C66.7619 179.866 66.1733 179.277 65.4471 179.277C64.721 179.277 64.1323 179.866 64.1323 180.592C64.1323 181.318 64.721 181.907 65.4471 181.907Z" fill="#F2F0FF"/>
<path d="M55.4399 183.879C56.5291 183.879 57.4121 182.996 57.4121 181.907C57.4121 180.818 56.5291 179.935 55.4399 179.935C54.3507 179.935 53.4678 180.818 53.4678 181.907C53.4678 182.996 54.3507 183.879 55.4399 183.879Z" fill="#343482"/>
<path d="M49.3775 184.391C50.4667 184.391 51.3496 183.508 51.3496 182.418C51.3496 181.329 50.4667 180.446 49.3775 180.446C48.2883 180.446 47.4053 181.329 47.4053 182.418C47.4053 183.508 48.2883 184.391 49.3775 184.391Z" fill="#343482"/>
<path d="M43.7529 184.391C44.8421 184.391 45.7251 183.508 45.7251 182.418C45.7251 181.329 44.8421 180.446 43.7529 180.446C42.6637 180.446 41.7808 181.329 41.7808 182.418C41.7808 183.508 42.6637 184.391 43.7529 184.391Z" fill="#343482"/>
<path d="M245.353 81.4717C245.959 81.4717 246.449 80.7522 246.449 79.8647C246.449 78.9772 245.959 78.2578 245.353 78.2578C244.748 78.2578 244.258 78.9772 244.258 79.8647C244.258 80.7522 244.748 81.4717 245.353 81.4717Z" fill="#F2F0FF"/>
<path d="M243.162 91.5514C244.292 91.5514 245.208 90.6357 245.208 89.5062C245.208 88.3766 244.292 87.4609 243.162 87.4609C242.033 87.4609 241.117 88.3766 241.117 89.5062C241.117 90.6357 242.033 91.5514 243.162 91.5514Z" fill="#343482"/>
<path d="M241.628 97.5416C242.758 97.5416 243.673 96.6259 243.673 95.4964C243.673 94.3668 242.758 93.4512 241.628 93.4512C240.499 93.4512 239.583 94.3668 239.583 95.4964C239.583 96.6259 240.499 97.5416 241.628 97.5416Z" fill="#343482"/>
<path d="M240.021 102.654C241.151 102.654 242.066 101.738 242.066 100.609C242.066 99.4791 241.151 98.5635 240.021 98.5635C238.892 98.5635 237.976 99.4791 237.976 100.609C237.976 101.738 238.892 102.654 240.021 102.654Z" fill="#343482"/>
<path d="M126.804 93.3779H126.731L120.449 92.4283C120.157 92.3553 119.938 92.1362 120.011 91.844C120.084 91.5518 120.303 91.3327 120.595 91.4058L126.877 92.3553C127.169 92.4284 127.388 92.6475 127.315 92.9397C127.315 93.1588 127.096 93.3779 126.804 93.3779Z" fill="#343482"/>
<path d="M81.2246 211.489C81.0054 211.489 80.7133 211.416 80.5672 211.27L66.9811 203.016C66.3237 202.651 66.1776 201.774 66.5428 201.19C66.908 200.606 67.7846 200.387 68.3689 200.752L81.955 209.006C82.6124 209.371 82.7585 210.247 82.3933 210.832C82.1011 211.27 81.6628 211.489 81.2246 211.489Z" fill="#322666"/>
<path d="M138.783 201.629C138.637 201.629 138.418 201.556 138.271 201.482C137.76 201.19 137.614 200.533 137.906 200.022L144.626 188.408C144.918 187.896 145.576 187.75 146.087 188.042C146.598 188.335 146.745 188.992 146.452 189.503L139.732 201.117C139.513 201.482 139.148 201.629 138.783 201.629Z" fill="#322666"/>
<path d="M91.3775 73.5098L89.4053 81.1793L95.3219 87.4611L97.148 79.4263L91.3775 73.5098Z" fill="#F73E91"/>
<path d="M111.245 260.355H105.621C112.049 283.876 105.621 472.912 107.155 485.33C107.228 485.549 107.301 485.768 107.374 485.987C107.301 485.987 121.179 308.199 111.245 260.355Z" fill="#322666"/>
<path d="M104.745 261.086C116.432 295.198 130.018 329.82 130.018 329.82L121.033 246.112C118.258 250.495 110.369 256.923 104.745 261.086Z" fill="#322666"/>
</svg>
