<svg width="19" height="20" viewBox="0 0 19 20" fill="none" xmlns="http://www.w3.org/2000/svg">
<path d="M19 11.1181C19 11.5391 18.6587 11.8804 18.2377 11.8804H12.0435C11.6225 11.8804 11.2812 12.2217 11.2812 12.6427V18.7096C11.2812 19.1306 10.94 19.4719 10.519 19.4719H8.48103C8.06004 19.4719 7.71875 19.1306 7.71875 18.7096V12.6427C7.71875 12.2217 7.37746 11.8804 6.95647 11.8804H0.762285C0.341287 11.8804 0 11.5391 0 11.1181V9.29221C0 8.87121 0.341286 8.52992 0.762284 8.52992H6.95647C7.37746 8.52992 7.71875 8.18864 7.71875 7.76764V1.65828C7.71875 1.23728 8.06004 0.895996 8.48103 0.895996H10.519C10.94 0.895996 11.2812 1.23728 11.2812 1.65828V7.76764C11.2812 8.18864 11.6225 8.52992 12.0435 8.52992H18.2377C18.6587 8.52992 19 8.87121 19 9.29221V11.1181Z" fill="#FF9900"/>
</svg>
