<svg width="271" height="311" viewBox="0 0 271 311" fill="none" xmlns="http://www.w3.org/2000/svg">
<path d="M105.447 99.8251L106.203 102.618C103.236 103.316 100.094 103.665 97.0104 103.316C94.974 99.7087 92.3558 96.5669 92.3558 96.5669L105.447 99.8251Z" fill="#ED7E94"/>
<path d="M91.7738 118.618L88.4574 116.989L35.5701 80.7997C35.7446 80.2179 35.9192 79.5779 36.1519 78.9961C54.2464 91.0397 73.4465 101.163 91.0174 115.127C91.8319 115.825 91.8901 117.163 91.7738 118.618Z" fill="#EAC7ED"/>
<path d="M108.764 111.81C108.764 111.81 98.4656 116.232 99.3965 111.17C99.8038 109.018 98.5819 106.05 97.0692 103.316C100.095 103.607 103.295 103.316 106.262 102.618L108.764 111.81Z" fill="#FF96A9"/>
<path d="M97.7662 93.9488C97.1262 91.8543 92.937 90.5743 89.9697 88.4215C91.2497 86.8506 92.3552 85.687 92.3552 85.687C126.217 93.0761 106.784 103.782 106.784 103.782C106.784 103.782 99.3952 101.687 93.4606 99.4761C96.4861 98.7197 98.6389 96.9743 97.7662 93.9488Z" fill="#ED7E94"/>
<path d="M86.1881 95.5196C85.7227 93.9487 88.05 90.7487 90.0282 88.4214C92.9954 90.5741 97.1845 91.8541 97.8245 93.9487C98.6972 97.0323 96.5446 98.7777 93.5773 99.4759C89.6791 98.0214 86.479 96.5668 86.1881 95.5196Z" fill="#FF96A9"/>
<path d="M102.48 93.2508C102.48 93.2508 92.8215 90.8653 84.9669 84.058C77.0542 77.2507 81.0687 64.218 96.1378 73.0617C104.807 78.1235 106.552 86.5017 106.552 86.5017C106.552 86.5017 114.465 85.1053 118.131 89.2362C121.738 93.3671 120.923 99.0689 120.923 99.0689C120.923 99.0689 137.156 99.3016 145.011 113.44C152.807 127.578 137.563 134.269 130 134.676C122.436 135.142 107.309 111.462 107.309 111.462C107.309 111.462 101.316 101.28 103.585 96.1599C103.585 96.1599 108.472 94.5307 106.087 92.4362C103.527 90.3998 102.48 93.2508 102.48 93.2508Z" fill="#2E2362"/>
<path d="M98.9307 130.603C98.2907 132.29 97.3015 133.861 96.0797 135.141L95.4979 131.941C96.6615 131.709 97.8252 131.243 98.9307 130.603Z" fill="#FF5B41"/>
<path d="M103.178 109.716L108.763 111.81C108.763 111.81 128.952 113.614 136.749 121.527C144.603 129.439 172.53 174.065 189.461 186.981C206.392 199.898 226.581 212.174 244.269 217.643C244.269 217.643 205.345 286.007 114.058 234.865L96.0794 135.141C97.3012 133.803 98.2904 132.29 98.9304 130.603C97.825 131.301 96.6612 131.709 95.4976 131.941L90.0868 101.861L103.178 109.716Z" fill="#F73E91"/>
<path d="M119.76 161.789C121.68 151.025 118.305 140.087 121.971 129.73C122.378 130.37 122.727 130.952 123.134 131.592C122.32 138.225 121.505 155.33 131.92 170.167C131.92 170.167 123.367 181.396 111.615 175.345C115.92 172.029 118.771 167.025 119.76 161.789Z" fill="#EAC7ED"/>
<path d="M88.6907 120.073L88.458 116.989L87.8762 109.716L123.483 128.8C123.483 128.8 123.251 129.847 123.018 131.651C122.669 131.011 122.262 130.429 121.854 129.789C121.622 130.487 121.389 131.185 121.214 131.884C117.025 126.996 111.033 124.436 104.458 124.32C109.636 126.88 117.374 127.811 118.48 134.618C119.352 139.098 113.302 139.273 110.043 138.109C105.214 136.305 102.131 131.767 99.6289 127.52C102.247 136.422 110.509 144.684 120.167 144.916C120.283 150.56 120.749 156.204 119.702 161.847C118.712 167.084 115.862 172.145 111.556 175.404C111.265 175.229 110.974 175.113 110.683 174.938C100.676 169.12 95.0325 145.614 93.4034 137.411C95.8471 135.782 97.8834 133.396 98.8725 130.604C92.3561 134.676 84.2688 130.138 79.7888 124.727C78.3343 122.807 78.4507 120.189 78.7417 117.629C81.1853 114.662 88.6907 120.073 88.6907 120.073Z" fill="#F6DEF8"/>
<path d="M79.847 124.669C84.3852 130.138 92.4143 134.618 98.9307 130.545C97.9416 133.338 95.9051 135.665 93.4615 137.353C93.1124 135.549 92.9379 134.502 92.9379 134.502C92.9379 134.502 79.6143 131.942 78.2179 121.702C77.927 119.607 78.2179 118.327 78.7997 117.571C78.5088 120.131 78.3925 122.749 79.847 124.669Z" fill="#EAC7ED"/>
<path d="M89.3307 249.469C85.1998 244.872 80.3706 239.403 75.3088 233.527C79.7888 234.283 84.3853 233.992 88.3416 232.363C91.0762 237.658 93.578 243.011 95.9053 248.48C93.8689 249.352 91.658 249.585 89.3307 249.469Z" fill="#FF96A9"/>
<path d="M97.7666 247.549C97.1848 247.898 96.5448 248.247 95.9048 248.48C93.5775 243.069 91.0757 237.716 88.3412 232.363C89.6794 231.781 90.9594 231.083 92.123 230.152C94.1012 235.272 95.963 241.032 97.7666 247.549Z" fill="#ED7E94"/>
<path d="M101.607 263.083C101.607 263.083 96.6039 257.614 89.3311 249.469C91.6002 249.585 93.8694 249.294 95.9057 248.479C97.7094 252.669 99.4548 256.916 101.142 261.221C101.317 261.861 101.491 262.501 101.607 263.083Z" fill="#2E2362"/>
<path d="M101.2 261.221C99.5129 256.916 97.7675 252.668 95.9638 248.479C96.6038 248.247 97.2438 247.897 97.8256 247.548C98.9893 251.796 100.095 256.334 101.2 261.221Z" fill="#322666"/>
<path d="M73.0976 206.298C69.0249 199.142 63.8467 193.731 58.4358 188.203C70.1885 194.312 84.3849 197.745 96.7195 191.229C103.236 187.738 107.192 181.396 109.869 174.472C112.603 174.647 115.279 174.938 117.898 175.229L131.919 170.167C131.919 170.167 142.799 175.403 142.392 184.422C141.985 193.44 136.341 214.269 71.4104 195.651C71.4104 195.651 81.9995 202.982 92.2395 230.152C91.0759 231.083 89.7959 231.782 88.4577 232.363C84.6759 225.032 80.4868 217.76 75.6577 210.545C74.6686 209.207 74.0285 207.694 73.0976 206.298Z" fill="#5B5BCB"/>
<path d="M109.868 174.472C107.25 181.396 103.235 187.738 96.719 191.228C84.3845 197.745 70.1881 194.312 58.4354 188.203C63.8463 193.73 69.0244 199.141 73.0972 206.298C74.0862 207.694 74.6681 209.207 75.599 210.545C80.4281 217.759 84.6172 225.032 88.399 232.363C84.4426 233.992 79.8463 234.283 75.3663 233.527C58.0282 213.512 37.839 189.192 34.4063 180.29C34.4063 180.348 74.0864 171.912 109.868 174.472Z" fill="#8B77E8"/>
<path d="M149.258 233.934C147.687 225.382 145.767 217.585 143.556 209.091C140.647 197.629 136.807 186.807 131.047 177.207C132.734 178.08 134.421 179.243 136.109 180.64C148.21 190.763 155.192 237.251 155.192 237.251C167.236 240.916 177.359 256.625 184.807 272.625C183.759 274.254 182.363 275.592 180.676 276.698C172.181 262.152 162.116 249.469 150.13 237.774C149.723 237.251 149.607 235.331 149.258 233.934Z" fill="#5B5BCB"/>
<path d="M110.742 174.88C110.742 174.88 120.575 171.622 131.047 177.207C136.865 186.807 140.705 197.629 143.556 209.091C145.767 217.643 147.687 225.382 149.258 233.934C149.607 235.331 149.665 237.251 150.073 237.774C162.058 249.469 172.124 262.152 180.618 276.698C177.825 278.501 174.451 279.491 170.96 279.782C163.338 270.705 153.796 259.127 141.869 244.465C96.6037 188.378 110.742 174.88 110.742 174.88Z" fill="#8B77E8"/>
<path d="M196.851 309.164C195.163 307.418 192.138 304.218 187.251 298.633C188.705 298.109 190.101 297.411 191.323 296.538C193.418 300.553 195.396 304.567 196.851 309.164Z" fill="#2E2362"/>
<path d="M198.596 310.909C198.596 310.909 198.072 310.443 196.85 309.163C195.396 304.625 193.418 300.553 191.323 296.538C192.138 295.956 192.894 295.258 193.534 294.443C196.792 304.043 198.596 310.909 198.596 310.909Z" fill="#322666"/>
<path d="M191.266 296.538C190.044 297.411 188.647 298.167 187.193 298.632C183.178 294.094 177.826 287.927 170.96 279.723C174.393 279.432 177.826 278.385 180.618 276.64C182.597 280.014 184.458 283.447 186.262 286.996C187.891 290.312 189.637 293.396 191.266 296.538Z" fill="#FF96A9"/>
<path d="M193.476 294.443C192.836 295.2 192.079 295.898 191.265 296.538C189.636 293.396 187.89 290.312 186.203 286.996C184.399 283.447 182.537 280.014 180.559 276.64C182.188 275.592 183.643 274.254 184.69 272.567C188.297 280.247 191.265 287.985 193.476 294.443Z" fill="#ED7E94"/>
<path d="M40.8457 106.942L216.673 225.085L201.293 247.975L25.4653 129.832L40.8457 106.942Z" fill="#FFDD85"/>
<path d="M47.3828 97.1484L18.1756 140.668L10.2628 103.781L47.3828 97.1484Z" fill="#FFDD85"/>
<path d="M201.099 243.185L214.306 223.52L216.575 225.091L201.215 247.956L25.448 129.847L27.6007 126.589L201.099 243.185Z" fill="#FFA42F"/>
<path d="M102.189 181.396C102.189 181.396 97.5924 173.716 101.374 171.796L106.203 177.731C106.203 177.731 110.392 177.033 113.36 179.825C113.36 179.825 117.956 175.345 123.018 169.702C125.171 171.68 126.858 174.123 128.021 176.8C124.414 180.174 120.574 183.433 116.676 186.574C113.418 188.902 108.414 193.905 105.331 189.425C101.723 184.596 95.7305 181.454 94.0432 175.985L102.189 181.396Z" fill="#FF96A9"/>
<path d="M123.018 169.644C125.461 171.331 127.556 173.425 128.836 175.985C128.545 176.276 128.254 176.509 127.963 176.8C126.858 174.065 125.17 171.68 123.018 169.644Z" fill="#ED7E94"/>
<path d="M105.388 189.425C108.414 193.905 113.476 188.902 116.734 186.574C120.923 183.2 124.996 179.709 128.894 176.043C129.243 176.742 129.534 177.498 129.767 178.254C125.927 181.745 121.796 185.062 117.548 187.563C117.548 187.563 110.101 202.516 98.9883 185.469C98.9883 185.469 92.4138 180.872 93.1702 175.345L94.1011 175.985C95.7884 181.454 101.781 184.538 105.388 189.425Z" fill="#ED7E94"/>
<path d="M133.374 150.21L120.923 133.396C121.156 132.174 121.505 130.952 121.912 129.73C126.101 136.363 129.941 143.112 133.374 150.21Z" fill="#EAC7ED"/>
<path d="M41.7383 71.6069L59.251 83.4178L103.236 109.716L125.869 118.211C125.869 118.211 128.255 120.945 131.455 125.251C137.505 134.851 142.742 144.858 146 155.68C141.113 163.127 135.295 169.818 128.895 175.927C127.615 173.367 125.52 171.272 123.076 169.585C127.964 164.058 133.258 157.367 135.12 152.421L133.433 150.152C130 143.054 126.16 136.305 121.971 129.672C121.564 130.894 121.215 132.116 120.982 133.338L120.4 132.581L91.8328 118.618C91.891 117.163 91.8328 115.825 91.0182 115.127C73.5055 101.163 54.3055 91.0397 36.1528 78.996C37.2 75.9706 38.9455 73.2942 41.7383 71.6069Z" fill="#F6DEF8"/>
<path d="M131.455 125.309C137.273 133.047 145.942 145.847 148.618 156.611C148.618 156.611 140.589 168.305 129.825 178.255C129.593 177.498 129.302 176.742 128.953 176.044C135.353 169.935 141.229 163.244 146.058 155.796C142.742 144.916 137.505 134.851 131.455 125.309Z" fill="#EAC7ED"/>
<path d="M10.7269 62.4722C8.69056 62.8212 7.00332 65.2067 8.86514 66.6613C11.9488 68.9885 16.7778 70.1521 19.4542 66.894C24.8651 71.2576 30.4505 75.214 36.1523 78.9958C35.9196 79.5776 35.7451 80.1594 35.5705 80.7994L19.2215 69.6285C19.2215 69.6285 11.1343 70.8503 7.46883 67.7667C3.80338 64.6831 7.52693 63.4031 7.52693 63.4031C7.52693 63.4031 0.486987 59.9703 0.0215321 55.7812C2.17426 59.5049 5.60693 62.2976 10.7269 62.4722Z" fill="#ED7E94"/>
<path d="M41.7383 71.6069C39.0037 73.2942 37.2 75.9706 36.1528 79.0542C35.8037 78.8215 35.4547 78.5887 35.1056 78.356C36.6765 75.3887 38.7128 72.8288 41.7383 71.6069Z" fill="#ED7E94"/>
<path d="M3.51154 50.487C13.3443 44.3197 23.526 59.3306 23.526 59.3306L41.6787 71.607C38.7114 72.887 36.6751 75.4469 35.046 78.356C29.6933 74.8069 24.4569 71.0251 19.4533 66.9524C16.7769 70.1524 11.9479 68.9888 8.86423 66.7197C7.00242 65.2651 8.68966 62.8797 10.726 62.5306C5.60602 62.356 2.17336 59.5633 0.0206285 55.7815C-0.153917 54.036 0.71881 52.2324 3.51154 50.487Z" fill="#FF96A9"/>
<path d="M108.764 111.811L99.5128 117.92L98.8147 107.098L103.178 109.716L108.764 111.811Z" fill="#FF96A9"/>
<path d="M99.6871 127.462C102.189 131.709 105.272 136.189 110.102 138.051C113.36 139.156 119.411 139.04 118.538 134.56C117.432 127.811 109.636 126.88 104.516 124.262C111.091 124.378 117.083 126.938 121.272 131.825C120.167 136.073 120.051 140.436 120.167 144.858C110.509 144.625 102.305 136.364 99.6871 127.462Z" fill="#EAC7ED"/>
<path d="M125.869 118.269C125.869 118.269 112.778 113.556 98.7564 119.665L99.5128 117.978L108.764 111.869L125.869 118.269Z" fill="#DB4A87"/>
<path d="M99.5117 117.92L98.8717 107.098C98.8717 107.098 97.4753 104.655 93.2281 103.724C93.2281 103.724 98.5227 111.811 98.8136 119.607L99.5117 117.92Z" fill="#DB4A87"/>
<path d="M98.4654 121.835C97.4449 121.709 96.7388 120.625 96.8882 119.413C97.0377 118.201 97.9861 117.321 99.0067 117.446C100.027 117.572 100.733 118.657 100.584 119.869C100.434 121.081 99.486 121.961 98.4654 121.835Z" fill="#3F327A"/>
<g filter="url(#filter0_b_205_29980)">
<path d="M270.04 41.2535H69.999L142.343 30.0511C142.343 30.0511 142.748 8.4118 166.512 17.2368C166.512 17.2368 168.458 0.836053 186.828 0.03012C205.198 -0.775813 203.981 14.8593 203.981 14.8593C203.981 14.8593 227.339 -0.372876 241.045 14.4563C254.752 29.2854 232.976 33.2748 232.976 33.2748L270.04 41.2535Z" fill="url(#paint0_radial_205_29980)" fill-opacity="0.3"/>
<path d="M203.593 14.828L203.593 14.8291L203.593 14.8292L203.532 15.6169L204.194 15.1852L203.981 14.8593L204.194 15.1852L204.194 15.1848L204.197 15.1831L204.209 15.1755L204.258 15.1444C204.301 15.1169 204.366 15.0759 204.452 15.0227C204.623 14.9165 204.878 14.7619 205.208 14.57C205.867 14.1862 206.825 13.6532 208.018 13.0594C210.407 11.871 213.729 10.442 217.471 9.47361C224.967 7.53382 234.05 7.46153 240.76 14.7204C244.153 18.3916 245.285 21.3238 245.178 23.6347C245.071 25.9364 243.729 27.7305 241.914 29.1173C240.098 30.5051 237.851 31.4507 236.042 32.0504C235.14 32.3493 234.353 32.5602 233.793 32.6963C233.513 32.7643 233.289 32.8135 233.137 32.8456C233.06 32.8616 233.002 32.8734 232.963 32.881L232.919 32.8895L232.908 32.8915L232.906 32.892L232.905 32.892V32.8922L232.894 33.6553L266.383 40.8644H75.0556L142.402 30.4357L142.726 30.3856L142.732 30.0586V30.0584V30.0583L142.732 30.0562L142.732 30.0462L142.734 30.0036C142.735 29.9653 142.738 29.9076 142.742 29.8321C142.75 29.6809 142.766 29.4584 142.794 29.1773C142.85 28.6148 142.957 27.8188 143.158 26.8902C143.561 25.0292 144.339 22.6557 145.833 20.5606C147.322 18.4726 149.524 16.6581 152.799 15.895C156.081 15.13 160.481 15.4124 166.376 17.6016L166.84 17.7738L166.898 17.2829L166.898 17.2827L166.898 17.2826L166.898 17.2813L166.899 17.2741L166.903 17.2424C166.907 17.2137 166.914 17.17 166.923 17.1123C166.941 16.9969 166.97 16.8256 167.013 16.6061C167.1 16.167 167.245 15.5357 167.475 14.7744C167.937 13.2506 168.74 11.212 170.106 9.1506C172.827 5.04187 177.798 0.815858 186.845 0.41893C191.382 0.219866 194.677 1.03716 197.071 2.34851C199.464 3.65892 200.983 5.47675 201.949 7.32286C202.916 9.17282 203.329 11.0527 203.498 12.4749C203.582 13.1849 203.606 13.7777 203.608 14.1914C203.61 14.3981 203.606 14.5599 203.602 14.6688C203.599 14.7233 203.597 14.7645 203.596 14.7915L203.594 14.8213L203.593 14.828Z" stroke="white" stroke-opacity="0.2" stroke-width="0.778369"/>
</g>
<defs>
<filter id="filter0_b_205_29980" x="46.648" y="-23.3511" width="246.743" height="87.9555" filterUnits="userSpaceOnUse" color-interpolation-filters="sRGB">
<feFlood flood-opacity="0" result="BackgroundImageFix"/>
<feGaussianBlur in="BackgroundImage" stdDeviation="11.6755"/>
<feComposite in2="SourceAlpha" operator="in" result="effect1_backgroundBlur_205_29980"/>
<feBlend mode="normal" in="SourceGraphic" in2="effect1_backgroundBlur_205_29980" result="shape"/>
</filter>
<radialGradient id="paint0_radial_205_29980" cx="0" cy="0" r="1" gradientUnits="userSpaceOnUse" gradientTransform="translate(257.248 2.22622) rotate(164.576) scale(118.308 63.2536)">
<stop stop-color="white" stop-opacity="0.700689"/>
<stop offset="1" stop-color="#F8FFF8" stop-opacity="0.246825"/>
</radialGradient>
</defs>
</svg>
