<svg width="407" height="268" viewBox="0 0 407 268" fill="none" xmlns="http://www.w3.org/2000/svg">
<path d="M358.721 53.3773C358.721 53.3773 353.548 53.243 353.615 55.2585C353.682 57.274 352.137 64.194 355.765 65.7392C359.326 67.3516 358.721 53.3773 358.721 53.3773Z" fill="#ED7E94"/>
<path d="M211.589 179.212C211.455 179.212 211.388 179.212 211.253 179.145C210.649 179.01 210.313 178.406 210.447 177.801C210.447 177.734 212.261 171.015 208.902 165.977C206.954 163.021 203.527 161.207 198.824 160.602C192.24 159.729 187.135 161.946 183.775 167.253C181.155 171.284 180.551 175.651 180.551 175.651C180.483 176.256 179.946 176.659 179.274 176.592C178.669 176.524 178.266 175.92 178.333 175.315C178.333 175.114 181.155 155.966 199.093 158.318C204.468 159.057 208.432 161.207 210.783 164.7C214.68 170.545 212.664 178.002 212.597 178.338C212.53 178.876 212.06 179.212 211.589 179.212Z" fill="#E8462C"/>
<path d="M311.894 42.2246L295.099 45.1135L294.427 46.3227C297.719 48.0023 301.212 48.943 304.84 49.4805C307.528 45.1135 311.894 42.2246 311.894 42.2246Z" fill="#ED7E94"/>
<path d="M305.847 37.1859C308.535 32.0799 314.917 30.8706 320.09 28.0489L318.478 23.9507C276.958 25.6303 295.165 45.1136 295.165 45.1136C295.165 45.1136 302.488 45.4494 309.341 45.6509C305.847 43.7026 303.698 41.0825 305.847 37.1859Z" fill="#ED7E94"/>
<path d="M320.024 28.0488C314.851 30.9377 308.535 32.0799 305.781 37.1859C303.698 41.0825 305.848 43.7026 309.207 45.6509C314.918 45.7852 320.292 45.8525 320.83 45.5165C322.039 44.7775 319.553 35.9765 319.553 35.9765L322.442 34.4313L320.024 28.0488Z" fill="#FF96A9"/>
<path d="M302.422 33.3566C302.422 33.3566 325.465 28.3178 336.618 13C336.618 13 297.651 19.1809 286.163 33.8269C286.163 33.8269 288.85 41.4186 295.098 45.1808L298.861 37.4547C298.861 37.4547 294.561 33.6253 297.181 31.0723C299.801 28.5193 302.422 33.3566 302.422 33.3566Z" fill="#2E2362"/>
<path d="M195.129 167.253C188.276 162.886 186.933 155.563 187.134 148.106C185.522 148.778 183.909 149.584 182.364 150.457C181.759 159.997 183.909 167.925 191.299 171.083C201.243 175.248 206.349 172.225 207.961 167.119C203.863 169.134 198.622 169.403 195.129 167.253Z" fill="#ED7E94"/>
<path d="M196.607 148.711L197.816 146.359C194.188 145.889 190.56 146.695 187.134 148.039C186.932 155.429 188.276 162.752 195.129 167.186C198.622 169.403 203.93 169.067 207.961 167.052C210.312 159.527 205.072 147.636 196.607 148.711Z" fill="#FF96A9"/>
<path d="M360.871 65.672C358.049 61.5066 356.84 56.6694 357.445 52.0337C354.623 58.5505 356.437 69.3672 367.455 72.9951C367.455 72.9951 367.253 73.734 366.917 74.9433C368.194 75.3464 369.47 75.6152 370.747 75.6824C371.15 74.0028 371.486 72.2559 371.687 70.5092C367.321 71.3825 363.558 68.8968 360.871 65.672Z" fill="#ED7E94"/>
<path d="M381.027 73.5995C380.691 64.7313 377.466 56.2662 369.538 49.2791C364.231 44.5762 359.528 47.0619 357.445 52.0335C356.84 56.6692 358.05 61.5064 360.871 65.6718C363.559 68.8966 367.321 71.3824 371.688 70.5762C371.486 72.323 371.151 74.0697 370.747 75.7493C374.241 75.9509 377.802 75.1447 381.027 73.5995Z" fill="#FF96A9"/>
<path d="M205.811 97.4497C217.971 85.8941 230.803 75.615 244.509 66.478C230.199 74.4057 208.834 87.1706 200.369 96.5763C200.369 96.5763 186.328 123.181 182.969 144.814C184.447 144.075 185.925 143.403 187.47 142.933C189.284 126.07 193.651 108.804 205.811 97.4497Z" fill="#5B5BCB"/>
<path d="M313.17 90.5967C312.633 93.0153 311.558 95.0979 310.349 97.1134C318.612 108.602 336.886 131.915 351.935 135.744C351.935 135.744 359.393 127.615 366.783 115.858C361.005 121.635 354.757 126.876 347.165 130.369C332.049 120.762 319.15 107.796 313.17 90.5967Z" fill="#5B5BCB"/>
<path d="M369.739 79.3102C367.388 86.4988 363.29 92.8142 358.117 98.1888C355.161 103.899 351.667 108.871 347.77 110.954L318.142 62.9846L302.757 55.7287L289.791 54.8555L258.215 59.0879C258.215 59.0879 252.437 62.044 244.442 66.4781C230.737 75.615 217.905 85.8942 205.744 97.4498C193.584 108.737 189.217 126.07 187.403 142.933C191.434 141.656 195.667 141.388 199.564 142.731L221.062 101.884L255.124 85.4911L305.781 90.5298C305.781 90.5298 307.46 93.0829 310.215 96.9795C311.424 94.964 312.499 92.8813 313.037 90.4627C319.016 107.662 331.915 120.628 346.964 130.235C354.556 126.742 360.804 121.501 366.582 115.724C373.233 105.176 379.75 91.672 380.758 78.504C377.331 79.7133 373.502 79.9149 369.739 79.3102Z" fill="#8B77E8"/>
<path d="M369.739 79.3101C368.463 79.1086 367.186 78.7727 365.91 78.3696C364.364 83.4756 361.677 91.3361 358.116 98.1888C363.357 92.8141 367.388 86.4988 369.739 79.3101Z" fill="#5B5BCB"/>
<path d="M380.958 78.638C381.093 76.9584 381.16 75.2789 381.093 73.6665C376.659 75.7492 371.62 76.5554 366.984 75.0102C366.716 75.8836 366.38 77.0928 365.977 78.4364C370.814 79.9145 376.054 80.1161 380.958 78.638Z" fill="#F6DEF8"/>
<path d="M182.969 144.881C182.7 146.762 182.431 148.576 182.364 150.39C187.134 147.703 192.442 145.687 197.816 146.359L199.698 142.798C194.256 140.85 188.209 142.127 182.969 144.881Z" fill="#F6DEF8"/>
<path d="M311.021 59.6252C311.021 59.6252 314.581 85.4909 306.654 101.01C298.659 116.463 282.468 128.22 278.034 145.62C273.599 162.953 250.488 153.481 250.488 153.481L283.811 55.7285L289.925 54.9224L302.891 55.7958L311.021 59.6252Z" fill="#FEF2FE"/>
<path d="M218.442 253.046C192.375 244.514 168.054 232.555 143.331 220.328C136.612 216.834 130.902 212.132 124.855 207.496C123.31 206.354 121.832 205.346 120.354 204.473C119.413 204.406 118.876 204.338 118.876 204.338C140.643 230.002 220.659 266.282 220.659 266.282C238.866 251.098 253.109 229.331 263.253 209.713C249.749 225.501 234.297 239.475 218.442 253.046Z" fill="#5B5BCB"/>
<path d="M279.176 173.501C281.393 167.455 282.468 163.827 282.468 163.827C282.468 163.827 280.049 164.095 275.615 164.431C269.031 164.902 258.013 165.506 244.307 165.573C232.752 165.573 225.496 175.718 220.928 187.61C216.628 198.762 214.747 211.527 213.94 219.119C225.16 193.32 254.049 182.571 279.176 173.501Z" fill="#5B5BCB"/>
<path d="M214.008 219.052C213.537 223.217 213.47 225.837 213.47 225.837C186.664 210.721 130.297 205.279 120.421 204.473C121.899 205.413 123.377 206.354 124.922 207.496C130.969 212.132 136.612 216.767 143.398 220.328C168.121 232.623 192.442 244.514 218.509 253.047C234.364 239.475 249.816 225.501 263.32 209.713C270.845 195.269 276.152 181.966 279.243 173.434C254.049 182.571 225.16 193.32 214.008 219.052Z" fill="#8B77E8"/>
<path d="M284.954 60.1626L291.605 77.7647L297.921 68.2246L302.959 77.496L309.006 60.7672L302.623 74.0696L297.719 67.3512L292.344 74.5398L284.954 60.1626Z" fill="#F6DEF8"/>
<path d="M331.108 140.716C320.762 153.548 305.78 160.938 290.798 167.992C278.773 173.837 265.269 180.892 251.496 177.129C259.424 168.06 265.739 157.445 269.3 145.889C257.408 152.607 250.488 157.915 250.488 157.915L233.021 179.078C279.982 209.243 325.801 159.594 325.801 159.594C323.987 200.912 360.602 252.509 360.602 252.509C360.669 252.241 360.669 251.972 360.736 251.77C342.664 217.843 331.041 179.414 331.108 140.716Z" fill="#5B5BCB"/>
<path d="M349.383 118.612C315.724 122.71 287.036 135.946 269.367 145.956C265.806 157.512 259.491 168.059 251.563 177.196C265.336 180.891 278.84 173.904 290.866 168.059C305.848 161.005 320.763 153.615 331.176 140.783C331.109 179.481 342.732 217.91 360.871 251.904C369.605 191.17 349.383 118.612 349.383 118.612Z" fill="#8B77E8"/>
<path d="M286.701 55.3252C286.701 55.3252 294.024 144.881 227.848 186.803C227.848 186.803 209.843 176.659 211.388 141.454C211.388 141.454 249.884 135.475 252.84 116.193C255.796 96.9117 255.259 85.5578 255.259 85.5578L258.282 59.1546L286.701 55.3252Z" fill="#8B77E8"/>
<path d="M307.46 57.9453C307.46 57.9453 309.946 102.488 289.858 124.188C289.858 124.188 315.926 105.847 322.442 90.4622L312.902 79.7129L318.613 76.8239L313.641 60.9015L307.46 57.9453Z" fill="#5B5BCB"/>
<path d="M355.967 245.522L354.758 267.156L406.086 222.613L355.967 245.522Z" fill="#2E2362"/>
<path d="M126.333 205.01L120.623 187.677L83 244.85L126.333 205.01Z" fill="#2E2362"/>
<path d="M167.382 173.3L222.876 177.801L205.811 238.602L149.377 228.861L167.382 173.3Z" fill="#FF5B41"/>
<path d="M222.876 177.801L230.266 233.496L205.812 238.602L222.876 177.801Z" fill="#E8462C"/>
<path d="M167.383 173.3L184.447 203.936L222.876 177.801L167.383 173.3Z" fill="#E8462C"/>
<path d="M187.332 204.246C187.959 201.421 187.206 198.85 185.648 198.504C184.091 198.158 182.319 200.168 181.691 202.993C181.064 205.818 181.817 208.389 183.375 208.735C184.932 209.081 186.704 207.071 187.332 204.246Z" fill="#2E2362"/>
<path d="M294.427 46.3228L289.858 54.8552L297.786 67.2841L302.825 55.7284C302.892 53.4442 303.698 51.2945 304.84 49.4805C301.212 48.943 297.719 48.0023 294.427 46.3228Z" fill="#FF96A9"/>
<path d="M286.7 55.3252L279.915 56.2657L274.742 71.1133L280.183 76.3537L264.664 79.7129C264.664 79.7129 277.429 120.359 267.62 144.142C290.53 102.219 286.7 55.3252 286.7 55.3252Z" fill="#5B5BCB"/>
<path d="M297.92 68.2246L294.763 72.9947L297.719 77.6303L300.406 72.8602L297.92 68.2246Z" fill="#DB4A87"/>
<path d="M298.122 74.0027C298.055 73.6668 297.988 73.2637 297.92 72.9277C297.92 72.9277 288.649 108.804 231.341 112.566L219.047 134.266C240.075 132.318 259.357 123.987 276.354 110.349C287.641 101.414 297.45 88.38 298.122 74.0027Z" fill="#FC5BA3"/>
<path d="M298.122 74.0024C297.45 88.3797 287.641 101.413 276.354 110.349C259.424 123.92 240.075 132.318 219.047 134.266V134.333L243.099 146.225C243.099 146.225 305.781 115.522 298.122 74.0024Z" fill="#F73E91"/>
<path d="M292.742 106.915C292.988 106.098 292.957 105.366 292.673 105.281C292.388 105.195 291.959 105.789 291.713 106.606C291.467 107.423 291.498 108.155 291.782 108.24C292.067 108.326 292.496 107.733 292.742 106.915Z" fill="#F6DEF8"/>
<path d="M275.279 139.494C275.638 138.72 275.711 137.991 275.442 137.866C275.172 137.742 274.663 138.268 274.304 139.042C273.945 139.817 273.873 140.546 274.142 140.67C274.411 140.795 274.921 140.269 275.279 139.494Z" fill="#F6DEF8"/>
<path d="M283.434 123.664C283.841 122.914 283.96 122.191 283.699 122.05C283.438 121.908 282.897 122.401 282.49 123.152C282.083 123.902 281.964 124.625 282.225 124.766C282.486 124.908 283.028 124.414 283.434 123.664Z" fill="#F6DEF8"/>
<path d="M318.142 89.8579C318.008 89.8579 317.941 89.7907 317.806 89.7235L314.783 85.6253C314.649 85.4909 314.716 85.2223 314.85 85.0879C314.985 84.9536 315.253 85.0206 315.388 85.155L318.411 89.2533C318.545 89.3876 318.478 89.6564 318.344 89.7908C318.277 89.7908 318.21 89.8579 318.142 89.8579Z" fill="#8B77E8"/>
<path d="M261.676 148.235C262.714 148.208 263.534 147.343 263.506 146.305C263.478 145.266 262.614 144.447 261.576 144.474C260.537 144.502 259.718 145.366 259.745 146.405C259.773 147.443 260.637 148.263 261.676 148.235Z" fill="#5B5BCB"/>
<path d="M256.774 155.289C257.886 155.259 258.765 154.333 258.735 153.22C258.706 152.108 257.78 151.23 256.667 151.259C255.554 151.289 254.676 152.215 254.706 153.327C254.735 154.44 255.661 155.318 256.774 155.289Z" fill="#5B5BCB"/>
<path d="M185.27 147.699C185.864 147.683 186.332 147.19 186.316 146.596C186.3 146.003 185.807 145.534 185.213 145.55C184.62 145.566 184.151 146.06 184.167 146.653C184.183 147.247 184.677 147.715 185.27 147.699Z" fill="#FEF2FE"/>
<path d="M186.283 140.711C186.988 140.692 187.544 140.106 187.525 139.401C187.507 138.697 186.92 138.14 186.215 138.159C185.511 138.178 184.955 138.764 184.973 139.469C184.992 140.174 185.578 140.73 186.283 140.711Z" fill="#8B77E8"/>
<path d="M187.02 136.544C187.725 136.525 188.281 135.939 188.262 135.234C188.244 134.53 187.657 133.973 186.953 133.992C186.248 134.011 185.692 134.597 185.711 135.302C185.729 136.006 186.316 136.563 187.02 136.544Z" fill="#8B77E8"/>
<path d="M188.162 132.111C188.867 132.093 189.423 131.506 189.404 130.802C189.385 130.097 188.799 129.541 188.094 129.559C187.39 129.578 186.833 130.165 186.852 130.869C186.871 131.574 187.457 132.13 188.162 132.111Z" fill="#8B77E8"/>
<g filter="url(#filter0_b_205_1473)">
<path d="M10.8238 51.5465H137.097L86.9368 42.0609C86.9368 42.0609 93.463 27.3391 77.4512 28.7809C77.4512 28.7809 79.4242 11.8585 64.3989 15.501C64.3989 15.501 63.4124 -1.4214 44.3652 0.096309C25.3179 1.61402 33.8171 21.7995 33.8171 21.7995C33.8171 21.7995 13.7833 7.91248 3.23528 21.7995C-7.16101 35.7624 10.8238 51.5465 10.8238 51.5465Z" fill="url(#paint0_radial_205_1473)" fill-opacity="0.3"/>
<path d="M86.4797 41.8582L86.4797 41.8583L86.4796 41.8584L86.2241 42.4349L86.8439 42.5521L131.762 51.0465H11.0159C10.9997 51.0317 10.9821 51.0155 10.9632 50.9981C10.8371 50.882 10.6523 50.7088 10.4201 50.4827C9.95549 50.0305 9.30153 49.3676 8.54827 48.5281C7.04023 46.8476 5.14177 44.4682 3.56688 41.6642C0.412097 36.0474 -1.38852 28.8486 3.63489 22.1C8.72622 15.3989 16.1047 15.3607 22.3494 17.0741C25.4663 17.9292 28.2649 19.2141 30.2875 20.2882C31.2977 20.8247 32.1118 21.3072 32.6721 21.6548C32.9522 21.8286 33.1688 21.9685 33.3145 22.0645C33.3874 22.1125 33.4426 22.1495 33.4792 22.1743L33.52 22.202L33.5298 22.2087L33.5319 22.2102L33.5322 22.2104L33.5323 22.2105L34.945 23.1897L34.278 21.6056L34.2779 21.6055L34.2778 21.6053L34.277 21.6033L34.2731 21.5939L34.2567 21.5537C34.242 21.5176 34.2202 21.4631 34.1923 21.3913C34.1365 21.2477 34.0564 21.0352 33.9608 20.7633C33.7694 20.2191 33.5161 19.4381 33.2706 18.4958C32.7783 16.6064 32.3232 14.09 32.4478 11.5415C32.5724 8.99352 33.2739 6.45326 35.0543 4.46087C36.829 2.47479 39.7353 0.966807 44.4049 0.594729C49.091 0.221333 52.6312 0.984153 55.309 2.31102C57.987 3.63802 59.8323 5.54389 61.1056 7.50207C62.3808 9.46334 63.0811 11.4757 63.462 13.0017C63.6522 13.7636 63.762 14.4011 63.8241 14.8459C63.8551 15.0683 63.8742 15.2422 63.8854 15.3591C63.8911 15.4176 63.8947 15.4618 63.8969 15.4907L63.8992 15.5223L63.8997 15.5292L63.8997 15.5301L63.8997 15.5304L63.9346 16.128L64.5167 15.9869C68.1901 15.0964 70.7466 15.4803 72.5337 16.4761C74.3242 17.4737 75.4237 19.1307 76.0901 20.9472C76.7573 22.7659 76.9761 24.7089 77.0249 26.21C77.0493 26.9579 77.0313 27.5901 77.0073 28.0339C76.9954 28.2557 76.9819 28.4302 76.9716 28.5481C76.9696 28.5712 76.9677 28.5921 76.9659 28.6107C76.9632 28.6398 76.9608 28.6635 76.959 28.6814L76.9555 28.7141L76.9547 28.7216L76.9545 28.723L76.9545 28.7231L76.9545 28.7232L76.8833 29.3341L77.496 29.2789C81.4366 28.9241 83.8926 29.5738 85.3967 30.6538C86.8876 31.7243 87.5263 33.2782 87.7012 34.9328C87.8771 36.5968 87.5774 38.3248 87.2232 39.6544C87.0471 40.3156 86.8597 40.8702 86.7168 41.2583C86.6454 41.4523 86.5852 41.6043 86.5433 41.7068C86.5224 41.7581 86.506 41.797 86.4951 41.8225L86.483 41.8507L86.4802 41.8571L86.4797 41.8582Z" stroke="white" stroke-opacity="0.2"/>
</g>
<defs>
<filter id="filter0_b_205_1473" x="-30" y="-30" width="197.097" height="111.546" filterUnits="userSpaceOnUse" color-interpolation-filters="sRGB">
<feFlood flood-opacity="0" result="BackgroundImageFix"/>
<feGaussianBlur in="BackgroundImage" stdDeviation="15"/>
<feComposite in2="SourceAlpha" operator="in" result="effect1_backgroundBlur_205_1473"/>
<feBlend mode="normal" in="SourceGraphic" in2="effect1_backgroundBlur_205_1473" result="shape"/>
</filter>
<radialGradient id="paint0_radial_205_1473" cx="0" cy="0" r="1" gradientUnits="userSpaceOnUse" gradientTransform="translate(128.33 2.78167) rotate(153.297) scale(87.4931 73.2442)">
<stop stop-color="white" stop-opacity="0.700689"/>
<stop offset="1" stop-color="#F8FFF8" stop-opacity="0.246825"/>
</radialGradient>
</defs>
</svg>
