<svg width="488" height="338" viewBox="0 0 488 338" fill="none" xmlns="http://www.w3.org/2000/svg">
<path d="M135.472 65.9105L136.443 69.4985C132.631 70.3954 128.595 70.8439 124.633 70.3954C122.017 65.761 118.653 61.7246 118.653 61.7246L135.472 65.9105Z" fill="#ED7E94"/>
<path d="M117.905 90.054L113.645 87.9611L45.6983 41.4676C45.9226 40.7201 46.1468 39.8979 46.4458 39.1504C69.6925 54.6233 94.3595 67.6295 116.934 85.5691C117.98 86.4661 118.055 88.1853 117.905 90.054Z" fill="#EAC7ED"/>
<path d="M139.732 81.3088C139.732 81.3088 126.502 86.9897 127.698 80.4866C128.221 77.7209 126.652 73.9087 124.708 70.3955C128.595 70.7693 132.706 70.3955 136.518 69.4985L139.732 81.3088Z" fill="#FF96A9"/>
<path d="M125.604 58.3613C124.782 55.6704 119.4 54.0259 115.588 51.2602C117.233 49.242 118.653 47.7471 118.653 47.7471C162.156 57.2401 137.19 70.9938 137.19 70.9938C137.19 70.9938 127.697 68.3028 120.073 65.4624C123.96 64.4907 126.726 62.2482 125.604 58.3613Z" fill="#ED7E94"/>
<path d="M110.729 60.3791C110.131 58.3609 113.121 54.2497 115.663 51.2598C119.475 54.0255 124.857 55.6699 125.679 58.3609C126.8 62.3225 124.034 64.565 120.222 65.462C115.214 63.5932 111.103 61.7245 110.729 60.3791Z" fill="#FF96A9"/>
<path d="M131.66 57.4643C131.66 57.4643 119.251 54.3996 109.16 45.6541C98.9946 36.9085 104.152 20.1649 123.512 31.5267C134.65 38.0298 136.892 48.7935 136.892 48.7935C136.892 48.7935 147.058 46.9996 151.767 52.3067C156.401 57.6138 155.355 64.9392 155.355 64.9392C155.355 64.9392 176.21 65.2381 186.301 83.402C196.317 101.566 176.733 110.162 167.016 110.685C157.298 111.283 137.864 80.8606 137.864 80.8606C137.864 80.8606 130.165 67.7796 133.08 61.2018C133.08 61.2018 139.359 59.1088 136.294 56.4179C133.005 53.8017 131.66 57.4643 131.66 57.4643Z" fill="#2E2362"/>
<path d="M127.1 105.453C126.277 107.62 125.007 109.639 123.437 111.283L122.689 107.172C124.184 106.873 125.679 106.275 127.1 105.453Z" fill="#FF5B41"/>
<path d="M132.557 78.6179L139.732 81.3088C139.732 81.3088 165.67 83.626 175.686 93.7918C185.777 103.958 221.656 161.29 243.408 177.884C265.16 194.478 291.098 210.25 313.821 217.276C313.821 217.276 263.815 305.105 146.534 239.402L123.437 111.283C125.007 109.564 126.278 107.62 127.1 105.453C125.68 106.35 124.185 106.873 122.69 107.172L115.738 68.5269L132.557 78.6179Z" fill="#F73E91"/>
<path d="M153.859 145.518C156.326 131.689 151.99 117.637 156.699 104.332C157.223 105.154 157.671 105.901 158.194 106.723C157.148 115.245 156.101 137.221 169.481 156.282C169.481 156.282 158.494 170.708 143.394 162.934C148.926 158.674 152.588 152.245 153.859 145.518Z" fill="#EAC7ED"/>
<path d="M113.944 91.9234L113.645 87.9617L112.898 78.6182L158.644 103.136C158.644 103.136 158.345 104.481 158.046 106.798C157.597 105.976 157.074 105.229 156.551 104.406C156.252 105.303 155.953 106.2 155.728 107.097C150.347 100.818 142.647 97.5295 134.201 97.38C140.853 100.669 150.795 101.865 152.215 110.61C153.336 116.366 145.563 116.59 141.377 115.095C135.172 112.778 131.211 106.948 127.997 101.491C131.36 112.928 141.975 123.542 154.383 123.841C154.532 131.092 155.13 138.342 153.785 145.593C152.514 152.32 148.852 158.823 143.32 163.009C142.946 162.785 142.573 162.635 142.199 162.411C129.342 154.936 122.092 124.738 119.999 114.198C123.138 112.105 125.754 109.041 127.025 105.453C118.653 110.685 108.263 104.855 102.507 97.9032C100.639 95.4365 100.788 92.0729 101.162 88.7839C104.302 84.9718 113.944 91.9234 113.944 91.9234Z" fill="#F6DEF8"/>
<path d="M102.582 97.8283C108.412 104.855 118.728 110.61 127.1 105.378C125.829 108.966 123.213 111.956 120.073 114.123C119.625 111.806 119.4 110.461 119.4 110.461C119.4 110.461 102.283 107.172 100.489 94.0161C100.115 91.3252 100.489 89.6807 101.237 88.709C100.863 91.9979 100.713 95.3616 102.582 97.8283Z" fill="#EAC7ED"/>
<path d="M114.766 258.164C109.459 252.258 103.255 245.232 96.7519 237.682C102.507 238.654 108.413 238.28 113.496 236.188C117.009 242.99 120.223 249.866 123.213 256.893C120.597 258.014 117.756 258.313 114.766 258.164Z" fill="#FF96A9"/>
<path d="M125.604 255.697C124.857 256.145 124.035 256.594 123.213 256.893C120.223 249.941 117.008 243.064 113.495 236.188C115.215 235.44 116.859 234.543 118.354 233.347C120.895 239.925 123.287 247.325 125.604 255.697Z" fill="#ED7E94"/>
<path d="M130.538 275.654C130.538 275.654 124.11 268.628 114.766 258.163C117.681 258.313 120.597 257.939 123.213 256.893C125.53 262.274 127.773 267.731 129.94 273.262C130.164 274.085 130.389 274.907 130.538 275.654Z" fill="#2E2362"/>
<path d="M130.015 273.263C127.847 267.731 125.604 262.275 123.287 256.893C124.11 256.594 124.932 256.145 125.679 255.697C127.174 261.153 128.594 266.984 130.015 273.263Z" fill="#322666"/>
<path d="M93.9115 202.7C88.6791 193.506 82.0265 186.554 75.0749 179.453C90.1741 187.302 108.413 191.712 124.259 183.34C132.631 178.855 137.714 170.708 141.153 161.813C144.666 162.037 148.104 162.411 151.468 162.784L169.482 156.281C169.482 156.281 183.46 163.009 182.937 174.595C182.414 186.181 175.163 212.941 91.7438 189.021C91.7438 189.021 105.348 198.439 118.504 233.347C117.009 234.543 115.364 235.44 113.645 236.187C108.786 226.769 103.405 217.425 97.2005 208.157C95.9298 206.437 95.1074 204.494 93.9115 202.7Z" fill="#5B5BCB"/>
<path d="M141.152 161.813C137.789 170.708 132.631 178.856 124.259 183.34C108.412 191.712 90.1739 187.302 75.0747 179.454C82.0263 186.555 88.6788 193.506 93.9112 202.7C95.182 204.494 95.9295 206.438 97.1255 208.157C103.33 217.426 108.711 226.769 113.57 236.188C108.487 238.281 102.582 238.654 96.8265 237.683C74.5515 211.969 48.6137 180.724 44.2036 169.288C44.2036 169.363 95.1821 158.524 141.152 161.813Z" fill="#8B77E8"/>
<path d="M191.757 238.206C189.738 227.218 187.272 217.202 184.431 206.288C180.694 191.563 175.76 177.66 168.36 165.326C170.528 166.447 172.696 167.942 174.863 169.736C190.411 182.743 199.381 242.466 199.381 242.466C214.854 247.176 227.86 267.358 237.428 287.913C236.082 290.006 234.288 291.726 232.121 293.146C221.207 274.459 208.276 258.164 192.878 243.139C192.355 242.466 192.205 240 191.757 238.206Z" fill="#5B5BCB"/>
<path d="M142.273 162.336C142.273 162.336 154.906 158.15 168.36 165.326C175.835 177.659 180.769 191.562 184.431 206.288C187.272 217.276 189.738 227.217 191.757 238.205C192.205 239.999 192.28 242.466 192.803 243.139C208.201 258.163 221.133 274.458 232.046 293.145C228.458 295.463 224.123 296.733 219.638 297.107C209.846 285.446 197.587 270.571 182.264 251.735C124.109 179.677 142.273 162.336 142.273 162.336Z" fill="#8B77E8"/>
<path d="M252.901 334.855C250.734 332.613 246.847 328.502 240.568 321.326C242.437 320.653 244.231 319.756 245.8 318.635C248.491 323.792 251.033 328.95 252.901 334.855Z" fill="#2E2362"/>
<path d="M255.144 337.098C255.144 337.098 254.471 336.5 252.901 334.855C251.032 329.025 248.491 323.792 245.8 318.635C246.846 317.887 247.818 316.99 248.64 315.944C252.826 328.277 255.144 337.098 255.144 337.098Z" fill="#322666"/>
<path d="M245.726 318.635C244.156 319.756 242.362 320.728 240.493 321.326C235.336 315.495 228.459 307.572 219.638 297.033C224.049 296.659 228.459 295.313 232.047 293.071C234.588 297.406 236.98 301.816 239.297 306.376C241.39 310.637 243.633 314.598 245.726 318.635Z" fill="#FF96A9"/>
<path d="M248.565 315.944C247.743 316.915 246.771 317.813 245.725 318.635C243.632 314.598 241.39 310.637 239.222 306.376C236.905 301.816 234.513 297.406 231.971 293.071C234.064 291.725 235.933 290.006 237.278 287.838C241.913 297.705 245.725 307.647 248.565 315.944Z" fill="#ED7E94"/>
<path d="M52.4753 75.0544L278.367 226.837L258.607 256.245L32.7156 104.462L52.4753 75.0544Z" fill="#FFDD85"/>
<path d="M60.873 62.4722L23.3494 118.384L13.1836 70.9935L60.873 62.4722Z" fill="#FFDD85"/>
<path d="M258.358 250.091L275.326 224.826L278.241 226.844L258.508 256.22L32.6928 104.481L35.4585 100.295L258.358 250.091Z" fill="#FFA42F"/>
<path d="M131.285 170.708C131.285 170.708 125.38 160.841 130.239 158.374L136.443 165.998C136.443 165.998 141.825 165.101 145.637 168.689C145.637 168.689 151.542 162.934 158.045 155.683C160.811 158.225 162.979 161.364 164.474 164.802C159.839 169.138 154.906 173.324 149.898 177.36C145.712 180.35 139.283 186.778 135.322 181.023C130.687 174.819 122.988 170.782 120.82 163.756L131.285 170.708Z" fill="#FF96A9"/>
<path d="M158.046 155.609C161.185 157.777 163.876 160.468 165.521 163.756C165.147 164.13 164.773 164.429 164.399 164.803C162.979 161.29 160.811 158.225 158.046 155.609Z" fill="#ED7E94"/>
<path d="M135.396 181.023C139.283 186.779 145.786 180.35 149.972 177.361C155.354 173.025 160.586 168.54 165.595 163.831C166.043 164.728 166.417 165.7 166.716 166.672C161.782 171.156 156.475 175.417 151.019 178.631C151.019 178.631 141.451 197.842 127.174 175.94C127.174 175.94 118.727 170.035 119.699 162.934L120.895 163.756C123.063 170.783 130.762 174.744 135.396 181.023Z" fill="#ED7E94"/>
<path d="M171.351 130.643L155.355 109.041C155.654 107.471 156.102 105.901 156.625 104.332C162.007 112.853 166.94 121.524 171.351 130.643Z" fill="#EAC7ED"/>
<path d="M53.6223 29.6577L76.1216 44.8316L132.631 78.6179L161.708 89.5311C161.708 89.5311 164.773 93.0443 168.884 98.5757C176.658 110.909 183.385 123.766 187.571 137.669C181.292 147.237 173.818 155.833 165.595 163.682C163.951 160.393 161.26 157.702 158.121 155.534C164.399 148.433 171.201 139.837 173.593 133.483L171.426 130.568C167.016 121.449 162.082 112.778 156.7 104.257C156.177 105.826 155.728 107.396 155.429 108.966L154.682 107.994L117.981 90.0544C118.055 88.1857 117.981 86.4665 116.934 85.5695C94.4348 67.6299 69.7678 54.6237 46.4464 39.1508C47.7918 35.2639 50.0343 31.8254 53.6223 29.6577Z" fill="#F6DEF8"/>
<path d="M168.884 98.6504C176.359 108.592 187.496 125.037 190.935 138.865C190.935 138.865 180.619 153.889 166.791 166.671C166.492 165.7 166.118 164.728 165.67 163.831C173.892 155.982 181.442 147.386 187.646 137.819C183.385 123.841 176.658 110.909 168.884 98.6504Z" fill="#EAC7ED"/>
<path d="M13.7813 17.9222C11.1651 18.3707 8.99743 21.4354 11.3894 23.3041C15.351 26.2941 21.5551 27.789 24.9935 23.6031C31.9451 29.2092 39.1209 34.2921 46.4463 39.1508C46.1473 39.8983 45.9231 40.6457 45.6988 41.468L24.6946 27.1163C24.6946 27.1163 14.3046 28.686 9.59549 24.7243C4.88634 20.7627 9.67013 19.1182 9.67013 19.1182C9.67013 19.1182 0.625648 14.7081 0.0276642 9.32617C2.79335 14.1101 7.20343 17.698 13.7813 17.9222Z" fill="#ED7E94"/>
<path d="M53.6221 29.6577C50.1089 31.8254 47.7916 35.2638 46.4462 39.2255C45.9977 38.9265 45.5493 38.6275 45.1008 38.3285C47.119 34.5163 49.7352 31.2274 53.6221 29.6577Z" fill="#ED7E94"/>
<path d="M4.51205 2.52413C17.1445 -5.39919 30.2254 13.8858 30.2254 13.8858L53.5469 29.6578C49.7347 31.3022 47.1186 34.5912 45.0256 38.3286C38.1488 33.7689 31.4214 28.9103 24.993 23.6779C21.5546 27.7891 15.3505 26.2941 11.3889 23.3789C8.99692 21.5102 11.1646 18.4455 13.7808 17.997C7.20292 17.7728 2.79284 14.1849 0.027153 9.32622C-0.19709 7.08377 0.924133 4.76658 4.51205 2.52413Z" fill="#FF96A9"/>
<path d="M139.732 81.309L127.848 89.1576L126.951 75.2544L132.557 78.6181L139.732 81.309Z" fill="#FF96A9"/>
<path d="M128.071 101.416C131.285 106.873 135.247 112.629 141.451 115.021C145.637 116.441 153.411 116.291 152.29 110.536C150.869 101.865 140.853 100.669 134.275 97.3052C142.722 97.4547 150.421 100.744 155.803 107.022C154.383 112.479 154.233 118.085 154.383 123.766C141.974 123.467 131.435 112.853 128.071 101.416Z" fill="#EAC7ED"/>
<path d="M161.708 89.6056C161.708 89.6056 144.89 83.551 126.875 91.3996L127.847 89.2319L139.732 81.3833L161.708 89.6056Z" fill="#DB4A87"/>
<path d="M127.847 89.1575L127.024 75.2543C127.024 75.2543 125.23 72.1149 119.774 70.9189C119.774 70.9189 126.576 81.309 126.95 91.3252L127.847 89.1575Z" fill="#DB4A87"/>
<path d="M126.502 94.1878C125.191 94.0261 124.284 92.6328 124.476 91.0759C124.668 89.5189 125.886 88.3878 127.197 88.5495C128.508 88.7112 129.416 90.1044 129.224 91.6614C129.032 93.2184 127.813 94.3495 126.502 94.1878Z" fill="#3F327A"/>
<g filter="url(#filter0_b_205_1524)">
<path d="M488 66H231L323.943 51.6078C323.943 51.6078 324.464 23.807 354.993 35.1447C354.993 35.1447 357.494 14.0741 381.095 13.0387C404.695 12.0033 403.132 32.0902 403.132 32.0902C403.132 32.0902 433.141 12.521 450.75 31.5725C468.359 50.6241 440.382 55.7495 440.382 55.7495L488 66Z" fill="url(#paint0_radial_205_1524)" fill-opacity="0.3"/>
<path d="M403.405 32.5091L403.132 32.0902L403.405 32.509L403.406 32.5085L403.41 32.5063L403.425 32.4965L403.487 32.4566C403.543 32.4212 403.626 32.3685 403.737 32.3003C403.957 32.1638 404.284 31.9652 404.708 31.7187C405.554 31.2255 406.786 30.5408 408.319 29.7779C411.387 28.2511 415.655 26.4153 420.463 25.1711C430.094 22.679 441.763 22.5861 450.383 31.9119C454.742 36.6284 456.197 40.3955 456.059 43.3644C455.922 46.3215 454.197 48.6264 451.866 50.4081C449.533 52.1911 446.645 53.4059 444.321 54.1763C443.163 54.5603 442.152 54.8313 441.432 55.0061C441.072 55.0935 440.785 55.1567 440.589 55.1979C440.491 55.2186 440.416 55.2337 440.366 55.2435L440.309 55.2544L440.296 55.257L440.293 55.2575L440.292 55.2576V55.2579L440.277 56.2383L483.301 65.5H237.496L324.019 52.1019L324.435 52.0376L324.443 51.6174V51.6172L324.443 51.617L324.443 51.6143L324.443 51.6015C324.444 51.5896 324.444 51.5713 324.445 51.5467C324.447 51.4976 324.45 51.4234 324.455 51.3264C324.466 51.1322 324.486 50.8464 324.522 50.4852C324.595 49.7625 324.732 48.7398 324.99 47.5469C325.508 45.156 326.507 42.1067 328.427 39.4149C330.34 36.7324 333.169 34.4013 337.376 33.4209C341.593 32.4381 347.246 32.8009 354.819 35.6134L355.415 35.8347L355.49 35.2039L355.49 35.2038L355.49 35.2037L355.49 35.202L355.491 35.1927L355.497 35.1519C355.502 35.115 355.51 35.0589 355.521 34.9848C355.544 34.8365 355.582 34.6164 355.638 34.3344C355.749 33.7703 355.935 32.9593 356.232 31.9812C356.824 30.0236 357.856 27.4045 359.611 24.7561C363.108 19.4775 369.493 14.0482 381.117 13.5382C386.946 13.2825 391.178 14.3325 394.254 16.0172C397.328 17.7008 399.28 20.0362 400.521 22.408C401.764 24.7847 402.294 27.1999 402.511 29.0269C402.62 29.9391 402.65 30.7008 402.653 31.2322C402.655 31.4978 402.65 31.7056 402.644 31.8456C402.642 31.9155 402.639 31.9685 402.637 32.0032L402.634 32.0415L402.634 32.0501L402.634 32.0517L402.555 33.0636L403.405 32.5091Z" stroke="white" stroke-opacity="0.2"/>
</g>
<defs>
<filter id="filter0_b_205_1524" x="201" y="-17" width="317" height="113" filterUnits="userSpaceOnUse" color-interpolation-filters="sRGB">
<feFlood flood-opacity="0" result="BackgroundImageFix"/>
<feGaussianBlur in="BackgroundImage" stdDeviation="15"/>
<feComposite in2="SourceAlpha" operator="in" result="effect1_backgroundBlur_205_1524"/>
<feBlend mode="normal" in="SourceGraphic" in2="effect1_backgroundBlur_205_1524" result="shape"/>
</filter>
<radialGradient id="paint0_radial_205_1524" cx="0" cy="0" r="1" gradientUnits="userSpaceOnUse" gradientTransform="translate(471.566 15.8601) rotate(164.576) scale(151.995 81.2643)">
<stop stop-color="white" stop-opacity="0.700689"/>
<stop offset="1" stop-color="#F8FFF8" stop-opacity="0.246825"/>
</radialGradient>
</defs>
</svg>
