<svg width="580" height="148" viewBox="0 0 580 148" fill="none" xmlns="http://www.w3.org/2000/svg">
<path d="M523.523 91.8808C522.972 91.8418 522.494 92.2568 522.455 92.8077C522.416 93.3586 522.831 93.8368 523.382 93.8758L523.523 91.8808ZM513.405 93.6782C513.957 93.6595 514.39 93.1969 514.371 92.645C514.352 92.093 513.89 91.6607 513.338 91.6793L513.405 93.6782ZM509.276 91.9095C508.725 91.9535 508.315 92.4355 508.359 92.986C508.403 93.5365 508.885 93.9472 509.435 93.9032L509.276 91.9095ZM499.555 95.3003C500.096 95.1893 500.445 94.6607 500.334 94.1197C500.223 93.5787 499.694 93.2301 499.153 93.3411L499.555 95.3003ZM495.171 94.263C494.636 94.401 494.314 94.9463 494.452 95.4811C494.59 96.0159 495.136 96.3376 495.67 96.1996L495.171 94.263ZM486.178 99.2759C486.692 99.075 486.946 98.4951 486.746 97.9807C486.545 97.4662 485.965 97.212 485.45 97.4128L486.178 99.2759ZM481.682 98.9801C481.177 99.203 480.948 99.7933 481.171 100.299C481.393 100.804 481.984 101.033 482.489 100.81L481.682 98.9801ZM473.535 105.277C474.018 105.01 474.193 104.401 473.926 103.918C473.658 103.434 473.05 103.259 472.567 103.527L473.535 105.277ZM469.036 105.545C468.56 105.825 468.402 106.438 468.682 106.914C468.963 107.39 469.576 107.548 470.052 107.268L469.036 105.545ZM461.523 112.591C461.986 112.289 462.116 111.67 461.814 111.207C461.512 110.745 460.893 110.614 460.43 110.916L461.523 112.591ZM457.05 113.145C456.591 113.451 456.466 114.071 456.772 114.531C457.078 114.991 457.698 115.116 458.158 114.81L457.05 113.145ZM449.765 120.431C450.224 120.125 450.348 119.504 450.042 119.044C449.736 118.585 449.115 118.461 448.655 118.767L449.765 120.431ZM445.294 120.993C444.833 121.296 444.704 121.916 445.007 122.378C445.31 122.839 445.93 122.968 446.392 122.665L445.294 120.993ZM437.825 128.091C438.297 127.805 438.448 127.19 438.162 126.718C437.876 126.245 437.261 126.094 436.789 126.38L437.825 128.091ZM433.333 128.426C432.855 128.702 432.691 129.314 432.968 129.792C433.244 130.27 433.856 130.434 434.334 130.158L433.333 128.426ZM425.379 134.97C425.874 134.725 426.076 134.125 425.831 133.63C425.586 133.135 424.986 132.933 424.491 133.178L425.379 134.97ZM420.878 134.902C420.376 135.133 420.156 135.726 420.387 136.228C420.617 136.73 421.211 136.95 421.713 136.72L420.878 134.902ZM412.307 140.599C412.825 140.409 413.092 139.835 412.902 139.316C412.712 138.798 412.138 138.531 411.619 138.721L412.307 140.599ZM407.84 140.034C407.315 140.207 407.03 140.772 407.202 141.297C407.375 141.821 407.94 142.107 408.465 141.934L407.84 140.034ZM398.671 144.711C399.208 144.582 399.539 144.043 399.411 143.506C399.282 142.969 398.742 142.637 398.205 142.766L398.671 144.711ZM394.272 143.64C393.731 143.751 393.382 144.28 393.493 144.821C393.605 145.362 394.133 145.71 394.674 145.599L394.272 143.64ZM384.661 147.251C385.209 147.182 385.597 146.681 385.528 146.134C385.459 145.586 384.958 145.197 384.411 145.267L384.661 147.251ZM380.534 145.667C379.983 145.703 379.565 146.178 379.6 146.729C379.635 147.28 380.111 147.699 380.662 147.663L380.534 145.667ZM370.417 147.403C370.966 147.456 371.455 147.054 371.508 146.504C371.561 145.954 371.159 145.466 370.609 145.413L370.417 147.403ZM366.571 144.936C366.024 144.86 365.519 145.242 365.443 145.789C365.368 146.337 365.75 146.841 366.297 146.917L366.571 144.936ZM356.3 145.142C356.84 145.257 357.371 144.911 357.485 144.371C357.599 143.831 357.254 143.3 356.714 143.186L356.3 145.142ZM352.822 142.318C352.285 142.192 351.747 142.526 351.621 143.064C351.495 143.602 351.829 144.14 352.367 144.265L352.822 142.318ZM342.535 141.739C343.067 141.887 343.618 141.576 343.766 141.044C343.914 140.511 343.602 139.96 343.07 139.812L342.535 141.739ZM339.118 138.685C338.588 138.53 338.033 138.834 337.878 139.364C337.723 139.894 338.027 140.45 338.557 140.605L339.118 138.685ZM328.913 137.637C329.439 137.806 330.002 137.517 330.172 136.991C330.341 136.466 330.052 135.902 329.526 135.733L328.913 137.637ZM325.637 134.461C325.113 134.286 324.547 134.57 324.373 135.094C324.199 135.618 324.483 136.184 325.007 136.359L325.637 134.461ZM315.453 133.078C315.974 133.262 316.545 132.99 316.729 132.469C316.914 131.948 316.641 131.377 316.12 131.193L315.453 133.078ZM312.314 129.832C311.794 129.644 311.221 129.913 311.034 130.432C310.846 130.952 311.115 131.525 311.634 131.713L312.314 129.832ZM302.133 128.199C302.65 128.394 303.227 128.133 303.422 127.617C303.617 127.1 303.357 126.523 302.84 126.328L302.133 128.199ZM299.072 124.893C298.557 124.695 297.978 124.953 297.781 125.469C297.583 125.984 297.84 126.563 298.356 126.76L299.072 124.893ZM288.924 123.079C289.437 123.282 290.019 123.031 290.222 122.518C290.426 122.004 290.175 121.423 289.662 121.219L288.924 123.079ZM285.905 119.72C285.393 119.515 284.81 119.763 284.605 120.276C284.399 120.789 284.648 121.371 285.16 121.577L285.905 119.72ZM275.799 117.769C276.31 117.98 276.895 117.736 277.105 117.226C277.315 116.715 277.072 116.13 276.561 115.92L275.799 117.769ZM272.802 114.365C272.292 114.153 271.707 114.394 271.495 114.904C271.283 115.414 271.524 116 272.034 116.212L272.802 114.365ZM262.738 112.308C263.247 112.523 263.834 112.286 264.049 111.778C264.265 111.269 264.027 110.682 263.519 110.467L262.738 112.308ZM259.764 108.868C259.256 108.651 258.668 108.887 258.451 109.395C258.234 109.903 258.47 110.49 258.978 110.707L259.764 108.868ZM249.725 106.721C250.232 106.941 250.821 106.709 251.041 106.202C251.261 105.696 251.028 105.107 250.522 104.887L249.725 106.721ZM246.797 103.265C246.291 103.044 245.701 103.275 245.48 103.781C245.259 104.287 245.49 104.877 245.997 105.098L246.797 103.265ZM236.751 101.033C237.256 101.256 237.847 101.028 238.07 100.523C238.294 100.018 238.066 99.4275 237.561 99.204L236.751 101.033ZM233.859 97.5625C233.355 97.3382 232.764 97.5654 232.539 98.0701C232.315 98.5748 232.542 99.1658 233.047 99.3901L233.859 97.5625ZM223.81 95.2619C224.314 95.4882 224.906 95.2633 225.132 94.7595C225.359 94.2557 225.134 93.6639 224.63 93.4376L223.81 95.2619ZM220.946 91.7793C220.442 91.5522 219.85 91.7763 219.623 92.2798C219.396 92.7833 219.62 93.3755 220.123 93.6025L220.946 91.7793ZM210.9 89.4257C211.403 89.6543 211.996 89.4321 212.224 88.9293C212.453 88.4266 212.231 87.8337 211.728 87.6051L210.9 89.4257ZM208.053 85.9317C207.551 85.7025 206.957 85.9241 206.728 86.4266C206.499 86.9291 206.721 87.5222 207.223 87.7514L208.053 85.9317ZM198.02 83.5405C198.522 83.7709 199.115 83.5507 199.346 83.0488C199.576 82.5469 199.356 81.9532 198.854 81.7228L198.02 83.5405ZM195.181 80.0353C194.68 79.8045 194.086 80.0242 193.855 80.5259C193.624 81.0277 193.844 81.6215 194.346 81.8523L195.181 80.0353ZM185.165 77.6188C185.666 77.8505 186.26 77.6319 186.492 77.1306C186.723 76.6292 186.505 76.035 186.004 75.8033L185.165 77.6188ZM182.331 74.1049C181.83 73.8729 181.236 74.0911 181.004 74.5923C180.772 75.0935 180.99 75.6879 181.491 75.9199L182.331 74.1049ZM172.315 71.6656C172.816 71.8981 173.411 71.6806 173.643 71.1797C173.876 70.6787 173.658 70.0841 173.157 69.8515L172.315 71.6656ZM169.499 68.1521C168.998 67.9193 168.403 68.1367 168.17 68.6375C167.938 69.1384 168.155 69.7331 168.656 69.9658L169.499 68.1521ZM159.471 65.694C159.972 65.927 160.567 65.71 160.8 65.2093C161.033 64.7086 160.816 64.1138 160.315 63.8807L159.471 65.694ZM156.658 62.1784C156.157 61.9453 155.562 62.1622 155.329 62.6629C155.096 63.1636 155.313 63.7584 155.814 63.9915L156.658 62.1784ZM146.633 59.7177C147.133 59.9507 147.728 59.7337 147.961 59.233C148.194 58.7323 147.977 58.1375 147.477 57.9045L146.633 59.7177ZM143.814 56.2C143.313 55.9671 142.718 56.1841 142.485 56.6849C142.252 57.1856 142.469 57.7804 142.97 58.0134L143.814 56.2ZM133.798 53.7503C134.299 53.9828 134.894 53.7653 135.127 53.2644C135.359 52.7635 135.142 52.1688 134.641 51.9363L133.798 53.7503ZM130.966 50.2311C130.465 49.9988 129.87 50.2166 129.638 50.7176C129.406 51.2187 129.624 51.8132 130.125 52.0455L130.966 50.2311ZM120.964 47.8055C121.465 48.0371 122.059 47.8183 122.291 47.3169C122.522 46.8156 122.304 46.2214 121.802 45.9898L120.964 47.8055ZM118.11 44.2863C117.608 44.0551 117.014 44.2743 116.783 44.7759C116.552 45.2775 116.771 45.8715 117.273 46.1027L118.11 44.2863ZM108.121 41.8978C108.623 42.1277 109.217 41.9071 109.446 41.4049C109.676 40.9027 109.456 40.3093 108.954 40.0794L108.121 41.8978ZM105.239 38.3812C104.736 38.1519 104.143 38.3733 103.914 38.8757C103.685 39.3782 103.906 39.9714 104.408 40.2007L105.239 38.3812ZM95.2573 36.0433C95.7605 36.2708 96.3529 36.0473 96.5804 35.544C96.8079 35.0407 96.5843 34.4483 96.0811 34.2209L95.2573 36.0433ZM92.3407 32.5341C91.837 32.3075 91.2451 32.5321 91.0185 33.0358C90.7919 33.5395 91.0165 34.1314 91.5201 34.358L92.3407 32.5341ZM82.3547 30.2619C82.8596 30.4859 83.4504 30.2582 83.6743 29.7534C83.8983 29.2486 83.6707 28.6578 83.1659 28.4338L82.3547 30.2619ZM79.3997 26.7683C78.8943 26.5456 78.304 26.7747 78.0813 27.2801C77.8586 27.7855 78.0877 28.3758 78.5931 28.5985L79.3997 26.7683ZM69.3901 24.5813C69.8971 24.8003 70.4857 24.5668 70.7047 24.0598C70.9237 23.5528 70.6902 22.9643 70.1832 22.7452L69.3901 24.5813ZM66.3964 21.1173C65.8886 20.9001 65.3009 21.1357 65.0837 21.6435C64.8665 22.1513 65.1021 22.739 65.6099 22.9562L66.3964 21.1173ZM56.3384 19.046C56.8485 19.2578 57.4337 19.016 57.6455 18.5059C57.8573 17.9958 57.6154 17.4107 57.1054 17.1989L56.3384 19.046ZM53.3137 15.6359C52.8025 15.4268 52.2186 15.6717 52.0095 16.1829C51.8004 16.6941 52.0453 17.278 52.5565 17.4871L53.3137 15.6359ZM43.1852 13.7374C43.6997 13.9382 44.2796 13.6839 44.4803 13.1694C44.6811 12.6549 44.4268 12.075 43.9123 11.8743L43.1852 13.7374ZM40.1517 10.424C39.6356 10.2274 39.0579 10.4865 38.8613 11.0026C38.6647 11.5187 38.9238 12.0965 39.4399 12.293L40.1517 10.424ZM29.9644 8.82066C30.4856 9.00314 31.0561 8.7285 31.2386 8.20723C31.4211 7.68596 31.1465 7.11546 30.6252 6.93298L29.9644 8.82066ZM26.8196 5.63086C26.2958 5.45599 25.7293 5.73894 25.5545 6.26282C25.3796 6.78668 25.6626 7.35312 26.1864 7.52797L26.8196 5.63086ZM16.5116 4.56413C17.0443 4.70967 17.5942 4.39577 17.7397 3.86299C17.8853 3.33023 17.5714 2.78036 17.0386 2.63483L16.5116 4.56413ZM13.1622 1.64383C12.6247 1.5168 12.086 1.84953 11.9589 2.38701C11.8319 2.92448 12.1646 3.46317 12.7021 3.59021L13.1622 1.64383ZM2.828 2.04185C3.37988 2.0627 3.84418 1.6322 3.86499 1.08031C3.88586 0.528412 3.45532 0.0641174 2.90344 0.0432739L2.828 2.04185ZM525.59 92.0472C524.895 91.9846 524.206 91.9292 523.523 91.8808L523.382 93.8758C524.052 93.9233 524.728 93.9776 525.41 94.0391L525.59 92.0472ZM513.338 91.6793C511.96 91.7259 510.606 91.8032 509.276 91.9095L509.435 93.9032C510.735 93.7993 512.058 93.7238 513.405 93.6782L513.338 91.6793ZM499.153 93.3411C497.803 93.6183 496.476 93.9263 495.171 94.263L495.67 96.1996C496.944 95.8711 498.238 95.5707 499.555 95.3003L499.153 93.3411ZM485.45 97.4128C484.176 97.9102 482.921 98.4335 481.682 98.9801L482.489 100.81C483.703 100.274 484.932 99.7623 486.178 99.2759L485.45 97.4128ZM472.567 103.527C471.38 104.183 470.204 104.856 469.036 105.545L470.052 107.268C471.205 106.588 472.366 105.923 473.535 105.277L472.567 103.527ZM460.43 110.916C459.303 111.651 458.177 112.395 457.05 113.145L458.158 114.81C459.281 114.063 460.402 113.322 461.523 112.591L460.43 110.916ZM448.655 118.767C447.542 119.51 446.422 120.253 445.294 120.993L446.392 122.665C447.525 121.921 448.649 121.176 449.765 120.431L448.655 118.767ZM436.789 126.38C435.651 127.07 434.499 127.752 433.333 128.426L434.334 130.158C435.513 129.477 436.676 128.787 437.825 128.091L436.789 126.38ZM424.491 133.178C423.305 133.765 422.101 134.34 420.878 134.902L421.713 136.72C422.954 136.15 424.176 135.566 425.379 134.97L424.491 133.178ZM411.619 138.721C410.38 139.175 409.121 139.613 407.84 140.034L408.465 141.934C409.767 141.506 411.048 141.06 412.307 140.599L411.619 138.721ZM398.205 142.766C396.916 143.075 395.605 143.366 394.272 143.64L394.674 145.599C396.029 145.321 397.361 145.025 398.671 144.711L398.205 142.766ZM384.411 145.267C383.742 145.351 383.069 145.431 382.39 145.506L382.61 147.494C383.299 147.417 383.983 147.336 384.661 147.251L384.411 145.267ZM382.39 145.506C381.789 145.573 381.17 145.627 380.534 145.667L380.662 147.663C381.327 147.621 381.977 147.564 382.61 147.494L382.39 145.506ZM370.609 145.413C369.305 145.287 367.958 145.127 366.571 144.936L366.297 146.917C367.709 147.112 369.083 147.274 370.417 147.403L370.609 145.413ZM356.714 143.186C355.441 142.916 354.144 142.627 352.822 142.318L352.367 144.265C353.701 144.577 355.012 144.87 356.3 145.142L356.714 143.186ZM343.07 139.812C341.771 139.451 340.453 139.075 339.118 138.685L338.557 140.605C339.9 140.997 341.226 141.376 342.535 141.739L343.07 139.812ZM329.526 135.733C328.243 135.32 326.946 134.895 325.637 134.461L325.007 136.359C326.321 136.795 327.624 137.221 328.913 137.637L329.526 135.733ZM316.12 131.193C314.861 130.747 313.592 130.294 312.314 129.832L311.634 131.713C312.917 132.176 314.19 132.631 315.453 133.078L316.12 131.193ZM302.84 126.328C301.592 125.856 300.336 125.378 299.072 124.893L298.356 126.76C299.622 127.246 300.882 127.726 302.133 128.199L302.84 126.328ZM289.662 121.219C288.415 120.725 287.163 120.225 285.905 119.72L285.16 121.577C286.421 122.082 287.675 122.583 288.924 123.079L289.662 121.219ZM276.561 115.92C275.313 115.406 274.06 114.888 272.802 114.365L272.034 116.212C273.294 116.735 274.549 117.255 275.799 117.769L276.561 115.92ZM263.519 110.467C262.271 109.937 261.019 109.404 259.764 108.868L258.978 110.707C260.235 111.244 261.489 111.778 262.738 112.308L263.519 110.467ZM250.522 104.887C249.283 104.349 248.041 103.808 246.797 103.265L245.997 105.098C247.242 105.642 248.485 106.183 249.725 106.721L250.522 104.887ZM237.561 99.204C236.329 98.6591 235.095 98.1119 233.859 97.5625L233.047 99.3901C234.284 99.9399 235.519 100.488 236.751 101.033L237.561 99.204ZM224.63 93.4376C223.403 92.8864 222.175 92.3336 220.946 91.7793L220.123 93.6025C221.354 94.1572 222.583 94.7104 223.81 95.2619L224.63 93.4376ZM211.728 87.6051C210.504 87.0484 209.279 86.4906 208.053 85.9317L207.223 87.7514C208.449 88.3106 209.675 88.8688 210.9 89.4257L211.728 87.6051ZM198.854 81.7228C197.63 81.161 196.406 80.5984 195.181 80.0353L194.346 81.8523C195.57 82.4156 196.795 82.9784 198.02 83.5405L198.854 81.7228ZM186.004 75.8033C184.779 75.2374 183.555 74.6712 182.331 74.1049L181.491 75.9199C182.715 76.4863 183.94 77.0527 185.165 77.6188L186.004 75.8033ZM173.157 69.8515C171.937 69.2848 170.717 68.7182 169.499 68.1521L168.656 69.9658C169.874 70.532 171.094 71.0987 172.315 71.6656L173.157 69.8515ZM160.315 63.8807C159.094 63.3125 157.875 62.745 156.658 62.1784L155.814 63.9915C157.031 64.5582 158.25 65.1257 159.471 65.694L160.315 63.8807ZM147.477 57.9045C146.253 57.335 145.032 56.7668 143.814 56.2L142.97 58.0134C144.188 58.5801 145.409 59.1482 146.633 59.7177L147.477 57.9045ZM134.641 51.9363C133.412 51.366 132.187 50.7975 130.966 50.2311L130.125 52.0455C131.346 52.6118 132.57 53.1801 133.798 53.7503L134.641 51.9363ZM121.802 45.9898C120.567 45.4193 119.336 44.8514 118.11 44.2863L117.273 46.1027C118.499 46.6676 119.729 47.2353 120.964 47.8055L121.802 45.9898ZM108.954 40.0794C107.71 39.5099 106.471 38.9437 105.239 38.3812L104.408 40.2007C105.64 40.7628 106.878 41.3286 108.121 41.8978L108.954 40.0794ZM96.0811 34.2209C94.8273 33.6542 93.5804 33.0918 92.3407 32.5341L91.5201 34.358C92.7587 34.9152 94.0045 35.4771 95.2573 36.0433L96.0811 34.2209ZM83.1659 28.4338C81.9016 27.8728 80.6461 27.3176 79.3997 26.7683L78.5931 28.5985C79.838 29.1471 81.0919 29.7016 82.3547 30.2619L83.1659 28.4338ZM70.1832 22.7452C68.9097 22.1951 67.6473 21.6524 66.3964 21.1173L65.6099 22.9562C66.8585 23.4902 68.1187 24.032 69.3901 24.5813L70.1832 22.7452ZM57.1054 17.1989C55.8268 16.668 54.5628 16.1469 53.3137 15.6359L52.5565 17.4871C53.8022 17.9966 55.063 18.5164 56.3384 19.046L57.1054 17.1989ZM43.9123 11.8743C42.6393 11.3775 41.3856 10.8939 40.1517 10.424L39.4399 12.293C40.6684 12.7609 41.9171 13.2425 43.1852 13.7374L43.9123 11.8743ZM30.6252 6.93298C29.3277 6.47878 28.0589 6.04448 26.8196 5.63086L26.1864 7.52797C27.4158 7.93829 28.6754 8.36943 29.9644 8.82066L30.6252 6.93298ZM17.0386 2.63483C15.695 2.26781 14.4022 1.93692 13.1622 1.64383L12.7021 3.59021C13.9173 3.87741 15.1877 4.20248 16.5116 4.56413L17.0386 2.63483ZM2.90344 0.0432739C2.2226 0.0175629 1.57312 0.0173645 0.956543 0.0441742L1.04346 2.04228C1.59918 2.01813 2.19409 2.01791 2.828 2.04185L2.90344 0.0432739Z" fill="#28334C" fill-opacity="0.16"/>
<mask id="mask0_509_806" style="mask-type:alpha" maskUnits="userSpaceOnUse" x="472" y="39" width="108" height="109">
<circle cx="526" cy="93.0002" r="54" fill="#C4C4C4"/>
</mask>
<g mask="url(#mask0_509_806)">
<path d="M431 51.0002C431 39.9546 439.954 31.0002 451 31.0002H601C612.046 31.0002 621 39.9545 621 51.0002V154H431V51.0002Z" fill="#858FA9"/>
<g style="mix-blend-mode:color">
<path d="M431 51.0002C431 39.9546 439.954 31.0002 451 31.0002H601C612.046 31.0002 621 39.9545 621 51.0002V154H431V51.0002Z" fill="#858FA9"/>
</g>
<path d="M526.507 150.013C558.819 150.013 585.013 123.819 585.013 91.5068C585.013 59.1945 558.819 33.0002 526.507 33.0002C494.194 33.0002 468 59.1945 468 91.5068C468 123.819 494.194 150.013 526.507 150.013Z" fill="#CBCDEB"/>
<path d="M547.78 78.6809C547.656 77.3941 547.095 76.1696 546.846 74.9035C547.324 73.4507 547.552 71.8527 547.552 70.7319C547.531 69.2168 547.365 66.9754 546.576 65.7301C546.037 64.8792 545.082 63.8622 544.107 63.6132C543.961 63.4679 543.837 63.3019 543.712 63.1566C543.816 59.8359 542.986 56.4114 540.122 54.585C537.777 53.0907 535.016 52.2605 532.36 53.0907C531.633 50.7039 529.807 48.8983 527.316 48.421C525.594 48.0889 523.83 48.2549 522.211 49.0436C520.384 49.9568 519.243 51.1813 518.309 52.8209C513.722 52.4888 508.99 54.9171 506.894 59.4623C506.292 60.7698 505.939 62.1811 505.856 63.6339C505.794 65.0245 506.541 66.7471 506.002 67.8886C505.4 69.1753 504.632 70.0055 504.632 71.5828C504.632 72.8281 504.985 74.2394 505.753 75.2149C505.254 76.5639 505.047 77.9959 505.192 79.3657C505.4 81.2129 507.392 86.1524 509.737 86.1109C509.758 86.2977 509.779 86.4845 509.8 86.6505C509.82 87.2939 509.758 87.9373 509.924 88.5807C510.09 89.3071 510.422 90.0127 510.754 90.6354C511.273 91.5693 512.02 92.2127 512.871 92.7316C513.909 93.3542 517.001 94.8485 517.645 92.8768C517.728 92.6485 517.562 92.3372 517.354 92.275C516.815 92.1297 516.234 92.3372 515.673 92.2334C514.947 92.1297 514.22 91.8183 513.556 91.424C513.764 91.4448 513.951 91.4033 514.117 91.2995C514.843 91.4448 515.59 91.4033 516.358 91.507C517.686 91.6731 518.973 92.1089 520.301 92.3372C522.045 92.6278 523.788 92.7523 525.511 93.1881C525.594 93.2089 525.698 93.2297 525.781 93.2504C528.811 96.1975 534.103 96.7372 537.797 94.973C538.129 94.807 538.482 94.6202 538.856 94.3712C539.831 93.9976 540.744 93.4995 541.512 92.9391C542.695 92.0674 543.712 90.0335 543.692 88.2279C543.775 87.6882 543.775 87.1486 543.65 86.6298C544.418 86.0486 545.124 85.3222 545.663 84.6788C547.178 82.9562 548.029 81.0261 547.78 78.6809Z" fill="#001526"/>
<path d="M510.359 72.8907C510.359 72.8907 511.19 91.3206 512.891 96.1356C514.531 100.764 523.352 106.886 525.987 107.032C530.014 107.26 537.88 100.805 539.561 97.5469C541.802 93.2092 543.151 75.7756 543.151 75.7756L528.333 61.9324L512.58 63.1154L510.359 72.8907Z" fill="#FF6B42"/>
<path d="M548.942 124.071C548.942 124.071 535.638 147.648 534.331 149.1C533.023 150.553 527.524 151.3 525.905 151.3C524.265 151.3 518.433 146.091 517.935 145.053C517.437 144.016 501.871 123.988 501.871 123.988C501.871 123.988 510.609 117.097 514.158 112.49C514.739 111.722 515.195 110.829 515.507 109.854C516.503 106.824 516.358 103.109 516.109 100.701C515.943 99.207 515.756 98.2315 515.756 98.2315L536.344 97.5259C536.344 97.5259 535.95 105.807 537.403 111.577C538.855 117.346 548.942 124.071 548.942 124.071Z" fill="#FF6B42"/>
<path d="M511.211 78.7847C511.087 78.7432 509.302 77.996 507.724 78.7431C506.147 79.4903 506.666 83.6619 507.641 85.343C509.489 88.5392 512.353 88.726 512.353 88.726L511.211 78.7847Z" fill="#FF6B42"/>
<path d="M541.657 79.2C541.782 79.1585 543.588 78.4736 545.144 79.2415C546.701 80.0094 546.078 84.181 545.061 85.8414C543.131 88.9753 540.246 89.0998 540.246 89.0998L541.657 79.2Z" fill="#FF6B42"/>
<path d="M518.039 81.6904C517.77 80.7772 516.711 80.964 516.607 81.8772C516.545 82.396 516.524 83.3715 517.064 83.6828C517.5 83.9319 517.915 83.5998 518.06 83.2055C518.143 82.8942 518.185 82.2093 518.039 81.6904Z" fill="black"/>
<path d="M536.117 81.4619C535.847 80.5487 534.788 80.7355 534.684 81.6487C534.622 82.1675 534.601 83.143 535.141 83.4543C535.577 83.7034 535.992 83.3713 536.137 82.977C536.22 82.6864 536.262 81.9808 536.117 81.4619Z" fill="black"/>
<path d="M520.488 77.2074C520.53 76.1697 517.375 76.066 516.753 76.1075C515.798 76.149 514.802 76.2943 513.909 76.6263C513.432 76.7924 511.377 77.8093 512.851 78.0999C514.449 78.4112 515.943 77.7056 517.521 77.8508C518.33 77.9339 520.053 78.2452 520.405 77.4773C520.447 77.3735 520.468 77.2905 520.488 77.2074Z" fill="#001526"/>
<path d="M531.675 77.3941C531.654 76.3357 534.809 76.2942 535.431 76.3357C536.386 76.3979 537.382 76.564 538.254 76.9168C538.731 77.1036 540.765 78.1621 539.292 78.4319C538.399 78.5979 537.507 78.3904 536.614 78.2866C535.639 78.1621 534.643 78.0998 533.667 78.1205C533.107 78.1413 532.028 78.3281 531.737 77.6432C531.696 77.5602 531.675 77.4772 531.675 77.3941Z" fill="#001526"/>
<path d="M533.189 107.82C531.903 109.19 528.603 111.826 525.282 111.992C522.584 112.116 517.354 110.477 515.507 109.854C516.503 106.824 516.379 103.192 516.129 100.784C516.129 100.784 522.688 107.301 526.714 106.43C529.765 105.765 531.55 104.52 532.422 104.624C533.314 104.728 534.497 106.45 533.189 107.82Z" fill="#D94921"/>
<path d="M585.823 216.531C583.062 222.197 583.208 223.36 578.87 222.965C574.512 222.571 567.289 223.484 564.217 227.801C561.146 232.118 546.638 238.116 537.922 238.344C529.205 238.572 507.952 235.127 502.411 235.625C496.869 236.123 492.594 235.501 491.598 230.52C491.079 228.008 481.034 227.51 475.928 222.841C471.466 218.773 470.864 198.247 473.002 182.266C473.313 179.9 473.708 177.638 474.123 175.541C474.517 173.653 474.849 171.743 475.16 169.834C476.177 163.525 476.862 157.195 477.941 151.404C478.855 146.548 480.058 142.044 481.968 138.225C483.026 136.108 484.313 134.199 485.89 132.559C488.277 130.048 495.188 125.482 501.249 121.663C505.565 118.944 509.467 116.62 511.024 115.686C511.481 115.416 511.73 115.271 511.73 115.271C511.73 115.271 519.16 117.18 526.175 117.118C533.625 117.035 539.561 115.644 539.561 115.644C539.561 115.644 540.599 116.039 542.321 116.744H542.342C544.667 117.699 548.237 119.214 552.055 121.061C558.51 124.174 565.712 128.201 569.074 131.999C569.738 132.746 570.423 133.701 571.149 134.863C573.163 138.08 575.425 142.791 577.666 148.146C579.845 153.334 582.025 159.104 583.996 164.77C585.511 169.108 586.923 173.404 588.106 177.264C590.223 184.113 591.696 189.696 592.007 192.166C593.087 200.364 588.583 210.865 585.823 216.531Z" fill="#002B4D"/>
<path d="M542.342 116.724C542.342 116.724 523.746 119.629 523.165 119.609C522.604 119.609 511.314 115.769 511.023 115.665C511.148 115.541 513.327 113.507 514.054 111.514C514.137 111.286 514.199 111.058 514.24 110.829C514.655 108.567 514.448 106.637 516.15 106.907C517.852 107.177 522.335 108.235 527.336 108.069C532.317 107.882 537.257 106.865 537.61 107.197C538.378 107.945 538.336 110.041 538.606 111.784C538.689 112.324 538.793 112.822 538.98 113.237C539.665 114.918 542.093 116.578 542.342 116.724C542.321 116.724 542.342 116.724 542.342 116.724Z" fill="#002B4D"/>
<path d="M530.035 93.8317C528.23 95.6166 524.556 95.5751 522.813 93.7487C522.356 93.2921 521.692 94.0392 522.149 94.4958C524.307 96.7373 528.603 96.6335 530.803 94.4958C531.26 94.0392 530.492 93.3959 530.035 93.8317Z" fill="#D94921"/>
<path d="M526.673 82.5206C526.486 81.8979 525.511 82.147 525.697 82.7696C526.113 84.1186 526.652 85.4262 527.047 86.796C527.296 87.6054 527.607 88.1657 527.254 89.0374C527.047 89.5355 526.507 90.1789 526.133 90.594C525.718 91.0921 526.424 91.8185 526.839 91.3204C527.545 90.511 528.582 89.3903 528.499 88.2488C528.375 86.3394 527.233 84.347 526.673 82.5206Z" fill="#D94921"/>
<path d="M552.056 121.04C550.043 121.539 548.071 122.12 546.161 122.638C537.445 125.067 528.915 127.267 519.824 125.772C515.756 125.108 511.875 123.801 507.87 122.888C505.69 122.389 503.47 121.974 501.249 121.642C505.566 118.923 509.468 116.599 511.024 115.665C511.149 115.541 513.328 113.507 514.055 111.514C516.836 112.261 519.596 113.071 522.439 113.527C527.856 114.42 533.294 113.258 538.628 111.763C538.711 112.303 538.814 112.801 539.001 113.216C539.707 114.897 542.135 116.557 542.343 116.703H542.363C544.667 117.678 548.216 119.193 552.056 121.04Z" fill="#001526"/>
<path d="M577.666 148.125C577.313 148.001 576.94 147.897 576.566 147.814C575.072 147.461 572.934 147.44 571.149 147.44C566.915 147.44 562.681 147.772 558.51 148.333C550.084 149.495 541.782 151.487 533.273 151.965C525.241 152.4 517.209 151.778 509.197 151.093C500.875 150.387 492.635 149.599 484.271 150.491C482.155 150.719 480.058 151.01 477.941 151.363C478.855 146.506 480.058 142.003 481.968 138.184C483.587 137.976 485.205 137.81 486.824 137.686C503.656 136.357 520.384 140.757 537.257 139.076C545.808 138.225 554.193 136.046 562.785 135.278C565.546 135.029 568.347 134.821 571.129 134.842C573.162 138.059 575.404 142.77 577.666 148.125Z" fill="#001526"/>
<path d="M545.788 76.9376C545.725 76.7508 545.642 76.564 545.559 76.3772C544.854 74.7584 544.21 73.1603 543.526 71.5207C543.131 70.5868 542.654 69.7981 542.01 69.0717C541.409 68.3868 540.62 67.8264 540.039 67.1C539.541 66.4774 539.167 65.7717 538.669 65.1699C537.714 64.0284 536.511 63.3642 535.224 62.6793C534.477 62.285 533.729 61.9944 533.065 61.4341C532.443 60.9152 531.965 60.1888 531.301 59.7115C529.06 58.0719 526.279 59.3794 523.892 59.753C522.045 60.0435 520.239 59.6907 518.392 59.6077C517.001 59.5454 515.3 59.2756 513.992 59.919C512.083 60.853 511.003 63.1359 510.651 65.2529C510.36 66.9755 510.422 68.7189 509.966 70.4207C509.675 71.5415 509.198 72.5792 508.741 73.6377C506.375 75.1735 503.988 77.0414 504.466 80.2168C504.653 81.3998 505.296 82.7488 506.209 83.5167C507.6 84.679 508.949 83.7243 509.903 82.5205C510.381 81.8979 510.713 80.9847 510.817 80.0508C511.585 79.5527 512.269 78.8055 512.622 78.2244C513.515 76.7301 514.013 74.8829 514.324 73.1395C514.511 72.1641 514.801 71.0019 514.926 69.8604C515.984 70.1302 517.167 70.0264 518.081 69.6943C518.973 69.3623 520.571 68.5113 521.713 67.4321C523.062 68.4698 525.013 68.8434 526.943 68.9057C528.624 68.9472 530.035 69.0509 531.488 70.0264C532.38 70.6283 533.19 71.2509 534.165 71.666C535.245 72.1226 536.178 72.5792 537.133 72.8698C537.424 75.0075 538.524 77.1451 539.956 78.3281C540.392 78.7017 541.18 79.1168 542.031 79.4074C542.052 79.6357 542.114 79.864 542.156 80.0508C542.426 81.3998 543.214 82.9979 544.605 83.1432C544.667 83.1432 544.709 83.1431 544.771 83.1224C545.684 83.3092 546.576 82.4375 546.805 81.5036C547.282 79.7602 546.493 78.3904 545.788 76.9376Z" fill="#001526"/>
<path d="M540.806 81.1924C539.976 79.1169 538.419 78.2867 536.302 78.1415C533.376 77.9547 531.695 78.6396 529.951 81.4207C528.727 80.7773 527.378 80.5075 525.967 80.5282C524.784 80.549 523.621 80.6735 522.48 80.9848C522.314 80.1131 521.172 79.3245 520.425 78.9301C519.553 78.4528 518.557 78.2867 517.582 78.2245C514.365 78.0169 511.729 78.9094 511.459 82.2923C511.189 85.7998 515.174 88.062 518.267 87.3564C520.695 86.8168 522.625 84.7621 522.667 82.3961C523.621 81.9603 525.116 81.9188 525.967 81.898C527.316 81.8773 528.54 82.1471 529.702 82.8527C529.744 82.8735 529.785 82.8735 529.806 82.8942C530.014 86.0489 533.708 88.0205 536.634 87.3564C539.685 86.6923 542.051 84.2848 540.806 81.1924ZM519.616 85.3432C517.644 86.6923 514.738 86.3187 513.369 84.2848C512.414 82.8527 512.767 81.7112 513.95 80.6112C514.988 79.6565 518.578 79.366 520.155 80.7773C521.857 82.2923 521.421 84.1187 519.616 85.3432ZM537.983 85.3225C536.012 86.6715 533.106 86.2979 531.736 84.264C530.782 82.8319 531.467 81.4414 532.65 80.3414C534.227 78.8886 537.07 79.1584 538.648 80.549C540.329 82.0641 539.768 84.098 537.983 85.3225Z" fill="#FFD6B3"/>
</g>
</svg>
