<svg width="153" height="583" viewBox="0 0 153 583" fill="none" xmlns="http://www.w3.org/2000/svg">
<path d="M61.508 524.472C61.5411 523.92 61.121 523.447 60.5697 523.413C60.0184 523.38 59.5447 523.801 59.5116 524.352L61.508 524.472ZM59.6018 514.373C59.6264 514.925 60.0937 515.352 60.6454 515.328C61.1971 515.303 61.6244 514.836 61.5998 514.284L59.6018 514.373ZM61.3259 510.225C61.276 509.675 60.7896 509.27 60.2396 509.32C59.6896 509.37 59.2842 509.856 59.3341 510.406L61.3259 510.225ZM57.8307 500.542C57.9475 501.081 58.4798 501.424 59.0196 501.307C59.5594 501.191 59.9022 500.658 59.7854 500.118L57.8307 500.542ZM58.8207 496.146C58.6769 495.613 58.1282 495.297 57.5949 495.441C57.0616 495.585 56.7458 496.133 56.8896 496.667L58.8207 496.146ZM53.7113 487.208C53.9177 487.72 54.5002 487.968 55.0125 487.762C55.5248 487.555 55.7728 486.973 55.5664 486.46L53.7113 487.208ZM53.9586 482.709C53.7303 482.206 53.1376 481.983 52.6347 482.212C52.1318 482.44 51.9092 483.033 52.1375 483.536L53.9586 482.709ZM47.5745 474.63C47.847 475.11 48.4573 475.279 48.9377 475.006C49.4181 474.734 49.5866 474.124 49.3142 473.643L47.5745 474.63ZM47.2582 470.135C46.9727 469.662 46.358 469.51 45.8852 469.796C45.4124 470.081 45.2607 470.696 45.5462 471.168L47.2582 470.135ZM40.1313 462.698C40.438 463.157 41.0589 463.281 41.5182 462.974C41.9775 462.667 42.1012 462.046 41.7945 461.587L40.1313 462.698ZM39.5296 458.231C39.2188 457.775 38.5967 457.657 38.1402 457.968C37.6837 458.279 37.5657 458.901 37.8765 459.357L39.5296 458.231ZM32.165 451.025C32.4764 451.481 33.0986 451.598 33.5548 451.287C34.0109 450.976 34.1282 450.353 33.8168 449.897L32.165 451.025ZM31.5552 446.561C31.2472 446.102 30.6259 445.98 30.1674 446.288C29.709 446.596 29.587 447.217 29.895 447.676L31.5552 446.561ZM24.3769 439.168C24.6681 439.637 25.2845 439.782 25.7538 439.491C26.2231 439.199 26.3676 438.583 26.0764 438.114L24.3769 439.168ZM23.994 434.68C23.7126 434.205 23.0992 434.048 22.624 434.329C22.1488 434.611 21.9916 435.224 22.273 435.699L23.994 434.68ZM17.3645 426.797C17.6149 427.289 18.217 427.485 18.7092 427.235C19.2015 426.984 19.3975 426.382 19.1471 425.89L17.3645 426.797ZM17.3839 422.296C17.148 421.796 16.552 421.582 16.0526 421.818C15.5532 422.054 15.3395 422.65 15.5754 423.15L17.3839 422.296ZM11.5949 413.786C11.7903 414.303 12.3674 414.563 12.884 414.368C13.4006 414.172 13.6609 413.595 13.4655 413.078L11.5949 413.786ZM12.1116 409.313C11.9334 408.79 11.3652 408.511 10.8424 408.689C10.3197 408.867 10.0404 409.436 10.2187 409.958L12.1116 409.313ZM7.33644 400.195C7.47081 400.731 8.014 401.056 8.54969 400.922C9.08538 400.787 9.41072 400.244 9.27635 399.709L7.33644 400.195ZM8.36002 395.785C8.24315 395.245 7.71083 394.902 7.17106 395.019C6.63128 395.136 6.28844 395.668 6.40531 396.208L8.36002 395.785ZM4.6459 386.213C4.72094 386.761 5.22533 387.143 5.77249 387.068C6.31966 386.993 6.70239 386.489 6.62736 385.942L4.6459 386.213ZM6.18474 382.07C6.14351 381.519 5.66362 381.106 5.11288 381.147C4.56214 381.188 4.14909 381.668 4.19032 382.219L6.18474 382.07ZM4.34009 371.972C4.29291 372.522 4.70075 373.006 5.25101 373.053C5.80128 373.101 6.2856 372.693 6.33278 372.142L4.34009 371.972ZM6.76615 368.099C6.83582 367.552 6.44816 367.051 5.90028 366.981C5.35241 366.912 4.85179 367.299 4.78212 367.847L6.76615 368.099ZM6.44889 357.831C6.3403 358.372 6.69124 358.9 7.23275 359.008C7.77425 359.117 8.30126 358.766 8.40985 358.224L6.44889 357.831ZM9.23578 354.324C9.35569 353.784 9.01587 353.25 8.47676 353.13C7.93765 353.01 7.4034 353.35 7.28349 353.889L9.23578 354.324ZM9.70342 344.03C9.56132 344.564 9.87876 345.112 10.4124 345.254C10.9461 345.396 11.494 345.079 11.6361 344.545L9.70342 344.03ZM12.7207 340.581C12.87 340.049 12.56 339.497 12.0282 339.348C11.4965 339.199 10.9444 339.509 10.7952 340.041L12.7207 340.581ZM13.6592 330.365C13.4956 330.893 13.7906 331.453 14.3181 331.617C14.8456 331.78 15.4058 331.485 15.5694 330.958L13.6592 330.365ZM16.7999 327.055C16.9683 326.529 16.6785 325.966 16.1526 325.798C15.6266 325.63 15.0636 325.919 14.8952 326.445L16.7999 327.055ZM18.0724 316.857C17.8938 317.38 18.1727 317.948 18.6953 318.127C19.2179 318.305 19.7863 318.026 19.9649 317.504L18.0724 316.857ZM21.285 313.683C21.4671 313.162 21.192 312.591 20.6706 312.409C20.1492 312.227 19.5789 312.502 19.3968 313.024L21.285 313.683ZM22.8081 303.485C22.6185 304.004 22.8852 304.578 23.4039 304.768C23.9226 304.957 24.4969 304.691 24.6865 304.172L22.8081 303.485ZM26.0806 300.389C26.2729 299.871 26.0091 299.296 25.4913 299.103C24.9736 298.911 24.398 299.175 24.2057 299.693L26.0806 300.389ZM27.7858 290.222C27.5877 290.737 27.845 291.316 28.3606 291.514C28.8761 291.712 29.4546 291.455 29.6527 290.939L27.7858 290.222ZM31.1112 287.167C31.3114 286.652 31.0564 286.073 30.5417 285.872C30.027 285.672 29.4474 285.927 29.2472 286.442L31.1112 287.167ZM32.9534 277.041C32.7486 277.554 32.9984 278.135 33.5113 278.34C34.0242 278.545 34.606 278.295 34.8108 277.782L32.9534 277.041ZM36.3255 274.007C36.5319 273.494 36.284 272.912 35.7718 272.705C35.2595 272.499 34.6769 272.747 34.4705 273.259L36.3255 274.007ZM38.274 263.921C38.0639 264.432 38.3076 265.016 38.8183 265.227C39.329 265.437 39.9134 265.193 40.1236 264.682L38.274 263.921ZM41.6815 260.91C41.893 260.4 41.6508 259.815 41.1406 259.604C40.6304 259.392 40.0454 259.634 39.8339 260.144L41.6815 260.91ZM43.7199 250.849C43.5054 251.358 43.7441 251.945 44.2531 252.159C44.762 252.374 45.3484 252.135 45.5629 251.626L43.7199 250.849ZM47.1447 247.884C47.3603 247.375 47.1228 246.788 46.6144 246.573C46.1059 246.357 45.5189 246.595 45.3034 247.103L47.1447 247.884ZM49.2683 237.815C49.0503 238.322 49.2849 238.91 49.7924 239.128C50.2998 239.346 50.8879 239.112 51.1059 238.604L49.2683 237.815ZM52.7074 234.886C52.9263 234.379 52.6927 233.79 52.1857 233.571C51.6786 233.352 51.0901 233.586 50.8712 234.093L52.7074 234.886ZM54.8997 224.812C54.6788 225.319 54.9101 225.908 55.4163 226.129C55.9225 226.35 56.5119 226.118 56.7328 225.612L54.8997 224.812ZM58.3513 221.91C58.5729 221.404 58.3424 220.815 57.8365 220.593C57.3307 220.371 56.7409 220.602 56.5193 221.108L58.3513 221.91ZM60.5965 211.84C60.3734 212.345 60.602 212.936 61.1072 213.159C61.6124 213.382 62.2028 213.153 62.426 212.648L60.5965 211.84ZM64.0597 208.955C64.2835 208.45 64.0555 207.86 63.5505 207.636C63.0456 207.412 62.4549 207.64 62.2312 208.145L64.0597 208.955ZM66.3427 198.897C66.1177 199.402 66.3443 199.993 66.8487 200.218C67.3531 200.443 67.9443 200.216 68.1693 199.712L66.3427 198.897ZM69.8171 196.021C70.0425 195.517 69.8165 194.925 69.3123 194.7C68.8081 194.475 68.2166 194.701 67.9912 195.205L69.8171 196.021ZM72.1256 185.979C71.8994 186.483 72.1243 187.074 72.6281 187.301C73.1319 187.527 73.7238 187.302 73.9501 186.798L72.1256 185.979ZM75.6088 183.108C75.8354 182.604 75.6108 182.012 75.1071 181.786C74.6035 181.559 74.0115 181.784 73.7849 182.287L75.6088 183.108ZM77.9402 173.066C77.713 173.569 77.9369 174.162 78.4403 174.389C78.9437 174.616 79.536 174.392 79.7632 173.889L77.9402 173.066ZM81.4231 170.212C81.6504 169.709 81.4267 169.116 80.9234 168.889C80.4201 168.662 79.8278 168.885 79.6004 169.389L81.4231 170.212ZM83.7731 160.158C83.5455 160.662 83.7689 161.254 84.2721 161.482C84.7752 161.709 85.3677 161.486 85.5953 160.983L83.7731 160.158ZM87.2582 157.307C87.4859 156.804 87.2626 156.212 86.7594 155.984C86.2562 155.756 85.6637 155.98 85.4361 156.483L87.2582 157.307ZM89.6108 147.256C89.3831 147.76 89.6065 148.352 90.1097 148.58C90.6129 148.807 91.2054 148.584 91.433 148.081L89.6108 147.256ZM93.0979 144.4C93.3255 143.897 93.102 143.304 92.5988 143.077C92.0955 142.849 91.5031 143.073 91.2756 143.576L93.0979 144.4ZM95.4396 134.359C95.2125 134.862 95.4364 135.454 95.9398 135.681C96.4432 135.909 97.0355 135.685 97.2626 135.181L95.4396 134.359ZM98.9281 131.488C99.155 130.985 98.9308 130.393 98.4273 130.166C97.9238 129.939 97.3317 130.163 97.1047 130.667L98.9281 131.488ZM101.246 121.461C101.02 121.965 101.245 122.556 101.749 122.782C102.253 123.009 102.844 122.784 103.07 122.28L101.246 121.461ZM104.734 118.569C104.96 118.065 104.734 117.474 104.23 117.248C103.726 117.022 103.135 117.248 102.909 117.752L104.734 118.569ZM107.015 108.555C106.79 109.06 107.017 109.651 107.522 109.875C108.027 110.1 108.618 109.873 108.842 109.368L107.015 108.555ZM110.5 105.635C110.724 105.13 110.496 104.539 109.992 104.316C109.487 104.092 108.896 104.32 108.672 104.824L110.5 105.635ZM112.731 95.629C112.508 96.1347 112.738 96.7246 113.244 96.9467C113.75 97.1687 114.34 96.9388 114.562 96.4331L112.731 95.629ZM116.208 92.6748C116.429 92.1687 116.198 91.5792 115.692 91.358C115.186 91.1369 114.597 91.3679 114.375 91.8739L116.208 92.6748ZM118.373 82.665C118.154 83.1722 118.388 83.7605 118.895 83.979C119.403 84.1976 119.991 83.9636 120.209 83.4563L118.373 82.665ZM121.834 79.6724C122.052 79.1647 121.816 78.5769 121.308 78.3597C120.801 78.1424 120.213 78.3779 119.996 78.8856L121.834 79.6724ZM123.913 69.6399C123.7 70.1492 123.94 70.7352 124.449 70.9488C124.958 71.1623 125.544 70.9225 125.758 70.4132L123.913 69.6399ZM127.345 66.6091C127.557 66.099 127.315 65.5139 126.805 65.3022C126.295 65.0904 125.709 65.3323 125.498 65.8424L127.345 66.6091ZM129.308 56.5294C129.102 57.0417 129.35 57.6242 129.862 57.8305C130.374 58.0368 130.957 57.7887 131.163 57.2764L129.308 56.5294ZM132.685 53.4681C132.889 52.9547 132.638 52.3734 132.124 52.1699C131.611 51.9663 131.029 52.2174 130.826 52.7308L132.685 53.4681ZM134.474 43.3198C134.279 43.8364 134.54 44.4135 135.056 44.6087C135.573 44.8039 136.15 44.5434 136.345 44.0267L134.474 43.3198ZM137.755 40.2508C137.946 39.7326 137.681 39.1577 137.163 38.9667C136.644 38.7757 136.069 39.0409 135.878 39.5591L137.755 40.2508ZM139.249 30.0467C139.072 30.5699 139.352 31.1374 139.876 31.3143C140.399 31.4911 140.966 31.2104 141.143 30.6872L139.249 30.0467ZM142.404 26.8678C142.573 26.3421 142.284 25.7788 141.759 25.6096C141.233 25.4404 140.67 25.7294 140.5 26.2551L142.404 26.8678ZM143.36 16.5489C143.22 17.0832 143.54 17.6296 144.074 17.7694C144.609 17.9092 145.155 17.5894 145.295 17.0551L143.36 16.5489ZM146.244 13.1682C146.365 12.6294 146.027 12.0943 145.488 11.9731C144.949 11.8518 144.414 12.1903 144.293 12.7291L146.244 13.1682ZM145.735 2.83895C145.72 3.39102 146.155 3.85065 146.707 3.86552C147.259 3.88045 147.719 3.44493 147.734 2.89286L145.735 2.83895ZM61.364 526.54C61.4191 525.844 61.4671 525.155 61.508 524.472L59.5116 524.352C59.4714 525.022 59.4243 525.699 59.3702 526.382L61.364 526.54ZM61.5998 514.284C61.5384 512.907 61.4466 511.555 61.3259 510.225L59.3341 510.406C59.452 511.705 59.5417 513.027 59.6018 514.373L61.5998 514.284ZM59.7854 500.118C59.4937 498.771 59.1714 497.448 58.8207 496.146L56.8896 496.667C57.2317 497.936 57.5461 499.227 57.8307 500.542L59.7854 500.118ZM55.5664 486.46C55.0553 485.192 54.5186 483.942 53.9586 482.709L52.1375 483.536C52.6861 484.744 53.2114 485.967 53.7113 487.208L55.5664 486.46ZM49.3142 473.643C48.6453 472.464 47.9591 471.295 47.2582 470.135L45.5462 471.168C46.2386 472.315 46.9155 473.468 47.5745 474.63L49.3142 473.643ZM41.7945 461.587C41.0471 460.468 40.2912 459.35 39.5296 458.231L37.8765 459.357C38.6357 460.472 39.388 461.585 40.1313 462.698L41.7945 461.587ZM33.8168 449.897C33.0622 448.792 32.3077 447.681 31.5552 446.561L29.895 447.676C30.6511 448.801 31.4086 449.917 32.165 451.025L33.8168 449.897ZM26.0764 438.114C25.3749 436.983 24.6801 435.839 23.994 434.68L22.273 435.699C22.9668 436.871 23.6687 438.027 24.3769 439.168L26.0764 438.114ZM19.1471 425.89C18.5469 424.71 17.9587 423.513 17.3839 422.296L15.5754 423.15C16.1589 424.385 16.7558 425.6 17.3645 426.797L19.1471 425.89ZM13.4655 413.078C12.9987 411.844 12.547 410.59 12.1116 409.313L10.2187 409.958C10.6612 411.256 11.1204 412.532 11.5949 413.786L13.4655 413.078ZM9.27635 399.709C8.95385 398.423 8.64806 397.115 8.36002 395.785L6.40531 396.208C6.69795 397.56 7.00868 398.889 7.33644 400.195L9.27635 399.709ZM6.62736 385.942C6.53586 385.274 6.44867 384.602 6.3659 383.923L4.38063 384.166C4.46459 384.854 4.55305 385.536 4.6459 386.213L6.62736 385.942ZM6.3659 383.923C6.29265 383.323 6.23231 382.705 6.18474 382.07L4.19032 382.219C4.24008 382.884 4.30339 383.533 4.38063 384.166L6.3659 383.923ZM6.33278 372.142C6.44472 370.837 6.58949 369.489 6.76615 368.099L4.78212 367.847C4.6023 369.261 4.45454 370.637 4.34009 371.972L6.33278 372.142ZM8.40985 358.224C8.66569 356.949 8.94118 355.648 9.23578 354.324L7.28349 353.889C6.98603 355.227 6.70763 356.541 6.44889 357.831L8.40985 358.224ZM11.6361 344.545C11.9831 343.242 12.3448 341.92 12.7207 340.581L10.7952 340.041C10.417 341.388 10.0529 342.718 9.70342 344.03L11.6361 344.545ZM15.5694 330.958C15.9688 329.67 16.3791 328.369 16.7999 327.055L14.8952 326.445C14.4726 327.765 14.0605 329.072 13.6592 330.365L15.5694 330.958ZM19.9649 317.504C20.3968 316.24 20.8369 314.966 21.285 313.683L19.3968 313.024C18.9473 314.311 18.5057 315.589 18.0724 316.857L19.9649 317.504ZM24.6865 304.172C25.1447 302.919 25.6095 301.658 26.0806 300.389L24.2057 299.693C23.7335 300.964 23.2675 302.229 22.8081 303.485L24.6865 304.172ZM29.6527 290.939C30.1336 289.688 30.6199 288.43 31.1112 287.167L29.2472 286.442C28.7549 287.708 28.2677 288.968 27.7858 290.222L29.6527 290.939ZM34.8108 277.782C35.3114 276.529 35.8163 275.27 36.3255 274.007L34.4705 273.259C33.9605 274.524 33.4548 275.785 32.9534 277.041L34.8108 277.782ZM40.1236 264.682C40.6393 263.429 41.1587 262.171 41.6815 260.91L39.8339 260.144C39.3105 261.407 38.7905 262.666 38.274 263.921L40.1236 264.682ZM45.5629 251.626C46.0874 250.381 46.6147 249.134 47.1447 247.884L45.3034 247.103C44.7728 248.355 44.2449 249.603 43.7199 250.849L45.5629 251.626ZM51.1059 238.604C51.6375 237.367 52.1714 236.127 52.7074 234.886L50.8712 234.093C50.3348 235.335 49.8004 236.576 49.2683 237.815L51.1059 238.604ZM56.7328 225.612C57.2707 224.38 57.8102 223.146 58.3513 221.91L56.5193 221.108C55.9779 222.344 55.4379 223.579 54.8997 224.812L56.7328 225.612ZM62.426 212.648C62.9694 211.418 63.514 210.187 64.0597 208.955L62.2312 208.145C61.6852 209.377 61.1403 210.609 60.5965 211.84L62.426 212.648ZM68.1693 199.712C68.7179 198.482 69.2672 197.251 69.8171 196.021L67.9912 195.205C67.4411 196.436 66.8916 197.666 66.3427 198.897L68.1693 199.712ZM73.9501 186.798C74.5028 185.568 75.0558 184.337 75.6088 183.108L73.7849 182.287C73.2317 183.517 72.6785 184.748 72.1256 185.979L73.9501 186.798ZM79.7632 173.889C80.3168 172.662 80.8701 171.436 81.4231 170.212L79.6004 169.389C79.0473 170.613 78.4939 171.839 77.9402 173.066L79.7632 173.889ZM85.5953 160.983C86.1504 159.756 86.7047 158.53 87.2582 157.307L85.4361 156.483C84.8826 157.706 84.3282 158.931 83.7731 160.158L85.5953 160.983ZM91.433 148.081C91.9893 146.851 92.5443 145.624 93.0979 144.4L91.2756 143.576C90.722 144.8 90.167 146.027 89.6108 147.256L91.433 148.081ZM97.2626 135.181C97.8197 133.947 98.3749 132.716 98.9281 131.488L97.1047 130.667C96.5516 131.894 95.9966 133.124 95.4396 134.359L97.2626 135.181ZM103.07 122.28C103.628 121.038 104.182 119.802 104.734 118.569L102.909 117.752C102.357 118.984 101.803 120.22 101.246 121.461L103.07 122.28ZM108.842 109.368C109.398 108.118 109.951 106.874 110.5 105.635L108.672 104.824C108.123 106.062 107.571 107.306 107.015 108.555L108.842 109.368ZM114.562 96.4331C115.115 95.1733 115.664 93.9204 116.208 92.6748L114.375 91.8739C113.832 93.1184 113.283 94.3702 112.731 95.629L114.562 96.4331ZM120.209 83.4563C120.757 82.1861 121.298 80.9247 121.834 79.6724L119.996 78.8856C119.46 80.1363 118.919 81.3962 118.373 82.665L120.209 83.4563ZM125.758 70.4132C126.294 69.1338 126.823 67.8656 127.345 66.6091L125.498 65.8424C124.977 67.0967 124.449 68.3626 123.913 69.6399L125.758 70.4132ZM131.163 57.2764C131.68 55.9922 132.188 54.7226 132.685 53.4681L130.826 52.7308C130.33 53.982 129.824 55.2483 129.308 56.5294L131.163 57.2764ZM136.345 44.0267C136.828 42.7485 137.298 41.4897 137.755 40.2508L135.878 39.5591C135.424 40.7926 134.956 42.0464 134.474 43.3198L136.345 44.0267ZM141.143 30.6872C141.583 29.3849 142.004 28.1115 142.404 26.8678L140.5 26.2551C140.103 27.4888 139.686 28.753 139.249 30.0467L141.143 30.6872ZM145.295 17.0551C145.647 15.7077 145.964 14.4113 146.244 13.1682L144.293 12.7291C144.019 13.9473 143.707 15.2212 143.36 16.5489L145.295 17.0551ZM147.734 2.89286C147.752 2.21178 147.746 1.56234 147.712 0.946084L145.715 1.05451C145.745 1.60994 145.752 2.20482 145.735 2.83895L147.734 2.89286Z" fill="#28334C" fill-opacity="0.16"/>
<mask id="mask0_566_810" style="mask-type:alpha" maskUnits="userSpaceOnUse" x="7" y="472" width="108" height="109">
<circle cx="61" cy="526.96" r="54" fill="#C4C4C4"/>
</mask>
<g mask="url(#mask0_566_810)">
<path d="M-34 484.96C-34 473.914 -25.0457 464.96 -14 464.96H136C147.046 464.96 156 473.914 156 484.96V587.96H-34V484.96Z" fill="#858FA9"/>
<g style="mix-blend-mode:color">
<path d="M-34 484.96C-34 473.914 -25.0457 464.96 -14 464.96H136C147.046 464.96 156 473.914 156 484.96V587.96H-34V484.96Z" fill="#858FA9"/>
</g>
<path d="M61.5066 583.973C93.8189 583.973 120.013 557.779 120.013 525.467C120.013 493.154 93.8189 466.96 61.5066 466.96C29.1943 466.96 3 493.154 3 525.467C3 557.779 29.1943 583.973 61.5066 583.973Z" fill="#CBCDEB"/>
<path d="M82.7802 512.64C82.6557 511.354 82.0953 510.129 81.8462 508.863C82.3236 507.41 82.5519 505.812 82.5519 504.691C82.5311 503.176 82.365 500.935 81.5764 499.69C81.0368 498.839 80.0821 497.822 79.1066 497.573C78.9613 497.427 78.8368 497.261 78.7123 497.116C78.8161 493.795 77.986 490.371 75.1219 488.544C72.7766 487.05 70.0162 486.22 67.3596 487.05C66.6332 484.663 64.8069 482.858 62.3164 482.38C60.5938 482.048 58.8296 482.214 57.2108 483.003C55.3844 483.916 54.2429 485.141 53.309 486.78C48.7223 486.448 43.9903 488.877 41.8941 493.422C41.2922 494.729 40.9394 496.141 40.8564 497.593C40.7941 498.984 41.5413 500.707 41.0016 501.848C40.3998 503.135 39.6318 503.965 39.6318 505.542C39.6318 506.788 39.9847 508.199 40.7526 509.174C40.2545 510.523 40.0469 511.955 40.1922 513.325C40.3997 515.172 42.3922 520.112 44.7374 520.07C44.7582 520.257 44.7789 520.444 44.7997 520.61C44.8205 521.253 44.7582 521.897 44.9242 522.54C45.0902 523.267 45.4223 523.972 45.7544 524.595C46.2732 525.529 47.0204 526.172 47.8713 526.691C48.909 527.314 52.0014 528.808 52.6448 526.836C52.7278 526.608 52.5618 526.297 52.3543 526.234C51.8147 526.089 51.2335 526.297 50.6731 526.193C49.9467 526.089 49.2204 525.778 48.5562 525.383C48.7638 525.404 48.9505 525.363 49.1166 525.259C49.843 525.404 50.5902 525.363 51.3581 525.467C52.6864 525.633 53.9732 526.068 55.3014 526.297C57.0448 526.587 58.7881 526.712 60.5107 527.148C60.5937 527.168 60.6975 527.189 60.7806 527.21C63.8107 530.157 69.103 530.697 72.7973 528.933C73.1294 528.766 73.4822 528.58 73.8558 528.331C74.8313 527.957 75.7444 527.459 76.5123 526.899C77.6953 526.027 78.7123 523.993 78.6915 522.187C78.7746 521.648 78.7746 521.108 78.6501 520.589C79.418 520.008 80.1236 519.282 80.6632 518.638C82.1783 516.916 83.0292 514.986 82.7802 512.64Z" fill="#001526"/>
<path d="M45.3594 506.85C45.3594 506.85 46.1895 525.28 47.8914 530.095C49.531 534.723 58.3516 540.846 60.9874 540.991C65.0138 541.219 72.8797 534.765 74.5608 531.506C76.8022 527.168 78.1512 509.735 78.1512 509.735L63.3326 495.892L47.5801 497.075L45.3594 506.85Z" fill="#FF6B42"/>
<path d="M83.9421 558.03C83.9421 558.03 70.6384 581.607 69.3309 583.06C68.0234 584.513 62.5236 585.26 60.9047 585.26C59.2651 585.26 53.4331 580.051 52.935 579.013C52.4368 577.975 36.8711 557.947 36.8711 557.947C36.8711 557.947 45.6087 551.057 49.1577 546.449C49.7388 545.681 50.1954 544.789 50.5068 543.813C51.503 540.783 51.3577 537.068 51.1086 534.661C50.9426 533.166 50.7557 532.191 50.7557 532.191L71.3441 531.485C71.3441 531.485 70.9498 539.766 72.4026 545.536C73.8554 551.306 83.9421 558.03 83.9421 558.03Z" fill="#FF6B42"/>
<path d="M46.2111 512.744C46.0866 512.703 44.3018 511.955 42.7244 512.703C41.1471 513.45 41.6659 517.621 42.6414 519.303C44.4885 522.499 47.3526 522.685 47.3526 522.685L46.2111 512.744Z" fill="#FF6B42"/>
<path d="M76.6575 513.159C76.782 513.118 78.5876 512.433 80.1441 513.201C81.7007 513.969 81.0781 518.14 80.0611 519.801C78.131 522.935 75.2461 523.059 75.2461 523.059L76.6575 513.159Z" fill="#FF6B42"/>
<path d="M53.0394 515.65C52.7695 514.737 51.7111 514.923 51.6073 515.837C51.5451 516.356 51.5243 517.331 52.064 517.642C52.4998 517.891 52.9148 517.559 53.0601 517.165C53.1431 516.854 53.1846 516.169 53.0394 515.65Z" fill="black"/>
<path d="M71.1165 515.421C70.8467 514.508 69.7882 514.695 69.6845 515.608C69.6222 516.127 69.6015 517.102 70.1411 517.414C70.577 517.663 70.992 517.331 71.1373 516.936C71.2203 516.646 71.2618 515.94 71.1165 515.421Z" fill="black"/>
<path d="M55.4884 511.167C55.53 510.129 52.3753 510.025 51.7527 510.067C50.798 510.108 49.8017 510.254 48.9093 510.586C48.4319 510.752 46.3773 511.769 47.8508 512.059C49.4489 512.371 50.9432 511.665 52.5205 511.81C53.3299 511.893 55.0526 512.205 55.4054 511.437C55.447 511.333 55.4677 511.25 55.4884 511.167Z" fill="#001526"/>
<path d="M66.6749 511.354C66.6542 510.295 69.8088 510.254 70.4315 510.295C71.3862 510.357 72.3824 510.523 73.2541 510.876C73.7314 511.063 75.7654 512.122 74.2918 512.391C73.3994 512.557 72.5068 512.35 71.6144 512.246C70.639 512.122 69.6428 512.059 68.6673 512.08C68.107 512.101 67.0277 512.288 66.7371 511.603C66.6956 511.52 66.6749 511.437 66.6749 511.354Z" fill="#001526"/>
<path d="M68.1895 541.779C66.9027 543.149 63.6029 545.785 60.2822 545.951C57.5841 546.076 52.354 544.436 50.5068 543.813C51.503 540.783 51.3785 537.151 51.1295 534.744C51.1295 534.744 57.6878 541.261 61.7142 540.389C64.7651 539.725 66.55 538.479 67.4216 538.583C68.3141 538.687 69.497 540.41 68.1895 541.779Z" fill="#D94921"/>
<path d="M120.823 650.491C118.062 656.157 118.208 657.319 113.87 656.925C109.512 656.531 102.289 657.444 99.2173 661.761C96.1457 666.078 81.6384 672.076 72.9216 672.304C64.2048 672.532 42.9523 669.087 37.4109 669.585C31.8694 670.083 27.594 669.461 26.5978 664.479C26.079 661.968 16.0338 661.47 10.9283 656.8C6.46608 652.733 5.86423 632.206 8.00193 616.226C8.31325 613.86 8.70756 611.597 9.12265 609.501C9.51698 607.613 9.84905 605.703 10.1604 603.794C11.1773 597.484 11.8623 591.154 12.9415 585.364C13.8547 580.507 15.0584 576.004 16.9678 572.185C18.0263 570.068 19.313 568.158 20.8904 566.519C23.2771 564.008 30.1883 559.442 36.2486 555.623C40.5655 552.904 44.4673 550.58 46.0239 549.646C46.4805 549.376 46.7295 549.23 46.7295 549.23C46.7295 549.23 54.1596 551.14 61.1746 551.078C68.6254 550.995 74.5612 549.604 74.5612 549.604C74.5612 549.604 75.5988 549.998 77.3215 550.704H77.3422C79.6667 551.659 83.2365 553.174 87.0553 555.021C93.5099 558.134 100.712 562.16 104.074 565.958C104.738 566.706 105.423 567.66 106.149 568.823C108.163 572.04 110.425 576.751 112.666 582.105C114.845 587.294 117.025 593.064 118.996 598.73C120.511 603.067 121.923 607.363 123.106 611.224C125.223 618.073 126.696 623.656 127.007 626.125C128.087 634.323 123.583 644.825 120.823 650.491Z" fill="#002B4D"/>
<path d="M77.3418 550.683C77.3418 550.683 58.7459 553.589 58.1647 553.568C57.6044 553.568 46.314 549.729 46.0234 549.625C46.148 549.5 48.3272 547.466 49.0536 545.474C49.1366 545.246 49.1989 545.017 49.2404 544.789C49.6555 542.527 49.4479 540.597 51.1498 540.867C52.8517 541.136 57.3346 542.195 62.3364 542.029C67.3174 541.842 72.257 540.825 72.6098 541.157C73.3777 541.904 73.3362 544 73.606 545.744C73.689 546.283 73.7928 546.782 73.9796 547.197C74.6645 548.878 77.0927 550.538 77.3418 550.683C77.3418 550.683 77.321 550.683 77.3418 550.683Z" fill="#002B4D"/>
<path d="M65.0353 527.791C63.2296 529.576 59.556 529.534 57.8127 527.708C57.3561 527.251 56.692 527.998 57.1486 528.455C59.3071 530.697 63.6031 530.593 65.8031 528.455C66.2597 527.998 65.4919 527.355 65.0353 527.791Z" fill="#D94921"/>
<path d="M61.6729 516.48C61.4861 515.857 60.5107 516.106 60.6975 516.729C61.1126 518.078 61.6522 519.385 62.0465 520.755C62.2956 521.565 62.6069 522.125 62.2541 522.997C62.0465 523.495 61.5068 524.138 61.1332 524.553C60.7181 525.051 61.4239 525.778 61.839 525.28C62.5446 524.47 63.5823 523.349 63.4993 522.208C63.3748 520.299 62.2332 518.306 61.6729 516.48Z" fill="#D94921"/>
<path d="M87.0558 555C85.0426 555.498 83.0709 556.079 81.1615 556.598C72.4446 559.026 63.9146 561.226 54.8242 559.732C50.7563 559.068 46.8753 557.76 42.8697 556.847C40.6905 556.349 38.4697 555.934 36.249 555.602C40.5659 552.883 44.4678 550.558 46.0244 549.625C46.1489 549.5 48.3281 547.466 49.0545 545.474C51.8356 546.221 54.5959 547.03 57.4393 547.487C62.8561 548.379 68.2938 547.217 73.6277 545.723C73.7107 546.262 73.8144 546.76 74.0012 547.175C74.7069 548.857 77.1351 550.517 77.3427 550.662H77.3635C79.6672 551.638 83.2162 553.153 87.0558 555Z" fill="#001526"/>
<path d="M112.666 582.085C112.313 581.96 111.94 581.856 111.566 581.773C110.072 581.42 107.934 581.4 106.149 581.4C101.915 581.4 97.6814 581.732 93.5098 582.292C85.0835 583.454 76.7819 585.447 68.2726 585.924C60.2406 586.36 52.2086 585.737 44.1975 585.052C35.875 584.347 27.6355 583.558 19.2715 584.451C17.1545 584.679 15.0584 584.969 12.9414 585.322C13.8546 580.466 15.0583 575.962 16.9677 572.143C18.5866 571.936 20.2054 571.77 21.8242 571.645C38.656 570.317 55.3841 574.717 72.2574 573.036C80.8082 572.185 89.1929 570.005 97.7852 569.238C100.546 568.989 103.347 568.781 106.129 568.802C108.162 572.019 110.404 576.73 112.666 582.085Z" fill="#001526"/>
<path d="M80.7877 510.897C80.7255 510.71 80.6424 510.523 80.5594 510.337C79.8538 508.718 79.2104 507.12 78.5255 505.48C78.1312 504.546 77.6538 503.758 77.0104 503.031C76.4085 502.346 75.6198 501.786 75.0387 501.06C74.5406 500.437 74.1671 499.731 73.669 499.129C72.7143 497.988 71.5105 497.324 70.2238 496.639C69.4766 496.244 68.7295 495.954 68.0653 495.394C67.4427 494.875 66.9654 494.148 66.3012 493.671C64.0597 492.031 61.2786 493.339 58.8919 493.712C57.0447 494.003 55.2391 493.65 53.392 493.567C52.0014 493.505 50.2996 493.235 48.992 493.878C47.0826 494.812 46.0034 497.095 45.6506 499.212C45.36 500.935 45.4223 502.678 44.9657 504.38C44.6751 505.501 44.1978 506.539 43.7412 507.597C41.3752 509.133 38.9884 511.001 39.4657 514.176C39.6525 515.359 40.296 516.708 41.2091 517.476C42.5997 518.638 43.9487 517.684 44.9034 516.48C45.3808 515.857 45.7128 514.944 45.8166 514.01C46.5845 513.512 47.2694 512.765 47.6222 512.184C48.5147 510.69 49.0128 508.842 49.3241 507.099C49.5109 506.124 49.8014 504.961 49.9259 503.82C50.9844 504.09 52.1674 503.986 53.0806 503.654C53.9731 503.322 55.5712 502.471 56.7127 501.392C58.0617 502.429 60.0126 502.803 61.9428 502.865C63.6239 502.907 65.0352 503.01 66.488 503.986C67.3804 504.588 68.1898 505.21 69.1653 505.625C70.2445 506.082 71.1784 506.539 72.1331 506.829C72.4237 508.967 73.5237 511.105 74.9557 512.288C75.3916 512.661 76.1802 513.076 77.0312 513.367C77.0519 513.595 77.1142 513.823 77.1557 514.01C77.4255 515.359 78.2141 516.957 79.6047 517.103C79.6669 517.103 79.7085 517.103 79.7708 517.082C80.684 517.269 81.5764 516.397 81.8047 515.463C82.282 513.72 81.4934 512.35 80.7877 510.897Z" fill="#001526"/>
<path d="M75.8059 515.152C74.9758 513.076 73.4192 512.246 71.3022 512.101C68.3758 511.914 66.6948 512.599 64.9515 515.38C63.7269 514.737 62.3779 514.467 60.9666 514.488C59.7836 514.508 58.6214 514.633 57.4799 514.944C57.3138 514.073 56.1723 513.284 55.4251 512.89C54.5534 512.412 53.5573 512.246 52.5818 512.184C49.3649 511.976 46.7291 512.869 46.4593 516.252C46.1895 519.759 50.1743 522.022 53.2667 521.316C55.6949 520.776 57.6251 518.722 57.6666 516.356C58.6214 515.92 60.1156 515.878 60.9666 515.857C62.3156 515.837 63.5401 516.107 64.7024 516.812C64.7439 516.833 64.7854 516.833 64.8061 516.854C65.0137 520.008 68.7079 521.98 71.6343 521.316C74.6852 520.652 77.0512 518.244 75.8059 515.152ZM54.6157 519.303C52.6441 520.652 49.7385 520.278 48.3687 518.244C47.414 516.812 47.7668 515.671 48.9498 514.571C49.9875 513.616 53.578 513.325 55.1554 514.737C56.8572 516.252 56.4213 518.078 54.6157 519.303ZM72.9833 519.282C71.0117 520.631 68.106 520.257 66.7362 518.223C65.7815 516.791 66.4665 515.401 67.6495 514.301C69.2269 512.848 72.0702 513.118 73.6475 514.508C75.3286 516.024 74.7682 518.057 72.9833 519.282Z" fill="#FFD6B3"/>
</g>
</svg>
