<svg width="173" height="584" viewBox="0 0 173 584" fill="none" xmlns="http://www.w3.org/2000/svg">
<path d="M51.6175 521.055C51.8251 520.543 51.5784 519.96 51.0666 519.752C50.5548 519.545 49.9717 519.791 49.7641 520.303L51.6175 521.055ZM53.5411 510.913C53.3365 511.426 53.5865 512.008 54.0995 512.213C54.6125 512.417 55.1942 512.167 55.3988 511.654L53.5411 510.913ZM56.8585 507.982C57.0619 507.468 56.8105 506.887 56.297 506.684C55.7836 506.48 55.2024 506.732 54.9991 507.245L56.8585 507.982ZM58.7035 497.803C58.5035 498.318 58.7587 498.897 59.2735 499.097C59.7883 499.297 60.3678 499.042 60.5678 498.527L58.7035 497.803ZM62.0088 494.802C62.2074 494.287 61.9506 493.708 61.4352 493.509C60.9199 493.311 60.3411 493.568 60.1426 494.083L62.0088 494.802ZM63.7297 484.669C63.535 485.186 63.7962 485.762 64.313 485.957C64.8299 486.152 65.4066 485.891 65.6013 485.374L63.7297 484.669ZM67.0143 481.604C67.2073 481.087 66.9443 480.511 66.4268 480.318C65.9093 480.125 65.3334 480.388 65.1404 480.905L67.0143 481.604ZM68.608 471.485C68.4195 472.004 68.6875 472.578 69.2067 472.767C69.7258 472.955 70.2994 472.687 70.4879 472.168L68.608 471.485ZM71.8612 468.364C72.0477 467.844 71.7775 467.271 71.2577 467.085C70.7378 466.898 70.1652 467.168 69.9787 467.688L71.8612 468.364ZM73.3181 458.233C73.1369 458.755 73.413 459.324 73.9347 459.506C74.4564 459.687 75.0262 459.411 75.2074 458.889L73.3181 458.233ZM76.5268 455.063C76.7057 454.541 76.4272 453.972 75.9046 453.793C75.3821 453.614 74.8135 453.893 74.6347 454.416L76.5268 455.063ZM77.8289 444.901C77.6564 445.426 77.9418 445.991 78.4665 446.164C78.9911 446.336 79.5563 446.051 79.7288 445.526L77.8289 444.901ZM80.9775 441.695C81.1473 441.169 80.8588 440.606 80.3333 440.436C79.8077 440.266 79.2441 440.555 79.0743 441.08L80.9775 441.695ZM82.0954 431.493C81.9334 432.021 82.23 432.58 82.758 432.742C83.286 432.904 83.8453 432.608 84.0074 432.08L82.0954 431.493ZM85.1655 428.263C85.3242 427.734 85.024 427.176 84.495 427.018C83.966 426.859 83.4085 427.159 83.2498 427.688L85.1655 428.263ZM86.0565 418.026C85.9073 418.557 86.2174 419.109 86.7492 419.259C87.2809 419.408 87.8329 419.098 87.9821 418.566L86.0565 418.026ZM89.0431 414.727C89.1881 414.194 88.8737 413.645 88.3408 413.5C87.8079 413.355 87.2583 413.669 87.1133 414.202L89.0431 414.727ZM89.6431 404.494C89.5099 405.03 89.8364 405.573 90.3724 405.706C90.9083 405.839 91.4508 405.512 91.584 404.977L89.6431 404.494ZM92.5526 400.994C92.6804 400.457 92.3485 399.918 91.8112 399.79C91.2739 399.662 90.7347 399.994 90.6069 400.531L92.5526 400.994ZM92.7946 390.747C92.6818 391.288 93.0287 391.817 93.5693 391.93C94.11 392.043 94.6397 391.696 94.7525 391.155L92.7946 390.747ZM95.5387 387.268C95.6448 386.726 95.2914 386.201 94.7494 386.095C94.2074 385.988 93.682 386.342 93.5759 386.884L95.5387 387.268ZM95.3392 376.971C95.2524 377.517 95.6243 378.029 96.1697 378.116C96.7151 378.203 97.2276 377.831 97.3144 377.285L95.3392 376.971ZM97.9176 373.289C97.9957 372.742 97.6157 372.236 97.0689 372.158C96.5222 372.08 96.0157 372.459 95.9377 373.006L97.9176 373.289ZM97.1326 363.089C97.0792 363.638 97.4815 364.127 98.0312 364.181C98.5809 364.234 99.0698 363.832 99.1233 363.282L97.1326 363.089ZM99.476 359.23C99.5183 358.679 99.1062 358.198 98.5555 358.156C98.0049 358.114 97.5242 358.526 97.4819 359.077L99.476 359.23ZM97.9769 349.098C97.9651 349.65 98.4031 350.107 98.9553 350.119C99.5075 350.13 99.9646 349.692 99.9764 349.14L97.9769 349.098ZM100.015 345.106C100.013 344.554 99.5644 344.107 99.0121 344.108C98.4599 344.11 98.0133 344.559 98.0147 345.111L100.015 345.106ZM97.6798 335.107C97.7155 335.659 98.1912 336.076 98.7424 336.041C99.2935 336.005 99.7113 335.529 99.6756 334.978L97.6798 335.107ZM99.3641 330.946C99.3147 330.396 98.8288 329.99 98.2788 330.039C97.7287 330.089 97.3227 330.574 97.3721 331.125L99.3641 330.946ZM96.1892 321.202C96.2697 321.749 96.7778 322.126 97.3242 322.046C97.8706 321.965 98.2483 321.457 98.1679 320.911L96.1892 321.202ZM97.5409 316.924C97.45 316.379 96.9347 316.011 96.39 316.102C95.8452 316.193 95.4773 316.708 95.5682 317.253L97.5409 316.924ZM93.7323 307.395C93.8416 307.937 94.3692 308.287 94.9105 308.177C95.4519 308.068 95.802 307.541 95.6926 306.999L93.7323 307.395ZM94.879 303.053C94.7657 302.512 94.2356 302.166 93.6951 302.28C93.1546 302.393 92.8082 302.923 92.9216 303.463L94.879 303.053ZM90.8308 293.631C90.9452 294.171 91.4759 294.517 92.0162 294.402C92.5565 294.288 92.9018 293.757 92.7874 293.217L90.8308 293.631ZM91.9653 289.289C91.8536 288.748 91.3247 288.4 90.7838 288.512C90.2429 288.623 89.8949 289.152 90.0066 289.693L91.9653 289.289ZM88.0765 279.799C88.1751 280.343 88.6955 280.703 89.2389 280.605C89.7824 280.506 90.143 279.986 90.0444 279.442L88.0765 279.799ZM89.3502 275.47C89.2587 274.925 88.743 274.558 88.1984 274.649C87.6537 274.741 87.2863 275.256 87.3778 275.801L89.3502 275.47ZM85.8903 265.844C85.9616 266.391 86.4634 266.778 87.011 266.706C87.5587 266.635 87.9449 266.133 87.8736 265.586L85.8903 265.844ZM87.4157 261.669C87.3648 261.119 86.8777 260.715 86.3277 260.766C85.7778 260.817 85.3733 261.304 85.4243 261.854L87.4157 261.669ZM85.1312 251.841C85.1166 252.393 85.5522 252.853 86.1043 252.867C86.6564 252.882 87.1159 252.446 87.1305 251.894L85.1312 251.841ZM87.3083 247.982C87.3433 247.43 86.9248 246.955 86.3736 246.92C85.8224 246.885 85.3473 247.304 85.3123 247.855L87.3083 247.982ZM86.3273 237.942C86.2519 238.489 86.6343 238.994 87.1814 239.069C87.7285 239.145 88.2332 238.762 88.3085 238.215L86.3273 237.942ZM88.898 234.291C88.9865 233.746 88.6163 233.232 88.0711 233.144C87.526 233.055 87.0123 233.426 86.9239 233.971L88.898 234.291ZM88.7638 224.217C88.6487 224.758 88.9933 225.289 89.5334 225.404C90.0736 225.519 90.6048 225.174 90.7199 224.634L88.7638 224.217ZM91.5738 220.784C91.6977 220.246 91.3619 219.709 90.8237 219.585C90.2855 219.461 89.7487 219.797 89.6248 220.335L91.5738 220.784ZM92.0313 210.685C91.8887 211.219 92.2056 211.767 92.7391 211.91C93.2727 212.052 93.8208 211.735 93.9634 211.202L92.0313 210.685ZM95.0033 207.403C95.1523 206.871 94.8419 206.319 94.31 206.17C93.7782 206.021 93.2263 206.332 93.0774 206.863L95.0033 207.403ZM95.8797 197.344C95.7172 197.872 96.0133 198.432 96.5412 198.594C97.069 198.757 97.6287 198.46 97.7912 197.933L95.8797 197.344ZM98.9714 194.16C99.1386 193.633 98.8474 193.071 98.3211 192.904C97.7947 192.737 97.2324 193.028 97.0652 193.554L98.9714 194.16ZM100.163 184.13C99.9856 184.653 100.266 185.221 100.789 185.398C101.312 185.575 101.88 185.295 102.057 184.772L100.163 184.13ZM103.342 181.024C103.523 180.502 103.247 179.933 102.725 179.752C102.203 179.571 101.634 179.847 101.453 180.369L103.342 181.024ZM104.772 171.026C104.583 171.545 104.851 172.119 105.37 172.307C105.889 172.496 106.463 172.228 106.652 171.709L104.772 171.026ZM108.008 168.007C108.199 167.488 107.934 166.913 107.416 166.722C106.898 166.531 106.323 166.796 106.132 167.314L108.008 168.007ZM109.619 158.034C109.422 158.55 109.681 159.128 110.197 159.325C110.713 159.523 111.291 159.264 111.488 158.748L109.619 158.034ZM112.909 155.051C113.108 154.536 112.852 153.957 112.337 153.757C111.821 153.558 111.242 153.814 111.043 154.33L112.909 155.051ZM114.656 145.105C114.452 145.618 114.703 146.199 115.217 146.403C115.73 146.606 116.312 146.355 116.515 145.842L114.656 145.105ZM117.979 142.163C118.184 141.65 117.934 141.068 117.421 140.863C116.908 140.658 116.326 140.908 116.122 141.421L117.979 142.163ZM119.825 132.234C119.617 132.746 119.864 133.329 120.375 133.537C120.887 133.745 121.47 133.499 121.678 132.987L119.825 132.234ZM123.172 129.321C123.381 128.81 123.136 128.226 122.625 128.017C122.114 127.808 121.53 128.053 121.321 128.564L123.172 129.321ZM125.086 119.402C124.875 119.913 125.118 120.497 125.629 120.708C126.139 120.919 126.724 120.676 126.935 120.166L125.086 119.402ZM128.446 116.511C128.657 116.001 128.415 115.416 127.905 115.204C127.394 114.993 126.809 115.236 126.598 115.746L128.446 116.511ZM130.394 106.599C130.182 107.109 130.424 107.695 130.934 107.906C131.444 108.118 132.029 107.877 132.241 107.367L130.394 106.599ZM133.76 103.712C133.972 103.202 133.731 102.617 133.221 102.405C132.711 102.193 132.126 102.435 131.914 102.945L133.76 103.712ZM135.709 93.8051C135.498 94.3153 135.74 94.9003 136.25 95.1118C136.76 95.3233 137.345 95.0811 137.557 94.5709L135.709 93.8051ZM139.077 90.8984C139.288 90.388 139.045 89.8032 138.535 89.5922C138.025 89.3812 137.44 89.6239 137.229 90.1343L139.077 90.8984ZM140.994 80.98C140.785 81.4913 141.03 82.0751 141.541 82.2841C142.052 82.4931 142.636 82.248 142.845 81.7368L140.994 80.98ZM144.332 78.0896C144.54 77.578 144.293 76.9946 143.782 76.7868C143.27 76.5789 142.687 76.8252 142.479 77.3369L144.332 78.0896ZM146.167 68.1652C145.963 68.6784 146.214 69.2599 146.727 69.4639C147.24 69.6679 147.822 69.4172 148.026 68.904L146.167 68.1652ZM149.495 65.1866C149.697 64.6726 149.444 64.0921 148.93 63.8901C148.416 63.6881 147.836 63.9411 147.634 64.4551L149.495 65.1866ZM151.197 55.2276C151.002 55.7441 151.262 56.3213 151.779 56.5168C152.295 56.7124 152.872 56.4522 153.068 55.9357L151.197 55.2276ZM154.448 52.2571C154.64 51.7394 154.376 51.1638 153.858 50.9715C153.341 50.7792 152.765 51.043 152.573 51.5608L154.448 52.2571ZM155.926 42.2593C155.744 42.7808 156.02 43.3509 156.541 43.5326C157.063 43.7143 157.633 43.4388 157.815 42.9172L155.926 42.2593ZM159.112 39.1314C159.288 38.6079 159.006 38.0408 158.483 37.8646C157.96 37.6884 157.392 37.9699 157.216 38.4933L159.112 39.1314ZM160.201 29.1299C160.043 29.6591 160.344 30.2163 160.873 30.3743C161.403 30.5324 161.96 30.2315 162.118 29.7023L160.201 29.1299ZM163.234 25.8369C163.382 25.3049 163.071 24.7535 162.539 24.6054C162.007 24.4572 161.456 24.7684 161.307 25.3005L163.234 25.8369ZM163.646 15.8131C163.533 16.3537 163.879 16.8835 164.42 16.9965C164.961 17.1095 165.49 16.7628 165.603 16.2222L163.646 15.8131ZM166.358 12.2349C166.45 11.6903 166.082 11.1746 165.538 11.0831C164.993 10.9916 164.477 11.3589 164.386 11.9036L166.358 12.2349ZM165.302 2.22049C165.303 2.77276 165.751 3.22017 166.303 3.21972C166.855 3.21932 167.303 2.77124 167.302 2.21897L165.302 2.22049ZM50.8384 522.973C51.0994 522.332 51.3591 521.692 51.6175 521.055L49.7641 520.303C49.506 520.94 49.2466 521.579 48.9858 522.219L50.8384 522.973ZM55.3988 511.654C55.8904 510.422 56.3769 509.197 56.8585 507.982L54.9991 507.245C54.5181 508.46 54.0321 509.682 53.5411 510.913L55.3988 511.654ZM60.5678 498.527C61.0536 497.276 61.534 496.035 62.0088 494.802L60.1426 494.083C59.6683 495.314 59.1887 496.554 58.7035 497.803L60.5678 498.527ZM65.6013 485.374C66.0783 484.107 66.5493 482.851 67.0143 481.604L65.1404 480.905C64.6762 482.15 64.206 483.404 63.7297 484.669L65.6013 485.374ZM70.4879 472.168C70.9523 470.889 71.41 469.621 71.8612 468.364L69.9787 467.688C69.5284 468.943 69.0715 470.209 68.608 471.485L70.4879 472.168ZM75.2074 458.889C75.6545 457.602 76.0943 456.327 76.5268 455.063L74.6347 454.416C74.2031 455.676 73.7643 456.949 73.3181 458.233L75.2074 458.889ZM79.7288 445.526C80.153 444.236 80.5692 442.959 80.9775 441.695L79.0743 441.08C78.6671 442.341 78.252 443.615 77.8289 444.901L79.7288 445.526ZM84.0074 432.08C84.4021 430.794 84.7881 429.521 85.1655 428.263L83.2498 427.688C82.8736 428.943 82.4888 430.211 82.0954 431.493L84.0074 432.08ZM87.9821 418.566C88.3454 417.271 88.699 415.992 89.0431 414.727L87.1133 414.202C86.7706 415.461 86.4184 416.736 86.0565 418.026L87.9821 418.566ZM91.584 404.977C91.9183 403.631 92.2411 402.304 92.5526 400.994L90.6069 400.531C90.297 401.835 89.9758 403.155 89.6431 404.494L91.584 404.977ZM94.7525 391.155C95.0266 389.841 95.2886 388.545 95.5387 387.268L93.5759 386.884C93.3274 388.153 93.0671 389.441 92.7946 390.747L94.7525 391.155ZM97.3144 377.285C97.5296 375.932 97.7305 374.6 97.9176 373.289L95.9377 373.006C95.7521 374.307 95.5528 375.628 95.3392 376.971L97.3144 377.285ZM99.1233 363.282C99.2567 361.908 99.374 360.558 99.476 359.23L97.4819 359.077C97.381 360.391 97.2648 361.728 97.1326 363.089L99.1233 363.282ZM99.9764 349.14C100.006 347.773 100.018 346.429 100.015 345.106L98.0147 345.111C98.0179 346.418 98.0057 347.746 97.9769 349.098L99.9764 349.14ZM99.6756 334.978C99.5873 333.615 99.483 332.272 99.3641 330.946L97.3721 331.125C97.4895 332.435 97.5926 333.761 97.6798 335.107L99.6756 334.978ZM98.1679 320.911C97.9706 319.571 97.761 318.243 97.5409 316.924L95.5682 317.253C95.7863 318.56 95.9939 319.876 96.1892 321.202L98.1679 320.911ZM95.6926 306.999C95.427 305.684 95.1551 304.37 94.879 303.053L92.9216 303.463C93.1969 304.777 93.4678 306.086 93.7323 307.395L95.6926 306.999ZM92.7874 293.217C92.5126 291.919 92.238 290.611 91.9653 289.289L90.0066 289.693C90.2802 291.019 90.5555 292.331 90.8308 293.631L92.7874 293.217ZM90.0444 279.442C89.8076 278.137 89.5758 276.814 89.3502 275.47L87.3778 275.801C87.605 277.154 87.8383 278.486 88.0765 279.799L90.0444 279.442ZM87.8736 265.586C87.7867 264.918 87.7017 264.244 87.6188 263.565L85.6335 263.807C85.7171 264.492 85.8027 265.171 85.8903 265.844L87.8736 265.586ZM87.6188 263.565C87.5426 262.94 87.475 262.308 87.4157 261.669L85.4243 261.854C85.4852 262.512 85.5549 263.163 85.6335 263.807L87.6188 263.565ZM87.1305 251.894C87.1647 250.611 87.2242 249.307 87.3083 247.982L85.3123 247.855C85.2267 249.203 85.1661 250.533 85.1312 251.841L87.1305 251.894ZM88.3085 238.215C88.4867 236.922 88.6834 235.614 88.898 234.291L86.9239 233.971C86.7068 235.309 86.5077 236.633 86.3273 237.942L88.3085 238.215ZM90.7199 224.634C90.991 223.361 91.2759 222.078 91.5738 220.784L89.6248 220.335C89.3245 221.639 89.0373 222.933 88.7638 224.217L90.7199 224.634ZM93.9634 211.202C94.2999 209.943 94.6466 208.677 95.0033 207.403L93.0774 206.863C92.7187 208.145 92.3698 209.419 92.0313 210.685L93.9634 211.202ZM97.7912 197.933C98.1766 196.681 98.5702 195.423 98.9714 194.16L97.0652 193.554C96.6623 194.823 96.267 196.086 95.8797 197.344L97.7912 197.933ZM102.057 184.772C102.479 183.527 102.908 182.277 103.342 181.024L101.453 180.369C101.017 181.626 100.587 182.88 100.163 184.13L102.057 184.772ZM106.652 171.709C107.099 170.477 107.551 169.243 108.008 168.007L106.132 167.314C105.674 168.554 105.221 169.791 104.772 171.026L106.652 171.709ZM111.488 158.748C111.958 157.517 112.432 156.284 112.909 155.051L111.043 154.33C110.565 155.566 110.091 156.801 109.619 158.034L111.488 158.748ZM116.515 145.842C117.001 144.616 117.489 143.389 117.979 142.163L116.122 141.421C115.631 142.649 115.142 143.877 114.656 145.105L116.515 145.842ZM121.678 132.987C122.175 131.764 122.673 130.542 123.172 129.321L121.321 128.564C120.822 129.787 120.323 131.01 119.825 132.234L121.678 132.987ZM126.935 120.166C127.439 118.945 127.942 117.727 128.446 116.511L126.598 115.746C126.094 116.963 125.59 118.181 125.086 119.402L126.935 120.166ZM132.241 107.367C132.749 106.146 133.255 104.927 133.76 103.712L131.914 102.945C131.409 104.16 130.902 105.378 130.394 106.599L132.241 107.367ZM137.557 94.5709C138.066 93.3423 138.573 92.118 139.077 90.8984L137.229 90.1343C136.725 91.3532 136.218 92.5769 135.709 93.8051L137.557 94.5709ZM142.845 81.7368C143.345 80.5151 143.84 79.2992 144.332 78.0896L142.479 77.3369C141.988 78.5451 141.493 79.7595 140.994 80.98L142.845 81.7368ZM148.026 68.904C148.522 67.6566 149.012 66.4173 149.495 65.1866L147.634 64.4551C147.151 65.6832 146.662 66.9201 146.167 68.1652L148.026 68.904ZM153.068 55.9357C153.536 54.6987 153.996 53.4724 154.448 52.2571L152.573 51.5608C152.123 52.7719 151.664 53.9943 151.197 55.2276L153.068 55.9357ZM157.815 42.9172C158.26 41.6399 158.692 40.3776 159.112 39.1314L157.216 38.4933C156.799 39.7326 156.369 40.9882 155.926 42.2593L157.815 42.9172ZM162.118 29.7023C162.509 28.3911 162.882 27.1022 163.234 25.8369L161.307 25.3005C160.959 26.553 160.59 27.8298 160.201 29.1299L162.118 29.7023ZM165.603 16.2222C165.889 14.8551 166.141 13.5254 166.358 12.2349L164.386 11.9036C164.174 13.1656 163.927 14.4693 163.646 15.8131L165.603 16.2222ZM167.302 2.21897C167.302 1.54847 167.285 0.894926 167.25 0.258908L165.253 0.367334C165.286 0.965224 165.302 1.58307 165.302 2.22049L167.302 2.21897Z" fill="#28334C" fill-opacity="0.16"/>
<mask id="mask0_566_809" style="mask-type:alpha" maskUnits="userSpaceOnUse" x="6" y="474" width="109" height="109">
<circle cx="60.999" cy="528.478" r="54" fill="#C4C4C4"/>
</mask>
<g mask="url(#mask0_566_809)">
<path d="M-34.001 486.478C-34.001 475.432 -25.0467 466.478 -14.001 466.478H135.999C147.045 466.478 155.999 475.432 155.999 486.478V589.478H-34.001V486.478Z" fill="#858FA9"/>
<g style="mix-blend-mode:color">
<path d="M-34.001 486.478C-34.001 475.432 -25.0467 466.478 -14.001 466.478H135.999C147.045 466.478 155.999 475.432 155.999 486.478V589.478H-34.001V486.478Z" fill="#858FA9"/>
</g>
<path d="M61.7204 582.92C91.9422 582.92 116.442 558.421 116.442 528.199C116.442 497.977 91.9422 473.478 61.7204 473.478C31.4986 473.478 6.99902 497.977 6.99902 528.199C6.99902 558.421 31.4986 582.92 61.7204 582.92Z" fill="#CBCDEB"/>
<path d="M76.1633 524.627C76.1633 524.627 78.1044 525.132 80.3756 527.073C81.2103 527.792 81.9091 528.684 82.4138 529.655C82.7826 530.354 83.2097 531.13 83.3068 531.926C83.4426 533.052 82.2779 533.285 81.4044 533.207C81.1909 533.188 81.2297 534.857 81.2297 535.013C81.2297 535.692 81.055 536.585 80.1815 536.488C79.4632 536.41 78.8032 535.789 78.2209 535.401C76.998 534.624 75.8915 533.576 75.1539 532.295C73.4262 529.306 73.9697 526.84 73.9697 526.84L76.1633 524.627Z" fill="black"/>
<path d="M46.3077 523.443C46.463 525.967 46.8512 529.635 47.5694 532.081C48.2877 534.527 54.5964 540.933 55.7223 541.088C59.6629 541.651 68.3011 534.877 70.9799 532.683C73.6587 530.49 74.7457 525.404 74.7457 525.404L77.7545 512.592C77.7545 512.592 73.2316 505.313 69.3493 503.934C65.467 502.556 54.5382 497.412 54.5382 497.412C54.2859 497.296 52.2088 499.8 51.9371 500.091C51.0441 501.12 48.2683 502.207 47.3947 503.255C46.4824 504.342 46.3271 508.186 46.23 510.787C46.1912 511.66 46.1718 512.495 46.133 513.31C46.1136 513.854 46.0942 514.378 46.0942 514.902C45.9971 518.241 46.0359 518.998 46.3077 523.443Z" fill="#FF6B42"/>
<path d="M46.3076 553.823C46.3076 553.823 59.9152 572.497 60.3811 572.38C60.8663 572.245 81.4621 551.552 81.4621 551.552C81.4621 551.552 74.901 547.281 74.571 546C74.241 544.719 74.0469 527.772 74.0469 527.772C74.0469 527.772 65.0981 530.665 64.6516 530.665C64.2051 530.665 54.8682 536.721 54.8682 536.721C54.8682 536.721 54.8682 537.401 54.907 538.468C54.907 539.128 54.9264 539.924 54.9264 540.798C54.9458 542.215 54.9458 543.768 54.9458 545.126C54.9458 545.709 54.9458 546.252 54.9264 546.738C54.907 547.766 54.8682 548.485 54.8099 548.64C54.5187 549.281 46.3076 553.823 46.3076 553.823Z" fill="#FF6B42"/>
<path d="M65.5448 518.008C65.836 517.096 66.9036 517.309 67.0007 518.222C67.0589 518.746 67.0783 519.736 66.5154 520.046C66.0883 520.279 65.6613 519.949 65.5254 519.542C65.4089 519.251 65.3701 518.532 65.5448 518.008Z" fill="black"/>
<path d="M49.6854 518.241C49.9378 517.426 50.9278 517.601 51.0054 518.435C51.0443 518.921 51.0637 519.814 50.5784 520.085C50.1901 520.299 49.8019 520.008 49.6854 519.639C49.569 519.348 49.5301 518.727 49.6854 518.241Z" fill="black"/>
<path d="M70.6313 514.281C71.2719 515.659 68.5543 514.96 68.069 514.902C67.1372 514.786 66.2055 514.708 65.2543 514.669C64.8466 514.65 63.2161 514.883 63.2937 514.145C63.5849 511.427 69.7384 512.359 70.6313 514.281Z" fill="black"/>
<path d="M46.0752 514.883C46.7546 514.941 47.6669 514.786 47.9387 514.747C48.8705 514.689 49.8216 514.669 50.7534 514.669C51.161 514.669 52.7722 514.999 52.7334 514.262C52.6169 511.913 48.0358 512.01 46.114 513.272C46.0946 513.815 46.0752 514.359 46.0752 514.883Z" fill="black"/>
<path d="M54.772 523.385C55.0437 522.007 55.5678 520.687 55.9172 519.328C56.0725 518.687 57.0237 519.056 56.8684 519.677C56.6161 520.687 56.2667 521.657 55.9949 522.667C55.5484 524.297 55.8008 525.307 56.5384 526.743C56.849 527.326 55.9172 527.753 55.6261 527.17C54.9855 525.928 54.4808 524.783 54.772 523.385Z" fill="#D94921"/>
<path d="M54.9072 546.698C56.0719 546.62 57.6443 546.484 59.3719 546.232C63.0213 545.708 66.8066 542.505 66.8066 540.098C66.8066 538.895 65.4478 538.759 64.9625 538.914C64.4772 539.069 59.2748 541.224 57.6443 541.263C56.0137 541.302 54.9072 540.739 54.9072 540.739C54.9266 542.156 54.9266 543.709 54.9266 545.067C54.9266 545.669 54.9266 546.232 54.9072 546.698Z" fill="#D94921"/>
<path d="M74.3581 543.03C74.3581 543.03 63.177 549.785 61.1581 550.057C59.1199 550.329 54.9076 546.699 54.9076 546.699C54.9076 546.699 50.7535 550.833 49.5694 551.396C48.3853 551.959 45.0271 554.056 44.8912 554.25C44.7553 554.444 45.493 573.448 60.304 573.739C77.7163 574.069 82.8992 552.6 82.3945 551.843C81.8898 551.086 78.2016 547.824 77.1339 546.699C76.0663 545.573 74.3581 543.03 74.3581 543.03Z" fill="#FFD6B3"/>
<path d="M81.0743 550.445C81.0743 550.445 72.3196 569.488 58.4791 566.886C44.6387 564.285 46.1528 553.415 46.1528 553.415C46.1528 553.415 32.157 561.568 30.6235 563.024C29.1093 564.479 23.2082 569.818 21.8106 578.825C20.4129 587.832 20.8012 602.177 19.6559 609.534C18.5106 616.891 13.7159 634.361 12.163 646.474C11.503 651.56 10.6877 660.062 17.87 666.662C21.5194 670.02 23.3247 670.215 23.3247 670.215C23.3247 670.215 27.8476 656.374 28.8764 655.753C29.8858 655.112 33.8652 657.655 44.2698 657.655C54.6745 657.655 63.6815 655.617 70.8055 655.501C77.9296 655.384 87.3054 654.239 89.9648 652.453C92.6242 650.667 95.9242 644.96 94.7789 640.651C93.6336 636.341 91.0907 628.46 91.2266 624.908C91.3624 621.356 99.2242 595.713 99.9812 590.899C100.738 586.085 104.795 564.499 100.622 561.335C96.4289 558.132 81.0743 550.445 81.0743 550.445Z" fill="#FFD6B3"/>
<path d="M54.9075 546.698C54.9075 546.698 51.0252 559.044 50.6952 573.156C50.5205 580.649 51.0058 614.6 51.0058 614.6C51.0058 614.6 21.5777 617.26 21.3254 616.794C21.073 616.328 19.7725 562.946 19.7725 562.946L54.9075 546.698Z" fill="black"/>
<path d="M74.3574 543.03C74.3574 543.03 75.1533 563.606 75.5998 576.088C76.0462 588.55 75.561 622.074 75.561 622.074C75.561 622.074 114.035 602.507 113.744 601.944C113.472 601.381 109.065 564.538 109.065 564.538C109.065 564.538 104.077 561.548 97.2243 557.666C90.372 553.784 74.3574 543.03 74.3574 543.03Z" fill="black"/>
<path d="M71.6011 525.812C71.6593 525.773 71.6982 525.715 71.7564 525.676C71.9311 525.287 72.1446 524.919 72.3776 524.569C72.3193 524.433 72.2999 524.259 72.3582 524.065C72.6105 523.346 72.9405 522.609 73.0182 521.852C73.057 521.56 73.0376 521.25 73.0182 520.959C73.0182 520.842 72.9987 520.726 72.9793 520.629C72.9405 520.551 72.9211 520.493 72.9405 520.473C72.2805 520.221 72.2611 519.192 72.8629 519.037C72.824 518.959 72.7852 518.92 72.8046 518.92C72.067 519.561 70.9993 518.493 71.737 517.853C71.7952 517.814 71.834 517.775 71.8923 517.736C71.9311 517.562 72.0282 517.406 72.2029 517.29C73.0182 516.727 73.7558 516.902 74.3187 517.406C75.0564 517.892 75.5417 518.823 75.5999 519.755C75.6193 520.163 75.5999 520.551 75.5611 520.939C75.4252 522.977 74.4352 525.365 72.9405 526.705C72.8823 526.763 72.824 526.821 72.7464 526.86C72.727 526.879 72.7076 526.899 72.6882 526.918C71.9117 527.481 70.8246 526.413 71.6011 525.812Z" fill="#FF6B42"/>
<path d="M80.2782 505.856C79.8705 501.955 78.6476 500.324 75.1923 496.791C72.8047 494.345 69.3688 493.355 66.2047 491.977C63.0406 490.599 59.3913 490.929 56.2272 492.113C53.5678 493.083 49.5884 494.112 46.8319 494.772C45.4731 495.102 43.8619 495.374 42.969 496.558C41.0861 499.043 40.562 502.983 40.4843 506.031C40.4261 508.69 41.2414 511.583 44.2502 512.049C45.279 512.204 46.3078 511.757 47.1813 511.194C48.3266 510.457 49.2972 509.486 50.0737 508.38C51.0831 507.778 52.0925 507.235 53.5484 507.215C54.5189 507.215 55.4701 507.312 56.4407 507.118C58.013 506.807 58.9836 506.147 60.7307 506.575C63.0601 507.157 64.6712 508.865 67.2336 508.516C68.0877 508.399 68.9612 508.127 69.7765 508.438C70.8441 508.826 71.1353 510.01 71.3877 510.981C71.5429 511.641 71.8923 512.282 72.2223 512.864C72.5135 513.369 72.8241 513.873 73.2124 514.3C73.2512 514.339 73.7171 514.766 73.6976 514.727C73.95 516.28 74.0859 517.775 74.1247 518.979C74.28 522.9 73.9888 527.753 73.9888 527.753C73.9888 527.753 78.5894 524.414 79.7929 518.784C80.3946 516.203 80.5499 508.496 80.2782 505.856Z" fill="black"/>
<path d="M73.5227 514.611C73.5227 514.611 75.7939 515.581 76.318 517.173C77.075 519.522 75.3668 524.025 72.7851 524.647C72.3192 524.763 72.1057 524.278 72.2415 523.909C72.3192 523.715 72.5133 523.579 72.5715 523.365C72.6298 523.133 72.4357 522.958 72.4357 522.744C72.4357 522.57 72.5521 522.414 72.6298 522.259C72.7657 521.987 72.921 517.445 72.8239 517.173C72.6686 516.746 73.5227 514.611 73.5227 514.611Z" fill="#FF6B42"/>
<path d="M61.2552 529.131C59.5081 530.509 57.1787 530.936 55.1017 530.102C54.4999 529.849 54.2281 530.839 54.8299 531.072C57.2564 532.043 59.9546 531.441 61.9734 529.849C62.4781 529.442 61.7599 528.723 61.2552 529.131Z" fill="#D94921"/>
</g>
</svg>
