<svg width="220" height="439" viewBox="0 0 220 439" fill="none" xmlns="http://www.w3.org/2000/svg">
<path d="M0.294947 4.59907C0.304938 5.15127 0.760686 5.59081 1.31287 5.58081C1.86507 5.57082 2.3046 5.11507 2.29461 4.56288L0.294947 4.59907ZM2.66303 14.6212C2.63234 14.0698 2.16045 13.6476 1.60902 13.6783C1.0576 13.7089 0.635437 14.1808 0.666112 14.7323L2.66303 14.6212ZM0.916129 18.6817C0.955267 19.2326 1.43359 19.6475 1.98449 19.6083C2.53538 19.5692 2.95024 19.0908 2.9111 18.5399L0.916129 18.6817ZM3.83076 28.574C3.76885 28.0252 3.27377 27.6305 2.72497 27.6924C2.17616 27.7544 1.78146 28.2494 1.84337 28.7982L3.83076 28.574ZM2.32587 32.7711C2.39715 33.3188 2.89891 33.7049 3.44658 33.6336C3.99424 33.5624 4.38043 33.0606 4.30913 32.5129L2.32587 32.7711ZM5.82177 42.4024C5.72583 41.8585 5.20715 41.4953 4.66326 41.5913C4.11937 41.6872 3.75624 42.2059 3.85217 42.7498L5.82177 42.4024ZM4.59011 46.7154C4.69628 47.2574 5.22172 47.6107 5.7637 47.5045C6.30568 47.3983 6.65899 46.8729 6.55282 46.3309L4.59011 46.7154ZM8.70564 56.0628C8.57306 55.5267 8.03094 55.1996 7.49482 55.3321C6.95868 55.4647 6.63153 56.0068 6.76413 56.543L8.70564 56.0628ZM7.77704 60.4665C7.92059 60.9998 8.46928 61.3158 9.00259 61.1722C9.53589 61.0287 9.85186 60.48 9.7083 59.9467L7.77704 60.4665ZM12.5455 69.4872C12.3741 68.9622 11.8095 68.6755 11.2845 68.847C10.7595 69.0184 10.4728 69.5829 10.6442 70.108L12.5455 69.4872ZM11.9461 73.9524C12.129 74.4736 12.6997 74.7478 13.2208 74.5649C13.7419 74.382 14.0162 73.8113 13.8333 73.2902L11.9461 73.9524ZM17.3882 82.5872C17.1766 82.0771 16.5915 81.8351 16.0813 82.0467C15.5712 82.2584 15.3292 82.8435 15.5409 83.3536L17.3882 82.5872ZM17.1382 87.0825C17.3615 87.5876 17.952 87.8161 18.4571 87.5928C18.9623 87.3695 19.1907 86.779 18.9674 86.2739L17.1382 87.0825ZM23.2555 95.2636C23.0033 94.7722 22.4006 94.5783 21.9092 94.8304C21.4179 95.0826 21.2239 95.6853 21.4761 96.1767L23.2555 95.2636ZM23.3667 99.7568C23.6303 100.242 24.2374 100.422 24.7227 100.158C25.208 99.8945 25.3877 99.2874 25.1241 98.8021L23.3667 99.7568ZM30.1376 107.418C29.8459 106.949 29.2293 106.805 28.7603 107.097C28.2913 107.389 28.1476 108.005 28.4392 108.474L30.1376 107.418ZM30.6119 111.878C30.9145 112.34 31.5343 112.47 31.9963 112.167C32.4583 111.865 32.5876 111.245 32.285 110.783L30.6119 111.878ZM37.992 118.967C37.6631 118.523 37.0368 118.43 36.5931 118.759C36.1494 119.088 36.0563 119.714 36.3852 120.158L37.992 118.967ZM38.8206 123.366C39.1595 123.803 39.7878 123.881 40.2238 123.542C40.6599 123.204 40.7387 122.575 40.3998 122.139L38.8206 123.366ZM46.7469 129.849C46.3842 129.433 45.7525 129.389 45.336 129.752C44.9195 130.115 44.8759 130.746 45.2386 131.163L46.7469 129.849ZM47.9109 134.165C48.2825 134.574 48.9149 134.604 49.3235 134.232C49.7321 133.861 49.762 133.228 49.3904 132.819L47.9109 134.165ZM56.3087 140.034C55.9162 139.645 55.283 139.648 54.8945 140.041C54.5059 140.433 54.509 141.066 54.9014 141.455L56.3087 140.034ZM57.7904 144.259C58.1905 144.639 58.8235 144.624 59.2042 144.224C59.5848 143.823 59.569 143.19 59.1689 142.81L57.7904 144.259ZM66.5708 149.519C66.153 149.158 65.5215 149.204 65.1603 149.622C64.7991 150.039 64.845 150.671 65.2628 151.032L66.5708 149.519ZM68.3452 153.648C68.7695 154.002 69.4 153.944 69.7536 153.52C70.1072 153.096 70.0499 152.465 69.6256 152.112L68.3452 153.648ZM77.4359 158.341C76.9971 158.006 76.3695 158.09 76.0342 158.529C75.6989 158.968 75.7828 159.595 76.2217 159.93L77.4359 158.341ZM79.4522 162.358C79.8963 162.687 80.5225 162.593 80.8508 162.149C81.1791 161.705 81.0853 161.078 80.6412 160.75L79.4522 162.358ZM88.793 166.545C88.3372 166.233 87.7149 166.35 87.403 166.805C87.0912 167.261 87.2079 167.884 87.6637 168.195L88.793 166.545ZM91.0038 170.447C91.4637 170.753 92.0844 170.628 92.3901 170.168C92.6958 169.708 92.5708 169.088 92.1108 168.782L91.0038 170.447ZM100.535 174.193C100.066 173.901 99.4497 174.045 99.1582 174.514C98.8666 174.984 99.0106 175.6 99.4797 175.892L100.535 174.193ZM102.899 177.99C103.371 178.277 103.986 178.126 104.272 177.654C104.559 177.182 104.408 176.567 103.936 176.28L102.899 177.99ZM112.57 181.37C112.091 181.095 111.48 181.261 111.205 181.74C110.93 182.219 111.095 182.83 111.574 183.105L112.57 181.37ZM115.076 185.095C115.557 185.365 116.167 185.195 116.438 184.714C116.709 184.232 116.538 183.623 116.057 183.352L115.076 185.095ZM124.83 188.186C124.344 187.923 123.738 188.104 123.475 188.59C123.213 189.076 123.394 189.683 123.88 189.945L124.83 188.186ZM127.44 191.856C127.927 192.116 128.533 191.931 128.792 191.444C129.052 190.957 128.868 190.351 128.381 190.091L127.44 191.856ZM137.259 194.765C136.769 194.51 136.165 194.7 135.91 195.19C135.654 195.68 135.845 196.284 136.334 196.539L137.259 194.765ZM139.886 198.385C140.377 198.639 140.98 198.447 141.234 197.957C141.488 197.467 141.297 196.863 140.807 196.609L139.886 198.385ZM149.726 201.224C149.236 200.97 148.632 201.162 148.378 201.652C148.124 202.142 148.316 202.746 148.806 203L149.726 201.224ZM152.373 204.852C152.863 205.107 153.467 204.917 153.722 204.427C153.977 203.937 153.787 203.333 153.297 203.078L152.373 204.852ZM162.194 207.769C161.708 207.508 161.102 207.691 160.841 208.178C160.58 208.665 160.763 209.271 161.25 209.532L162.194 207.769ZM164.779 211.441C165.264 211.705 165.871 211.527 166.136 211.042C166.401 210.558 166.222 209.95 165.738 209.685L164.779 211.441ZM174.5 214.626C174.024 214.347 173.411 214.507 173.132 214.984C172.853 215.46 173.014 216.073 173.49 216.352L174.5 214.626ZM176.934 218.405C177.406 218.691 178.021 218.541 178.308 218.07C178.594 217.598 178.444 216.982 177.972 216.696L176.934 218.405ZM186.467 222.179C186.013 221.865 185.39 221.979 185.076 222.433C184.762 222.888 184.876 223.511 185.331 223.824L186.467 222.179ZM188.529 226.107C188.973 226.435 189.599 226.34 189.927 225.896C190.255 225.452 190.161 224.826 189.717 224.498L188.529 226.107ZM197.597 230.958C197.192 230.584 196.559 230.609 196.184 231.015C195.81 231.42 195.835 232.053 196.241 232.428L197.597 230.958ZM199.049 235.173C199.432 235.571 200.065 235.583 200.463 235.2C200.86 234.817 200.872 234.184 200.489 233.786L199.049 235.173ZM206.875 241.789C206.578 241.323 205.96 241.187 205.495 241.484C205.029 241.781 204.892 242.399 205.189 242.865L206.875 241.789ZM207.118 246.244C207.367 246.737 207.968 246.935 208.461 246.686C208.954 246.437 209.152 245.836 208.903 245.342L207.118 246.244ZM212.199 255.08C212.1 254.537 211.579 254.177 211.036 254.276C210.492 254.375 210.132 254.896 210.232 255.439L212.199 255.08ZM210.747 259.366C210.802 259.915 211.292 260.316 211.842 260.261C212.391 260.206 212.792 259.716 212.738 259.167L210.747 259.366ZM213.141 269.06C213.153 268.508 212.715 268.05 212.163 268.038C211.611 268.025 211.154 268.463 211.141 269.015L213.141 269.06ZM210.944 272.912C210.9 273.463 211.311 273.945 211.862 273.988C212.412 274.032 212.894 273.621 212.938 273.071L210.944 272.912ZM211.381 282.917C211.511 282.38 211.181 281.84 210.645 281.709C210.108 281.579 209.567 281.909 209.437 282.446L211.381 282.917ZM208.401 286.162C208.234 286.689 208.526 287.251 209.053 287.417C209.579 287.584 210.141 287.292 210.308 286.765L208.401 286.162ZM206.484 295.982C206.739 295.492 206.548 294.889 206.058 294.634C205.568 294.379 204.964 294.57 204.709 295.06L206.484 295.982ZM202.815 298.425C202.529 298.897 202.68 299.512 203.152 299.799C203.624 300.085 204.239 299.935 204.525 299.462L202.815 298.425ZM198.735 307.563C199.086 307.137 199.026 306.507 198.601 306.155C198.175 305.804 197.544 305.864 197.193 306.29L198.735 307.563ZM194.648 309.221C194.276 309.629 194.306 310.262 194.714 310.634C195.123 311.005 195.755 310.975 196.127 310.567L194.648 309.221ZM189.106 317.563C189.513 317.19 189.541 316.557 189.168 316.15C188.795 315.743 188.162 315.715 187.755 316.088L189.106 317.563ZM184.841 318.69C184.425 319.053 184.382 319.685 184.745 320.101C185.108 320.517 185.739 320.56 186.156 320.197L184.841 318.69ZM178.602 326.533C179.029 326.184 179.092 325.553 178.742 325.126C178.392 324.699 177.762 324.636 177.335 324.986L178.602 326.533ZM174.292 327.474C173.864 327.823 173.802 328.453 174.151 328.881C174.501 329.308 175.131 329.371 175.559 329.021L174.292 327.474ZM168.064 335.325C168.479 334.96 168.519 334.328 168.154 333.913C167.79 333.499 167.158 333.458 166.743 333.823L168.064 335.325ZM163.807 336.482C163.404 336.86 163.383 337.493 163.76 337.896C164.138 338.299 164.77 338.32 165.174 337.943L163.807 336.482ZM158.488 344.955C158.84 344.53 158.78 343.899 158.354 343.547C157.929 343.195 157.298 343.255 156.946 343.68L158.488 344.955ZM154.508 346.855C154.188 347.306 154.295 347.93 154.745 348.25C155.196 348.569 155.82 348.462 156.139 348.012L154.508 346.855ZM151.55 356.395C151.751 355.88 151.497 355.3 150.983 355.099C150.469 354.898 149.889 355.152 149.688 355.666L151.55 356.395ZM148.427 359.504C148.285 360.038 148.602 360.586 149.135 360.729C149.669 360.871 150.217 360.554 150.36 360.02L148.427 359.504ZM149.186 369.452C149.182 368.9 148.731 368.455 148.179 368.458C147.627 368.462 147.182 368.912 147.186 369.465L149.186 369.452ZM0.265053 2.52734C0.272517 3.22045 0.282487 3.91102 0.294947 4.59907L2.29461 4.56288C2.28225 3.87973 2.27235 3.19404 2.26494 2.5058L0.265053 2.52734ZM0.666112 14.7323C0.739892 16.0586 0.823287 17.375 0.916129 18.6817L2.9111 18.5399C2.81898 17.2435 2.73625 15.9373 2.66303 14.6212L0.666112 14.7323ZM1.84337 28.7982C1.99399 30.1332 2.15487 31.4574 2.32587 32.7711L4.30913 32.5129C4.13961 31.2107 3.98011 29.8977 3.83076 28.574L1.84337 28.7982ZM3.85217 42.7498C4.08737 44.0832 4.33341 45.405 4.59011 46.7154L6.55282 46.3309C6.29855 45.0329 6.05479 43.7234 5.82177 42.4024L3.85217 42.7498ZM6.76413 56.543C7.09058 57.863 7.4283 59.1708 7.77704 60.4665L9.7083 59.9467C9.36313 58.6642 9.02883 57.3697 8.70564 56.0628L6.76413 56.543ZM10.6442 70.108C11.0668 71.4022 11.5009 72.6837 11.9461 73.9524L13.8333 73.2902C13.3929 72.0352 12.9635 70.7676 12.5455 69.4872L10.6442 70.108ZM15.5409 83.3536C16.062 84.6098 16.5945 85.8526 17.1382 87.0825L18.9674 86.2739C18.43 85.058 17.9035 83.8292 17.3882 82.5872L15.5409 83.3536ZM21.4761 96.1767C22.0953 97.3834 22.7256 98.5767 23.3667 99.7568L25.1241 98.8021C24.4905 97.6357 23.8675 96.4563 23.2555 95.2636L21.4761 96.1767ZM28.4392 108.474C29.1531 109.622 29.8775 110.757 30.6119 111.878L32.285 110.783C31.5591 109.674 30.8432 108.553 30.1376 107.418L28.4392 108.474ZM36.3852 120.158C37.1876 121.24 37.9995 122.31 38.8206 123.366L40.3998 122.139C39.5879 121.095 38.7852 120.037 37.992 118.967L36.3852 120.158ZM45.2386 131.163C46.121 132.176 47.0119 133.177 47.9109 134.165L49.3904 132.819C48.501 131.842 47.6197 130.852 46.7469 129.849L45.2386 131.163ZM54.9014 141.455C55.8573 142.402 56.8204 143.336 57.7904 144.259L59.1689 142.81C58.2085 141.896 57.2549 140.971 56.3087 140.034L54.9014 141.455ZM65.2628 151.032C66.2845 151.915 67.3121 152.787 68.3452 153.648L69.6256 152.112C68.6016 151.258 67.5832 150.394 66.5708 149.519L65.2628 151.032ZM76.2217 159.93C77.2943 160.75 78.3713 161.559 79.4522 162.358L80.6412 160.75C79.5686 159.957 78.5 159.154 77.4359 158.341L76.2217 159.93ZM87.6637 168.195C88.7745 168.955 89.8881 169.706 91.0038 170.447L92.1108 168.782C91.0023 168.045 89.8962 167.3 88.793 166.545L87.6637 168.195ZM99.4797 175.892C100.619 176.599 101.758 177.299 102.899 177.99L103.936 176.28C102.802 175.592 101.668 174.897 100.535 174.193L99.4797 175.892ZM111.574 183.105C112.743 183.775 113.91 184.438 115.076 185.095L116.057 183.352C114.896 182.698 113.733 182.038 112.57 181.37L111.574 183.105ZM123.88 189.945C125.07 190.588 126.257 191.225 127.44 191.856L128.381 190.091C127.201 189.462 126.017 188.827 124.83 188.186L123.88 189.945ZM136.334 196.539C137.524 197.159 138.709 197.774 139.886 198.385L140.807 196.609C139.63 195.999 138.447 195.385 137.259 194.765L136.334 196.539ZM148.806 203C150.004 203.621 151.194 204.238 152.373 204.852L153.297 203.078C152.116 202.463 150.925 201.845 149.726 201.224L148.806 203ZM161.25 209.532C162.44 210.17 163.617 210.806 164.779 211.441L165.738 209.685C164.57 209.048 163.389 208.409 162.194 207.769L161.25 209.532ZM173.49 216.352C174.658 217.035 175.806 217.719 176.934 218.405L177.972 216.696C176.835 216.004 175.677 215.314 174.5 214.626L173.49 216.352ZM185.331 223.824C186.425 224.581 187.492 225.341 188.529 226.107L189.717 224.498C188.662 223.719 187.578 222.946 186.467 222.179L185.331 223.824ZM196.241 232.428C197.221 233.333 198.157 234.247 199.049 235.173L200.489 233.786C199.569 232.83 198.604 231.888 197.597 230.958L196.241 232.428ZM205.189 242.865C205.896 243.972 206.539 245.098 207.118 246.244L208.903 245.342C208.293 244.134 207.616 242.95 206.875 241.789L205.189 242.865ZM210.232 255.439C210.349 256.082 210.448 256.731 210.528 257.388L212.513 257.146C212.428 256.45 212.323 255.761 212.199 255.08L210.232 255.439ZM210.528 257.388C210.609 258.054 210.682 258.713 210.747 259.366L212.738 259.167C212.671 258.5 212.596 257.826 212.513 257.146L210.528 257.388ZM211.141 269.015C211.111 270.345 211.045 271.643 210.944 272.912L212.938 273.071C213.042 271.763 213.11 270.427 213.141 269.06L211.141 269.015ZM209.437 282.446C209.129 283.717 208.783 284.955 208.401 286.162L210.308 286.765C210.703 285.515 211.062 284.232 211.381 282.917L209.437 282.446ZM204.709 295.06C204.111 296.211 203.479 297.332 202.815 298.425L204.525 299.462C205.211 298.333 205.865 297.174 206.484 295.982L204.709 295.06ZM197.193 306.29C196.367 307.289 195.518 308.265 194.648 309.221L196.127 310.567C197.017 309.589 197.888 308.589 198.735 307.563L197.193 306.29ZM187.755 316.088C186.794 316.969 185.821 317.835 184.841 318.69L186.156 320.197C187.146 319.333 188.131 318.456 189.106 317.563L187.755 316.088ZM177.335 324.986C176.332 325.807 175.287 326.659 174.292 327.474L175.559 329.021C176.581 328.184 177.567 327.38 178.602 326.533L177.335 324.986ZM166.743 333.823C165.744 334.702 164.764 335.587 163.807 336.482L165.174 337.943C166.113 337.064 167.078 336.192 168.064 335.325L166.743 333.823ZM156.946 343.68C156.09 344.715 155.275 345.772 154.508 346.855L156.139 348.012C156.876 346.973 157.66 345.955 158.488 344.955L156.946 343.68ZM149.688 355.666C149.202 356.908 148.779 358.186 148.427 359.504L150.36 360.02C150.692 358.776 151.091 357.569 151.55 356.395L149.688 355.666ZM147.186 369.465C147.19 370.137 147.21 370.818 147.248 371.509L149.245 371.401C149.209 370.741 149.19 370.092 149.186 369.452L147.186 369.465Z" fill="#28334C" fill-opacity="0.16"/>
<mask id="mask0_566_806" style="mask-type:alpha" maskUnits="userSpaceOnUse" x="110" y="327" width="108" height="109">
<circle cx="164" cy="381.76" r="54" fill="#C4C4C4"/>
</mask>
<g mask="url(#mask0_566_806)">
<path d="M69 339.76C69 328.715 77.9543 319.76 89 319.76H239C250.046 319.76 259 328.715 259 339.76V442.76H69V339.76Z" fill="#858FA9"/>
<g style="mix-blend-mode:color">
<path d="M69 339.76C69 328.715 77.9543 319.76 89 319.76H239C250.046 319.76 259 328.715 259 339.76V442.76H69V339.76Z" fill="#858FA9"/>
</g>
<path d="M164.063 447.474C198.502 447.474 226.42 419.556 226.42 385.117C226.42 350.678 198.502 322.76 164.063 322.76C129.624 322.76 101.706 350.678 101.706 385.117C101.706 419.556 129.624 447.474 164.063 447.474Z" fill="#CBCDEB"/>
<path d="M128.45 417.125C128.45 417.125 115.598 423.451 112.634 433.428C109.692 443.404 101.706 493.219 102.724 496.935C108.342 517.573 123.849 527.859 128.671 528.677C133.493 529.474 140.903 518.369 141.169 513.547C141.434 508.725 141.169 481.163 141.169 481.163L137.829 456.234L128.45 417.125Z" fill="#A6462B"/>
<path d="M181.493 382.441C181.317 385.117 180.808 387.838 180.056 390.426C179.104 393.722 172.756 398.234 171.562 398.411C167.403 399.009 158.289 391.842 155.458 389.541C152.627 387.219 151.476 381.866 151.476 381.866L148.291 368.35C148.291 368.35 153.069 360.674 157.161 359.214C161.276 357.754 172.8 352.313 172.8 352.313C173.066 352.18 175.256 354.835 175.543 355.144C176.472 356.228 179.414 357.378 180.343 358.484C181.294 359.635 181.471 363.683 181.582 366.426C181.626 367.333 181.648 368.217 181.67 369.08C181.693 369.655 181.693 370.208 181.715 370.761C181.825 374.3 181.781 377.751 181.493 382.441Z" fill="#FF6B42"/>
<path d="M181.494 411.86C181.494 411.86 167.138 431.592 166.629 431.437C166.12 431.282 144.376 409.449 144.376 409.449C144.376 409.449 151.3 404.937 151.654 403.587C152.007 402.238 152.207 384.343 152.207 384.343C152.207 384.343 161.652 387.395 162.116 387.395C162.581 387.395 172.446 393.788 172.446 393.788C172.446 393.788 172.446 394.518 172.424 395.624C172.424 396.332 172.402 397.172 172.402 398.079C172.38 399.561 172.38 401.22 172.402 402.658C172.402 403.278 172.402 403.853 172.424 404.362C172.446 405.445 172.491 406.198 172.557 406.374C172.823 407.06 181.494 411.86 181.494 411.86Z" fill="#FF6B42"/>
<path d="M161.188 374.057C160.878 373.106 159.75 373.305 159.662 374.278C159.595 374.831 159.573 375.871 160.17 376.203C160.635 376.446 161.077 376.114 161.21 375.672C161.321 375.362 161.365 374.61 161.188 374.057Z" fill="black"/>
<path d="M177.933 374.3C177.667 373.437 176.628 373.614 176.539 374.499C176.495 375.008 176.473 375.959 177.004 376.247C177.424 376.468 177.822 376.158 177.955 375.76C178.066 375.472 178.088 374.787 177.933 374.3Z" fill="black"/>
<path d="M155.812 370.12C155.126 371.58 158.002 370.828 158.511 370.783C159.506 370.651 160.479 370.584 161.475 370.54C161.917 370.518 163.621 370.783 163.532 369.987C163.267 367.111 156.763 368.085 155.812 370.12Z" fill="#FFD6B3"/>
<path d="M181.737 370.761C181.029 370.827 180.056 370.65 179.769 370.628C178.773 370.562 177.778 370.54 176.782 370.562C176.34 370.562 174.659 370.916 174.681 370.12C174.791 367.642 179.636 367.753 181.671 369.08C181.715 369.633 181.737 370.186 181.737 370.761Z" fill="#FFD6B3"/>
<path d="M172.58 379.72C172.292 378.26 171.739 376.866 171.363 375.428C171.186 374.765 170.191 375.141 170.368 375.804C170.633 376.866 171.009 377.906 171.297 378.968C171.783 380.693 171.496 381.755 170.722 383.281C170.412 383.9 171.385 384.343 171.695 383.745C172.336 382.418 172.867 381.202 172.58 379.72Z" fill="#D94921"/>
<path d="M172.402 404.339C171.163 404.251 169.527 404.118 167.691 403.853C163.842 403.3 159.838 399.937 159.838 397.371C159.838 396.088 161.276 395.956 161.784 396.133C162.293 396.31 167.779 398.566 169.504 398.61C171.208 398.654 172.402 398.057 172.402 398.057C172.38 399.539 172.38 401.198 172.402 402.636C172.402 403.255 172.402 403.831 172.402 404.339Z" fill="#D94921"/>
<path d="M151.875 400.469C151.875 400.469 163.665 407.614 165.811 407.879C167.957 408.167 172.403 404.34 172.403 404.34C172.403 404.34 176.783 408.697 178.021 409.295C179.26 409.892 182.821 412.104 182.954 412.303C183.087 412.502 182.335 432.565 166.674 432.875C148.292 433.229 142.828 410.578 143.359 409.759C143.89 408.963 147.783 405.534 148.911 404.318C150.083 403.145 151.875 400.469 151.875 400.469Z" fill="#A6462B"/>
<path d="M144.775 408.299C144.775 408.299 154.021 428.406 168.62 425.663C183.22 422.92 181.649 411.44 181.649 411.44C181.649 411.44 196.426 420.045 198.04 421.593C199.655 423.141 205.871 428.76 207.353 438.272C208.835 447.783 208.415 462.914 209.631 470.7C210.848 478.464 215.913 496.912 217.528 509.698C218.214 515.073 219.099 524.032 211.489 531C207.64 534.539 205.738 534.76 205.738 534.76C205.738 534.76 200.96 520.161 199.898 519.497C198.837 518.834 194.634 521.51 183.64 521.51C172.646 521.51 163.135 519.364 155.636 519.232C148.137 519.099 138.227 517.882 135.396 516.024C132.587 514.144 129.092 508.127 130.308 503.571C131.525 499.014 134.201 490.719 134.069 486.958C133.936 483.198 125.619 456.145 124.822 451.057C124.026 445.97 119.735 423.186 124.159 419.846C128.583 416.417 144.775 408.299 144.775 408.299Z" fill="#A6462B"/>
<path d="M166.187 410.644C164.793 410.887 161.829 416.107 162.736 418.585C163.488 420.642 169.903 420.2 170.146 418.718C170.677 415.798 167.58 410.4 166.187 410.644Z" fill="#001526"/>
<path d="M168.575 419.249L164.549 419.381C164.549 419.381 159.838 475.987 160.192 478.398C160.546 480.809 164.793 488.75 165.744 488.75C166.695 488.75 173.486 480.433 173.398 478.309C173.309 476.186 168.575 419.249 168.575 419.249Z" fill="#001526"/>
<path d="M154.795 382.286C154.729 382.241 154.684 382.197 154.64 382.153C154.463 381.733 154.242 381.357 153.999 380.981C154.065 380.826 154.087 380.649 154.021 380.45C153.755 379.698 153.401 378.923 153.335 378.127C153.313 377.817 153.313 377.508 153.335 377.198C153.335 377.087 153.357 376.955 153.379 376.844C153.423 376.756 153.423 376.711 153.423 376.667C154.109 376.402 154.131 375.318 153.49 375.141C153.534 375.074 153.556 375.03 153.556 375.008C154.33 375.694 155.481 374.566 154.684 373.88C154.64 373.836 154.574 373.791 154.529 373.769C154.485 373.592 154.375 373.415 154.198 373.305C153.335 372.708 152.561 372.885 151.963 373.438C151.189 373.946 150.68 374.92 150.614 375.915C150.592 376.335 150.614 376.756 150.658 377.154C150.791 379.299 151.853 381.821 153.423 383.237C153.49 383.303 153.556 383.37 153.623 383.414C153.645 383.436 153.667 383.458 153.689 383.458C154.463 384.055 155.613 382.905 154.795 382.286Z" fill="#FF6B42"/>
<path d="M174.084 386.356C173.973 386.245 173.796 386.179 173.487 386.201C171.452 386.267 169.372 386.09 167.337 386.024C166.629 386.002 165.435 386.29 166.098 387.285C167.182 388.922 169.04 389.807 171.341 389.431C172.403 389.276 174.969 387.219 174.084 386.356Z" fill="white"/>
<path d="M185.94 355.056C185.808 353.242 185.963 351.516 184.702 350.034C183.95 349.172 183.22 348.243 182.313 347.535C181.074 346.562 179.703 346.562 178.243 346.185C177.048 345.876 175.832 345.655 174.593 345.655C172.071 345.345 170.434 343.133 167.957 342.668C166.054 342.314 164.019 342.16 162.161 342.757C159.529 343.597 157.405 345.743 155.083 347.181C153.91 347.889 152.716 347.977 151.499 348.42C149.84 349.039 148.823 350.278 148.292 351.915C147.872 353.264 147.385 354.104 146.39 355.144C145.881 355.653 145.35 356.184 145.04 356.847C144.421 358.219 144.819 360.409 145.527 361.78C145.195 363.572 144.797 365.386 145.018 367.2C145.173 368.438 145.66 369.5 146.013 370.673C146.5 372.287 146.213 373.836 146.412 375.473C146.677 377.707 147.872 380.007 148.646 382.087C149.155 383.48 152.141 385.294 152.229 385.029C152.45 384.387 152.76 383.657 152.826 382.993C153.158 380.118 153.379 377.22 153.601 374.344C153.822 371.314 153.866 368.084 153.689 364.943C154.486 364.236 155.105 363.107 155.857 362.444C157.627 360.895 160.17 359.015 162.405 358.285C164.462 357.622 167.47 357.091 169.594 357.799C171.12 358.307 172.735 358.993 174.239 359.546C176.252 360.276 175.964 362.178 177.247 363.594C178.309 364.766 179.725 366.204 181.008 367.111C181.848 367.708 182.932 367.952 183.95 367.664C185.122 367.332 185.587 366.403 186.272 365.519C186.361 365.408 186.449 365.297 186.516 365.187C186.67 364.988 186.825 364.811 186.958 364.589C189.126 361.382 186.162 358.352 185.94 355.056Z" fill="#FFD6B3"/>
<path d="M154.663 371.248C154.331 370.54 153.49 370.23 152.627 370.318C151.322 370.473 150.261 371.69 149.907 372.884C149.155 375.362 150.902 380.118 153.645 380.781C153.999 380.87 154.397 380.538 154.264 380.162C154.154 379.852 153.999 379.587 153.822 379.321C154.065 379.056 154.154 378.636 153.866 378.282C153.778 378.171 153.711 378.061 153.645 377.906C153.689 377.861 153.711 377.795 153.733 377.729C154.021 377.043 154.176 376.225 153.977 375.517C154.198 375.428 154.375 375.207 154.397 374.897C154.441 374.145 154.53 373.393 154.419 372.663C154.463 372.442 154.53 372.243 154.618 372.066C154.707 372.044 154.795 371.977 154.795 371.867C154.795 371.867 154.795 371.867 154.795 371.845C154.817 371.823 154.817 371.823 154.839 371.801C155.083 371.668 154.928 371.314 154.663 371.248Z" fill="#FF6B42"/>
</g>
</svg>
