<svg width="582" height="166" viewBox="0 0 582 166" fill="none" xmlns="http://www.w3.org/2000/svg">
<path d="M520.477 121.278C519.968 121.065 519.382 121.305 519.169 121.815C518.956 122.324 519.196 122.91 519.706 123.123L520.477 121.278ZM510.357 119.245C510.868 119.455 511.452 119.212 511.662 118.701C511.872 118.19 511.628 117.606 511.118 117.396L510.357 119.245ZM507.461 115.896C506.95 115.687 506.366 115.933 506.157 116.444C505.948 116.955 506.193 117.539 506.705 117.748L507.461 115.896ZM497.303 113.942C497.815 114.147 498.397 113.898 498.603 113.386C498.808 112.873 498.559 112.291 498.047 112.086L497.303 113.942ZM494.338 110.604C493.824 110.4 493.243 110.651 493.039 111.164C492.835 111.677 493.085 112.259 493.599 112.463L494.338 110.604ZM484.224 108.775C484.738 108.975 485.318 108.72 485.518 108.205C485.718 107.69 485.463 107.111 484.949 106.911L484.224 108.775ZM481.194 105.457C480.679 105.259 480.1 105.515 479.902 106.031C479.703 106.546 479.96 107.125 480.475 107.323L481.194 105.457ZM471.093 103.755C471.611 103.949 472.187 103.687 472.381 103.17C472.575 102.653 472.313 102.076 471.796 101.882L471.093 103.755ZM468.007 100.468C467.489 100.276 466.914 100.54 466.722 101.058C466.529 101.575 466.793 102.151 467.311 102.343L468.007 100.468ZM457.893 98.902C458.412 99.0888 458.985 98.8189 459.172 98.2992C459.359 97.7795 459.089 97.2067 458.569 97.0199L457.893 98.902ZM454.758 95.6593C454.237 95.4748 453.666 95.7473 453.481 96.2678C453.297 96.7884 453.569 97.3599 454.09 97.5444L454.758 95.6593ZM444.61 94.2479C445.133 94.4261 445.701 94.1468 445.879 93.624C446.058 93.1012 445.778 92.533 445.255 92.3549L444.61 94.2479ZM441.438 91.065C440.914 90.8896 440.348 91.1719 440.172 91.6956C439.997 92.2193 440.279 92.786 440.803 92.9614L441.438 91.065ZM431.248 89.8373C431.775 90.005 432.337 89.7144 432.505 89.1882C432.673 88.662 432.382 88.0994 431.856 87.9317L431.248 89.8373ZM428.052 86.7326C427.525 86.5682 426.964 86.8624 426.8 87.3897C426.635 87.9169 426.929 88.4776 427.457 88.642L428.052 86.7326ZM417.825 85.7314C418.355 85.8863 418.91 85.5822 419.065 85.052C419.22 84.5219 418.916 83.9666 418.386 83.8117L417.825 85.7314ZM414.558 82.7095C414.027 82.5587 413.474 82.8672 413.323 83.3985C413.173 83.9298 413.481 84.4828 414.013 84.6335L414.558 82.7095ZM404.333 81.9993C404.867 82.1383 405.413 81.8176 405.552 81.2831C405.691 80.7486 405.37 80.2026 404.836 80.0637L404.333 81.9993ZM400.864 79.0522C400.328 78.9187 399.786 79.2448 399.652 79.7807C399.519 80.3166 399.845 80.8593 400.381 80.9929L400.864 79.0522ZM390.62 78.6999C391.16 78.8185 391.693 78.4774 391.812 77.938C391.93 77.3986 391.589 76.8652 391.05 76.7466L390.62 78.6999ZM387.171 75.9186C386.63 75.8066 386.101 76.1543 385.989 76.6951C385.877 77.236 386.225 77.7651 386.766 77.8771L387.171 75.9186ZM376.873 76.0072C377.417 76.0998 377.934 75.7335 378.026 75.189C378.119 74.6446 377.753 74.1281 377.208 74.0355L376.873 76.0072ZM373.218 73.3892C372.672 73.3053 372.162 73.6798 372.078 74.2257C371.994 74.7716 372.368 75.2821 372.914 75.366L373.218 73.3892ZM363.01 74.0643C363.559 74.1236 364.052 73.7266 364.112 73.1775C364.171 72.6284 363.774 72.1352 363.225 72.0759L363.01 74.0643ZM359.177 71.6795C358.626 71.6313 358.141 72.0382 358.093 72.5884C358.045 73.1386 358.452 73.6237 359.002 73.6719L359.177 71.6795ZM349.029 73.0695C349.581 73.0872 350.043 72.6541 350.061 72.1021C350.078 71.5501 349.645 71.0882 349.093 71.0705L349.029 73.0695ZM345.059 70.9888C344.507 70.9843 344.056 71.4283 344.051 71.9805C344.047 72.5328 344.491 72.9842 345.043 72.9888L345.059 70.9888ZM335.037 73.2159C335.588 73.1861 336.011 72.7149 335.981 72.1634C335.951 71.6119 335.48 71.189 334.929 71.2188L335.037 73.2159ZM330.893 71.4869C330.343 71.5303 329.932 72.0118 329.975 72.5624C330.018 73.1129 330.5 73.5241 331.051 73.4807L330.893 71.4869ZM321.116 74.5566C321.663 74.4821 322.046 73.978 321.972 73.4308C321.897 72.8835 321.393 72.5004 320.846 72.575L321.116 74.5566ZM316.852 73.159C316.307 73.244 315.933 73.7552 316.018 74.3009C316.103 74.8467 316.614 75.2201 317.16 75.1351L316.852 73.159ZM307.283 76.8648C307.826 76.7612 308.182 76.2375 308.078 75.695C307.975 75.1525 307.451 74.7967 306.908 74.9002L307.283 76.8648ZM302.954 75.6713C302.412 75.7788 302.06 76.3051 302.168 76.8468C302.275 77.3886 302.801 77.7406 303.343 77.6331L302.954 75.6713ZM293.489 79.6178C294.03 79.5093 294.381 78.9823 294.273 78.4408C294.164 77.8993 293.637 77.5483 293.095 77.6569L293.489 79.6178ZM289.159 78.4367C288.617 78.5425 288.263 79.0677 288.369 79.6097C288.475 80.1518 289 80.5054 289.542 80.3996L289.159 78.4367ZM279.628 82.223C280.172 82.1303 280.539 81.6138 280.446 81.0693C280.353 80.5249 279.837 80.1587 279.292 80.2514L279.628 82.223ZM275.313 80.9028C274.767 80.9884 274.394 81.5001 274.48 82.0457C274.565 82.5913 275.077 82.9642 275.623 82.8787L275.313 80.9028ZM265.65 84.2588C266.198 84.1934 266.59 83.6959 266.525 83.1475C266.459 82.599 265.962 82.2075 265.413 82.2728L265.65 84.2588ZM261.492 82.6885C260.941 82.7335 260.532 83.2163 260.577 83.7667C260.622 84.3172 261.104 84.7269 261.655 84.6819L261.492 82.6885ZM251.64 84.8671C252.192 84.8877 252.656 84.457 252.677 83.9051C252.697 83.3532 252.266 82.8891 251.715 82.8684L251.64 84.8671ZM247.804 82.6486C247.253 82.6077 246.774 83.021 246.733 83.5718C246.692 84.1225 247.105 84.6022 247.656 84.6431L247.804 82.6486ZM237.755 83.5214C238.301 83.6027 238.81 83.2257 238.891 82.6795C238.972 82.1332 238.595 81.6245 238.049 81.5432L237.755 83.5214ZM234.131 80.9115C233.587 80.8172 233.07 81.1818 232.975 81.726C232.881 82.2702 233.246 82.7878 233.79 82.8821L234.131 80.9115ZM224.057 80.9373C224.596 81.0582 225.131 80.7193 225.252 80.1804C225.372 79.6415 225.034 79.1067 224.495 78.9858L224.057 80.9373ZM220.654 78.0905C220.117 77.9607 219.577 78.2908 219.447 78.8276C219.317 79.3645 219.647 79.9048 220.184 80.0345L220.654 78.0905ZM210.561 77.5243C211.093 77.6726 211.644 77.3616 211.793 76.8296C211.941 76.2976 211.63 75.7461 211.098 75.5977L210.561 77.5243ZM207.31 74.517C206.78 74.3624 206.225 74.6668 206.07 75.197C205.916 75.7272 206.22 76.2824 206.75 76.437L207.31 74.517ZM197.262 73.5324C197.788 73.7006 198.351 73.4104 198.519 72.8844C198.687 72.3583 198.397 71.7955 197.871 71.6274L197.262 73.5324ZM194.111 70.4066C193.586 70.2337 193.021 70.5188 192.848 71.0433C192.675 71.5679 192.96 72.1332 193.485 72.3061L194.111 70.4066ZM184.094 69.1071C184.616 69.2901 185.186 69.016 185.369 68.4949C185.552 67.9738 185.278 67.4031 184.757 67.2201L184.094 69.1071ZM181.023 65.8944C180.503 65.7079 179.931 65.9781 179.744 66.498C179.558 67.0178 179.828 67.5904 180.348 67.7769L181.023 65.8944ZM171.041 64.3573C171.558 64.5514 172.135 64.2897 172.329 63.7727C172.523 63.2557 172.261 62.6791 171.744 62.485L171.041 64.3573ZM168.057 61.0889C167.541 60.8921 166.963 61.1508 166.766 61.6668C166.569 62.1828 166.828 62.7607 167.344 62.9576L168.057 61.0889ZM158.102 59.3702C158.616 59.5729 159.197 59.3207 159.399 58.8069C159.602 58.2932 159.35 57.7124 158.836 57.5097L158.102 59.3702ZM155.154 56.0489C154.641 55.8442 154.06 56.0941 153.855 56.6071C153.65 57.12 153.9 57.7018 154.413 57.9065L155.154 56.0489ZM145.228 54.195C145.739 54.4039 146.323 54.1589 146.532 53.6477C146.741 53.1365 146.496 52.5526 145.984 52.3437L145.228 54.195ZM142.322 50.8403C141.811 50.6299 141.227 50.8733 141.016 51.3839C140.806 51.8945 141.049 52.479 141.56 52.6895L142.322 50.8403ZM132.414 48.8871C132.923 49.1005 133.509 48.8606 133.722 48.3512C133.936 47.8419 133.696 47.2559 133.187 47.0425L132.414 48.8871ZM129.536 45.5087C129.028 45.2943 128.441 45.5331 128.227 46.042C128.012 46.551 128.251 47.1374 128.76 47.3518L129.536 45.5087ZM119.639 43.4883C120.147 43.7045 120.734 43.4679 120.951 42.9597C121.167 42.4515 120.93 41.8643 120.422 41.648L119.639 43.4883ZM116.784 40.0975C116.276 39.8807 115.689 40.1168 115.472 40.6247C115.255 41.1327 115.491 41.7202 115.999 41.937L116.784 40.0975ZM106.894 38.0426C107.402 38.2601 107.989 38.0248 108.207 37.5171C108.424 37.0095 108.189 36.4216 107.681 36.2042L106.894 38.0426ZM104.043 34.6456C103.536 34.4281 102.948 34.6633 102.73 35.171C102.513 35.6786 102.748 36.2665 103.256 36.484L104.043 34.6456ZM94.1577 32.5901C94.6656 32.8071 95.2532 32.5712 95.4701 32.0633C95.6871 31.5555 95.4512 30.9678 94.9434 30.7509L94.1577 32.5901ZM91.2874 29.1911C90.7793 28.9747 90.1919 29.2111 89.9754 29.7192C89.759 30.2273 89.9954 30.8147 90.5035 31.0311L91.2874 29.1911ZM81.3903 27.1676C81.8992 27.3821 82.4856 27.1434 82.7001 26.6345C82.9146 26.1255 82.6759 25.5391 82.1669 25.3246L81.3903 27.1676ZM78.5359 23.799C78.0266 23.5856 77.4406 23.8256 77.2273 24.3351C77.0139 24.8445 77.2539 25.4304 77.7633 25.6437L78.5359 23.799ZM68.6319 21.8567C69.1429 22.0662 69.727 21.8219 69.9365 21.3109C70.146 20.7999 69.9016 20.2158 69.3907 20.0062L68.6319 21.8567ZM65.6893 18.4967C65.1775 18.2892 64.5943 18.5359 64.3868 19.0477C64.1793 19.5595 64.4259 20.1427 64.9377 20.3502L65.6893 18.4967ZM55.7491 16.6875C56.2635 16.8886 56.8435 16.6346 57.0446 16.1202C57.2457 15.6059 56.9917 15.0259 56.4774 14.8248L55.7491 16.6875ZM52.8139 13.4055C52.2982 13.2077 51.7198 13.4653 51.522 13.9809C51.3242 14.4965 51.5818 15.0749 52.0974 15.2728L52.8139 13.4055ZM42.8325 11.8195C43.3521 12.0068 43.9251 11.7374 44.1124 11.2178C44.2997 10.6983 44.0303 10.1253 43.5108 9.93797L42.8325 11.8195ZM39.7391 8.60022C39.2176 8.41842 38.6475 8.6938 38.4656 9.2153C38.2838 9.73681 38.5592 10.307 39.0807 10.4888L39.7391 8.60022ZM29.75 7.403C30.2775 7.56674 30.8378 7.2719 31.0015 6.74445C31.1653 6.217 30.8705 5.65667 30.343 5.49293L29.75 7.403ZM26.4898 4.33493C25.9594 4.18108 25.4047 4.48636 25.2509 5.01678C25.097 5.5472 25.4023 6.10191 25.9327 6.25577L26.4898 4.33493ZM16.471 3.81544C17.0103 3.93423 17.5439 3.59328 17.6627 3.05392C17.7815 2.51456 17.4405 1.98103 16.9012 1.86225L16.471 3.81544ZM12.9223 1.06464C12.3786 0.967285 11.859 1.32906 11.7617 1.87269C11.6643 2.41633 12.0261 2.93596 12.5697 3.03332L12.9223 1.06464ZM2.89703 2.01253C3.44928 2.01804 3.90149 1.57482 3.90698 1.02257C3.91254 0.470306 3.4693 0.0181427 2.91705 0.0126266L2.89703 2.01253ZM522.387 122.078C521.748 121.81 521.112 121.543 520.477 121.278L519.706 123.123C520.339 123.388 520.975 123.654 521.613 123.922L522.387 122.078ZM511.118 117.396C509.891 116.891 508.672 116.391 507.461 115.896L506.705 117.748C507.914 118.242 509.131 118.741 510.357 119.245L511.118 117.396ZM498.047 112.086C496.801 111.586 495.565 111.093 494.338 110.604L493.599 112.463C494.824 112.95 496.059 113.443 497.303 113.942L498.047 112.086ZM484.949 106.911C483.687 106.42 482.436 105.936 481.194 105.457L480.475 107.323C481.715 107.801 482.964 108.285 484.224 108.775L484.949 106.911ZM471.796 101.882C470.522 101.404 469.259 100.933 468.007 100.468L467.311 102.343C468.561 102.807 469.822 103.277 471.093 103.755L471.796 101.882ZM458.569 97.0199C457.287 96.559 456.016 96.1055 454.758 95.6593L454.09 97.5444C455.345 97.9896 456.613 98.4421 457.893 98.902L458.569 97.0199ZM445.255 92.3549C443.97 91.9168 442.698 91.4869 441.438 91.065L440.803 92.9614C442.059 93.3822 443.328 93.811 444.61 94.2479L445.255 92.3549ZM431.856 87.9317C430.574 87.5232 429.306 87.1236 428.052 86.7326L427.457 88.642C428.707 89.0317 429.971 89.4301 431.248 89.8373L431.856 87.9317ZM418.386 83.8117C417.095 83.4345 415.819 83.0672 414.558 82.7095L414.013 84.6335C415.268 84.9898 416.539 85.3557 417.825 85.7314L418.386 83.8117ZM404.836 80.0637C403.494 79.7149 402.171 79.3778 400.864 79.0522L400.381 80.9929C401.68 81.3168 402.997 81.6522 404.333 81.9993L404.836 80.0637ZM391.05 76.7466C389.738 76.4583 388.446 76.1824 387.171 75.9186L386.766 77.8771C388.032 78.1392 389.317 78.4134 390.62 78.6999L391.05 76.7466ZM377.208 74.0355C375.857 73.8057 374.527 73.5904 373.218 73.3892L372.914 75.366C374.213 75.5656 375.532 75.7791 376.873 76.0072L377.208 74.0355ZM363.225 72.0759C361.853 71.9277 360.504 71.7958 359.177 71.6795L359.002 73.6719C360.316 73.787 361.651 73.9175 363.01 74.0643L363.225 72.0759ZM349.093 71.0705C347.727 71.0266 346.383 70.9998 345.059 70.9888L345.043 72.9888C346.35 72.9996 347.678 73.0261 349.029 73.0695L349.093 71.0705ZM334.929 71.2188C333.565 71.2924 332.221 71.3823 330.893 71.4869L331.051 73.4807C332.362 73.3774 333.689 73.2886 335.037 73.2159L334.929 71.2188ZM320.846 72.575C319.504 72.7578 318.174 72.9531 316.852 73.159L317.16 75.1351C318.47 74.9311 319.788 74.7377 321.116 74.5566L320.846 72.575ZM306.908 74.9002C305.591 75.1517 304.274 75.4094 302.954 75.6713L303.343 77.6331C304.659 77.3719 305.972 77.1151 307.283 76.8648L306.908 74.9002ZM293.095 77.6569C291.795 77.9177 290.484 78.1782 289.159 78.4367L289.542 80.3996C290.871 80.1403 292.186 79.8791 293.489 79.6178L293.095 77.6569ZM279.292 80.2514C277.984 80.4741 276.659 80.6917 275.313 80.9028L275.623 82.8787C276.978 82.6661 278.312 82.4471 279.628 82.223L279.292 80.2514ZM265.413 82.2728C264.744 82.3526 264.07 82.4303 263.39 82.5059L263.61 84.4936C264.296 84.4175 264.976 84.3391 265.65 84.2588L265.413 82.2728ZM263.39 82.5059C262.764 82.5753 262.132 82.6362 261.492 82.6885L261.655 84.6819C262.314 84.628 262.965 84.5653 263.61 84.4936L263.39 82.5059ZM251.715 82.8684C250.432 82.8205 249.128 82.7469 247.804 82.6486L247.656 84.6431C249.003 84.7432 250.332 84.8182 251.64 84.8671L251.715 82.8684ZM238.049 81.5432C236.758 81.3512 235.452 81.1404 234.131 80.9115L233.79 82.8821C235.125 83.1136 236.447 83.3269 237.755 83.5214L238.049 81.5432ZM224.495 78.9858C223.225 78.7009 221.944 78.4023 220.654 78.0905L220.184 80.0345C221.485 80.3488 222.776 80.6499 224.057 80.9373L224.495 78.9858ZM211.098 75.5977C209.843 75.2478 208.58 74.8874 207.31 74.517L206.75 76.437C208.028 76.8095 209.298 77.1721 210.561 77.5243L211.098 75.5977ZM197.871 71.6274C196.623 71.2284 195.37 70.8214 194.111 70.4066L193.485 72.3061C194.749 72.7227 196.008 73.1316 197.262 73.5324L197.871 71.6274ZM184.757 67.2201C183.516 66.7843 182.272 66.3423 181.023 65.8944L180.348 67.7769C181.6 68.2263 182.849 68.6698 184.094 69.1071L184.757 67.2201ZM171.744 62.485C170.517 62.0242 169.288 61.5587 168.057 61.0889L167.344 62.9576C168.578 63.4286 169.811 63.8952 171.041 64.3573L171.744 62.485ZM158.836 57.5097C157.61 57.0261 156.383 56.5391 155.154 56.0489L154.413 57.9065C155.644 58.3976 156.874 58.8856 158.102 59.3702L158.836 57.5097ZM145.984 52.3437C144.764 51.8447 143.543 51.3435 142.322 50.8403L141.56 52.6895C142.782 53.1933 144.005 53.6953 145.228 54.195L145.984 52.3437ZM133.187 47.0425C131.969 46.5323 130.752 46.0209 129.536 45.5087L128.76 47.3518C129.977 47.8645 131.195 48.3763 132.414 48.8871L133.187 47.0425ZM120.422 41.648C119.207 41.1311 117.995 40.6142 116.784 40.0975L115.999 41.937C117.21 42.4539 118.424 42.9711 119.639 43.4883L120.422 41.648ZM107.681 36.2042C106.466 35.6834 105.253 35.1638 104.043 34.6456L103.256 36.484C104.465 37.0021 105.678 37.5218 106.894 38.0426L107.681 36.2042ZM94.9434 30.7509C93.7202 30.2284 92.5015 29.7084 91.2874 29.1911L90.5035 31.0311C91.7169 31.5481 92.9351 32.0679 94.1577 32.5901L94.9434 30.7509ZM82.1669 25.3246C80.9507 24.812 79.7402 24.3034 78.5359 23.799L77.7633 25.6437C78.9661 26.1475 80.1752 26.6556 81.3903 27.1676L82.1669 25.3246ZM69.3907 20.0062C68.1487 19.497 66.9147 18.9936 65.6893 18.4967L64.9377 20.3502C66.1606 20.846 67.3922 21.3484 68.6319 21.8567L69.3907 20.0062ZM56.4774 14.8248C55.2455 14.3432 54.0242 13.8699 52.8139 13.4055L52.0974 15.2728C53.3036 15.7356 54.521 16.2073 55.7491 16.6875L56.4774 14.8248ZM43.5108 9.93797C42.2383 9.47926 40.9808 9.0331 39.7391 8.60022L39.0807 10.4888C40.3154 10.9192 41.5663 11.363 42.8325 11.8195L43.5108 9.93797ZM30.343 5.49293C29.036 5.08717 27.7513 4.70081 26.4898 4.33493L25.9327 6.25577C27.1813 6.61794 28.4541 7.00068 29.75 7.403L30.343 5.49293ZM16.9012 1.86225C15.5372 1.56187 14.2103 1.29533 12.9223 1.06464L12.5697 3.03332C13.8293 3.25892 15.1303 3.52018 16.471 3.81544L16.9012 1.86225ZM2.91705 0.0126266C2.24658 0.00592804 1.5929 0.0160751 0.956543 0.0437469L1.04346 2.04185C1.64166 2.01585 2.25964 2.00616 2.89703 2.01253L2.91705 0.0126266Z" fill="#28334C" fill-opacity="0.16"/>
<mask id="mask0_509_807" style="mask-type:alpha" maskUnits="userSpaceOnUse" x="474" y="57" width="108" height="109">
<circle cx="528" cy="112" r="54" fill="#C4C4C4"/>
</mask>
<g mask="url(#mask0_509_807)">
<path d="M433 69.9998C433 58.9541 441.954 49.9998 453 49.9998H603C614.046 49.9998 623 58.9541 623 69.9998V173H433V69.9998Z" fill="#858FA9"/>
<g style="mix-blend-mode:color">
<path d="M433 69.9998C433 58.9541 441.954 49.9998 453 49.9998H603C614.046 49.9998 623 58.9541 623 69.9998V173H433V69.9998Z" fill="#858FA9"/>
</g>
<path d="M528.721 166.443C558.943 166.443 583.443 141.943 583.443 111.721C583.443 81.4994 558.943 56.9998 528.721 56.9998C498.5 56.9998 474 81.4994 474 111.721C474 141.943 498.5 166.443 528.721 166.443Z" fill="#CBCDEB"/>
<path d="M543.164 108.149C543.164 108.149 545.105 108.654 547.377 110.595C548.211 111.314 548.91 112.206 549.415 113.177C549.784 113.876 550.211 114.652 550.308 115.448C550.444 116.574 549.279 116.807 548.405 116.729C548.192 116.71 548.231 118.379 548.231 118.535C548.231 119.214 548.056 120.107 547.182 120.01C546.464 119.932 545.804 119.311 545.222 118.923C543.999 118.146 542.892 117.098 542.155 115.817C540.427 112.828 540.971 110.362 540.971 110.362L543.164 108.149Z" fill="black"/>
<path d="M513.309 106.965C513.464 109.489 513.852 113.157 514.57 115.603C515.289 118.049 521.597 124.455 522.723 124.61C526.664 125.173 535.302 118.399 537.981 116.205C540.66 114.012 541.747 108.926 541.747 108.926L544.756 96.114C544.756 96.114 540.233 88.8346 536.35 87.4564C532.468 86.0782 521.539 80.9341 521.539 80.9341C521.287 80.8176 519.21 83.3218 518.938 83.6129C518.045 84.6417 515.269 85.7288 514.396 86.777C513.483 87.8641 513.328 91.7076 513.231 94.3087C513.192 95.1823 513.173 96.017 513.134 96.8322C513.115 97.3758 513.095 97.8999 513.095 98.424C512.998 101.763 513.037 102.52 513.309 106.965Z" fill="#FF6B42"/>
<path d="M513.309 137.345C513.309 137.345 526.916 156.019 527.382 155.902C527.867 155.766 548.463 135.073 548.463 135.073C548.463 135.073 541.902 130.803 541.572 129.522C541.242 128.241 541.048 111.294 541.048 111.294C541.048 111.294 532.099 114.187 531.653 114.187C531.206 114.187 521.869 120.243 521.869 120.243C521.869 120.243 521.869 120.922 521.908 121.99C521.908 122.65 521.927 123.446 521.927 124.319C521.947 125.736 521.947 127.289 521.947 128.648C521.947 129.231 521.947 129.774 521.927 130.259C521.908 131.288 521.869 132.006 521.811 132.162C521.52 132.802 513.309 137.345 513.309 137.345Z" fill="#FF6B42"/>
<path d="M532.546 101.53C532.837 100.618 533.905 100.831 534.002 101.744C534.06 102.268 534.079 103.258 533.516 103.568C533.089 103.801 532.662 103.471 532.526 103.064C532.41 102.772 532.371 102.054 532.546 101.53Z" fill="black"/>
<path d="M516.686 101.763C516.939 100.948 517.929 101.122 518.006 101.957C518.045 102.442 518.065 103.335 517.579 103.607C517.191 103.821 516.803 103.529 516.686 103.161C516.57 102.869 516.531 102.248 516.686 101.763Z" fill="black"/>
<path d="M537.632 97.8029C538.273 99.1811 535.555 98.4823 535.07 98.4241C534.138 98.3076 533.206 98.23 532.255 98.1912C531.848 98.1717 530.217 98.4047 530.295 97.667C530.586 94.9494 536.739 95.8812 537.632 97.8029Z" fill="black"/>
<path d="M513.076 98.4047C513.756 98.463 514.668 98.3077 514.94 98.2689C515.871 98.2106 516.823 98.1912 517.754 98.1912C518.162 98.1912 519.773 98.5212 519.734 97.7836C519.618 95.4348 515.037 95.5318 513.115 96.7935C513.096 97.3371 513.076 97.8806 513.076 98.4047Z" fill="black"/>
<path d="M521.773 106.907C522.045 105.529 522.569 104.209 522.918 102.85C523.074 102.209 524.025 102.578 523.869 103.199C523.617 104.209 523.268 105.179 522.996 106.189C522.549 107.819 522.802 108.829 523.539 110.265C523.85 110.848 522.918 111.275 522.627 110.692C521.986 109.45 521.482 108.305 521.773 106.907Z" fill="#D94921"/>
<path d="M521.908 130.22C523.073 130.143 524.645 130.007 526.373 129.754C530.022 129.23 533.808 126.027 533.808 123.62C533.808 122.417 532.449 122.281 531.963 122.436C531.478 122.591 526.276 124.746 524.645 124.785C523.015 124.824 521.908 124.261 521.908 124.261C521.928 125.678 521.928 127.231 521.928 128.59C521.928 129.191 521.928 129.754 521.908 130.22Z" fill="#D94921"/>
<path d="M541.359 126.552C541.359 126.552 530.178 133.307 528.159 133.579C526.121 133.851 521.909 130.221 521.909 130.221C521.909 130.221 517.754 134.355 516.57 134.918C515.386 135.481 512.028 137.578 511.892 137.772C511.756 137.966 512.494 156.97 527.305 157.261C544.717 157.591 549.9 136.122 549.395 135.365C548.891 134.608 545.203 131.346 544.135 130.221C543.067 129.095 541.359 126.552 541.359 126.552Z" fill="#FFD6B3"/>
<path d="M548.075 133.967C548.075 133.967 539.321 153.01 525.48 150.408C511.64 147.807 513.154 136.937 513.154 136.937C513.154 136.937 499.158 145.09 497.624 146.546C496.11 148.001 490.209 153.34 488.812 162.347C487.414 171.354 487.802 185.699 486.657 193.056C485.512 200.413 480.717 217.883 479.164 229.996C478.504 235.082 477.689 243.584 484.871 250.184C488.52 253.542 490.326 253.737 490.326 253.737C490.326 253.737 494.849 239.896 495.877 239.275C496.887 238.634 500.866 241.177 511.271 241.177C521.675 241.177 530.682 239.139 537.807 239.023C544.931 238.906 554.306 237.761 556.966 235.975C559.625 234.189 562.925 228.482 561.78 224.173C560.635 219.863 558.092 211.982 558.228 208.43C558.363 204.878 566.225 179.235 566.982 174.421C567.739 169.607 571.796 148.021 567.623 144.857C563.43 141.654 548.075 133.967 548.075 133.967Z" fill="#FFD6B3"/>
<path d="M521.908 130.22C521.908 130.22 518.026 142.566 517.696 156.679C517.521 164.171 518.007 198.122 518.007 198.122C518.007 198.122 488.579 200.782 488.326 200.316C488.074 199.85 486.773 146.468 486.773 146.468L521.908 130.22Z" fill="black"/>
<path d="M541.358 126.552C541.358 126.552 542.154 147.128 542.601 159.61C543.047 172.072 542.562 205.596 542.562 205.596C542.562 205.596 581.036 186.029 580.745 185.466C580.473 184.903 576.066 148.06 576.066 148.06C576.066 148.06 571.078 145.07 564.225 141.188C557.373 137.306 541.358 126.552 541.358 126.552Z" fill="black"/>
<path d="M538.602 109.333C538.66 109.294 538.699 109.236 538.757 109.197C538.932 108.809 539.146 108.44 539.379 108.091C539.32 107.955 539.301 107.78 539.359 107.586C539.611 106.868 539.941 106.13 540.019 105.373C540.058 105.082 540.039 104.772 540.019 104.48C540.019 104.364 540 104.247 539.98 104.15C539.941 104.073 539.922 104.015 539.941 103.995C539.281 103.743 539.262 102.714 539.864 102.559C539.825 102.481 539.786 102.442 539.806 102.442C539.068 103.083 538 102.015 538.738 101.375C538.796 101.336 538.835 101.297 538.893 101.258C538.932 101.083 539.029 100.928 539.204 100.812C540.019 100.249 540.757 100.423 541.32 100.928C542.057 101.413 542.543 102.345 542.601 103.277C542.62 103.685 542.601 104.073 542.562 104.461C542.426 106.499 541.436 108.887 539.941 110.226C539.883 110.284 539.825 110.343 539.747 110.382C539.728 110.401 539.709 110.42 539.689 110.44C538.913 111.003 537.826 109.935 538.602 109.333Z" fill="#FF6B42"/>
<path d="M547.279 89.3783C546.872 85.4765 545.649 83.846 542.193 80.313C539.806 77.8672 536.37 76.8772 533.206 75.4989C530.042 74.1207 526.392 74.4507 523.228 75.6348C520.569 76.6054 516.589 77.6342 513.833 78.2942C512.474 78.6242 510.863 78.896 509.97 80.0801C508.087 82.5648 507.563 86.5053 507.485 89.553C507.427 92.2124 508.242 95.1047 511.251 95.5706C512.28 95.7259 513.309 95.2794 514.182 94.7165C515.328 93.9788 516.298 93.0082 517.075 91.9018C518.084 91.3 519.093 90.7565 520.549 90.7371C521.52 90.7371 522.471 90.8341 523.442 90.64C525.014 90.3294 525.985 89.6694 527.732 90.0965C530.061 90.6788 531.672 92.3871 534.235 92.0377C535.089 91.9212 535.962 91.6494 536.777 91.96C537.845 92.3483 538.136 93.5324 538.389 94.5029C538.544 95.1629 538.893 95.8035 539.223 96.3859C539.514 96.8906 539.825 97.3953 540.213 97.8223C540.252 97.8612 540.718 98.2882 540.699 98.2494C540.951 99.8023 541.087 101.297 541.126 102.501C541.281 106.422 540.99 111.275 540.99 111.275C540.99 111.275 545.59 107.936 546.794 102.306C547.396 99.7247 547.551 92.0182 547.279 89.3783Z" fill="black"/>
<path d="M540.524 98.1331C540.524 98.1331 542.795 99.1037 543.319 100.695C544.076 103.044 542.368 107.548 539.786 108.169C539.32 108.285 539.107 107.8 539.243 107.431C539.32 107.237 539.514 107.101 539.573 106.888C539.631 106.655 539.437 106.48 539.437 106.267C539.437 106.092 539.553 105.937 539.631 105.781C539.767 105.509 539.922 100.967 539.825 100.695C539.67 100.268 540.524 98.1331 540.524 98.1331Z" fill="#FF6B42"/>
<path d="M528.256 112.653C526.509 114.031 524.18 114.458 522.103 113.623C521.501 113.371 521.229 114.361 521.831 114.594C524.257 115.565 526.956 114.963 528.974 113.371C529.479 112.963 528.761 112.245 528.256 112.653Z" fill="#D94921"/>
</g>
</svg>
