<svg width="179" height="553" viewBox="0 0 179 553" fill="none" xmlns="http://www.w3.org/2000/svg">
<path d="M87.5051 524.472C87.5382 523.92 87.1181 523.447 86.5668 523.413C86.0155 523.38 85.5418 523.801 85.5087 524.352L87.5051 524.472ZM85.5989 514.373C85.6235 514.925 86.0907 515.352 86.6425 515.328C87.1942 515.303 87.6215 514.836 87.5969 514.284L85.5989 514.373ZM87.323 510.225C87.2731 509.675 86.7867 509.27 86.2367 509.32C85.6867 509.37 85.2813 509.856 85.3312 510.406L87.323 510.225ZM83.8277 500.542C83.9446 501.081 84.4769 501.424 85.0167 501.307C85.5565 501.191 85.8993 500.658 85.7824 500.118L83.8277 500.542ZM84.8177 496.146C84.674 495.613 84.1252 495.297 83.592 495.441C83.0587 495.585 82.7429 496.133 82.8866 496.667L84.8177 496.146ZM79.7083 487.208C79.9147 487.72 80.4973 487.968 81.0096 487.762C81.5219 487.555 81.7698 486.973 81.5634 486.46L79.7083 487.208ZM79.9557 482.709C79.7274 482.206 79.1346 481.983 78.6318 482.212C78.1289 482.44 77.9063 483.033 78.1346 483.536L79.9557 482.709ZM73.5716 474.63C73.8441 475.11 74.4544 475.279 74.9348 475.006C75.4152 474.734 75.5837 474.124 75.3112 473.643L73.5716 474.63ZM73.2552 470.135C72.9697 469.662 72.355 469.51 71.8823 469.796C71.4095 470.081 71.2577 470.696 71.5432 471.168L73.2552 470.135ZM66.1283 462.698C66.435 463.157 67.056 463.281 67.5153 462.974C67.9746 462.667 68.0983 462.046 67.7916 461.587L66.1283 462.698ZM65.5267 458.231C65.2159 457.775 64.5938 457.657 64.1373 457.968C63.6808 458.279 63.5627 458.901 63.8736 459.357L65.5267 458.231ZM58.1621 451.025C58.4735 451.481 59.0957 451.598 59.5518 451.287C60.0079 450.976 60.1252 450.353 59.8138 449.897L58.1621 451.025ZM57.5522 446.561C57.2442 446.102 56.6229 445.98 56.1645 446.288C55.7061 446.596 55.5841 447.217 55.8921 447.676L57.5522 446.561ZM50.374 439.168C50.6651 439.637 51.2816 439.782 51.7509 439.491C52.2202 439.199 52.3646 438.583 52.0735 438.114L50.374 439.168ZM49.991 434.68C49.7096 434.205 49.0963 434.048 48.6211 434.329C48.1458 434.611 47.9887 435.224 48.2701 435.699L49.991 434.68ZM43.3616 426.797C43.612 427.289 44.214 427.485 44.7063 427.235C45.1985 426.984 45.3946 426.382 45.1442 425.89L43.3616 426.797ZM43.3809 422.296C43.1451 421.796 42.5491 421.582 42.0497 421.818C41.5503 422.054 41.3366 422.65 41.5724 423.15L43.3809 422.296ZM37.5919 413.786C37.7873 414.303 38.3645 414.563 38.8811 414.368C39.3976 414.172 39.658 413.595 39.4626 413.078L37.5919 413.786ZM38.1087 409.313C37.9305 408.79 37.3623 408.511 36.8395 408.689C36.3168 408.867 36.0375 409.436 36.2157 409.958L38.1087 409.313ZM33.3335 400.195C33.4679 400.731 34.0111 401.056 34.5468 400.922C35.0825 400.787 35.4078 400.244 35.2734 399.709L33.3335 400.195ZM34.3571 395.785C34.2402 395.245 33.7079 394.902 33.1681 395.019C32.6283 395.136 32.2855 395.668 32.4024 396.208L34.3571 395.785ZM30.643 386.213C30.718 386.761 31.2224 387.143 31.7696 387.068C32.3167 386.993 32.6995 386.489 32.6244 385.942L30.643 386.213ZM32.1818 382.07C32.1406 381.519 31.6607 381.106 31.11 381.147C30.5592 381.188 30.1462 381.668 30.1874 382.219L32.1818 382.07ZM30.3372 371.972C30.29 372.522 30.6978 373.006 31.2481 373.053C31.7983 373.101 32.2827 372.693 32.3298 372.142L30.3372 371.972ZM32.7632 368.099C32.8329 367.552 32.4452 367.051 31.8974 366.981C31.3495 366.912 30.8489 367.299 30.7792 367.847L32.7632 368.099ZM32.446 357.831C32.3374 358.372 32.6883 358.9 33.2298 359.008C33.7713 359.117 34.2983 358.766 34.4069 358.224L32.446 357.831ZM35.2329 354.324C35.3528 353.784 35.0129 353.25 34.4738 353.13C33.9347 353.01 33.4005 353.35 33.2806 353.889L35.2329 354.324ZM35.7005 344.03C35.5584 344.564 35.8758 345.112 36.4095 345.254C36.9432 345.396 37.491 345.079 37.6332 344.545L35.7005 344.03ZM38.7178 340.581C38.8671 340.049 38.557 339.497 38.0253 339.348C37.4936 339.199 36.9415 339.509 36.7922 340.041L38.7178 340.581ZM39.6563 330.365C39.4927 330.893 39.7877 331.453 40.3151 331.617C40.8426 331.78 41.4029 331.485 41.5665 330.958L39.6563 330.365ZM42.797 327.055C42.9654 326.529 42.6756 325.966 42.1496 325.798C41.6237 325.63 41.0607 325.919 40.8923 326.445L42.797 327.055ZM44.0694 316.857C43.8909 317.38 44.1697 317.948 44.6924 318.127C45.215 318.305 45.7834 318.026 45.962 317.504L44.0694 316.857ZM47.2821 313.683C47.4642 313.162 47.1891 312.591 46.6677 312.409C46.1463 312.227 45.576 312.502 45.3939 313.024L47.2821 313.683ZM48.8052 303.485C48.6156 304.004 48.8823 304.578 49.401 304.768C49.9197 304.957 50.4939 304.691 50.6836 304.172L48.8052 303.485ZM52.0777 300.389C52.27 299.871 52.0061 299.296 51.4884 299.103C50.9707 298.911 50.3951 299.175 50.2028 299.693L52.0777 300.389ZM53.7829 290.222C53.5848 290.737 53.8421 291.316 54.3576 291.514C54.8732 291.712 55.4517 291.455 55.6498 290.939L53.7829 290.222ZM57.1083 287.167C57.3085 286.652 57.0535 286.073 56.5388 285.872C56.0241 285.672 55.4445 285.927 55.2443 286.442L57.1083 287.167ZM58.9504 277.041C58.7457 277.554 58.9954 278.135 59.5084 278.34C60.0213 278.545 60.6031 278.295 60.8079 277.782L58.9504 277.041ZM62.3226 274.007C62.529 273.494 62.2811 272.912 61.7689 272.705C61.2566 272.499 60.674 272.747 60.4675 273.259L62.3226 274.007ZM64.2711 263.921C64.061 264.432 64.3046 265.016 64.8154 265.227C65.3261 265.437 65.9105 265.193 66.1207 264.682L64.2711 263.921ZM67.6785 260.91C67.89 260.4 67.6479 259.815 67.1377 259.604C66.6275 259.392 66.0425 259.634 65.831 260.144L67.6785 260.91ZM69.717 250.849C69.5025 251.358 69.7412 251.945 70.2501 252.159C70.7591 252.374 71.3455 252.135 71.56 251.626L69.717 250.849ZM73.1418 247.884C73.3574 247.375 73.1199 246.788 72.6114 246.573C72.103 246.357 71.516 246.595 71.3004 247.103L73.1418 247.884ZM75.2654 237.815C75.0474 238.322 75.282 238.91 75.7894 239.128C76.2969 239.346 76.8849 239.112 77.103 238.604L75.2654 237.815ZM78.7045 234.886C78.9234 234.379 78.6898 233.79 78.1827 233.571C77.6757 233.352 77.0872 233.586 76.8683 234.093L78.7045 234.886ZM80.8968 224.812C80.6759 225.319 80.9072 225.908 81.4134 226.129C81.9196 226.35 82.509 226.118 82.7299 225.612L80.8968 224.812ZM84.3484 221.91C84.57 221.404 84.3395 220.815 83.8336 220.593C83.3277 220.371 82.738 220.602 82.5164 221.108L84.3484 221.91ZM86.5936 211.84C86.3704 212.345 86.5991 212.936 87.1042 213.159C87.6094 213.382 88.1999 213.153 88.423 212.648L86.5936 211.84ZM90.0568 208.955C90.2805 208.45 90.0526 207.86 89.5476 207.636C89.0427 207.412 88.452 207.64 88.2282 208.145L90.0568 208.955ZM92.3398 198.897C92.1148 199.402 92.3413 199.993 92.8457 200.218C93.3501 200.443 93.9414 200.216 94.1663 199.712L92.3398 198.897ZM95.8142 196.021C96.0396 195.517 95.8135 194.925 95.3093 194.7C94.8051 194.475 94.2137 194.701 93.9883 195.205L95.8142 196.021ZM98.1227 185.979C97.8964 186.483 98.1214 187.074 98.6252 187.301C99.129 187.527 99.7209 187.302 99.9471 186.798L98.1227 185.979ZM101.606 183.108C101.832 182.604 101.608 182.012 101.104 181.786C100.601 181.559 100.009 181.784 99.782 182.287L101.606 183.108ZM103.937 173.066C103.71 173.569 103.934 174.162 104.437 174.389C104.941 174.616 105.533 174.392 105.76 173.889L103.937 173.066ZM107.42 170.212C107.648 169.709 107.424 169.116 106.92 168.889C106.417 168.662 105.825 168.885 105.597 169.389L107.42 170.212ZM109.77 160.158C109.543 160.662 109.766 161.254 110.269 161.482C110.772 161.709 111.365 161.486 111.592 160.983L109.77 160.158ZM113.255 157.307C113.483 156.804 113.26 156.212 112.756 155.984C112.253 155.756 111.661 155.98 111.433 156.483L113.255 157.307ZM115.608 147.256C115.38 147.76 115.604 148.352 116.107 148.58C116.61 148.807 117.202 148.584 117.43 148.081L115.608 147.256ZM119.095 144.4C119.323 143.897 119.099 143.304 118.596 143.077C118.093 142.849 117.5 143.073 117.273 143.576L119.095 144.4ZM121.437 134.359C121.21 134.862 121.433 135.454 121.937 135.681C122.44 135.909 123.033 135.685 123.26 135.181L121.437 134.359ZM124.925 131.488C125.152 130.985 124.928 130.393 124.424 130.166C123.921 129.939 123.329 130.163 123.102 130.667L124.925 131.488ZM127.243 121.461C127.017 121.965 127.242 122.556 127.746 122.782C128.25 123.009 128.841 122.784 129.068 122.28L127.243 121.461ZM130.731 118.569C130.957 118.065 130.731 117.474 130.227 117.248C129.723 117.022 129.132 117.248 128.906 117.752L130.731 118.569ZM133.012 108.555C132.787 109.06 133.015 109.651 133.519 109.875C134.024 110.1 134.615 109.873 134.839 109.368L133.012 108.555ZM136.497 105.635C136.721 105.13 136.493 104.539 135.989 104.316C135.484 104.092 134.893 104.32 134.669 104.824L136.497 105.635ZM138.728 95.629C138.506 96.1347 138.735 96.7246 139.241 96.9467C139.747 97.1687 140.337 96.9388 140.559 96.4331L138.728 95.629ZM142.205 92.6748C142.426 92.1687 142.195 91.5792 141.689 91.358C141.183 91.1369 140.594 91.3679 140.373 91.8739L142.205 92.6748ZM144.37 82.665C144.151 83.1722 144.385 83.7605 144.892 83.979C145.4 84.1976 145.988 83.9636 146.207 83.4563L144.37 82.665ZM147.831 79.6724C148.049 79.1647 147.813 78.5769 147.305 78.3597C146.798 78.1424 146.21 78.3779 145.993 78.8856L147.831 79.6724ZM149.91 69.6399C149.697 70.1492 149.937 70.7352 150.446 70.9488C150.955 71.1623 151.541 70.9225 151.755 70.4132L149.91 69.6399ZM153.342 66.6091C153.554 66.099 153.312 65.5139 152.802 65.3022C152.292 65.0904 151.706 65.3323 151.495 65.8424L153.342 66.6091ZM155.305 56.5294C155.099 57.0417 155.347 57.6242 155.859 57.8305C156.371 58.0368 156.954 57.7887 157.16 57.2764L155.305 56.5294ZM158.682 53.4681C158.886 52.9547 158.635 52.3734 158.121 52.1699C157.608 51.9663 157.027 52.2174 156.823 52.7308L158.682 53.4681ZM160.471 43.3198C160.276 43.8364 160.537 44.4135 161.053 44.6087C161.57 44.8039 162.147 44.5434 162.342 44.0267L160.471 43.3198ZM163.752 40.2508C163.943 39.7326 163.678 39.1577 163.16 38.9667C162.641 38.7757 162.066 39.0409 161.875 39.5591L163.752 40.2508ZM165.246 30.0467C165.069 30.5699 165.35 31.1374 165.873 31.3143C166.396 31.4911 166.963 31.2104 167.14 30.6872L165.246 30.0467ZM168.401 26.8678C168.571 26.3421 168.282 25.7788 167.756 25.6096C167.23 25.4404 166.667 25.7294 166.498 26.2551L168.401 26.8678ZM169.357 16.5489C169.217 17.0832 169.537 17.6296 170.071 17.7694C170.606 17.9092 171.152 17.5894 171.292 17.0551L169.357 16.5489ZM172.241 13.1682C172.362 12.6294 172.024 12.0943 171.485 11.9731C170.946 11.8518 170.411 12.1903 170.29 12.7291L172.241 13.1682ZM171.732 2.83895C171.717 3.39102 172.152 3.85065 172.704 3.86552C173.257 3.88045 173.716 3.44493 173.731 2.89286L171.732 2.83895ZM87.361 526.54C87.4161 525.844 87.4641 525.155 87.5051 524.472L85.5087 524.352C85.4685 525.022 85.4214 525.699 85.3673 526.382L87.361 526.54ZM87.5969 514.284C87.5355 512.907 87.4437 511.555 87.323 510.225L85.3312 510.406C85.4491 511.705 85.5388 513.027 85.5989 514.373L87.5969 514.284ZM85.7824 500.118C85.4907 498.771 85.1685 497.448 84.8177 496.146L82.8866 496.667C83.2288 497.936 83.5432 499.227 83.8277 500.542L85.7824 500.118ZM81.5634 486.46C81.0524 485.192 80.5156 483.942 79.9557 482.709L78.1346 483.536C78.6832 484.744 79.2085 485.967 79.7083 487.208L81.5634 486.46ZM75.3112 473.643C74.6424 472.464 73.9562 471.295 73.2552 470.135L71.5432 471.168C72.2356 472.315 72.9125 473.468 73.5716 474.63L75.3112 473.643ZM67.7916 461.587C67.0441 460.468 66.2883 459.35 65.5267 458.231L63.8736 459.357C64.6328 460.472 65.3851 461.585 66.1283 462.698L67.7916 461.587ZM59.8138 449.897C59.0593 448.792 58.3048 447.681 57.5522 446.561L55.8921 447.676C56.6482 448.801 57.4056 449.917 58.1621 451.025L59.8138 449.897ZM52.0735 438.114C51.3719 436.983 50.6772 435.839 49.991 434.68L48.2701 435.699C48.9638 436.871 49.6658 438.027 50.374 439.168L52.0735 438.114ZM45.1442 425.89C44.544 424.71 43.9557 423.513 43.3809 422.296L41.5724 423.15C42.1559 424.385 42.7529 425.6 43.3616 426.797L45.1442 425.89ZM39.4626 413.078C38.9957 411.844 38.544 410.59 38.1087 409.313L36.2157 409.958C36.6583 411.256 37.1175 412.532 37.5919 413.786L39.4626 413.078ZM35.2734 399.709C34.9509 398.423 34.6451 397.115 34.3571 395.785L32.4024 396.208C32.695 397.56 33.0058 398.889 33.3335 400.195L35.2734 399.709ZM32.6244 385.942C32.5329 385.274 32.4457 384.602 32.363 383.923L30.3777 384.166C30.4617 384.854 30.5501 385.536 30.643 386.213L32.6244 385.942ZM32.363 383.923C32.2897 383.323 32.2294 382.705 32.1818 382.07L30.1874 382.219C30.2371 382.884 30.3005 383.533 30.3777 384.166L32.363 383.923ZM32.3298 372.142C32.4418 370.837 32.5866 369.489 32.7632 368.099L30.7792 367.847C30.5994 369.261 30.4516 370.637 30.3372 371.972L32.3298 372.142ZM34.4069 358.224C34.6628 356.949 34.9383 355.648 35.2329 354.324L33.2806 353.889C32.9831 355.227 32.7047 356.541 32.446 357.831L34.4069 358.224ZM37.6332 344.545C37.9802 343.242 38.3419 341.92 38.7178 340.581L36.7922 340.041C36.414 341.388 36.05 342.718 35.7005 344.03L37.6332 344.545ZM41.5665 330.958C41.9659 329.67 42.3762 328.369 42.797 327.055L40.8923 326.445C40.4697 327.765 40.0576 329.072 39.6563 330.365L41.5665 330.958ZM45.962 317.504C46.3939 316.24 46.834 314.966 47.2821 313.683L45.3939 313.024C44.9444 314.311 44.5028 315.589 44.0694 316.857L45.962 317.504ZM50.6836 304.172C51.1418 302.919 51.6066 301.658 52.0777 300.389L50.2028 299.693C49.7306 300.964 49.2646 302.229 48.8052 303.485L50.6836 304.172ZM55.6498 290.939C56.1307 289.688 56.6169 288.43 57.1083 287.167L55.2443 286.442C54.752 287.708 54.2648 288.968 53.7829 290.222L55.6498 290.939ZM60.8079 277.782C61.3084 276.529 61.8134 275.27 62.3226 274.007L60.4675 273.259C59.9576 274.524 59.4518 275.785 58.9504 277.041L60.8079 277.782ZM66.1207 264.682C66.6364 263.429 67.1558 262.171 67.6785 260.91L65.831 260.144C65.3076 261.407 64.7875 262.666 64.2711 263.921L66.1207 264.682ZM71.56 251.626C72.0844 250.381 72.6118 249.134 73.1418 247.884L71.3004 247.103C70.7699 248.355 70.242 249.603 69.717 250.849L71.56 251.626ZM77.103 238.604C77.6346 237.367 78.1685 236.127 78.7045 234.886L76.8683 234.093C76.3319 235.335 75.7975 236.576 75.2654 237.815L77.103 238.604ZM82.7299 225.612C83.2677 224.38 83.8073 223.146 84.3484 221.91L82.5164 221.108C81.9749 222.344 81.435 223.579 80.8968 224.812L82.7299 225.612ZM88.423 212.648C88.9665 211.418 89.5111 210.187 90.0568 208.955L88.2282 208.145C87.6823 209.377 87.1374 210.609 86.5936 211.84L88.423 212.648ZM94.1663 199.712C94.715 198.482 95.2643 197.251 95.8142 196.021L93.9883 195.205C93.4382 196.436 92.8886 197.666 92.3398 198.897L94.1663 199.712ZM99.9471 186.798C100.5 185.568 101.053 184.337 101.606 183.108L99.782 182.287C99.2287 183.517 98.6756 184.748 98.1227 185.979L99.9471 186.798ZM105.76 173.889C106.314 172.662 106.867 171.436 107.42 170.212L105.597 169.389C105.044 170.613 104.491 171.839 103.937 173.066L105.76 173.889ZM111.592 160.983C112.147 159.756 112.702 158.53 113.255 157.307L111.433 156.483C110.88 157.706 110.325 158.931 109.77 160.158L111.592 160.983ZM117.43 148.081C117.986 146.851 118.541 145.624 119.095 144.4L117.273 143.576C116.719 144.8 116.164 146.027 115.608 147.256L117.43 148.081ZM123.26 135.181C123.817 133.947 124.372 132.716 124.925 131.488L123.102 130.667C122.549 131.894 121.994 133.124 121.437 134.359L123.26 135.181ZM129.068 122.28C129.625 121.038 130.179 119.802 130.731 118.569L128.906 117.752C128.354 118.984 127.8 120.22 127.243 121.461L129.068 122.28ZM134.839 109.368C135.395 108.118 135.948 106.874 136.497 105.635L134.669 104.824C134.12 106.062 133.568 107.306 133.012 108.555L134.839 109.368ZM140.559 96.4331C141.112 95.1733 141.661 93.9204 142.205 92.6748L140.373 91.8739C139.829 93.1184 139.28 94.3702 138.728 95.629L140.559 96.4331ZM146.207 83.4563C146.754 82.1861 147.295 80.9247 147.831 79.6724L145.993 78.8856C145.457 80.1363 144.916 81.3962 144.37 82.665L146.207 83.4563ZM151.755 70.4132C152.291 69.1338 152.82 67.8656 153.342 66.6091L151.495 65.8424C150.974 67.0967 150.446 68.3626 149.91 69.6399L151.755 70.4132ZM157.16 57.2764C157.677 55.9922 158.185 54.7226 158.682 53.4681L156.823 52.7308C156.327 53.982 155.821 55.2483 155.305 56.5294L157.16 57.2764ZM162.342 44.0267C162.825 42.7485 163.295 41.4897 163.752 40.2508L161.875 39.5591C161.421 40.7926 160.953 42.0464 160.471 43.3198L162.342 44.0267ZM167.14 30.6872C167.58 29.3849 168.001 28.1115 168.401 26.8678L166.498 26.2551C166.1 27.4888 165.683 28.753 165.246 30.0467L167.14 30.6872ZM171.292 17.0551C171.644 15.7077 171.961 14.4113 172.241 13.1682L170.29 12.7291C170.016 13.9473 169.704 15.2212 169.357 16.5489L171.292 17.0551ZM173.731 2.89286C173.749 2.21178 173.743 1.56234 173.709 0.946084L171.712 1.05451C171.742 1.60994 171.749 2.20482 171.732 2.83895L173.731 2.89286Z" fill="#28334C" fill-opacity="0.16"/>
<mask id="mask0_572_810" style="mask-type:alpha" maskUnits="userSpaceOnUse" x="6" y="443" width="109" height="109">
<circle cx="60.5293" cy="497.163" r="54" fill="#C4C4C4"/>
</mask>
<g mask="url(#mask0_572_810)">
<path d="M-34.4707 455.163C-34.4707 444.117 -25.5164 435.163 -14.4707 435.163H135.529C146.575 435.163 155.529 444.117 155.529 455.163V558.163H-34.4707V455.163Z" fill="#858FA9"/>
<g style="mix-blend-mode:color">
<path d="M-34.4707 455.163C-34.4707 444.117 -25.5164 435.163 -14.4707 435.163H135.529C146.575 435.163 155.529 444.117 155.529 455.163V558.163H-34.4707V455.163Z" fill="#858FA9"/>
</g>
<path d="M61.0359 554.176C93.3482 554.176 119.542 527.981 119.542 495.669C119.542 463.357 93.3482 437.163 61.0359 437.163C28.7236 437.163 2.5293 463.357 2.5293 495.669C2.5293 527.981 28.7236 554.176 61.0359 554.176Z" fill="#CBCDEB"/>
<path d="M82.3085 482.843C82.184 481.556 81.6236 480.332 81.3746 479.066C81.8519 477.613 82.0802 476.015 82.0802 474.894C82.0594 473.379 81.8934 471.137 81.1047 469.892C80.5651 469.041 79.6104 468.024 78.6349 467.775C78.4897 467.63 78.3652 467.464 78.2406 467.319C78.3444 463.998 77.5143 460.573 74.6502 458.747C72.3049 457.253 69.5445 456.423 66.888 457.253C66.1616 454.866 64.3352 453.06 61.8447 452.583C60.1221 452.251 58.3579 452.417 56.7391 453.206C54.9127 454.119 53.7713 455.343 52.8373 456.983C48.2506 456.651 43.5186 459.079 41.4224 463.624C40.8205 464.932 40.4677 466.343 40.3847 467.796C40.3224 469.187 41.0696 470.909 40.53 472.051C39.9281 473.337 39.1602 474.168 39.1602 475.745C39.1602 476.99 39.513 478.402 40.2809 479.377C39.7828 480.726 39.5752 482.158 39.7205 483.528C39.9281 485.375 41.9205 490.315 44.2658 490.273C44.2865 490.46 44.3073 490.647 44.328 490.813C44.3488 491.456 44.2865 492.099 44.4525 492.743C44.6186 493.469 44.9506 494.175 45.2827 494.797C45.8016 495.731 46.5487 496.375 47.3996 496.894C48.4373 497.516 51.5297 499.011 52.1731 497.039C52.2562 496.811 52.0901 496.499 51.8826 496.437C51.343 496.292 50.7618 496.499 50.2015 496.396C49.4751 496.292 48.7487 495.98 48.0845 495.586C48.2921 495.607 48.4789 495.565 48.6449 495.462C49.3713 495.607 50.1185 495.565 50.8864 495.669C52.2147 495.835 53.5015 496.271 54.8298 496.499C56.5731 496.79 58.3164 496.914 60.039 497.35C60.122 497.371 60.2259 497.392 60.3089 497.413C63.339 500.36 68.6314 500.899 72.3256 499.135C72.6577 498.969 73.0106 498.782 73.3841 498.533C74.3596 498.16 75.2727 497.662 76.0407 497.101C77.2237 496.23 78.2406 494.196 78.2199 492.39C78.3029 491.85 78.3029 491.311 78.1784 490.792C78.9463 490.211 79.6519 489.484 80.1915 488.841C81.7066 487.118 82.5576 485.188 82.3085 482.843Z" fill="#001526"/>
<path d="M44.8887 477.053C44.8887 477.053 45.7188 495.482 47.4207 500.297C49.0603 504.926 57.8809 511.048 60.5167 511.193C64.5431 511.422 72.409 504.967 74.0901 501.709C76.3315 497.371 77.6805 479.937 77.6805 479.937L62.8619 466.094L47.1094 467.277L44.8887 477.053Z" fill="#FF6B42"/>
<path d="M83.4714 528.233C83.4714 528.233 70.1677 551.81 68.8602 553.263C67.5527 554.715 62.0528 555.463 60.434 555.463C58.7944 555.463 52.9624 550.253 52.4643 549.215C51.9661 548.178 36.4004 528.15 36.4004 528.15C36.4004 528.15 45.138 521.259 48.687 516.652C49.2681 515.884 49.7247 514.992 50.0361 514.016C51.0323 510.986 50.887 507.271 50.6379 504.863C50.4719 503.369 50.285 502.394 50.285 502.394L70.8734 501.688C70.8734 501.688 70.4791 509.969 71.9319 515.739C73.3847 521.508 83.4714 528.233 83.4714 528.233Z" fill="#FF6B42"/>
<path d="M45.7404 482.947C45.6159 482.905 43.831 482.158 42.2537 482.905C40.6764 483.652 41.1952 487.824 42.1707 489.505C44.0178 492.701 46.8819 492.888 46.8819 492.888L45.7404 482.947Z" fill="#FF6B42"/>
<path d="M76.1867 483.362C76.3113 483.32 78.1169 482.635 79.6734 483.403C81.23 484.171 80.6074 488.343 79.5904 490.003C77.6603 493.137 74.7754 493.262 74.7754 493.262L76.1867 483.362Z" fill="#FF6B42"/>
<path d="M52.5687 485.853C52.2988 484.939 51.2404 485.126 51.1366 486.039C51.0744 486.558 51.0536 487.534 51.5933 487.845C52.0291 488.094 52.4441 487.762 52.5894 487.368C52.6724 487.056 52.7139 486.371 52.5687 485.853Z" fill="black"/>
<path d="M70.6448 485.624C70.375 484.711 69.3166 484.898 69.2128 485.811C69.1505 486.33 69.1298 487.305 69.6694 487.616C70.1053 487.865 70.5203 487.533 70.6656 487.139C70.7486 486.849 70.7901 486.143 70.6448 485.624Z" fill="black"/>
<path d="M55.0168 481.37C55.0583 480.332 51.9036 480.228 51.281 480.27C50.3263 480.311 49.33 480.456 48.4376 480.788C47.9602 480.954 45.9056 481.971 47.3791 482.262C48.9772 482.573 50.4715 481.868 52.0488 482.013C52.8582 482.096 54.5809 482.407 54.9338 481.639C54.9753 481.536 54.996 481.453 55.0168 481.37Z" fill="#001526"/>
<path d="M66.2032 481.556C66.1825 480.498 69.3372 480.456 69.9598 480.498C70.9145 480.56 71.9107 480.726 72.7824 481.079C73.2598 481.266 75.2937 482.324 73.8201 482.594C72.9277 482.76 72.0352 482.552 71.1427 482.449C70.1673 482.324 69.1711 482.262 68.1957 482.283C67.6353 482.303 66.556 482.49 66.2654 481.805C66.2239 481.722 66.2032 481.639 66.2032 481.556Z" fill="#001526"/>
<path d="M67.7198 511.982C66.433 513.352 63.1331 515.988 59.8124 516.154C57.1144 516.278 51.8842 514.639 50.0371 514.016C51.0333 510.986 50.9088 507.354 50.6597 504.946C50.6597 504.946 57.2181 511.463 61.2445 510.591C64.2954 509.927 66.0802 508.682 66.9519 508.786C67.8444 508.89 69.0273 510.612 67.7198 511.982Z" fill="#D94921"/>
<path d="M120.352 620.694C117.592 626.36 117.737 627.522 113.399 627.128C109.041 626.733 101.818 627.646 98.7466 631.963C95.675 636.28 81.1677 642.278 72.4509 642.507C63.7341 642.735 42.4816 639.29 36.9402 639.788C31.3987 640.286 27.1233 639.663 26.1271 634.682C25.6082 632.171 15.5631 631.673 10.4576 627.003C5.99537 622.935 5.39353 602.409 7.53123 586.428C7.84254 584.062 8.23686 581.8 8.65194 579.704C9.04628 577.815 9.37835 575.906 9.68966 573.996C10.7066 567.687 11.3915 561.357 12.4708 555.566C13.384 550.71 14.5877 546.206 16.4971 542.387C17.5556 540.27 18.8423 538.361 20.4197 536.722C22.8064 534.21 29.7176 529.644 35.7779 525.825C40.0948 523.107 43.9966 520.782 45.5532 519.848C46.0098 519.578 46.2588 519.433 46.2588 519.433C46.2588 519.433 53.6889 521.343 60.7039 521.28C68.1547 521.197 74.0905 519.807 74.0905 519.807C74.0905 519.807 75.1281 520.201 76.8508 520.907H76.8715C79.196 521.861 82.7658 523.376 86.5846 525.224C93.0392 528.337 100.241 532.363 103.603 536.161C104.267 536.908 104.952 537.863 105.679 539.025C107.692 542.242 109.954 546.953 112.196 552.308C114.375 557.497 116.554 563.266 118.526 568.932C120.041 573.27 121.452 577.566 122.635 581.426C124.752 588.275 126.225 593.858 126.537 596.328C127.616 604.526 123.112 615.028 120.352 620.694Z" fill="#002B4D"/>
<path d="M76.8711 520.886C76.8711 520.886 58.2752 523.792 57.694 523.771C57.1337 523.771 45.8433 519.931 45.5527 519.828C45.6773 519.703 47.8565 517.669 48.5829 515.677C48.6659 515.448 48.7282 515.22 48.7697 514.992C49.1847 512.73 48.9772 510.799 50.6791 511.069C52.381 511.339 56.8639 512.397 61.8657 512.231C66.8467 512.045 71.7863 511.028 72.1391 511.36C72.907 512.107 72.8655 514.203 73.1353 515.946C73.2183 516.486 73.3221 516.984 73.5089 517.399C74.1938 519.08 76.622 520.741 76.8711 520.886C76.8503 520.886 76.8711 520.886 76.8711 520.886Z" fill="#002B4D"/>
<path d="M64.5636 497.994C62.7579 499.778 59.0844 499.737 57.341 497.911C56.8844 497.454 56.2203 498.201 56.6769 498.658C58.8354 500.899 63.1315 500.795 65.3314 498.658C65.788 498.201 65.0202 497.558 64.5636 497.994Z" fill="#D94921"/>
<path d="M61.2022 486.682C61.0154 486.06 60.04 486.309 60.2268 486.931C60.6419 488.281 61.1815 489.588 61.5758 490.958C61.8249 491.767 62.1362 492.328 61.7833 493.199C61.5758 493.697 61.0361 494.341 60.6625 494.756C60.2474 495.254 60.9532 495.98 61.3683 495.482C62.0739 494.673 63.1116 493.552 63.0286 492.411C62.9041 490.501 61.7625 488.509 61.2022 486.682Z" fill="#D94921"/>
<path d="M86.5841 525.203C84.5709 525.701 82.5992 526.282 80.6898 526.801C71.9729 529.229 63.4429 531.429 54.3525 529.935C50.2846 529.27 46.4036 527.963 42.398 527.05C40.2188 526.552 37.9981 526.136 35.7773 525.804C40.0943 523.086 43.9961 520.761 45.5527 519.827C45.6772 519.703 47.8564 517.669 48.5828 515.676C51.3639 516.423 54.1242 517.233 56.9676 517.689C62.3845 518.582 67.8221 517.42 73.156 515.925C73.239 516.465 73.3427 516.963 73.5295 517.378C74.2352 519.059 76.6635 520.72 76.871 520.865H76.8918C79.1955 521.84 82.7445 523.355 86.5841 525.203Z" fill="#001526"/>
<path d="M112.195 552.287C111.843 552.163 111.469 552.059 111.095 551.976C109.601 551.623 107.463 551.602 105.679 551.602C101.445 551.602 97.2107 551.934 93.0391 552.495C84.6128 553.657 76.3112 555.649 67.8019 556.127C59.7699 556.563 51.7379 555.94 43.7268 555.255C35.4043 554.549 27.1648 553.761 18.8008 554.653C16.6838 554.881 14.5876 555.172 12.4707 555.525C13.3839 550.668 14.5876 546.165 16.497 542.346C18.1159 542.138 19.7347 541.972 21.3535 541.848C38.1853 540.519 54.9133 544.919 71.7867 543.238C80.3375 542.387 88.7222 540.208 97.3145 539.44C100.075 539.191 102.877 538.984 105.658 539.004C107.692 542.221 109.933 546.933 112.195 552.287Z" fill="#001526"/>
<path d="M80.317 481.1C80.2548 480.913 80.1717 480.726 80.0887 480.539C79.3831 478.92 78.7397 477.322 78.0548 475.683C77.6605 474.749 77.1831 473.96 76.5397 473.234C75.9378 472.549 75.1491 471.989 74.568 471.262C74.0699 470.64 73.6964 469.934 73.1983 469.332C72.2436 468.19 71.0398 467.526 69.7531 466.841C69.0059 466.447 68.2588 466.157 67.5946 465.596C66.972 465.077 66.4946 464.351 65.8305 463.874C63.589 462.234 60.8079 463.542 58.4212 463.915C56.574 464.206 54.7684 463.853 52.9212 463.77C51.5307 463.708 49.8289 463.438 48.5213 464.081C46.6119 465.015 45.5327 467.298 45.1799 469.415C44.8893 471.138 44.9516 472.881 44.495 474.583C44.2044 475.704 43.7271 476.741 43.2705 477.8C40.9045 479.336 38.5177 481.203 38.995 484.379C39.1818 485.562 39.8253 486.911 40.7384 487.679C42.129 488.841 43.478 487.886 44.4327 486.683C44.9101 486.06 45.2421 485.147 45.3459 484.213C46.1138 483.715 46.7987 482.968 47.1515 482.386C48.044 480.892 48.5421 479.045 48.8534 477.302C49.0402 476.326 49.3307 475.164 49.4552 474.022C50.5137 474.292 51.6967 474.189 52.6099 473.856C53.5024 473.524 55.1005 472.673 56.2419 471.594C57.591 472.632 59.5419 473.005 61.4721 473.068C63.1532 473.109 64.5645 473.213 66.0173 474.189C66.9097 474.79 67.7191 475.413 68.6946 475.828C69.7738 476.285 70.7077 476.741 71.6624 477.032C71.953 479.17 73.053 481.307 74.485 482.49C74.9209 482.864 75.7095 483.279 76.5605 483.569C76.5812 483.798 76.6435 484.026 76.685 484.213C76.9548 485.562 77.7434 487.16 79.134 487.305C79.1962 487.305 79.2378 487.305 79.3001 487.285C80.2133 487.471 81.1057 486.6 81.334 485.666C81.8113 483.922 81.0227 482.553 80.317 481.1Z" fill="#001526"/>
<path d="M75.3362 485.354C74.506 483.279 72.9494 482.449 70.8325 482.304C67.9061 482.117 66.2251 482.802 64.4817 485.583C63.2572 484.939 61.9081 484.67 60.4968 484.69C59.3138 484.711 58.1516 484.836 57.0102 485.147C56.8441 484.275 55.7025 483.487 54.9554 483.092C54.0837 482.615 53.0876 482.449 52.1121 482.387C48.8952 482.179 46.2594 483.071 45.9896 486.454C45.7198 489.962 49.7046 492.224 52.797 491.519C55.2252 490.979 57.1554 488.924 57.1969 486.558C58.1516 486.122 59.6459 486.081 60.4968 486.06C61.8459 486.039 63.0704 486.309 64.2326 487.015C64.2741 487.036 64.3157 487.036 64.3364 487.056C64.5439 490.211 68.2382 492.183 71.1646 491.519C74.2155 490.854 76.5815 488.447 75.3362 485.354ZM54.146 489.505C52.1743 490.854 49.2687 490.481 47.899 488.447C46.9443 487.015 47.2971 485.873 48.4801 484.773C49.5178 483.819 53.1083 483.528 54.6856 484.939C56.3875 486.454 55.9516 488.281 54.146 489.505ZM72.5136 489.485C70.5419 490.834 67.6363 490.46 66.2665 488.426C65.3118 486.994 65.9968 485.604 67.1798 484.504C68.7571 483.051 71.6005 483.321 73.1778 484.711C74.8589 486.226 74.2985 488.26 72.5136 489.485Z" fill="#FFD6B3"/>
</g>
</svg>
