<svg width="127" height="594" viewBox="0 0 127 594" fill="none" xmlns="http://www.w3.org/2000/svg">
<path d="M2.80728 3.16738C3.02464 3.67509 2.78925 4.26288 2.28154 4.48024C1.77382 4.69759 1.18604 4.46221 0.96868 3.9545L2.80728 3.16738ZM4.87565 13.3004C4.66702 12.7891 4.91243 12.2054 5.42379 11.9968C5.93515 11.7881 6.51882 12.0336 6.72746 12.5449L4.87565 13.3004ZM8.23515 16.2767C8.44028 16.7895 8.19088 17.3715 7.6781 17.5766C7.16532 17.7817 6.58335 17.5323 6.37822 17.0195L8.23515 16.2767ZM10.0606 26.4624C9.86444 25.9461 10.124 25.3685 10.6402 25.1724C11.1565 24.9762 11.7341 25.2358 11.9302 25.752L10.0606 26.4624ZM13.3539 29.5393C13.5464 30.0569 13.2829 30.6326 12.7652 30.8251C12.2476 31.0177 11.6719 30.7541 11.4794 30.2365L13.3539 29.5393ZM14.9156 39.7313C14.7323 39.2103 15.006 38.6394 15.527 38.4561C16.0479 38.2727 16.6189 38.5464 16.8022 39.0674L14.9156 39.7313ZM18.1379 42.9066C18.3175 43.4289 18.0397 43.9979 17.5175 44.1775C16.9952 44.3571 16.4262 44.0793 16.2466 43.557L18.1379 42.9066ZM19.4354 53.1062C19.2651 52.5808 19.5531 52.0169 20.0785 51.8467C20.6039 51.6764 21.1678 51.9644 21.338 52.4898L19.4354 53.1062ZM22.5819 56.3773C22.7483 56.904 22.4563 57.4658 21.9296 57.6321C21.403 57.7985 20.8412 57.5065 20.6748 56.9799L22.5819 56.3773ZM23.6197 66.603C23.4629 66.0734 23.7651 65.517 24.2946 65.3602C24.8242 65.2034 25.3806 65.5056 25.5374 66.0351L23.6197 66.603ZM26.6806 69.9487C26.8335 70.4794 26.5272 71.0335 25.9965 71.1864C25.4658 71.3393 24.9117 71.0331 24.7588 70.5024L26.6806 69.9487ZM27.4652 80.2313C27.3221 79.6979 27.6385 79.1495 28.1719 79.0064C28.7053 78.8633 29.2538 79.1797 29.3969 79.7131L27.4652 80.2313ZM30.4287 83.6166C30.5679 84.1511 30.2474 84.6972 29.713 84.8363C29.1785 84.9755 28.6324 84.6551 28.4932 84.1206L30.4287 83.6166ZM30.9541 93.9452C30.8249 93.4082 31.1555 92.8682 31.6924 92.739C32.2294 92.6098 32.7694 92.9404 32.8986 93.4774L30.9541 93.9452ZM33.8254 97.3931C33.9506 97.931 33.616 98.4686 33.0781 98.5938C32.5402 98.719 32.0027 98.3844 31.8775 97.8465L33.8254 97.3931ZM34.0826 107.739C33.9675 107.199 34.3121 106.668 34.8523 106.553C35.3924 106.438 35.9236 106.782 36.0387 107.322L34.0826 107.739ZM36.8645 111.27C36.9756 111.811 36.6271 112.34 36.0861 112.451C35.5451 112.562 35.0165 112.213 34.9054 111.672L36.8645 111.27ZM36.8477 121.606C36.7468 121.064 37.1052 120.542 37.6482 120.441C38.1912 120.34 38.7132 120.698 38.814 121.241L36.8477 121.606ZM39.5371 125.217C39.6339 125.76 39.2716 126.28 38.7279 126.376C38.1842 126.473 37.6649 126.111 37.5681 125.567L39.5371 125.217ZM39.2469 135.54C39.1604 134.995 39.5324 134.482 40.0778 134.396C40.6233 134.309 41.1357 134.681 41.2222 135.227L39.2469 135.54ZM41.8413 139.225C41.9238 139.771 41.548 140.281 41.0019 140.363C40.4558 140.446 39.9462 140.07 39.8638 139.524L41.8413 139.225ZM41.2791 149.531C41.2069 148.984 41.5922 148.481 42.1398 148.409C42.6873 148.337 43.1897 148.722 43.2619 149.27L41.2791 149.531ZM43.7764 153.287C43.8445 153.835 43.4554 154.334 42.9073 154.402C42.3593 154.47 41.8598 154.081 41.7916 153.533L43.7764 153.287ZM42.9442 163.572C42.8863 163.023 43.2846 162.53 43.8339 162.472C44.3831 162.415 44.8753 162.813 44.9332 163.362L42.9442 163.572ZM45.3427 167.392C45.3965 167.942 44.9946 168.431 44.4449 168.485C43.8953 168.539 43.406 168.137 43.3522 167.587L45.3427 167.392ZM44.2435 177.652C44.1998 177.101 44.6108 176.62 45.1613 176.576C45.7119 176.532 46.1936 176.943 46.2372 177.494L44.2435 177.652ZM46.5424 181.532C46.5819 182.083 46.1675 182.562 45.6166 182.601C45.0658 182.641 44.5871 182.226 44.5475 181.676L46.5424 181.532ZM45.1798 191.762C45.1503 191.21 45.5734 190.739 46.1249 190.71C46.6764 190.68 47.1474 191.103 47.177 191.655L45.1798 191.762ZM47.3788 195.696C47.4043 196.248 46.9778 196.716 46.4261 196.741C45.8744 196.767 45.4065 196.341 45.3809 195.789L47.3788 195.696ZM45.7579 205.891C45.7422 205.339 46.1771 204.879 46.7291 204.863C47.2812 204.848 47.7414 205.283 47.7571 205.835L45.7579 205.891ZM47.8573 209.874C47.8691 210.426 47.431 210.883 46.8788 210.895C46.3267 210.907 45.8695 210.469 45.8578 209.917L47.8573 209.874ZM45.9841 220.03C45.9821 219.478 46.4281 219.028 46.9804 219.026C47.5327 219.024 47.982 219.47 47.9841 220.023L45.9841 220.03ZM47.9854 224.054C47.9837 224.607 47.5346 225.053 46.9823 225.051C46.43 225.049 45.9837 224.6 45.9854 224.048L47.9854 224.054ZM45.8673 234.167C45.8784 233.615 46.3351 233.177 46.8873 233.188C47.4394 233.199 47.878 233.656 47.8669 234.208L45.8673 234.167ZM47.7725 238.227C47.7578 238.779 47.2982 239.215 46.7461 239.2C46.194 239.185 45.7585 238.726 45.7733 238.174L47.7725 238.227ZM45.4186 248.292C45.4425 247.74 45.9091 247.312 46.4609 247.336C47.0127 247.36 47.4406 247.827 47.4168 248.378L45.4186 248.292ZM47.2287 252.427C47.2014 252.978 46.732 253.403 46.1804 253.376C45.6288 253.349 45.2038 252.879 45.2312 252.328L47.2287 252.427ZM44.6522 262.393C44.6882 261.842 45.1642 261.424 45.7153 261.46C46.2664 261.496 46.684 261.972 46.648 262.523L44.6522 262.393ZM46.3689 266.604C46.3295 267.155 45.851 267.57 45.3002 267.531C44.7493 267.491 44.3346 267.013 44.374 266.462L46.3689 266.604ZM43.5799 276.526C43.6273 275.976 44.1119 275.569 44.6621 275.616C45.2123 275.663 45.6199 276.148 45.5725 276.698L43.5799 276.526ZM45.2118 280.747C45.1612 281.297 44.6744 281.702 44.1244 281.651C43.5744 281.6 43.1696 281.114 43.2202 280.564L45.2118 280.747ZM42.2258 290.622C42.2838 290.073 42.776 289.674 43.3253 289.732C43.8745 289.79 44.2727 290.283 44.2147 290.832L42.2258 290.622ZM43.7811 294.839C43.7202 295.388 43.2259 295.783 42.677 295.723C42.1281 295.662 41.7324 295.167 41.7932 294.618L43.7811 294.839ZM40.6177 304.663C40.6852 304.115 41.1842 303.725 41.7324 303.793C42.2805 303.86 42.6702 304.359 42.6028 304.908L40.6177 304.663ZM42.0986 308.929C42.0287 309.477 41.5279 309.865 40.9801 309.795C40.4322 309.725 40.0448 309.224 40.1147 308.676L42.0986 308.929ZM38.7828 318.696C38.8583 318.149 39.363 317.767 39.9101 317.842C40.4572 317.918 40.8395 318.423 40.764 318.97L38.7828 318.696ZM40.2006 322.998C40.1231 323.545 39.6171 323.925 39.0702 323.848C38.5234 323.77 38.1429 323.264 38.2204 322.718L40.2006 322.998ZM36.7622 332.722C36.8439 332.176 37.3528 331.799 37.8991 331.881C38.4453 331.963 38.8219 332.472 38.7402 333.018L36.7622 332.722ZM38.1413 336.991C38.0584 337.537 37.5485 337.913 37.0025 337.83C36.4564 337.747 36.081 337.237 36.164 336.691L38.1413 336.991ZM34.6195 346.705C34.7046 346.159 35.216 345.786 35.7617 345.871C36.3074 345.956 36.6807 346.468 36.5956 347.013L34.6195 346.705ZM35.9675 351.029C35.8819 351.574 35.3703 351.947 34.8247 351.862C34.2791 351.776 33.9061 351.265 33.9916 350.719L35.9675 351.029ZM32.4308 360.699C32.5155 360.153 33.0266 359.78 33.5723 359.864C34.1181 359.949 34.4918 360.46 34.4071 361.006L32.4308 360.699ZM33.7872 365.024C33.7037 365.57 33.1933 365.945 32.6474 365.861C32.1015 365.778 31.7267 365.268 31.8103 364.722L33.7872 365.024ZM30.3226 374.742C30.4004 374.195 30.9068 373.815 31.4536 373.893C32.0003 373.971 32.3804 374.477 32.3026 375.024L30.3226 374.742ZM31.7475 379.014C31.6734 379.562 31.1696 379.945 30.6223 379.871C30.0751 379.797 29.6915 379.293 29.7656 378.746L31.7475 379.014ZM28.5253 388.827C28.5845 388.278 29.0777 387.881 29.6268 387.94C30.1759 387.999 30.573 388.492 30.5138 389.041L28.5253 388.827ZM30.1306 393.033C30.0888 393.584 29.6084 393.997 29.0577 393.955C28.5071 393.913 28.0945 393.433 28.1364 392.882L30.1306 393.033ZM27.9987 403.137C27.9703 402.586 28.3945 402.116 28.946 402.087C29.4976 402.059 29.9677 402.483 29.996 403.035L27.9987 403.137ZM30.3125 407.054C30.371 407.603 29.9732 408.095 29.424 408.154C28.8749 408.212 28.3823 407.815 28.3238 407.265L30.3125 407.054ZM30.1259 417.401C29.9913 416.866 30.3164 416.322 30.852 416.188C31.3876 416.053 31.931 416.378 32.0656 416.914L30.1259 417.401ZM33.1499 420.77C33.3141 421.298 33.0197 421.858 32.4924 422.022C31.965 422.187 31.4045 421.892 31.2403 421.365L33.1499 420.77ZM34.9496 430.959C34.7175 430.458 34.9356 429.864 35.4367 429.632C35.9378 429.4 36.5323 429.618 36.7644 430.119L34.9496 430.959ZM38.5401 433.72C38.7961 434.209 38.6069 434.813 38.1175 435.069C37.6281 435.325 37.0239 435.136 36.7679 434.647L38.5401 433.72ZM42.017 443.471C41.7109 443.011 41.8354 442.39 42.295 442.084C42.7547 441.778 43.3755 441.902 43.6816 442.362L42.017 443.471ZM45.9767 445.676C46.299 446.125 46.1968 446.75 45.7483 447.072C45.2998 447.394 44.675 447.292 44.3527 446.843L45.9767 445.676ZM50.6386 454.922C50.2848 454.498 50.3418 453.868 50.7659 453.514C51.19 453.16 51.8206 453.217 52.1744 453.641L50.6386 454.922ZM54.8007 456.718C55.1638 457.134 55.1206 457.766 54.7044 458.129C54.2882 458.492 53.6565 458.449 53.2935 458.033L54.8007 456.718ZM60.1625 465.581C59.7838 465.178 59.8028 464.546 60.2048 464.167C60.6068 463.788 61.2397 463.807 61.6184 464.209L60.1625 465.581ZM64.4152 467.152C64.7973 467.55 64.7838 468.183 64.385 468.565C63.9862 468.948 63.3532 468.934 62.9711 468.535L64.4152 467.152ZM70.0374 475.852C69.6539 475.455 69.6652 474.822 70.0626 474.438C70.46 474.055 71.0931 474.066 71.4766 474.464L70.0374 475.852ZM74.297 477.403C74.678 477.802 74.6628 478.435 74.2629 478.816C73.8631 479.197 73.2301 479.182 72.8491 478.782L74.297 477.403ZM79.7185 486.228C79.353 485.814 79.3923 485.182 79.8063 484.816C80.2203 484.451 80.8522 484.49 81.2178 484.904L79.7185 486.228ZM83.8884 488.005C84.2432 488.428 84.1877 489.059 83.7644 489.414C83.3412 489.768 82.7104 489.713 82.3557 489.29L83.8884 488.005ZM88.4722 497.281C88.1603 496.826 88.277 496.203 88.7328 495.891C89.1885 495.579 89.8109 495.696 90.1228 496.152L88.4722 497.281ZM92.3589 499.614C92.6453 500.086 92.4947 500.701 92.0225 500.987C91.5503 501.274 90.9353 501.123 90.6488 500.651L92.3589 499.614ZM95.064 509.58C94.8686 509.064 95.1289 508.486 95.6454 508.291C96.162 508.096 96.7391 508.356 96.9346 508.872L95.064 509.58ZM98.2294 512.822C98.3769 513.354 98.0651 513.905 97.5329 514.053C97.0006 514.2 96.4496 513.888 96.3021 513.356L98.2294 512.822ZM97.7368 523.127C97.7266 522.575 98.1661 522.119 98.7183 522.109C99.2705 522.099 99.7263 522.538 99.7364 523.091L97.7368 523.127ZM1.99705 1.28372C2.26859 1.91205 2.53867 2.53994 2.80728 3.16738L0.96868 3.9545C0.700968 3.32916 0.431795 2.70337 0.161155 2.07712L1.99705 1.28372ZM6.72746 12.5449C7.23573 13.7907 7.73827 15.0346 8.23515 16.2767L6.37822 17.0195C5.88303 15.7817 5.3822 14.542 4.87565 13.3004L6.72746 12.5449ZM11.9302 25.752C12.4106 27.0164 12.8851 28.2789 13.3539 29.5393L11.4794 30.2365C11.0122 28.9804 10.5393 27.7224 10.0606 26.4624L11.9302 25.752ZM16.8022 39.0674C17.2533 40.3493 17.6985 41.629 18.1379 42.9066L16.2466 43.557C15.8088 42.2839 15.3652 41.0087 14.9156 39.7313L16.8022 39.0674ZM21.338 52.4898C21.7586 53.7879 22.1732 55.0838 22.5819 56.3773L20.6748 56.9799C20.2676 55.691 19.8545 54.3997 19.4354 53.1062L21.338 52.4898ZM25.5374 66.0351C25.9244 67.3421 26.3054 68.6466 26.6806 69.9487L24.7588 70.5024C24.385 69.205 24.0053 67.9053 23.6197 66.603L25.5374 66.0351ZM29.3969 79.7131C29.7466 81.0169 30.0906 82.318 30.4287 83.6166L28.4932 84.1206C28.1563 82.8268 27.8137 81.5303 27.4652 80.2313L29.3969 79.7131ZM32.8986 93.4774C33.2133 94.7853 33.5222 96.0906 33.8254 97.3931L31.8775 97.8465C31.5754 96.5488 31.2676 95.2484 30.9541 93.9452L32.8986 93.4774ZM36.0387 107.322C36.3197 108.641 36.595 109.957 36.8645 111.27L34.9054 111.672C34.6368 110.364 34.3626 109.053 34.0826 107.739L36.0387 107.322ZM38.814 121.241C39.0608 122.57 39.3018 123.895 39.5371 125.217L37.5681 125.567C37.3336 124.25 37.0935 122.93 36.8477 121.606L38.814 121.241ZM41.2222 135.227C41.4342 136.563 41.6406 137.896 41.8413 139.225L39.8638 139.524C39.6638 138.199 39.4582 136.871 39.2469 135.54L41.2222 135.227ZM43.2619 149.27C43.439 150.612 43.6104 151.951 43.7764 153.287L41.7916 153.533C41.6263 152.203 41.4555 150.869 41.2791 149.531L43.2619 149.27ZM44.9332 163.362C45.0751 164.709 45.2116 166.053 45.3427 167.392L43.3522 167.587C43.2216 166.252 43.0856 164.914 42.9442 163.572L44.9332 163.362ZM46.2372 177.494C46.3442 178.844 46.4459 180.19 46.5424 181.532L44.5475 181.676C44.4514 180.338 44.3501 178.997 44.2435 177.652L46.2372 177.494ZM47.177 191.655C47.2494 193.006 47.3166 194.354 47.3788 195.696L45.3809 195.789C45.3189 194.451 45.252 193.109 45.1798 191.762L47.177 191.655ZM47.7571 205.835C47.7954 207.186 47.8288 208.532 47.8573 209.874L45.8578 209.917C45.8293 208.58 45.7961 207.238 45.7579 205.891L47.7571 205.835ZM47.9841 220.023C47.9892 221.372 47.9896 222.716 47.9854 224.054L45.9854 224.048C45.9896 222.714 45.9892 221.375 45.9841 220.03L47.9841 220.023ZM47.8669 234.208C47.8398 235.553 47.8083 236.893 47.7725 238.227L45.7733 238.174C45.8089 236.844 45.8403 235.508 45.8673 234.167L47.8669 234.208ZM47.4168 248.378C47.3582 249.734 47.2954 251.083 47.2287 252.427L45.2312 252.328C45.2977 250.989 45.3602 249.643 45.4186 248.292L47.4168 248.378ZM46.648 262.523C46.5587 263.891 46.4656 265.251 46.3689 266.604L44.374 266.462C44.4704 265.112 44.5632 263.756 44.6522 262.393L46.648 262.523ZM45.5725 276.698C45.4555 278.055 45.3352 279.405 45.2118 280.747L43.2202 280.564C43.3432 279.225 43.4632 277.88 43.5799 276.526L45.5725 276.698ZM44.2147 290.832C44.0728 292.176 43.9281 293.511 43.7811 294.839L41.7932 294.618C41.9399 293.294 42.0842 291.962 42.2258 290.622L44.2147 290.832ZM42.6028 304.908C42.4366 306.257 42.2685 307.598 42.0986 308.929L40.1147 308.676C40.2842 307.348 40.452 306.01 40.6177 304.663L42.6028 304.908ZM40.764 318.97C40.5773 320.323 40.3894 321.666 40.2006 322.998L38.2204 322.718C38.4088 321.388 38.5964 320.047 38.7828 318.696L40.764 318.97ZM38.7402 333.018C38.5405 334.354 38.3407 335.679 38.1413 336.991L36.164 336.691C36.3632 335.38 36.5627 334.057 36.7622 332.722L38.7402 333.018ZM36.5956 347.013C36.3845 348.366 36.1749 349.705 35.9675 351.029L33.9916 350.719C34.199 349.395 34.4085 348.057 34.6195 346.705L36.5956 347.013ZM34.4071 361.006C34.1964 362.363 33.9896 363.702 33.7872 365.024L31.8103 364.722C32.0129 363.398 32.2199 362.057 32.4308 360.699L34.4071 361.006ZM32.3026 375.024C32.11 376.376 31.9247 377.706 31.7475 379.014L29.7656 378.746C29.9435 377.433 30.1294 376.098 30.3226 374.742L32.3026 375.024ZM30.5138 389.041C30.4427 389.701 30.3747 390.353 30.31 390.999L28.32 390.799C28.3852 390.148 28.4537 389.491 28.5253 388.827L30.5138 389.041ZM30.31 390.999C30.2415 391.682 30.1818 392.36 30.1306 393.033L28.1364 392.882C28.1888 392.192 28.2499 391.498 28.32 390.799L30.31 390.999ZM29.996 403.035C30.0659 404.395 30.172 405.734 30.3125 407.054L28.3238 407.265C28.1794 405.91 28.0704 404.534 27.9987 403.137L29.996 403.035ZM32.0656 416.914C32.3936 418.219 32.7558 419.505 33.1499 420.77L31.2403 421.365C30.8353 420.064 30.4631 418.743 30.1259 417.401L32.0656 416.914ZM36.7644 430.119C37.3285 431.337 37.9211 432.536 38.5401 433.72L36.7679 434.647C36.1346 433.436 35.5277 432.207 34.9496 430.959L36.7644 430.119ZM43.6816 442.362C44.4267 443.481 45.1926 444.585 45.9767 445.676L44.3527 446.843C43.5554 445.734 42.776 444.61 42.017 443.471L43.6816 442.362ZM52.1744 453.641C53.0386 454.677 53.9148 455.702 54.8007 456.718L53.2935 458.033C52.3988 457.007 51.513 455.971 50.6386 454.922L52.1744 453.641ZM61.6184 464.209C62.5483 465.197 63.4815 466.177 64.4152 467.152L62.9711 468.535C62.0344 467.557 61.0972 466.573 60.1625 465.581L61.6184 464.209ZM71.4766 474.464C72.4242 475.446 73.3654 476.425 74.297 477.403L72.8491 478.782C71.9214 477.809 70.9833 476.833 70.0374 475.852L71.4766 474.464ZM81.2178 484.904C82.128 485.935 83.0194 486.968 83.8884 488.005L82.3557 489.29C81.4989 488.267 80.6188 487.247 79.7185 486.228L81.2178 484.904ZM90.1228 496.152C90.9057 497.296 91.6525 498.449 92.3589 499.614L90.6488 500.651C89.963 499.52 89.2362 498.398 88.4722 497.281L90.1228 496.152ZM96.9346 508.872C97.4257 510.17 97.8591 511.486 98.2294 512.822L96.3021 513.356C95.9488 512.082 95.5346 510.824 95.064 509.58L96.9346 508.872ZM99.7364 523.091C99.7492 523.785 99.7443 524.486 99.7212 525.192L97.7223 525.127C97.7442 524.455 97.7489 523.788 97.7368 523.127L99.7364 523.091Z" fill="#28334C" fill-opacity="0.16"/>
<mask id="mask0_566_808" style="mask-type:alpha" maskUnits="userSpaceOnUse" x="16" y="483" width="109" height="109">
<circle cx="70.999" cy="537.959" r="54" fill="#C4C4C4"/>
</mask>
<g mask="url(#mask0_566_808)">
<path d="M-24.001 495.959C-24.001 484.914 -15.0467 475.959 -4.00098 475.959H145.999C157.045 475.959 165.999 484.914 165.999 495.959V598.959H-24.001V495.959Z" fill="#858FA9"/>
<g style="mix-blend-mode:color">
<path d="M-24.001 495.959C-24.001 484.914 -15.0467 475.959 -4.00098 475.959H145.999C157.045 475.959 165.999 484.914 165.999 495.959V598.959H-24.001V495.959Z" fill="#858FA9"/>
</g>
<path d="M71.0355 593.411C101.786 593.411 126.714 568.483 126.714 537.733C126.714 506.983 101.786 482.055 71.0355 482.055C40.2854 482.055 15.3574 506.983 15.3574 537.733C15.3574 568.483 40.2854 593.411 71.0355 593.411Z" fill="#CBCDEB"/>
<path d="M44.1945 535.481C42.5354 533.269 41.3701 531.077 42.4762 528.312C43.0292 526.89 44.0563 525.724 45.0636 524.579C46.5844 522.841 47.6904 521.083 48.362 518.851C49.3693 515.533 49.5668 511.978 50.9889 508.778C54.5046 500.996 63.9258 499.91 71.1151 502.675C71.2534 502.734 71.2929 502.853 71.2731 502.952C75.3813 504.571 78.2847 509.548 79.5883 513.36C80.7141 516.659 81.1486 520.135 81.4054 523.611C81.6622 527.265 82.1164 531.156 80.8524 534.672C80.7536 534.948 80.4573 535.027 80.2401 534.968C79.9043 535.857 79.529 536.726 79.0155 537.575C78.4427 538.563 77.7712 539.767 76.8627 540.538C74.4728 543.619 71.6089 542.789 68.1722 541.367C66.1181 540.518 64.0838 539.629 61.9902 538.879C61.4766 538.701 60.9434 538.543 60.4101 538.405C60.6076 543.244 59.5805 548.221 55.5118 550.927C51.2259 553.771 43.9377 551.46 44.9253 545.475C45.2413 543.579 46.6239 541.841 46.5054 539.886C46.4066 538.168 45.1821 536.785 44.1945 535.481Z" fill="#002B4D"/>
<path d="M53.6154 536.469C55.551 540.577 60.0147 543.876 61.0615 544.034C64.7945 544.567 73.4454 540.656 75.9735 538.602C78.5017 536.528 79.5287 531.748 79.5287 531.748L82.3728 519.681C82.3728 519.681 78.1066 512.827 74.4527 511.523C70.779 510.22 60.4887 505.381 60.4887 505.381C60.4887 505.381 54.3462 511.049 52.6871 517.686C52.6476 517.824 52.6081 517.962 52.5883 518.12C52.4698 518.614 52.3711 519.128 52.3118 519.641C51.3045 526.08 52.6871 534.533 53.6154 536.469Z" fill="#FF6B42"/>
<path d="M57.1113 557.03C57.1113 557.03 65.6042 576.129 66.0585 575.991C66.5128 575.853 82.9259 554.541 82.9259 554.541C82.9259 554.541 79.5682 552.329 79.2522 551.124C78.9361 549.919 78.7584 533.941 78.7584 533.941C78.7584 533.941 70.4235 536.647 70.0285 536.647C69.6137 536.647 60.9232 542.355 60.9232 542.355C60.9232 542.355 60.943 543.007 60.943 543.994C60.9628 545.634 61.0022 548.201 60.9825 550.275C60.9825 551.993 60.943 553.376 60.864 553.593C60.5875 554.225 57.1113 557.03 57.1113 557.03Z" fill="#FF6B42"/>
<path d="M60.9829 550.295C63.1357 549.703 66.7107 548.399 68.4092 547.253C70.7004 545.733 71.9052 542.553 70.8781 542.177C69.8708 541.802 69.9301 541.921 66.1181 543.125C62.3062 544.33 60.9434 543.995 60.9434 543.995C60.9631 545.654 60.9829 548.221 60.9829 550.295Z" fill="#D94921"/>
<path d="M69.9891 522.446C70.2853 521.538 71.3519 521.735 71.4506 522.644C71.5099 523.177 71.5297 524.164 70.9766 524.461C70.5421 524.698 70.1273 524.362 69.9891 523.967C69.8508 523.671 69.8113 522.96 69.9891 522.446Z" fill="black"/>
<path d="M54.9982 522.505C55.2549 521.675 56.2228 521.873 56.3215 522.683C56.361 523.157 56.3807 524.046 55.8869 524.322C55.4919 524.539 55.1167 524.243 54.9784 523.868C54.8797 523.631 54.8599 522.979 54.9982 522.505Z" fill="black"/>
<path d="M59.8175 533.368C60.015 533.328 60.2125 533.309 60.3705 533.289C61.4963 533.249 62.6221 533.151 63.7282 533.19C64.5972 533.17 65.5057 532.953 66.3748 533.131C67.4413 533.348 67.3031 533.921 66.6316 534.711C66.1575 535.284 65.5255 535.718 64.8935 536.015C63.0566 536.903 59.9557 536.469 59.2249 534.198C59.0669 533.704 59.4224 533.467 59.8175 533.368Z" fill="white"/>
<path d="M68.0531 518.752C68.3296 517.982 69.5542 517.943 70.206 517.943C71.4305 517.923 73.4649 518.14 74.1562 519.345C74.5314 519.997 73.4057 519.799 73.1094 519.779C72.2996 519.72 71.4898 519.661 70.68 519.621C69.969 519.602 69.179 519.7 68.5074 519.384C68.0729 519.187 67.9741 518.95 68.0531 518.752Z" fill="#002B4D"/>
<path d="M51.9561 519.641C52.6671 519.602 54.2274 519.483 54.9582 519.463C55.6692 519.444 56.4593 519.542 57.1308 519.226C57.5456 519.029 57.6443 518.812 57.5653 518.614C57.2888 517.844 56.0643 517.804 55.4125 517.804C54.7607 517.804 53.0226 517.903 52.2523 518.14C52.1141 518.614 52.0153 519.128 51.9561 519.641Z" fill="#002B4D"/>
<path d="M60.7258 504.098C60.7653 503.999 60.9234 503.999 61.0024 504.078C61.1801 503.861 61.4369 503.703 61.7727 503.584C62.6812 503.268 63.7675 503.841 64.6958 503.861C65.1303 503.88 65.5451 503.821 65.9599 503.742C69.0805 502.123 72.8135 501.51 76.1119 501.866C81.1287 502.419 85.7899 505.204 88.7723 509.272C92.0114 513.677 93.157 519.681 91.0832 524.836C88.8908 530.287 83.4197 532.203 79.7856 536.43C79.4893 536.766 79.035 536.588 78.8573 536.272C78.7783 536.213 78.4622 534.771 78.4622 534.692C78.8573 531.729 79.9633 528.451 77.9092 524.856C76.2106 521.893 72.8332 520.609 70.0286 518.931C67.3227 517.311 64.8341 515.257 62.9182 512.749C61.1209 510.418 59.3828 507.06 60.7258 504.098Z" fill="#002B4D"/>
<path d="M80.4768 529.714C80.7335 529.22 81.4446 529.576 81.3459 530.07C81.1483 530.958 80.9706 531.847 80.8126 532.697C80.9903 532.736 81.1681 532.776 81.3261 532.795C81.6026 532.835 81.8989 532.914 82.1556 532.993C87.9229 533.546 90.7473 539.57 95.9023 541.486C98.0947 542.295 100.425 542.533 102.381 543.915C104.198 545.219 105.521 547.194 106.015 549.366C106.588 551.835 105.64 554.739 107.121 556.951C108.721 559.36 112.157 559.854 114.508 561.237C118.26 563.469 120.789 567.537 121.322 571.843C121.855 576.267 120.058 580.672 116.799 583.674C113.165 587.012 108.345 587.96 103.566 587.012C94.105 585.135 86.3033 577.373 83.5974 568.248C82.7679 565.424 82.5507 562.54 82.3927 559.617C82.1952 555.45 81.4841 551.835 80.1805 547.885C78.2844 542.157 77.5931 535.304 80.4768 529.714Z" fill="#002B4D"/>
<path d="M74.8481 522.624C76.1319 520.095 79.5884 521.972 80.3192 523.947C81.2277 526.416 79.4304 530.425 76.606 530.702C76.211 530.741 75.9937 530.247 76.1715 529.931C76.843 528.825 77.9293 528.233 78.5416 527.186C78.3836 527.107 78.2453 526.969 78.1861 526.771C77.949 526.1 77.712 525.428 77.3565 524.836C76.8627 524.342 76.4282 523.769 75.8357 523.354C75.7172 523.275 75.6382 523.177 75.5789 523.058C75.4604 523.078 75.3616 523.117 75.2431 523.137C74.9271 523.216 74.7099 522.9 74.8481 522.624Z" fill="#FF6B42"/>
<path d="M78.6993 529.616C78.9166 529.26 79.2326 528.964 79.4499 528.648C79.8844 528.016 80.3387 527.384 80.7535 526.752C80.793 526.712 80.8325 526.692 80.872 526.673C80.951 526.515 81.0497 526.376 81.1287 526.218C81.2275 526.041 81.5435 526.159 81.4645 526.357C81.0695 527.305 80.714 528.194 80.1609 529.063C80.1017 529.161 80.0227 529.28 79.9634 529.398C79.8844 529.734 79.6869 529.951 79.4894 530.327C79.0549 531.235 78.8771 532.341 79.1536 533.329C79.3906 534.198 79.9239 534.929 80.6152 535.501C81.1485 535.936 81.6818 536.153 81.9978 536.765C82.1163 536.983 81.9978 537.18 81.8003 537.259C79.8449 538.03 78.1068 535.027 77.8698 533.467C77.7316 532.519 77.9093 530.623 78.6993 529.616Z" fill="#002B4D"/>
<path d="M81.3261 553.376C81.3261 553.376 76.1316 559.143 71.9839 563.864C67.8362 568.604 66.6907 571.31 66.0784 570.875C65.4661 570.461 59.5605 554.956 59.5605 554.956C59.5605 554.956 48.3025 559.044 44.372 562.718C40.4416 566.392 34.5953 571.981 34.3583 581.877C34.1212 591.772 41.3304 598.25 41.8439 602.813C42.3574 607.375 41.8439 614.604 43.2462 617.902C44.6485 621.201 47.5519 624.124 47.5519 624.124C47.5519 624.124 56.3016 626.652 69.0015 626.277C81.7014 625.902 90.9054 625.388 93.4335 619.305C95.9616 613.221 94.4408 606.23 94.5791 600.917C94.7173 595.604 104.771 567.044 101.867 562.856C98.9045 558.669 81.3261 553.376 81.3261 553.376Z" fill="#4949B7"/>
<path d="M98.4895 560.21C98.4895 560.21 110.083 566.412 117.312 578.578C124.541 590.765 134.18 604.452 133.548 611.819C132.916 619.186 128.274 621.201 124.818 625.27C121.361 629.338 111.584 634.276 107.792 632.637C103.98 630.978 99.0425 621.853 99.161 618.041C99.2796 614.229 106.271 607.257 105.639 604.472C105.007 601.687 93.8678 587.98 93.4135 587.98C92.9395 587.98 98.4895 560.21 98.4895 560.21Z" fill="#4949B7"/>
<path d="M81.3259 553.376C81.3259 553.376 86.5204 555.41 86.7772 557.425C87.0339 559.459 83.5183 559.42 81.0099 562.086C78.5015 564.753 77.8102 566.155 74.8278 568.624C71.2331 571.606 66.0781 570.895 66.0781 570.895C66.0781 570.895 72.1022 562.56 75.1043 558.847C76.6449 556.931 81.3259 553.376 81.3259 553.376Z" fill="white"/>
<path d="M59.5404 554.976C59.5404 554.976 54.3262 556.517 53.6941 558.077C53.0621 559.637 57.0715 562.6 58.1381 564.259C59.2046 565.918 58.9479 567.261 60.5477 569.039C62.1475 570.816 66.0582 570.895 66.0582 570.895C66.0582 570.895 63.7079 563.627 62.8191 561.454C61.95 559.302 59.5404 554.976 59.5404 554.976Z" fill="white"/>
<path d="M40.6387 579.427C40.5399 577.314 40.6782 575.122 41.3892 573.127C42.199 570.875 43.6013 568.92 44.0951 566.53C44.2334 565.898 45.2012 566.155 45.0827 566.806C44.6877 568.703 43.7791 570.302 42.9693 572.04C41.883 574.411 41.5472 576.84 41.6657 579.427C41.9028 584.266 43.4631 588.928 43.7791 593.767C44.3717 602.832 40.2634 613.063 45.8727 621.22C46.248 621.754 45.3592 622.267 45.0037 621.734C39.4142 613.597 43.2656 603.741 42.8311 594.715C42.5546 589.54 40.8955 584.582 40.6387 579.427Z" fill="black"/>
<path d="M78.9758 534.988C79.5881 534.395 81.2867 534.139 81.7212 533.842C82.136 533.566 82.768 532.973 83.242 533.408C84.8221 534.889 80.0226 538.326 78.8178 535.699C78.6795 535.422 78.7586 535.185 78.9758 534.988Z" fill="#D42E00"/>
<path d="M61.0028 522.762C61.1608 522.13 62.1286 522.387 61.9903 523.038C61.4571 525.211 59.4425 528.193 61.1016 530.287C61.4966 530.801 60.7855 531.512 60.3905 530.998C58.3166 528.43 60.3313 525.448 61.0028 522.762Z" fill="#D94921"/>
</g>
</svg>
