<svg width="435" height="217" viewBox="0 0 435 217" fill="none" xmlns="http://www.w3.org/2000/svg">
<path d="M2.07194 216.027C2.62421 216.023 3.06863 215.572 3.06458 215.019C3.06053 214.467 2.60954 214.023 2.05727 214.027L2.07194 216.027ZM12.119 213.767C11.5672 213.791 11.14 214.259 11.1648 214.81C11.1895 215.362 11.6568 215.789 12.2085 215.765L12.119 213.767ZM16.1604 215.557C16.7117 215.524 17.1317 215.05 17.0985 214.499C17.0653 213.947 16.5915 213.528 16.0402 213.561L16.1604 215.557ZM26.0836 212.749C25.5341 212.805 25.1341 213.296 25.1901 213.845C25.2461 214.395 25.7369 214.795 26.2864 214.739L26.0836 212.749ZM30.2642 214.299C30.8126 214.234 31.2041 213.736 31.1388 213.188C31.0734 212.639 30.5758 212.248 30.0274 212.313L30.2642 214.299ZM39.9326 210.907C39.3877 210.997 39.019 211.512 39.109 212.057C39.1991 212.602 39.7139 212.97 40.2588 212.88L39.9326 210.907ZM44.2321 212.185C44.7752 212.085 45.1341 211.563 45.0338 211.02C44.9334 210.477 44.4118 210.118 43.8687 210.218L44.2321 212.185ZM53.6233 208.171C53.0857 208.297 52.7528 208.836 52.8796 209.373C53.0064 209.911 53.5449 210.244 54.0825 210.117L53.6233 208.171ZM58.0167 209.147C58.5515 209.009 58.8734 208.463 58.7356 207.929C58.5978 207.394 58.0525 207.072 57.5177 207.21L58.0167 209.147ZM67.0882 204.476C66.5614 204.641 66.2687 205.203 66.4344 205.73C66.6002 206.256 67.1616 206.549 67.6885 206.383L67.0882 204.476ZM71.5467 205.123C72.0698 204.946 72.3502 204.378 72.1729 203.855C71.9956 203.332 71.4279 203.051 70.9049 203.229L71.5467 205.123ZM80.2396 199.774C79.7272 199.98 79.479 200.563 79.6851 201.075C79.8912 201.587 80.4737 201.836 80.9861 201.63L80.2396 199.774ZM84.732 200.073C85.2395 199.855 85.4743 199.267 85.2565 198.759C85.0386 198.252 84.4506 198.017 83.9431 198.235L84.732 200.073ZM92.9784 194.044C92.4844 194.291 92.284 194.891 92.5308 195.385C92.7776 195.879 93.3783 196.08 93.8723 195.833L92.9784 194.044ZM97.4726 193.981C97.9607 193.723 98.1469 193.117 97.8885 192.629C97.6301 192.141 97.025 191.955 96.5369 192.213L97.4726 193.981ZM105.207 187.293C104.734 187.579 104.584 188.195 104.871 188.667C105.157 189.139 105.772 189.289 106.244 189.003L105.207 187.293ZM109.672 186.867C110.137 186.569 110.273 185.951 109.975 185.485C109.678 185.02 109.059 184.884 108.594 185.182L109.672 186.867ZM116.839 179.563C116.392 179.887 116.292 180.513 116.616 180.96C116.94 181.407 117.566 181.507 118.013 181.183L116.839 179.563ZM121.247 178.782C121.687 178.448 121.773 177.821 121.438 177.381C121.104 176.941 120.477 176.856 120.037 177.19L121.247 178.782ZM127.815 170.926C127.395 171.284 127.344 171.915 127.703 172.336C128.061 172.756 128.692 172.807 129.112 172.448L127.815 170.926ZM132.143 169.809C132.556 169.441 132.593 168.809 132.225 168.397C131.858 167.984 131.226 167.948 130.814 168.315L132.143 169.809ZM138.102 161.475C137.709 161.863 137.706 162.496 138.094 162.889C138.482 163.282 139.115 163.285 139.508 162.897L138.102 161.475ZM142.343 160.038C142.728 159.642 142.719 159.009 142.323 158.624C141.927 158.239 141.294 158.248 140.909 158.644L142.343 160.038ZM147.697 151.315C147.332 151.729 147.371 152.361 147.785 152.727C148.198 153.092 148.83 153.053 149.196 152.639L147.697 151.315ZM151.845 149.585C152.203 149.165 152.153 148.534 151.732 148.176C151.312 147.817 150.681 147.868 150.323 148.288L151.845 149.585ZM156.636 140.546C156.296 140.981 156.373 141.609 156.808 141.949C157.243 142.289 157.872 142.212 158.212 141.777L156.636 140.546ZM160.674 138.573C161.008 138.132 160.92 137.505 160.48 137.172C160.039 136.839 159.412 136.926 159.079 137.367L160.674 138.573ZM164.961 129.278C164.644 129.73 164.754 130.354 165.207 130.67C165.659 130.987 166.283 130.877 166.6 130.425L164.961 129.278ZM168.888 127.109C169.198 126.652 169.08 126.03 168.623 125.72C168.167 125.409 167.545 125.527 167.234 125.984L168.888 127.109ZM172.735 117.618C172.439 118.084 172.576 118.702 173.042 118.999C173.508 119.295 174.126 119.158 174.423 118.692L172.735 117.618ZM176.558 115.296C176.85 114.827 176.706 114.21 176.236 113.919C175.767 113.627 175.151 113.771 174.859 114.241L176.558 115.296ZM180.042 105.662C179.762 106.138 179.921 106.751 180.397 107.031C180.873 107.311 181.486 107.152 181.766 106.676L180.042 105.662ZM183.793 103.196C184.069 102.718 183.905 102.106 183.427 101.83C182.948 101.554 182.337 101.718 182.061 102.196L183.793 103.196ZM186.989 93.4753C186.721 93.9584 186.896 94.567 187.379 94.8347C187.862 95.1025 188.47 94.928 188.738 94.4449L186.989 93.4753ZM190.687 90.9058C190.952 90.4213 190.774 89.8136 190.29 89.5485C189.805 89.2834 189.198 89.4613 188.932 89.9458L190.687 90.9058ZM193.702 81.1187C193.442 81.6057 193.625 82.2116 194.112 82.4721C194.599 82.7326 195.205 82.5489 195.466 82.0619L193.702 81.1187ZM197.349 78.5302C197.609 78.0426 197.424 77.437 196.936 77.1776C196.449 76.9181 195.843 77.1031 195.584 77.5906L197.349 78.5302ZM200.295 68.7216C200.035 69.2093 200.22 69.8148 200.708 70.0741C201.196 70.3334 201.801 70.1483 202.061 69.6607L200.295 68.7216ZM203.951 66.1134C204.212 65.6263 204.028 65.0204 203.541 64.7601C203.054 64.4997 202.448 64.6835 202.187 65.1706L203.951 66.1134ZM206.974 56.3243C206.708 56.8082 206.884 57.4163 207.368 57.6824C207.852 57.9485 208.46 57.7719 208.726 57.288L206.974 56.3243ZM210.673 53.7795C210.943 53.2976 210.771 52.6882 210.289 52.4183C209.807 52.1484 209.198 52.3202 208.928 52.802L210.673 53.7795ZM213.962 44.0929C213.678 44.5666 213.832 45.1808 214.306 45.4648C214.779 45.7489 215.394 45.5952 215.678 45.1216L213.962 44.0929ZM217.767 41.7006C218.059 41.2317 217.916 40.615 217.447 40.3231C216.978 40.0311 216.361 40.1745 216.069 40.6433L217.767 41.7006ZM221.644 32.2079C221.325 32.6589 221.432 33.2829 221.883 33.6017C222.334 33.9205 222.958 33.8134 223.277 33.3624L221.644 32.2079ZM225.594 30.1888C225.926 29.748 225.839 29.1209 225.398 28.7882C224.957 28.4554 224.33 28.543 223.997 28.9837L225.594 30.1888ZM230.543 21.1731C230.164 21.5748 230.182 22.2077 230.584 22.5867C230.986 22.9657 231.618 22.9473 231.998 22.5457L230.543 21.1731ZM234.773 19.7674C235.175 19.3886 235.194 18.7557 234.815 18.3538C234.436 17.9519 233.803 17.9331 233.401 18.3119L234.773 19.7674ZM241.473 12.0122C241.004 12.3042 240.861 12.921 241.153 13.3897C241.445 13.8585 242.061 14.0018 242.53 13.7099L241.473 12.0122ZM245.93 11.8177C246.425 11.5741 246.63 10.9748 246.386 10.4792C246.143 9.98349 245.543 9.77911 245.048 10.0227L245.93 11.8177ZM254.82 6.83207C254.276 6.92537 253.91 7.44228 254.004 7.98663C254.097 8.53098 254.614 8.89662 255.158 8.80332L254.82 6.83207ZM259.09 8.32977C259.64 8.28081 260.046 7.79517 259.997 7.24506C259.948 6.69495 259.463 6.28869 258.913 6.33765L259.09 8.32977ZM268.809 6.04106C268.257 6.02273 267.795 6.45534 267.777 7.00732C267.758 7.5593 268.191 8.02163 268.743 8.03996L268.809 6.04106ZM272.638 8.27903C273.188 8.32875 273.674 7.92317 273.724 7.37312C273.774 6.82308 273.368 6.33688 272.818 6.28715L272.638 8.27903ZM282.647 7.95001C282.111 7.81408 281.567 8.13783 281.431 8.67313C281.295 9.20842 281.619 9.75256 282.154 9.88849L282.647 7.95001ZM285.86 10.9649C286.384 11.1372 286.949 10.8514 287.122 10.3267C287.294 9.80191 287.008 9.2369 286.483 9.06467L285.86 10.9649ZM295.659 12.9873C295.171 12.7273 294.566 12.9115 294.306 13.3988C294.046 13.8861 294.23 14.4918 294.717 14.7518L295.659 12.9873ZM298.062 16.6819C298.531 16.9734 299.147 16.8295 299.439 16.3604C299.73 15.8914 299.586 15.2748 299.117 14.9832L298.062 16.6819ZM307.155 20.8609C306.733 20.5046 306.103 20.5578 305.746 20.9798C305.39 21.4018 305.443 22.0327 305.865 22.389L307.155 20.8609ZM308.769 24.9652C309.173 25.3413 309.806 25.3183 310.182 24.9139C310.558 24.5095 310.535 23.8767 310.131 23.5006L308.769 24.9652ZM317.051 30.5967C316.682 30.1855 316.05 30.151 315.639 30.5197C315.228 30.8883 315.193 31.5206 315.562 31.9318L317.051 30.5967ZM318.132 34.8735C318.49 35.2936 319.122 35.3436 319.542 34.9851C319.962 34.6266 320.012 33.9954 319.653 33.5753L318.132 34.8735ZM325.908 41.1971C325.562 40.766 324.933 40.6963 324.502 41.0416C324.071 41.3868 324.001 42.0161 324.346 42.4472L325.908 41.1971ZM326.801 45.5167C327.147 45.9478 327.776 46.0174 328.207 45.6721C328.638 45.3269 328.708 44.6976 328.362 44.2665L326.801 45.5167ZM334.585 51.8284C334.225 51.4099 333.593 51.3627 333.175 51.723C332.756 52.0834 332.709 52.7148 333.069 53.1333L334.585 51.8284ZM335.697 56.0977C336.07 56.505 336.702 56.5329 337.11 56.1599C337.517 55.787 337.545 55.1544 337.172 54.7471L335.697 56.0977ZM344.112 61.5083C343.69 61.1517 343.059 61.2045 342.702 61.6263C342.346 62.048 342.399 62.6789 342.82 63.0355L344.112 61.5083ZM345.969 65.5085C346.416 65.8327 347.041 65.733 347.366 65.2859C347.69 64.8387 347.59 64.2135 347.143 63.8893L345.969 65.5085ZM355.476 68.5686C354.964 68.3618 354.381 68.6094 354.174 69.1215C353.968 69.6336 354.215 70.2164 354.727 70.4231L355.476 68.5686ZM358.552 71.7246C359.084 71.8729 359.635 71.5618 359.784 71.0298C359.932 70.4978 359.621 69.9463 359.089 69.7981L358.552 71.7246ZM368.507 71.0736C367.955 71.0711 367.505 71.5168 367.503 72.0691C367.5 72.6214 367.946 73.0711 368.498 73.0735L368.507 71.0736ZM0 216.034C0.693148 216.034 1.38379 216.032 2.07194 216.027L2.05727 214.027C1.37403 214.032 0.688279 214.034 0 214.034V216.034ZM12.2085 215.765C13.5356 215.705 14.8528 215.636 16.1604 215.557L16.0402 213.561C14.7428 213.639 13.4358 213.708 12.119 213.767L12.2085 215.765ZM26.2864 214.739C27.6229 214.603 28.9488 214.456 30.2642 214.299L30.0274 212.313C28.7234 212.469 27.4088 212.614 26.0836 212.749L26.2864 214.739ZM40.2588 212.88C41.5946 212.66 42.919 212.428 44.2321 212.185L43.8687 210.218C42.5681 210.459 41.256 210.688 39.9326 210.907L40.2588 212.88ZM54.0825 210.117C55.406 209.805 56.7173 209.481 58.0167 209.147L57.5177 207.21C56.2316 207.541 54.9335 207.861 53.6233 208.171L54.0825 210.117ZM67.6885 206.383C68.9872 205.975 70.2733 205.554 71.5467 205.123L70.9049 203.229C69.6452 203.656 68.3731 204.071 67.0882 204.476L67.6885 206.383ZM80.9861 201.63C82.2478 201.122 83.4963 200.603 84.732 200.073L83.9431 198.235C82.7215 198.759 81.4871 199.272 80.2396 199.774L80.9861 201.63ZM93.8723 195.833C95.0856 195.227 96.2856 194.609 97.4726 193.981L96.5369 192.213C95.3637 192.834 94.1777 193.445 92.9784 194.044L93.8723 195.833ZM106.244 189.003C107.4 188.301 108.542 187.589 109.672 186.867L108.594 185.182C107.478 185.896 106.349 186.6 105.207 187.293L106.244 189.003ZM118.013 181.183C119.104 180.392 120.182 179.592 121.247 178.782L120.037 177.19C118.984 177.99 117.918 178.782 116.839 179.563L118.013 181.183ZM129.112 172.448C130.135 171.577 131.145 170.697 132.143 169.809L130.814 168.315C129.826 169.194 128.827 170.064 127.815 170.926L129.112 172.448ZM139.508 162.897C140.465 161.951 141.409 160.998 142.343 160.038L140.909 158.644C139.985 159.595 139.049 160.538 138.102 161.475L139.508 162.897ZM149.196 152.639C150.09 151.627 150.973 150.609 151.845 149.585L150.323 148.288C149.458 149.303 148.583 150.312 147.697 151.315L149.196 152.639ZM158.212 141.777C159.043 140.713 159.864 139.645 160.674 138.573L159.079 137.367C158.275 138.431 157.46 139.49 156.636 140.546L158.212 141.777ZM166.6 130.425C167.371 129.322 168.134 128.217 168.888 127.109L167.234 125.984C166.485 127.085 165.728 128.183 164.961 129.278L166.6 130.425ZM174.423 118.692C175.143 117.561 175.854 116.429 176.558 115.296L174.859 114.241C174.159 115.367 173.451 116.493 172.735 117.618L174.423 118.692ZM181.766 106.676C182.449 105.515 183.124 104.355 183.793 103.196L182.061 102.196C181.395 103.35 180.722 104.506 180.042 105.662L181.766 106.676ZM188.738 94.4449C189.394 93.2618 190.043 92.0819 190.687 90.9058L188.932 89.9458C188.29 91.1189 187.643 92.2957 186.989 93.4753L188.738 94.4449ZM195.466 82.0619C196.098 80.8787 196.726 79.7012 197.349 78.5302L195.584 77.5906C194.961 78.7608 194.334 79.937 193.702 81.1187L195.466 82.0619ZM202.061 69.6607C202.694 68.4689 203.324 67.2862 203.951 66.1134L202.187 65.1706C201.56 66.3451 200.929 67.529 200.295 68.7216L202.061 69.6607ZM208.726 57.288C209.377 56.1047 210.025 54.9349 210.673 53.7795L208.928 52.802C208.278 53.9626 207.627 55.137 206.974 56.3243L208.726 57.288ZM215.678 45.1216C216.374 43.9611 217.07 42.8204 217.767 41.7006L216.069 40.6433C215.366 41.7734 214.664 42.9237 213.962 44.0929L215.678 45.1216ZM223.277 33.3624C224.045 32.2757 224.817 31.2174 225.594 30.1888L223.997 28.9837C223.208 30.0302 222.423 31.1054 221.644 32.2079L223.277 33.3624ZM231.998 22.5457C232.913 21.5754 233.838 20.6487 234.773 19.7674L233.401 18.3119C232.436 19.2218 231.483 20.1763 230.543 21.1731L231.998 22.5457ZM242.53 13.7099C243.645 13.0155 244.777 12.3839 245.93 11.8177L245.048 10.0227C243.833 10.6198 242.642 11.2842 241.473 12.0122L242.53 13.7099ZM255.158 8.80332C255.802 8.693 256.453 8.60109 257.11 8.52799L256.89 6.54022C256.193 6.61766 255.503 6.71508 254.82 6.83207L255.158 8.80332ZM257.11 8.52799C257.777 8.45392 258.437 8.3879 259.09 8.32977L258.913 6.33765C258.245 6.39708 257.571 6.46456 256.89 6.54022L257.11 8.52799ZM268.743 8.03996C270.072 8.08409 271.37 8.16441 272.638 8.27903L272.818 6.28715C271.512 6.16905 270.176 6.08643 268.809 6.04106L268.743 8.03996ZM282.154 9.88849C283.422 10.2104 284.656 10.5701 285.86 10.9649L286.483 9.06467C285.237 8.65561 283.959 8.28317 282.647 7.95001L282.154 9.88849ZM294.717 14.7518C295.862 15.3624 296.976 16.0069 298.062 16.6819L299.117 14.9832C297.995 14.2858 296.843 13.6193 295.659 12.9873L294.717 14.7518ZM305.865 22.389C306.855 23.2251 307.822 24.085 308.769 24.9652L310.131 23.5006C309.163 22.6002 308.172 21.7189 307.155 20.8609L305.865 22.389ZM315.562 31.9318C316.432 32.9022 317.288 33.884 318.132 34.8735L319.653 33.5753C318.8 32.5752 317.933 31.5809 317.051 30.5967L315.562 31.9318ZM324.346 42.4472C325.157 43.459 325.998 44.5132 326.801 45.5167L328.362 44.2665C327.537 43.2353 326.743 42.2404 325.908 41.1971L324.346 42.4472ZM333.069 53.1333C333.937 54.1414 334.812 55.1312 335.697 56.0977L337.172 54.7471C336.303 53.798 335.442 52.8236 334.585 51.8284L333.069 53.1333ZM342.82 63.0355C343.846 63.9027 344.894 64.7291 345.969 65.5085L347.143 63.8893C346.112 63.1416 345.103 62.3463 344.112 61.5083L342.82 63.0355ZM354.727 70.4231C355.964 70.9225 357.238 71.3584 358.552 71.7246L359.089 69.7981C357.848 69.4523 356.645 69.0407 355.476 68.5686L354.727 70.4231ZM368.498 73.0735C369.171 73.0765 369.852 73.0632 370.543 73.0332L370.457 71.035C369.797 71.0637 369.147 71.0764 368.507 71.0736L368.498 73.0735Z" fill="#28334C" fill-opacity="0.16"/>
<mask id="mask0_509_810" style="mask-type:alpha" maskUnits="userSpaceOnUse" x="327" y="0" width="108" height="108">
<circle cx="381" cy="54" r="54" fill="#C4C4C4"/>
</mask>
<g mask="url(#mask0_509_810)">
<path d="M286 12C286 0.954309 294.954 -8 306 -8H456C467.046 -8 476 0.954305 476 12V115H286V12Z" fill="#858FA9"/>
<g style="mix-blend-mode:color">
<path d="M286 12C286 0.954309 294.954 -8 306 -8H456C467.046 -8 476 0.954305 476 12V115H286V12Z" fill="#858FA9"/>
</g>
<path d="M381.063 119.714C415.502 119.714 443.42 91.7956 443.42 57.3569C443.42 22.9181 415.502 -5 381.063 -5C346.624 -5 318.706 22.9181 318.706 57.3569C318.706 91.7956 346.624 119.714 381.063 119.714Z" fill="#CBCDEB"/>
<path d="M345.45 89.3647C345.45 89.3647 332.598 95.6911 329.634 105.667C326.692 115.644 318.706 165.458 319.724 169.174C325.342 189.813 340.849 200.099 345.671 200.917C350.493 201.713 357.903 190.609 358.169 185.787C358.434 180.965 358.169 153.403 358.169 153.403L354.829 128.473L345.45 89.3647Z" fill="#A6462B"/>
<path d="M398.493 54.6804C398.317 57.3569 397.808 60.0777 397.056 62.6658C396.104 65.9617 389.756 70.4742 388.562 70.6512C384.403 71.2484 375.289 64.0815 372.458 61.781C369.627 59.4584 368.476 54.1053 368.476 54.1053L365.291 40.5898C365.291 40.5898 370.069 32.9141 374.161 31.4542C378.276 29.9942 389.8 24.5527 389.8 24.5527C390.066 24.4199 392.256 27.0744 392.543 27.3841C393.472 28.4679 396.414 29.6182 397.343 30.7242C398.294 31.8745 398.471 35.9225 398.582 38.6654C398.626 39.5723 398.648 40.4571 398.67 41.3198C398.693 41.8949 398.693 42.4479 398.715 43.0009C398.825 46.5401 398.781 49.9909 398.493 54.6804Z" fill="#FF6B42"/>
<path d="M398.494 84.1003C398.494 84.1003 384.138 103.832 383.629 103.677C383.12 103.522 361.376 81.6892 361.376 81.6892C361.376 81.6892 368.3 77.1767 368.654 75.8273C369.007 74.478 369.207 56.5828 369.207 56.5828C369.207 56.5828 378.652 59.6353 379.116 59.6353C379.581 59.6353 389.446 66.0281 389.446 66.0281C389.446 66.0281 389.446 66.7581 389.424 67.8641C389.424 68.5719 389.402 69.4125 389.402 70.3194C389.38 71.8015 389.38 73.4605 389.402 74.8983C389.402 75.5177 389.402 76.0928 389.424 76.6016C389.446 77.6854 389.491 78.4375 389.557 78.6145C389.823 79.3002 398.494 84.1003 398.494 84.1003Z" fill="#FF6B42"/>
<path d="M378.188 46.2966C377.878 45.3454 376.75 45.5445 376.662 46.5178C376.595 47.0708 376.573 48.1105 377.17 48.4423C377.635 48.6856 378.077 48.3538 378.21 47.9114C378.321 47.6017 378.365 46.8496 378.188 46.2966Z" fill="black"/>
<path d="M394.933 46.5401C394.667 45.6774 393.628 45.8544 393.539 46.7392C393.495 47.248 393.473 48.1991 394.004 48.4867C394.424 48.7079 394.822 48.3982 394.955 48C395.066 47.7125 395.088 47.0268 394.933 46.5401Z" fill="black"/>
<path d="M372.812 42.3592C372.126 43.8191 375.002 43.0671 375.511 43.0228C376.506 42.8901 377.479 42.8237 378.475 42.7795C378.917 42.7574 380.621 43.0228 380.532 42.2265C380.267 39.3509 373.763 40.3242 372.812 42.3592Z" fill="#FFD6B3"/>
<path d="M398.737 43.0008C398.029 43.0671 397.056 42.8902 396.769 42.8681C395.773 42.8017 394.778 42.7796 393.782 42.8017C393.34 42.8017 391.659 43.1556 391.681 42.3593C391.791 39.8818 396.636 39.9924 398.671 41.3196C398.715 41.8726 398.737 42.4256 398.737 43.0008Z" fill="#FFD6B3"/>
<path d="M389.58 51.9594C389.292 50.4994 388.739 49.1058 388.363 47.668C388.186 47.0044 387.191 47.3805 387.368 48.0441C387.633 49.1058 388.009 50.1455 388.297 51.2073C388.783 52.9326 388.496 53.9944 387.722 55.5207C387.412 56.1401 388.385 56.5825 388.695 55.9852C389.336 54.658 389.867 53.4414 389.58 51.9594Z" fill="#D94921"/>
<path d="M389.402 76.5793C388.163 76.4908 386.527 76.3581 384.691 76.0926C380.842 75.5396 376.838 72.1774 376.838 69.6114C376.838 68.3284 378.276 68.1957 378.784 68.3727C379.293 68.5497 384.779 70.8059 386.504 70.8502C388.208 70.8944 389.402 70.2972 389.402 70.2972C389.38 71.7792 389.38 73.4382 389.402 74.876C389.402 75.4954 389.402 76.0705 389.402 76.5793Z" fill="#D94921"/>
<path d="M368.875 72.7083C368.875 72.7083 380.665 79.8531 382.811 80.1185C384.957 80.4061 389.403 76.5793 389.403 76.5793C389.403 76.5793 393.783 80.937 395.021 81.5342C396.26 82.1315 399.821 84.3435 399.954 84.5426C400.087 84.7416 399.335 104.805 383.674 105.114C365.292 105.468 359.828 82.8172 360.359 81.9987C360.89 81.2024 364.783 77.7738 365.911 76.5572C367.083 75.3848 368.875 72.7083 368.875 72.7083Z" fill="#A6462B"/>
<path d="M361.775 80.5388C361.775 80.5388 371.021 100.646 385.62 97.9032C400.22 95.1603 398.649 83.6799 398.649 83.6799C398.649 83.6799 413.426 92.2846 415.04 93.8331C416.655 95.3815 422.871 101 424.353 110.512C425.835 120.023 425.415 135.154 426.631 142.94C427.848 150.704 432.913 169.152 434.528 181.938C435.214 187.313 436.099 196.272 428.489 203.24C424.64 206.779 422.738 207 422.738 207C422.738 207 417.96 192.401 416.898 191.737C415.837 191.073 411.634 193.75 400.64 193.75C389.646 193.75 380.135 191.604 372.636 191.472C365.137 191.339 355.227 190.122 352.396 188.264C349.587 186.384 346.092 180.367 347.308 175.811C348.525 171.254 351.201 162.959 351.069 159.198C350.936 155.438 342.619 128.385 341.822 123.297C341.026 118.21 336.735 95.4257 341.159 92.0856C345.583 88.6569 361.775 80.5388 361.775 80.5388Z" fill="#A6462B"/>
<path d="M383.187 82.8834C381.793 83.1268 378.829 88.3471 379.736 90.8246C380.488 92.8818 386.903 92.4394 387.146 90.9573C387.677 88.0375 384.58 82.6401 383.187 82.8834Z" fill="#001526"/>
<path d="M385.575 91.4883L381.549 91.621C381.549 91.621 376.838 148.227 377.192 150.638C377.546 153.049 381.793 160.99 382.744 160.99C383.695 160.99 390.486 152.673 390.398 150.549C390.309 148.426 385.575 91.4883 385.575 91.4883Z" fill="#001526"/>
<path d="M371.795 54.5254C371.729 54.4811 371.684 54.4369 371.64 54.3926C371.463 53.9724 371.242 53.5963 370.999 53.2203C371.065 53.0654 371.087 52.8885 371.021 52.6894C370.755 51.9373 370.401 51.1631 370.335 50.3668C370.313 50.0571 370.313 49.7474 370.335 49.4377C370.335 49.3271 370.357 49.1944 370.379 49.0838C370.423 48.9953 370.423 48.9511 370.423 48.9068C371.109 48.6414 371.131 47.5575 370.49 47.3805C370.534 47.3142 370.556 47.2699 370.556 47.2478C371.33 47.9335 372.481 46.8054 371.684 46.1197C371.64 46.0754 371.574 46.0312 371.529 46.0091C371.485 45.8321 371.375 45.6552 371.198 45.5446C370.335 44.9473 369.561 45.1243 368.963 45.6773C368.189 46.186 367.68 47.1593 367.614 48.1547C367.592 48.575 367.614 48.9953 367.658 49.3935C367.791 51.5391 368.853 54.0608 370.423 55.4765C370.49 55.5429 370.556 55.6093 370.623 55.6535C370.645 55.6756 370.667 55.6977 370.689 55.6977C371.463 56.295 372.613 55.1447 371.795 54.5254Z" fill="#FF6B42"/>
<path d="M391.084 58.5957C390.973 58.4851 390.796 58.4187 390.487 58.4408C388.452 58.5072 386.372 58.3302 384.337 58.2639C383.629 58.2417 382.435 58.5293 383.098 59.5247C384.182 61.1616 386.04 62.0464 388.341 61.6704C389.403 61.5155 391.969 59.4584 391.084 58.5957Z" fill="white"/>
<path d="M402.94 27.2954C402.808 25.4816 402.963 23.7562 401.702 22.2741C400.95 21.4114 400.22 20.4824 399.313 19.7745C398.074 18.8013 396.703 18.8012 395.243 18.4252C394.048 18.1155 392.832 17.8943 391.593 17.8943C389.071 17.5846 387.434 15.3726 384.957 14.9081C383.054 14.5542 381.019 14.3993 379.161 14.9966C376.529 15.8371 374.405 17.9828 372.083 19.4206C370.91 20.1285 369.716 20.2169 368.499 20.6593C366.84 21.2787 365.823 22.5174 365.292 24.1543C364.872 25.5037 364.385 26.3442 363.39 27.3839C362.881 27.8927 362.35 28.4235 362.04 29.0871C361.421 30.4586 361.819 32.6485 362.527 34.02C362.195 35.8117 361.797 37.6255 362.018 39.4394C362.173 40.6781 362.66 41.7399 363.013 42.9123C363.5 44.527 363.213 46.0755 363.412 47.7124C363.677 49.9465 364.872 52.247 365.646 54.3263C366.155 55.7199 369.141 57.5337 369.229 57.2683C369.45 56.6268 369.76 55.8968 369.826 55.2332C370.158 52.3576 370.379 49.4599 370.601 46.5842C370.822 43.5538 370.866 40.3242 370.689 37.1831C371.486 36.4753 372.105 35.3472 372.857 34.6836C374.627 33.1351 377.17 31.2549 379.405 30.525C381.462 29.8613 384.47 29.3305 386.594 30.0383C388.12 30.5471 389.735 31.2328 391.239 31.7858C393.252 32.5158 392.964 34.4181 394.247 35.8338C395.309 37.0062 396.725 38.444 398.008 39.3509C398.848 39.9482 399.932 40.1915 400.95 39.9039C402.122 39.5721 402.587 38.6431 403.272 37.7583C403.361 37.6477 403.449 37.5371 403.516 37.4265C403.67 37.2274 403.825 37.0504 403.958 36.8292C406.126 33.6218 403.162 30.5913 402.94 27.2954Z" fill="#FFD6B3"/>
<path d="M371.663 43.4875C371.331 42.7797 370.49 42.47 369.627 42.5584C368.322 42.7133 367.261 43.9299 366.907 45.1244C366.155 47.6018 367.902 52.3577 370.645 53.0213C370.999 53.1098 371.397 52.778 371.264 52.4019C371.154 52.0923 370.999 51.8268 370.822 51.5614C371.065 51.2959 371.154 50.8756 370.866 50.5217C370.778 50.4111 370.711 50.3005 370.645 50.1457C370.689 50.1014 370.711 50.0351 370.733 49.9687C371.021 49.283 371.176 48.4645 370.977 47.7567C371.198 47.6682 371.375 47.447 371.397 47.1373C371.441 46.3852 371.53 45.6332 371.419 44.9032C371.463 44.682 371.53 44.4829 371.618 44.3059C371.707 44.2838 371.795 44.2175 371.795 44.1069C371.795 44.1069 371.795 44.1069 371.795 44.0847C371.817 44.0626 371.817 44.0626 371.839 44.0405C372.083 43.9078 371.928 43.5539 371.663 43.4875Z" fill="#FF6B42"/>
</g>
</svg>
