<svg width="592" height="119" viewBox="0 0 592 119" fill="none" xmlns="http://www.w3.org/2000/svg">
<path d="M2.50548 116.331C3.01551 116.119 3.60072 116.361 3.8126 116.871C4.02448 117.381 3.78278 117.966 3.27275 118.178L2.50548 116.331ZM12.6602 114.372C12.1467 114.575 11.5657 114.323 11.3625 113.81C11.1594 113.296 11.4111 112.715 11.9247 112.512L12.6602 114.372ZM15.6725 111.045C16.1875 110.845 16.7667 111.101 16.9663 111.616C17.1659 112.13 16.9103 112.71 16.3953 112.909L15.6725 111.045ZM25.8772 109.329C25.3589 109.519 24.7841 109.254 24.5936 108.735C24.403 108.217 24.6687 107.642 25.1871 107.452L25.8772 109.329ZM28.9894 106.069C29.5091 105.882 30.0819 106.152 30.2689 106.671C30.4558 107.191 30.1861 107.764 29.6664 107.951L28.9894 106.069ZM39.1977 104.617C38.6748 104.795 38.1068 104.515 37.9291 103.992C37.7514 103.469 38.0312 102.901 38.5541 102.723L39.1977 104.617ZM42.4075 101.429C42.9317 101.255 43.4976 101.539 43.6716 102.063C43.8456 102.587 43.5617 103.153 43.0375 103.327L42.4075 101.429ZM52.6205 100.242C52.0933 100.406 51.5325 100.112 51.3679 99.5849C51.2034 99.0577 51.4974 98.4969 52.0246 98.3324L52.6205 100.242ZM55.9253 97.1304C56.4537 96.9697 57.0123 97.2678 57.173 97.7961C57.3337 98.3245 57.0357 98.8832 56.5073 99.0439L55.9253 97.1304ZM66.1615 96.2028C65.6303 96.3539 65.0772 96.0457 64.9261 95.5145C64.775 94.9833 65.0832 94.4302 65.6144 94.2791L66.1615 96.2028ZM69.54 93.1781C70.0723 93.0309 70.6231 93.3432 70.7703 93.8755C70.9175 94.4078 70.6053 94.9586 70.073 95.1058L69.54 93.1781ZM79.8305 92.5043C79.2956 92.6416 78.7506 92.3193 78.6132 91.7844C78.4759 91.2495 78.7982 90.7045 79.3331 90.5671L79.8305 92.5043ZM83.2475 89.5774C83.7834 89.444 84.326 89.7703 84.4594 90.3062C84.5928 90.8422 84.2665 91.3848 83.7306 91.5182L83.2475 89.5774ZM93.5811 89.1633C93.0428 89.2867 92.5064 88.9503 92.383 88.412C92.2596 87.8737 92.5959 87.3372 93.1343 87.2138L93.5811 89.1633ZM97.0598 86.3293C97.599 86.2099 98.1329 86.5502 98.2523 87.0894C98.3717 87.6286 98.0314 88.1626 97.4922 88.282L97.0598 86.3293ZM107.408 86.1834C106.867 86.2927 106.339 85.9424 106.23 85.4011C106.121 84.8597 106.471 84.3323 107.012 84.223L107.408 86.1834ZM110.969 83.4397C111.511 83.3345 112.036 83.6887 112.141 84.2309C112.246 84.773 111.892 85.2978 111.35 85.4031L110.969 83.4397ZM121.304 83.5679C120.76 83.6629 120.242 83.2989 120.147 82.7548C120.052 82.2108 120.416 81.6927 120.96 81.5977L121.304 83.5679ZM124.943 80.9174C125.488 80.8265 126.003 81.1944 126.094 81.7391C126.185 82.2839 125.817 82.7992 125.273 82.8901L124.943 80.9174ZM135.263 81.3188C134.716 81.3995 134.208 81.022 134.127 80.4756C134.047 79.9293 134.424 79.421 134.971 79.3403L135.263 81.3188ZM138.976 78.7642C139.523 78.6876 140.028 79.069 140.105 79.6159C140.181 80.1629 139.8 80.6683 139.253 80.7449L138.976 78.7642ZM149.275 79.4374C148.727 79.5037 148.229 79.113 148.162 78.5647C148.096 78.0164 148.487 77.5182 149.035 77.4519L149.275 79.4374ZM153.057 76.9807C153.606 76.9185 154.101 77.313 154.163 77.8617C154.226 78.4105 153.831 78.9058 153.282 78.968L153.057 76.9807ZM163.333 77.9236C162.783 77.9756 162.295 77.572 162.243 77.0222C162.191 76.4723 162.595 75.9845 163.145 75.9325L163.333 77.9236ZM167.179 75.5664C167.729 75.5185 168.214 75.9257 168.262 76.4759C168.31 77.0261 167.902 77.5109 167.352 77.5588L167.179 75.5664ZM177.426 76.776C176.875 76.8137 176.398 76.3976 176.36 75.8466C176.322 75.2956 176.738 74.8184 177.289 74.7807L177.426 76.776ZM181.331 74.5191C181.882 74.4854 182.356 74.905 182.39 75.4563C182.424 76.0075 182.004 76.4817 181.453 76.5154L181.331 74.5191ZM191.545 75.9917C190.993 76.0153 190.527 75.5871 190.503 75.0353C190.48 74.4835 190.908 74.0171 191.46 73.9935L191.545 75.9917ZM195.503 73.8352C196.055 73.8156 196.518 74.2472 196.538 74.7991C196.558 75.351 196.126 75.8144 195.574 75.834L195.503 73.8352ZM205.68 75.5658C205.128 75.5755 204.672 75.1358 204.663 74.5836C204.653 74.0314 205.093 73.5758 205.645 73.5661L205.68 75.5658ZM209.685 73.5094C210.238 73.5036 210.69 73.9465 210.696 74.4988C210.702 75.0511 210.259 75.5035 209.706 75.5093L209.685 73.5094ZM219.821 75.4918C219.268 75.4879 218.824 75.0371 218.828 74.4848C218.832 73.9326 219.282 73.488 219.835 73.4919L219.821 75.4918ZM223.866 73.534C224.418 73.5417 224.86 73.9956 224.852 74.5478C224.844 75.1 224.391 75.5415 223.838 75.5338L223.866 73.534ZM233.956 75.7609C233.404 75.7438 232.97 75.2825 232.987 74.7304C233.004 74.1784 233.466 73.7448 234.018 73.7618L233.956 75.7609ZM238.036 73.8995C238.588 73.9202 239.018 74.3844 238.998 74.9363C238.977 75.4882 238.513 75.9188 237.961 75.8981L238.036 73.8995ZM248.075 76.3616C247.523 76.3318 247.1 75.8606 247.13 75.3091C247.16 74.7576 247.631 74.3347 248.183 74.3645L248.075 76.3616ZM252.229 74.5962C252.78 74.6295 253.2 75.1034 253.167 75.6547C253.133 76.206 252.659 76.6258 252.108 76.5925L252.229 74.5962ZM262.167 77.2798C261.616 77.2379 261.204 76.7575 261.246 76.2068C261.287 75.6561 261.768 75.2437 262.319 75.2856L262.167 77.2798ZM266.396 75.6086C266.947 75.6539 267.356 76.1368 267.311 76.6873C267.266 77.2377 266.783 77.6472 266.232 77.6019L266.396 75.6086ZM276.288 78.5043C275.738 78.4509 275.336 77.9621 275.389 77.4124C275.442 76.8627 275.931 76.4603 276.481 76.5137L276.288 78.5043ZM280.525 76.918C281.075 76.9745 281.474 77.4656 281.418 78.015C281.361 78.5644 280.87 78.964 280.321 78.9075L280.525 76.918ZM290.368 80.0101C289.819 79.9462 289.426 79.4497 289.49 78.9011C289.554 78.3525 290.051 77.9597 290.599 78.0236L290.368 80.0101ZM294.601 78.5003C295.149 78.5671 295.54 79.0656 295.473 79.6138C295.406 80.1621 294.908 80.5524 294.359 80.4857L294.601 78.5003ZM304.391 81.7693C303.844 81.6959 303.459 81.1927 303.533 80.6453C303.606 80.0979 304.109 79.7137 304.657 79.787L304.391 81.7693ZM308.673 80.3344C309.22 80.4102 309.602 80.9152 309.526 81.4622C309.45 82.0093 308.945 82.3913 308.398 82.3155L308.673 80.3344ZM318.404 83.7553C317.857 83.6739 317.48 83.1651 317.562 82.6188C317.643 82.0726 318.152 81.6957 318.698 81.7771L318.404 83.7553ZM322.72 82.3838C323.266 82.4672 323.641 82.9773 323.558 83.5233C323.475 84.0692 322.964 84.4443 322.418 84.3609L322.72 82.3838ZM332.407 85.9267C331.861 85.8392 331.49 85.3262 331.578 84.7809C331.665 84.2356 332.178 83.8645 332.724 83.952L332.407 85.9267ZM336.691 84.5937C337.236 84.6825 337.606 85.1964 337.517 85.7415C337.428 86.2866 336.914 86.6565 336.369 86.5677L336.691 84.5937ZM346.366 88.2199C345.821 88.1289 345.453 87.6135 345.544 87.0688C345.635 86.5241 346.151 86.1563 346.695 86.2473L346.366 88.2199ZM350.704 86.9186C351.248 87.01 351.616 87.5256 351.524 88.0702C351.433 88.6149 350.917 88.9824 350.373 88.891L350.704 86.9186ZM360.336 90.5592C359.791 90.4686 359.423 89.9535 359.513 89.4087C359.604 88.8639 360.119 88.4957 360.664 88.5863L360.336 90.5592ZM364.675 89.2494C365.22 89.3388 365.589 89.8532 365.5 90.3981C365.41 90.9431 364.896 91.3124 364.351 91.223L364.675 89.2494ZM374.355 92.8185C373.809 92.7347 373.434 92.2243 373.518 91.6784C373.602 91.1325 374.112 90.7579 374.658 90.8416L374.355 92.8185ZM378.642 91.4396C379.189 91.5196 379.567 92.0275 379.487 92.574C379.407 93.1204 378.899 93.4985 378.353 93.4185L378.642 91.4396ZM388.419 94.7673C387.871 94.7022 387.479 94.2048 387.544 93.6564C387.609 93.1079 388.107 92.7161 388.655 92.7813L388.419 94.7673ZM392.643 93.2074C393.193 93.2551 393.601 93.7399 393.553 94.2901C393.505 94.8403 393.02 95.2477 392.47 95.1999L392.643 93.2074ZM402.723 95.448C402.172 95.4704 401.706 95.0412 401.684 94.4894C401.661 93.9376 402.091 93.4721 402.642 93.4497L402.723 95.448ZM406.664 93.1765C407.214 93.1239 407.703 93.527 407.755 94.0768C407.808 94.6265 407.405 95.1148 406.855 95.1674L406.664 93.1765ZM417.01 93.4746C416.472 93.6034 415.933 93.2724 415.804 92.7354C415.675 92.1983 416.006 91.6585 416.543 91.5297L417.01 93.4746ZM420.411 90.487C420.94 90.3285 421.497 90.6289 421.656 91.158C421.814 91.687 421.514 92.2444 420.985 92.4029L420.411 90.487ZM430.619 88.7971C430.115 89.0238 429.523 88.7993 429.296 88.2957C429.07 87.7921 429.294 87.2001 429.798 86.9734L430.619 88.7971ZM433.418 85.2366C433.91 84.9858 434.512 85.1815 434.763 85.6736C435.013 86.1657 434.818 86.7679 434.326 87.0186L433.418 85.2366ZM443.206 81.8648C442.743 82.166 442.123 82.0348 441.822 81.5719C441.521 81.109 441.652 80.4895 442.115 80.1883L443.206 81.8648ZM445.454 77.9291C445.905 77.6116 446.529 77.7206 446.847 78.1725C447.164 78.6244 447.055 79.2482 446.603 79.5656L445.454 77.9291ZM454.749 73.3671C454.321 73.7163 453.692 73.6524 453.342 73.2246C452.993 72.7967 453.057 72.1667 453.485 71.8175L454.749 73.3671ZM456.59 69.2245C457.01 68.866 457.641 68.9159 458 69.336C458.358 69.7561 458.308 70.3873 457.888 70.7458L456.59 69.2245ZM465.509 63.9585C465.103 64.3328 464.471 64.307 464.096 63.9009C463.722 63.4949 463.748 62.8622 464.154 62.4879L465.509 63.9585ZM467.126 59.7229C467.529 59.3451 468.162 59.3655 468.54 59.7684C468.917 60.1713 468.897 60.8041 468.494 61.1819L467.126 59.7229ZM475.887 54.1948C475.486 54.574 474.853 54.5559 474.473 54.1543C474.094 53.7528 474.112 53.1199 474.514 52.7407L475.887 54.1948ZM477.483 49.9521C477.887 49.5754 478.52 49.5975 478.896 50.0014C479.273 50.4053 479.251 51.0381 478.847 51.4147L477.483 49.9521ZM486.366 44.6259C485.948 44.987 485.317 44.9409 484.956 44.523C484.595 44.105 484.641 43.4736 485.059 43.1125L486.366 44.6259ZM488.188 40.4754C488.615 40.1252 489.245 40.1875 489.595 40.6146C489.945 41.0416 489.883 41.6717 489.456 42.0219L488.188 40.4754ZM497.513 35.9917C497.054 36.2987 496.433 36.1754 496.126 35.7163C495.819 35.2572 495.942 34.6361 496.402 34.3292L497.513 35.9917ZM499.887 32.1305C500.362 31.8491 500.976 32.0064 501.257 32.4816C501.538 32.9569 501.381 33.5702 500.906 33.8515L499.887 32.1305ZM509.882 29.5328C509.364 29.7227 508.789 29.4562 508.6 28.9376C508.41 28.4189 508.676 27.8446 509.195 27.6547L509.882 29.5328ZM513.158 26.4025C513.692 26.2607 514.239 26.5785 514.381 27.1123C514.523 27.646 514.205 28.1937 513.672 28.3355L513.158 26.4025ZM523.457 27.0061C522.905 27.0102 522.454 26.5659 522.45 26.0137C522.446 25.4614 522.89 25.0103 523.442 25.0061L523.457 27.0061ZM0.613203 117.121C1.24443 116.856 1.87519 116.593 2.50548 116.331L3.27275 118.178C2.64457 118.439 2.01592 118.701 1.3868 118.965L0.613203 117.121ZM11.9247 112.512C13.1759 112.017 14.4251 111.528 15.6725 111.045L16.3953 112.909C15.1522 113.391 13.9072 113.879 12.6602 114.372L11.9247 112.512ZM25.1871 107.452C26.4566 106.985 27.724 106.524 28.9894 106.069L29.6664 107.951C28.4054 108.404 27.1423 108.864 25.8772 109.329L25.1871 107.452ZM38.5541 102.723C39.8408 102.286 41.1252 101.855 42.4075 101.429L43.0375 103.327C41.7598 103.751 40.4798 104.181 39.1977 104.617L38.5541 102.723ZM52.0246 98.3324C53.3272 97.9258 54.6274 97.5252 55.9253 97.1304L56.5073 99.0439C55.214 99.4372 53.9184 99.8364 52.6205 100.242L52.0246 98.3324ZM65.6144 94.2791C66.9254 93.9062 68.234 93.5392 69.54 93.1781L70.073 95.1058C68.7717 95.4656 67.4679 95.8312 66.1615 96.2028L65.6144 94.2791ZM79.3331 90.5671C80.6405 90.2314 81.9453 89.9015 83.2475 89.5774L83.7306 91.5182C82.4332 91.8411 81.1332 92.1698 79.8305 92.5043L79.3331 90.5671ZM93.1343 87.2138C94.4456 86.9132 95.7541 86.6184 97.0598 86.3293L97.4922 88.282C96.1913 88.57 94.8876 88.8638 93.5811 89.1633L93.1343 87.2138ZM107.012 84.223C108.334 83.9562 109.653 83.6951 110.969 83.4397L111.35 85.4031C110.039 85.6575 108.725 85.9176 107.408 86.1834L107.012 84.223ZM120.96 81.5977C122.291 81.3653 123.619 81.1385 124.943 80.9174L125.273 82.8901C123.953 83.1104 122.63 83.3363 121.304 83.5679L120.96 81.5977ZM134.971 79.3403C136.309 79.1426 137.644 78.9507 138.976 78.7642L139.253 80.7449C137.926 80.9306 136.596 81.1219 135.263 81.3188L134.971 79.3403ZM149.035 77.4519C150.38 77.2893 151.72 77.1323 153.057 76.9807L153.282 78.968C151.95 79.119 150.615 79.2754 149.275 79.4374L149.035 77.4519ZM163.145 75.9325C164.493 75.805 165.838 75.683 167.179 75.5664L167.352 77.5588C166.016 77.6751 164.677 77.7966 163.333 77.9236L163.145 75.9325ZM177.289 74.7807C178.641 74.6882 179.988 74.6011 181.331 74.5191L181.453 76.5154C180.115 76.5971 178.772 76.6839 177.426 76.776L177.289 74.7807ZM191.46 73.9935C192.812 73.9357 194.16 73.883 195.503 73.8352L195.574 75.834C194.236 75.8815 192.893 75.9341 191.545 75.9917L191.46 73.9935ZM205.645 73.5661C206.997 73.5424 208.343 73.5235 209.685 73.5094L209.706 75.5093C208.369 75.5233 207.027 75.5421 205.68 75.5658L205.645 73.5661ZM219.835 73.4919C221.184 73.5013 222.528 73.5154 223.866 73.534L223.838 75.5338C222.504 75.5153 221.165 75.5013 219.821 75.4918L219.835 73.4919ZM234.018 73.7618C235.363 73.8034 236.702 73.8494 238.036 73.8995L237.961 75.8981C236.631 75.8481 235.296 75.8023 233.956 75.7609L234.018 73.7618ZM248.183 74.3645C249.538 74.4377 250.886 74.515 252.229 74.5962L252.108 76.5925C250.77 76.5116 249.425 76.4346 248.075 76.3616L248.183 74.3645ZM262.319 75.2856C263.685 75.3896 265.044 75.4973 266.396 75.6086L266.232 77.6019C264.884 77.4909 263.529 77.3835 262.167 77.2798L262.319 75.2856ZM276.481 76.5137C277.837 76.6453 279.185 76.7801 280.525 76.918L280.321 78.9075C278.984 78.77 277.64 78.6356 276.288 78.5043L276.481 76.5137ZM290.599 78.0236C291.941 78.18 293.275 78.339 294.601 78.5003L294.359 80.4857C293.037 80.3247 291.707 80.1661 290.368 80.0101L290.599 78.0236ZM304.657 79.787C306.005 79.9676 307.343 80.1502 308.673 80.3344L308.398 82.3155C307.072 82.1317 305.736 81.9495 304.391 81.7693L304.657 79.787ZM318.698 81.7771C320.049 81.9784 321.39 82.1807 322.72 82.3838L322.418 84.3609C321.091 84.1582 319.752 83.9562 318.404 83.7553L318.698 81.7771ZM332.724 83.952C334.058 84.1661 335.38 84.3802 336.691 84.5937L336.369 86.5677C335.06 86.3544 333.739 86.1406 332.407 85.9267L332.724 83.952ZM346.695 86.2473C348.046 86.4729 349.382 86.6968 350.704 86.9186L350.373 88.891C349.051 88.6693 347.715 88.4455 346.366 88.2199L346.695 86.2473ZM360.664 88.5863C362.018 88.8116 363.355 89.0328 364.675 89.2494L364.351 91.223C363.03 91.0061 361.691 90.7846 360.336 90.5592L360.664 88.5863ZM374.658 90.8416C376.008 91.0488 377.336 91.2483 378.642 91.4396L378.353 93.4185C377.041 93.2265 375.709 93.0262 374.355 92.8185L374.658 90.8416ZM388.655 92.7813C389.314 92.8595 389.966 92.9345 390.61 93.0061L390.39 94.9939C389.74 94.9217 389.083 94.8461 388.419 94.7673L388.655 92.7813ZM390.61 93.0061C391.293 93.0819 391.97 93.149 392.643 93.2074L392.47 95.1999C391.781 95.1401 391.088 95.0715 390.39 94.9939L390.61 93.0061ZM402.642 93.4497C404.003 93.3944 405.344 93.3028 406.664 93.1765L406.855 95.1674C405.498 95.2972 404.121 95.3913 402.723 95.448L402.642 93.4497ZM416.543 91.5297C417.852 91.2158 419.141 90.8675 420.411 90.487L420.985 92.4029C419.68 92.7938 418.355 93.1518 417.01 93.4746L416.543 91.5297ZM429.798 86.9734C431.022 86.4224 432.228 85.8427 433.418 85.2366L434.326 87.0186C433.108 87.6388 431.873 88.2325 430.619 88.7971L429.798 86.9734ZM442.115 80.1883C443.242 79.4554 444.354 78.7015 445.454 77.9291L446.603 79.5656C445.485 80.3509 444.353 81.1182 443.206 81.8648L442.115 80.1883ZM453.485 71.8175C454.53 70.9646 455.565 70.0994 456.59 69.2245L457.888 70.7458C456.853 71.6294 455.807 72.504 454.749 73.3671L453.485 71.8175ZM464.154 62.4879C465.151 61.5686 466.142 60.6461 467.126 59.7229L468.494 61.1819C467.506 62.108 466.512 63.0345 465.509 63.9585L464.154 62.4879ZM474.514 52.7407C475.506 51.8037 476.496 50.8731 477.483 49.9521L478.847 51.4147C477.864 52.3319 476.877 53.2595 475.887 54.1948L474.514 52.7407ZM485.059 43.1125C486.099 42.2135 487.142 41.3332 488.188 40.4754L489.456 42.0219C488.425 42.8676 487.395 43.7367 486.366 44.6259L485.059 43.1125ZM496.402 34.3292C497.554 33.5586 498.715 32.8242 499.887 32.1305L500.906 33.8515C499.768 34.5251 498.638 35.2398 497.513 35.9917L496.402 34.3292ZM509.195 27.6547C510.498 27.1776 511.818 26.7584 513.158 26.4025L513.672 28.3355C512.393 28.675 511.131 29.0756 509.882 29.5328L509.195 27.6547ZM523.442 25.0061C524.137 25.0009 524.838 25.0133 525.543 25.044L525.457 27.0421C524.785 27.0129 524.118 27.0011 523.457 27.0061L523.442 25.0061Z" fill="#28334C" fill-opacity="0.16"/>
<mask id="mask0_509_808" style="mask-type:alpha" maskUnits="userSpaceOnUse" x="484" y="0" width="108" height="108">
<circle cx="538" cy="54" r="54" fill="#C4C4C4"/>
</mask>
<g mask="url(#mask0_509_808)">
<path d="M443 12C443 0.954309 451.954 -8 463 -8H613C624.046 -8 633 0.954305 633 12V115H443V12Z" fill="#858FA9"/>
<g style="mix-blend-mode:color">
<path d="M443 12C443 0.954309 451.954 -8 463 -8H613C624.046 -8 633 0.954305 633 12V115H443V12Z" fill="#858FA9"/>
</g>
<path d="M538.036 109.451C568.787 109.451 593.715 84.5234 593.715 53.7733C593.715 23.0231 568.787 -1.90479 538.036 -1.90479C507.286 -1.90479 482.358 23.0231 482.358 53.7733C482.358 84.5234 507.286 109.451 538.036 109.451Z" fill="#CBCDEB"/>
<path d="M511.195 51.522C509.536 49.3099 508.371 47.1175 509.477 44.3524C510.03 42.9303 511.057 41.765 512.065 40.6194C513.585 38.8814 514.691 37.1235 515.363 34.8917C516.37 31.5735 516.568 28.0183 517.99 24.8187C521.506 17.0368 530.927 15.9504 538.116 18.7156C538.254 18.7748 538.294 18.8934 538.274 18.9921C542.382 20.6117 545.286 25.5889 546.589 29.4009C547.715 32.6993 548.15 36.1755 548.406 39.6516C548.663 43.3056 549.117 47.1965 547.853 50.7122C547.755 50.9887 547.458 51.0677 547.241 51.0085C546.905 51.8973 546.53 52.7663 546.016 53.6156C545.444 54.6032 544.772 55.808 543.864 56.5783C541.474 59.6594 538.61 58.8299 535.173 57.4078C533.119 56.5585 531.085 55.6697 528.991 54.9192C528.478 54.7414 527.944 54.5834 527.411 54.4451C527.609 59.2841 526.582 64.2614 522.513 66.9673C518.227 69.8114 510.939 67.5006 511.926 61.516C512.242 59.6199 513.625 57.8818 513.506 55.9265C513.408 54.2081 512.183 52.8256 511.195 51.522Z" fill="#002B4D"/>
<path d="M520.616 52.5097C522.552 56.6179 527.016 59.9163 528.063 60.0743C531.795 60.6076 540.446 56.6969 542.975 54.6428C545.503 52.5689 546.53 47.7892 546.53 47.7892L549.374 35.7213C549.374 35.7213 545.108 28.8678 541.454 27.5642C537.78 26.2606 527.49 21.4216 527.49 21.4216C527.49 21.4216 521.347 27.0902 519.688 33.7265C519.649 33.8647 519.609 34.003 519.589 34.161C519.471 34.6548 519.372 35.1683 519.313 35.6818C518.305 42.1207 519.688 50.5741 520.616 52.5097Z" fill="#FF6B42"/>
<path d="M524.112 73.0706C524.112 73.0706 532.605 92.1698 533.059 92.0316C533.514 91.8933 549.927 70.582 549.927 70.582C549.927 70.582 546.569 68.3699 546.253 67.1651C545.937 65.9602 545.759 49.9817 545.759 49.9817C545.759 49.9817 537.424 52.6876 537.029 52.6876C536.615 52.6876 527.924 58.3956 527.924 58.3956C527.924 58.3956 527.944 59.0474 527.944 60.035C527.964 61.6743 528.003 64.2419 527.983 66.3158C527.983 68.0341 527.944 69.4167 527.865 69.6339C527.588 70.266 524.112 73.0706 524.112 73.0706Z" fill="#FF6B42"/>
<path d="M527.984 66.3356C530.137 65.7431 533.712 64.4395 535.41 63.294C537.701 61.7732 538.906 58.5932 537.879 58.218C536.872 57.8427 536.931 57.9612 533.119 59.166C529.307 60.3708 527.944 60.0351 527.944 60.0351C527.964 61.6942 527.984 64.2618 527.984 66.3356Z" fill="#D94921"/>
<path d="M536.99 38.4866C537.286 37.5781 538.353 37.7756 538.452 38.6841C538.511 39.2174 538.531 40.205 537.978 40.5013C537.543 40.7383 537.128 40.4025 536.99 40.0075C536.852 39.7112 536.812 39.0002 536.99 38.4866Z" fill="black"/>
<path d="M521.999 38.5456C522.256 37.716 523.224 37.9135 523.322 38.7233C523.362 39.1974 523.382 40.0861 522.888 40.3626C522.493 40.5799 522.118 40.2837 521.979 39.9084C521.881 39.6714 521.861 39.0196 521.999 38.5456Z" fill="black"/>
<path d="M526.818 49.4087C527.016 49.3692 527.213 49.3495 527.371 49.3297C528.497 49.2902 529.623 49.1915 530.729 49.231C531.598 49.2112 532.507 48.994 533.376 49.1717C534.442 49.389 534.304 49.9618 533.633 50.7518C533.159 51.3246 532.526 51.7591 531.894 52.0554C530.058 52.9442 526.957 52.5096 526.226 50.2383C526.068 49.7445 526.423 49.5075 526.818 49.4087Z" fill="white"/>
<path d="M535.054 34.7931C535.331 34.0229 536.555 33.9834 537.207 33.9834C538.432 33.9636 540.466 34.1809 541.157 35.3857C541.532 36.0375 540.407 35.8399 540.11 35.8202C539.301 35.7609 538.491 35.7017 537.681 35.6622C536.97 35.6424 536.18 35.7412 535.508 35.4252C535.074 35.2277 534.975 34.9907 535.054 34.7931Z" fill="#002B4D"/>
<path d="M518.957 35.6816C519.668 35.6421 521.228 35.5236 521.959 35.5038C522.67 35.4841 523.46 35.5828 524.132 35.2668C524.547 35.0693 524.645 34.852 524.566 34.6545C524.29 33.8842 523.065 33.8447 522.413 33.8447C521.762 33.8447 520.024 33.9435 519.253 34.1805C519.115 34.6545 519.016 35.1681 518.957 35.6816Z" fill="#002B4D"/>
<path d="M527.727 20.1379C527.766 20.0392 527.924 20.0392 528.003 20.1182C528.181 19.9009 528.438 19.7429 528.774 19.6244C529.682 19.3084 530.768 19.8811 531.697 19.9009C532.131 19.9207 532.546 19.8614 532.961 19.7824C536.081 18.1628 539.814 17.5505 543.113 17.9061C548.13 18.4591 552.791 21.244 555.773 25.3127C559.012 29.7172 560.158 35.7215 558.084 40.8765C555.892 46.3277 550.421 48.2436 546.787 52.4703C546.49 52.8061 546.036 52.6283 545.858 52.3123C545.779 52.253 545.463 50.8112 545.463 50.7322C545.858 47.7696 546.964 44.4909 544.91 40.8962C543.212 37.9336 539.834 36.6498 537.03 34.9709C534.324 33.3513 531.835 31.2972 529.919 28.7888C528.122 26.4582 526.384 23.1006 527.727 20.1379Z" fill="#002B4D"/>
<path d="M547.478 45.7549C547.735 45.2611 548.446 45.6166 548.347 46.1104C548.149 46.9992 547.972 47.888 547.814 48.7373C547.991 48.7768 548.169 48.8163 548.327 48.836C548.604 48.8755 548.9 48.9545 549.157 49.0335C554.924 49.5866 557.748 55.6106 562.903 57.5265C565.096 58.3363 567.426 58.5733 569.382 59.9559C571.199 61.2594 572.522 63.2345 573.016 65.4071C573.589 67.876 572.641 70.7794 574.122 72.9915C575.722 75.4011 579.158 75.8949 581.509 77.2775C585.261 79.5093 587.79 83.5781 588.323 87.8838C588.856 92.308 587.059 96.7124 583.8 99.7146C580.166 103.053 575.346 104.001 570.567 103.053C561.106 101.176 553.304 93.414 550.598 84.2891C549.769 81.4647 549.552 78.581 549.394 75.6579C549.196 71.4904 548.485 67.876 547.181 63.9258C545.285 58.198 544.594 51.3444 547.478 45.7549Z" fill="#002B4D"/>
<path d="M541.849 38.6643C543.133 36.1362 546.589 38.0125 547.32 39.9876C548.229 42.4565 546.431 46.4659 543.607 46.7425C543.212 46.782 542.995 46.2882 543.172 45.9722C543.844 44.8661 544.93 44.2736 545.543 43.2268C545.385 43.1478 545.246 43.0095 545.187 42.812C544.95 42.1405 544.713 41.4689 544.358 40.8764C543.864 40.3826 543.429 39.8099 542.837 39.3951C542.718 39.3161 542.639 39.2173 542.58 39.0988C542.461 39.1186 542.363 39.1581 542.244 39.1778C541.928 39.2568 541.711 38.9408 541.849 38.6643Z" fill="#FF6B42"/>
<path d="M545.7 45.6562C545.918 45.3006 546.234 45.0044 546.451 44.6884C546.885 44.0563 547.34 43.4243 547.754 42.7923C547.794 42.7528 547.833 42.733 547.873 42.7133C547.952 42.5552 548.051 42.417 548.13 42.259C548.228 42.0812 548.544 42.1997 548.465 42.3972C548.07 43.3453 547.715 44.2341 547.162 45.1031C547.103 45.2019 547.024 45.3204 546.964 45.4389C546.885 45.7747 546.688 45.9919 546.49 46.3672C546.056 47.2757 545.878 48.3818 546.155 49.3694C546.392 50.2384 546.925 50.9692 547.616 51.542C548.149 51.9765 548.683 52.1937 548.999 52.806C549.117 53.0233 548.999 53.2208 548.801 53.2998C546.846 54.0701 545.108 51.0679 544.871 49.5076C544.733 48.5596 544.91 46.6635 545.7 45.6562Z" fill="#002B4D"/>
<path d="M548.327 69.4165C548.327 69.4165 543.133 75.1838 538.985 79.9043C534.837 84.6445 533.692 87.3504 533.079 86.9159C532.467 86.5011 526.562 70.9966 526.562 70.9966C526.562 70.9966 515.303 75.085 511.373 78.7587C507.443 82.4324 501.596 88.0219 501.359 97.9172C501.122 107.812 508.331 114.291 508.845 118.853C509.358 123.416 508.845 130.645 510.247 133.943C511.65 137.241 514.553 140.165 514.553 140.165C514.553 140.165 523.303 142.693 536.003 142.317C548.702 141.942 557.906 141.429 560.434 135.345C562.963 129.262 561.442 122.27 561.58 116.957C561.718 111.644 571.772 83.0842 568.868 78.897C565.905 74.7098 548.327 69.4165 548.327 69.4165Z" fill="#4949B7"/>
<path d="M565.491 76.2505C565.491 76.2505 577.084 82.4523 584.313 94.6189C591.542 106.805 601.181 120.493 600.549 127.86C599.916 135.227 595.275 137.242 591.819 141.31C588.362 145.379 578.585 150.317 574.793 148.677C570.981 147.018 566.044 137.893 566.162 134.081C566.281 130.269 573.272 123.297 572.64 120.512C572.008 117.728 560.869 104.02 560.414 104.02C559.94 104.02 565.491 76.2505 565.491 76.2505Z" fill="#4949B7"/>
<path d="M548.327 69.4165C548.327 69.4165 553.521 71.4509 553.778 73.4655C554.035 75.4998 550.519 75.4603 548.011 78.1267C545.502 80.7931 544.811 82.1954 541.829 84.6643C538.234 87.6467 533.079 86.9356 533.079 86.9356C533.079 86.9356 539.103 78.6007 542.105 74.8875C543.646 72.9717 548.327 69.4165 548.327 69.4165Z" fill="white"/>
<path d="M526.541 71.0164C526.541 71.0164 521.327 72.5569 520.695 74.1173C520.063 75.6776 524.073 78.6402 525.139 80.2993C526.206 81.9584 525.949 83.3015 527.549 85.0791C529.149 86.8566 533.059 86.9357 533.059 86.9357C533.059 86.9357 530.709 79.6673 529.82 77.4947C528.951 75.3418 526.541 71.0164 526.541 71.0164Z" fill="white"/>
<path d="M507.64 95.4681C507.541 93.3547 507.679 91.1624 508.39 89.1675C509.2 86.9159 510.602 84.9606 511.096 82.5707C511.234 81.9387 512.202 82.1954 512.084 82.8472C511.689 84.7433 510.78 86.3431 509.97 88.0812C508.884 90.4513 508.548 92.8807 508.667 95.4681C508.904 100.307 510.464 104.968 510.78 109.807C511.373 118.873 507.264 129.104 512.874 137.261C513.249 137.794 512.36 138.308 512.005 137.775C506.415 129.637 510.267 119.782 509.832 110.755C509.556 105.581 507.896 100.623 507.64 95.4681Z" fill="black"/>
<path d="M545.977 51.0286C546.589 50.4361 548.288 50.1793 548.722 49.8831C549.137 49.6065 549.769 49.014 550.243 49.4485C551.823 50.9298 547.024 54.3665 545.819 51.7397C545.681 51.4631 545.76 51.2261 545.977 51.0286Z" fill="#D42E00"/>
<path d="M528.004 38.8024C528.162 38.1704 529.13 38.4271 528.991 39.0789C528.458 41.2515 526.443 44.2339 528.103 46.3275C528.498 46.841 527.786 47.5521 527.391 47.0385C525.318 44.4709 527.332 41.4885 528.004 38.8024Z" fill="#D94921"/>
</g>
</svg>
