<svg width="171" height="558" viewBox="0 0 171 558" fill="none" xmlns="http://www.w3.org/2000/svg">
<path d="M53.9997 277.001L54.7013 276.288L53.9997 277.001ZM39.3615 4.25806C39.2017 4.78672 38.6436 5.08576 38.1149 4.92596C37.5862 4.76617 37.2872 4.20807 37.447 3.67941L39.3615 4.25806ZM34.5401 13.3478C34.6983 12.8186 35.2555 12.5179 35.7847 12.6761C36.3138 12.8343 36.6145 13.3915 36.4563 13.9207L34.5401 13.3478ZM35.3276 17.7049C35.1701 18.2343 34.6133 18.5357 34.084 18.3782C33.5546 18.2207 33.2532 17.6639 33.4107 17.1346L35.3276 17.7049ZM30.5366 26.8596C30.6921 26.3297 31.2478 26.0261 31.7777 26.1816C32.3077 26.3371 32.6112 26.8928 32.4557 27.4227L30.5366 26.8596ZM31.3404 31.2357C31.1857 31.7659 30.6306 32.0704 30.1004 31.9157C29.5702 31.7611 29.2657 31.206 29.4203 30.6758L31.3404 31.2357ZM26.6141 40.3821C26.7662 39.8512 27.3199 39.5441 27.8508 39.6962C28.3817 39.8483 28.6888 40.402 28.5367 40.933L26.6141 40.3821ZM27.4423 44.7684C27.2913 45.2996 26.7382 45.6079 26.207 45.4569C25.6757 45.3059 25.3675 44.7528 25.5185 44.2216L27.4423 44.7684ZM22.7894 53.93C22.9372 53.3979 23.4885 53.0864 24.0206 53.2342C24.5527 53.382 24.8642 53.9332 24.7164 54.4654L22.7894 53.93ZM23.6521 58.3157C23.5057 58.8482 22.9553 59.1612 22.4228 59.0147C21.8903 58.8683 21.5773 58.3179 21.7237 57.7854L23.6521 58.3157ZM19.0863 67.5143C19.2288 66.9807 19.7768 66.6636 20.3104 66.8061C20.844 66.9486 21.1611 67.4966 21.0186 68.0302L19.0863 67.5143ZM19.996 71.8862C19.8553 72.4202 19.3083 72.7391 18.7742 72.5985C18.2401 72.4578 17.9213 71.9108 18.0619 71.3767L19.996 71.8862ZM15.5375 81.1413C15.6732 80.6059 16.2171 80.2819 16.7525 80.4175C17.2879 80.5532 17.6119 81.0971 17.4763 81.6325L15.5375 81.1413ZM16.5091 85.4833C16.3758 86.0193 15.8332 86.3456 15.2972 86.2122C14.7613 86.0788 14.435 85.5362 14.5684 85.0003L16.5091 85.4833ZM12.1872 94.8112C12.3142 94.2737 12.8528 93.9408 13.3903 94.0678C13.9278 94.1947 14.2606 94.7333 14.1337 95.2708L12.1872 94.8112ZM13.2359 99.1179C13.1118 99.656 12.575 99.9917 12.0368 99.8677C11.4986 99.7436 11.1629 99.2068 11.287 98.6686L13.2359 99.1179ZM9.09417 108.517C9.20992 107.977 9.74152 107.633 10.2815 107.748C10.8216 107.864 11.1655 108.396 11.0498 108.936L9.09417 108.517ZM10.2156 112.895C10.1037 113.436 9.57453 113.783 9.0337 113.671C8.49288 113.559 8.1452 113.03 8.25713 112.489L10.2156 112.895ZM6.31345 122.36C6.41457 121.817 6.93669 121.459 7.47964 121.56C8.02259 121.661 8.38076 122.183 8.27964 122.726L6.31345 122.36ZM7.55925 126.694C7.46311 127.238 6.94429 127.601 6.40044 127.505C5.85659 127.409 5.49364 126.89 5.58978 126.346L7.55925 126.694ZM3.96195 136.287C4.04383 135.74 4.55298 135.364 5.09916 135.446C5.64534 135.528 6.02172 136.037 5.93984 136.583L3.96195 136.287ZM5.37614 140.499C5.30073 141.046 4.79607 141.428 4.24896 141.353C3.70185 141.278 3.31946 140.773 3.39488 140.226L5.37614 140.499ZM2.18234 150.259C2.2388 149.71 2.72993 149.31 3.27932 149.367C3.82872 149.423 4.22832 149.914 4.17187 150.464L2.18234 150.259ZM3.79153 154.476C3.74386 155.026 3.25917 155.433 2.70894 155.386C2.15872 155.338 1.75132 154.853 1.79899 154.303L3.79153 154.476ZM1.15091 164.356C1.17345 163.805 1.63906 163.376 2.19089 163.398C2.74271 163.421 3.17178 163.886 3.14924 164.438L1.15091 164.356ZM3.02713 168.447C3.0162 168.999 2.5597 169.438 2.00753 169.427C1.45535 169.416 1.01659 168.96 1.02752 168.407L3.02713 168.447ZM1.12082 178.515C1.09867 177.963 1.52808 177.498 2.07992 177.476C2.63176 177.454 3.09707 177.883 3.11921 178.435L1.12082 178.515ZM3.33182 182.407C3.36887 182.958 2.95221 183.435 2.40117 183.472C1.85013 183.509 1.37338 183.093 1.33632 182.541L3.33182 182.407ZM2.39026 192.619C2.31147 192.073 2.69074 191.566 3.23738 191.487C3.78401 191.408 4.29102 191.787 4.3698 192.334L2.39026 192.619ZM5.0019 196.259C5.09885 196.803 4.73669 197.322 4.19298 197.419C3.64927 197.516 3.12991 197.154 3.03296 196.61L5.0019 196.259ZM5.25186 206.502C5.10664 205.969 5.42087 205.419 5.95371 205.274C6.48656 205.129 7.03625 205.443 7.18148 205.976L5.25186 206.502ZM8.29959 209.796C8.46467 210.323 8.17125 210.884 7.64422 211.049C7.11718 211.214 6.55611 210.921 6.39103 210.393L8.29959 209.796ZM9.87478 219.913C9.66077 219.404 9.90001 218.818 10.4091 218.604C10.9183 218.39 11.5045 218.629 11.7185 219.138L9.87478 219.913ZM13.3284 222.778C13.561 223.278 13.3436 223.873 12.8427 224.106C12.3418 224.338 11.7471 224.121 11.5145 223.62L13.3284 222.778ZM16.1865 232.616C15.9113 232.137 16.0764 231.526 16.5553 231.251C17.0341 230.976 17.6454 231.141 17.9206 231.62L16.1865 232.616ZM19.9589 235.039C20.2491 235.508 20.1035 236.125 19.6336 236.415C19.1637 236.705 18.5475 236.559 18.2573 236.089L19.9589 235.039ZM23.8837 244.501C23.5612 244.052 23.6632 243.428 24.1115 243.105C24.5598 242.783 25.1847 242.885 25.5072 243.333L23.8837 244.501ZM27.8797 246.546C28.213 246.986 28.1263 247.613 27.686 247.947C27.2457 248.28 26.6185 248.193 26.2851 247.753L27.8797 246.546ZM32.5987 255.64C32.2429 255.217 32.2968 254.586 32.7192 254.231C33.1416 253.875 33.7725 253.929 34.1283 254.351L32.5987 255.64ZM36.7296 257.384C37.0927 257.801 37.0497 258.432 36.6336 258.795C36.2174 259.158 35.5857 259.115 35.2226 258.699L36.7296 257.384ZM42.0126 266.19C41.6347 265.788 41.6548 265.155 42.0575 264.777C42.4603 264.399 43.0931 264.419 43.471 264.822L42.0126 266.19ZM46.2073 267.703C46.5899 268.102 46.5771 268.735 46.1788 269.117C45.7805 269.5 45.1475 269.487 44.7649 269.089L46.2073 267.703ZM51.8418 276.274C51.4498 275.885 51.4474 275.251 51.8365 274.859C52.2255 274.467 52.8587 274.465 53.2507 274.854L51.8418 276.274ZM56.114 277.705C56.5004 278.1 56.4937 278.733 56.099 279.119C55.7044 279.505 55.0713 279.499 54.6849 279.104L56.114 277.705ZM61.2989 286.475C60.9474 286.049 61.0078 285.419 61.4337 285.067C61.8597 284.715 62.49 284.776 62.8415 285.202L61.2989 286.475ZM65.3644 288.358C65.7027 288.794 65.623 289.422 65.1864 289.761C64.7498 290.099 64.1217 290.019 63.7834 289.583L65.3644 288.358ZM69.5864 297.648C69.2792 297.189 69.4022 296.568 69.8611 296.261C70.3201 295.953 70.9412 296.076 71.2484 296.535L69.5864 297.648ZM73.4339 299.89C73.7297 300.357 73.5913 300.975 73.1249 301.271C72.6584 301.566 72.0406 301.428 71.7448 300.961L73.4339 299.89ZM76.822 309.506C76.5531 309.024 76.7262 308.415 77.2086 308.146C77.691 307.877 78.3 308.05 78.5689 308.533L76.822 309.506ZM80.4959 312.075C80.7548 312.563 80.5692 313.169 80.0814 313.428C79.5936 313.686 78.9882 313.501 78.7293 313.013L80.4959 312.075ZM83.1847 321.913C82.9488 321.414 83.1624 320.818 83.6618 320.582C84.1612 320.346 84.7572 320.56 84.9931 321.059L83.1847 321.913ZM86.6738 324.697C86.9012 325.201 86.6775 325.793 86.1742 326.02C85.6709 326.248 85.0786 326.024 84.8512 325.521L86.6738 324.697ZM88.7705 334.677C88.5629 334.166 88.8095 333.582 89.3213 333.375C89.8331 333.167 90.4162 333.414 90.6238 333.926L88.7705 334.677ZM92.1047 337.654C92.3049 338.169 92.05 338.748 91.5353 338.948C91.0206 339.149 90.441 338.894 90.2408 338.379L92.1047 337.654ZM93.6968 347.727C93.5137 347.205 93.7876 346.635 94.3087 346.452C94.8298 346.268 95.4006 346.542 95.5837 347.064L93.6968 347.727ZM96.8953 350.871C97.0719 351.395 96.791 351.962 96.2677 352.139C95.7444 352.315 95.177 352.034 95.0003 351.511L96.8953 350.871ZM98.0523 361.002C97.8906 360.474 98.1876 359.914 98.7157 359.753C99.2438 359.591 99.803 359.888 99.9647 360.416L98.0523 361.002ZM101.115 364.246C101.271 364.776 100.968 365.332 100.439 365.488C99.9089 365.644 99.3529 365.341 99.1968 364.811L101.115 364.246ZM101.896 374.416C101.753 373.882 102.07 373.334 102.603 373.191C103.137 373.048 103.685 373.365 103.828 373.898L101.896 374.416ZM104.847 377.775C104.985 378.309 104.663 378.855 104.129 378.993C103.594 379.131 103.049 378.809 102.911 378.274L104.847 377.775ZM105.296 387.963C105.17 387.426 105.503 386.887 106.041 386.761C106.579 386.635 107.117 386.968 107.243 387.506L105.296 387.963ZM108.144 391.415C108.265 391.954 107.927 392.489 107.389 392.611C106.85 392.733 106.315 392.395 106.193 391.856L108.144 391.415ZM108.297 401.61C108.185 401.069 108.534 400.54 109.075 400.429C109.616 400.317 110.144 400.666 110.256 401.207L108.297 401.61ZM111.048 405.137C111.156 405.678 110.803 406.204 110.262 406.312C109.72 406.419 109.194 406.067 109.086 405.525L111.048 405.137ZM110.937 415.334C110.839 414.79 111.201 414.27 111.744 414.173C112.288 414.075 112.808 414.437 112.905 414.98L110.937 415.334ZM113.601 418.928C113.695 419.472 113.33 419.989 112.786 420.083C112.241 420.177 111.724 419.812 111.63 419.268L113.601 418.928ZM113.249 429.122C113.164 428.576 113.537 428.065 114.083 427.979C114.629 427.894 115.14 428.267 115.225 428.813L113.249 429.122ZM115.83 432.764C115.912 433.31 115.535 433.82 114.989 433.901C114.443 433.983 113.934 433.607 113.852 433.061L115.83 432.764ZM115.258 442.948C115.184 442.4 115.568 441.897 116.116 441.823C116.663 441.749 117.166 442.133 117.24 442.681L115.258 442.948ZM117.764 446.657C117.835 447.205 117.448 447.706 116.9 447.777C116.352 447.848 115.851 447.461 115.78 446.913L117.764 446.657ZM116.987 456.825C116.924 456.276 117.318 455.78 117.867 455.717C118.415 455.654 118.911 456.048 118.974 456.597L116.987 456.825ZM119.421 460.585C119.481 461.134 119.085 461.627 118.535 461.687C117.986 461.747 117.493 461.351 117.433 460.802L119.421 460.585ZM118.452 470.738C118.4 470.189 118.802 469.7 119.352 469.647C119.902 469.595 120.39 469.998 120.443 470.547L118.452 470.738ZM120.813 474.504C120.863 475.054 120.458 475.54 119.908 475.59C119.358 475.64 118.871 475.235 118.821 474.685L120.813 474.504ZM119.662 484.64C119.619 484.089 120.031 483.608 120.581 483.565C121.132 483.522 121.613 483.934 121.656 484.484L119.662 484.64ZM121.961 488.511C122.001 489.062 121.587 489.541 121.036 489.582C120.485 489.622 120.006 489.208 119.966 488.657L121.961 488.511ZM120.632 498.624C120.599 498.073 121.019 497.599 121.57 497.565C122.121 497.532 122.595 497.952 122.629 498.503L120.632 498.624ZM122.858 502.457C122.889 503.008 122.467 503.48 121.916 503.511C121.364 503.542 120.892 503.12 120.862 502.568L122.858 502.457ZM121.356 512.572C121.332 512.021 121.76 511.554 122.312 511.53C122.864 511.506 123.33 511.934 123.354 512.486L121.356 512.572ZM123.517 516.502C123.538 517.054 123.107 517.518 122.555 517.539C122.003 517.56 121.539 517.129 121.518 516.578L123.517 516.502ZM121.83 526.515C121.816 525.963 122.253 525.504 122.805 525.49C123.357 525.477 123.816 525.913 123.829 526.465L121.83 526.515ZM123.918 530.528C123.929 531.08 123.489 531.536 122.937 531.547C122.385 531.557 121.929 531.118 121.918 530.566L123.918 530.528ZM122.032 540.481C122.03 539.929 122.476 539.479 123.029 539.477C123.581 539.475 124.03 539.921 124.032 540.474L122.032 540.481ZM124.032 544.548C124.03 545.1 123.581 545.546 123.029 545.544C122.476 545.542 122.03 545.093 122.032 544.54L124.032 544.548ZM121.89 554.53C121.905 553.978 122.364 553.543 122.916 553.557C123.468 553.572 123.904 554.032 123.889 554.584L121.89 554.53ZM39.9568 2.29049C39.7575 2.94831 39.5591 3.60417 39.3615 4.25806L37.447 3.67941C37.6448 3.02516 37.8433 2.36895 38.0426 1.71078L39.9568 2.29049ZM36.4563 13.9207C36.0769 15.1897 35.7007 16.4511 35.3276 17.7049L33.4107 17.1346C33.784 15.8799 34.1605 14.6177 34.5401 13.3478L36.4563 13.9207ZM32.4557 27.4227C32.0804 28.7019 31.7086 29.9729 31.3404 31.2357L29.4203 30.6758C29.7889 29.4119 30.161 28.1398 30.5366 26.8596L32.4557 27.4227ZM28.5367 40.933C28.168 42.2202 27.8032 43.4986 27.4423 44.7684L25.5185 44.2216C25.8797 42.9505 26.2449 41.6707 26.6141 40.3821L28.5367 40.933ZM24.7164 54.4654C24.3573 55.7582 24.0025 57.0416 23.6521 58.3157L21.7237 57.7854C22.0745 56.5095 22.4298 55.2245 22.7894 53.93L24.7164 54.4654ZM21.0186 68.0302C20.6728 69.3255 20.3319 70.6108 19.996 71.8862L18.0619 71.3767C18.3985 70.0991 18.7399 68.8117 19.0863 67.5143L21.0186 68.0302ZM17.4763 81.6325C17.1484 82.9267 16.826 84.2103 16.5091 85.4833L14.5684 85.0003C14.8859 83.7244 15.209 82.4382 15.5375 81.1413L17.4763 81.6325ZM14.1337 95.2708C13.8282 96.5645 13.5289 97.8468 13.2359 99.1179L11.287 98.6686C11.5808 97.3939 11.8809 96.1082 12.1872 94.8112L14.1337 95.2708ZM11.0498 108.936C10.7642 110.268 10.4861 111.588 10.2156 112.895L8.25713 112.489C8.5286 111.178 8.80762 109.854 9.09417 108.517L11.0498 108.936ZM8.27964 122.726C8.03076 124.063 7.79063 125.385 7.55925 126.694L5.58978 126.346C5.82225 125.031 6.06348 123.702 6.31345 122.36L8.27964 122.726ZM5.93984 136.583C5.74201 137.903 5.55411 139.208 5.37614 140.499L3.39488 140.226C3.57395 138.927 3.76298 137.614 3.96195 136.287L5.93984 136.583ZM4.17187 150.464C4.03281 151.817 3.90603 153.154 3.79153 154.476L1.79899 154.303C1.91444 152.971 2.04223 151.623 2.18234 150.259L4.17187 150.464ZM3.14924 164.438C3.09398 165.791 3.05328 167.127 3.02713 168.447L1.02752 168.407C1.05395 167.073 1.09509 165.723 1.15091 164.356L3.14924 164.438ZM3.11921 178.435C3.17301 179.776 3.24387 181.099 3.33182 182.407L1.33632 182.541C1.24714 181.215 1.17532 179.873 1.12082 178.515L3.11921 178.435ZM4.3698 192.334C4.56063 193.658 4.77133 194.966 5.0019 196.259L3.03296 196.61C2.79843 195.295 2.58421 193.965 2.39026 192.619L4.3698 192.334ZM7.18148 205.976C7.53206 207.262 7.90475 208.535 8.29959 209.796L6.39103 210.393C5.9887 209.109 5.60899 207.812 5.25186 206.502L7.18148 205.976ZM11.7185 219.138C12.2322 220.36 12.7688 221.573 13.3284 222.778L11.5145 223.62C10.9447 222.393 10.3981 221.158 9.87478 219.913L11.7185 219.138ZM17.9206 231.62C18.5779 232.763 19.2573 233.903 19.9589 235.039L18.2573 236.089C17.5449 234.936 16.8547 233.779 16.1865 232.616L17.9206 231.62ZM25.5072 243.333C26.2778 244.404 27.0686 245.475 27.8797 246.546L26.2851 247.753C25.4646 246.669 24.6642 245.586 23.8837 244.501L25.5072 243.333ZM34.1283 254.351C34.9776 255.359 35.8447 256.37 36.7296 257.384L35.2226 258.699C34.3304 257.677 33.4558 256.657 32.5987 255.64L34.1283 254.351ZM43.471 264.822C44.3679 265.778 45.28 266.738 46.2073 267.703L44.7649 269.089C43.8324 268.118 42.915 267.152 42.0126 266.19L43.471 264.822ZM53.2507 274.854C53.7307 275.331 54.2143 275.809 54.7013 276.288L53.2981 277.713C52.8092 277.232 52.3238 276.752 51.8418 276.274L53.2507 274.854ZM54.7013 276.288C55.1754 276.755 55.6463 277.227 56.114 277.705L54.6849 279.104C54.2256 278.635 53.7634 278.171 53.2981 277.713L54.7013 276.288ZM62.8415 285.202C63.6941 286.235 64.535 287.287 65.3644 288.358L63.7834 289.583C62.9663 288.528 62.1382 287.492 61.2989 286.475L62.8415 285.202ZM71.2484 296.535C71.987 297.639 72.7155 298.757 73.4339 299.89L71.7448 300.961C71.035 299.842 70.3156 298.737 69.5864 297.648L71.2484 296.535ZM78.5689 308.533C79.2203 309.701 79.8626 310.882 80.4959 312.075L78.7293 313.013C78.1023 311.832 77.4665 310.663 76.822 309.506L78.5689 308.533ZM84.9931 321.059C85.5613 322.262 86.1215 323.475 86.6738 324.697L84.8512 325.521C84.3035 324.308 83.748 323.106 83.1847 321.913L84.9931 321.059ZM90.6238 333.926C91.1247 335.161 91.6183 336.403 92.1047 337.654L90.2408 338.379C89.7577 337.137 89.2677 335.903 88.7705 334.677L90.6238 333.926ZM95.5837 347.064C96.0275 348.327 96.4647 349.596 96.8953 350.871L95.0003 351.511C94.5723 350.243 94.1378 348.982 93.6968 347.727L95.5837 347.064ZM99.9647 360.416C100.354 361.688 100.738 362.965 101.115 364.246L99.1968 364.811C98.8212 363.537 98.4398 362.267 98.0523 361.002L99.9647 360.416ZM103.828 373.898C104.173 375.187 104.513 376.479 104.847 377.775L102.911 378.274C102.578 376.985 102.24 375.698 101.896 374.416L103.828 373.898ZM107.243 387.506C107.548 388.807 107.849 390.11 108.144 391.415L106.193 391.856C105.899 390.557 105.6 389.259 105.296 387.963L107.243 387.506ZM110.256 401.207C110.525 402.516 110.789 403.826 111.048 405.137L109.086 405.525C108.828 404.219 108.565 402.914 108.297 401.61L110.256 401.207ZM112.905 414.98C113.142 416.297 113.374 417.613 113.601 418.928L111.63 419.268C111.404 417.957 111.173 416.646 110.937 415.334L112.905 414.98ZM115.225 428.813C115.431 430.132 115.633 431.449 115.83 432.764L113.852 433.061C113.656 431.75 113.455 430.437 113.249 429.122L115.225 428.813ZM117.24 442.681C117.419 444.01 117.594 445.335 117.764 446.657L115.78 446.913C115.611 445.595 115.436 444.273 115.258 442.948L117.24 442.681ZM118.974 456.597C119.127 457.931 119.276 459.261 119.421 460.585L117.433 460.802C117.288 459.481 117.14 458.156 116.987 456.825L118.974 456.597ZM120.443 470.547C120.571 471.873 120.694 473.192 120.813 474.504L118.821 474.685C118.702 473.376 118.579 472.061 118.452 470.738L120.443 470.547ZM121.656 484.484C121.762 485.836 121.863 487.179 121.961 488.511L119.966 488.657C119.869 487.328 119.768 485.989 119.662 484.64L121.656 484.484ZM122.629 498.503C122.709 499.833 122.786 501.152 122.858 502.457L120.862 502.568C120.789 501.266 120.713 499.951 120.632 498.624L122.629 498.503ZM123.354 512.486C123.412 513.843 123.467 515.181 123.517 516.502L121.518 516.578C121.468 515.261 121.414 513.925 121.356 512.572L123.354 512.486ZM123.829 526.465C123.863 527.847 123.893 529.201 123.918 530.528L121.918 530.566C121.893 529.243 121.864 527.892 121.83 526.515L123.829 526.465ZM124.032 540.474C124.037 541.877 124.037 543.235 124.032 544.548L122.032 544.54C122.037 543.233 122.037 541.879 122.032 540.481L124.032 540.474ZM123.889 554.584C123.872 555.245 123.853 555.885 123.832 556.502L121.834 556.437C121.854 555.823 121.872 555.188 121.89 554.53L123.889 554.584Z" fill="#28334C" fill-opacity="0.16"/>
<mask id="mask0_572_807" style="mask-type:alpha" maskUnits="userSpaceOnUse" x="61" y="445" width="109" height="109">
<circle cx="115.525" cy="499.504" r="54" fill="#C4C4C4"/>
</mask>
<g mask="url(#mask0_572_807)">
<path d="M115.445 553.453C145.531 553.453 169.92 529.064 169.92 498.979C169.92 468.893 145.531 444.504 115.445 444.504C85.3598 444.504 60.9707 468.893 60.9707 498.979C60.9707 529.064 85.3598 553.453 115.445 553.453Z" fill="#CBCDEB"/>
<path d="M100.18 483.983C100.18 483.983 100.895 501.066 102.151 504.563C103.387 508.042 112.238 514.264 114.595 514.38C118.209 514.535 125.881 507.965 126.943 505.472C128.258 502.361 129.591 486.206 129.591 486.206L127.427 473.007L102.054 475.23L100.18 483.983Z" fill="#FF6B42"/>
<path d="M135.349 529.337C135.349 529.337 123.735 550.612 122.576 551.926C121.416 553.24 116.508 553.975 115.059 553.994C113.59 554.013 108.315 549.414 107.851 548.506C107.387 547.579 93.2227 529.858 93.2227 529.858C93.2227 529.858 100.952 523.578 104.083 519.404C104.605 518.708 104.991 517.897 105.262 517.027C106.112 514.303 105.957 510.979 105.706 508.834C105.551 507.5 105.358 506.612 105.358 506.612L123.774 505.723C123.774 505.723 123.523 513.143 124.895 518.303C126.228 523.443 135.349 529.337 135.349 529.337Z" fill="#FF6B42"/>
<path d="M101.01 489.259C100.894 489.22 99.2898 488.582 97.8984 489.259C96.5071 489.935 97.0095 493.684 97.8984 495.172C99.5989 497.993 102.169 498.148 102.169 498.148L101.01 489.259Z" fill="#FF6B42"/>
<path d="M128.277 488.911C128.393 488.872 129.996 488.235 131.388 488.911C132.779 489.587 132.277 493.336 131.388 494.824C129.687 497.645 127.117 497.8 127.117 497.8L128.277 488.911Z" fill="#FF6B42"/>
<path d="M106.904 490.863C106.653 490.051 105.706 490.244 105.61 491.037C105.571 491.5 105.552 492.389 106.035 492.64C106.421 492.853 106.788 492.563 106.924 492.196C107.02 491.964 107.059 491.326 106.904 490.863Z" fill="black"/>
<path d="M123.6 490.457C123.348 489.645 122.402 489.839 122.305 490.631C122.266 491.095 122.247 491.983 122.73 492.235C123.117 492.447 123.484 492.157 123.619 491.79C123.716 491.539 123.735 490.921 123.6 490.457Z" fill="black"/>
<path d="M108.606 486.302C108.683 485.085 105.862 485.008 105.301 485.046C104.432 485.104 103.543 485.297 102.731 485.684C102.287 485.897 100.393 487.095 101.707 487.423C102.847 487.713 103.948 487.269 105.069 487.056C105.784 486.921 108.142 487.597 108.528 486.592C108.586 486.496 108.606 486.399 108.606 486.302Z" fill="#A6462B"/>
<path d="M120.026 486.553C119.871 485.336 122.692 485.104 123.253 485.104C124.122 485.104 125.031 485.239 125.862 485.587C126.306 485.761 128.277 486.862 126.982 487.268C125.862 487.616 124.741 487.249 123.601 487.114C122.866 487.017 120.567 487.829 120.122 486.862C120.064 486.727 120.045 486.631 120.026 486.553Z" fill="#A6462B"/>
<path d="M121.049 514.979C119.909 516.216 116.991 518.612 114.035 518.805C111.619 518.96 106.924 517.549 105.262 517.008C106.112 514.283 105.957 511.037 105.706 508.873C105.706 508.873 111.658 514.631 115.252 513.8C117.977 513.182 119.542 512.042 120.334 512.119C121.127 512.196 122.19 513.742 121.049 514.979Z" fill="#D94921"/>
<path d="M115.407 491.172C115.194 490.631 114.325 490.863 114.537 491.404C115.561 494.051 117.049 496.331 115.658 499.153C115.407 499.674 116.18 500.119 116.431 499.616C117.977 496.505 116.566 494.167 115.407 491.172Z" fill="#D94921"/>
<path d="M104.083 519.385C104.083 519.385 113.339 527.907 114.885 527.346C116.431 526.786 125.648 520.08 125.648 520.08L136.141 528.042C136.141 528.042 131.639 579.56 131.523 583.734C131.407 587.908 131.967 628.198 131.967 628.198C131.967 628.198 119.252 634.73 118.904 634.73C118.556 634.73 104.083 628.198 104.083 628.198C104.083 628.198 100.45 568.429 97.7443 558.187C95.0389 547.946 89.7441 531.172 89.7441 531.172L104.083 519.385Z" fill="#FFD6B3"/>
<path d="M129.803 484.176C129.649 482.747 129.378 481.317 129.378 479.867C129.378 478.804 128.586 479.867 128.47 480.138C128.141 480.93 128.431 482.553 128.392 483.442C128.296 485.722 128.103 488.003 127.813 490.264C127.581 492.022 127.136 493.684 126.576 495.365C126.209 496.467 126.112 497.955 125.127 498.708C124.875 498.901 124.586 499.017 124.276 499.133C121.668 500.08 118.827 500.08 116.083 500.119C113.358 500.138 110.556 500.525 107.851 500.215C105.184 499.906 104.295 498.36 103.31 496.099C102.691 494.689 102.208 493.201 101.803 491.713C100.991 488.698 100.701 485.606 100.662 482.495C100.662 481.916 99.7542 481.916 99.7542 482.495C99.7736 484.679 99.1938 486.805 99.3291 488.988C99.4257 490.65 99.445 492.293 99.5996 493.954C99.9668 497.897 100.914 502.534 102.15 506.303C103.271 509.704 105.204 511.964 107.677 514.419C111.02 517.742 115.851 518.767 120.276 516.989C129.552 513.278 128.818 500.331 129.475 492.235C129.61 490.457 129.726 488.679 129.88 486.901C129.958 485.974 129.9 485.085 129.803 484.176Z" fill="#A6462B"/>
<path d="M134.17 470.611C134.131 470.051 134.035 469.49 133.88 468.969C133.436 467.442 132.064 466.398 130.634 465.819C128.469 464.968 126.305 465.877 124.141 466.244C118.131 467.287 112.72 463.075 106.691 464.543C104.45 465.084 102.459 466.476 101.068 468.292C100.372 469.2 99.7925 470.244 99.4446 471.326C99.0968 472.389 99.1161 473.568 99.3867 474.65C97.5316 474.901 97.319 477.278 97.4156 478.747C97.6668 482.225 98.5557 485.607 99.348 488.988C99.4833 489.549 100.353 489.317 100.218 488.737V488.718C100.411 488.679 100.565 488.544 100.585 488.293C100.643 484.853 101.918 481.491 101.957 478.012C103.155 478.631 104.643 478.824 105.938 478.689C107.464 478.534 108.778 477.645 110.266 477.297C112.392 476.795 114.807 477.336 116.914 477.722C119.831 478.263 124.759 479.887 128.16 478.843C128.141 480.119 128.392 481.375 128.411 482.65C128.411 482.824 128.508 482.94 128.624 483.017C128.624 483.23 128.624 483.442 128.624 483.674C128.624 483.867 128.721 483.983 128.856 484.041V486.921C128.759 487.384 128.643 487.829 128.527 488.273C128.392 488.834 129.262 489.085 129.397 488.524C130.247 485.104 130.808 481.548 130.305 478.012C131.774 477.317 132.953 475.751 133.61 474.302C134.073 473.181 134.267 471.867 134.17 470.611Z" fill="#A6462B"/>
<path d="M118.788 502.379C118.691 502.302 118.536 502.244 118.247 502.264C116.449 502.379 114.633 502.321 112.836 502.341C112.198 502.341 111.174 502.631 111.773 503.423C112.778 504.737 114.44 505.394 116.449 505.008C117.396 504.834 119.599 503.075 118.788 502.379Z" fill="white"/>
<path d="M99.7536 522.96C99.7536 522.96 104.449 539.637 105.609 558.091C106.768 576.546 109.531 644.083 107.019 645.996C104.507 647.909 97.0868 647.909 89.763 644.527C82.4392 641.146 75.6951 638.44 76.3715 633.281C77.0478 628.102 74.0332 543.927 76.3328 541.221C78.613 538.496 99.7536 522.96 99.7536 522.96Z" fill="#28334C"/>
<path d="M129.92 523.346C129.92 523.346 126.558 531.81 126.113 550.361C125.669 568.893 121.108 646.208 123.717 647.291C126.345 648.373 143.215 645.204 149.07 640.933C154.925 636.662 157.631 635.232 157.843 632.005C158.075 628.778 155.814 541.433 154.693 538.728C153.573 536.023 129.92 523.346 129.92 523.346Z" fill="#28334C"/>
<path d="M89.7637 530.419C89.7637 530.419 73.9566 540.197 69.3962 550.361C66.1884 557.492 61.7438 615.503 67.3671 620.334C72.9904 625.165 107.754 615.908 107.754 615.908L89.7637 530.419Z" fill="#002B4D"/>
<path d="M114.653 527.868C113.494 528.081 111.001 532.467 111.755 534.535C112.392 536.255 117.764 535.888 117.996 534.631C118.421 532.197 115.813 527.655 114.653 527.868Z" fill="#D42E00"/>
<path d="M116.663 535.095L113.281 535.211C113.281 535.211 109.319 582.768 109.629 584.797C109.938 586.826 113.493 593.492 114.305 593.492C115.117 593.492 120.817 586.516 120.74 584.719C120.663 582.922 116.663 535.095 116.663 535.095Z" fill="#D42E00"/>
<path d="M154.692 538.728C154.692 538.728 160.78 544.139 163.021 556.738C165.263 569.337 167.524 612.275 161.9 617.976C152.837 627.136 95.5996 605.589 95.5996 605.589L100.875 584.758L140.393 588.487L154.248 539.868L154.692 538.728Z" fill="#002B4D"/>
<path d="M89.6473 567.29C88.913 562.864 88.971 558.42 88.3719 553.995C87.5796 548.178 84.5264 542.188 79.0577 539.54C78.536 539.289 78.0722 540.062 78.594 540.313C84.5458 543.193 87.1545 549.84 87.6763 556.082C87.9468 559.328 87.9854 562.575 88.4879 565.821C89.1062 569.821 90.227 573.898 89.3575 577.937C89.2415 578.498 90.1111 578.749 90.227 578.169C91.0193 574.517 90.2464 570.903 89.6473 567.29Z" fill="#001526"/>
<path d="M150.151 537.839C145.532 539.057 144.006 545.26 143.175 549.279C142.382 553.125 141.436 556.97 141.3 560.912C141.223 563.173 141.126 565.357 140.643 567.579C140.276 569.318 139.89 570.999 139.909 572.797C139.909 573.376 140.817 573.376 140.817 572.797C140.779 569.531 141.977 566.362 142.131 563.077C142.305 559.27 142.788 555.676 143.561 551.927C144.411 547.695 145.397 540.023 150.402 538.709C150.962 538.574 150.711 537.704 150.151 537.839Z" fill="#001526"/>
</g>
</svg>
