<svg width="249" height="191" viewBox="0 0 249 191" fill="none" xmlns="http://www.w3.org/2000/svg">
<path d="M149.802 70.7154C150.595 71.5084 149.802 72.7862 149.009 73.3149C147.071 74.1961 145 74.6807 142.929 74.901C141.695 74.6367 140.682 74.1961 140.594 73.6233C140.418 72.4337 143.017 69.8783 143.017 69.8783L141.651 69.0852L143.987 66.3535C145.705 68.0718 147.643 69.2174 149.802 70.7154Z" fill="#FF96A9"/>
<path d="M140.594 81.9945C142.268 80.5846 143.59 79.1306 144.559 77.897C146.409 78.2054 148.26 78.3376 150.11 78.3816C148.216 79.7475 146.277 81.1133 145.044 82.347C142.18 85.2108 136.716 85.2108 140.594 81.9945Z" fill="#FF96A9"/>
<path d="M146.454 75.0772C145.529 75.2093 144.119 75.1653 142.929 74.945C145 74.7247 147.071 74.24 149.01 73.3588C149.803 72.8301 150.552 71.5524 149.803 70.7593C147.644 69.2613 145.661 68.1158 144.031 66.4415L145.397 64.8554C145.397 64.8554 146.014 63.4455 150.243 64.8554C154.517 66.2653 156.412 69.79 155.354 73.0064C154.781 74.8128 152.49 76.6192 150.111 78.3816C148.261 78.3376 146.41 78.2054 144.56 77.897C145.837 76.2668 146.454 75.0772 146.454 75.0772Z" fill="#ED7E94"/>
<path d="M151.124 70.8475C151.124 70.8475 142.224 65.9569 138.039 59.1277C138.039 59.1277 152.799 59.9208 161.919 69.3495C161.919 69.3495 159.187 75.7821 151.477 77.3242C151.477 77.3242 149.979 74.2401 150.772 73.0505C150.772 73.0505 153.195 73.0504 153.063 71.6846C152.931 70.3188 151.124 70.8475 151.124 70.8475Z" fill="#121D54"/>
<path d="M168.835 119.754C168.791 119.754 166.809 119.313 164.165 115.876C164.518 115.303 164.826 114.731 165.134 114.158C166.5 115.48 168.086 116.537 169.805 117.418C169.584 118.255 169.232 119.049 168.835 119.754Z" fill="#EAE6FF"/>
<path d="M170.422 111.162C170.598 113.277 170.422 115.435 169.805 117.418C168.086 116.581 166.5 115.48 165.134 114.158C165.839 112.792 166.324 111.338 166.588 109.796C167.205 110.281 168.571 110.721 170.422 111.162Z" fill="white"/>
<path d="M161.786 109.531C161.786 110.06 161.522 110.853 161.258 111.338C159.187 113.144 156.323 111.074 156.059 108.738C154.252 110.06 151.653 110.28 151.124 107.945C150.816 107.02 150.772 106.051 150.86 105.126C152.49 103.011 155.045 100.896 157.909 100.676C163.108 100.279 164.166 107.549 166.413 109.664C166.457 109.708 166.545 109.752 166.589 109.796C166.325 111.294 165.84 112.748 165.135 114.158C163.769 112.88 162.624 111.338 161.786 109.531Z" fill="#FF96A9"/>
<path d="M150.816 105.169C150.727 106.095 150.772 107.02 151.08 107.989C151.609 110.324 154.208 110.06 156.015 108.782C156.279 111.117 159.143 113.188 161.214 111.382C161.478 110.853 161.742 110.06 161.742 109.575C162.579 111.382 163.725 112.924 165.091 114.246C164.782 114.818 164.474 115.391 164.122 115.964C163.417 115.039 162.668 113.937 161.874 112.527C161.874 112.527 160.773 114.951 159.231 114.422C157.689 113.893 155.618 111.646 155.618 111.646C155.618 111.646 157.028 115.303 155.618 115.656C154.208 116.008 149.538 111.47 149.009 109.575C148.789 108.65 149.494 106.888 150.816 105.169Z" fill="#ED7E94"/>
<path d="M169.057 91.0267C178.75 93.2737 188.487 97.9 195.14 105.214C188.619 100.015 174.696 91.8638 151.257 91.4232C156.764 89.4406 163.197 89.5728 169.057 91.0267Z" fill="#5B5BCB"/>
<path d="M71.3329 66.3975C77.4131 70.8915 92.173 80.4524 109.312 81.9064C131.826 83.845 144.692 80.3643 144.692 80.3643C144.692 80.3643 190.866 73.5351 215.495 108.783C215.495 108.783 215.363 109.179 215.055 109.84C206.243 119.489 190.69 120.767 178.177 119.621C175.269 119.401 172.405 118.652 169.806 117.374C170.422 115.391 170.599 113.233 170.422 111.118C177.78 112.836 192.805 113.937 199.722 109.487C199.722 109.487 198.268 107.681 195.14 105.17C188.487 97.8558 178.794 93.2737 169.057 90.9826C163.153 89.5286 156.764 89.3964 151.257 91.3791C147.6 91.291 143.722 91.4232 139.581 91.7757C126.892 91.5994 114.423 92.789 101.602 89.7049C87.5027 86.1801 74.6373 78.3816 65.7814 67.3227C67.4557 66.4856 69.4824 66.1772 71.3329 66.3975Z" fill="#8B77E8"/>
<path d="M215.054 109.884C213.159 113.717 204.039 126.274 168.835 119.753C169.232 119.004 169.54 118.211 169.805 117.418C172.404 118.696 175.268 119.445 178.176 119.665C190.689 120.855 206.286 119.533 215.054 109.884Z" fill="#5B5BCB"/>
<path d="M101.646 89.749C114.467 92.8331 126.892 91.6435 139.625 91.8198C136.409 92.0841 133.104 92.4807 129.579 93.0534C96.0943 98.3846 73.536 78.1614 64.3276 68.4243C64.7682 68.0277 65.2528 67.6752 65.7815 67.4109C74.6815 78.4257 87.5028 86.2242 101.646 89.749Z" fill="#5B5BCB"/>
<path d="M69.1291 64.7232C69.6137 65.1198 70.3627 65.6926 71.332 66.3975C69.4815 66.1772 67.4989 66.4856 65.8246 67.3668C65.2959 66.7059 64.7672 66.001 64.2385 65.296C65.8246 64.8554 67.4548 64.6351 69.1291 64.7232Z" fill="white"/>
<path d="M62.2123 66.0452C62.8732 65.7367 63.5341 65.5164 64.239 65.2961C64.7678 66.0011 65.2524 66.662 65.8252 67.3669C65.2965 67.6313 64.8118 67.9838 64.3712 68.3803C63.5341 67.4991 62.8292 66.706 62.2123 66.0452Z" fill="#EAE6FF"/>
<path d="M58.7313 59.7887C67.4551 62.7847 69.2615 55.8674 72.3457 55.8674C75.3858 55.8674 78.2496 57.1892 75.8704 58.0704C73.4471 58.9956 72.5659 58.7753 71.6407 59.8768C70.7154 60.9783 71.8169 61.6392 70.9358 62.6966C70.0105 63.7541 68.3803 64.0625 68.3803 64.0625C68.3803 64.0625 68.6447 64.2828 69.1293 64.6793C66.7501 64.5471 64.3709 65.0318 62.212 66.0011C61.9036 65.6486 61.6392 65.3402 61.3749 65.0318C61.3749 65.0318 58.5991 65.208 55.9996 62.0798C55.9996 62.0798 51.6818 59.0838 44.8967 59.0838C42.914 59.1278 43.8833 54.6778 58.7313 59.7887Z" fill="#FF96A9"/>
<path d="M147.819 80.0559C147.819 80.0559 131.121 104.156 135.483 119.93C139.845 135.747 139.845 135.747 139.845 135.747C139.845 135.747 136.893 140.417 126.495 132.795C116.097 125.173 115.744 95.1242 121.296 90.9386C126.847 86.7529 136.584 81.4658 140.594 81.2015C140.55 81.2455 144.559 80.2321 147.819 80.0559Z" fill="white"/>
<path d="M141.827 80.937C141.827 80.937 127.552 83.6246 122.221 95.9613C116.89 108.342 123.146 127.728 123.146 127.728C123.146 127.728 110.325 111.602 115.347 93.8024C116.801 88.6915 116.801 88.6915 116.801 88.6915L124.732 87.59L121.34 86.136L135.659 81.7742L141.827 80.937Z" fill="#5B5BCB"/>
<path d="M143.061 139.845C143.061 139.845 111.779 106.756 62.8288 93.2297C62.8288 93.2297 25.3343 103.143 1.63036 116.537C1.63036 116.537 36.261 120.591 63.8422 108.871C63.8422 108.871 109.267 129.623 132.927 150.948C151.961 168.043 149.538 145.925 143.061 139.845Z" fill="#8B77E8"/>
<path d="M153.988 143.369C149.053 145.968 143.854 148.304 138.083 149.097C134.91 141.474 131.694 133.632 130.681 125.349C140.55 128.389 151.521 130.019 152.666 130.592C162.139 135.526 157.601 146.982 157.601 146.982C157.601 146.982 162.932 155.661 168.043 162.314C162.095 156.983 156.808 150.727 153.988 143.369Z" fill="#5B5BCB"/>
<path d="M130.681 125.349C131.694 133.632 134.867 141.475 138.083 149.097C143.811 148.304 149.01 145.969 153.988 143.369C156.808 150.727 162.095 156.984 168.043 162.359C170.951 166.104 173.727 169.188 175.489 169.673C175.489 169.673 217.258 149.362 234.705 145.705C234.705 145.705 201.881 178.264 177.428 190.249C177.428 190.249 157.733 184.389 119.358 133.236L116.714 118.432C119.446 121.296 124.865 123.587 130.681 125.349Z" fill="#8B77E8"/>
<path d="M147.82 80.0559C157.865 81.2896 160.773 86.797 161.566 89.9693C154.429 89.7049 147.379 91.7317 142.753 97.2831C138.832 102.218 138.083 109.796 142.224 115.259C143.987 117.771 145.969 119.974 148.084 121.912C153.9 128.653 161.919 132.707 161.919 132.707C151.124 146.101 139.228 147.026 139.228 147.026C139.228 147.026 127.905 130.768 127.729 108.21C127.553 85.6955 147.82 80.0559 147.82 80.0559Z" fill="#8B77E8"/>
<path d="M142.268 115.259C138.082 109.796 138.875 102.262 142.796 97.2833C147.423 91.6877 154.472 89.661 161.61 89.9694C161.962 91.2912 161.918 92.2165 161.918 92.2165C161.918 92.2165 144.471 89.3526 142.268 105.522C141.387 111.911 144.294 117.507 148.128 121.912C146.013 119.93 144.03 117.771 142.268 115.259Z" fill="#5B5BCB"/>
<path d="M149.935 79.9678L147.423 85.4311L142.356 87.2376L148.348 88.7356C148.348 88.7356 129.623 94.4633 130.328 126.671C130.02 125.657 126.363 112.219 128.213 102.218C130.108 91.9079 135.439 87.6341 138.215 85.2549C140.462 83.3603 142.797 81.5099 147.82 80.0559L149.935 79.9678Z" fill="#5B5BCB"/>
<path d="M4.00977 115.259L0.000374794 98.781L1.67463 116.537L4.00977 115.259Z" fill="#121D54"/>
<path d="M232.942 147.423L248.848 151.168L234.705 145.704L232.942 147.423Z" fill="#121D54"/>
<path d="M197.166 85.2108C208.093 80.6727 217.037 71.9049 221.707 60.9341L219.636 81.1133C219.636 81.1133 195.844 107.108 141.167 81.1133C141.167 81.1133 141.651 81.2014 142.532 81.3776C148.568 83.889 155.266 85.2108 161.478 87.0613C172.933 90.7182 185.711 90.1895 197.166 85.2108Z" fill="#F73E91"/>
<path d="M200.867 60.8462H221.707V60.9343C217.037 71.9492 208.093 80.6729 197.166 85.211C185.711 90.1457 172.933 90.6744 161.478 87.0174C155.266 85.1669 148.568 83.8452 142.532 81.3338C150.463 82.7437 189.808 88.1189 200.867 60.8462Z" fill="#FC5BA3"/>
<path d="M167.338 118.079C167.07 118.079 166.853 117.862 166.853 117.594C166.853 117.327 167.07 117.11 167.338 117.11C167.605 117.11 167.822 117.327 167.822 117.594C167.822 117.862 167.605 118.079 167.338 118.079Z" fill="#AEA0F5"/>
<path d="M176.767 120.414C176.402 120.414 176.106 120.118 176.106 119.753C176.106 119.388 176.402 119.093 176.767 119.093C177.132 119.093 177.428 119.388 177.428 119.753C177.428 120.118 177.132 120.414 176.767 120.414Z" fill="#6953C9"/>
<path d="M172.669 119.754C172.304 119.754 172.008 119.458 172.008 119.093C172.008 118.728 172.304 118.432 172.669 118.432C173.034 118.432 173.33 118.728 173.33 119.093C173.33 119.458 173.034 119.754 172.669 119.754Z" fill="#6953C9"/>
<path d="M174.74 120.106C174.375 120.106 174.079 119.81 174.079 119.445C174.079 119.08 174.375 118.784 174.74 118.784C175.104 118.784 175.4 119.08 175.4 119.445C175.4 119.81 175.104 120.106 174.74 120.106Z" fill="#6953C9"/>
<path d="M119.358 133.235C127.068 139.756 140.242 152.533 148.966 162.182C159.848 174.211 177.428 184.388 177.428 184.388C196.858 176.193 234.705 145.704 234.705 145.704C234.705 145.704 201.881 178.264 177.428 190.248C177.428 190.248 157.689 184.388 119.358 133.235Z" fill="#5B5BCB"/>
<path d="M64.2388 104.333C98.8254 114.642 124.82 140.373 124.82 140.373L134.602 150.022L133.72 151.564C133.5 151.344 133.236 151.168 133.015 150.947C109.312 129.623 63.9303 108.871 63.9303 108.871C36.3492 120.59 1.71855 116.537 1.71855 116.537C22.9992 117.33 64.2388 104.333 64.2388 104.333Z" fill="#5B5BCB"/>
<path d="M132.751 129.711C132.216 129.711 131.782 129.277 131.782 128.742C131.782 128.206 132.216 127.772 132.751 127.772C133.287 127.772 133.721 128.206 133.721 128.742C133.721 129.277 133.287 129.711 132.751 129.711Z" fill="#5B5BCB"/>
<path d="M138.038 133.632C138.082 133.632 138.126 133.632 138.126 133.632C147.026 131.165 148.128 127.992 148.172 127.86C148.26 127.64 148.128 127.42 147.907 127.376C147.687 127.287 147.467 127.42 147.423 127.64C147.423 127.684 146.233 130.592 137.906 132.883C137.685 132.927 137.597 133.147 137.641 133.368C137.686 133.544 137.862 133.632 138.038 133.632Z" fill="#5B5BCB"/>
<path d="M139.316 82.5673C139.048 82.5673 138.831 82.4687 138.831 82.347C138.831 82.2253 139.048 82.1267 139.316 82.1267C139.584 82.1267 139.801 82.2253 139.801 82.347C139.801 82.4687 139.584 82.5673 139.316 82.5673Z" fill="#AEA0F5"/>
<path d="M134.073 85.8278C133.805 85.8278 133.588 85.7292 133.588 85.6075C133.588 85.4858 133.805 85.3872 134.073 85.3872C134.341 85.3872 134.558 85.4858 134.558 85.6075C134.558 85.7292 134.341 85.8278 134.073 85.8278Z" fill="#AEA0F5"/>
<path d="M124.997 100.059C124.729 100.059 124.512 99.9601 124.512 99.8385C124.512 99.7168 124.729 99.6182 124.997 99.6182C125.264 99.6182 125.481 99.7168 125.481 99.8385C125.481 99.9601 125.264 100.059 124.997 100.059Z" fill="#AEA0F5"/>
<path d="M124.997 122.661C124.729 122.661 124.512 122.563 124.512 122.441C124.512 122.319 124.729 122.221 124.997 122.221C125.264 122.221 125.481 122.319 125.481 122.441C125.481 122.563 125.264 122.661 124.997 122.661Z" fill="#AEA0F5"/>
<path d="M128.786 91.1586C128.518 91.1586 128.301 91.06 128.301 90.9383C128.301 90.8166 128.518 90.718 128.786 90.718C129.054 90.718 129.271 90.8166 129.271 90.9383C129.271 91.06 129.054 91.1586 128.786 91.1586Z" fill="#AEA0F5"/>
<path d="M123.983 111.558C123.715 111.558 123.498 111.459 123.498 111.338C123.498 111.216 123.715 111.117 123.983 111.117C124.251 111.117 124.468 111.216 124.468 111.338C124.468 111.459 124.251 111.558 123.983 111.558Z" fill="#AEA0F5"/>
<path d="M44.1478 58.3789C44.2359 58.467 44.3681 58.5111 44.4562 58.5551C45.3814 59.0398 46.6591 58.5992 49.3908 58.9076C52.1225 59.216 54.7661 60.9784 57.4537 62.5645C60.1413 64.1506 63.7982 63.8422 65.7809 63.5779C67.7636 63.3135 69.2616 62.5205 69.8344 61.6393C70.4072 60.8021 70.2309 59.3922 71.2883 58.6873C72.3458 57.9823 74.9893 57.9823 76.0027 57.3655C76.223 57.2333 76.3992 57.0571 76.5314 56.8809C76.8839 57.2333 76.7517 57.6739 75.8264 58.0264C73.4032 58.9516 72.522 58.7314 71.5968 59.8328C70.6715 60.9343 71.773 61.5952 70.8918 62.6526C69.9666 63.71 68.3364 64.0185 68.3364 64.0185C68.3364 64.0185 68.6007 64.2388 69.0854 64.6353C66.7062 64.5031 64.327 64.9878 62.168 65.9571C61.8596 65.6046 61.5953 65.2962 61.3309 64.9878C61.3309 64.9878 58.5552 65.164 55.9557 62.0358C55.9557 62.0358 51.6379 59.0398 44.8527 59.0398C44.324 59.1279 44.0156 58.7754 44.1478 58.3789Z" fill="#ED7E94"/>
<path d="M118.035 90.8061L120.59 90.5417C120.679 90.5417 120.723 90.4536 120.723 90.4095C120.723 90.3214 120.635 90.2773 120.59 90.2773L118.035 90.5417C117.947 90.5417 117.903 90.6298 117.903 90.6739C117.903 90.762 117.991 90.8061 118.035 90.8061Z" fill="#8B77E8"/>
<path d="M143.458 81.0251L141.211 80.6726L140.154 81.9503L143.458 81.0251Z" fill="#E5649A"/>
<path d="M143.458 81.0252L140.154 81.9505L142.753 80.8931L143.458 81.0252Z" fill="#DB4A87"/>
<path d="M56.0441 47.9366H66.7064C67.0589 47.9366 67.3232 47.6722 67.3232 47.3197C67.3232 46.9672 67.0589 46.7029 66.7064 46.7029H56.0441C55.6916 46.7029 55.4272 46.9672 55.4272 47.3197C55.4272 47.6722 55.6916 47.9366 56.0441 47.9366Z" fill="#FE9736"/>
<path d="M56.8805 49.6548H65.8246C66.1771 49.6548 66.4414 49.3905 66.4414 49.038C66.4414 48.6855 66.1771 48.4211 65.8246 48.4211H56.8805C56.528 48.4211 56.2637 48.6855 56.2637 49.038C56.2637 49.3905 56.528 49.6548 56.8805 49.6548Z" fill="#FE9736"/>
<path d="M58.0703 51.3731H64.6351C64.9876 51.3731 65.252 51.1087 65.252 50.7562C65.252 50.4037 64.9876 50.1394 64.6351 50.1394H58.0703C57.7178 50.1394 57.4535 50.4037 57.4535 50.7562C57.4535 51.0646 57.7178 51.3731 58.0703 51.3731Z" fill="#FE9736"/>
<path d="M61.3748 15.2444C68.6446 15.3325 74.4164 20.7078 74.5045 27.4488C74.5926 33.0003 72.1694 35.5117 69.6139 38.1553C69.1733 38.5958 68.7327 39.0364 68.3362 39.5211C65.6045 42.5612 66.0011 45.6013 66.0011 45.6453C66.0451 45.9097 65.8689 46.13 65.6045 46.1741C65.5605 46.1741 65.5605 46.1741 65.5164 46.1741H57.2773C57.2332 46.1741 57.2332 46.1741 57.1892 46.1741C56.9248 46.13 56.7486 45.9097 56.7927 45.6453C56.7927 45.6013 57.1892 42.5612 54.4575 39.5211C54.0169 39.0364 53.5763 38.5958 53.1798 38.1553C50.6244 35.5117 48.2451 33.0003 48.2892 27.4488C48.3773 20.7078 54.1491 15.3325 61.3748 15.2444Z" fill="#FFCC46"/>
<path d="M63.8426 51.8137V52.1662C63.8866 53.6201 62.697 54.8097 61.2871 54.8538C59.8331 54.8979 58.6435 53.7083 58.5995 52.2984V51.9459L63.8426 51.8137Z" fill="#FE9736"/>
<path d="M77.4567 27.2729H89.3968C89.529 27.2729 89.6611 27.1407 89.6611 27.0085C89.6611 26.8763 89.529 26.7441 89.3968 26.7441H77.4567C77.3245 26.7441 77.1923 26.8763 77.1923 27.0085C77.1923 27.1407 77.3245 27.2729 77.4567 27.2729Z" fill="#FFCC46"/>
<path d="M82.303 44.7646C82.3911 44.7646 82.4792 44.7205 82.5233 44.6765C82.6114 44.5443 82.5673 44.368 82.4792 44.2799L73.1386 37.3185C73.0064 37.2304 72.8302 37.2745 72.7421 37.3626C72.654 37.4948 72.698 37.671 72.7861 37.7591L82.1267 44.7205C82.1708 44.7205 82.2148 44.7646 82.303 44.7646Z" fill="#FFCC46"/>
<path d="M72.9622 15.4209C73.0063 15.4209 73.0944 15.3768 73.1385 15.3328L82.4791 6.7412C82.5672 6.65308 82.6113 6.47683 82.4791 6.34465C82.391 6.25653 82.2147 6.21247 82.0825 6.34465L72.7419 14.9362C72.6538 15.0243 72.6098 15.2006 72.7419 15.3328C72.786 15.3768 72.8741 15.4209 72.9622 15.4209Z" fill="#FFCC46"/>
<path d="M32.6481 28.727H44.5882C44.7204 28.727 44.8525 28.5948 44.8525 28.4626C44.8525 28.3304 44.7204 28.1982 44.5882 28.1982H32.6481C32.5159 28.1982 32.3837 28.3304 32.3837 28.4626C32.3837 28.5948 32.5159 28.727 32.6481 28.727Z" fill="#FFCC46"/>
<path d="M39.7859 46.2181C39.83 46.2181 39.9181 46.2182 39.9621 46.1741L49.3027 39.2127C49.4349 39.1246 49.4349 38.9484 49.3468 38.8162C49.2587 38.684 49.0824 38.684 48.9502 38.7721L39.6097 45.7335C39.4775 45.8216 39.4775 45.9978 39.5656 46.13C39.6097 46.1741 39.6978 46.2181 39.7859 46.2181Z" fill="#FFCC46"/>
<path d="M49.1268 16.8748C49.2149 16.8748 49.259 16.8307 49.3031 16.7866C49.3912 16.6985 49.3912 16.5223 49.3031 16.3901L39.9625 7.79851C39.8743 7.71039 39.6981 7.71039 39.5659 7.79851C39.4778 7.88663 39.4778 8.06288 39.5659 8.19506L48.9065 16.7866C48.9946 16.8747 49.0387 16.8748 49.1268 16.8748Z" fill="#FFCC46"/>
<path d="M61.0228 13.0856C61.1549 13.0856 61.2871 12.9535 61.2871 12.8213V0.264359C61.2871 0.132181 61.1549 0 61.0228 0C60.8906 0 60.7584 0.132181 60.7584 0.264359V12.8213C60.7584 12.9535 60.8465 13.0856 61.0228 13.0856Z" fill="#FFCC46"/>
</svg>
