<svg width="20" height="20" viewBox="0 0 20 20" fill="none" xmlns="http://www.w3.org/2000/svg">
<path fill-rule="evenodd" clip-rule="evenodd" d="M5.00033 1.66675H15.8337C17.6746 1.66675 19.167 3.15913 19.167 5.00008V15.8334C19.167 17.6744 17.6746 19.1667 15.8337 19.1667H5.00033C3.15938 19.1667 1.66699 17.6744 1.66699 15.8334V5.00008C1.66699 3.15913 3.15938 1.66675 5.00033 1.66675ZM15.0003 13.4334C15.3455 13.4334 15.6253 13.1536 15.6253 12.8084L15.592 10.3084C15.592 9.96322 15.3122 9.6834 14.967 9.6834C14.6218 9.6834 14.342 9.96322 14.342 10.3084V11.5751L11.0753 8.3084C10.6331 7.86765 9.9176 7.86765 9.47533 8.3084L7.80866 9.97506L5.75033 7.91673C5.50858 7.75999 5.191 7.78882 4.98143 7.98653C4.77185 8.18424 4.72459 8.4996 4.867 8.75006L7.042 10.8834C7.48427 11.3241 8.19972 11.3241 8.642 10.8834L10.3087 9.21673L13.2753 12.1834H12.5003C12.1552 12.1834 11.8753 12.4632 11.8753 12.8084C11.8753 13.1536 12.1552 13.4334 12.5003 13.4334H15.0003Z" fill="white"/>
</svg>
