<svg width="20" height="20" viewBox="0 0 20 20" fill="none" xmlns="http://www.w3.org/2000/svg">
<path d="M15.2608 9.34912C15.0594 9.34912 14.8734 9.45653 14.7728 9.63087C14.6721 9.80522 14.6721 10.02 14.7728 10.1944C14.8734 10.3687 15.0594 10.4761 15.2608 10.4761H18.2449H18.3322V9.33325H18.2449L15.2608 9.34912Z" fill="white"/>
<path d="M18.2454 11.984H15.2613C14.1172 11.984 13.1898 11.0566 13.1898 9.91262C13.1898 8.7686 14.1172 7.84119 15.2613 7.84119H18.2454H18.3327V6.50786C18.3327 4.75457 16.9114 3.33325 15.1581 3.33325H4.84062C3.08733 3.33325 1.66602 4.75457 1.66602 6.50786V13.3174C1.66602 15.0707 3.08733 16.492 4.84062 16.492H15.1581C16.9114 16.492 18.3327 15.0707 18.3327 13.3174V11.9682L18.2454 11.984Z" fill="white"/>
</svg>
