<svg width="20" height="20" viewBox="0 0 20 20" fill="none" xmlns="http://www.w3.org/2000/svg">
<path fill-rule="evenodd" clip-rule="evenodd" d="M8.33366 1.66675H11.867C13.6351 1.66675 15.3308 2.36913 16.581 3.61937C17.8313 4.86961 18.5337 6.5653 18.5337 8.33342V11.8667C18.5337 15.5486 15.5489 18.5334 11.867 18.5334H8.33366C4.65176 18.5334 1.66699 15.5486 1.66699 11.8667V8.33342C1.66699 4.65152 4.65176 1.66675 8.33366 1.66675ZM10.1003 15.1001C10.5606 15.1001 10.9337 14.727 10.9337 14.2667V10.1001C10.9349 9.87857 10.848 9.66567 10.692 9.5084L7.35866 6.17507C7.14728 5.96369 6.83919 5.88113 6.55043 5.9585C6.26168 6.03587 6.03614 6.26142 5.95877 6.55017C5.8814 6.83892 5.96395 7.14702 6.17533 7.3584L9.267 10.4417V14.2667C9.267 14.727 9.64009 15.1001 10.1003 15.1001Z" fill="white"/>
</svg>
