<svg width="20" height="20" viewBox="0 0 20 20" fill="none" xmlns="http://www.w3.org/2000/svg">
<path d="M7.43294 10.0001H7.49961C9.34056 10.0001 10.8329 8.50774 10.8329 6.66679V5.35846C10.8308 4.61074 10.5305 3.89476 9.99863 3.36918C9.46679 2.84359 8.7473 2.5518 7.99961 2.55846H6.89961C5.35511 2.56304 4.10419 3.81396 4.09961 5.35846V6.66679C4.09961 8.50774 5.59199 10.0001 7.43294 10.0001Z" fill="white"/>
<path d="M14.584 9.37523C15.9647 9.37523 17.084 8.25594 17.084 6.87523V5.91689C17.084 4.76357 16.1539 3.82605 15.0007 3.81689H14.1673C13.014 3.82605 12.0839 4.76357 12.084 5.91689V6.87523C12.084 8.25594 13.2033 9.37523 14.584 9.37523Z" fill="white"/>
<path d="M18.6589 12.85L18.5255 12.1917C18.3679 11.2879 17.5846 10.6275 16.6672 10.625H11.5839C10.9626 10.6263 10.3836 10.9393 10.0422 11.4583H4.16719C3.57775 11.4588 3.01098 11.6855 2.58385 12.0917C2.21688 12.4279 1.95863 12.8661 1.84219 13.35C1.84219 13.3917 1.84219 13.4333 1.84219 13.4667V13.6833L1.66719 14.35C1.48895 15.0794 1.64795 15.8502 2.10025 16.4495C2.55255 17.0488 3.25025 17.4131 4.00052 17.4417H10.9005C11.0776 17.4411 11.2539 17.4187 11.4255 17.375H11.5339C11.6591 17.3393 11.7816 17.2948 11.9005 17.2417L12.0339 17.1667C12.1333 17.1105 12.2281 17.0464 12.3172 16.975L12.4505 16.8667C12.5325 16.7903 12.6104 16.7096 12.6839 16.625C12.6839 16.5833 12.7589 16.55 12.7922 16.5C12.8853 16.3776 12.9663 16.2465 13.0339 16.1083C13.0694 16.0326 13.1 15.9547 13.1255 15.875C13.1583 15.7991 13.1861 15.7212 13.2089 15.6417C13.2089 15.5583 13.2505 15.475 13.2672 15.3917V15.2667H16.8339C17.4223 15.2492 17.9711 14.9658 18.3259 14.496C18.6807 14.0262 18.8031 13.4208 18.6589 12.85Z" fill="white"/>
</svg>
