<svg width="44" height="44" viewBox="0 0 44 44" fill="none" xmlns="http://www.w3.org/2000/svg">
<circle cx="22" cy="22" r="22" fill="#78BFD3"/>
<path d="M32.4781 16.7311C32.208 15.6119 31.2478 14.7871 30.0925 14.6639C27.356 14.3723 24.5865 14.1903 21.8288 14.1918C19.0711 14.1903 16.3013 14.3723 13.5646 14.6639C12.4093 14.7871 11.4496 15.6119 11.1798 16.7311C10.7959 18.3244 10.791 20.0634 10.791 21.7043C10.791 23.3448 10.791 25.0838 11.1752 26.6774C11.4453 27.7956 12.4049 28.6214 13.5602 28.7438C16.2967 29.0355 19.0662 29.2175 21.8242 29.2162C24.5819 29.2175 27.3517 29.0358 30.0879 28.7438C31.2435 28.6211 32.2034 27.7956 32.4735 26.6774C32.8574 25.0838 32.8602 23.3448 32.8602 21.7043C32.8602 20.0637 32.8623 18.3244 32.4781 16.7311ZM25.5884 22.1909L20.386 24.884C19.8688 25.1519 19.4455 24.9102 19.4455 24.3474V19.0608C19.4455 18.4978 19.8686 18.2561 20.386 18.524L25.5884 21.2174C26.1058 21.4848 26.1058 21.9232 25.5884 22.1909Z" fill="white"/>
</svg>
