<svg width="739" height="768" viewBox="0 0 739 768" fill="none" xmlns="http://www.w3.org/2000/svg">
<mask id="mask0_205_1880" style="mask-type:alpha" maskUnits="userSpaceOnUse" x="0" y="0" width="739" height="768">
<path d="M0 20C0 8.95432 8.9543 0 20 0H739V768H20C8.95431 768 0 759.046 0 748V20Z" fill="#2E2362"/>
</mask>
<g mask="url(#mask0_205_1880)">
<rect width="739" height="768" fill="#121D54"/>
<path d="M-37.1265 153.543C-28.2859 153.543 -23.3084 155.029 -20.6339 157.109C-5.40428 168.624 31.5183 164.39 67.1779 160.23C108.261 155.475 147.041 151.017 160.041 167.51C165.613 174.493 165.91 184.523 161.007 198.118C146.446 238.829 96.0771 285.781 56.48 317.949C7.52234 357.695 -42.0297 389.045 -63.4254 400.486L-63.9455 399.52L-63.4254 400.486C-127.91 434.809 -184.817 464.674 -227.534 482.355C-272.629 501.002 -300.636 505.831 -318.392 498.03C-328.792 493.498 -335.553 484.584 -339.119 470.914C-344.096 451.896 -354.126 438.226 -370.767 427.9C-385.848 418.539 -405.089 412.67 -425.445 406.578C-450.035 399.149 -477.969 390.68 -504.268 374.187C-508.651 371.438 -510.731 367.798 -510.508 363.415C-509.765 352.346 -493.272 336.596 -461.476 316.612C-433.468 299.005 -394.02 278.426 -347.365 257.031C-281.246 226.794 -205.098 197.004 -143.511 177.465C-85.9356 159.189 -54.2877 153.543 -37.1265 153.543ZM14.1342 166.767C-1.24399 166.767 -14.1706 164.761 -21.9711 158.892C-32.4462 151.017 -76.5006 158.521 -142.842 179.619C-204.281 199.158 -280.429 228.874 -346.399 259.036C-446.469 304.874 -506.942 343.951 -508.279 363.489C-508.502 366.981 -506.793 369.878 -503.079 372.181C-477.077 388.525 -449.292 396.92 -424.776 404.349C-383.619 416.83 -348.108 427.528 -336.964 470.32C-333.547 483.321 -327.232 491.715 -317.5 495.95C-281.098 511.923 -197.595 469.28 -64.3912 398.48C-43.144 387.188 6.33369 355.912 55.0685 316.24C94.517 284.221 144.515 237.566 158.927 197.375C163.533 184.523 163.31 175.236 158.259 168.922C146.001 153.469 106.032 158.075 67.3265 162.533C48.9766 164.538 30.2553 166.767 14.1342 166.767Z" fill="white" fill-opacity="0.04"/>
<path d="M-42.253 160.973C-35.4926 160.973 -30.5151 161.939 -27.6177 164.019C-13.5768 174.345 20.077 170.482 52.5421 166.767C90.3562 162.459 126.016 158.373 138.051 173.528C143.177 179.917 143.474 189.055 139.165 201.461C131.885 223.154 112.718 250.345 83.7443 279.987C59.0797 305.246 27.8033 331.619 -2.06168 352.346C-33.4124 373.668 -58.8199 388.526 -65.8032 392.537C-130.362 427.083 -177.834 451.599 -214.905 466.68C-255.319 483.098 -281.767 487.407 -298.111 480.275C-307.917 475.966 -314.381 467.645 -317.724 454.719C-322.33 437.261 -331.467 424.631 -346.697 415.048C-360.515 406.356 -378.048 400.932 -396.62 395.138C-418.982 388.229 -444.315 380.354 -468.237 365.198C-472.397 362.45 -474.329 358.958 -473.957 354.723C-471.729 326.344 -366.607 275.009 -321.512 254.282C-215.945 205.77 -88.1648 160.973 -42.253 160.973ZM4.03018 172.785C-9.93651 172.785 -21.7488 171.002 -28.8807 165.727C-49.905 150.349 -200.27 200.867 -320.621 256.214C-413.856 299.08 -470.391 336.002 -471.877 354.946C-472.174 358.438 -470.614 361.187 -467.123 363.49C-443.498 378.496 -418.313 386.297 -396.026 393.206C-358.435 404.87 -325.97 414.899 -315.718 454.199C-312.523 466.457 -306.506 474.332 -297.294 478.343C-263.12 493.276 -183.851 453.307 -66.8433 390.68C-59.86 386.668 -34.5268 371.885 -3.25032 350.637C26.5403 329.984 57.6682 303.686 82.2585 278.575C111.009 249.082 129.953 222.188 137.159 200.793C141.245 189.129 141.023 180.66 136.417 174.865C125.05 160.601 88.3503 164.836 52.765 168.922C35.901 170.779 18.7398 172.785 4.03018 172.785Z" fill="white" fill-opacity="0.04"/>
<path d="M-47.8238 168.253C-41.8062 168.253 -37.2745 169.145 -34.6743 171.002C-21.822 180.14 8.56299 176.722 37.9079 173.379C72.3788 169.442 104.993 165.801 116.062 179.62C120.742 185.414 121.114 193.661 117.251 204.878C111.01 225.011 93.7003 251.459 68.59 279.244C45.2627 305.097 17.1064 329.984 -8.67249 347.443C-26.1308 358.809 -42.252 368.616 -55.1786 376.565C-60.2303 379.611 -64.5392 382.285 -68.1795 384.588C-115.8 410.293 -164.98 436.146 -202.2 451.004C-238.528 465.491 -262.524 469.131 -277.605 462.593C-286.892 458.582 -292.984 450.707 -296.178 438.598C-305.316 403.829 -334.215 394.617 -367.72 383.919C-387.853 377.53 -410.66 370.25 -432.13 356.506C-440.525 350.563 -437.331 342.242 -433.096 336.299C-411.106 305.097 -310.368 256.065 -230.802 223.6C-158.814 194.032 -80.6603 168.253 -47.8238 168.253ZM-6.29519 178.877C-18.8503 178.877 -29.1768 177.242 -35.7887 172.562C-49.9039 162.681 -129.841 184.3 -230.134 225.234C-277.085 244.401 -322.254 265.426 -357.245 284.37C-396.545 305.691 -422.25 323.967 -431.61 337.191C-437.034 344.917 -436.885 350.637 -431.165 354.649C-409.992 368.244 -387.259 375.45 -367.275 381.839C-333.249 392.686 -303.83 402.046 -294.469 437.855C-291.424 449.37 -285.703 456.799 -277.011 460.588C-247.22 473.514 -183.702 444.541 -69.2938 382.731C-65.6536 380.502 -61.3447 377.828 -56.2929 374.707C-43.3663 366.833 -27.3195 357.026 -9.86115 345.66C15.7692 328.276 43.8512 303.462 67.0299 277.758C91.9916 250.122 109.079 223.971 115.245 204.136C118.885 193.661 118.588 186.009 114.427 180.734C104.027 167.733 70.4473 171.522 37.9822 175.236C22.2325 177.094 6.78001 178.877 -6.29519 178.877Z" fill="white" fill-opacity="0.04"/>
<path d="M-53.0249 175.608C-48.0474 175.608 -44.0357 176.276 -41.6584 177.911C-29.9947 185.86 -2.95285 182.814 23.2718 179.917C53.1368 176.574 83.9675 173.156 94.071 185.637C98.2313 190.837 98.6771 198.192 95.334 208.147C84.4132 247.299 31.6667 311.337 -15.3594 342.465C-23.2343 347.294 -30.6633 351.826 -37.9438 356.209C-51.2419 364.232 -62.757 371.141 -70.6318 376.49L-70.7061 376.565C-126.276 406.875 -161.787 424.408 -189.572 435.18C-221.814 447.661 -243.358 450.707 -257.251 444.764C-266.091 440.975 -271.812 433.62 -274.783 422.254C-283.029 390.828 -308.957 382.285 -338.896 372.404C-356.726 366.535 -377.007 359.849 -396.026 347.443C-402.341 342.614 -402.489 335.928 -396.397 327.458C-387.408 314.829 -364.006 297.891 -328.718 278.426C-297.516 261.265 -257.399 242.247 -215.648 225.011C-174.862 208.147 -135.339 194.106 -104.36 185.34C-87.1987 180.511 -66.4715 175.608 -53.0249 175.608ZM-16.3995 184.894C-27.5431 184.894 -36.8295 183.483 -42.6985 179.471C-49.1618 175.162 -70.929 177.911 -103.988 187.197C-134.968 195.964 -174.416 210.004 -215.053 226.794C-285.258 255.768 -374.556 299.822 -395.06 328.573C-400.483 336.15 -400.483 341.871 -395.06 346.031C-376.264 358.289 -356.132 364.901 -338.376 370.77C-307.917 380.799 -281.544 389.491 -273.074 421.882C-270.251 432.654 -264.828 439.638 -256.582 443.204C-228.426 455.313 -167.433 427.38 -71.5976 375.153C-63.6485 369.804 -52.2077 362.821 -38.8353 354.797C-31.6291 350.414 -24.1257 345.882 -16.3252 341.128C30.3295 310.074 82.7788 246.556 93.551 207.701C96.7455 198.341 96.4483 191.506 92.6595 186.826C83.2246 175.088 52.8396 178.505 23.4947 181.774C9.23085 183.334 -4.66154 184.894 -16.3995 184.894Z" fill="white" fill-opacity="0.04"/>
<path d="M-58.4488 182.963C-54.2142 182.963 -50.7968 183.557 -48.7167 184.894C-38.3159 191.655 -14.4686 189.055 8.63588 186.529C35.3806 183.557 63.0168 180.511 72.0803 191.729C75.7948 196.335 76.2406 202.798 73.4175 211.565C69.3315 228.652 56.182 253.39 38.2779 277.609C19.2595 303.388 -2.73063 325.23 -22.0463 337.562L-27.7666 340.831C-45.8193 351.157 -62.9062 360.964 -73.0841 368.467L-73.1584 368.541C-167.433 420.619 -213.345 437.037 -236.821 427.008C-245.142 423.442 -250.565 416.608 -253.388 405.984C-260.817 377.976 -283.624 370.101 -310.146 360.964C-325.747 355.615 -343.429 349.523 -360.07 338.453L-360.144 338.379C-365.939 333.55 -365.864 326.938 -359.847 318.618C-340.457 291.873 -264.903 253.539 -200.642 226.646C-165.279 211.862 -130.808 199.381 -103.692 191.58C-88.5366 187.346 -70.261 182.963 -58.4488 182.963ZM-26.5037 190.912C-36.2358 190.912 -44.3335 189.723 -49.6825 186.306C-61.2718 179.025 -124.568 196.632 -200.121 228.354C-236.524 243.584 -271.589 260.448 -298.854 275.752C-329.611 293.062 -350.338 308.291 -358.658 319.807C-364.081 327.384 -364.304 333.03 -359.253 337.265C-342.834 348.111 -325.227 354.203 -309.701 359.552C-282.733 368.838 -259.48 376.788 -251.902 405.687C-249.228 415.79 -244.102 422.254 -236.301 425.597C-209.779 436.889 -152.278 410.441 -74.1241 367.204C-63.872 359.626 -46.7851 349.82 -28.6581 339.494L-23.012 336.225C-3.91928 324.041 17.9222 302.274 36.7921 276.643C54.5476 252.573 67.6228 228.057 71.6345 211.119C74.309 202.873 74.0119 196.929 70.6688 192.769C62.1253 182.294 34.9348 185.266 8.71017 188.163C-3.84499 189.575 -16.103 190.912 -26.5037 190.912Z" fill="white" fill-opacity="0.04"/>
<path d="M-63.9445 190.243C-60.3042 190.243 -57.5554 190.763 -55.7725 191.803C-46.5604 197.449 -25.9818 195.221 -6.07187 193.066C17.5526 190.54 41.9943 187.866 50.092 197.821C53.3608 201.833 53.8066 207.404 51.5036 214.908C45.7089 245.516 8.71202 309.851 -28.6563 332.733C-46.5604 342.094 -64.9102 351.974 -75.4595 360.592L-75.5338 360.666C-152.573 403.978 -194.696 418.613 -216.241 409.55C-224.116 406.207 -229.242 399.818 -231.916 389.863C-238.454 365.198 -258.289 358.066 -281.245 349.746C-294.618 344.917 -309.773 339.419 -323.963 329.761L-324.037 329.687C-329.386 324.784 -329.089 318.172 -323.071 310C-305.093 285.558 -240.237 251.83 -185.559 228.503C-139.573 208.742 -86.1574 190.243 -63.9445 190.243ZM-36.6054 196.929C-44.926 196.929 -51.9093 195.964 -56.5154 193.14C-66.9161 187.049 -121 202.501 -185.039 229.84C-239.568 253.093 -304.201 286.598 -321.957 310.817C-327.454 318.321 -327.9 324.115 -323.145 328.424C-309.104 337.933 -294.098 343.357 -280.8 348.186C-257.398 356.655 -237.265 364.009 -230.505 389.417C-227.979 398.852 -223.15 404.944 -215.721 408.064C-194.622 416.905 -153.019 402.344 -76.4253 359.329C-65.7274 350.637 -47.3776 340.756 -29.4735 331.396C7.52337 308.737 44.2231 244.847 49.9435 214.536V214.462C52.1722 207.479 51.8007 202.353 48.8291 198.787C41.2514 189.5 17.2555 192.1 -5.99758 194.626C-16.844 195.815 -27.5419 196.929 -36.6054 196.929Z" fill="white" fill-opacity="0.04"/>
<path d="M-69.3694 197.598C-66.5464 197.598 -64.2434 197.969 -62.7575 198.786C-54.8084 203.244 -37.4986 201.387 -20.7832 199.678C-0.278912 197.523 20.894 195.295 28.1002 203.913C30.9233 207.256 31.369 212.084 29.586 218.325C26.2429 244.847 -3.39913 309.406 -35.3442 327.83C-48.7166 333.996 -67.5864 343.282 -77.8386 352.569L-77.9872 352.643C-138.683 387.56 -176.051 400.04 -195.59 392.017C-203.019 388.971 -207.996 382.731 -210.522 373.593C-216.168 352.346 -232.958 345.808 -252.422 338.305C-263.566 333.996 -276.121 329.093 -287.933 320.846L-288.007 320.772C-292.911 315.72 -292.391 309.034 -286.373 300.936C-279.018 291.056 -263.789 279.169 -241.056 265.648C-221.22 253.836 -196.853 241.578 -170.628 230.063C-132.591 213.347 -88.0164 197.598 -69.3694 197.598ZM-46.785 202.947C-53.6941 202.947 -59.563 202.204 -63.5004 199.975C-72.7868 195.146 -117.659 208.296 -170.182 231.326C-238.901 261.414 -274.709 287.415 -285.333 301.754C-290.831 309.183 -291.499 315.275 -287.116 319.732C-275.452 327.904 -263.491 332.51 -251.976 337.042C-232.141 344.768 -215.054 351.38 -209.185 373.296C-206.808 382.136 -202.202 387.857 -195.07 390.754C-175.977 398.629 -139.054 386.222 -78.8044 351.528C-68.4036 342.094 -49.3852 332.807 -36.0128 326.641C-4.4392 308.365 24.9057 244.401 28.1745 218.028V217.879C29.8832 212.084 29.5117 207.776 26.9858 204.73C20.2997 196.706 -0.501781 198.861 -20.6346 201.015C-29.9953 201.981 -39.0587 202.947 -46.785 202.947Z" fill="white" fill-opacity="0.04"/>
<path d="M-12.9824 204.581C-4.36465 204.581 2.69298 205.844 6.11036 209.856C8.48767 212.605 9.00771 216.542 7.67047 221.52C6.85327 244.401 -14.8397 308.514 -42.0301 322.852H-42.1044C-60.1571 329.836 -73.0094 337.116 -80.2899 344.471L-80.4385 344.545C-125.756 371.438 -157.478 381.542 -174.714 374.633C-181.846 371.736 -186.749 365.867 -189.052 357.249C-193.881 339.345 -207.624 333.55 -223.523 326.715C-232.363 322.927 -242.467 318.618 -251.828 311.783L-251.902 311.709C-256.359 306.434 -255.616 299.674 -249.525 291.502C-237.118 274.935 -202.127 252.573 -155.769 231.549C-136.38 222.782 -117.064 215.279 -101.463 210.45C-89.9477 206.884 -75.0896 203.17 -69.6663 205.547C-62.9059 208.816 -48.9392 207.404 -35.4182 206.067C-27.7663 205.398 -19.8914 204.581 -12.9824 204.581ZM-42.6245 321.812C-26.8748 313.492 -14.4682 288.753 -8.45065 274.786C-0.130073 255.47 5.96178 233.555 6.33323 221.445V221.297C7.59618 216.616 7.15044 213.199 5.07029 210.673C-0.724398 203.913 -18.4056 205.696 -35.4925 207.404C-49.8307 208.89 -63.3516 210.227 -70.4092 206.81C-87.199 199.381 -220.7 254.876 -248.707 292.319C-254.353 299.822 -255.171 306.063 -251.159 310.817C-241.873 317.578 -232.363 321.664 -223.151 325.601C-206.956 332.51 -192.915 338.453 -187.937 356.952C-185.709 365.198 -181.103 370.77 -174.342 373.444C-157.478 380.279 -126.127 370.176 -81.2557 343.505C-73.7523 336.15 -60.8257 328.796 -42.6245 321.812Z" fill="white" fill-opacity="0.04"/>
<path d="M112.643 311.263C114.203 311.263 115.466 311.56 116.358 312.229C118.066 313.418 118.587 315.424 117.992 318.395C115.615 329.613 92.659 368.096 63.3884 409.847C14.8021 479.086 -15.1371 507.763 -25.7607 516.9C-72.1925 556.869 -116.767 582.722 -139.351 582.796H-139.426C-149.306 582.796 -150.346 574.253 -151.461 565.189C-152.947 552.931 -154.655 539.113 -174.862 535.176C-192.172 531.833 -214.385 531.759 -233.924 531.759C-259.034 531.684 -278.795 531.684 -281.841 524.85C-282.659 522.992 -282.659 521.135 -281.916 519.352C-278.201 511.106 -256.805 504.122 -209.853 488.744C-201.459 485.995 -192.024 482.949 -181.846 479.532C-149.381 468.76 -85.4905 427.751 -23.6062 388.006C49.5703 341.128 97.1164 311.338 112.643 311.263ZM-139.351 580.568C-114.167 580.493 -64.912 547.657 -27.1722 515.192C-4.88493 496.025 27.5059 457.096 61.6054 408.584C90.7274 367.056 113.535 328.944 115.838 317.949C116.432 315.052 115.466 314.309 115.095 314.086C111.083 311.338 95.2592 317.801 68.2173 333.402C43.1813 347.814 11.3105 368.319 -22.3433 389.937C-84.3019 429.757 -148.341 470.914 -181.029 481.687C-191.206 485.03 -200.641 488.15 -209.036 490.899C-252.496 505.088 -276.492 512.963 -279.761 520.243C-280.281 521.432 -280.281 522.621 -279.687 523.958C-277.235 529.456 -256.137 529.456 -233.849 529.53C-214.162 529.604 -191.875 529.604 -174.342 533.022C-152.575 537.256 -150.718 552.634 -149.158 564.967C-147.969 574.922 -146.929 580.568 -139.351 580.568Z" fill="white" fill-opacity="0.04"/>
<path d="M98.8997 325.676C100.386 325.676 101.574 325.973 102.466 326.567C104.026 327.607 104.62 329.465 104.174 332.065C103.134 343.728 79.5098 382.36 56.4053 415.568C26.3175 459.028 -3.99317 495.728 -24.5717 513.854C-27.0233 516.009 -29.5492 518.238 -32.0751 520.318C-71.0036 553.229 -108.966 574.55 -128.802 574.699H-128.876C-137.94 574.699 -138.98 566.898 -140.094 558.652C-141.58 547.583 -143.289 534.953 -161.787 531.461C-177.685 528.416 -198.115 528.416 -216.168 528.341C-239.049 528.341 -257.176 528.267 -260.297 522.249C-261.485 520.466 -261.857 518.683 -261.262 516.9C-258.662 509.174 -237.415 501.968 -190.909 486.218C-185.411 484.361 -179.468 482.355 -173.228 480.201C-144.106 470.246 -86.3818 433.472 -30.515 397.886C38.7984 353.758 83.9672 325.676 98.8997 325.676ZM-128.876 572.619C-109.412 572.47 -71.9693 551.297 -33.4124 518.758C-30.9608 516.678 -28.4349 514.449 -25.9833 512.294C20.3742 471.434 100.386 351.529 102.02 331.842V331.768C102.466 329.167 101.574 328.573 101.277 328.35C97.3396 325.75 82.2585 331.842 56.4053 346.626C32.4836 360.295 2.39584 379.462 -29.4749 399.744C-85.416 435.403 -143.214 472.252 -172.633 482.281C-178.874 484.435 -184.743 486.367 -190.315 488.298C-234.815 503.379 -257.102 510.957 -259.405 517.718C-259.777 518.832 -259.554 520.021 -258.662 521.284L-258.588 521.432C-256.136 526.41 -236.746 526.41 -216.242 526.41C-198.115 526.41 -177.611 526.41 -161.49 529.53C-141.506 533.393 -139.648 547.285 -138.088 558.503C-136.825 567.493 -135.785 572.619 -128.876 572.619Z" fill="white" fill-opacity="0.04"/>
<path d="M85.0809 340.088C86.4924 340.088 87.681 340.385 88.4982 340.905C89.9841 341.871 90.5041 343.506 90.2069 345.734C90.5784 352.866 80.0291 376.416 49.347 421.362C28.917 451.302 -0.947968 490.527 -23.4581 510.883C-25.6868 512.889 -27.9156 514.895 -30.1443 516.826C-64.8381 546.84 -99.4577 566.452 -118.253 566.601H-118.328C-126.648 566.601 -127.688 559.543 -128.803 552.114C-130.288 542.159 -131.997 530.867 -148.787 527.747C-163.348 524.998 -181.995 524.998 -198.413 524.998C-219.14 524.998 -235.633 524.998 -238.827 519.724C-240.536 517.941 -241.205 516.232 -240.833 514.449C-239.199 507.168 -218.917 500.036 -169.96 482.801L-164.759 480.944C-138.98 471.88 -87.4968 439.341 -37.722 407.916C27.9512 366.461 70.817 340.088 85.0809 340.088ZM-118.402 564.67H-118.328C-99.9777 564.447 -65.8782 545.131 -31.4815 515.34C-29.2528 513.409 -26.9498 511.403 -24.7953 509.397C-2.43378 489.116 27.3569 450.039 47.7126 420.248C72.5257 383.994 88.7954 354.055 88.2754 345.809V345.734V345.66C88.5725 343.431 87.7553 342.837 87.4582 342.614C83.5951 340.088 69.1826 345.957 44.4438 359.924C21.7107 372.776 -6.66837 390.755 -36.7562 409.699C-86.6053 441.198 -138.163 473.737 -164.165 482.875L-169.365 484.733C-214.757 500.705 -237.564 508.728 -238.976 514.969C-239.125 515.712 -239.125 516.826 -237.416 518.535L-237.342 518.609L-237.267 518.758C-234.816 523.141 -217.134 523.141 -198.487 523.141C-181.995 523.141 -163.199 523.141 -148.49 525.89C-130.363 529.307 -128.431 541.862 -126.871 551.891C-125.682 560.063 -124.717 564.67 -118.402 564.67Z" fill="white" fill-opacity="0.04"/>
<path d="M71.3374 354.501C72.7489 354.501 73.789 354.724 74.6805 355.244C75.572 355.838 76.612 357.027 76.3892 359.404C80.4752 377.085 13.6877 474.109 -22.3434 507.837C-24.3493 509.694 -26.3551 511.477 -28.2867 513.26C-59.3403 540.896 -89.7995 558.206 -107.778 558.503H-107.852C-115.356 558.503 -116.47 552.263 -117.584 545.651C-119.07 536.81 -120.853 526.856 -135.934 524.032C-149.084 521.581 -165.948 521.655 -180.88 521.655C-199.527 521.729 -214.237 521.729 -217.506 517.123C-219.957 515.415 -220.997 513.706 -220.774 511.849C-219.957 505.46 -203.39 498.848 -156.29 481.612C-133.854 473.366 -88.7594 445.21 -45.1507 417.945C17.1051 379.165 57.6679 354.501 71.3374 354.501ZM-107.926 556.72H-107.852C-90.5424 556.423 -59.786 538.891 -29.5496 511.923C-27.618 510.14 -25.6122 508.357 -23.6063 506.5C14.3563 470.989 78.5436 374.931 74.6062 359.701L74.5319 359.552V359.404C74.6805 357.695 74.0862 357.101 73.6404 356.804C64.9484 351.38 7.0015 387.634 -44.1849 419.579C-87.868 446.844 -133.037 475.075 -155.696 483.395C-195.664 498.031 -218.248 506.574 -218.991 512.146C-219.14 513.26 -218.248 514.449 -216.317 515.786L-216.168 515.86L-216.094 516.009C-213.568 519.872 -197.67 519.872 -180.88 519.798C-165.948 519.798 -148.935 519.724 -135.637 522.175C-119.293 525.221 -117.361 536.29 -115.876 545.28C-114.538 552.634 -113.573 556.72 -107.926 556.72Z" fill="white" fill-opacity="0.04"/>
<path d="M57.6673 368.913C58.9303 368.913 59.9704 369.136 60.7133 369.582C61.5305 370.102 62.4962 371.068 62.4962 373.148C64.2049 376.862 62.3477 384.514 56.9987 395.807C52.2441 405.836 44.7407 418.688 35.3801 432.952C17.0302 460.811 -5.70279 489.71 -21.2296 504.866C-23.0126 506.574 -24.7213 508.209 -26.4299 509.843C-53.2489 534.582 -80.3651 550.183 -97.3034 550.554C-104.138 550.629 -105.253 545.131 -106.367 539.262C-107.853 531.61 -109.636 522.918 -123.008 520.467C-134.82 518.386 -149.901 518.386 -163.199 518.461C-179.692 518.535 -192.842 518.609 -196.11 514.746C-198.339 513.706 -201.088 511.997 -201.014 509.397C-200.791 504.197 -189.35 498.402 -147.821 482.43C-128.728 475.075 -90.0972 451.302 -52.8032 428.272C4.54936 392.835 44.4436 368.913 57.6673 368.913ZM-97.3777 548.771H-97.3034C-84.3768 548.474 -59.1922 537.776 -27.5443 508.506C-25.8356 506.871 -24.1269 505.237 -22.3439 503.603C-6.89144 488.522 15.693 459.697 33.9685 431.912C53.9528 401.527 63.9821 379.76 60.8618 373.594L60.7876 373.371V373.148C60.8618 371.662 60.2675 371.142 59.8961 370.919C51.3526 365.867 -3.47406 399.67 -51.9117 429.535C-90.9887 453.679 -127.986 476.412 -147.227 483.841C-181.624 497.065 -199.156 504.643 -199.305 509.323C-199.379 510.512 -197.968 511.775 -195.145 513.112L-194.922 513.186L-194.773 513.335C-192.247 516.678 -178.058 516.604 -163.125 516.604C-149.753 516.529 -134.597 516.455 -122.562 518.609C-108.001 521.21 -106.144 530.942 -104.584 538.742C-103.47 545.205 -102.504 548.771 -97.3777 548.771Z" fill="white" fill-opacity="0.04"/>
<path d="M43.9993 383.325C45.188 383.325 46.0794 383.548 46.8224 383.92C47.5653 384.365 48.4568 385.182 48.6053 386.817C51.0569 390.086 50.2397 396.549 46.0794 406.504C42.5135 415.047 36.4216 426.191 28.3982 438.672C13.9115 461.405 -6.07275 487.407 -20.0394 501.819C-21.5253 503.305 -23.0111 504.791 -24.4969 506.277C-47.0813 528.118 -70.9287 542.01 -86.7526 542.382C-92.7702 542.456 -93.8846 537.702 -95.0732 532.65C-96.6333 526.112 -98.342 518.757 -110.006 516.677C-120.481 514.894 -133.779 514.969 -145.517 515.043C-159.929 515.117 -171.37 515.191 -174.639 511.997C-179.468 510.437 -181.622 508.802 -181.696 506.648C-181.919 501.968 -171.221 495.95 -139.276 482.949C-123.601 476.56 -93.1417 458.062 -60.8994 438.449C-14.2447 410.218 30.1069 383.325 43.9993 383.325ZM-86.9012 540.822C-86.8269 540.822 -86.8269 540.822 -86.7526 540.822C-71.3001 540.376 -47.8242 526.707 -25.537 505.162C-24.1254 503.751 -22.6396 502.265 -21.1538 500.779C-7.26141 486.367 12.5743 460.513 27.061 437.855C44.1479 411.036 51.5027 392.686 47.1938 387.634L47.0452 387.411V387.114C47.0452 385.925 46.4509 385.48 46.0794 385.257C37.6103 380.576 -14.3933 412.15 -60.1565 439.935C-92.473 459.548 -122.932 478.046 -138.756 484.509C-160.375 493.35 -180.359 502.116 -180.211 506.648C-180.136 507.985 -178.056 509.323 -174.044 510.585L-173.822 510.66L-173.673 510.808C-171.147 513.631 -158.666 513.557 -145.591 513.483C-133.779 513.409 -120.406 513.334 -109.783 515.117C-97.0791 517.346 -95.1475 525.592 -93.5874 532.278C-92.3245 537.776 -91.3587 540.822 -86.9012 540.822Z" fill="white" fill-opacity="0.04"/>
<path d="M30.2538 397.664C31.2938 397.664 32.1853 397.812 32.854 398.184C33.8197 398.629 34.4141 399.447 34.6369 400.487C36.0485 401.675 36.8657 403.458 37.0885 405.836C38.7229 424.26 1.5032 476.189 -18.9268 498.848L-22.567 502.785C-41.2883 522.027 -61.3469 533.839 -76.2051 534.359C-81.4797 534.433 -82.5941 530.421 -83.7827 526.261C-85.3428 520.912 -87.0515 514.746 -97.0808 513.112C-106.144 511.626 -117.734 511.774 -127.912 511.849C-140.244 511.997 -150.124 512.072 -153.245 509.546C-159.782 508.283 -162.828 506.648 -163.125 504.271C-163.497 501.225 -159.782 496.619 -130.883 483.915C-118.699 478.566 -95.0749 464.451 -70.1132 449.593C-27.396 423.963 16.6585 397.664 30.2538 397.664ZM-76.4279 532.873C-76.3536 532.873 -76.3536 532.873 -76.2794 532.873C-70.8561 532.724 -50.9462 529.901 -23.6071 501.745L-19.9669 497.808C0.314545 475.372 37.3114 423.963 35.677 405.984C35.4541 403.904 34.7855 402.418 33.5226 401.452L33.2997 401.304V401.007C33.2254 400.264 32.854 399.818 32.2596 399.521C31.7396 399.224 30.9967 399.149 30.1052 399.149C17.1043 399.149 -30.5905 427.603 -69.3703 450.782C-94.4063 465.714 -118.105 479.829 -130.363 485.253C-144.107 491.27 -162.308 499.814 -161.788 504.197C-161.64 505.757 -158.594 507.168 -152.873 508.283H-152.65L-152.502 508.431C-149.902 510.734 -139.204 510.66 -127.912 510.511C-117.659 510.437 -106.07 510.289 -96.8579 511.774C-85.9372 513.632 -84.0056 520.466 -82.4455 525.964C-81.1825 530.347 -80.2911 532.873 -76.4279 532.873Z" fill="white" fill-opacity="0.04"/>
<path d="M16.5859 412.076C17.5517 412.076 18.2946 412.225 18.9632 412.447C19.8547 412.819 20.4491 413.413 20.7462 414.156C22.8264 415.27 24.1636 417.128 24.6836 419.579C26.1695 426.637 21.4148 439.044 10.5684 456.576C0.0190716 473.589 -12.759 489.636 -17.7365 495.727C-18.7022 496.916 -19.668 498.03 -20.6338 499.145C-35.3434 515.712 -51.7617 525.592 -65.6541 526.187C-70.1858 526.261 -71.3002 523.066 -72.4888 519.649C-74.0489 515.415 -75.7576 510.586 -84.0782 509.248C-91.8045 508.06 -101.611 508.208 -110.229 508.357C-120.555 508.505 -128.727 508.654 -131.847 506.723C-140.762 505.831 -144.922 504.271 -145.368 501.522C-145.814 498.996 -143.585 494.687 -122.338 484.361C-113.943 480.275 -98.7135 471.36 -81.1066 461.108C-35.2691 434.363 4.03078 412.076 16.5859 412.076ZM-65.9512 524.924C-65.8769 524.924 -65.8769 524.924 -65.8026 524.924C-52.2817 524.329 -36.1606 514.672 -21.6739 498.328C-20.7824 497.213 -19.8166 496.099 -18.7765 494.91C-13.799 488.818 -1.09529 472.772 9.45401 455.908C20.0033 438.969 24.8322 426.488 23.4207 419.876C22.975 417.648 21.7863 416.088 19.929 415.196L19.7062 415.048L19.6319 414.75C19.4833 414.23 19.1118 413.859 18.5175 413.562C9.30543 409.773 -42.6239 440.158 -80.5122 462.297C-98.1192 472.623 -113.349 481.464 -121.818 485.624C-137.196 493.053 -144.7 498.402 -144.18 501.374C-143.808 503.379 -139.574 504.717 -131.624 505.534H-131.476L-131.327 505.608C-128.727 507.391 -119.812 507.243 -110.303 507.094C-101.611 506.945 -91.7302 506.797 -83.9296 507.985C-74.8661 509.397 -72.9346 514.82 -71.3745 519.203C-70.1858 522.546 -69.3686 524.924 -65.9512 524.924Z" fill="white" fill-opacity="0.04"/>
<path d="M2.99063 426.488C3.73354 426.488 4.32787 426.563 4.84791 426.711C5.66511 426.934 6.25943 427.38 6.70518 427.974C9.7511 429.014 11.8312 430.946 12.7227 433.695C16.7344 445.73 -1.39253 471.286 -13.4277 488.224C-14.6163 489.859 -15.6564 491.419 -16.6964 492.83C-17.4394 493.796 -18.108 494.762 -18.8509 495.728C-29.5488 509.546 -42.4754 517.569 -55.2534 518.163C-58.968 518.238 -60.1566 515.86 -61.3453 513.26C-62.9054 510.14 -64.6141 506.574 -71.226 505.682C-77.615 504.791 -85.6384 505.014 -92.7703 505.162C-100.719 505.311 -107.628 505.46 -110.526 504.197C-122.041 503.974 -128.058 502.339 -128.876 499.145C-129.693 495.802 -124.864 491.27 -114.017 485.252C-110.526 483.321 -105.251 480.275 -99.085 476.709C-68.2543 458.879 -12.1647 426.488 2.99063 426.488ZM-55.4763 516.975C-55.402 516.975 -55.402 516.975 -55.3277 516.975C-42.8468 516.38 -30.2174 508.506 -19.7424 494.985C-19.0738 494.019 -18.3308 493.053 -17.6622 492.087C-16.6964 490.676 -15.5821 489.116 -14.3934 487.481C-3.2498 471.806 15.4715 445.507 11.6084 433.992C10.7912 431.54 9.0082 429.906 6.11085 428.94L5.88798 428.866L5.81369 428.643C5.59082 428.197 5.14507 427.9 4.55074 427.751C4.105 427.603 3.51067 427.528 2.84205 427.528C-11.8675 427.528 -69.963 461.108 -98.565 477.601C-104.657 481.166 -109.931 484.212 -113.497 486.144C-126.201 493.202 -128.281 496.916 -127.836 498.773C-127.39 500.556 -124.047 502.711 -110.452 503.008H-110.303L-110.229 503.082C-107.554 504.345 -100.422 504.122 -92.8446 503.974C-85.7127 503.825 -77.615 503.602 -71.1517 504.494C-63.9454 505.534 -61.9396 509.546 -60.3795 512.74C-59.1165 515.192 -58.2251 516.975 -55.4763 516.975Z" fill="white" fill-opacity="0.04"/>
<path d="M-10.5304 440.901C-9.0446 440.901 -7.93023 441.198 -7.26162 441.792C-2.58129 442.684 0.464633 444.69 1.87616 447.736C5.36783 455.611 -2.80416 468.76 -9.93609 480.424C-12.0162 483.767 -13.9478 486.961 -15.5079 489.784C-16.0279 490.602 -16.4737 491.419 -16.8451 492.162C-23.6056 503.38 -32.9663 509.397 -44.7042 510.066C-47.6016 510.14 -48.7902 508.58 -50.1275 506.797C-51.6133 504.791 -53.322 502.488 -58.2994 501.894C-63.3512 501.374 -69.666 501.597 -75.3121 501.745C-81.2553 501.968 -86.4557 502.117 -89.2045 501.448C-99.4566 501.968 -112.012 501.448 -113.646 496.545C-114.538 493.796 -111.863 490.23 -105.548 485.921C-97.1536 480.201 -74.1234 467.126 -53.2477 456.874C-37.5723 449.222 -18.7024 440.901 -10.5304 440.901ZM-45.0014 509.026C-44.9271 509.026 -44.8528 509.026 -44.7785 509.026C-33.412 508.357 -24.3485 502.488 -17.8109 491.567C-17.4395 490.824 -16.9194 490.007 -16.4737 489.19C-14.9136 486.367 -12.982 483.173 -10.9019 479.829C-4.21569 468.983 4.17918 455.462 0.910379 448.107C-0.352566 445.284 -3.10133 443.501 -7.63307 442.684H-7.78165L-7.85594 442.61C-14.765 435.924 -86.2328 474.035 -104.954 486.813C-110.749 490.75 -113.423 494.019 -112.68 496.322C-111.566 499.665 -102.948 501.225 -89.1302 500.557H-89.0559H-88.9816C-86.3071 501.225 -80.9582 501.077 -75.3121 500.854C-69.666 500.631 -63.2769 500.482 -58.1509 501.002C-52.7276 501.597 -50.7961 504.197 -49.3103 506.277C-48.0473 507.837 -47.1558 509.026 -45.0014 509.026Z" fill="white" fill-opacity="0.04"/>
<path d="M278.461 -680C298.445 -680 317.761 -679.555 336.334 -678.589C437.964 -673.537 512.329 -654.964 557.275 -623.465C603.261 -591.223 617.153 -545.98 598.506 -488.998C541.897 -315.975 486.327 -208.773 449.553 -137.751C432.986 -105.806 419.911 -80.6215 412.853 -60.7858L411.813 -61.1573L412.853 -60.7858C401.041 -27.8007 350.152 16.0309 280.17 53.5478C204.839 93.962 124.085 118.404 58.7831 120.632C-31.3317 123.753 -129.247 149.68 -195.515 170.927C-272.703 195.666 -352.714 228.8 -409.472 259.631C-446.172 279.541 -483.689 280.209 -518.011 261.562C-577.518 229.32 -619.79 143.588 -628.333 37.7238C-632.419 -12.4225 -636.579 -64.2775 -637.545 -114.35C-638.585 -169.696 -635.391 -216.797 -627.813 -258.325C-618.75 -307.952 -603.371 -351.189 -580.787 -390.414C-555.528 -434.32 -521.949 -472.357 -478.043 -506.754C-403.009 -565.518 -195.96 -628.74 25.5751 -660.388C116.061 -673.388 202.313 -680 278.461 -680ZM-466.676 272.854C-448.178 272.854 -429.308 267.803 -410.735 257.699C-353.828 226.794 -273.669 193.586 -196.332 168.847C-129.916 147.6 -31.7775 121.598 58.5602 118.478C123.565 116.249 203.947 91.8819 278.981 51.6163C348.518 14.3222 398.961 -28.9893 410.625 -61.5287C417.757 -81.513 430.906 -106.772 447.473 -138.791C484.247 -209.665 539.742 -316.792 596.352 -489.667C614.702 -545.608 601.107 -590.034 555.938 -621.608C511.289 -652.884 437.369 -671.308 336.111 -676.36C247.333 -680.818 139.983 -674.503 25.6494 -658.159C-195.515 -626.511 -402.192 -563.512 -476.928 -504.971C-520.611 -470.723 -554.042 -432.909 -579.153 -389.3C-601.663 -350.223 -616.967 -307.283 -625.956 -257.88C-642.82 -165.313 -634.499 -62.1231 -626.476 37.5753C-618.007 142.623 -576.107 227.76 -517.268 259.631C-500.924 268.397 -483.986 272.854 -466.676 272.854Z" fill="white" fill-opacity="0.04"/>
<path d="M266.055 -642.483C281.879 -642.483 297.183 -642.186 311.967 -641.518C405.202 -637.432 473.401 -620.939 514.632 -592.486C556.384 -563.735 569.236 -523.247 552.892 -472.135C504.752 -317.461 454.531 -214.791 421.249 -146.889C405.648 -115.018 393.315 -89.8336 386.258 -69.7008C374.817 -37.2357 327.642 4.96149 263.232 40.3982C194.216 78.3609 119.182 101.763 57.2235 104.511C-25.908 107.78 -116.097 131.107 -177.09 150.2C-248.781 172.562 -320.471 201.312 -373.886 229.023C-407.615 246.555 -442.011 246.555 -473.51 229.171C-528.189 198.935 -567.043 120.038 -574.917 23.2371C-582.421 -68.0664 -590.221 -162.49 -574.323 -249.262C-565.928 -294.951 -551.739 -334.771 -530.937 -371.099C-507.684 -411.587 -476.854 -446.727 -436.588 -478.524C-367.497 -533.276 -177.09 -592.783 26.69 -623.094C112.645 -635.946 194.365 -642.483 266.055 -642.483ZM-424.627 240.092C-408.134 240.092 -391.345 235.783 -374.778 227.166C-321.288 199.306 -249.449 170.556 -177.61 148.194C-116.543 129.102 -26.1308 105.7 57.2235 102.431C118.811 99.6824 193.547 76.355 262.266 38.541C326.305 3.32709 373.034 -38.4243 384.326 -70.4437C391.458 -90.6508 403.79 -115.91 419.466 -147.855C452.674 -215.682 502.894 -318.278 550.961 -472.803C566.933 -522.949 554.378 -562.621 513.444 -590.777C472.51 -619.008 404.682 -635.426 311.818 -639.438C230.247 -643.004 131.737 -636.615 26.9128 -621.013C-176.496 -590.703 -366.532 -531.419 -435.251 -476.741C-475.293 -445.093 -505.976 -410.102 -529.08 -369.91C-549.807 -333.879 -563.922 -294.208 -572.243 -248.742C-588.141 -162.267 -580.341 -67.9921 -572.837 23.1628C-565.037 119.295 -526.554 197.523 -472.47 227.463C-457.092 235.858 -440.971 240.092 -424.627 240.092Z" fill="white" fill-opacity="0.04"/>
<path d="M253.5 -605.041C265.238 -605.041 276.604 -604.818 287.674 -604.447C372.514 -601.401 434.547 -586.914 472.064 -561.506C509.506 -536.173 521.393 -500.439 507.426 -455.27C467.532 -317.981 424.146 -223.632 392.572 -154.69C378.234 -123.413 366.868 -98.7486 359.959 -78.69C348.666 -46.2992 306.321 -6.70215 246.591 27.1745C183.964 62.7598 114.502 85.0471 56.0347 88.3902C-81.9977 94.6306 -255.17 157.629 -337.93 198.415C-368.686 213.57 -400.037 212.976 -428.713 196.781C-478.562 168.55 -513.999 96.4879 -521.205 8.75035C-527.817 -70.1465 -535.395 -159.593 -520.463 -240.124C-512.736 -281.876 -499.735 -318.352 -480.643 -351.635C-459.47 -388.706 -431.314 -420.948 -394.688 -450.144C-363.115 -475.7 -304.945 -502.371 -226.494 -527.333C-151.088 -551.254 -60.7506 -572.056 27.9527 -585.874C109.153 -598.503 186.341 -605.041 253.5 -605.041ZM-382.504 207.404C-368.018 207.404 -353.382 203.838 -338.821 196.632C-255.913 155.772 -82.4435 92.6248 55.8861 86.3843C114.056 83.0412 183.221 60.8283 245.625 25.4658C304.983 -8.18796 347.032 -47.4135 358.101 -79.3586C365.085 -99.4914 376.451 -124.23 390.789 -155.581C422.437 -224.449 465.675 -318.65 505.569 -455.865C519.238 -500.142 507.649 -535.133 471.023 -559.946C433.804 -585.131 372.068 -599.469 287.599 -602.515C213.234 -605.189 123.491 -598.8 28.1756 -583.942C-60.3791 -570.124 -150.643 -549.397 -225.974 -525.475C-304.202 -500.588 -362.149 -474.066 -393.574 -448.659C-430.051 -419.536 -457.984 -387.517 -479.083 -350.669C-498.027 -317.609 -510.953 -281.355 -518.605 -239.827C-533.463 -159.518 -525.96 -70.2209 -519.348 8.5275C-512.216 95.6707 -477.151 167.064 -427.822 194.998C-413.261 203.318 -397.957 207.404 -382.504 207.404Z" fill="white" fill-opacity="0.04"/>
<path d="M240.796 -567.747C248.522 -567.747 256.1 -567.673 263.454 -567.45C339.9 -565.37 395.766 -553.037 429.569 -530.602C462.703 -508.76 473.549 -477.706 461.885 -438.407C429.866 -317.164 391.086 -226.529 362.781 -160.336C350.598 -131.808 340.048 -107.218 333.436 -87.605C322.516 -55.7343 283.81 -17.6973 229.726 14.0249C173.34 47.1586 109.524 68.4058 54.5485 72.2689C-0.129578 75.092 -67.3629 87.7214 -139.796 108.671C-197.966 125.535 -257.176 147.08 -302.196 167.807C-329.981 180.585 -358.286 179.396 -384.065 164.315C-429.085 138.016 -461.104 72.8633 -467.642 -5.81076C-474.774 -88.4222 -479.677 -162.342 -466.751 -231.061C-459.693 -268.875 -447.881 -301.934 -430.571 -332.245C-411.404 -365.899 -385.996 -395.244 -353.011 -421.84C-324.261 -445.613 -271.588 -470.426 -200.566 -493.679C-132.664 -515.966 -51.0931 -535.43 29.141 -548.58C105.735 -561.209 178.317 -567.747 240.796 -567.747ZM-340.307 174.79C-327.901 174.79 -315.346 171.893 -302.865 166.173C-257.696 145.371 -198.412 123.752 -140.168 106.888C-67.5857 85.8642 -0.203857 73.309 54.5485 70.4117C109.227 66.5485 172.745 45.3757 228.909 12.3905C282.621 -19.1831 321.03 -56.7743 331.802 -88.2736C338.488 -107.886 349.037 -132.551 361.221 -161.079C389.452 -227.198 428.232 -317.758 460.177 -438.927C471.543 -477.409 460.92 -507.72 428.603 -529.116C395.024 -551.254 339.454 -563.587 263.38 -565.593C196.147 -567.376 115.244 -560.912 29.4381 -546.797C-50.7217 -533.648 -132.219 -514.183 -200.046 -491.97C-270.846 -468.792 -323.369 -444.053 -351.897 -420.428C-384.733 -393.906 -409.918 -364.784 -429.011 -331.279C-446.172 -301.191 -457.91 -268.281 -464.968 -230.689C-477.82 -162.193 -472.917 -88.348 -465.785 -5.88507C-459.322 72.1946 -427.599 136.902 -383.099 162.83C-369.355 170.779 -354.943 174.79 -340.307 174.79Z" fill="white" fill-opacity="0.04"/>
<path d="M227.943 -530.527C231.806 -530.527 235.595 -530.527 239.31 -530.453C307.286 -529.413 357.061 -519.086 387.149 -499.771C415.899 -481.347 425.78 -454.973 416.419 -421.542C391.977 -314.712 357.284 -226.603 331.876 -162.267C321.847 -136.785 313.155 -114.721 307.063 -96.5941C296.365 -64.7233 262.117 -29.2123 213.011 0.875519C162.939 31.5576 104.695 51.7648 53.2853 56.2222C-48.6418 62.3884 -183.851 102.58 -266.314 137.348C-291.127 147.749 -316.386 145.966 -339.416 131.999C-379.533 107.706 -408.135 49.3131 -414.004 -20.2231C-420.245 -90.6509 -424.925 -159.073 -413.038 -221.923C-406.649 -255.799 -395.952 -285.516 -380.499 -312.781C-363.338 -343.017 -340.679 -369.465 -311.334 -393.535C-285.407 -415.451 -238.158 -438.481 -174.639 -460.099C-114.166 -480.678 -41.3612 -498.879 30.4037 -511.434C102.243 -523.99 170.145 -530.527 227.943 -530.527ZM-298.036 142.251C-287.71 142.251 -277.309 140.097 -266.908 135.713C-184.297 100.945 -48.9389 60.6796 53.2111 54.5135C104.397 50.056 162.344 29.9975 212.193 -0.536026C260.928 -30.401 294.954 -65.6149 305.503 -97.0399C311.595 -115.241 320.287 -137.231 330.316 -162.787C355.649 -227.049 390.417 -315.158 414.785 -421.84C423.923 -454.528 414.265 -480.232 386.257 -498.211C356.392 -517.378 306.914 -527.556 239.235 -528.67C179.208 -529.561 107.146 -523.024 30.7752 -509.726C-40.9155 -497.171 -113.646 -478.969 -174.045 -458.465C-237.341 -436.921 -284.441 -414.039 -310.22 -392.198C-339.416 -368.276 -361.926 -341.977 -379.013 -311.963C-394.391 -284.921 -404.941 -255.354 -411.33 -221.626C-423.216 -158.998 -418.536 -90.7251 -412.296 -20.446C-406.501 48.6445 -378.27 106.443 -338.525 130.513C-325.524 138.314 -311.929 142.251 -298.036 142.251Z" fill="white" fill-opacity="0.04"/>
<path d="M214.72 -493.53C214.868 -493.53 215.017 -493.53 215.166 -493.53C274.747 -493.456 318.356 -485.21 344.803 -468.94C369.245 -453.859 378.085 -432.24 371.028 -404.678C354.238 -310.403 322.442 -222.368 299.263 -158.107C291.982 -137.974 285.742 -120.59 280.764 -105.509C270.438 -74.1581 239.682 -40.2072 196.37 -12.2738C152.464 16.031 99.8661 35.0495 52.0228 40.1013C7.96829 43.2215 -43.9611 52.3593 -102.354 67.2174C-146.26 78.4354 -192.914 92.7735 -230.357 106.666C-252.273 114.764 -274.486 112.238 -294.618 99.4596C-329.832 77.0981 -354.943 25.6145 -360.143 -34.8582C-365.566 -93.6966 -370.024 -155.952 -359.029 -212.933C-353.234 -242.873 -343.799 -269.246 -330.13 -293.465C-314.974 -320.284 -295.138 -343.834 -269.36 -365.304C-223.671 -405.198 -102.502 -449.03 31.9642 -474.363C98.6775 -486.844 161.899 -493.53 214.72 -493.53ZM-255.69 109.786C-247.518 109.786 -239.197 108.3 -230.951 105.254C-193.434 91.362 -146.705 76.9495 -102.725 65.7316C-44.2582 50.7991 7.74539 41.6613 51.8742 38.5411C99.4203 33.5636 151.795 14.5452 195.478 -13.611C238.419 -41.3215 268.952 -74.9753 279.204 -106.029C284.182 -121.11 290.422 -138.494 297.703 -158.627C320.881 -222.814 352.604 -310.775 369.393 -404.975C376.302 -431.869 367.685 -452.967 343.912 -467.603C317.761 -483.724 274.45 -491.896 215.091 -491.97C214.943 -491.97 214.794 -491.97 214.646 -491.97C161.899 -491.97 98.7517 -485.358 32.1128 -472.803C-102.131 -447.544 -223.002 -403.861 -268.542 -364.115C-294.173 -342.72 -313.86 -319.392 -328.941 -292.722C-342.536 -268.652 -351.897 -242.501 -357.617 -212.711C-368.538 -155.952 -364.155 -93.8452 -358.732 -35.0811C-353.605 24.8716 -328.792 75.9095 -293.95 98.0481C-281.692 105.849 -268.765 109.786 -255.69 109.786Z" fill="white" fill-opacity="0.04"/>
<path d="M201.422 -456.831C247.334 -456.831 281.359 -450.59 302.458 -438.332C322.59 -426.668 330.317 -409.656 325.488 -387.889C317.019 -304.014 286.411 -211.596 264.049 -144.14C260.558 -133.517 257.215 -123.562 254.317 -114.572C244.139 -83.2217 217.617 -51.5738 179.655 -25.572C141.321 0.652664 95.5576 18.1853 50.7602 23.8314C19.7809 26.4316 -66.0994 36.758 -194.474 75.9836C-213.492 81.7783 -232.734 78.5838 -250.118 66.8459C-280.429 46.3416 -301.973 1.76705 -306.43 -49.4194C-311.111 -97.4113 -315.197 -152.832 -305.242 -203.87C-294.692 -257.805 -269.285 -301.34 -227.682 -336.999C-207.401 -355.349 -171.072 -374.739 -122.486 -393.089C-76.2029 -410.547 -22.342 -425.851 33.3018 -437.292C90.7287 -449.179 145.332 -455.865 191.096 -456.756C194.587 -456.756 198.005 -456.831 201.422 -456.831ZM-213.121 77.4694C-207.103 77.4694 -201.012 76.5779 -194.994 74.7207C-174.49 68.4059 -132.738 56.2223 -84.0778 45.0786C-32.9656 33.3407 12.2775 25.763 50.463 22.5685C95.0375 16.9224 140.578 -0.535957 178.763 -26.6121C216.503 -52.4653 242.876 -83.7418 252.906 -114.87C255.803 -123.859 259.146 -133.888 262.638 -144.512C284.999 -211.968 315.607 -304.311 324.002 -388.037V-388.111C328.682 -409.21 321.179 -425.703 301.64 -437.069C279.502 -449.921 241.242 -456.236 191.021 -455.27C145.332 -454.379 90.8772 -447.693 33.4504 -435.806C-22.1192 -424.365 -75.9058 -409.062 -122.115 -391.603C-170.552 -373.328 -206.732 -354.012 -226.865 -335.811C-268.245 -300.374 -293.504 -257.137 -303.979 -203.499C-313.934 -152.609 -309.848 -97.337 -305.167 -49.4194C-300.71 1.39559 -279.388 45.5986 -249.449 65.8058C-237.934 73.532 -225.602 77.4694 -213.121 77.4694Z" fill="white" fill-opacity="0.04"/>
<path d="M186.638 -420.577C219.252 -420.577 244.436 -416.268 260.186 -407.873C276.01 -399.478 282.622 -387.072 279.947 -371.025C282.325 -295.768 244.139 -174.971 227.87 -123.413C207.365 -59.0031 133.966 -5.06786 49.3486 7.78446C-17.9589 14.6192 -97.2273 32.0033 -144.625 42.404C-149.677 43.5184 -154.357 44.5585 -158.74 45.4499C-174.936 48.9416 -191.205 45.0785 -205.841 34.3063C-231.099 15.7336 -249.078 -21.9319 -252.867 -63.9062C-257.25 -106.549 -260.147 -151.941 -251.529 -194.807C-242.317 -240.57 -220.847 -277.79 -186.005 -308.695C-151.682 -341.308 -65.0593 -377.265 34.639 -400.37C82.6309 -411.513 128.394 -418.348 166.951 -420.131C173.86 -420.428 180.398 -420.577 186.638 -420.577ZM-170.255 45.4499C-166.541 45.4499 -162.752 45.0785 -158.963 44.2613C-154.58 43.2955 -149.899 42.2554 -144.848 41.2154C-97.4501 30.8146 -18.1075 13.4305 49.2 6.59578C133.372 -6.18225 206.325 -59.8202 226.681 -123.71C242.951 -175.194 281.136 -295.917 278.685 -370.95V-371.025V-371.099C281.285 -386.552 274.896 -398.512 259.592 -406.684C241.019 -416.565 209.074 -420.725 167.1 -418.719C128.543 -416.936 82.8538 -410.102 35.0105 -398.958C-64.5393 -375.928 -150.94 -340.045 -185.113 -307.58C-262.599 -239.01 -260.444 -149.638 -251.604 -63.9062C-247.889 -22.3033 -230.059 14.9906 -205.098 33.3405C-194.177 41.2896 -182.29 45.4499 -170.255 45.4499Z" fill="white" fill-opacity="0.04"/>
<path d="M171.334 -385.14C191.244 -385.14 207.291 -382.763 217.989 -377.934C229.578 -372.733 235.076 -364.71 234.407 -354.235C240.796 -333.731 239.608 -298.814 230.841 -250.376C224.452 -215.088 213.754 -172.074 201.422 -132.328C181.586 -68.5866 124.16 -22.2291 47.9371 -8.26239C21.1924 -4.84501 -6.59244 -0.833269 -33.4857 3.10415C-68.2538 8.15593 -101.09 12.9848 -123.006 14.9164C-141.43 16.4765 -159.557 7.26443 -173.97 -11.1597C-187.639 -28.6181 -196.851 -53.1341 -199.229 -78.3187C-205.692 -136.117 -201.829 -165.982 -197.743 -185.595C-189.942 -223.186 -172.41 -254.091 -144.253 -280.241C-115.503 -309.289 -46.4124 -341.234 36.0505 -363.447C88.7228 -377.785 136.195 -385.14 171.334 -385.14ZM-126.944 13.9506C-125.606 13.9506 -124.343 13.8763 -123.006 13.802C-101.165 11.7962 -68.3282 7.04156 -33.56 1.98978C-6.66673 -2.02192 21.1181 -6.10794 47.8628 -9.45103C123.639 -23.3434 180.695 -69.4038 200.382 -132.7C212.714 -172.371 223.412 -215.385 229.801 -250.599C238.567 -298.888 239.756 -333.731 233.367 -354.012V-354.086V-354.161C234.036 -364.19 228.761 -371.842 217.617 -376.819C188.124 -390.117 118.662 -384.62 36.422 -362.407C-45.818 -340.194 -114.76 -308.397 -143.362 -279.498C-171.37 -253.497 -188.754 -222.74 -196.554 -185.446C-204.28 -148.301 -201.383 -108.778 -197.966 -78.5415C-195.588 -53.5055 -186.451 -29.2124 -172.93 -11.9769C-159.854 4.88709 -143.585 13.9506 -126.944 13.9506Z" fill="white" fill-opacity="0.04"/>
</g>
</svg>
