<svg width="375" height="990" viewBox="0 0 375 990" fill="none" xmlns="http://www.w3.org/2000/svg">
<mask id="mask0_205_25300" style="mask-type:alpha" maskUnits="userSpaceOnUse" x="-1" y="0" width="390" height="990">
<rect x="-1" width="390" height="990" fill="#2E2362"/>
</mask>
<g mask="url(#mask0_205_25300)">
<rect x="-41" width="780" height="1015" fill="#121D54"/>
<path d="M-88.1265 153.543C-79.2859 153.543 -74.3084 155.029 -71.6339 157.109C-56.4043 168.624 -19.4817 164.39 16.1779 160.23C57.2608 155.475 96.0406 151.017 109.041 167.51C114.613 174.493 114.91 184.523 110.007 198.118C95.4463 238.829 45.0771 285.781 5.48003 317.949C-43.4777 357.695 -93.0297 389.045 -114.425 400.486L-114.945 399.52L-114.425 400.486C-178.91 434.809 -235.817 464.674 -278.534 482.355C-323.629 501.002 -351.636 505.831 -369.392 498.03C-379.792 493.498 -386.553 484.584 -390.119 470.914C-395.096 451.896 -405.126 438.226 -421.767 427.9C-436.848 418.539 -456.089 412.67 -476.445 406.578C-501.035 399.149 -528.969 390.68 -555.268 374.187C-559.651 371.438 -561.731 367.798 -561.508 363.415C-560.765 352.346 -544.272 336.596 -512.476 316.612C-484.468 299.005 -445.02 278.426 -398.365 257.031C-332.246 226.794 -256.098 197.004 -194.511 177.465C-136.936 159.189 -105.288 153.543 -88.1265 153.543ZM-36.8658 166.767C-52.244 166.767 -65.1706 164.761 -72.9711 158.892C-83.4462 151.017 -127.501 158.521 -193.842 179.619C-255.281 199.158 -331.429 228.874 -397.399 259.036C-497.469 304.874 -557.942 343.951 -559.279 363.489C-559.502 366.981 -557.793 369.878 -554.079 372.181C-528.077 388.525 -500.292 396.92 -475.776 404.349C-434.619 416.83 -399.108 427.528 -387.964 470.32C-384.547 483.321 -378.232 491.715 -368.5 495.95C-332.098 511.923 -248.595 469.28 -115.391 398.48C-94.144 387.188 -44.6663 355.912 4.0685 316.24C43.517 284.221 93.5147 237.566 107.927 197.375C112.533 184.523 112.31 175.236 107.259 168.922C95.0005 153.469 55.032 158.075 16.3265 162.533C-2.02335 164.538 -20.7447 166.767 -36.8658 166.767Z" fill="white" fill-opacity="0.04"/>
<path d="M-93.253 160.973C-86.4926 160.973 -81.5151 161.939 -78.6177 164.019C-64.5768 174.345 -30.923 170.482 1.54212 166.767C39.3562 162.459 75.0158 158.373 87.0509 173.528C92.177 179.917 92.4742 189.055 88.1653 201.461C80.8848 223.154 61.7177 250.345 32.7443 279.987C8.07973 305.246 -23.1967 331.619 -53.0617 352.346C-84.4124 373.668 -109.82 388.526 -116.803 392.537C-181.362 427.083 -228.834 451.599 -265.905 466.68C-306.319 483.098 -332.767 487.407 -349.111 480.275C-358.917 475.966 -365.381 467.645 -368.724 454.719C-373.33 437.261 -382.467 424.631 -397.697 415.048C-411.515 406.356 -429.048 400.932 -447.62 395.138C-469.982 388.229 -495.315 380.354 -519.237 365.198C-523.397 362.45 -525.329 358.958 -524.957 354.723C-522.729 326.344 -417.607 275.009 -372.512 254.282C-266.945 205.77 -139.165 160.973 -93.253 160.973ZM-46.9698 172.785C-60.9365 172.785 -72.7488 171.002 -79.8807 165.727C-100.905 150.349 -251.27 200.867 -371.621 256.214C-464.856 299.08 -521.391 336.002 -522.877 354.946C-523.174 358.438 -521.614 361.187 -518.123 363.49C-494.498 378.496 -469.313 386.297 -447.026 393.206C-409.435 404.87 -376.97 414.899 -366.718 454.199C-363.523 466.457 -357.506 474.332 -348.294 478.343C-314.12 493.276 -234.851 453.307 -117.843 390.68C-110.86 386.668 -85.5268 371.885 -54.2503 350.637C-24.4597 329.984 6.66821 303.686 31.2585 278.575C60.0091 249.082 78.9532 222.188 86.1594 200.793C90.2454 189.129 90.0226 180.66 85.4165 174.865C74.05 160.601 37.3503 164.836 1.765 168.922C-15.099 170.779 -32.2602 172.785 -46.9698 172.785Z" fill="white" fill-opacity="0.04"/>
<path d="M-98.8238 168.253C-92.8062 168.253 -88.2745 169.145 -85.6743 171.002C-72.822 180.14 -42.437 176.722 -13.0921 173.379C21.3788 169.442 53.9925 165.801 65.0619 179.62C69.7422 185.414 70.1137 193.661 66.2505 204.878C60.0101 225.011 42.7003 251.459 17.59 279.244C-5.73732 305.097 -33.8936 329.984 -59.6725 347.443C-77.1308 358.809 -93.252 368.616 -106.179 376.565C-111.23 379.611 -115.539 382.285 -119.179 384.588C-166.8 410.293 -215.98 436.146 -253.2 451.004C-289.528 465.491 -313.524 469.131 -328.605 462.593C-337.892 458.582 -343.984 450.707 -347.178 438.598C-356.316 403.829 -385.215 394.617 -418.72 383.919C-438.853 377.53 -461.66 370.25 -483.13 356.506C-491.525 350.563 -488.331 342.242 -484.096 336.299C-462.106 305.097 -361.368 256.065 -281.802 223.6C-209.814 194.032 -131.66 168.253 -98.8238 168.253ZM-57.2952 178.877C-69.8503 178.877 -80.1768 177.242 -86.7887 172.562C-100.904 162.681 -180.841 184.3 -281.134 225.234C-328.085 244.401 -373.254 265.426 -408.245 284.37C-447.545 305.691 -473.25 323.967 -482.61 337.191C-488.034 344.917 -487.885 350.637 -482.165 354.649C-460.992 368.244 -438.259 375.45 -418.275 381.839C-384.249 392.686 -354.83 402.046 -345.469 437.855C-342.424 449.37 -336.703 456.799 -328.011 460.588C-298.22 473.514 -234.702 444.541 -120.294 382.731C-116.654 380.502 -112.345 377.828 -107.293 374.707C-94.3663 366.833 -78.3195 357.026 -60.8611 345.66C-35.2308 328.276 -7.14884 303.462 16.0299 277.758C40.9916 250.122 58.0785 223.971 64.2447 204.136C67.8849 193.661 67.5878 186.009 63.4275 180.734C53.0268 167.733 19.4473 171.522 -13.0178 175.236C-28.7675 177.094 -44.22 178.877 -57.2952 178.877Z" fill="white" fill-opacity="0.04"/>
<path d="M-104.025 175.608C-99.0474 175.608 -95.0357 176.276 -92.6584 177.911C-80.9947 185.86 -53.9529 182.814 -27.7282 179.917C2.13676 176.574 32.9675 173.156 43.071 185.637C47.2313 190.837 47.6771 198.192 44.334 208.147C33.4132 247.299 -19.3333 311.337 -66.3594 342.465C-74.2343 347.294 -81.6633 351.826 -88.9438 356.209C-102.242 364.232 -113.757 371.141 -121.632 376.49L-121.706 376.565C-177.276 406.875 -212.787 424.408 -240.572 435.18C-272.814 447.661 -294.358 450.707 -308.251 444.764C-317.091 440.975 -322.812 433.62 -325.783 422.254C-334.029 390.828 -359.957 382.285 -389.896 372.404C-407.726 366.535 -428.007 359.849 -447.026 347.443C-453.341 342.614 -453.489 335.928 -447.397 327.458C-438.408 314.829 -415.006 297.891 -379.718 278.426C-348.516 261.265 -308.399 242.247 -266.648 225.011C-225.862 208.147 -186.339 194.106 -155.36 185.34C-138.199 180.511 -117.472 175.608 -104.025 175.608ZM-67.3995 184.894C-78.5431 184.894 -87.8295 183.483 -93.6985 179.471C-100.162 175.162 -121.929 177.911 -154.988 187.197C-185.968 195.964 -225.416 210.004 -266.053 226.794C-336.258 255.768 -425.556 299.822 -446.06 328.573C-451.483 336.15 -451.483 341.871 -446.06 346.031C-427.264 358.289 -407.132 364.901 -389.376 370.77C-358.917 380.799 -332.544 389.491 -324.074 421.882C-321.251 432.654 -315.828 439.638 -307.582 443.204C-279.426 455.313 -218.433 427.38 -122.598 375.153C-114.648 369.804 -103.208 362.821 -89.8353 354.797C-82.6291 350.414 -75.1257 345.882 -67.3252 341.128C-20.6705 310.074 31.7788 246.556 42.551 207.701C45.7455 198.341 45.4483 191.506 41.6595 186.826C32.2246 175.088 1.8396 178.505 -27.5053 181.774C-41.7691 183.334 -55.6615 184.894 -67.3995 184.894Z" fill="white" fill-opacity="0.04"/>
<path d="M-109.449 182.963C-105.214 182.963 -101.797 183.557 -99.7167 184.894C-89.3159 191.655 -65.4686 189.055 -42.3641 186.529C-15.6194 183.557 12.0168 180.511 21.0803 191.729C24.7948 196.335 25.2406 202.798 22.4175 211.565C18.3315 228.652 5.18204 253.39 -12.7221 277.609C-31.7405 303.388 -53.7306 325.23 -73.0463 337.562L-78.7666 340.831C-96.8193 351.157 -113.906 360.964 -124.084 368.467L-124.158 368.541C-218.433 420.619 -264.345 437.037 -287.821 427.008C-296.142 423.442 -301.565 416.608 -304.388 405.984C-311.817 377.976 -334.624 370.101 -361.146 360.964C-376.747 355.615 -394.429 349.523 -411.07 338.453L-411.144 338.379C-416.939 333.55 -416.864 326.938 -410.847 318.618C-391.457 291.873 -315.903 253.539 -251.642 226.646C-216.279 211.862 -181.808 199.381 -154.692 191.58C-139.537 187.346 -121.261 182.963 -109.449 182.963ZM-77.5037 190.912C-87.2358 190.912 -95.3335 189.723 -100.682 186.306C-112.272 179.025 -175.568 196.632 -251.121 228.354C-287.524 243.584 -322.589 260.448 -349.854 275.752C-380.611 293.062 -401.338 308.291 -409.658 319.807C-415.081 327.384 -415.304 333.03 -410.253 337.265C-393.834 348.111 -376.227 354.203 -360.701 359.552C-333.733 368.838 -310.48 376.788 -302.902 405.687C-300.228 415.79 -295.102 422.254 -287.301 425.597C-260.779 436.889 -203.278 410.441 -125.124 367.204C-114.872 359.626 -97.7851 349.82 -79.6581 339.494L-74.012 336.225C-54.9193 324.041 -33.0778 302.274 -14.2079 276.643C3.54764 252.573 16.6228 228.057 20.6345 211.119C23.309 202.873 23.0119 196.929 19.6688 192.769C11.1253 182.294 -16.0652 185.266 -42.2898 188.163C-54.845 189.575 -67.103 190.912 -77.5037 190.912Z" fill="white" fill-opacity="0.04"/>
<path d="M-114.944 190.243C-111.304 190.243 -108.555 190.763 -106.772 191.803C-97.5604 197.449 -76.9818 195.221 -57.0719 193.066C-33.4474 190.54 -9.00567 187.866 -0.907964 197.821C2.36083 201.833 2.80658 207.404 0.503562 214.908C-5.29113 245.516 -42.288 309.851 -79.6563 332.733C-97.5604 342.094 -115.91 351.974 -126.46 360.592L-126.534 360.666C-203.573 403.978 -245.696 418.613 -267.241 409.55C-275.116 406.207 -280.242 399.818 -282.916 389.863C-289.454 365.198 -309.289 358.066 -332.245 349.746C-345.618 344.917 -360.773 339.419 -374.963 329.761L-375.037 329.687C-380.386 324.784 -380.089 318.172 -374.071 310C-356.093 285.558 -291.237 251.83 -236.559 228.503C-190.573 208.742 -137.157 190.243 -114.944 190.243ZM-87.6054 196.929C-95.926 196.929 -102.909 195.964 -107.515 193.14C-117.916 187.049 -172 202.501 -236.039 229.84C-290.568 253.093 -355.201 286.598 -372.957 310.817C-378.454 318.321 -378.9 324.115 -374.145 328.424C-360.104 337.933 -345.098 343.357 -331.8 348.186C-308.398 356.655 -288.265 364.009 -281.505 389.417C-278.979 398.852 -274.15 404.944 -266.721 408.064C-245.622 416.905 -204.019 402.344 -127.425 359.329C-116.727 350.637 -98.3776 340.756 -80.4735 331.396C-43.4766 308.737 -6.77694 244.847 -1.05655 214.536V214.462C1.17218 207.479 0.800725 202.353 -2.17091 198.787C-9.74858 189.5 -33.7445 192.1 -56.9976 194.626C-67.844 195.815 -78.5419 196.929 -87.6054 196.929Z" fill="white" fill-opacity="0.04"/>
<path d="M61.6432 311.263C63.2033 311.263 64.4663 311.56 65.3578 312.229C67.0665 313.418 67.5865 315.424 66.9922 318.395C64.6149 329.613 41.659 368.096 12.3884 409.847C-36.1979 479.086 -66.1371 507.763 -76.7607 516.9C-123.192 556.869 -167.767 582.722 -190.351 582.796H-190.426C-200.306 582.796 -201.346 574.253 -202.461 565.189C-203.947 552.931 -205.655 539.113 -225.862 535.176C-243.172 531.833 -265.385 531.759 -284.924 531.759C-310.034 531.684 -329.795 531.684 -332.841 524.85C-333.659 522.992 -333.659 521.135 -332.916 519.352C-329.201 511.106 -307.805 504.122 -260.853 488.744C-252.459 485.995 -243.024 482.949 -232.846 479.532C-200.381 468.76 -136.491 427.751 -74.6062 388.006C-1.42972 341.128 46.1164 311.338 61.6432 311.263ZM-190.351 580.568C-165.167 580.493 -115.912 547.657 -78.1722 515.192C-55.8849 496.025 -23.4941 457.096 10.6054 408.584C39.7274 367.056 62.5347 328.944 64.8377 317.949C65.4321 315.052 64.4663 314.309 64.0948 314.086C60.0831 311.338 44.2592 317.801 17.2173 333.402C-7.81874 347.814 -39.6895 368.319 -73.3433 389.937C-135.302 429.757 -199.341 470.914 -232.029 481.687C-242.206 485.03 -251.641 488.15 -260.036 490.899C-303.496 505.088 -327.492 512.963 -330.761 520.243C-331.281 521.432 -331.281 522.621 -330.687 523.958C-328.235 529.456 -307.137 529.456 -284.849 529.53C-265.162 529.604 -242.875 529.604 -225.342 533.022C-203.575 537.256 -201.718 552.634 -200.158 564.967C-198.969 574.922 -197.929 580.568 -190.351 580.568Z" fill="white" fill-opacity="0.04"/>
<path d="M47.8997 325.676C49.3855 325.676 50.5742 325.973 51.4657 326.567C53.0258 327.607 53.6201 329.465 53.1743 332.065C52.1343 343.728 28.5098 382.36 5.40531 415.568C-24.6825 459.028 -54.9932 495.728 -75.5717 513.854C-78.0233 516.009 -80.5492 518.238 -83.0751 520.318C-122.004 553.229 -159.966 574.55 -179.802 574.699H-179.876C-188.94 574.699 -189.98 566.898 -191.094 558.652C-192.58 547.583 -194.289 534.953 -212.787 531.461C-228.685 528.416 -249.115 528.416 -267.168 528.341C-290.049 528.341 -308.176 528.267 -311.297 522.249C-312.485 520.466 -312.857 518.683 -312.262 516.9C-309.662 509.174 -288.415 501.968 -241.909 486.218C-236.411 484.361 -230.468 482.355 -224.228 480.201C-195.106 470.246 -137.382 433.472 -81.515 397.886C-12.2016 353.758 32.9672 325.676 47.8997 325.676ZM-179.876 572.619C-160.412 572.47 -122.969 551.297 -84.4124 518.758C-81.9608 516.678 -79.4349 514.449 -76.9833 512.294C-30.6258 471.434 49.3855 351.529 51.0199 331.842V331.768C51.4657 329.167 50.5742 328.573 50.277 328.35C46.3396 325.75 31.2585 331.842 5.40531 346.626C-18.5164 360.295 -48.6042 379.462 -80.4749 399.744C-136.416 435.403 -194.214 472.252 -223.633 482.281C-229.874 484.435 -235.743 486.367 -241.315 488.298C-285.815 503.379 -308.102 510.957 -310.405 517.718C-310.777 518.832 -310.554 520.021 -309.662 521.284L-309.588 521.432C-307.136 526.41 -287.746 526.41 -267.242 526.41C-249.115 526.41 -228.611 526.41 -212.49 529.53C-192.506 533.393 -190.648 547.285 -189.088 558.503C-187.825 567.493 -186.785 572.619 -179.876 572.619Z" fill="white" fill-opacity="0.04"/>
<path d="M34.0809 340.088C35.4924 340.088 36.681 340.385 37.4982 340.905C38.9841 341.871 39.5041 343.506 39.2069 345.734C39.5784 352.866 29.0291 376.416 -1.65305 421.362C-22.083 451.302 -51.948 490.527 -74.4581 510.883C-76.6868 512.889 -78.9156 514.895 -81.1443 516.826C-115.838 546.84 -150.458 566.452 -169.253 566.601H-169.328C-177.648 566.601 -178.688 559.543 -179.803 552.114C-181.288 542.159 -182.997 530.867 -199.787 527.747C-214.348 524.998 -232.995 524.998 -249.413 524.998C-270.14 524.998 -286.633 524.998 -289.827 519.724C-291.536 517.941 -292.205 516.232 -291.833 514.449C-290.199 507.168 -269.917 500.036 -220.96 482.801L-215.759 480.944C-189.98 471.88 -138.497 439.341 -88.722 407.916C-23.0488 366.461 19.817 340.088 34.0809 340.088ZM-169.402 564.67H-169.328C-150.978 564.447 -116.878 545.131 -82.4815 515.34C-80.2528 513.409 -77.9498 511.403 -75.7953 509.397C-53.4338 489.116 -23.6431 450.039 -3.28745 420.248C21.5257 383.994 37.7954 354.055 37.2754 345.809V345.734V345.66C37.5725 343.431 36.7553 342.837 36.4582 342.614C32.5951 340.088 18.1826 345.957 -6.55624 359.924C-29.2893 372.776 -57.6684 390.755 -87.7562 409.699C-137.605 441.198 -189.163 473.737 -215.165 482.875L-220.365 484.733C-265.757 500.705 -288.564 508.728 -289.976 514.969C-290.125 515.712 -290.125 516.826 -288.416 518.535L-288.342 518.609L-288.267 518.758C-285.816 523.141 -268.134 523.141 -249.487 523.141C-232.995 523.141 -214.199 523.141 -199.49 525.89C-181.363 529.307 -179.431 541.862 -177.871 551.891C-176.682 560.063 -175.717 564.67 -169.402 564.67Z" fill="white" fill-opacity="0.04"/>
<path d="M20.3374 354.501C21.7489 354.501 22.789 354.724 23.6805 355.244C24.572 355.838 25.612 357.027 25.3892 359.404C29.4752 377.085 -37.3123 474.109 -73.3434 507.837C-75.3493 509.694 -77.3551 511.477 -79.2867 513.26C-110.34 540.896 -140.8 558.206 -158.778 558.503H-158.852C-166.356 558.503 -167.47 552.263 -168.584 545.651C-170.07 536.81 -171.853 526.856 -186.934 524.032C-200.084 521.581 -216.948 521.655 -231.88 521.655C-250.527 521.729 -265.237 521.729 -268.506 517.123C-270.957 515.415 -271.997 513.706 -271.774 511.849C-270.957 505.46 -254.39 498.848 -207.29 481.612C-184.854 473.366 -139.759 445.21 -96.1507 417.945C-33.8949 379.165 6.66787 354.501 20.3374 354.501ZM-158.926 556.72H-158.852C-141.542 556.423 -110.786 538.891 -80.5496 511.923C-78.618 510.14 -76.6122 508.357 -74.6063 506.5C-36.6437 470.989 27.5436 374.931 23.6062 359.701L23.5319 359.552V359.404C23.6805 357.695 23.0862 357.101 22.6404 356.804C13.9484 351.38 -43.9985 387.634 -95.1849 419.579C-138.868 446.844 -184.037 475.075 -206.696 483.395C-246.664 498.031 -269.248 506.574 -269.991 512.146C-270.14 513.26 -269.248 514.449 -267.317 515.786L-267.168 515.86L-267.094 516.009C-264.568 519.872 -248.67 519.872 -231.88 519.798C-216.948 519.798 -199.935 519.724 -186.637 522.175C-170.293 525.221 -168.361 536.29 -166.876 545.28C-165.538 552.634 -164.573 556.72 -158.926 556.72Z" fill="white" fill-opacity="0.04"/>
<path d="M6.66734 368.913C7.93028 368.913 8.97035 369.136 9.71326 369.582C10.5305 370.102 11.4962 371.068 11.4962 373.148C13.2049 376.862 11.3477 384.514 5.99872 395.807C1.2441 405.836 -6.25928 418.688 -15.6199 432.952C-33.9698 460.811 -56.7028 489.71 -72.2296 504.866C-74.0126 506.574 -75.7213 508.209 -77.4299 509.843C-104.249 534.582 -131.365 550.183 -148.303 550.554C-155.138 550.629 -156.253 545.131 -157.367 539.262C-158.853 531.61 -160.636 522.918 -174.008 520.467C-185.82 518.386 -200.901 518.386 -214.199 518.461C-230.692 518.535 -243.842 518.609 -247.11 514.746C-249.339 513.706 -252.088 511.997 -252.014 509.397C-251.791 504.197 -240.35 498.402 -198.821 482.43C-179.728 475.075 -141.097 451.302 -103.803 428.272C-46.4506 392.835 -6.55644 368.913 6.66734 368.913ZM-148.378 548.771H-148.303C-135.377 548.474 -110.192 537.776 -78.5443 508.506C-76.8356 506.871 -75.1269 505.237 -73.3439 503.603C-57.8914 488.522 -35.307 459.697 -17.0315 431.912C2.95279 401.527 12.9821 379.76 9.86184 373.594L9.78755 373.371V373.148C9.86184 371.662 9.26752 371.142 8.89606 370.919C0.352611 365.867 -54.4741 399.67 -102.912 429.535C-141.989 453.679 -178.986 476.412 -198.227 483.841C-232.624 497.065 -250.156 504.643 -250.305 509.323C-250.379 510.512 -248.968 511.775 -246.145 513.112L-245.922 513.186L-245.773 513.335C-243.247 516.678 -229.058 516.604 -214.125 516.604C-200.753 516.529 -185.597 516.455 -173.562 518.609C-159.001 521.21 -157.144 530.942 -155.584 538.742C-154.47 545.205 -153.504 548.771 -148.378 548.771Z" fill="white" fill-opacity="0.04"/>
<path d="M-7.0007 383.325C-5.81204 383.325 -4.92055 383.548 -4.17764 383.92C-3.43473 384.365 -2.54324 385.182 -2.39466 386.817C0.056936 390.086 -0.760263 396.549 -4.92055 406.504C-8.48651 415.047 -14.5784 426.191 -22.6018 438.672C-37.0885 461.405 -57.0728 487.407 -71.0394 501.819C-72.5253 503.305 -74.0111 504.791 -75.4969 506.277C-98.0813 528.118 -121.929 542.01 -137.753 542.382C-143.77 542.456 -144.885 537.702 -146.073 532.65C-147.633 526.112 -149.342 518.757 -161.006 516.677C-171.481 514.894 -184.779 514.969 -196.517 515.043C-210.929 515.117 -222.37 515.191 -225.639 511.997C-230.468 510.437 -232.622 508.802 -232.696 506.648C-232.919 501.968 -222.221 495.95 -190.276 482.949C-174.601 476.56 -144.142 458.062 -111.899 438.449C-65.2447 410.218 -20.8931 383.325 -7.0007 383.325ZM-137.901 540.822C-137.827 540.822 -137.827 540.822 -137.753 540.822C-122.3 540.376 -98.8242 526.707 -76.537 505.162C-75.1254 503.751 -73.6396 502.265 -72.1538 500.779C-58.2614 486.367 -38.4257 460.513 -23.939 437.855C-6.85212 411.036 0.502682 392.686 -3.80619 387.634L-3.95477 387.411V387.114C-3.95477 385.925 -4.5491 385.48 -4.92055 385.257C-13.3897 380.576 -65.3933 412.15 -111.157 439.935C-143.473 459.548 -173.932 478.046 -189.756 484.509C-211.375 493.35 -231.359 502.116 -231.211 506.648C-231.136 507.985 -229.056 509.323 -225.044 510.585L-224.822 510.66L-224.673 510.808C-222.147 513.631 -209.666 513.557 -196.591 513.483C-184.779 513.409 -171.406 513.334 -160.783 515.117C-148.079 517.346 -146.148 525.592 -144.587 532.278C-143.324 537.776 -142.359 540.822 -137.901 540.822Z" fill="white" fill-opacity="0.04"/>
<path d="M227.461 -680C247.445 -680 266.761 -679.555 285.334 -678.589C386.964 -673.537 461.329 -654.964 506.275 -623.465C552.261 -591.223 566.153 -545.98 547.506 -488.998C490.897 -315.975 435.327 -208.773 398.553 -137.751C381.986 -105.806 368.911 -80.6215 361.853 -60.7858L360.813 -61.1573L361.853 -60.7858C350.041 -27.8007 299.152 16.0309 229.17 53.5478C153.839 93.962 73.0848 118.404 7.78314 120.632C-82.3317 123.753 -180.247 149.68 -246.515 170.927C-323.703 195.666 -403.714 228.8 -460.472 259.631C-497.172 279.541 -534.689 280.209 -569.011 261.562C-628.518 229.32 -670.79 143.588 -679.333 37.7238C-683.419 -12.4225 -687.579 -64.2775 -688.545 -114.35C-689.585 -169.696 -686.391 -216.797 -678.813 -258.325C-669.75 -307.952 -654.371 -351.189 -631.787 -390.414C-606.528 -434.32 -572.949 -472.357 -529.043 -506.754C-454.009 -565.518 -246.96 -628.74 -25.4249 -660.388C65.0614 -673.388 151.313 -680 227.461 -680ZM-517.676 272.854C-499.178 272.854 -480.308 267.803 -461.735 257.699C-404.828 226.794 -324.669 193.586 -247.332 168.847C-180.916 147.6 -82.7775 121.598 7.56024 118.478C72.5648 116.249 152.947 91.8819 227.981 51.6163C297.518 14.3222 347.961 -28.9893 359.625 -61.5287C366.757 -81.513 379.906 -106.772 396.473 -138.791C433.247 -209.665 488.742 -316.792 545.352 -489.667C563.702 -545.608 550.107 -590.034 504.938 -621.608C460.289 -652.884 386.369 -671.308 285.111 -676.36C196.333 -680.818 88.983 -674.503 -25.3506 -658.159C-246.515 -626.511 -453.192 -563.512 -527.928 -504.971C-571.611 -470.723 -605.042 -432.909 -630.153 -389.3C-652.663 -350.223 -667.967 -307.283 -676.956 -257.88C-693.82 -165.313 -685.499 -62.1231 -677.476 37.5753C-669.007 142.623 -627.107 227.76 -568.268 259.631C-551.924 268.397 -534.986 272.854 -517.676 272.854Z" fill="white" fill-opacity="0.04"/>
<path d="M215.054 -642.483C230.878 -642.483 246.182 -642.186 260.966 -641.518C354.201 -637.432 422.4 -620.939 463.631 -592.486C505.383 -563.735 518.235 -523.247 501.891 -472.135C453.751 -317.461 403.53 -214.791 370.248 -146.889C354.647 -115.018 342.314 -89.8336 335.257 -69.7008C323.816 -37.2357 276.641 4.96149 212.231 40.3982C143.215 78.3609 68.1812 101.763 6.22256 104.511C-76.9089 107.78 -167.098 131.107 -228.091 150.2C-299.781 172.562 -371.472 201.312 -424.887 229.023C-458.615 246.555 -493.012 246.555 -524.511 229.171C-579.19 198.935 -618.044 120.038 -625.918 23.2371C-633.422 -68.0664 -641.222 -162.49 -625.324 -249.262C-616.929 -294.951 -602.74 -334.771 -581.938 -371.099C-558.685 -411.587 -527.854 -446.727 -487.589 -478.524C-418.498 -533.276 -228.091 -592.783 -24.311 -623.094C61.6436 -635.946 143.364 -642.483 215.054 -642.483ZM-475.628 240.092C-459.135 240.092 -442.346 235.783 -425.779 227.166C-372.289 199.306 -300.45 170.556 -228.611 148.194C-167.544 129.102 -77.1318 105.7 6.22256 102.431C67.8097 99.6824 142.546 76.355 211.265 38.541C275.304 3.32709 322.033 -38.4243 333.325 -70.4437C340.457 -90.6508 352.789 -115.91 368.465 -147.855C401.673 -215.682 451.894 -318.278 499.96 -472.803C515.932 -522.949 503.377 -562.621 462.443 -590.777C421.509 -619.008 353.681 -635.426 260.817 -639.438C179.246 -643.004 80.7363 -636.615 -24.0881 -621.013C-227.497 -590.703 -417.533 -531.419 -486.252 -476.741C-526.294 -445.093 -556.977 -410.102 -580.081 -369.91C-600.808 -333.879 -614.923 -294.208 -623.244 -248.742C-639.142 -162.267 -631.342 -67.9921 -623.838 23.1628C-616.038 119.295 -577.555 197.523 -523.471 227.463C-508.093 235.858 -491.972 240.092 -475.628 240.092Z" fill="white" fill-opacity="0.04"/>
<path d="M202.499 -605.041C214.237 -605.041 225.603 -604.818 236.673 -604.447C321.513 -601.401 383.546 -586.914 421.063 -561.506C458.505 -536.173 470.392 -500.439 456.425 -455.27C416.531 -317.981 373.145 -223.632 341.571 -154.69C327.233 -123.413 315.867 -98.7486 308.958 -78.69C297.665 -46.2992 255.32 -6.70215 195.59 27.1745C132.963 62.7598 63.5006 85.0471 5.03372 88.3902C-132.999 94.6306 -306.171 157.629 -388.931 198.415C-419.687 213.57 -451.038 212.976 -479.714 196.781C-529.563 168.55 -565 96.4879 -572.206 8.75035C-578.818 -70.1465 -586.396 -159.593 -571.464 -240.124C-563.737 -281.876 -550.736 -318.352 -531.644 -351.635C-510.471 -388.706 -482.315 -420.948 -445.689 -450.144C-414.115 -475.7 -355.946 -502.371 -277.495 -527.333C-202.089 -551.254 -111.752 -572.056 -23.0483 -585.874C58.1517 -598.503 135.34 -605.041 202.499 -605.041ZM-433.505 207.404C-419.019 207.404 -404.383 203.838 -389.822 196.632C-306.914 155.772 -133.444 92.6248 4.88513 86.3843C63.0549 83.0412 132.22 60.8283 194.624 25.4658C253.982 -8.18796 296.031 -47.4135 307.1 -79.3586C314.084 -99.4914 325.45 -124.23 339.788 -155.581C371.436 -224.449 414.674 -318.65 454.568 -455.865C468.237 -500.142 456.648 -535.133 420.023 -559.946C382.803 -585.131 321.067 -599.469 236.598 -602.515C162.233 -605.189 72.4898 -598.8 -22.8253 -583.942C-111.38 -570.124 -201.644 -549.397 -276.974 -525.475C-355.203 -500.588 -413.15 -474.066 -444.575 -448.659C-481.052 -419.536 -508.985 -387.517 -530.083 -350.669C-549.028 -317.609 -561.954 -281.355 -569.606 -239.827C-584.464 -159.518 -576.961 -70.2209 -570.349 8.5275C-563.217 95.6707 -528.152 167.064 -478.823 194.998C-464.262 203.318 -448.958 207.404 -433.505 207.404Z" fill="white" fill-opacity="0.04"/>
<path d="M189.796 -567.747C197.522 -567.747 205.1 -567.673 212.454 -567.45C288.9 -565.37 344.766 -553.037 378.569 -530.602C411.703 -508.76 422.549 -477.706 410.885 -438.407C378.866 -317.164 340.086 -226.529 311.781 -160.336C299.598 -131.808 289.048 -107.218 282.436 -87.605C271.516 -55.7343 232.81 -17.6973 178.726 14.0249C122.34 47.1586 58.5237 68.4058 3.54849 72.2689C-51.1296 75.092 -118.363 87.7214 -190.796 108.671C-248.966 125.535 -308.176 147.08 -353.196 167.807C-380.981 180.585 -409.286 179.396 -435.065 164.315C-480.085 138.016 -512.104 72.8633 -518.642 -5.81076C-525.774 -88.4222 -530.677 -162.342 -517.751 -231.061C-510.693 -268.875 -498.881 -301.934 -481.571 -332.245C-462.404 -365.899 -436.996 -395.244 -404.011 -421.84C-375.261 -445.613 -322.588 -470.426 -251.566 -493.679C-183.664 -515.966 -102.093 -535.43 -21.859 -548.58C54.7349 -561.209 127.317 -567.747 189.796 -567.747ZM-391.307 174.79C-378.901 174.79 -366.346 171.893 -353.865 166.173C-308.696 145.371 -249.412 123.752 -191.168 106.888C-118.586 85.8642 -51.2039 73.309 3.54849 70.4117C58.2266 66.5485 121.745 45.3757 177.909 12.3905C231.621 -19.1831 270.03 -56.7743 280.802 -88.2736C287.488 -107.886 298.037 -132.551 310.221 -161.079C338.452 -227.198 377.232 -317.758 409.177 -438.927C420.543 -477.409 409.92 -507.72 377.603 -529.116C344.024 -551.254 288.454 -563.587 212.38 -565.593C145.147 -567.376 64.2441 -560.912 -21.5619 -546.797C-101.722 -533.648 -183.219 -514.183 -251.046 -491.97C-321.846 -468.792 -374.369 -444.053 -402.897 -420.428C-435.733 -393.906 -460.918 -364.784 -480.011 -331.279C-497.172 -301.191 -508.91 -268.281 -515.968 -230.689C-528.82 -162.193 -523.917 -88.348 -516.785 -5.88507C-510.322 72.1946 -478.599 136.902 -434.099 162.83C-420.355 170.779 -405.943 174.79 -391.307 174.79Z" fill="white" fill-opacity="0.04"/>
<path d="M176.943 -530.527C180.806 -530.527 184.595 -530.527 188.31 -530.453C256.286 -529.413 306.061 -519.086 336.149 -499.771C364.899 -481.347 374.78 -454.973 365.419 -421.542C340.977 -314.712 306.284 -226.603 280.876 -162.267C270.847 -136.785 262.155 -114.721 256.063 -96.5941C245.365 -64.7233 211.117 -29.2123 162.011 0.875519C111.939 31.5576 53.6946 51.7648 2.28534 56.2222C-99.6418 62.3884 -234.851 102.58 -317.314 137.348C-342.127 147.749 -367.386 145.966 -390.416 131.999C-430.533 107.706 -459.135 49.3131 -465.004 -20.2231C-471.245 -90.6509 -475.925 -159.073 -464.038 -221.923C-457.649 -255.799 -446.952 -285.516 -431.499 -312.781C-414.338 -343.017 -391.679 -369.465 -362.334 -393.535C-336.407 -415.451 -289.158 -438.481 -225.639 -460.099C-165.166 -480.678 -92.3612 -498.879 -20.5963 -511.434C51.243 -523.99 119.145 -530.527 176.943 -530.527ZM-349.036 142.251C-338.71 142.251 -328.309 140.097 -317.908 135.713C-235.297 100.945 -99.9389 60.6796 2.21106 54.5135C53.3975 50.056 111.344 29.9975 161.193 -0.536026C209.928 -30.401 243.954 -65.6149 254.503 -97.0399C260.595 -115.241 269.287 -137.231 279.316 -162.787C304.649 -227.049 339.417 -315.158 363.785 -421.84C372.923 -454.528 363.265 -480.232 335.257 -498.211C305.392 -517.378 255.914 -527.556 188.235 -528.67C128.208 -529.561 56.1462 -523.024 -20.2248 -509.726C-91.9155 -497.171 -164.646 -478.969 -225.045 -458.465C-288.341 -436.921 -335.441 -414.039 -361.22 -392.198C-390.416 -368.276 -412.926 -341.977 -430.013 -311.963C-445.391 -284.921 -455.941 -255.354 -462.33 -221.626C-474.216 -158.998 -469.536 -90.7251 -463.296 -20.446C-457.501 48.6445 -429.27 106.443 -389.525 130.513C-376.524 138.314 -362.929 142.251 -349.036 142.251Z" fill="white" fill-opacity="0.04"/>
<path d="M163.72 -493.53C163.868 -493.53 164.017 -493.53 164.166 -493.53C223.747 -493.456 267.356 -485.21 293.803 -468.94C318.245 -453.859 327.085 -432.24 320.028 -404.678C303.238 -310.403 271.442 -222.368 248.263 -158.107C240.982 -137.974 234.742 -120.59 229.764 -105.509C219.438 -74.1581 188.682 -40.2072 145.37 -12.2738C101.464 16.031 48.8661 35.0495 1.02277 40.1013C-43.0317 43.2215 -94.9611 52.3593 -153.354 67.2174C-197.26 78.4354 -243.914 92.7735 -281.357 106.666C-303.273 114.764 -325.486 112.238 -345.618 99.4596C-380.832 77.0981 -405.943 25.6145 -411.143 -34.8582C-416.566 -93.6966 -421.024 -155.952 -410.029 -212.933C-404.234 -242.873 -394.799 -269.246 -381.13 -293.465C-365.974 -320.284 -346.138 -343.834 -320.36 -365.304C-274.671 -405.198 -153.502 -449.03 -19.0358 -474.363C47.6775 -486.844 110.899 -493.53 163.72 -493.53ZM-306.69 109.786C-298.518 109.786 -290.197 108.3 -281.951 105.254C-244.434 91.362 -197.705 76.9495 -153.725 65.7316C-95.2582 50.7991 -43.2546 41.6613 0.874176 38.5411C48.4203 33.5636 100.795 14.5452 144.478 -13.611C187.419 -41.3215 217.952 -74.9753 228.204 -106.029C233.182 -121.11 239.422 -138.494 246.703 -158.627C269.881 -222.814 301.604 -310.775 318.393 -404.975C325.302 -431.869 316.685 -452.967 292.912 -467.603C266.761 -483.724 223.45 -491.896 164.091 -491.97C163.943 -491.97 163.794 -491.97 163.646 -491.97C110.899 -491.97 47.7517 -485.358 -18.8872 -472.803C-153.131 -447.544 -274.002 -403.861 -319.542 -364.115C-345.173 -342.72 -364.86 -319.392 -379.941 -292.722C-393.536 -268.652 -402.897 -242.501 -408.617 -212.711C-419.538 -155.952 -415.155 -93.8452 -409.732 -35.0811C-404.605 24.8716 -379.792 75.9095 -344.95 98.0481C-332.692 105.849 -319.765 109.786 -306.69 109.786Z" fill="white" fill-opacity="0.04"/>
<path d="M150.421 -456.831C196.333 -456.831 230.358 -450.59 251.457 -438.332C271.59 -426.668 279.316 -409.656 274.487 -387.889C266.018 -304.014 235.41 -211.596 213.048 -144.14C209.557 -133.517 206.214 -123.562 203.316 -114.572C193.138 -83.2217 166.616 -51.5738 128.654 -25.572C90.3198 0.652664 44.5566 18.1853 -0.240814 23.8314C-31.2201 26.4316 -117.1 36.758 -245.475 75.9836C-264.493 81.7783 -283.735 78.5838 -301.119 66.8459C-331.43 46.3416 -352.974 1.76705 -357.431 -49.4194C-362.112 -97.4113 -366.198 -152.832 -356.243 -203.87C-345.693 -257.805 -320.286 -301.34 -278.683 -336.999C-258.402 -355.349 -222.073 -374.739 -173.487 -393.089C-127.204 -410.547 -73.343 -425.851 -17.6992 -437.292C39.7277 -449.179 94.3315 -455.865 140.095 -456.756C143.586 -456.756 147.004 -456.831 150.421 -456.831ZM-264.122 77.4694C-258.104 77.4694 -252.013 76.5779 -245.995 74.7207C-225.491 68.4059 -183.739 56.2223 -135.079 45.0786C-83.9666 33.3407 -38.7235 25.763 -0.537964 22.5685C44.0365 16.9224 89.5769 -0.535957 127.762 -26.6121C165.502 -52.4653 191.875 -83.7418 201.905 -114.87C204.802 -123.859 208.145 -133.888 211.637 -144.512C233.998 -211.968 264.606 -304.311 273.001 -388.037V-388.111C277.681 -409.21 270.178 -425.703 250.639 -437.069C228.501 -449.921 190.241 -456.236 140.02 -455.27C94.3315 -454.379 39.8763 -447.693 -17.5506 -435.806C-73.1201 -424.365 -126.907 -409.062 -173.116 -391.603C-221.553 -373.328 -257.733 -354.012 -277.866 -335.811C-319.246 -300.374 -344.505 -257.137 -354.98 -203.499C-364.935 -152.609 -360.849 -97.337 -356.168 -49.4194C-351.711 1.39559 -330.389 45.5986 -300.45 65.8058C-288.935 73.532 -276.603 77.4694 -264.122 77.4694Z" fill="white" fill-opacity="0.04"/>
<path d="M135.638 -420.577C168.252 -420.577 193.436 -416.268 209.186 -407.873C225.01 -399.478 231.622 -387.072 228.947 -371.025C231.325 -295.768 193.139 -174.971 176.87 -123.413C156.365 -59.0031 82.9659 -5.06786 -1.65137 7.78446C-68.9589 14.6192 -148.227 32.0033 -195.625 42.404C-200.677 43.5184 -205.357 44.5585 -209.74 45.4499C-225.936 48.9416 -242.205 45.0785 -256.841 34.3063C-282.099 15.7336 -300.078 -21.9319 -303.867 -63.9062C-308.25 -106.549 -311.147 -151.941 -302.529 -194.807C-293.317 -240.57 -271.847 -277.79 -237.005 -308.695C-202.682 -341.308 -116.059 -377.265 -16.361 -400.37C31.6309 -411.513 77.3941 -418.348 115.951 -420.131C122.86 -420.428 129.398 -420.577 135.638 -420.577ZM-221.255 45.4499C-217.541 45.4499 -213.752 45.0785 -209.963 44.2613C-205.58 43.2955 -200.899 42.2554 -195.848 41.2154C-148.45 30.8146 -69.1075 13.4305 -1.79996 6.59578C82.3716 -6.18225 155.325 -59.8202 175.681 -123.71C191.951 -175.194 230.136 -295.917 227.685 -370.95V-371.025V-371.099C230.285 -386.552 223.896 -398.512 208.592 -406.684C190.019 -416.565 158.074 -420.725 116.1 -418.719C77.5427 -416.936 31.8538 -410.102 -15.9895 -398.958C-115.539 -375.928 -201.94 -340.045 -236.113 -307.58C-313.599 -239.01 -311.444 -149.638 -302.604 -63.9062C-298.889 -22.3033 -281.059 14.9906 -256.098 33.3405C-245.177 41.2896 -233.29 45.4499 -221.255 45.4499Z" fill="white" fill-opacity="0.04"/>
<path d="M120.334 -385.14C140.244 -385.14 156.291 -382.763 166.989 -377.934C178.578 -372.733 184.076 -364.71 183.407 -354.235C189.796 -333.731 188.608 -298.814 179.841 -250.376C173.452 -215.088 162.754 -172.074 150.422 -132.328C130.586 -68.5866 73.1595 -22.2291 -3.06293 -8.26239C-29.8076 -4.84501 -57.5924 -0.833269 -84.4857 3.10415C-119.254 8.15593 -152.09 12.9848 -174.006 14.9164C-192.43 16.4765 -210.557 7.26443 -224.97 -11.1597C-238.639 -28.6181 -247.851 -53.1341 -250.229 -78.3187C-256.692 -136.117 -252.829 -165.982 -248.743 -185.595C-240.942 -223.186 -223.41 -254.091 -195.253 -280.241C-166.503 -309.289 -97.4124 -341.234 -14.9495 -363.447C37.7228 -377.785 85.1946 -385.14 120.334 -385.14ZM-177.944 13.9506C-176.606 13.9506 -175.343 13.8763 -174.006 13.802C-152.165 11.7962 -119.328 7.04156 -84.56 1.98978C-57.6667 -2.02192 -29.8819 -6.10794 -3.13722 -9.45103C72.6395 -23.3434 129.695 -69.4038 149.382 -132.7C161.714 -172.371 172.412 -215.385 178.801 -250.599C187.567 -298.888 188.756 -333.731 182.367 -354.012V-354.086V-354.161C183.036 -364.19 177.761 -371.842 166.617 -376.819C137.124 -390.117 67.662 -384.62 -14.578 -362.407C-96.818 -340.194 -165.76 -308.397 -194.362 -279.498C-222.37 -253.497 -239.754 -222.74 -247.554 -185.446C-255.28 -148.301 -252.383 -108.778 -248.966 -78.5415C-246.588 -53.5055 -237.451 -29.2124 -223.93 -11.9769C-210.854 4.88709 -194.585 13.9506 -177.944 13.9506Z" fill="white" fill-opacity="0.04"/>
</g>
</svg>
