<svg width="28" height="172" viewBox="0 0 28 172" fill="none" xmlns="http://www.w3.org/2000/svg">
<path d="M23.1066 0.57997C23.3406 0.238214 23.8074 0.150896 24.1492 0.384939C24.4909 0.618982 24.5782 1.08576 24.3442 1.42751L23.1066 0.57997ZM27.0129 171.431L19.5628 167.016L27.1116 162.771L27.0129 171.431ZM22.1199 4.81259C21.899 5.16297 21.4359 5.26793 21.0855 5.04701C20.7351 4.8261 20.6301 4.36297 20.8511 4.01258L22.1199 4.81259ZM16.7261 11.1073C16.9216 10.7422 17.3762 10.6047 17.7413 10.8003C18.1064 10.9959 18.2439 11.4504 18.0483 11.8156L16.7261 11.1073ZM14.4615 19.0819C14.2903 19.4591 13.8457 19.6261 13.4685 19.4549C13.0914 19.2837 12.9244 18.8392 13.0956 18.462L14.4615 19.0819ZM9.94083 26.0326C10.0883 25.6456 10.5217 25.4514 10.9088 25.5989C11.2958 25.7464 11.49 26.1797 11.3425 26.5668L9.94083 26.0326ZM8.6791 34.2342C8.55473 34.6293 8.13362 34.8488 7.73852 34.7244C7.34342 34.6 7.12394 34.1789 7.2483 33.7838L8.6791 34.2342ZM5.01041 41.6771C5.11205 41.2755 5.51996 41.0324 5.92151 41.134C6.32306 41.2357 6.56619 41.6436 6.46455 42.0451L5.01041 41.6771ZM4.69363 49.9591C4.61433 50.3656 4.22047 50.6309 3.81392 50.5516C3.40737 50.4723 3.14208 50.0785 3.22138 49.6719L4.69363 49.9591ZM1.8692 57.766C1.92644 57.3557 2.3054 57.0696 2.71564 57.1268C3.12588 57.1841 3.41205 57.563 3.35481 57.9733L1.8692 57.766ZM2.44687 66.0332C2.41133 66.4459 2.04798 66.7517 1.63529 66.7161C1.2226 66.6806 0.916864 66.3172 0.9524 65.9046L2.44687 66.0332ZM0.461138 74.0933C0.475264 73.6793 0.822307 73.3551 1.23628 73.3693C1.65025 73.3834 1.97439 73.7304 1.96027 74.1444L0.461138 74.0933ZM1.88996 82.2566C1.89684 82.6707 1.56668 83.012 1.15253 83.0189C0.73837 83.0258 0.39705 82.6957 0.390167 82.2815L1.88996 82.2566ZM0.73176 90.4805C0.704235 90.0673 1.01697 89.7099 1.43026 89.6824C1.84356 89.6548 2.20092 89.9676 2.22844 90.3809L0.73176 90.4805ZM2.9653 98.458C3.01294 98.8695 2.71801 99.2416 2.30655 99.2893C1.89508 99.3369 1.5229 99.042 1.47525 98.6305L2.9653 98.458ZM2.61311 106.746C2.54584 106.338 2.82263 105.952 3.23135 105.884C3.64006 105.817 4.02592 106.094 4.0932 106.503L2.61311 106.746ZM5.60211 114.493C5.68844 114.898 5.43001 115.297 5.0249 115.383C4.61978 115.469 4.22138 115.211 4.13505 114.806L5.60211 114.493ZM6.02298 122.766C5.91827 122.366 6.15827 121.956 6.55903 121.851C6.95979 121.746 7.36955 121.986 7.47426 122.387L6.02298 122.766ZM9.7027 130.198C9.82513 130.594 9.60358 131.014 9.20787 131.137C8.81216 131.259 8.39213 131.038 8.26971 130.642L9.7027 130.198ZM10.8618 138.418C10.7224 138.028 10.9256 137.598 11.3156 137.459C11.7057 137.319 12.1349 137.523 12.2743 137.913L10.8618 138.418ZM15.1735 145.513C15.3292 145.897 15.1442 146.335 14.7603 146.49C14.3765 146.646 13.9391 146.461 13.7834 146.077L15.1735 145.513ZM17.0111 153.592C16.84 153.215 17.007 152.77 17.3843 152.599C17.7615 152.428 18.206 152.595 18.3771 152.972L17.0111 153.592ZM21.8779 160.302C22.0637 160.672 21.9142 161.123 21.544 161.309C21.1737 161.495 20.723 161.345 20.5372 160.975L21.8779 160.302ZM24.3462 168.218C24.1466 167.855 24.2789 167.399 24.6418 167.2C25.0048 167 25.4608 167.132 25.6605 167.495L24.3462 168.218ZM24.3442 1.42751C23.5907 2.52773 22.8489 3.65634 22.1199 4.81259L20.8511 4.01258C21.59 2.8405 22.3423 1.69604 23.1066 0.57997L24.3442 1.42751ZM18.0483 11.8156C16.7982 14.1496 15.6001 16.5733 14.4615 19.0819L13.0956 18.462C14.2475 15.9238 15.4602 13.4706 16.7261 11.1073L18.0483 11.8156ZM11.3425 26.5668C10.3945 29.0541 9.50471 31.6112 8.6791 34.2342L7.2483 33.7838C8.08275 31.1327 8.9823 28.5477 9.94083 26.0326L11.3425 26.5668ZM6.46455 42.0451C5.81048 44.6292 5.21848 47.2683 4.69363 49.9591L3.22138 49.6719C3.75152 46.954 4.34955 44.288 5.01041 41.6771L6.46455 42.0451ZM3.35481 57.9733C2.98591 60.6172 2.68182 63.3047 2.44687 66.0332L0.9524 65.9046C1.18962 63.1497 1.49666 60.4359 1.8692 57.766L3.35481 57.9733ZM1.96027 74.1444C1.86915 76.8146 1.84447 79.5194 1.88996 82.2566L0.390167 82.2815C0.344259 79.5189 0.369161 76.7887 0.461138 74.0933L1.96027 74.1444ZM2.22844 90.3809C2.40599 93.0467 2.65053 95.7398 2.9653 98.458L1.47525 98.6305C1.15768 95.888 0.91092 93.1707 0.73176 90.4805L2.22844 90.3809ZM4.0932 106.503C4.52821 109.146 5.03024 111.81 5.60211 114.493L4.13505 114.806C3.5583 112.099 3.05192 109.412 2.61311 106.746L4.0932 106.503ZM7.47426 122.387C8.15052 124.975 8.89252 127.58 9.7027 130.198L8.26971 130.642C7.45297 128.002 6.70486 125.376 6.02298 122.766L7.47426 122.387ZM12.2743 137.913C13.1759 140.435 14.1416 142.969 15.1735 145.513L13.7834 146.077C12.7437 143.513 11.7705 140.96 10.8618 138.418L12.2743 137.913ZM18.3771 152.972C19.4818 155.408 20.6481 157.851 21.8779 160.302L20.5372 160.975C19.2987 158.507 18.1239 156.045 17.0111 153.592L18.3771 152.972Z" fill="#A4AEC4" fill-opacity="0.58"/>
</svg>
