<svg width="31" height="172" viewBox="0 0 31 172" fill="none" xmlns="http://www.w3.org/2000/svg">
<path d="M1.98376 0.88823C1.72536 0.564503 1.25345 0.511549 0.929719 0.769955C0.605991 1.02836 0.553038 1.50027 0.811444 1.824L1.98376 0.88823ZM10.5805 171.568L17.6879 166.619L9.84888 162.938L10.5805 171.568ZM3.27729 5.03737C3.52324 5.37066 3.9928 5.44148 4.3261 5.19553C4.65939 4.94959 4.7302 4.48002 4.48426 4.14673L3.27729 5.03737ZM9.11698 10.9209C8.89523 10.571 8.43185 10.4672 8.082 10.6889C7.73214 10.9107 7.62829 11.374 7.85004 11.7239L9.11698 10.9209ZM11.9586 18.7085C12.1569 19.0722 12.6125 19.2062 12.9762 19.0079C13.3398 18.8096 13.4738 18.354 13.2755 17.9904L11.9586 18.7085ZM16.9754 25.3101C16.8 24.9348 16.3536 24.7728 15.9783 24.9483C15.6031 25.1237 15.4411 25.5701 15.6165 25.9453L16.9754 25.3101ZM18.8334 33.3974C18.9864 33.7824 19.4224 33.9705 19.8073 33.8175C20.1923 33.6646 20.3804 33.2286 20.2275 32.8436L18.8334 33.3974ZM23.0365 40.5521C22.9058 40.1591 22.4812 39.9464 22.0882 40.0772C21.6951 40.2079 21.4825 40.6325 21.6132 41.0255L23.0365 40.5521ZM23.958 48.7888C24.0668 49.1885 24.4791 49.4243 24.8787 49.3155C25.2784 49.2066 25.5142 48.7944 25.4053 48.3948L23.958 48.7888ZM27.3457 56.3683C27.2587 55.9633 26.8598 55.7056 26.4548 55.7927C26.0499 55.8798 25.7922 56.2787 25.8793 56.6836L27.3457 56.3683ZM27.3741 64.6557C27.4397 65.0646 27.8245 65.343 28.2335 65.2774C28.6424 65.2118 28.9208 64.827 28.8552 64.418L27.3741 64.6557ZM29.9439 72.5489C29.8995 72.1371 29.5297 71.8392 29.1179 71.8835C28.706 71.9279 28.4082 72.2977 28.4525 72.7095L29.9439 72.5489ZM29.1158 80.7948C29.1392 81.2084 29.4934 81.5247 29.907 81.5012C30.3205 81.4778 30.6368 81.1236 30.6134 80.71L29.1158 80.7948ZM30.8722 88.9121C30.8695 88.4979 30.5314 88.1644 30.1172 88.1671C29.703 88.1699 29.3695 88.5079 29.3723 88.9221L30.8722 88.9121ZM29.228 97.0315C29.2105 97.4454 29.5319 97.795 29.9457 97.8124C30.3596 97.8299 30.7092 97.5085 30.7266 97.0947L29.228 97.0315ZM30.1853 105.272C30.2225 104.859 29.9182 104.495 29.5057 104.458C29.0931 104.42 28.7285 104.725 28.6913 105.137L30.1853 105.272ZM27.7707 113.217C27.7142 113.627 28.0011 114.005 28.4114 114.062C28.8218 114.118 29.2002 113.831 29.2567 113.421L27.7707 113.217ZM27.9559 121.498C28.031 121.091 27.7617 120.7 27.3544 120.625C26.947 120.55 26.5559 120.819 26.4808 121.226L27.9559 121.498ZM24.8295 129.18C24.7363 129.583 24.988 129.986 25.3916 130.079C25.7952 130.172 26.1979 129.921 26.291 129.517L24.8295 129.18ZM24.2744 137.462C24.3849 137.062 24.1509 136.649 23.7517 136.539C23.3525 136.428 22.9393 136.662 22.8288 137.061L24.2744 137.462ZM20.4931 144.854C20.366 145.248 20.5824 145.67 20.9766 145.798C21.3708 145.925 21.7935 145.708 21.9207 145.314L20.4931 144.854ZM19.2512 153.045C19.3942 152.656 19.1951 152.225 18.8064 152.082C18.4177 151.939 17.9866 152.138 17.8435 152.527L19.2512 153.045ZM14.888 160.093C14.7298 160.476 14.9119 160.914 15.2947 161.073C15.6775 161.231 16.1161 161.049 16.2743 160.666L14.888 160.093ZM13.0052 168.168C13.1777 167.792 13.0124 167.347 12.6358 167.174C12.2593 167.002 11.8141 167.167 11.6416 167.544L13.0052 168.168ZM0.811444 1.824C1.64333 2.86618 2.4657 3.93752 3.27729 5.03737L4.48426 4.14673C3.66155 3.03182 2.82764 1.94543 1.98376 0.88823L0.811444 1.824ZM7.85004 11.7239C9.26748 13.9602 10.6396 16.2898 11.9586 18.7085L13.2755 17.9904C11.941 15.5432 10.5522 13.1853 9.11698 10.9209L7.85004 11.7239ZM15.6165 25.9453C16.7438 28.3566 17.8182 30.8418 18.8334 33.3974L20.2275 32.8436C19.2014 30.2607 18.1152 27.7483 16.9754 25.3101L15.6165 25.9453ZM21.6132 41.0255C22.4545 43.5549 23.2378 46.1436 23.958 48.7888L25.4053 48.3948C24.6779 45.7229 23.8865 43.1077 23.0365 40.5521L21.6132 41.0255ZM25.8793 56.6836C26.4405 59.2935 26.9403 61.9516 27.3741 64.6557L28.8552 64.418C28.4172 61.6879 27.9125 59.0039 27.3457 56.3683L25.8793 56.6836ZM28.4525 72.7095C28.7386 75.3659 28.961 78.0617 29.1158 80.7948L30.6134 80.71C30.4572 77.9515 30.2327 75.2304 29.9439 72.5489L28.4525 72.7095ZM29.3723 88.9221C29.3901 91.5938 29.3431 94.2976 29.228 97.0315L30.7266 97.0947C30.8428 94.3363 30.8902 91.6081 30.8722 88.9121L29.3723 88.9221ZM28.6913 105.137C28.4507 107.805 28.1448 110.498 27.7707 113.217L29.2567 113.421C29.634 110.68 29.9426 107.963 30.1853 105.272L28.6913 105.137ZM26.4808 121.226C25.9956 123.857 25.446 126.509 24.8295 129.18L26.291 129.517C26.9126 126.824 27.4667 124.151 27.9559 121.498L26.4808 121.226ZM22.8288 137.061C22.1141 139.643 21.3363 142.24 20.4931 144.854L21.9207 145.314C22.7702 142.681 23.5541 140.063 24.2744 137.462L22.8288 137.061ZM17.8435 152.527C16.9198 155.036 15.9353 157.559 14.888 160.093L16.2743 160.666C17.329 158.114 18.3207 155.573 19.2512 153.045L17.8435 152.527Z" fill="#A4AEC4" fill-opacity="0.58"/>
</svg>
