<svg width="76" height="76" viewBox="0 0 76 76" fill="none" xmlns="http://www.w3.org/2000/svg">
<rect width="76" height="76" rx="23.3182" fill="#78BFD3"/>
<path d="M47.1046 21.5205C47.1046 20.9209 46.6185 20.4348 46.0188 20.4348H41.9295C41.3298 20.4348 40.8438 20.9209 40.8438 21.5205V42.3054C40.8438 42.905 41.3298 43.3911 41.9295 43.3911H46.0188C46.6185 43.3911 47.1046 42.905 47.1046 42.3054V21.5205ZM45.0176 42.3477H42.9307C42.3568 42.3477 41.8872 41.8781 41.8872 41.3042C41.8872 40.7303 42.3568 40.2607 42.9307 40.2607H45.0176C45.5915 40.2607 46.0611 40.7303 46.0611 41.3042C46.0611 41.8781 45.5915 42.3477 45.0176 42.3477ZM45.0176 23.5652H42.9307C42.3568 23.5652 41.8872 23.0957 41.8872 22.5218C41.8872 21.9478 42.3568 21.4783 42.9307 21.4783H45.0176C45.5915 21.4783 46.0611 21.9478 46.0611 22.5218C46.0611 23.0957 45.5915 23.5652 45.0176 23.5652Z" fill="white"/>
<path d="M24.7832 53.9564V51.7822C24.7832 51.2059 24.316 50.7388 23.7398 50.7388C23.1635 50.7388 22.6963 51.2059 22.6963 51.7822V53.9564C22.6963 54.5327 23.1635 54.9999 23.7398 54.9999C24.316 54.9999 24.7832 54.5327 24.7832 53.9564Z" fill="white"/>
<path d="M53.3047 53.9562V51.782C53.3047 51.2057 52.8375 50.7385 52.2612 50.7385C51.685 50.7385 51.2178 51.2057 51.2178 51.782V53.9562C51.2178 54.5325 51.685 54.9996 52.2612 54.9996C52.8375 54.9996 53.3047 54.5325 53.3047 53.9562Z" fill="white"/>
<path d="M18.0438 45.4775H57.9565C58.363 45.4775 58.6956 45.9471 58.6956 46.521V48.6079C58.6956 49.1819 58.363 49.6514 57.9565 49.6514H18.0438C17.6373 49.6514 17.3047 49.1819 17.3047 48.6079V46.521C17.3047 45.9471 17.6373 45.4775 18.0438 45.4775Z" fill="white"/>
<path d="M55.4522 21.5205C55.4522 20.9209 54.9661 20.4348 54.3665 20.4348H50.2771C49.6775 20.4348 49.1914 20.9209 49.1914 21.5205V42.3054C49.1914 42.905 49.6775 43.3911 50.2771 43.3911H54.3665C54.9661 43.3911 55.4522 42.905 55.4522 42.3054V21.5205ZM53.3653 42.3477H51.2783C50.7044 42.3477 50.2349 41.8781 50.2349 41.3042C50.2349 40.7303 50.7044 40.2607 51.2783 40.2607H53.3653C53.9392 40.2607 54.4088 40.7303 54.4088 41.3042C54.4088 41.8781 53.9392 42.3477 53.3653 42.3477ZM53.3653 23.5652H51.2783C50.7044 23.5652 50.2349 23.0957 50.2349 22.5218C50.2349 21.9478 50.7044 21.4783 51.2783 21.4783H53.3653C53.9392 21.4783 54.4088 21.9478 54.4088 22.5218C54.4088 23.0957 53.9392 23.5652 53.3653 23.5652Z" fill="white"/>
<path d="M32.8538 20.5424C32.3345 20.2428 31.6708 20.4207 31.371 20.9399L20.9787 38.9375C20.6787 39.4569 20.8568 40.1211 21.3763 40.4208L24.9215 42.4661C25.4408 42.7657 26.1045 42.5877 26.4043 42.0686L36.7966 24.071C37.0965 23.5516 36.9185 22.8874 36.399 22.5876L32.8538 20.5424ZM25.992 40.6781C25.8529 40.9215 25.6268 41.0955 25.3572 41.165C25.0877 41.2346 24.8007 41.1998 24.5659 41.0607L22.7573 40.0172C22.2616 39.7303 22.0964 39.0955 22.3834 38.5911C22.6703 38.0955 23.3051 37.9216 23.8007 38.2085L25.6094 39.252C26.1138 39.539 26.279 40.1824 25.992 40.6781ZM34.4789 24.9391C34.2963 24.9391 34.1137 24.8956 33.9572 24.8L32.1485 23.7565C31.6528 23.4695 31.4789 22.8261 31.7659 22.3304C32.0528 21.8348 32.6963 21.6609 33.192 21.9478L35.0006 22.9913C35.4093 23.2261 35.6093 23.7043 35.4876 24.1652C35.3658 24.6174 34.9485 24.9391 34.4789 24.9391Z" fill="white"/>
</svg>
