<svg width="76" height="76" viewBox="0 0 76 76" fill="none" xmlns="http://www.w3.org/2000/svg">
<rect width="76" height="76" rx="23.3182" fill="#F73E91"/>
<path fill-rule="evenodd" clip-rule="evenodd" d="M38.9707 22.875H48.5257C51.2181 22.875 53.4007 25.0576 53.4007 27.75V46.0963C53.4007 48.7886 51.2181 50.9713 48.5257 50.9713H38.9707C36.2783 50.9713 34.0957 48.7886 34.0957 46.0963V40.4412H37.8657C39.6606 40.4412 41.1157 38.9862 41.1157 37.1913V36.655C41.1157 34.8601 39.6606 33.405 37.8657 33.405H34.0957V27.75C34.0957 25.0576 36.2783 22.875 38.9707 22.875ZM42.7893 30.4152H48.2331C48.9062 30.4152 49.4518 29.8696 49.4518 29.1965C49.4518 28.5234 48.9062 27.9777 48.2331 27.9777H42.7893C42.1162 27.9777 41.5706 28.5234 41.5706 29.1965C41.5706 29.8696 42.1162 30.4152 42.7893 30.4152Z" fill="white"/>
<path d="M38.0767 34.9814H34.1279V38.8814H38.0767C38.8934 38.8814 39.5554 38.2194 39.5554 37.4027V36.4602C39.5554 35.6435 38.8934 34.9814 38.0767 34.9814V34.9814Z" fill="white"/>
<path fill-rule="evenodd" clip-rule="evenodd" d="M21.7615 28.4486C21.5747 25.6281 23.6888 23.181 26.5065 22.9561C29.3089 23.1976 31.3995 25.6426 31.2027 28.4486V43.5936C31.2179 44.3697 31.0031 45.133 30.5852 45.7873L27.5465 50.4836C27.3312 50.8695 26.924 51.1086 26.4821 51.1086C26.0402 51.1086 25.633 50.8695 25.4177 50.4836L22.379 45.7873C21.968 45.1299 21.7538 44.3687 21.7615 43.5936V28.4486ZM26.4917 34.4938C27.1648 34.4938 27.7104 33.9481 27.7104 33.275V27.6525C27.7149 27.328 27.5879 27.0154 27.3584 26.7859C27.1288 26.5563 26.8163 26.4293 26.4917 26.4338C25.8186 26.4338 25.2729 26.9794 25.2729 27.6525V33.275C25.2729 33.9481 25.8186 34.4938 26.4917 34.4938Z" fill="white"/>
</svg>
