<svg width="531" height="538" viewBox="0 0 531 538" fill="none" xmlns="http://www.w3.org/2000/svg">
<g filter="url(#filter0_b_555_810)">
<g filter="url(#filter1_b_555_810)">
<path d="M440.377 164.609H525.308C525.308 164.609 525.465 145.994 506.313 153.982C506.313 153.982 508.64 141.206 495.506 139.08C482.395 136.955 479.196 149.551 479.196 149.551C479.196 149.551 472.103 139.796 462.706 144.942C453.309 150.088 458.992 158.054 458.992 158.054L440.377 164.609Z" fill="url(#paint0_radial_555_810)" fill-opacity="0.3"/>
<path d="M478.791 149.846L478.791 149.845L478.788 149.841L478.775 149.823C478.763 149.807 478.744 149.782 478.718 149.749C478.667 149.683 478.59 149.585 478.487 149.461C478.282 149.213 477.978 148.863 477.582 148.456C476.79 147.643 475.643 146.614 474.215 145.744C471.369 144.011 467.442 142.919 462.946 145.381C460.664 146.631 459.336 148.029 458.602 149.398C457.868 150.767 457.707 152.143 457.823 153.381C457.939 154.624 458.334 155.724 458.704 156.517C458.888 156.913 459.065 157.228 459.195 157.444C459.259 157.551 459.312 157.633 459.348 157.687C459.359 157.705 459.369 157.719 459.377 157.731C459.381 157.737 459.385 157.743 459.388 157.747L459.397 157.761L459.399 157.763L459.399 157.763L459.399 157.763L459.399 157.764L459.785 158.304L459.158 158.525L443.302 164.109H524.793C524.79 164.033 524.785 163.949 524.779 163.858C524.747 163.379 524.68 162.701 524.541 161.912C524.263 160.327 523.7 158.321 522.572 156.571C521.451 154.831 519.776 153.347 517.247 152.759C514.705 152.169 511.235 152.47 506.505 154.443L505.656 154.797L505.821 153.892L505.821 153.892L505.821 153.892L505.822 153.887L505.826 153.863C505.829 153.842 505.835 153.809 505.841 153.765C505.854 153.677 505.872 153.545 505.89 153.375C505.926 153.035 505.965 152.544 505.971 151.947C505.984 150.75 505.867 149.141 505.356 147.475C504.847 145.811 503.947 144.098 502.397 142.674C500.849 141.251 498.626 140.092 495.426 139.574L495.426 139.574C489.07 138.544 485.16 141.07 482.816 143.842C481.636 145.237 480.85 146.701 480.358 147.818C480.113 148.376 479.942 148.845 479.833 149.172C479.779 149.336 479.74 149.464 479.715 149.55C479.702 149.593 479.693 149.625 479.688 149.646L479.682 149.669L479.68 149.674L479.68 149.675L479.68 149.675L479.68 149.675L479.418 150.707L478.791 149.846ZM478.791 149.846L478.791 149.846L478.791 149.846Z" stroke="white" stroke-opacity="0.2"/>
</g>
<g filter="url(#filter2_b_555_810)">
<path d="M166.767 133.263H11.2461C11.2461 133.263 16.7277 112.612 42.8828 124.112C42.8828 124.112 53.0853 99.7915 74.5194 116.527C74.5194 116.527 80.2695 95.3615 116.09 95.6076C151.866 95.8985 166.767 133.263 166.767 133.263Z" fill="url(#paint1_radial_555_810)" fill-opacity="0.3"/>
<path d="M43.3438 124.306L43.1471 124.774L42.6815 124.57C29.7334 118.876 22.0317 121.182 17.5693 124.765C15.3176 126.573 13.8546 128.734 12.9539 130.448C12.5041 131.305 12.1963 132.046 12.0015 132.572C11.9766 132.639 11.9535 132.703 11.9322 132.763H166.01C165.904 132.522 165.769 132.222 165.604 131.868C165.131 130.856 164.414 129.406 163.443 127.664C161.499 124.178 158.538 119.529 154.468 114.873C146.327 105.56 133.782 96.2515 116.086 96.1076C98.2825 95.9853 88.0147 101.181 82.2043 106.349C79.2945 108.937 77.4901 111.528 76.4148 113.466C75.8771 114.436 75.5217 115.241 75.3018 115.801C75.1919 116.081 75.1159 116.299 75.0678 116.445C75.0438 116.519 75.0268 116.574 75.0161 116.61C75.0107 116.628 75.0069 116.641 75.0046 116.649L75.0022 116.657L75.0019 116.658L43.3438 124.306ZM43.3438 124.306L43.3438 124.305L43.3439 124.305L43.3449 124.303L43.3498 124.291L43.3706 124.243C43.3894 124.201 43.4182 124.136 43.4569 124.052C43.5344 123.883 43.6516 123.636 43.8089 123.326C44.1235 122.706 44.5977 121.836 45.233 120.843C46.506 118.853 48.4141 116.388 50.9665 114.441C53.514 112.499 56.6915 111.081 60.5244 111.152C64.3594 111.223 68.9142 112.785 74.2117 116.921L74.8047 117.384L75.0018 116.659L43.3438 124.306Z" stroke="white" stroke-opacity="0.2"/>
</g>
</g>
<path d="M451.879 334.354C453.378 334.645 454.922 334.802 456.421 334.69L453.848 344.557C453.848 344.557 456.264 347.242 451.499 349.278C446.733 351.314 447.225 348.898 447.471 343.55C447.628 340.753 449.821 337.151 451.879 334.354Z" fill="#FF96A9"/>
<path d="M451.879 334.355C453.758 331.804 455.548 329.902 455.548 329.902L457.54 330.439L456.443 334.69C454.899 334.802 453.378 334.668 451.879 334.355Z" fill="#ED7E94"/>
<path d="M455.571 325.361C454.474 323.191 451.968 321.021 450.111 318.425C452.08 317.933 453.982 317.799 453.982 317.799C470.427 320.73 466.355 334.378 458.434 332.834C456.175 332.387 454.071 331.447 452.282 330.261C454.944 329.814 456.935 328.091 455.571 325.361Z" fill="#ED7E94"/>
<path d="M445.838 320.975C446.33 319.678 448.276 318.895 450.133 318.425C451.968 321.02 454.496 323.19 455.593 325.361C456.957 328.09 454.944 329.813 452.326 330.283C447.806 327.33 445.099 322.9 445.838 320.975Z" fill="#FF96A9"/>
<path d="M459.217 325.583C459.217 325.583 442.123 315.246 450.939 306.968C459.732 298.69 474.655 311.689 471.344 331.579C471.344 331.579 480.897 334.645 475.416 349.568C475.416 349.568 512.78 374.694 481.278 399.171C449.775 423.648 427.737 368.563 444.562 355.698L453.87 344.601L458.21 327.888C458.21 327.888 462.551 329.029 462.417 326.478C462.282 323.928 459.217 325.583 459.217 325.583Z" fill="#3F327A"/>
<path d="M530.568 298.847C530.568 302.472 527.414 316.747 523.297 329.746C522.536 329.858 521.753 329.88 520.992 329.88C525.31 318.76 528.465 307.148 530.031 295.268C530.389 296.565 530.568 297.796 530.568 298.847Z" fill="#ED7E94"/>
<path d="M514.123 328.157C518.307 319.498 522.983 308.468 523.274 301.89C523.274 301.89 520.388 307.26 516.987 304.418C513.586 301.555 512.557 296.118 518.508 288.466C523.408 282.156 528.42 289.249 530.053 295.268C528.509 307.126 525.332 318.738 521.014 329.88C518.598 329.858 516.249 329.276 514.123 328.157Z" fill="#FF96A9"/>
<path d="M390.753 371.115C392.565 370.511 394.4 370.086 395.921 369.639C397.152 369.236 398.427 368.967 399.68 368.855C406.101 378.857 416.572 386.934 415.588 399.754C415.14 403.423 412.635 406.063 409.346 407.92C405.99 404.296 406.482 396.04 412.075 396.04C412.075 396.084 398.696 385.748 390.753 371.115Z" fill="#FF96A9"/>
<path d="M415.611 399.777C416.595 386.957 406.102 378.857 399.703 368.879C401.202 368.744 402.724 368.812 404.2 369.08C410.196 377.425 421.406 393.96 420.779 400.336C419.929 409.017 414.828 411.725 410.42 408.838C410.04 408.592 409.704 408.301 409.391 407.966C412.635 406.086 415.141 403.446 415.611 399.777Z" fill="#ED7E94"/>
<path d="M450.85 354.29C454.586 351.963 457.942 348.987 460.672 345.318C476.848 346.66 499.423 344.826 507.478 341C507.478 341 510.655 335.406 514.145 328.157C516.271 329.254 518.62 329.835 521.037 329.88C518.62 336.122 515.846 342.23 512.803 348.115C493.226 355.923 471.68 356.147 450.85 354.29Z" fill="#F73E91"/>
<path d="M450.85 354.29C471.68 356.147 493.226 355.946 512.781 348.138C515.824 342.253 518.598 336.145 521.014 329.903C521.775 329.903 522.536 329.858 523.319 329.769C520.679 338.114 517.636 345.922 514.772 350.039C514.772 350.039 486.38 360.063 462.932 360.242C454.721 360.309 447.964 359.392 442.661 358.206C445.503 357.199 448.255 355.901 450.85 354.29Z" fill="#DB4A87"/>
<path d="M440.915 340.843C445.994 341.961 450.156 343.729 450.156 343.729C453.042 344.467 456.666 345.004 460.649 345.318C456.017 351.515 449.596 355.789 442.638 358.183C442.168 358.071 441.698 357.959 441.251 357.847C439.886 352.343 440.11 346.436 440.915 340.843Z" fill="#FF96A9"/>
<path d="M440.289 349.747C440.334 352.477 440.603 355.207 441.251 357.847C432.324 355.654 427.894 352.723 427.894 352.723C427.894 352.723 413.955 362.232 400.531 364.111C400.531 364.111 402.008 366.058 404.178 369.056C402.701 368.788 401.202 368.72 399.681 368.855C398.092 366.394 396.772 363.821 395.922 361.024C410.756 358.07 424.426 348.248 440.289 349.747Z" fill="#DB4A87"/>
<path d="M433.666 339.947C436.06 339.947 438.588 340.328 440.915 340.82C440.49 343.751 440.244 346.749 440.289 349.747C424.448 348.248 410.755 358.07 395.944 361.023C396.794 363.82 398.136 366.393 399.703 368.854C398.427 368.966 397.174 369.212 395.944 369.637C394.422 370.063 392.588 370.51 390.775 371.114C389.165 368.138 387.777 365.006 386.771 361.739C386.748 361.739 409.838 339.947 433.666 339.947Z" fill="#F73E91"/>
<path d="M418.833 451.259C431.452 455.868 441.52 462.177 447.896 466.809C437.291 465.958 426.619 464.795 415.991 463.162C417.692 459.425 418.676 455.353 418.833 451.259Z" fill="#FF96A9"/>
<path d="M447.874 466.786C452.796 470.365 455.526 472.916 455.526 472.916C440.468 472.402 426.216 470.164 413.642 467.278C414.537 465.958 415.297 464.571 415.968 463.139C426.596 464.772 437.268 465.935 447.874 466.786Z" fill="#ED7E94"/>
<path d="M435.121 400.962C440.311 402.327 443.779 406.533 438.768 417.496C431.004 434.433 412.59 441.548 402.634 444.255C416.528 432.42 426.641 416.825 435.121 400.962Z" fill="#DB4A87"/>
<path d="M420.578 401.701C420.578 401.701 429.035 399.374 435.121 400.962C426.664 416.825 416.551 432.42 402.634 444.256C398.607 445.352 395.944 445.71 395.944 445.71C404.223 446.672 411.919 448.708 418.833 451.236C418.699 455.353 417.714 459.425 415.991 463.139C398.629 460.477 381.446 456.584 365.068 450.722C380.394 423.224 420.578 401.701 420.578 401.701Z" fill="#F73E91"/>
<path d="M415.991 463.139C415.32 464.571 414.537 465.981 413.664 467.278C384.869 460.7 365.001 450.811 365.001 450.811C365.023 450.789 365.046 450.744 365.046 450.722C381.423 456.584 398.607 460.477 415.991 463.139Z" fill="#DB4A87"/>
<path d="M427.513 404.564C430.221 353.999 447.337 401.678 447.337 401.678C447.337 401.678 462.909 425.64 463.938 474.348C463.938 474.348 466.399 460.477 487.386 442.689C490.943 446.538 493.36 451.415 494.389 456.584C485.596 471.417 473.961 488.645 461.387 500.615C461.387 500.638 424.806 455.129 427.513 404.564Z" fill="#F73E91"/>
<path d="M510.341 426.692C510.341 426.692 504.144 440.161 494.389 456.606C493.36 451.416 490.943 446.56 487.386 442.712C493.404 437.611 500.922 432.196 510.341 426.692Z" fill="#FF96A9"/>
<path d="M446.89 398.3C446.957 399.441 447.113 400.582 447.337 401.701C447.337 401.701 436.889 410.538 420.578 401.701C420.578 401.701 420.287 399.911 420.041 397.024C428.498 400.403 437.873 402.931 446.89 398.3Z" fill="#3F327A"/>
<path d="M427.044 356.639L429.103 347.13C429.103 347.13 432.392 345.34 440.357 346.034C440.088 350.262 440.312 354.513 441.408 358.563C447.024 356.84 452.327 353.887 456.712 349.725C459.979 350.822 463.581 352.209 467.541 353.954C467.541 353.954 445.458 377.581 446.867 398.277C437.851 402.908 428.476 400.38 420.041 396.979C419.638 391.99 419.459 383.667 421.339 375.254C423.375 371.719 426.574 369.034 430.356 367.781C423.308 368.721 415.88 365.342 413.351 359.011C413.329 358.832 413.307 358.675 413.284 358.496C412.076 347.98 427.044 356.639 427.044 356.639Z" fill="#F73E91"/>
<path d="M413.351 359.033C415.901 365.365 423.307 368.743 430.355 367.804C426.574 369.057 423.374 371.742 421.338 375.277C421.763 373.352 422.3 371.451 422.971 369.549C422.971 369.571 414.76 369.057 413.351 359.033Z" fill="#DB4A87"/>
<path d="M440.379 346.056C444.495 346.414 449.91 347.465 456.734 349.747C452.371 353.909 447.046 356.862 441.43 358.585C440.334 354.535 440.11 350.262 440.379 346.056Z" fill="#FF96A9"/>
<path d="M434.562 368.811C434.562 368.811 440.804 378.835 452.908 367.178C452.908 367.155 445.122 373.487 434.562 368.811Z" fill="#DB4A87"/>
<path d="M223.451 376.044C222.512 375.731 221.415 375.351 220.229 374.926C220.587 373.986 220.968 373.069 221.415 372.174C222.512 372.666 223.63 373.158 224.749 373.628C224.257 374.389 223.832 375.194 223.451 376.044Z" fill="#E8C3EB"/>
<path d="M228.151 369.914C226.786 370.899 225.667 372.196 224.75 373.628C223.631 373.158 222.512 372.666 221.416 372.174C222.244 370.541 223.228 369.042 224.436 367.699C225.779 368.527 227.032 369.265 228.151 369.914Z" fill="#E8C3EB"/>
<path d="M152.257 304.09C153.041 302.233 158.008 301.45 158.008 301.45C158.008 301.45 157.046 303.464 156.486 306.574C154.898 306.507 153.287 306.238 151.676 305.947C151.9 305.12 152.101 304.471 152.257 304.09Z" fill="#ED7E94"/>
<path d="M156.486 306.574C155.972 309.46 155.793 313.331 157.068 317.447C159.708 325.994 151.631 323.667 150.714 318.544C149.976 314.494 150.893 309.012 151.676 305.947C153.287 306.238 154.898 306.507 156.486 306.574Z" fill="#FF96A9"/>
<path d="M152.012 297.734C152.549 295.094 156.218 294.244 158.075 291.738L161.745 295.408L160.358 296.347L161.745 301.001C161.745 301.001 160.805 302.455 157.829 303.373C154.652 302.545 151.542 301.023 152.012 297.734Z" fill="#FF96A9"/>
<path d="M144.181 296.795C144.181 296.795 144.807 289.188 155.815 289.502L158.052 291.739C156.218 294.245 152.526 295.095 151.989 297.735C151.519 301.047 154.629 302.546 157.806 303.351C156.419 303.776 154.607 304.089 152.235 304.089L144.181 296.795Z" fill="#ED7E94"/>
<path d="M149.148 295.229C149.148 295.229 160.022 293.529 166.69 276.905C166.69 276.905 149.305 279.232 140.602 293.507C140.602 293.507 139.349 300.331 152.236 304.067L148.209 297.4C148.209 297.4 145.882 298.496 146.352 295.699C146.822 292.903 149.148 295.229 149.148 295.229Z" fill="#3F327A"/>
<path d="M96.0763 216.854C96.0317 216.987 95.9871 217.121 95.9648 217.255C95.9648 217.255 95.9871 217.099 96.0763 216.854Z" fill="#F6DEF8"/>
<path d="M102.186 227.796C102.499 229.004 102.901 230.391 103.349 231.89C102.275 232.942 101 233.837 99.6349 234.598C99.3664 233.367 99.1427 232.136 98.9189 230.906C100.194 230.011 101.313 228.982 102.186 227.796Z" fill="#E8C3EB"/>
<path d="M99.4776 234.685C98.5827 235.155 97.643 235.58 96.6809 235.938C96.4348 234.797 96.211 233.656 95.9873 232.515C96.8151 232.18 97.5982 231.754 98.3589 231.285C98.5603 231.173 98.7393 231.016 98.9407 230.904C99.1644 232.135 99.4105 233.365 99.6566 234.596C99.5895 234.618 99.5224 234.663 99.4776 234.685Z" fill="#E8C3EB"/>
<path d="M233.363 377.208C232.804 383.383 237.815 387.522 242.894 386.426C237.547 394.212 230.365 383.36 232.378 380.139C232.378 380.139 229.694 381.996 228.866 379.714C228.038 377.431 228.038 377.431 228.038 377.431C228.038 377.431 226.36 376.962 223.474 375.999C223.854 375.172 224.279 374.366 224.771 373.605C227.792 374.881 230.857 376.089 234.012 377.185H233.363V377.208Z" fill="#ED7E94"/>
<path d="M228.15 369.914C232.58 372.509 235.063 373.74 235.063 373.74C235.063 373.74 248.734 376.649 243.342 385.755C243.185 386.001 243.051 386.225 242.894 386.448C237.793 387.522 232.804 383.383 233.363 377.23H233.989C230.835 376.134 227.769 374.926 224.749 373.65C225.666 372.196 226.763 370.899 228.15 369.914Z" fill="#FF96A9"/>
<path d="M158.836 330.021C179.398 346.354 198.594 361.792 221.416 372.173C220.968 373.046 220.566 373.963 220.23 374.925C208.17 370.585 184.566 360.494 166.712 342.908C162.796 339.06 159.284 335.57 156.106 332.46C157.27 330.961 158.21 329.708 158.836 330.021Z" fill="#E8C3EB"/>
<path d="M138.633 315.165C138.633 315.165 138.61 315.143 138.633 315.165C134.404 310.959 132.592 309.169 132.592 309.169C132.592 309.169 106.28 281.448 96.6592 235.939C97.6213 235.581 98.561 235.156 99.4559 234.686C99.5007 234.664 99.5678 234.619 99.6125 234.597C105.631 263.302 120.845 289.234 138.319 312.01C138.454 313.062 138.543 314.113 138.633 315.165Z" fill="#E8C3EB"/>
<path d="M153.645 312.279C183.984 341.432 210.43 359.219 224.414 367.699C223.206 369.042 222.221 370.541 221.393 372.174C198.594 361.792 179.375 346.354 158.814 330.021C158.187 329.708 157.247 330.961 156.084 332.46C148.052 324.54 142.369 318.902 138.61 315.165C138.52 314.114 138.431 313.062 138.319 312.011C120.845 289.234 105.631 263.303 99.6123 234.597C100.999 233.836 102.252 232.941 103.326 231.89C108.293 248.312 121.539 281.403 153.645 312.279Z" fill="#F6DEF8"/>
<path d="M85.8975 204.302C86.77 203.116 88.3362 202.624 90.954 203.318C91.0211 203.34 91.1106 203.363 91.1777 203.385C99.7469 205.846 99.0533 206.674 96.0552 216.854C95.9657 217.1 95.9433 217.257 95.9433 217.257C95.9881 217.123 96.0328 216.988 96.0552 216.854C96.4132 215.758 97.6661 212.76 100.687 212.088C100.687 212.088 101.716 205.466 105.452 205.264C105.452 205.264 105.251 216.854 100.687 221.418C100.687 221.418 101.067 223.745 102.163 227.817C101.291 229.003 100.15 230.055 98.8967 230.927C98.2255 227.168 97.6885 223.365 97.3529 219.517C89.2535 218.98 86.1212 211.44 85.8975 204.302Z" fill="#FF96A9"/>
<path d="M85.8969 204.302C86.0983 211.439 89.253 218.979 97.3523 219.471C97.6879 223.32 98.2249 227.123 98.8961 230.882C98.6947 231.016 98.5158 231.15 98.3144 231.262C97.5761 231.732 96.7706 232.135 95.9428 232.493C95.3834 229.472 94.8688 226.407 94.4661 223.23C94.4661 223.23 87.4183 222.604 86.1877 216.809C85.3823 212.893 83.9504 206.92 85.8969 204.302Z" fill="#ED7E94"/>
<path d="M140.668 363.179C135.903 345.638 134.046 319.438 133.732 305.835C135.254 307.916 136.775 309.974 138.341 312.01C140.109 329.149 138.767 346.265 140.668 363.179Z" fill="#E8C3EB"/>
<path d="M133.844 297.534C133.844 297.534 145.434 319.214 166.689 329.081C166.689 329.081 166.286 358.66 170.448 374.567C165.682 379.244 159.216 380.989 152.683 381.235C151.944 381.011 151.206 380.765 150.423 380.474C146.284 378.908 143.107 372.173 140.668 363.202C138.744 346.287 140.086 329.148 138.341 312.01C136.775 309.974 135.254 307.916 133.732 305.835C133.643 301.718 133.687 298.765 133.844 297.534Z" fill="#F6DEF8"/>
<path d="M170.47 374.567C170.783 375.798 171.141 376.939 171.522 377.991C171.522 377.991 165.749 385.217 152.705 381.235C159.216 380.989 165.704 379.244 170.47 374.567Z" fill="#5F47C2"/>
<path d="M181.814 458.559C171.88 410.12 134.628 367.9 89.9024 347.406C106.459 370.809 107.265 400.499 111.627 428.288C105.363 418.286 76.411 369.802 75.874 328.008C75.874 328.008 128.654 331.051 161.723 382.443C161.723 382.443 167.674 381.996 171.5 377.991C171.5 377.991 199.758 426.319 200.071 468.135C200.071 468.135 149.148 487.601 106.929 483.551C106.929 483.551 123.105 472.207 141.139 463.236C154.183 459.32 167.92 457.62 181.814 458.559Z" fill="#7860DC"/>
<path d="M103.192 359.04C103.192 359.04 118.72 387.611 112.813 430.144C112.813 430.144 112.388 429.495 111.627 428.287C107.264 400.499 106.437 370.808 89.9023 347.405C134.605 367.9 171.88 410.119 181.814 458.559C167.92 457.641 154.183 459.319 141.139 463.235C153.086 457.283 165.839 452.384 175.236 452.495C175.236 452.495 155.055 390.095 103.192 359.04Z" fill="#5F47C2"/>
<path d="M113.44 424.954L116.348 435.111L81.5791 417.525L113.44 424.954Z" fill="#3F327A"/>
<path d="M112.544 479.77L134.448 504.247L100.619 480.553L112.544 479.77Z" fill="#3F327A"/>
<path d="M125.924 315.12C135.478 317.134 145.859 319.55 155.055 316.105C155.323 316.082 155.569 316.082 155.838 316.038C155.838 316.038 120.509 334.049 83.2346 310.444L75.001 286.37L75.0905 286.325C89.6335 299.526 106.168 310.31 125.924 315.12Z" fill="#F73E91"/>
<path d="M125.924 315.12C106.168 310.309 89.6339 299.548 75.1133 286.347L98.0018 277.397C98.0018 277.397 111.538 319.416 155.078 316.104C145.86 319.55 135.478 317.133 125.924 315.12Z" fill="#FC5BA3"/>
<path d="M155.524 318.297C156.253 318.297 156.844 317.185 156.844 315.814C156.844 314.442 156.253 313.33 155.524 313.33C154.795 313.33 154.204 314.442 154.204 315.814C154.204 317.185 154.795 318.297 155.524 318.297Z" fill="#DB4A87"/>
<path d="M154.227 324.069C154.462 324.069 154.652 323.658 154.652 323.152C154.652 322.645 154.462 322.234 154.227 322.234C153.992 322.234 153.802 322.645 153.802 323.152C153.802 323.658 153.992 324.069 154.227 324.069Z" fill="#EAC7ED"/>
<path d="M154.026 336.218C154.26 336.218 154.451 335.808 154.451 335.301C154.451 334.794 154.26 334.384 154.026 334.384C153.791 334.384 153.601 334.794 153.601 335.301C153.601 335.808 153.791 336.218 154.026 336.218Z" fill="#EAC7ED"/>
<path d="M154.026 349.665C154.26 349.665 154.451 349.254 154.451 348.747C154.451 348.241 154.26 347.83 154.026 347.83C153.791 347.83 153.601 348.241 153.601 348.747C153.601 349.254 153.791 349.665 154.026 349.665Z" fill="#EAC7ED"/>
<path d="M154.831 360.741C155.066 360.741 155.256 360.33 155.256 359.824C155.256 359.317 155.066 358.906 154.831 358.906C154.597 358.906 154.406 359.317 154.406 359.824C154.406 360.33 154.597 360.741 154.831 360.741Z" fill="#EAC7ED"/>
<path d="M156.419 373.091C156.654 373.091 156.844 372.681 156.844 372.174C156.844 371.668 156.654 371.257 156.419 371.257C156.184 371.257 155.994 371.668 155.994 372.174C155.994 372.681 156.184 373.091 156.419 373.091Z" fill="#EAC7ED"/>
<g filter="url(#filter3_b_555_810)">
<path d="M274.578 224.707L214.258 465.047C214.258 465.047 194.681 446.208 174.208 472.408C174.208 472.408 141.453 465.114 141.453 498.228C141.453 498.228 88.3823 462.295 50.2348 511.16C50.2348 511.16 8.08243 495.319 0.654297 537.494H511.607C511.607 537.494 518.162 477.375 464.107 494.133C464.107 494.133 472.877 460.125 432.045 474.042C432.045 474.042 433.544 411.171 356.287 443.837C356.287 443.837 325.098 420.814 305.745 458.492C305.745 458.492 303.552 425.714 259.61 442.584L280.865 225.96L274.578 224.707Z" fill="url(#paint2_radial_555_810)" fill-opacity="0.3"/>
<path d="M305.245 458.522L305.246 458.525V458.525L305.366 460.323L306.189 458.72C310.993 449.368 316.508 443.826 322.05 440.744C327.59 437.662 333.196 437.018 338.222 437.533C343.254 438.048 347.7 439.724 350.893 441.278C352.488 442.054 353.766 442.797 354.644 443.345C355.083 443.619 355.422 443.844 355.65 444C355.677 444.019 355.703 444.037 355.727 444.054C355.804 444.106 355.864 444.148 355.907 444.179C355.922 444.19 355.935 444.199 355.945 444.207L355.971 444.225L355.986 444.236L355.99 444.239L355.99 444.239L356.219 444.408L356.482 444.297C375.75 436.15 390.051 433.986 400.657 435.272C411.246 436.556 418.184 441.283 422.747 447.001C427.32 452.733 429.524 459.486 430.582 464.826C431.11 467.493 431.351 469.799 431.46 471.437C431.514 472.256 431.535 472.907 431.543 473.352C431.547 473.575 431.547 473.746 431.547 473.86C431.547 473.917 431.546 473.961 431.546 473.989L431.545 474.021L431.545 474.028L431.545 474.03C431.545 474.03 431.545 474.03 431.572 474.03L431.545 474.03L431.528 474.746L432.206 474.515C442.373 471.05 449.373 470.597 454.159 471.795C458.913 472.985 461.528 475.814 462.929 479.066C464.34 482.344 464.522 486.071 464.34 489.006C464.25 490.469 464.069 491.724 463.912 492.612C463.833 493.056 463.76 493.407 463.707 493.647C463.693 493.713 463.68 493.77 463.668 493.819C463.659 493.858 463.651 493.892 463.645 493.919C463.637 493.95 463.632 493.973 463.628 493.988L463.624 494.004L463.623 494.008L463.623 494.008L463.399 494.876L464.255 494.611C477.695 490.444 487.283 491.082 494.121 494.291C500.957 497.5 505.134 503.322 507.663 509.713C510.193 516.109 511.058 523.038 511.287 528.384C511.401 531.053 511.356 533.321 511.283 534.921C511.247 535.72 511.203 536.352 511.169 536.783C511.163 536.86 511.157 536.93 511.151 536.994H1.25301C3.13858 526.869 7.06326 520.235 11.8674 515.96C16.7669 511.601 22.626 509.656 28.2869 509.008C33.9507 508.36 39.396 509.014 43.4329 509.834C45.4496 510.243 47.1102 510.693 48.2652 511.04C48.8425 511.214 49.2932 511.362 49.5985 511.466C49.7511 511.517 49.8674 511.559 49.9449 511.586C49.9837 511.6 50.0127 511.611 50.0318 511.618L50.053 511.626L50.0579 511.627L50.0589 511.628C50.0589 511.628 50.0589 511.628 50.0632 511.617L50.0589 511.628L50.4029 511.757L50.629 511.467C69.5686 487.207 92.1758 484.011 110.071 486.863C119.03 488.292 126.81 491.238 132.353 493.83C135.123 495.125 137.332 496.331 138.847 497.211C139.604 497.652 140.188 498.011 140.581 498.259C140.675 498.318 140.758 498.371 140.829 498.417C140.908 498.468 140.974 498.51 141.026 498.544C141.076 498.577 141.113 498.602 141.137 498.618L141.165 498.636L141.171 498.641L141.173 498.642C141.173 498.642 141.173 498.642 141.188 498.619L141.173 498.642L141.953 499.17V498.228C141.953 490.033 143.978 484.396 146.967 480.53C149.956 476.662 153.947 474.518 157.967 473.382C161.99 472.244 166.025 472.121 169.063 472.285C170.58 472.367 171.844 472.521 172.727 472.654C173.168 472.72 173.514 472.781 173.748 472.826C173.865 472.848 173.954 472.866 174.013 472.878C174.043 472.884 174.065 472.889 174.08 472.892L174.096 472.895L174.099 472.896L174.1 472.896L174.408 472.965L174.602 472.716C179.679 466.22 184.674 462.547 189.291 460.668C193.906 458.791 198.172 458.693 201.816 459.394C205.464 460.096 208.493 461.602 210.613 462.936C211.671 463.603 212.5 464.225 213.063 464.678C213.344 464.905 213.558 465.089 213.701 465.216C213.729 465.241 213.755 465.264 213.777 465.284C213.812 465.316 213.84 465.341 213.861 465.361C213.879 465.377 213.892 465.39 213.9 465.397L213.909 465.406L213.911 465.408L213.911 465.408L214.533 466.006L214.743 465.169L274.947 225.29L280.323 226.362L259.112 442.535L259.033 443.341L259.789 443.051C281.656 434.655 292.952 438.672 298.801 444.564C301.748 447.533 303.362 451.025 304.239 453.785C304.677 455.164 304.929 456.355 305.072 457.2C305.143 457.622 305.187 457.956 305.212 458.184C305.225 458.298 305.234 458.385 305.239 458.443C305.241 458.472 305.243 458.493 305.244 458.507L305.245 458.522Z" stroke="white" stroke-opacity="0.2"/>
</g>
<path d="M294.379 251.667C293.394 225.915 300.576 200.767 310.152 177.185C308.765 178.124 307.512 179.109 306.438 180.138C299.301 187.096 289.188 251.041 289.188 251.041C272.989 266.635 264.219 317.581 264.219 317.581L266.076 314.963C267.441 310.13 268.761 305.297 270.148 300.219C275.092 281.76 281.782 265.338 294.379 251.667Z" fill="#322666"/>
<path d="M306.931 178.416C306.819 179.042 306.662 179.624 306.461 180.138C306.461 180.138 316.775 185.687 327.604 171.524C326.508 171.815 325.389 172.039 324.226 172.151C319.617 177.095 313.71 180.183 306.931 178.416Z" fill="#322666"/>
<path d="M265.471 311.182L255.537 313.016L274.488 349.195L265.471 311.182Z" fill="#322666"/>
<path d="M272.048 216.323L271.057 221.51L286.022 224.371L287.014 219.185L272.048 216.323Z" fill="#FFCC46"/>
<path d="M278.381 222.626C271.49 221.306 266.993 214.661 268.29 207.77L272.832 183.964L297.757 188.73L293.215 212.535C291.917 219.426 285.272 223.924 278.381 222.626Z" fill="#FFCC46"/>
<path d="M257.887 208.128C253.3 207.255 250.28 202.803 251.152 198.216L270.863 95.162C272.631 85.9663 281.491 79.9477 290.687 81.7153L267.798 201.393C266.926 206.002 262.496 209 257.887 208.128Z" fill="#FFDD85"/>
<path d="M255.873 199.112L275.584 96.0581C277.038 88.5181 283.281 83.1036 290.552 82.3876L290.687 81.7164C281.491 79.9489 272.631 85.9898 270.863 95.1631L251.152 198.217C250.279 202.804 253.277 207.256 257.886 208.129C258.714 208.285 259.52 208.308 260.303 208.241C257.059 206.563 255.157 202.893 255.873 199.112Z" fill="#FFCC46"/>
<path d="M303.082 217.415C298.495 216.542 295.475 212.09 296.347 207.503L319.236 87.8252L328.901 89.6822C332.75 90.4206 335.278 94.1346 334.54 97.9829L312.994 210.703C312.099 215.267 307.669 218.287 303.082 217.415Z" fill="#FFDD85"/>
<path d="M300.777 208.353L323.666 88.6754L319.236 87.8252L296.347 207.503C295.475 212.09 298.473 216.542 303.082 217.415C303.842 217.571 304.603 217.594 305.364 217.527C302.008 215.893 300.039 212.179 300.777 208.353Z" fill="#FFCC46"/>
<path d="M298.294 197.367L269.633 191.885L301.829 23.4769C303.35 15.5565 313.24 -1.40288 321.16 0.0961655C329.08 1.61759 332.011 21.0381 330.49 28.9585L298.294 197.367Z" fill="#FFDD85"/>
<path d="M323.531 1.16978C322.793 0.632804 322.01 0.252451 321.16 0.0958335C313.24 -1.42559 303.35 15.5562 301.829 23.4765L269.633 191.885L274.622 192.847L306.818 24.4386C308.161 17.3685 316.193 3.09393 323.531 1.16978Z" fill="#FFCC46"/>
<path d="M297.063 189.133C283.639 186.56 274.846 173.606 277.396 160.181L284.757 121.631C287.33 108.207 300.285 99.414 313.709 101.965C327.133 104.538 335.926 117.492 333.376 130.916L326.015 169.467C323.442 182.891 310.487 191.684 297.063 189.133Z" fill="#FF5B41"/>
<path d="M283.214 161.277L290.575 122.727C292.946 110.287 304.268 101.83 316.573 102.68C315.633 102.389 314.671 102.143 313.709 101.941C300.285 99.3684 287.33 108.184 284.758 121.608L277.396 160.158C274.823 173.583 283.639 186.537 297.063 189.11C298.048 189.289 299.032 189.423 299.994 189.49C288.225 185.754 280.842 173.717 283.214 161.277Z" fill="#E8462C"/>
<path d="M245.648 111.742C245.648 111.742 249.832 109.012 251.578 110.108C253.323 111.227 257.126 116.865 255.292 118.991C253.457 121.094 246.342 112.547 246.342 112.547L245.648 111.742Z" fill="#ED7E94"/>
<path d="M309.929 98.0264C312.01 92.5448 303.687 105.544 303.687 105.544C303.687 105.544 303.933 106.059 304.268 106.886C306.349 106.327 308.296 105.32 310.085 104.067C309.437 102.121 309.191 99.9953 309.929 98.0264Z" fill="#ED7E94"/>
<path d="M309.146 84.1318C307.826 88.6737 303.217 92.3207 305.185 96.8849C306.237 99.1 308.139 99.7488 310.264 99.5251C313.553 96.4375 316.82 93.2156 316.753 92.6787C316.619 91.6047 312.278 88.4053 312.278 88.4053L313.24 85.877L309.146 84.1318Z" fill="#FF96A9"/>
<path d="M305.185 96.8636C303.216 92.2993 307.825 88.6524 309.145 84.1105L305.7 82.6338C298.697 85.9227 294.535 101.495 294.535 101.495L303.686 105.545C303.686 105.545 306.975 102.591 310.264 99.5261C308.138 99.7274 306.237 99.101 305.185 96.8636Z" fill="#ED7E94"/>
<path d="M299.994 97.9372C299.994 97.9372 311.562 84.2667 311.383 65.2266C311.383 65.2266 298.652 75.7199 291.537 103.956C291.537 103.956 295.9 108.073 303.686 105.544L301.628 101.025C301.628 101.025 296.415 102.904 296.638 99.8166C296.862 96.729 299.994 97.9372 299.994 97.9372Z" fill="#322666"/>
<path d="M238.019 114.986C236.408 116.575 235.043 118.745 234.17 121.497C232.828 125.748 234.909 132.125 239.518 138.926C240.122 138.815 240.704 138.658 241.263 138.479C239.384 135.682 237.884 132.595 236.878 129.127C235.714 124.518 236.296 119.573 238.019 114.986Z" fill="#ED7E94"/>
<path d="M248.042 133.825C247.55 133.243 247.08 132.639 246.633 132.013C246.633 132.013 255.873 125.592 252.897 117.134C250.638 110.713 243.098 109.997 238.041 114.986C236.296 119.573 235.714 124.495 236.9 129.127C237.907 132.572 239.406 135.66 241.285 138.479C243.881 137.584 246.14 135.906 248.042 133.825Z" fill="#FF96A9"/>
<path d="M300.241 141.745C293.551 149.509 286.436 157.228 278.158 163.605C266.165 157.877 252.226 151.881 243.613 141.566C243.053 141.79 242.494 141.992 241.912 142.148C250.101 152.574 263.883 163.381 280.328 168.706L301.74 145.84L302.814 144.497C302.053 143.513 301.203 142.596 300.241 141.745Z" fill="#E8C3EB"/>
<path d="M328.521 112.637L331.138 109.392L356.51 75.6078L373.94 47.551C373.269 46.9469 372.575 46.3876 371.837 45.8506C357.942 68.5153 343.355 90.8221 325.321 110.601C326.507 111.16 327.536 111.876 328.521 112.637Z" fill="#E8C3EB"/>
<path d="M347.338 69.3441L313.553 110.266L306.035 117.694L281.021 151.747C281.021 151.747 262.563 148.861 250.28 136.331C248.535 138.636 246.208 140.515 243.612 141.589C252.226 151.904 266.165 157.9 278.158 163.628C286.436 157.251 293.551 149.532 300.241 141.768C301.203 142.619 302.075 143.536 302.836 144.52L328.521 112.66C327.559 111.899 326.508 111.183 325.322 110.601C343.355 90.8453 357.943 68.5162 371.837 45.8962C369.689 44.3524 367.273 43.1442 364.745 42.3164L347.338 69.3441Z" fill="#F6DEF8"/>
<path d="M366.758 39.1611L364.744 42.2935C368.123 43.4122 371.322 45.2021 373.94 47.5737L375.618 44.8665C373.291 42.1369 370.248 40.0561 366.758 39.1611Z" fill="#E8C3EB"/>
<path d="M250.28 136.31C249.496 135.527 248.758 134.699 248.042 133.826C245.738 136.332 242.896 138.301 239.54 138.905C240.256 139.979 241.061 141.053 241.912 142.127C245.201 141.277 248.176 139.106 250.28 136.31Z" fill="#E8C3EB"/>
<path d="M362.574 147.741C354.564 162.172 343.556 174.053 332.928 186.381C331.094 180.72 328.185 175.641 324.695 170.898L306.438 180.139C306.438 180.139 296.213 219.986 324.292 202.289C352.349 184.591 360.515 161.233 360.515 161.233C353.982 182.04 362.037 217.928 363.469 223.88C363.021 202.199 364.856 182.063 364.229 160.114C364.095 155.885 363.983 151.657 362.574 147.741Z" fill="#322666"/>
<path d="M329.864 168.325L324.718 170.92C328.208 175.641 331.117 180.743 332.951 186.403C343.579 174.075 354.587 162.172 362.597 147.764C364.006 151.679 364.118 155.908 364.23 160.136C364.879 182.085 363.022 202.222 363.469 223.902C363.604 224.461 363.671 224.752 363.671 224.752C390.989 158.816 380.474 121.116 380.474 121.116C352.887 140.246 329.864 168.325 329.864 168.325Z" fill="#3F327A"/>
<path d="M310.174 177.185C300.598 200.767 293.416 225.915 294.401 251.668C281.782 265.338 275.092 281.761 270.17 300.219C268.76 305.298 267.462 310.131 266.098 314.964L310.89 251.489C329.953 210.03 329.886 168.303 329.886 168.303C329.886 168.303 318.072 171.86 310.174 177.185Z" fill="#3F327A"/>
<path d="M324.225 172.173C323.599 172.24 322.972 172.285 322.323 172.307C311.338 172.352 309.235 160.359 306.684 151.947C305.476 148.255 303.418 144.519 300.24 141.767C299.838 142.236 299.435 142.706 299.032 143.154L301.762 145.861C301.762 145.861 308.877 168.369 306.93 178.437C313.709 180.183 319.616 177.095 324.225 172.173Z" fill="#E8C3EB"/>
<path d="M327.604 171.547C328.365 170.563 329.103 169.489 329.864 168.325C329.864 168.325 329.349 167.565 328.812 166.133C327.47 168.303 325.948 170.361 324.248 172.196C325.389 172.04 326.508 171.838 327.604 171.547Z" fill="#322666"/>
<path d="M331.139 109.392C326.664 105.364 326.664 105.364 326.664 105.364L298.07 142.192L299.032 143.131C299.435 142.662 299.838 142.192 300.241 141.744C303.418 144.519 305.476 148.255 306.684 151.924C309.235 160.359 311.338 172.352 322.324 172.285C322.972 172.262 323.599 172.217 324.225 172.15C325.926 170.338 327.47 168.257 328.79 166.087C327.537 162.753 326.15 155.795 330.87 146.376C337.627 132.951 342.975 120.064 331.139 109.392Z" fill="#F6DEF8"/>
<path d="M298.07 125.547L297.578 126.196C297.578 126.196 315.432 144.498 313.352 161.793C312.39 169.825 313.665 170.384 315.298 168.706C316.059 152.754 309.638 135.951 298.07 125.547Z" fill="#E8462C"/>
<path d="M301.471 121.116L298.07 125.546C309.638 135.972 316.081 152.753 315.321 168.683C317.222 166.737 319.594 161.77 319.594 161.77C319.594 161.77 313.262 126.307 301.471 121.116Z" fill="#FF5B41"/>
<path d="M306.035 117.692L315.074 119.325L313.553 110.264C313.553 110.264 311.203 107.49 310.062 104.044C308.272 105.297 306.326 106.304 304.245 106.863C305.207 109.168 306.84 113.933 306.035 117.692Z" fill="#FF96A9"/>
<path d="M304.917 120.736L316.686 126.732L315.858 119.886L321.787 121.072L315.634 109.124L320.333 119.707L315.075 119.327L315.455 124.786L304.917 120.736Z" fill="#E8C3EB"/>
<path d="M315.857 119.886L316.26 123.242L319.571 123.466L318.9 120.49L315.857 119.886Z" fill="#DB4A87"/>
<path d="M306.461 184.591L323.845 179.602C323.845 179.602 333.153 134.317 318.341 121.922C319.975 124.428 321.541 126.822 321.608 129.976C322.123 149.643 318.118 169.176 306.461 184.591Z" fill="#F73E91"/>
<path d="M301.717 167.005L306.438 184.591C318.094 169.153 322.099 149.643 321.562 129.976C321.495 126.822 319.929 124.428 318.296 121.922C318.273 121.922 318.273 121.899 318.251 121.899C318.296 121.899 327.693 147.294 301.717 167.005Z" fill="#FC5BA3"/>
<path d="M332.705 125.658C330.468 127.605 328.118 128.79 327.962 128.857C327.738 128.969 327.47 128.88 327.358 128.656C327.246 128.432 327.335 128.164 327.559 128.052C327.604 128.03 332.839 125.389 335.032 121.608C335.144 121.385 335.435 121.317 335.636 121.452C335.86 121.586 335.927 121.854 335.793 122.056C335.01 123.421 333.869 124.651 332.705 125.658Z" fill="#E8C3EB"/>
<path d="M242.638 140.671C242.919 140.429 242.864 139.907 242.517 139.505C242.169 139.103 241.66 138.974 241.38 139.216C241.099 139.459 241.154 139.981 241.501 140.383C241.849 140.785 242.358 140.914 242.638 140.671Z" fill="#FEF2FE"/>
<path d="M374.226 45.6354C374.516 45.3848 374.547 44.9468 374.297 44.6571C374.046 44.3674 373.608 44.3357 373.319 44.5863C373.029 44.8369 372.997 45.2749 373.248 45.5646C373.498 45.8543 373.936 45.886 374.226 45.6354Z" fill="#FEF2FE"/>
<path d="M372.911 43.7257C374.433 44.4417 375.618 44.8444 375.618 44.8444L381.48 35.3131C381.48 35.3131 384.277 34.2839 386.246 31.957C384.255 33.4337 381.615 34.7314 379.981 35.8277C377.028 37.5505 374.925 40.6381 372.911 43.7257Z" fill="#ED7E94"/>
<path d="M388.125 26.6763C386.38 25.3339 383.203 29.3836 381.614 31.5762C383.203 29.3836 386.38 25.3339 388.125 26.6763C388.08 25.6695 387.812 24.5956 387.319 23.3874C384.456 16.6976 377.408 20.0313 374.611 21.687C373.873 22.1121 373.313 22.7833 373 23.5664L366.758 39.1386C367.944 41.0851 370.785 42.696 372.911 43.7029C374.924 40.6153 377.027 37.5053 379.981 35.8049C381.614 34.7309 384.254 33.4109 386.245 31.9342C387.387 30.6365 388.237 28.8914 388.125 26.6763Z" fill="#FF96A9"/>
<path d="M388.282 26.8097C386.783 25.2882 384.053 28.3535 382.308 30.658C381.726 32.0004 381.391 33.4547 381.48 34.9314C385.149 32.7611 390.765 29.9196 388.282 26.8097Z" fill="#FF96A9"/>
<path d="M382.286 30.659C384.053 28.3545 386.783 25.2893 388.26 26.8107C390.743 29.8983 385.127 32.7621 381.436 34.9324C381.436 35.0667 381.458 35.1785 381.458 35.3128C381.458 35.3128 389.445 34.3283 389.938 27.549C390.363 22.2464 384.523 25.513 382.286 30.659Z" fill="#ED7E94"/>
<path d="M315.678 106.126L315.097 106.752C315.097 106.752 333.354 125.412 329.863 148.614C329.863 148.614 330.11 148.077 330.445 147.137C332.862 132.124 325.814 116.843 315.678 106.126Z" fill="#E8462C"/>
<path d="M318.095 103.553L315.679 106.148C325.814 116.865 332.862 132.124 330.445 147.159C332.459 141.454 338.097 120.4 318.095 103.553Z" fill="#FF5B41"/>
<path d="M311.629 93.2159L313.777 90.2178C313.777 90.2178 315.925 91.5155 315.074 92.5894C314.247 93.6633 311.629 93.2159 311.629 93.2159Z" fill="white"/>
<path d="M362.373 218.912L352.596 220.12L377.207 254.039L362.373 218.912Z" fill="#322666"/>
<defs>
<filter id="filter0_b_555_810" x="-18.7539" y="65.6055" width="574.062" height="129.004" filterUnits="userSpaceOnUse" color-interpolation-filters="sRGB">
<feFlood flood-opacity="0" result="BackgroundImageFix"/>
<feGaussianBlur in="BackgroundImage" stdDeviation="15"/>
<feComposite in2="SourceAlpha" operator="in" result="effect1_backgroundBlur_555_810"/>
<feBlend mode="normal" in="SourceGraphic" in2="effect1_backgroundBlur_555_810" result="shape"/>
</filter>
<filter id="filter1_b_555_810" x="410.377" y="108.839" width="144.932" height="85.7705" filterUnits="userSpaceOnUse" color-interpolation-filters="sRGB">
<feFlood flood-opacity="0" result="BackgroundImageFix"/>
<feGaussianBlur in="BackgroundImage" stdDeviation="15"/>
<feComposite in2="SourceAlpha" operator="in" result="effect1_backgroundBlur_555_810"/>
<feBlend mode="normal" in="SourceGraphic" in2="effect1_backgroundBlur_555_810" result="shape"/>
</filter>
<filter id="filter2_b_555_810" x="-18.7539" y="65.6055" width="215.521" height="97.6572" filterUnits="userSpaceOnUse" color-interpolation-filters="sRGB">
<feFlood flood-opacity="0" result="BackgroundImageFix"/>
<feGaussianBlur in="BackgroundImage" stdDeviation="15"/>
<feComposite in2="SourceAlpha" operator="in" result="effect1_backgroundBlur_555_810"/>
<feBlend mode="normal" in="SourceGraphic" in2="effect1_backgroundBlur_555_810" result="shape"/>
</filter>
<filter id="filter3_b_555_810" x="-29.3457" y="194.707" width="571.202" height="372.787" filterUnits="userSpaceOnUse" color-interpolation-filters="sRGB">
<feFlood flood-opacity="0" result="BackgroundImageFix"/>
<feGaussianBlur in="BackgroundImage" stdDeviation="15"/>
<feComposite in2="SourceAlpha" operator="in" result="effect1_backgroundBlur_555_810"/>
<feBlend mode="normal" in="SourceGraphic" in2="effect1_backgroundBlur_555_810" result="shape"/>
</filter>
<radialGradient id="paint0_radial_555_810" cx="0" cy="0" r="1" gradientUnits="userSpaceOnUse" gradientTransform="translate(519.877 140.23) rotate(157.906) scale(52.2584 37.9795)">
<stop stop-color="white" stop-opacity="0.700689"/>
<stop offset="1" stop-color="#F8FFF8" stop-opacity="0.246825"/>
</radialGradient>
<radialGradient id="paint1_radial_555_810" cx="0" cy="0" r="1" gradientUnits="userSpaceOnUse" gradientTransform="translate(156.822 97.6376) rotate(162.05) scale(93.2016 56.9816)">
<stop stop-color="white" stop-opacity="0.700689"/>
<stop offset="1" stop-color="#F8FFF8" stop-opacity="0.246825"/>
</radialGradient>
<radialGradient id="paint2_radial_555_810" cx="0" cy="0" r="1" gradientUnits="userSpaceOnUse" gradientTransform="translate(479.167 241.586) rotate(140.696) scale(376.642 384.974)">
<stop stop-color="white" stop-opacity="0.700689"/>
<stop offset="1" stop-color="#F8FFF8" stop-opacity="0.246825"/>
</radialGradient>
</defs>
</svg>
