<svg width="55" height="35" viewBox="0 0 55 35" fill="none" xmlns="http://www.w3.org/2000/svg">
<path d="M0 10.0735C0.113184 9.53022 0.20373 8.98693 0.316914 8.44365C1.13184 4.57276 4.07462 1.81107 8.26243 1.5847C12.9709 1.3357 17.6793 1.53942 22.5915 1.53942C22.5915 3.62201 22.4783 5.68196 22.6142 7.74191C22.75 9.71132 22.8179 11.7939 23.497 13.6275C24.7873 17.2041 27.4811 19.3093 31.3972 19.5583C31.7368 19.581 32.0764 19.6036 32.4159 19.6262C32.4385 19.6262 32.4612 19.6715 32.5065 19.7847C32.0311 20.3506 31.5104 20.9392 31.0124 21.5504C31.7594 22.8633 32.4612 24.1536 33.2308 25.3986C33.9778 26.6436 34.0458 27.8208 33.2535 29.0884C32.3254 30.5598 31.4652 32.0538 30.605 33.5705C30.0843 34.476 29.3373 34.9513 28.3186 34.974C27.6395 34.9966 26.9604 35.0193 26.2813 34.974C24.6741 34.8834 23.8139 33.4573 24.5383 31.9859C25.0137 31.0125 25.6249 30.0844 26.2134 29.1563C27.0057 27.866 27.051 26.621 26.1908 25.3533C25.7607 24.7422 25.4664 24.0178 24.9684 23.4745C24.6968 23.1802 24.1308 23.1349 23.6781 22.9991C23.5649 23.3613 23.3385 23.7461 23.3385 24.1083C23.3159 26.372 23.3385 28.6357 23.3159 30.8994C23.3159 33.3894 21.8898 34.9966 19.7619 34.974C17.6793 34.9513 16.2985 33.3441 16.2985 30.922C16.2985 29.2242 16.3438 27.5265 16.2759 25.8287C16.1853 23.8593 15.0987 22.7954 13.2425 22.7501C11.2731 22.7048 10.0734 23.7914 10.0055 25.8514C9.93756 27.5944 9.98283 29.3148 9.98283 31.0578C9.98283 33.3668 8.55671 34.9513 6.49676 34.974C4.45945 34.9966 2.98806 33.3894 2.96542 31.1031C2.94279 28.4772 2.96542 25.8287 2.96542 23.067C1.92413 23.9951 0.973384 24.8327 0.0226382 25.6929C1.3813e-06 20.4864 0 15.28 0 10.0735Z" fill="black"/>
<path d="M0 10.0735C0.113184 9.53022 0.20373 8.98693 0.316914 8.44365C1.13184 4.57276 4.07462 1.81107 8.26243 1.5847C12.9709 1.3357 17.6793 1.53942 22.5915 1.53942C22.5915 3.62201 22.4783 5.68196 22.6142 7.74191C22.75 9.71132 22.8179 11.7939 23.497 13.6275C24.7873 17.2041 27.4811 19.3093 31.3972 19.5583C31.7368 19.581 32.0764 19.6036 32.4159 19.6262C32.4385 19.6262 32.4612 19.6715 32.5065 19.7847C32.0311 20.3506 31.5104 20.9392 31.0124 21.5504C31.7594 22.8633 32.4612 24.1536 33.2308 25.3986C33.9778 26.6436 34.0458 27.8208 33.2535 29.0884C32.3254 30.5598 31.4652 32.0538 30.605 33.5705C30.0843 34.476 29.3373 34.9513 28.3186 34.974C27.6395 34.9966 26.9604 35.0193 26.2813 34.974C24.6741 34.8834 23.8139 33.4573 24.5383 31.9859C25.0137 31.0125 25.6249 30.0844 26.2134 29.1563C27.0057 27.866 27.051 26.621 26.1908 25.3533C25.7607 24.7422 25.4664 24.0178 24.9684 23.4745C24.6968 23.1802 24.1308 23.1349 23.6781 22.9991C23.5649 23.3613 23.3385 23.7461 23.3385 24.1083C23.3159 26.372 23.3385 28.6357 23.3159 30.8994C23.3159 33.3894 21.8898 34.9966 19.7619 34.974C17.6793 34.9513 16.2985 33.3441 16.2985 30.922C16.2985 29.2242 16.3438 27.5265 16.2759 25.8287C16.1853 23.8593 15.0987 22.7954 13.2425 22.7501C11.2731 22.7048 10.0734 23.7914 10.0055 25.8514C9.93756 27.5944 9.98283 29.3148 9.98283 31.0578C9.98283 33.3668 8.55671 34.9513 6.49676 34.974C4.45945 34.9966 2.98806 33.3894 2.96542 31.1031C2.94279 28.4772 2.96542 25.8287 2.96542 23.067C1.92413 23.9951 0.973384 24.8327 0.0226382 25.6929C1.3813e-06 20.4864 0 15.28 0 10.0735Z" fill="url(#paint0_linear_205_795)"/>
<path d="M54.7814 23.8818C54.2607 25.3306 53.9665 26.8925 53.1742 28.1828C50.6162 32.3254 43.9384 32.4612 40.7918 28.5676C39.5015 26.9604 38.7998 25.1495 38.4829 23.1348C38.3697 22.4331 38.2339 21.7313 38.0075 21.0522C37.3058 19.0149 35.7438 17.8831 33.5933 17.7925C27.8209 17.5662 24.4707 14.0348 24.4707 8.26243C24.4707 5.52338 24.4707 2.78433 24.4707 0C28.319 0 32.0767 0 35.8344 0C36.1739 0 36.4908 0.113183 36.8304 0.20373C40.8598 1.2903 43.5083 4.82164 43.4856 9.07736C43.463 12.4729 43.4177 15.8684 43.5083 19.2413C43.5535 20.7353 43.8252 22.2293 44.1647 23.7007C44.5722 25.4664 45.5908 26.2813 47.017 26.2587C48.5336 26.2361 49.507 25.489 49.8918 23.746C50.1635 22.4557 50.8426 22.0709 52.0423 22.1841C53.0157 22.2973 54.1249 21.8219 54.804 22.9764C54.7814 23.2706 54.7814 23.5875 54.7814 23.8818Z" fill="url(#paint1_linear_205_795)"/>
<defs>
<linearGradient id="paint0_linear_205_795" x1="3.25971" y1="3.28246" x2="30.1975" y2="34.974" gradientUnits="userSpaceOnUse">
<stop stop-color="#0B4774"/>
<stop offset="1" stop-color="#5AC9C3"/>
</linearGradient>
<linearGradient id="paint1_linear_205_795" x1="24.4254" y1="0.113184" x2="51.3632" y2="31.352" gradientUnits="userSpaceOnUse">
<stop stop-color="#394355"/>
<stop offset="1" stop-color="#EDAC67"/>
</linearGradient>
</defs>
</svg>
