<svg width="462" height="537" viewBox="0 0 462 537" fill="none" xmlns="http://www.w3.org/2000/svg">
<path d="M239.211 352.69C239.211 352.69 238.08 353.735 239.342 355.215L241.257 355.084L241.126 352.56L239.211 352.69Z" fill="#322666"/>
<path d="M303.36 355.041L302.534 340.679L294.613 341.158L294.83 344.726C296.789 343.899 299.008 343.421 301.228 343.116C299.008 343.421 296.745 343.899 294.83 344.726L295.483 355.519L303.36 355.041Z" fill="#3F327A"/>
<path d="M245.826 350.776C245.565 350.732 245.304 350.689 245.043 350.645L240.865 351.516C240.865 351.516 238.95 354.04 241.126 356.172L290.261 355.824L289.782 347.425C275.899 354.344 260.58 354.431 245.826 350.776Z" fill="#322666"/>
<path d="M286.692 342.028L245 350.645C245.261 350.689 245.522 350.732 245.783 350.776C259.1 354.083 272.896 354.301 285.648 349.252C285.691 346.772 285.909 344.291 286.692 342.028Z" fill="#3F327A"/>
<path d="M289.391 341.462L286.692 342.028C285.866 344.291 285.691 346.772 285.648 349.252C287.041 348.687 288.39 348.121 289.739 347.424L289.391 341.462Z" fill="#322666"/>
<path d="M287.433 348.774C287.737 353.648 289.043 357.565 290.348 357.478C291.698 357.391 292.524 353.387 292.263 348.513C292.22 347.729 292.133 346.946 292.046 346.206C290.523 347.076 288.956 347.816 287.433 348.513C287.389 348.6 287.389 348.687 287.433 348.774Z" fill="#3F327A"/>
<path d="M289.304 339.808C287.998 339.895 287.172 343.769 287.389 348.513C288.956 347.816 290.479 347.076 292.002 346.206C291.524 342.463 290.436 339.721 289.304 339.808Z" fill="#3F327A"/>
<path d="M297.181 343.899L296.92 339.373L289.347 339.808L289.782 347.425C290.914 346.859 292.045 346.25 293.133 345.597C294.352 344.813 295.701 344.291 297.181 343.899Z" fill="#3F327A"/>
<path d="M293.133 345.597C292.002 346.25 290.914 346.859 289.782 347.425L290.392 357.478L297.964 357.043L297.181 343.899C295.701 344.291 294.352 344.813 293.133 345.597Z" fill="#3F327A"/>
<path d="M299.836 348.077C299.748 346.38 299.531 344.77 299.183 343.464C298.617 340.984 297.747 339.33 296.876 339.417C295.919 339.46 295.179 341.636 295.005 344.683C294.918 345.814 294.918 347.076 295.005 348.426C295.309 353.3 296.615 357.217 297.921 357.13C299.27 356.956 300.14 352.952 299.836 348.077Z" fill="white"/>
<path d="M299.836 348.077C299.749 346.38 299.531 344.77 299.183 343.464C298.617 340.984 297.747 339.33 296.877 339.417C296.746 339.417 296.615 339.46 296.485 339.591C297.181 340.07 297.834 341.506 298.269 343.508C298.574 344.857 298.791 346.424 298.922 348.121C299.183 352.473 298.53 356.129 297.442 356.956C297.616 357.086 297.79 357.13 297.965 357.13C299.27 356.956 300.141 352.952 299.836 348.077Z" fill="#322666"/>
<path d="M303.392 355.031C304.472 354.968 305.159 351.707 304.928 347.748C304.696 343.788 303.633 340.63 302.553 340.693C301.473 340.757 300.786 344.017 301.017 347.977C301.249 351.936 302.312 355.094 303.392 355.031Z" fill="white"/>
<path d="M304.927 347.773C304.71 343.812 303.622 340.635 302.534 340.722C302.447 340.722 302.36 340.766 302.272 340.809C303.23 341.332 304.1 344.248 304.318 347.773C304.536 351.385 303.97 354.431 303.056 354.997C303.186 355.041 303.273 355.084 303.404 355.084C304.449 354.997 305.145 351.733 304.927 347.773Z" fill="#322666"/>
<path d="M199.129 437.817C199.129 437.817 204.438 442.386 203.916 444.171C203.394 445.955 198.433 446.564 198.433 446.564L199.129 437.817Z" fill="#ED7E94"/>
<path d="M228.897 358.131L221.15 359.958C221.193 360.176 221.28 360.394 221.324 360.611C223.413 361.96 225.981 362.57 228.592 362.787C228.331 360.089 228.897 358.131 228.897 358.131Z" fill="#ED7E94"/>
<path d="M226.547 358.871C225.111 357.217 224.458 354.91 225.937 353.474C227.722 351.516 230.246 350.863 232.553 349.862L231.813 347.512L219.627 347.773C219.627 347.773 216.232 358.348 221.15 359.959C223.631 360.742 226.59 360.873 228.897 360.785C228.026 360.263 227.2 359.61 226.547 358.871Z" fill="#ED7E94"/>
<path d="M232.901 355.258L233.989 354.431L232.509 349.862C230.203 350.863 227.679 351.516 225.894 353.474C224.458 354.91 225.067 357.217 226.504 358.871C227.2 359.654 227.983 360.307 228.854 360.829C231.16 360.742 232.858 360.481 232.858 360.481V355.258H232.901Z" fill="#FF96A9"/>
<path d="M222.5 352.647C222.5 352.647 237.558 349.47 245.043 341.984C245.043 341.984 220.411 343.769 212.664 348.338C212.664 348.338 213.23 357.173 221.107 359.958L221.542 354.431C221.542 354.431 217.93 353.604 219.323 351.646C220.715 349.731 222.5 352.647 222.5 352.647Z" fill="#322666"/>
<path d="M253.269 530.428C245.174 481.685 241.997 424.847 241.997 424.847C241.997 424.847 241.692 424.63 241.126 424.412C237.688 460.142 237.253 497.57 253.269 530.428Z" fill="#3F327A"/>
<path d="M241.126 424.369C237.731 422.846 225.763 419.712 226.111 452.004C226.546 489.563 253.268 530.428 253.268 530.428C237.252 497.57 237.687 460.143 241.126 424.369Z" fill="#322666"/>
<path d="M239.603 425.283L236.6 425.805C235.903 430.766 235.294 435.902 234.206 440.82C236.73 435.945 238.558 430.679 239.603 425.283Z" fill="#322666"/>
<path d="M216.798 449.089C217.408 447.435 219.279 445.563 218.887 444.954C216.32 440.646 215.188 435.293 216.189 430.592C214.318 432.377 212.185 435.815 213.665 441.646C213.665 441.646 199.39 470.718 189.424 530.472C189.424 530.472 190.077 529.602 191.295 527.948C193.906 510.017 199.39 492.609 206.223 475.68C209.704 466.758 213.447 458.01 216.798 449.089Z" fill="#322666"/>
<path d="M239.603 425.283C238.515 430.723 236.73 435.945 234.206 440.82C235.294 435.858 235.904 430.766 236.6 425.805L218.452 428.982C218.452 428.982 217.364 429.461 216.145 430.592C215.101 435.292 216.276 440.645 218.844 444.954C219.279 445.563 217.407 447.435 216.755 449.088C213.447 458.01 209.704 466.714 206.179 475.636C199.39 492.565 193.863 509.974 191.251 527.904C198.65 517.72 226.111 478.117 238.036 435.51C238.036 435.51 241.822 433.247 241.953 424.804L239.603 425.283Z" fill="#3F327A"/>
<path d="M200.086 433.987C198.302 433.682 196.604 433.116 194.951 432.333C194.776 433.247 194.602 434.117 194.385 435.031C195.995 435.771 197.736 436.163 199.52 436.206L200.086 433.987Z" fill="white"/>
<path d="M192.905 431.158C192.775 432.246 192.688 433.204 192.644 434.031C193.21 434.422 193.819 434.77 194.428 435.032C194.646 434.118 194.82 433.247 194.994 432.333C194.254 431.985 193.558 431.593 192.905 431.158Z" fill="#E6E6E6"/>
<path d="M258.665 361.046C258.795 361.786 258.969 362.744 259.143 363.788C259.883 364.093 260.667 364.267 261.45 364.354C261.406 363.484 261.363 362.657 261.319 361.786C260.405 361.656 259.535 361.438 258.665 361.046Z" fill="#F6DEF8"/>
<path d="M267.369 363.701C267.108 362.874 266.803 362.047 266.498 361.264C264.801 361.786 263.06 362.004 261.319 361.786C261.363 362.657 261.406 363.527 261.45 364.354C263.408 364.571 265.41 364.223 267.369 363.701Z" fill="#FEF2FE"/>
<path d="M209.53 403.261L218.496 389.857H218.539C217.973 389.03 217.407 388.247 216.798 387.507C214.405 392.817 212.054 398.039 209.53 403.261Z" fill="#322666"/>
<path d="M261.45 364.354C260.667 364.267 259.883 364.093 259.144 363.788C259.883 368.358 260.841 375.365 260.797 381.197C261.755 375.669 261.711 370.012 261.45 364.354Z" fill="#322666"/>
<path d="M267.369 363.701C265.367 364.223 263.365 364.571 261.45 364.354C261.711 370.011 261.755 375.626 260.754 381.196C260.754 382.632 260.667 383.981 260.536 385.2L231.073 370.273L222.978 368.184L212.664 376.278C212.664 376.278 211.75 377.802 210.357 380.195C206.266 388.334 202.567 396.602 199.52 405.132C196.387 414.011 196.604 423.324 194.951 432.333C196.561 433.116 198.302 433.682 200.086 433.987L206.484 407.831L209.53 403.261C212.054 398.082 214.404 392.86 216.798 387.507C217.407 388.247 217.973 389.03 218.539 389.857L243.694 388.464C243.694 388.464 244.259 388.812 245.217 389.378C245.217 388.203 245.217 386.984 245.217 385.809C251.658 392.25 262.016 395.558 270.938 395.558C271.112 394.818 271.329 394.122 271.46 393.382C271.329 387.681 270.72 373.885 267.369 363.701Z" fill="#3F327A"/>
<path d="M270.938 395.602C262.016 395.602 251.658 392.294 245.217 385.853C245.217 387.028 245.217 388.247 245.217 389.422C249.221 391.772 260.493 397.56 271.504 396.08C271.504 396.08 271.504 395.079 271.504 393.426C271.286 394.122 271.112 394.862 270.938 395.602Z" fill="#322666"/>
<path d="M210.401 380.195C206.658 386.636 199.477 399.257 197.344 404.48C195.299 409.528 193.689 423.324 192.905 431.114C193.558 431.55 194.254 431.941 194.994 432.289C196.692 423.281 196.474 413.967 199.564 405.089C202.61 396.603 206.31 388.334 210.401 380.195Z" fill="#322666"/>
<path d="M273.113 355.955H267.369C268.892 356.216 270.372 356.694 271.851 357.217C272.417 356.825 272.852 356.39 273.113 355.955Z" fill="#ED7E94"/>
<path d="M271.852 357.216C270.372 356.651 268.892 356.215 267.369 355.954H263.8C263.8 355.954 262.016 353.169 259.231 352.777C258.839 352.734 258.534 352.647 258.534 352.647C258.752 352.647 258.97 352.647 259.144 352.69C260.536 352.777 263.931 352.995 265.15 352.647C266.542 352.298 263.844 349.426 261.146 348.686C260.145 348.817 259.144 349.121 258.317 349.774C254.182 352.473 257.707 357.042 261.233 358.696C261.276 359.74 261.32 360.785 261.407 361.829C263.104 362.047 264.888 361.829 266.586 361.307C266.412 360.872 266.238 360.437 266.02 360.002C265.933 359.958 269.719 358.74 271.852 357.216Z" fill="#FF96A9"/>
<path d="M258.273 349.731C259.143 349.078 260.1 348.774 261.101 348.643C260.753 348.556 260.362 348.469 260.013 348.469C257.01 348.382 252.963 351.777 252.963 351.777C252.963 351.777 252.745 355.824 258.273 358.914C258.273 358.914 258.447 359.697 258.664 361.003C259.535 361.395 260.405 361.612 261.319 361.743C261.275 360.698 261.232 359.654 261.145 358.609C257.663 356.999 254.138 352.43 258.273 349.731Z" fill="#ED7E94"/>
<path d="M242.345 422.933L245.522 403C245.522 403 243.563 377.41 231.116 370.273L223.021 368.184C223.021 368.184 236.339 409.92 233.902 422.933C236.556 424.891 239.603 424.369 242.345 422.933Z" fill="white"/>
<path d="M233.858 422.933C233.727 423.672 233.553 424.282 233.292 424.848C233.292 424.848 238.558 428.721 241.996 424.848L242.301 422.933C239.602 424.369 236.556 424.891 233.858 422.933Z" fill="#322666"/>
<path d="M227.461 374.494L233.032 378.237L232.379 373.929L235.947 376.757L234.598 372.492L235.034 375.365L232.118 373.711L232.335 376.583L227.461 374.494Z" fill="#E6E6E6"/>
<path d="M219.061 431.898C230.681 419.234 226.721 399.954 216.798 387.507C216.319 388.552 215.884 389.596 215.405 390.641C219.061 396.037 226.982 409.267 223.5 418.233C221.15 424.325 213.665 432.072 213.665 432.072C213.665 432.072 223.761 441.081 233.989 443.257C233.989 443.257 233.989 443.213 234.032 443.083C228.244 440.559 222.934 436.946 219.061 431.898Z" fill="#322666"/>
<path d="M223.021 368.184L212.707 376.279L213.664 388.16C213.664 388.16 214.361 389.074 215.405 390.597C215.884 389.552 216.319 388.508 216.798 387.463C226.764 399.91 230.681 419.19 219.061 431.854C222.934 436.946 228.244 440.515 234.032 443.039C235.12 439.732 251.179 387.42 223.021 368.184Z" fill="#3F327A"/>
<path d="M231.073 370.273C231.073 370.273 247.263 380.587 241.997 424.848C241.997 424.848 249.352 394.819 245.87 385.418L240.909 381.806L242.693 379.891L236.513 373.015L231.073 370.273Z" fill="#322666"/>
<path d="M250.135 525.25L243.259 532.735H283.646L250.135 525.25Z" fill="#322666"/>
<path d="M190.294 525.25L182.678 532.735H221.672L190.294 525.25Z" fill="#322666"/>
<path d="M228.549 362.831C225.937 362.569 223.37 362.004 221.281 360.655C222.325 364.876 222.978 368.227 222.978 368.227L232.117 373.711L231.073 370.273C229.376 367.661 228.723 365.007 228.549 362.831Z" fill="#FF96A9"/>
<path d="M229.289 357.608L232.553 357.173C232.553 357.173 232.683 359.305 231.378 359.566C230.072 359.828 229.289 357.608 229.289 357.608Z" fill="white"/>
<path d="M238.949 418.842C240.777 401.477 239.298 379.282 222.977 368.184L221.106 369.664L224.979 379.412L231.072 380.979L225.502 385.94C225.502 385.94 237.078 398.996 238.949 418.842Z" fill="#322666"/>
<path d="M231.552 428.416C231.508 428.416 231.421 428.416 231.378 428.372L222.804 423.89C222.586 423.803 222.543 423.542 222.63 423.324C222.717 423.106 222.978 423.063 223.196 423.15L231.769 427.633C231.987 427.72 232.03 427.981 231.943 428.198C231.856 428.329 231.726 428.416 231.552 428.416Z" fill="#322666"/>
<path d="M232.379 373.928L232.727 376.279L234.773 377.584L234.25 375.408L232.379 373.928Z" fill="#FC5BA3"/>
<path d="M227.765 399.736C234.728 393.948 236.817 384.939 234.38 376.714C234.293 376.496 234.206 376.322 234.075 376.104C234.075 376.104 236.774 396.907 217.059 399.997C204.568 401.912 196.256 394.731 196.256 394.731L186.159 406.308C200.303 406.134 215.84 409.354 227.765 399.736Z" fill="#FC5BA3"/>
<path d="M234.424 376.714C236.817 384.939 234.728 393.948 227.808 399.736C215.84 409.354 200.303 406.134 186.203 406.264L186.072 406.438L197.736 415.534C197.692 415.534 250.918 412.662 234.424 376.714Z" fill="#F73E91"/>
<path d="M193.689 433.465C194.001 433.465 194.255 433.211 194.255 432.899C194.255 432.586 194.001 432.333 193.689 432.333C193.376 432.333 193.123 432.586 193.123 432.899C193.123 433.211 193.376 433.465 193.689 433.465Z" fill="white"/>
<path d="M194.124 430.592C194.509 430.592 194.82 430.222 194.82 429.765C194.82 429.309 194.509 428.938 194.124 428.938C193.74 428.938 193.428 429.309 193.428 429.765C193.428 430.222 193.74 430.592 194.124 430.592Z" fill="#3F327A"/>
<path d="M194.602 426.11C194.987 426.11 195.298 425.739 195.298 425.283C195.298 424.826 194.987 424.456 194.602 424.456C194.218 424.456 193.906 424.826 193.906 425.283C193.906 425.739 194.218 426.11 194.602 426.11Z" fill="#3F327A"/>
<path d="M194.385 428.242C194.769 428.242 195.081 427.872 195.081 427.415C195.081 426.959 194.769 426.588 194.385 426.588C194 426.588 193.688 426.959 193.688 427.415C193.688 427.872 194 428.242 194.385 428.242Z" fill="#3F327A"/>
<path d="M260.058 363.353C260.394 363.353 260.667 363.08 260.667 362.744C260.667 362.407 260.394 362.134 260.058 362.134C259.721 362.134 259.448 362.407 259.448 362.744C259.448 363.08 259.721 363.353 260.058 363.353Z" fill="#FEF2FE"/>
<path d="M237.259 382.477C237.468 382.423 237.565 382.096 237.475 381.747C237.385 381.398 237.142 381.159 236.932 381.213C236.723 381.267 236.626 381.594 236.716 381.943C236.807 382.292 237.049 382.531 237.259 382.477Z" fill="#E6E6E6"/>
<path d="M239.701 391.378C239.914 391.337 240.031 391.017 239.964 390.663C239.896 390.309 239.67 390.055 239.457 390.095C239.245 390.135 239.127 390.455 239.194 390.81C239.262 391.164 239.489 391.418 239.701 391.378Z" fill="#E6E6E6"/>
<path d="M241.129 401.776C241.345 401.76 241.498 401.455 241.47 401.096C241.443 400.736 241.246 400.458 241.03 400.474C240.814 400.491 240.662 400.796 240.689 401.155C240.717 401.515 240.914 401.793 241.129 401.776Z" fill="#E6E6E6"/>
<path d="M241.474 411.095C241.691 411.095 241.866 410.803 241.866 410.442C241.866 410.082 241.691 409.789 241.474 409.789C241.258 409.789 241.083 410.082 241.083 410.442C241.083 410.803 241.258 411.095 241.474 411.095Z" fill="#E6E6E6"/>
<path d="M241.189 420.209C241.231 419.851 241.09 419.541 240.875 419.516C240.661 419.491 240.453 419.761 240.411 420.119C240.369 420.477 240.51 420.788 240.725 420.813C240.939 420.838 241.147 420.568 241.189 420.209Z" fill="#E6E6E6"/>
<path d="M229.288 384.373C229.288 384.417 229.245 384.46 229.201 384.46L227.591 385.766C227.504 385.853 227.373 385.809 227.286 385.722C227.199 385.635 227.243 385.505 227.33 385.418L228.94 384.112C229.027 384.025 229.158 384.069 229.245 384.156C229.332 384.243 229.332 384.33 229.288 384.373Z" fill="#3F327A"/>
<path d="M237.688 420.626C237.645 420.626 237.601 420.626 237.558 420.626L235.556 420.104C235.425 420.06 235.381 419.973 235.425 419.843C235.469 419.712 235.556 419.669 235.686 419.712L237.688 420.234C237.819 420.278 237.862 420.365 237.819 420.495C237.775 420.583 237.732 420.626 237.688 420.626Z" fill="#322666"/>
<path d="M237.122 423.586C237.079 423.586 237.035 423.586 236.992 423.586L234.99 423.063C234.859 423.02 234.816 422.933 234.859 422.802C234.903 422.672 234.99 422.628 235.12 422.672L237.122 423.194C237.253 423.237 237.296 423.324 237.253 423.455C237.253 423.498 237.166 423.542 237.122 423.586Z" fill="#322666"/>
<path d="M214.796 460.186L170.101 442.473L159.09 469.935L203.698 488.475L214.796 460.186Z" fill="#FC5BA3"/>
<path d="M201.348 454.92C201.479 454.659 204.264 448.914 202.262 444.084C201.305 441.733 199.39 439.993 196.517 438.992C193.601 437.947 190.903 438.034 188.553 439.253C184.027 441.559 182.373 447.13 182.286 447.391L183.548 447.739C183.548 447.696 185.115 442.473 189.162 440.384C191.208 439.34 193.514 439.296 196.126 440.21C198.606 441.081 200.26 442.56 201.087 444.562C202.828 448.827 200.217 454.267 200.173 454.354L201.348 454.92Z" fill="#F73E91"/>
<path d="M214.796 460.186L186.943 465.452L170.101 442.473L214.796 460.186Z" fill="#F73E91"/>
<path d="M214.796 460.186L208.529 485.994L203.698 488.474L214.796 460.186Z" fill="#F73E91"/>
<path d="M186.944 467.759C188.218 467.759 189.25 466.726 189.25 465.452C189.25 464.178 188.218 463.146 186.944 463.146C185.67 463.146 184.637 464.178 184.637 465.452C184.637 466.726 185.67 467.759 186.944 467.759Z" fill="#3F327A"/>
<path d="M191.034 445.389C190.207 444.127 190.207 442.691 190.599 441.255C191.034 439.601 193.297 438.774 193.732 437.512C193.993 436.685 194.168 435.858 194.385 435.031C193.776 434.727 193.167 434.422 192.601 434.031C192.427 435.728 192.34 436.729 192.34 436.729C192.34 436.729 188.597 437.556 187.639 441.168C186.682 444.78 194.994 453.397 200.217 447.957C200.434 447.74 200.565 447.522 200.696 447.304C197.475 448.697 193.602 448.392 191.034 445.389Z" fill="#ED7E94"/>
<path d="M199.129 437.816L199.521 436.206C197.736 436.119 195.995 435.727 194.385 435.031C194.211 435.858 193.993 436.685 193.732 437.512C193.297 438.774 191.034 439.601 190.599 441.254C190.164 442.691 190.164 444.17 191.034 445.389C193.558 448.435 197.475 448.696 200.739 447.26C202.611 443.953 199.129 437.816 199.129 437.816Z" fill="#FF96A9"/>
<path d="M177.02 535.172L160.308 424.282C160.221 423.673 160.395 423.02 160.787 422.541C161.179 422.062 161.788 421.801 162.397 421.801H283.341C283.95 421.801 284.559 422.062 284.951 422.541C285.343 423.02 285.56 423.629 285.43 424.282L268.718 535.172C268.544 536.217 267.673 537 266.585 537H179.109C178.064 537 177.151 536.217 177.02 535.172ZM280.86 426.11H164.921L180.98 532.735H264.844L280.86 426.11Z" fill="#E4E0FF"/>
<path d="M166.01 449.915H279.773C280.948 449.915 281.905 448.958 281.905 447.783C281.905 446.608 280.948 445.65 279.773 445.65H166.01C164.835 445.65 163.877 446.608 163.877 447.783C163.877 448.958 164.835 449.915 166.01 449.915Z" fill="#E4E0FF"/>
<path d="M169.579 473.59H276.248C277.423 473.59 278.38 472.633 278.38 471.458C278.38 470.283 277.423 469.325 276.248 469.325H169.579C168.404 469.325 167.446 470.283 167.446 471.458C167.446 472.633 168.404 473.59 169.579 473.59Z" fill="#E4E0FF"/>
<path d="M172.886 495.438H272.94C274.115 495.438 275.072 494.48 275.072 493.305C275.072 492.13 274.115 491.173 272.94 491.173H172.886C171.711 491.173 170.753 492.13 170.753 493.305C170.71 494.48 171.667 495.438 172.886 495.438Z" fill="#E4E0FF"/>
<path d="M176.019 516.415H269.762C270.938 516.415 271.895 515.457 271.895 514.282C271.895 513.107 270.938 512.15 269.762 512.15H176.019C174.844 512.15 173.887 513.107 173.887 514.282C173.887 515.457 174.844 516.415 176.019 516.415Z" fill="#E4E0FF"/>
<path d="M248.089 537C249.177 537 250.091 536.173 250.222 535.085L262.146 424.195C262.277 423.02 261.407 421.975 260.232 421.845C259.056 421.714 258.012 422.584 257.881 423.759L245.957 534.65C245.826 535.825 246.697 536.869 247.872 537C247.915 537 248.002 537 248.089 537Z" fill="#E4E0FF"/>
<path d="M196.822 537C196.909 537 196.953 537 197.04 537C198.215 536.869 199.085 535.825 198.955 534.65L188.205 423.759C188.075 422.584 187.03 421.714 185.855 421.845C184.68 421.975 183.81 423.02 183.94 424.195L194.69 535.085C194.777 536.173 195.734 537 196.822 537Z" fill="#E4E0FF"/>
<path d="M222.892 537C224.067 537 225.024 536.043 225.024 534.868V423.977C225.024 422.802 224.067 421.845 222.892 421.845C221.717 421.845 220.759 422.802 220.759 423.977V534.868C220.759 536.043 221.717 537 222.892 537Z" fill="#E4E0FF"/>
<path d="M162.354 425.674C162.398 425.674 162.398 425.674 162.354 425.674C162.746 425.587 163.007 425.152 162.92 424.63L118.486 105.276C118.399 104.754 118.05 104.406 117.702 104.493C117.354 104.536 117.093 105.015 117.18 105.537L161.614 424.848C161.701 425.37 162.006 425.718 162.354 425.674Z" fill="#E4E0FF"/>
<path d="M284.168 425.674C283.776 425.587 283.515 425.152 283.602 424.63L328.08 105.276C328.167 104.754 328.515 104.406 328.864 104.493C329.212 104.536 329.473 105.015 329.386 105.537L284.908 424.891C284.864 425.37 284.516 425.718 284.168 425.674Z" fill="#E4E0FF"/>
<path d="M179.24 265.954H266.064C268.805 265.954 271.025 263.735 271.025 260.993C271.025 258.251 268.805 256.031 266.064 256.031H179.24C176.498 256.031 174.279 258.251 174.279 260.993C174.279 263.735 176.498 265.954 179.24 265.954Z" fill="#FE9736"/>
<path d="M186.203 279.88H259.1C261.842 279.88 264.061 277.661 264.061 274.919C264.061 272.177 261.842 269.958 259.1 269.958H186.203C183.461 269.958 181.242 272.177 181.242 274.919C181.242 277.661 183.461 279.88 186.203 279.88Z" fill="#FE9736"/>
<path d="M195.864 293.807H249.438C252.18 293.807 254.399 291.587 254.399 288.846C254.399 286.104 252.18 283.884 249.438 283.884H195.864C193.122 283.884 190.903 286.104 190.903 288.846C190.903 291.587 193.122 293.807 195.864 293.807Z" fill="#FE9736"/>
<path d="M222.848 0C222.891 0 222.891 0 222.848 0C222.891 0 222.935 0 222.935 0C281.992 0.652808 328.82 44.3474 329.516 99.4445C330.082 144.575 310.585 164.986 289.913 186.573C286.475 190.185 282.906 193.884 279.424 197.757C257.142 222.434 260.319 247.327 260.362 247.588C260.667 249.721 259.187 251.679 257.098 251.984C256.924 252.027 256.707 252.027 256.532 252.027H189.293C189.119 252.027 188.902 252.027 188.727 251.984C186.595 251.679 185.159 249.721 185.463 247.588C185.507 247.327 188.815 222.608 166.401 197.757C162.92 193.928 159.351 190.185 155.913 186.573C135.241 164.986 115.7 144.619 116.309 99.4445C117.006 44.3474 163.79 0.652808 222.848 0Z" fill="#FFCC46"/>
<path d="M242.998 297.376L243.041 300.335C243.259 312.086 233.858 321.835 222.108 322.052C210.357 322.27 200.609 312.869 200.391 301.119L200.348 297.333H242.998V297.376Z" fill="#FE9736"/>
<path d="M269.98 34.947C269.98 34.947 305.623 65.542 304.666 112.065C303.752 158.632 252.528 162.158 243.041 236.491C243.041 236.491 245.26 168.555 274.549 124.599C292.045 98.4435 269.98 34.947 269.98 34.947Z" fill="#FFDD85"/>
<g filter="url(#filter0_b_163_881)">
<path d="M255 177.806H418.289C418.289 177.806 416.896 153.565 384.43 164.532C384.43 164.532 389.74 152.172 373.811 148.516C357.883 144.861 348.874 156.742 348.874 156.742C348.874 156.742 338.211 130.194 304.57 140.291C270.972 150.344 304.57 169.102 304.57 169.102L255 177.806Z" fill="url(#paint0_radial_163_881)" fill-opacity="0.3"/>
<path d="M348.4 156.932L348.4 156.932L348.399 156.93L348.394 156.918C348.389 156.906 348.382 156.889 348.372 156.866C348.352 156.819 348.321 156.748 348.28 156.656C348.196 156.47 348.069 156.197 347.894 155.851C347.544 155.16 347.005 154.179 346.254 153.031C344.752 150.735 342.404 147.778 339.022 145.133C332.283 139.861 321.38 135.779 304.717 140.781L304.716 140.781C296.347 143.285 292.329 146.289 290.854 149.261C289.402 152.185 290.333 155.261 292.388 158.171C294.44 161.077 297.537 163.697 300.147 165.601C301.447 166.55 302.618 167.315 303.463 167.842C303.885 168.106 304.225 168.31 304.46 168.448C304.577 168.517 304.668 168.569 304.728 168.604L304.797 168.643L304.814 168.653L304.818 168.655L304.819 168.655C304.819 168.655 304.819 168.655 304.79 168.707L304.819 168.655L306.075 169.356L304.658 169.605L260.866 177.295H417.723C417.707 177.17 417.687 177.027 417.661 176.865C417.563 176.243 417.386 175.362 417.075 174.338C416.452 172.286 415.295 169.676 413.162 167.406C408.939 162.912 400.712 159.571 384.594 165.016L383.508 165.383L383.96 164.331L383.96 164.331L383.96 164.33L383.962 164.326L383.971 164.304C383.98 164.283 383.992 164.252 384.009 164.209C384.041 164.125 384.087 163.998 384.142 163.833C384.251 163.504 384.39 163.026 384.51 162.441C384.75 161.267 384.907 159.678 384.591 157.989C384.277 156.307 383.492 154.52 381.836 152.93C380.176 151.336 377.613 149.913 373.697 149.015C365.886 147.222 359.785 149.237 355.63 151.698C353.549 152.93 351.957 154.275 350.886 155.31C350.35 155.827 349.946 156.267 349.677 156.575C349.543 156.729 349.442 156.85 349.376 156.931C349.343 156.972 349.318 157.003 349.302 157.023L349.285 157.045L349.282 157.05L349.281 157.051L348.4 156.932ZM348.4 156.932L348.4 156.933L348.736 157.77L349.281 157.051L348.4 156.932Z" stroke="white" stroke-opacity="0.2" stroke-width="1.02221"/>
</g>
<g filter="url(#filter1_b_163_881)">
<path d="M0 244.629H78.5546C78.5546 244.629 80.7741 236.012 68.0661 237.274C68.0661 237.274 69.7199 230.093 57.3166 232.313C57.3166 232.313 70.8079 216.645 42.6936 217.472C14.5794 218.255 15.972 234.924 36.6443 239.363L0 244.629Z" fill="url(#paint1_radial_163_881)" fill-opacity="0.3"/>
<path d="M78.1918 243.296C78.1878 243.626 78.1594 243.909 78.1297 244.118H7.14974L36.717 239.869L36.7516 238.863C31.6405 237.766 27.762 235.92 25.245 233.79C22.7238 231.656 21.6183 229.287 21.8814 227.108C22.1443 224.931 23.7955 222.755 27.2084 221.056C30.6187 219.359 35.7221 218.178 42.7079 217.983L42.7087 217.983C49.7075 217.777 54.0339 218.603 56.6095 219.899C57.8896 220.543 58.7249 221.296 59.2494 222.087C59.7731 222.876 60.0049 223.729 60.0372 224.601C60.1027 226.366 59.3502 228.198 58.5407 229.625C58.1401 230.332 57.7347 230.923 57.4297 231.338C57.2774 231.545 57.1506 231.707 57.0626 231.817C57.0187 231.872 56.9845 231.913 56.9617 231.941L56.9363 231.971L56.9304 231.978L56.9293 231.979L56.9292 231.979L56.9291 231.979L55.9907 233.069L57.4066 232.816C63.5521 231.716 65.9761 232.989 66.9335 234.267C67.4245 234.923 67.5858 235.645 67.6206 236.218C67.6379 236.503 67.6234 236.745 67.6049 236.914C67.5957 236.998 67.5856 237.064 67.5782 237.106C67.5745 237.127 67.5715 237.142 67.5696 237.151L67.5681 237.159L67.5679 237.16L67.5678 237.16L67.5678 237.16L67.5676 237.161L67.4083 237.853L68.1166 237.782C74.3664 237.162 76.725 238.981 77.622 240.713C78.0878 241.613 78.2007 242.56 78.1918 243.296Z" stroke="white" stroke-opacity="0.2" stroke-width="1.02221"/>
</g>
<g filter="url(#filter2_b_163_881)">
<path d="M261 532.829H461.352C461.352 532.829 459.669 503.083 419.826 516.548C419.826 516.548 426.352 501.4 406.808 496.901C387.264 492.401 376.238 506.999 376.238 506.999C376.238 506.999 363.151 474.437 321.899 486.802C280.647 499.133 321.899 522.147 321.899 522.147L261 532.829Z" fill="url(#paint2_radial_163_881)" fill-opacity="0.3"/>
<path d="M321.899 522.147L322.148 521.7L323.405 522.401L321.987 522.65L266.872 532.318H460.789C460.768 532.137 460.738 531.915 460.697 531.656C460.577 530.888 460.36 529.803 459.978 528.539C459.212 526.01 457.789 522.791 455.158 519.989C449.941 514.432 439.796 510.338 419.989 517.032L418.902 517.399L321.899 522.147ZM321.899 522.147C322.148 521.7 322.148 521.7 322.148 521.7L322.147 521.699L322.142 521.697L322.121 521.685C322.109 521.678 322.093 521.669 322.073 521.658C322.062 521.651 322.049 521.644 322.036 521.636C321.961 521.593 321.849 521.529 321.705 521.444C321.416 521.275 320.997 521.024 320.478 520.7C319.438 520.052 317.999 519.111 316.399 517.945C313.192 515.606 309.377 512.383 306.847 508.804C304.313 505.219 303.143 501.397 304.954 497.754C306.788 494.063 311.762 490.366 322.046 487.292L322.046 487.292C342.514 481.157 355.926 486.174 364.223 492.666C368.383 495.921 371.272 499.559 373.121 502.384C374.045 503.796 374.708 505.003 375.139 505.855C375.354 506.281 375.512 506.617 375.615 506.846C375.666 506.96 375.704 507.048 375.729 507.106C375.734 507.12 375.74 507.132 375.744 507.142C375.749 507.154 375.753 507.163 375.756 507.171L375.762 507.186L375.763 507.189L375.764 507.19L375.764 507.19L376.101 508.029L376.645 507.307L376.646 507.307L376.646 507.307L376.646 507.306L376.651 507.3L376.673 507.272C376.693 507.247 376.723 507.208 376.764 507.157C376.846 507.056 376.97 506.906 377.135 506.716C377.467 506.335 377.964 505.793 378.622 505.155C379.938 503.879 381.896 502.221 384.455 500.702C389.566 497.667 397.074 495.184 406.693 497.399C411.513 498.508 414.678 500.264 416.733 502.237C418.783 504.208 419.755 506.422 420.143 508.505C420.533 510.595 420.337 512.559 420.039 514.008C419.891 514.73 419.718 515.32 419.583 515.727C419.515 515.931 419.457 516.088 419.417 516.193C419.397 516.246 419.381 516.285 419.37 516.311L419.359 516.339L419.356 516.345L419.356 516.346L419.356 516.346L321.899 522.147Z" stroke="white" stroke-opacity="0.2" stroke-width="1.02221"/>
</g>
<defs>
<filter id="filter0_b_163_881" x="224.334" y="107.334" width="224.621" height="101.138" filterUnits="userSpaceOnUse" color-interpolation-filters="sRGB">
<feFlood flood-opacity="0" result="BackgroundImageFix"/>
<feGaussianBlur in="BackgroundImage" stdDeviation="15.3331"/>
<feComposite in2="SourceAlpha" operator="in" result="effect1_backgroundBlur_163_881"/>
<feBlend mode="normal" in="SourceGraphic" in2="effect1_backgroundBlur_163_881" result="shape"/>
</filter>
<filter id="filter1_b_163_881" x="-30.6662" y="186.774" width="140.035" height="88.5208" filterUnits="userSpaceOnUse" color-interpolation-filters="sRGB">
<feFlood flood-opacity="0" result="BackgroundImageFix"/>
<feGaussianBlur in="BackgroundImage" stdDeviation="15.3331"/>
<feComposite in2="SourceAlpha" operator="in" result="effect1_backgroundBlur_163_881"/>
<feBlend mode="normal" in="SourceGraphic" in2="effect1_backgroundBlur_163_881" result="shape"/>
</filter>
<filter id="filter2_b_163_881" x="230.334" y="453.334" width="261.685" height="110.161" filterUnits="userSpaceOnUse" color-interpolation-filters="sRGB">
<feFlood flood-opacity="0" result="BackgroundImageFix"/>
<feGaussianBlur in="BackgroundImage" stdDeviation="15.3331"/>
<feComposite in2="SourceAlpha" operator="in" result="effect1_backgroundBlur_163_881"/>
<feBlend mode="normal" in="SourceGraphic" in2="effect1_backgroundBlur_163_881" result="shape"/>
</filter>
<radialGradient id="paint0_radial_163_881" cx="0" cy="0" r="1" gradientUnits="userSpaceOnUse" gradientTransform="translate(407.848 140.148) rotate(161.937) scale(97.92 60.1936)">
<stop stop-color="white" stop-opacity="0.700689"/>
<stop offset="1" stop-color="#F8FFF8" stop-opacity="0.246825"/>
</radialGradient>
<radialGradient id="paint1_radial_163_881" cx="0" cy="0" r="1" gradientUnits="userSpaceOnUse" gradientTransform="translate(73.6706 218.908) rotate(155.195) scale(49.4307 39.2554)">
<stop stop-color="white" stop-opacity="0.700689"/>
<stop offset="1" stop-color="#F8FFF8" stop-opacity="0.246825"/>
</radialGradient>
<radialGradient id="paint2_radial_163_881" cx="0" cy="0" r="1" gradientUnits="userSpaceOnUse" gradientTransform="translate(448.541 486.635) rotate(161.941) scale(120.143 73.8399)">
<stop stop-color="white" stop-opacity="0.700689"/>
<stop offset="1" stop-color="#F8FFF8" stop-opacity="0.246825"/>
</radialGradient>
</defs>
</svg>
