<svg width="704" height="520" viewBox="0 0 704 520" fill="none" xmlns="http://www.w3.org/2000/svg">
<mask id="mask0_205_34839" style="mask-type:alpha" maskUnits="userSpaceOnUse" x="0" y="0" width="704" height="520">
<rect width="704" height="520" rx="20" fill="#4949B7"/>
</mask>
<g mask="url(#mask0_205_34839)">
<mask id="mask1_205_34839" style="mask-type:alpha" maskUnits="userSpaceOnUse" x="-300" y="-75" width="661" height="595">
<rect x="-300" y="-74.1432" width="661" height="594.143" fill="#C4C4C4"/>
</mask>
<g mask="url(#mask1_205_34839)">
<g filter="url(#filter0_b_205_34839)">
<path d="M91.7506 280.672L43.5729 472.733C43.5729 472.733 27.9287 457.685 11.5807 478.634C11.5807 478.634 -14.6193 472.787 -14.6193 499.258C-14.6193 499.258 -57.0048 470.514 -87.5354 509.597C-87.5354 509.597 -121.206 496.93 -127.16 530.655H281.159C281.159 530.655 286.41 482.585 243.213 496.01C243.213 496.01 250.196 468.836 217.608 479.933C217.608 479.933 218.799 429.698 157.034 455.79C157.034 455.79 132.079 437.385 116.651 467.482C116.651 467.482 114.919 441.283 79.7874 454.761L96.7849 281.647L91.7506 280.672Z" fill="url(#paint0_radial_205_34839)" fill-opacity="0.3"/>
<path d="M116.152 467.513L116.152 467.515L116.152 467.516L116.153 467.516L116.272 469.319L117.096 467.711C120.919 460.254 125.308 455.844 129.713 453.395C134.116 450.947 138.575 450.436 142.577 450.847C146.584 451.259 150.128 452.595 152.675 453.834C153.947 454.453 154.967 455.045 155.667 455.482C156.017 455.7 156.287 455.88 156.468 456.003C156.559 456.065 156.627 456.113 156.672 456.146C156.695 456.162 156.712 456.174 156.723 456.182L156.734 456.19L156.737 456.192L156.737 456.192L156.966 456.361L157.229 456.25C172.624 449.747 184.039 448.025 192.496 449.051C200.935 450.075 206.459 453.839 210.092 458.389C213.736 462.952 215.494 468.331 216.339 472.589C216.76 474.715 216.953 476.553 217.04 477.859C217.083 478.511 217.1 479.03 217.106 479.384C217.11 479.561 217.11 479.697 217.11 479.788C217.109 479.833 217.109 479.867 217.109 479.89L217.108 479.914L217.108 479.92V479.921L217.091 480.637L217.769 480.406C225.874 477.646 231.441 477.295 235.235 478.248C238.997 479.194 241.063 481.433 242.171 484.008C243.291 486.608 243.439 489.568 243.295 491.907C243.224 493.071 243.081 494.07 242.957 494.777C242.894 495.13 242.837 495.41 242.795 495.6C242.774 495.695 242.757 495.768 242.745 495.816L242.732 495.87L242.729 495.883L242.728 495.885L242.728 495.886L242.505 496.754L243.361 496.488C254.086 493.154 261.72 493.664 267.153 496.212C272.585 498.76 275.907 503.388 277.92 508.482C279.935 513.579 280.624 519.107 280.805 523.375C280.896 525.506 280.86 527.316 280.801 528.593C280.772 529.231 280.737 529.735 280.709 530.078C280.707 530.105 280.705 530.13 280.703 530.155H-126.56C-125.044 522.143 -121.926 516.895 -118.124 513.511C-114.227 510.042 -109.566 508.492 -105.058 507.976C-100.547 507.46 -96.2077 507.981 -92.989 508.635C-91.3815 508.962 -90.0579 509.321 -89.1378 509.598C-88.6779 509.736 -88.319 509.854 -88.0763 509.937C-87.9549 509.978 -87.8625 510.011 -87.8011 510.033C-87.7704 510.044 -87.7474 510.052 -87.7324 510.058L-87.7158 510.064L-87.7121 510.065L-87.7114 510.065L-87.3675 510.195L-87.1413 509.905C-72.01 490.535 -53.9783 487.987 -39.7072 490.265C-32.5597 491.406 -26.3531 493.76 -21.9311 495.83C-19.721 496.865 -17.9593 497.828 -16.7518 498.531C-16.148 498.883 -15.683 499.169 -15.3699 499.367C-15.2134 499.466 -15.0948 499.543 -15.0159 499.595C-14.9765 499.621 -14.947 499.64 -14.9275 499.653L-14.9061 499.668L-14.901 499.671L-14.9 499.672C-14.8999 499.672 -14.8999 499.672 -14.8821 499.646L-14.8999 499.672L-14.1193 500.201V499.258C-14.1193 492.724 -12.5038 488.242 -10.1301 485.174C-7.7553 482.105 -4.58366 480.403 -1.38354 479.501C1.82056 478.597 5.03607 478.5 7.45966 478.633C8.66946 478.699 9.67693 478.822 10.3803 478.929C10.7319 478.982 11.0072 479.031 11.1934 479.066C11.2865 479.083 11.3574 479.098 11.4043 479.107L11.4566 479.118L11.4689 479.121L11.4716 479.122L11.4719 479.122L11.472 479.122L11.7804 479.191L11.9749 478.941C16.0202 473.758 19.9967 470.832 23.6651 469.337C27.3306 467.843 30.7192 467.763 33.613 468.319C36.5123 468.875 38.9204 470.071 40.6068 471.132C41.449 471.662 42.1081 472.157 42.5549 472.517C42.7783 472.697 42.9484 472.843 43.0615 472.944C43.1181 472.994 43.1604 473.032 43.188 473.058L43.2184 473.086L43.2251 473.093L43.2263 473.094L43.2264 473.094L43.2265 473.094L43.848 473.692L44.0579 472.855L92.1204 281.253L96.2428 282.051L79.2898 454.713L79.2107 455.518L79.9665 455.228C97.4291 448.528 106.406 451.748 111.039 456.419C113.378 458.778 114.659 461.554 115.355 463.75C115.703 464.847 115.902 465.795 116.015 466.466C116.072 466.801 116.106 467.067 116.127 467.248C116.137 467.338 116.143 467.406 116.147 467.452C116.149 467.474 116.151 467.491 116.151 467.502L116.152 467.513Z" stroke="white" stroke-opacity="0.2"/>
</g>
<path d="M113.891 313.53C112.754 283.649 121.09 254.472 132.187 227.081C130.563 228.164 129.102 229.3 127.857 230.491C119.575 238.557 107.828 312.772 107.828 312.772C89.044 330.852 78.8672 389.965 78.8672 389.965L81.0325 386.933C82.6023 381.304 84.118 375.728 85.742 369.828C91.48 348.445 99.2209 329.391 113.891 313.53Z" fill="#5B5BCB"/>
<path d="M128.397 228.542C128.234 229.246 128.072 229.95 127.855 230.545C127.855 230.545 139.819 236.987 152.377 220.585C151.132 220.91 149.833 221.181 148.48 221.343C143.175 227.027 136.3 230.6 128.397 228.542Z" fill="#5B5BCB"/>
<path d="M80.3271 382.603L68.7969 384.714L90.7746 426.721L80.3271 382.603Z" fill="#2E2362"/>
<path d="M87.9398 272.527L86.791 278.536L104.124 281.85L105.273 275.842L87.9398 272.527Z" fill="#FFCC46"/>
<path d="M95.3204 279.806C87.3088 278.29 82.1121 270.549 83.6278 262.592L88.9328 234.984L117.839 240.506L112.534 268.113C111.019 276.125 103.278 281.376 95.3204 279.806Z" fill="#FFCC46"/>
<path d="M71.503 263.025C66.1981 261.997 62.6795 256.854 63.708 251.549L86.5518 131.971C88.6088 121.307 98.894 114.324 109.558 116.381L82.9791 255.284C82.0047 260.535 76.8621 264.054 71.503 263.025Z" fill="#FFDD85"/>
<path d="M69.1753 252.577L92.0191 132.999C93.6972 124.23 100.951 117.951 109.396 117.139L109.558 116.327C98.894 114.27 88.6088 121.253 86.5518 131.917L63.708 251.495C62.6795 256.8 66.1981 261.996 71.503 262.971C72.4774 263.133 73.3976 263.187 74.3179 263.079C70.5828 261.184 68.3634 256.962 69.1753 252.577Z" fill="#FFCC46"/>
<path d="M123.958 273.797C118.653 272.769 115.135 267.626 116.163 262.321L142.742 123.418L153.947 125.583C158.44 126.449 161.363 130.726 160.497 135.219L135.488 266.002C134.46 271.307 129.263 274.771 123.958 273.797Z" fill="#FFDD85"/>
<path d="M121.306 263.242L147.885 124.338L142.742 123.364L116.163 262.267C115.135 267.572 118.653 272.769 123.958 273.743C124.824 273.906 125.745 273.96 126.611 273.906C122.713 272.011 120.44 267.68 121.306 263.242Z" fill="#FFCC46"/>
<path d="M118.382 250.52L85.1445 244.187L122.496 48.7696C124.228 39.5671 135.758 19.9171 144.907 21.6493C154.109 23.3816 157.519 45.9547 155.733 55.103L118.382 250.52Z" fill="#FFDD85"/>
<path d="M147.667 22.8401C146.801 22.1906 145.881 21.7575 144.907 21.5951C135.704 19.8629 124.228 39.5129 122.496 48.7154L85.1445 244.133L90.9367 245.215L128.288 49.798C129.858 41.6241 139.168 25.0596 147.667 22.8401Z" fill="#FFCC46"/>
<path d="M116.975 240.939C101.385 237.962 91.2079 222.913 94.1852 207.323L102.738 162.61C105.715 147.02 120.764 136.843 136.354 139.82C151.944 142.797 162.121 157.846 159.144 173.436L150.591 218.149C147.614 233.74 132.565 243.916 116.975 240.939Z" fill="#FF5B41"/>
<path d="M100.897 208.676L109.45 163.963C112.211 149.51 125.311 139.712 139.656 140.686C138.573 140.361 137.436 140.036 136.299 139.82C120.709 136.843 105.661 147.074 102.683 162.61L94.1305 207.323C91.1532 222.913 101.384 237.962 116.92 240.939C118.057 241.156 119.194 241.318 120.33 241.372C106.743 237.041 98.1363 223.075 100.897 208.676Z" fill="#E8462C"/>
<path d="M57.3203 151.134C57.3203 151.134 62.1922 147.94 64.1951 149.239C66.2521 150.538 70.6368 157.088 68.5257 159.524C66.4145 161.96 58.1323 152.054 58.1323 152.054L57.3203 151.134Z" fill="#ED7E94"/>
<path d="M131.916 135.273C134.352 128.885 124.662 143.988 124.662 143.988C124.662 143.988 124.933 144.583 125.366 145.558C127.748 144.908 130.021 143.771 132.078 142.256C131.32 139.982 131.05 137.546 131.916 135.273Z" fill="#ED7E94"/>
<path d="M130.995 119.141C129.48 124.392 124.12 128.669 126.394 133.92C127.639 136.518 129.858 137.222 132.294 137.005C136.084 133.432 139.873 129.697 139.819 129.048C139.656 127.803 134.622 124.067 134.622 124.067L135.759 121.144L130.995 119.141Z" fill="#FF96A9"/>
<path d="M126.393 133.92C124.119 128.615 129.478 124.392 130.994 119.141L126.988 117.409C118.869 121.253 114.051 139.279 114.051 139.279L124.661 143.988C124.661 143.988 128.504 140.578 132.293 137.005C129.803 137.222 127.638 136.464 126.393 133.92Z" fill="#ED7E94"/>
<path d="M120.385 135.164C120.385 135.164 133.81 119.304 133.594 97.2178C133.594 97.2178 118.815 109.398 110.533 142.148C110.533 142.148 115.567 146.911 124.608 143.988L122.226 138.737C122.226 138.737 116.163 140.902 116.434 137.33C116.758 133.757 120.385 135.164 120.385 135.164Z" fill="#2E2362"/>
<path d="M48.498 154.923C46.6034 156.763 45.0336 159.308 44.005 162.447C42.4352 167.373 44.8712 174.79 50.2303 182.639C50.934 182.53 51.5836 182.314 52.2332 182.097C50.0679 178.849 48.3356 175.277 47.1447 171.271C45.7914 165.966 46.441 160.282 48.498 154.923Z" fill="#ED7E94"/>
<path d="M60.0815 176.792C59.5402 176.088 58.9447 175.439 58.4576 174.681C58.4576 174.681 69.1758 167.265 65.7113 157.413C63.1129 149.997 54.3435 149.131 48.4972 154.923C46.4943 160.228 45.7906 165.966 47.1981 171.325C48.389 175.331 50.1212 178.903 52.2865 182.151C55.2637 181.177 57.9162 179.174 60.0815 176.792Z" fill="#FF96A9"/>
<path d="M120.656 185.995C112.915 194.981 104.633 203.967 95.0515 211.383C81.1395 204.725 64.954 197.796 54.9937 185.778C54.3441 186.049 53.6945 186.266 53.0449 186.428C62.5722 198.554 78.5412 211.058 97.6499 217.229L122.497 190.704L123.742 189.135C122.767 188.052 121.793 186.969 120.656 185.995Z" fill="#F2F2F2"/>
<path d="M153.46 152.216L156.492 148.427L185.94 109.235L206.185 76.7017C205.427 75.998 204.615 75.3484 203.749 74.7529C187.618 101.007 170.674 126.936 149.779 149.834C151.133 150.484 152.324 151.296 153.46 152.216Z" fill="#F2F2F2"/>
<path d="M175.33 101.982L136.138 149.455L127.423 158.063L98.4082 197.579C98.4082 197.579 76.9718 194.223 62.7351 179.661C60.7322 182.314 58.0255 184.533 54.9941 185.778C64.9545 197.741 81.14 204.724 95.052 211.383C104.688 203.967 112.916 195.035 120.657 185.995C121.793 186.969 122.768 188.052 123.688 189.189L153.515 152.216C152.378 151.35 151.187 150.484 149.834 149.834C170.729 126.882 187.672 101.007 203.804 74.753C201.314 72.9666 198.499 71.5592 195.576 70.5848L175.33 101.982Z" fill="white"/>
<path d="M197.849 66.958L195.521 70.5849C199.473 71.8841 203.154 73.9411 206.186 76.7018L208.134 73.5622C205.428 70.3684 201.909 67.9865 197.849 66.958Z" fill="#F2F2F2"/>
<path d="M62.6809 179.661C61.7606 178.741 60.8945 177.767 60.0825 176.792C57.4301 179.715 54.128 181.989 50.2305 182.693C51.0966 183.938 52.0169 185.183 52.9912 186.428C56.7805 185.453 60.2449 182.909 62.6809 179.661Z" fill="#F2F2F2"/>
<path d="M193.031 192.924C183.72 209.651 170.945 223.454 158.657 237.799C156.546 231.249 153.136 225.349 149.13 219.827L127.964 230.546C127.964 230.546 116.109 276.775 148.643 256.258C181.176 235.742 190.703 208.622 190.703 208.622C183.125 232.765 192.49 274.393 194.114 281.322C193.572 256.15 195.738 232.819 194.98 207.323C194.763 202.397 194.655 197.471 193.031 192.924Z" fill="#5B5BCB"/>
<path d="M155.031 216.796L149.076 219.827C153.136 225.295 156.492 231.249 158.603 237.799C170.946 223.508 183.721 209.705 192.977 192.924C194.601 197.471 194.764 202.397 194.872 207.269C195.63 232.711 193.465 256.096 194.006 281.267C194.168 281.917 194.222 282.242 194.222 282.242C225.944 205.699 213.71 162.014 213.71 162.014C181.772 184.262 155.031 216.796 155.031 216.796Z" fill="#8B77E8"/>
<path d="M132.187 227.081C121.09 254.472 112.753 283.649 113.89 313.53C99.2744 329.391 91.4793 348.445 85.7954 369.882C84.1715 375.782 82.6558 381.358 81.0859 386.988L133.053 313.314C155.193 265.19 155.085 216.796 155.085 216.796C155.085 216.796 141.335 220.91 132.187 227.081Z" fill="#8B77E8"/>
<path d="M148.534 221.289C147.83 221.343 147.073 221.397 146.315 221.451C133.539 221.505 131.104 207.593 128.18 197.795C126.773 193.519 124.391 189.188 120.71 185.995C120.223 186.536 119.79 187.077 119.303 187.618L122.442 190.758C122.442 190.758 130.725 216.85 128.451 228.542C136.3 230.599 143.175 227.027 148.534 221.289Z" fill="#F2F2F2"/>
<path d="M152.432 220.585C153.298 219.448 154.164 218.203 155.03 216.85C155.03 216.85 154.435 215.984 153.785 214.306C152.216 216.796 150.483 219.232 148.48 221.343C149.834 221.127 151.133 220.91 152.432 220.585Z" fill="#5B5BCB"/>
<path d="M156.491 148.427C151.294 143.772 151.294 143.772 151.294 143.772L118.111 186.482L119.248 187.565C119.735 187.023 120.168 186.482 120.656 185.941C124.337 189.135 126.718 193.519 128.126 197.742C131.103 207.539 133.539 221.451 146.26 221.397C147.018 221.397 147.722 221.343 148.479 221.235C150.482 219.124 152.215 216.742 153.784 214.198C152.323 210.354 150.699 202.235 156.22 191.3C164.07 175.764 170.241 160.823 156.491 148.427Z" fill="white"/>
<path d="M118.166 167.156L117.57 167.914C117.57 167.914 138.303 189.134 135.867 209.217C134.73 218.528 136.246 219.178 138.141 217.229C139.007 198.77 131.536 179.282 118.166 167.156Z" fill="#E8462C"/>
<path d="M122.063 162.014L118.111 167.157C131.536 179.228 139.006 198.716 138.14 217.229C140.36 214.955 143.12 209.217 143.12 209.217C143.12 209.217 135.758 168.077 122.063 162.014Z" fill="#FF5B41"/>
<path d="M127.422 158.062L137.924 159.957L136.138 149.455C136.138 149.455 133.431 146.207 132.078 142.256C130.021 143.717 127.747 144.854 125.365 145.558C126.394 148.156 128.288 153.678 127.422 158.062Z" fill="#FF96A9"/>
<path d="M126.123 161.581L139.764 168.564L138.79 160.607L145.665 162.014L138.519 148.102L143.987 160.39L137.87 159.957L138.303 166.291L126.123 161.581Z" fill="#F2F2F2"/>
<path d="M138.791 160.607L139.278 164.504L143.122 164.775L142.31 161.311L138.791 160.607Z" fill="#DB4A87"/>
<path d="M127.855 235.688L148.047 229.896C148.047 229.896 158.819 177.334 141.659 162.989C143.554 165.912 145.394 168.672 145.448 172.299C146.044 195.143 141.389 217.825 127.855 235.688Z" fill="#FC5BA3"/>
<path d="M122.389 215.28L127.856 235.688C141.389 217.77 146.044 195.143 145.395 172.299C145.341 168.618 143.5 165.857 141.606 162.988C141.606 162.988 141.606 162.988 141.551 162.934C141.606 162.934 152.54 192.436 122.389 215.28Z" fill="#F73E91"/>
<path d="M158.332 167.319C155.734 169.593 153.027 170.946 152.811 171.054C152.54 171.162 152.269 171.054 152.107 170.838C151.999 170.567 152.107 170.296 152.323 170.134C152.378 170.08 158.44 167.048 160.985 162.664C161.147 162.393 161.472 162.339 161.688 162.447C161.959 162.609 162.013 162.934 161.905 163.151C160.985 164.721 159.685 166.128 158.332 167.319Z" fill="#F2F2F2"/>
<path d="M53.8613 184.756C54.1779 184.482 54.1015 183.875 53.6908 183.401C53.28 182.926 52.6905 182.763 52.3739 183.037C52.0574 183.31 52.1337 183.917 52.5445 184.392C52.9552 184.867 53.5448 185.03 53.8613 184.756Z" fill="#FEF2FE"/>
<path d="M206.53 74.4119C206.869 74.1185 206.906 73.6057 206.613 73.2665C206.32 72.9274 205.807 72.8903 205.468 73.1836C205.128 73.477 205.091 73.9898 205.385 74.3289C205.678 74.6681 206.191 74.7052 206.53 74.4119Z" fill="#FEF2FE"/>
<path d="M204.994 72.2629C206.781 73.0748 208.134 73.562 208.134 73.562L214.954 62.4649C214.954 62.4649 218.202 61.274 220.476 58.5674C218.148 60.2455 215.117 61.8153 213.222 63.0604C209.758 65.0633 207.322 68.6901 204.994 72.2629Z" fill="#ED7E94"/>
<path d="M222.642 52.4506C220.639 50.8808 216.904 55.5903 215.064 58.1345C216.958 55.5903 220.639 50.8808 222.642 52.4506C222.588 51.3138 222.317 50.0147 221.722 48.6613C218.366 40.9204 210.192 44.7638 206.998 46.7125C206.132 47.1997 205.482 48.0117 205.103 48.8778L197.85 66.958C199.203 69.2316 202.505 71.0721 204.995 72.263C207.323 68.6903 209.759 65.0634 213.223 63.1146C215.118 61.8696 218.203 60.3539 220.477 58.6216C221.776 57.0518 222.805 55.0489 222.642 52.4506Z" fill="#FF96A9"/>
<path d="M222.805 52.613C221.072 50.8807 217.879 54.3994 215.876 57.0518C215.226 58.6217 214.793 60.2998 214.901 62.032C219.178 59.5419 225.728 56.2398 222.805 52.613Z" fill="#FF96A9"/>
<path d="M215.875 57.1059C217.932 54.4534 221.071 50.8807 222.804 52.667C225.673 56.2398 219.177 59.596 214.9 62.0861C214.9 62.2484 214.9 62.3567 214.955 62.5191C214.955 62.5191 224.211 61.3824 224.807 53.5332C225.24 47.308 218.473 51.0972 215.875 57.1059Z" fill="#ED7E94"/>
<path d="M138.575 144.638L137.871 145.396C137.871 145.396 159.091 167.048 155.031 193.952C155.031 193.952 155.302 193.357 155.681 192.22C158.55 174.789 150.322 157.088 138.575 144.638Z" fill="#E8462C"/>
<path d="M141.389 141.66L138.574 144.638C150.321 157.088 158.495 174.789 155.68 192.22C158.062 185.616 164.612 161.202 141.389 141.66Z" fill="#FF5B41"/>
<path d="M133.865 129.643L136.355 126.179C136.355 126.179 138.845 127.694 137.871 128.939C136.897 130.184 133.865 129.643 133.865 129.643Z" fill="white"/>
<path d="M192.761 275.529L181.447 276.937L209.975 316.291L192.761 275.529Z" fill="#2E2362"/>
</g>
</g>
<defs>
<filter id="filter0_b_205_34839" x="-157.16" y="250.672" width="468.52" height="309.983" filterUnits="userSpaceOnUse" color-interpolation-filters="sRGB">
<feFlood flood-opacity="0" result="BackgroundImageFix"/>
<feGaussianBlur in="BackgroundImage" stdDeviation="15"/>
<feComposite in2="SourceAlpha" operator="in" result="effect1_backgroundBlur_205_34839"/>
<feBlend mode="normal" in="SourceGraphic" in2="effect1_backgroundBlur_205_34839" result="shape"/>
</filter>
<radialGradient id="paint0_radial_205_34839" cx="0" cy="0" r="1" gradientUnits="userSpaceOnUse" gradientTransform="translate(255.237 294.162) rotate(140.694) scale(301 307.664)">
<stop stop-color="white" stop-opacity="0.700689"/>
<stop offset="1" stop-color="#F8FFF8" stop-opacity="0.246825"/>
</radialGradient>
</defs>
</svg>
