<svg width="971" height="590" viewBox="0 0 971 590" fill="none" xmlns="http://www.w3.org/2000/svg">
<mask id="mask0_205_5170" style="mask-type:alpha" maskUnits="userSpaceOnUse" x="1" y="0" width="970" height="590">
<path d="M69.0591 8.87177C72.7717 3.32756 79.0047 0 85.6772 0H951C962.046 0 971 8.95431 971 20V570C971 581.046 962.046 590 951 590H95C83.9543 590 75 581.046 75 570V392.65C75 390.891 74.7679 389.14 74.3096 387.441L2.36892 120.781C0.863796 115.202 1.84521 109.244 5.0604 104.443L69.0591 8.87177Z" fill="#4949B7"/>
</mask>
<g mask="url(#mask0_205_5170)">
<mask id="mask1_205_5170" style="mask-type:alpha" maskUnits="userSpaceOnUse" x="-56" y="-5" width="661" height="595">
<rect x="-56" y="-4.14319" width="661" height="594.143" fill="#C4C4C4"/>
</mask>
<g mask="url(#mask1_205_5170)">
<g filter="url(#filter0_b_205_5170)">
<path d="M195.926 281.004L222.126 487.14C222.126 487.14 207.673 479.94 198.849 502.188C198.849 502.188 165.179 475.988 146.179 511.986C146.179 511.986 104.551 498.237 90.3685 553.885C90.3685 553.885 66.3338 546.685 59.1342 574.184C59.1342 574.184 27.0879 550.637 -11.5625 600.709H454.137C454.137 600.709 413.971 532.99 360.542 546.09C360.542 546.09 374.076 502.892 339.972 505.49C339.972 505.49 337.266 449.193 282.917 475.718C282.917 475.718 273.119 450.654 250.221 460.073L201.664 279.976L195.926 281.004Z" fill="url(#paint0_radial_205_5170)" fill-opacity="0.3"/>
<path d="M360.065 545.94C360.065 545.94 360.065 545.94 360.542 546.09L360.065 545.94L359.8 546.786L360.662 546.575C387.13 540.085 410.36 553.602 427.038 568.856C435.369 576.475 442.038 584.505 446.626 590.632C448.919 593.695 450.691 596.281 451.889 598.1C452.485 599.005 452.939 599.72 453.244 600.209H-10.5405C8.47027 575.926 25.7727 569.532 38.2942 569.169C44.6354 568.986 49.7813 570.347 53.3394 571.752C55.1184 572.455 56.4994 573.168 57.4329 573.704C57.8996 573.972 58.2542 574.195 58.4905 574.35C58.5387 574.382 58.5819 574.41 58.6202 574.436C58.6758 574.474 58.721 574.505 58.7554 574.529C58.7845 574.549 58.8061 574.564 58.8199 574.574L58.8348 574.585L58.8379 574.587L58.8381 574.587L58.8384 574.587L59.4314 575.023L59.6179 574.311C61.3987 567.509 64.2107 562.888 67.4014 559.769C70.5921 556.65 74.1857 555.01 77.5665 554.209C80.9512 553.407 84.1213 553.445 86.449 553.687C87.6117 553.807 88.561 553.978 89.2174 554.118C89.5455 554.188 89.8002 554.25 89.9715 554.295C90.0572 554.317 90.122 554.334 90.1646 554.346L90.2119 554.36L90.2228 554.363L90.225 554.364L90.2253 554.364L90.7243 554.513L90.853 554.008C97.9075 526.329 111.747 516.01 123.731 512.548C129.744 510.811 135.323 510.79 139.402 511.205C141.441 511.412 143.102 511.728 144.251 511.991C144.825 512.123 145.271 512.242 145.572 512.327C145.722 512.369 145.836 512.403 145.912 512.426C145.95 512.438 145.978 512.447 145.997 512.453L146.017 512.459L146.021 512.461L146.022 512.461L146.022 512.461L146.424 512.594L146.621 512.22C151.329 503.299 156.921 498.277 162.628 495.725C168.34 493.172 174.221 493.068 179.546 494.079C184.874 495.091 189.626 497.217 193.051 499.095C194.762 500.034 196.139 500.908 197.086 501.547C197.559 501.867 197.925 502.127 198.172 502.307C198.296 502.397 198.389 502.467 198.451 502.514C198.482 502.537 198.506 502.555 198.521 502.566L198.538 502.579L198.542 502.582L198.542 502.583L199.069 502.992L199.314 502.373C203.681 491.362 209.388 487.749 213.899 486.81C216.172 486.337 218.181 486.535 219.623 486.851C220.344 487.009 220.92 487.196 221.314 487.342C221.511 487.416 221.661 487.478 221.761 487.522C221.811 487.544 221.849 487.561 221.872 487.572L221.898 487.585L221.903 487.587L221.904 487.587L221.904 487.587L222.74 488.004L222.622 487.077L196.482 281.412L201.301 280.549L249.738 460.204L249.886 460.752L250.411 460.536C256.047 458.218 260.844 458.032 264.87 459.03C268.902 460.028 272.199 462.223 274.81 464.724C277.421 467.226 279.334 470.023 280.596 472.199C281.225 473.286 281.691 474.216 281.998 474.871C282.152 475.199 282.266 475.458 282.341 475.635C282.379 475.723 282.407 475.79 282.425 475.835L282.445 475.885L282.45 475.897L282.451 475.899L282.451 475.9L282.649 476.405L283.136 476.167C296.664 469.564 306.91 468.15 314.664 469.67C322.406 471.188 327.736 475.645 331.415 480.942C335.099 486.249 337.117 492.389 338.212 497.219C338.76 499.631 339.075 501.709 339.253 503.183C339.343 503.92 339.398 504.505 339.43 504.905C339.447 505.105 339.457 505.259 339.464 505.362C339.466 505.393 339.467 505.42 339.469 505.442L339.471 505.478L339.472 505.506L339.473 505.513L339.473 505.514L339.497 506.028L340.01 505.989C348.429 505.348 353.815 507.534 357.212 511.084C360.627 514.651 362.113 519.675 362.548 524.857C362.983 530.033 362.364 535.304 361.632 539.29C361.267 541.281 360.874 542.947 360.573 544.114C360.423 544.697 360.295 545.155 360.206 545.467C360.161 545.623 360.125 545.742 360.101 545.822C360.089 545.862 360.08 545.892 360.074 545.911L360.067 545.934L360.066 545.939L360.065 545.94Z" stroke="white" stroke-opacity="0.2"/>
</g>
<g filter="url(#filter1_b_205_5170)">
<path d="M335.751 350.672L287.573 542.733C287.573 542.733 271.929 527.685 255.581 548.634C255.581 548.634 229.381 542.787 229.381 569.258C229.381 569.258 186.995 540.514 156.465 579.597C156.465 579.597 122.794 566.93 116.84 600.655H525.159C525.159 600.655 530.41 552.585 487.213 566.01C487.213 566.01 494.196 538.836 461.608 549.933C461.608 549.933 462.799 499.698 401.034 525.79C401.034 525.79 376.079 507.385 360.651 537.482C360.651 537.482 358.919 511.282 323.787 524.761L340.785 351.647L335.751 350.672Z" fill="url(#paint1_radial_205_5170)" fill-opacity="0.3"/>
<path d="M360.152 537.513L360.152 537.515V537.516L360.153 537.516L360.272 539.319L361.096 537.711C364.919 530.254 369.308 525.844 373.713 523.395C378.116 520.947 382.575 520.436 386.577 520.847C390.584 521.259 394.128 522.595 396.675 523.834C397.947 524.453 398.967 525.045 399.667 525.482C400.017 525.7 400.287 525.88 400.468 526.003C400.559 526.065 400.627 526.113 400.672 526.146C400.695 526.162 400.712 526.174 400.723 526.182L400.734 526.19L400.737 526.192L400.737 526.192L400.966 526.361L401.229 526.25C416.624 519.747 428.039 518.025 436.496 519.051C444.935 520.075 450.459 523.839 454.092 528.389C457.736 532.952 459.494 538.331 460.339 542.589C460.76 544.715 460.953 546.553 461.04 547.859C461.083 548.511 461.1 549.03 461.106 549.384C461.109 549.561 461.11 549.697 461.11 549.788C461.109 549.833 461.109 549.867 461.109 549.89L461.108 549.914L461.108 549.92L461.108 549.921L461.091 550.637L461.769 550.406C469.874 547.646 475.441 547.295 479.235 548.248C482.997 549.194 485.063 551.433 486.171 554.008C487.291 556.608 487.439 559.568 487.295 561.907C487.224 563.071 487.081 564.07 486.957 564.777C486.894 565.13 486.837 565.41 486.795 565.6C486.774 565.695 486.757 565.768 486.745 565.816L486.732 565.87L486.729 565.883L486.728 565.885L486.728 565.886L486.505 566.754L487.361 566.488C498.086 563.154 505.72 563.664 511.153 566.212C516.585 568.76 519.907 573.388 521.92 578.482C523.935 583.579 524.624 589.107 524.805 593.375C524.896 595.506 524.86 597.316 524.801 598.593C524.772 599.231 524.737 599.735 524.709 600.078C524.707 600.105 524.705 600.13 524.703 600.155H117.44C118.956 592.143 122.074 586.895 125.876 583.511C129.773 580.042 134.434 578.492 138.942 577.976C143.453 577.46 147.792 577.981 151.011 578.635C152.619 578.962 153.942 579.321 154.862 579.598C155.322 579.736 155.681 579.854 155.924 579.937C156.045 579.978 156.137 580.011 156.199 580.033C156.23 580.044 156.253 580.052 156.268 580.058L156.284 580.064L156.288 580.065L156.289 580.065L156.632 580.195L156.859 579.905C171.99 560.535 190.022 557.987 204.293 560.265C211.44 561.406 217.647 563.76 222.069 565.83C224.279 566.865 226.041 567.828 227.248 568.531C227.852 568.883 228.317 569.169 228.63 569.367C228.787 569.466 228.905 569.543 228.984 569.595C229.024 569.621 229.053 569.64 229.072 569.653L229.094 569.668L229.099 569.671L229.1 569.672C229.1 569.672 229.1 569.672 229.143 569.609L229.1 569.672L229.881 570.201V569.258C229.881 562.724 231.496 558.242 233.87 555.174C236.245 552.105 239.416 550.403 242.616 549.501C245.821 548.597 249.036 548.5 251.46 548.633C252.669 548.699 253.677 548.822 254.38 548.929C254.732 548.982 255.007 549.031 255.193 549.066C255.239 549.074 255.279 549.082 255.314 549.089C255.35 549.096 255.38 549.102 255.404 549.107L255.457 549.118L255.469 549.121L255.472 549.122L255.472 549.122L255.472 549.122L255.78 549.191L255.975 548.941C260.02 543.758 263.997 540.832 267.665 539.337C271.331 537.843 274.719 537.763 277.613 538.319C280.512 538.875 282.92 540.071 284.607 541.132C285.449 541.662 286.108 542.157 286.555 542.517C286.778 542.697 286.948 542.843 287.062 542.944C287.118 542.994 287.16 543.032 287.188 543.058L287.218 543.086L287.225 543.093L287.226 543.094L287.226 543.094L287.227 543.094L287.848 543.692L288.058 542.855L336.12 351.253L340.243 352.051L323.29 524.713L323.211 525.518L323.966 525.228C341.429 518.528 350.406 521.748 355.039 526.419C357.378 528.778 358.659 531.554 359.355 533.75C359.703 534.847 359.902 535.795 360.015 536.466C360.072 536.801 360.106 537.067 360.127 537.248C360.137 537.338 360.143 537.406 360.147 537.452C360.149 537.474 360.151 537.491 360.151 537.502L360.152 537.513Z" stroke="white" stroke-opacity="0.2"/>
</g>
<path d="M357.891 383.53C356.754 353.649 365.09 324.472 376.187 297.081C374.563 298.164 373.102 299.3 371.857 300.491C363.575 308.557 351.828 382.772 351.828 382.772C333.044 400.852 322.867 459.965 322.867 459.965L325.032 456.933C326.602 451.304 328.118 445.728 329.742 439.828C335.48 418.445 343.221 399.391 357.891 383.53Z" fill="#5B5BCB"/>
<path d="M372.397 298.542C372.235 299.246 372.072 299.95 371.856 300.545C371.856 300.545 383.819 306.987 396.378 290.585C395.133 290.91 393.834 291.181 392.48 291.343C387.175 297.027 380.301 300.6 372.397 298.542Z" fill="#5B5BCB"/>
<path d="M324.328 452.603L312.798 454.714L334.776 496.721L324.328 452.603Z" fill="#2E2362"/>
<path d="M331.94 342.527L330.791 348.536L348.124 351.85L349.273 345.842L331.94 342.527Z" fill="#FFCC46"/>
<path d="M339.321 349.806C331.31 348.29 326.113 340.549 327.629 332.592L332.934 304.984L361.84 310.506L356.535 338.113C355.02 346.125 347.279 351.376 339.321 349.806Z" fill="#FFCC46"/>
<path d="M315.504 333.025C310.199 331.997 306.68 326.854 307.708 321.549L330.552 201.971C332.609 191.307 342.894 184.324 353.558 186.381L326.98 325.284C326.005 330.535 320.863 334.054 315.504 333.025Z" fill="#FFDD85"/>
<path d="M313.176 322.577L336.02 202.999C337.698 194.23 344.951 187.951 353.396 187.139L353.558 186.327C342.894 184.27 332.609 191.253 330.552 201.917L307.708 321.495C306.68 326.8 310.199 331.996 315.504 332.971C316.478 333.133 317.398 333.187 318.318 333.079C314.583 331.184 312.364 326.962 313.176 322.577Z" fill="#FFCC46"/>
<path d="M367.958 343.797C362.653 342.769 359.135 337.626 360.163 332.321L386.742 193.418L397.947 195.583C402.44 196.449 405.363 200.726 404.497 205.219L379.488 336.002C378.46 341.307 373.263 344.771 367.958 343.797Z" fill="#FFDD85"/>
<path d="M365.306 333.242L391.885 194.338L386.742 193.364L360.163 332.267C359.135 337.572 362.653 342.769 367.958 343.743C368.824 343.906 369.745 343.96 370.611 343.906C366.713 342.011 364.44 337.68 365.306 333.242Z" fill="#FFCC46"/>
<path d="M362.382 320.52L329.145 314.187L366.496 118.77C368.228 109.567 379.758 89.9171 388.907 91.6493C398.109 93.3816 401.519 115.955 399.733 125.103L362.382 320.52Z" fill="#FFDD85"/>
<path d="M391.667 92.8401C390.801 92.1906 389.881 91.7575 388.907 91.5951C379.704 89.8629 368.228 109.513 366.496 118.715L329.145 314.133L334.937 315.215L372.288 119.798C373.858 111.624 383.168 95.0596 391.667 92.8401Z" fill="#FFCC46"/>
<path d="M360.974 310.939C345.384 307.962 335.207 292.913 338.185 277.323L346.738 232.61C349.715 217.02 364.764 206.843 380.354 209.82C395.944 212.797 406.121 227.846 403.143 243.436L394.591 288.149C391.613 303.74 376.564 313.916 360.974 310.939Z" fill="#FF5B41"/>
<path d="M344.897 278.676L353.45 233.963C356.211 219.51 369.311 209.712 383.656 210.686C382.573 210.361 381.436 210.036 380.299 209.82C364.709 206.843 349.661 217.074 346.683 232.61L338.13 277.323C335.153 292.913 345.384 307.962 360.92 310.939C362.057 311.156 363.194 311.318 364.33 311.372C350.743 307.041 342.136 293.075 344.897 278.676Z" fill="#E8462C"/>
<path d="M301.321 221.134C301.321 221.134 306.193 217.94 308.196 219.239C310.253 220.538 314.638 227.088 312.527 229.524C310.415 231.96 302.133 222.054 302.133 222.054L301.321 221.134Z" fill="#ED7E94"/>
<path d="M375.916 205.273C378.352 198.885 368.663 213.988 368.663 213.988C368.663 213.988 368.933 214.583 369.366 215.558C371.748 214.908 374.022 213.771 376.079 212.256C375.321 209.982 375.05 207.546 375.916 205.273Z" fill="#ED7E94"/>
<path d="M374.996 189.141C373.48 194.392 368.121 198.669 370.394 203.92C371.64 206.518 373.859 207.222 376.295 207.005C380.084 203.432 383.873 199.697 383.819 199.048C383.657 197.803 378.623 194.067 378.623 194.067L379.759 191.144L374.996 189.141Z" fill="#FF96A9"/>
<path d="M370.394 203.92C368.121 198.615 373.48 194.392 374.996 189.141L370.99 187.409C362.87 191.253 358.052 209.279 358.052 209.279L368.662 213.988C368.662 213.988 372.506 210.578 376.295 207.005C373.805 207.222 371.639 206.464 370.394 203.92Z" fill="#ED7E94"/>
<path d="M364.386 205.164C364.386 205.164 377.811 189.304 377.594 167.218C377.594 167.218 362.816 179.398 354.534 212.148C354.534 212.148 359.568 216.911 368.608 213.988L366.226 208.737C366.226 208.737 360.163 210.902 360.434 207.33C360.759 203.757 364.386 205.164 364.386 205.164Z" fill="#2E2362"/>
<path d="M292.499 224.923C290.604 226.763 289.034 229.308 288.006 232.447C286.436 237.373 288.872 244.79 294.231 252.639C294.934 252.53 295.584 252.314 296.234 252.097C294.068 248.849 292.336 245.277 291.145 241.271C289.792 235.966 290.441 230.282 292.499 224.923Z" fill="#ED7E94"/>
<path d="M304.083 246.792C303.541 246.088 302.946 245.439 302.459 244.681C302.459 244.681 313.177 237.265 309.712 227.413C307.114 219.997 298.344 219.131 292.498 224.923C290.495 230.228 289.792 235.966 291.199 241.325C292.39 245.331 294.122 248.903 296.287 252.151C299.265 251.177 301.917 249.174 304.083 246.792Z" fill="#FF96A9"/>
<path d="M364.657 255.995C356.916 264.981 348.634 273.967 339.052 281.383C325.141 274.725 308.955 267.796 298.995 255.778C298.345 256.049 297.695 256.266 297.046 256.428C306.573 268.554 322.542 281.058 341.651 287.229L366.498 260.704L367.743 259.135C366.768 258.052 365.794 256.969 364.657 255.995Z" fill="#F2F2F2"/>
<path d="M397.462 222.216L400.493 218.427L429.941 179.235L450.187 146.702C449.429 145.998 448.617 145.348 447.751 144.753C431.619 171.007 414.676 196.936 393.781 219.834C395.134 220.484 396.325 221.296 397.462 222.216Z" fill="#F2F2F2"/>
<path d="M419.33 171.982L380.138 219.455L371.423 228.063L342.408 267.579C342.408 267.579 320.972 264.223 306.735 249.661C304.732 252.314 302.026 254.533 298.994 255.778C308.954 267.741 325.14 274.724 339.052 281.383C348.688 273.967 356.916 265.035 364.657 255.995C365.793 256.969 366.768 258.052 367.688 259.189L397.515 222.216C396.378 221.35 395.187 220.484 393.834 219.834C414.729 196.882 431.672 171.007 447.804 144.753C445.314 142.967 442.499 141.559 439.576 140.585L419.33 171.982Z" fill="white"/>
<path d="M441.849 136.958L439.521 140.585C443.473 141.884 447.154 143.941 450.186 146.702L452.134 143.562C449.428 140.368 445.909 137.987 441.849 136.958Z" fill="#F2F2F2"/>
<path d="M306.681 249.661C305.761 248.741 304.895 247.767 304.083 246.792C301.43 249.715 298.128 251.989 294.23 252.693C295.097 253.938 296.017 255.183 296.991 256.428C300.78 255.453 304.245 252.909 306.681 249.661Z" fill="#F2F2F2"/>
<path d="M437.031 262.924C427.72 279.651 414.945 293.454 402.657 307.799C400.546 301.249 397.136 295.349 393.13 289.827L371.964 300.546C371.964 300.546 360.109 346.775 392.643 326.258C425.176 305.742 434.703 278.622 434.703 278.622C427.125 302.765 436.49 344.393 438.114 351.322C437.572 326.15 439.738 302.819 438.98 277.323C438.763 272.397 438.655 267.471 437.031 262.924Z" fill="#5B5BCB"/>
<path d="M399.031 286.796L393.077 289.827C397.137 295.295 400.493 301.249 402.604 307.799C414.946 293.508 427.721 279.705 436.978 262.924C438.602 267.471 438.764 272.397 438.873 277.269C439.63 302.711 437.465 326.096 438.006 351.267C438.169 351.917 438.223 352.242 438.223 352.242C469.944 275.699 457.711 232.014 457.711 232.014C425.773 254.262 399.031 286.796 399.031 286.796Z" fill="#8B77E8"/>
<path d="M376.187 297.081C365.09 324.472 356.753 353.649 357.89 383.53C343.274 399.391 335.479 418.445 329.795 439.882C328.171 445.782 326.656 451.358 325.086 456.988L377.053 383.314C399.193 335.19 399.085 286.796 399.085 286.796C399.085 286.796 385.335 290.91 376.187 297.081Z" fill="#8B77E8"/>
<path d="M392.535 291.289C391.831 291.343 391.074 291.397 390.316 291.451C377.54 291.505 375.105 277.593 372.181 267.795C370.774 263.519 368.392 259.188 364.711 255.995C364.224 256.536 363.791 257.077 363.304 257.618L366.443 260.758C366.443 260.758 374.726 286.85 372.452 298.542C380.301 300.599 387.176 297.027 392.535 291.289Z" fill="#F2F2F2"/>
<path d="M396.433 290.585C397.299 289.448 398.165 288.203 399.031 286.85C399.031 286.85 398.435 285.984 397.786 284.306C396.216 286.796 394.484 289.232 392.481 291.343C393.834 291.127 395.133 290.91 396.433 290.585Z" fill="#5B5BCB"/>
<path d="M400.492 218.427C395.295 213.772 395.295 213.772 395.295 213.772L362.112 256.482L363.249 257.565C363.736 257.023 364.169 256.482 364.657 255.941C368.338 259.135 370.719 263.519 372.127 267.742C375.104 277.539 377.54 291.451 390.261 291.397C391.019 291.397 391.723 291.343 392.48 291.235C394.483 289.124 396.216 286.742 397.785 284.198C396.324 280.354 394.7 272.235 400.221 261.3C408.071 245.764 414.242 230.823 400.492 218.427Z" fill="white"/>
<path d="M362.166 237.156L361.571 237.914C361.571 237.914 382.303 259.134 379.867 279.217C378.731 288.528 380.246 289.178 382.141 287.229C383.007 268.77 375.537 249.282 362.166 237.156Z" fill="#E8462C"/>
<path d="M366.064 232.014L362.112 237.157C375.537 249.228 383.007 268.716 382.141 287.229C384.361 284.955 387.121 279.217 387.121 279.217C387.121 279.217 379.759 238.077 366.064 232.014Z" fill="#FF5B41"/>
<path d="M371.423 228.062L381.925 229.957L380.139 219.455C380.139 219.455 377.432 216.207 376.079 212.256C374.022 213.717 371.748 214.854 369.366 215.558C370.395 218.156 372.289 223.678 371.423 228.062Z" fill="#FF96A9"/>
<path d="M370.125 231.581L383.766 238.564L382.791 230.607L389.666 232.014L382.521 218.102L387.988 230.39L381.871 229.957L382.304 236.291L370.125 231.581Z" fill="#F2F2F2"/>
<path d="M382.791 230.607L383.278 234.504L387.122 234.775L386.31 231.311L382.791 230.607Z" fill="#DB4A87"/>
<path d="M371.856 305.688L392.047 299.896C392.047 299.896 402.82 247.334 385.66 232.989C387.554 235.912 389.395 238.672 389.449 242.299C390.044 265.143 385.389 287.824 371.856 305.688Z" fill="#FC5BA3"/>
<path d="M366.39 285.28L371.857 305.688C385.39 287.77 390.045 265.143 389.396 242.299C389.342 238.618 387.501 235.857 385.607 232.988C385.607 232.988 385.607 232.988 385.552 232.934C385.607 232.934 396.541 262.436 366.39 285.28Z" fill="#F73E91"/>
<path d="M402.333 237.319C399.734 239.593 397.028 240.946 396.811 241.054C396.54 241.162 396.27 241.054 396.107 240.838C395.999 240.567 396.107 240.296 396.324 240.134C396.378 240.08 402.441 237.048 404.985 232.664C405.148 232.393 405.472 232.339 405.689 232.447C405.959 232.609 406.014 232.934 405.905 233.151C404.985 234.721 403.686 236.128 402.333 237.319Z" fill="#F2F2F2"/>
<path d="M297.861 254.756C298.178 254.482 298.101 253.875 297.691 253.401C297.28 252.926 296.69 252.763 296.374 253.037C296.057 253.31 296.134 253.917 296.544 254.392C296.955 254.867 297.545 255.03 297.861 254.756Z" fill="#FEF2FE"/>
<path d="M450.531 144.412C450.871 144.118 450.908 143.606 450.614 143.267C450.321 142.927 449.808 142.89 449.469 143.184C449.13 143.477 449.093 143.99 449.386 144.329C449.68 144.668 450.192 144.705 450.531 144.412Z" fill="#FEF2FE"/>
<path d="M448.995 142.263C450.781 143.075 452.134 143.562 452.134 143.562L458.955 132.465C458.955 132.465 462.203 131.274 464.476 128.567C462.149 130.245 459.117 131.815 457.223 133.06C453.758 135.063 451.322 138.69 448.995 142.263Z" fill="#ED7E94"/>
<path d="M466.642 122.451C464.639 120.881 460.904 125.59 459.064 128.134C460.958 125.59 464.639 120.881 466.642 122.451C466.588 121.314 466.317 120.015 465.722 118.661C462.366 110.92 454.192 114.764 450.998 116.713C450.132 117.2 449.482 118.012 449.103 118.878L441.85 136.958C443.203 139.232 446.505 141.072 448.995 142.263C451.323 138.69 453.759 135.063 457.223 133.115C459.118 131.87 462.203 130.354 464.477 128.622C465.776 127.052 466.805 125.049 466.642 122.451Z" fill="#FF96A9"/>
<path d="M466.805 122.613C465.072 120.881 461.879 124.399 459.876 127.052C459.226 128.622 458.793 130.3 458.901 132.032C463.178 129.542 469.728 126.24 466.805 122.613Z" fill="#FF96A9"/>
<path d="M459.876 127.106C461.933 124.453 465.072 120.881 466.805 122.667C469.674 126.24 463.178 129.596 458.901 132.086C458.901 132.248 458.901 132.357 458.955 132.519C458.955 132.519 468.212 131.382 468.808 123.533C469.241 117.308 462.474 121.097 459.876 127.106Z" fill="#ED7E94"/>
<path d="M382.574 214.638L381.871 215.396C381.871 215.396 403.09 237.048 399.031 263.952C399.031 263.952 399.301 263.357 399.68 262.22C402.549 244.789 394.321 227.088 382.574 214.638Z" fill="#E8462C"/>
<path d="M385.389 211.66L382.574 214.638C394.321 227.088 402.495 244.789 399.68 262.22C402.062 255.616 408.612 231.202 385.389 211.66Z" fill="#FF5B41"/>
<path d="M377.865 199.643L380.355 196.179C380.355 196.179 382.845 197.694 381.871 198.939C380.897 200.184 377.865 199.643 377.865 199.643Z" fill="white"/>
<path d="M436.76 345.529L425.447 346.937L453.975 386.291L436.76 345.529Z" fill="#2E2362"/>
<path d="M199.553 386.778C198.199 384.505 195.818 380.282 191.974 373.137C193.652 372.974 195.33 372.541 196.846 371.892C198.091 376.71 199.174 381.527 199.553 386.778Z" fill="#8B77E8"/>
<path d="M200.96 389.052C200.96 389.052 200.527 388.402 199.553 386.778C199.174 381.527 198.091 376.71 196.846 371.892C197.875 371.459 198.849 370.917 199.715 370.268C200.798 381.257 200.96 389.052 200.96 389.052Z" fill="#5B5BCB"/>
<path d="M205.961 268.727L188.628 272.041L189.777 278.049L207.11 274.735L205.961 268.727Z" fill="#FFCC46"/>
<path d="M198.633 276.078C206.644 274.562 211.841 266.821 210.325 258.864L205.02 231.256L176.114 236.778L181.419 264.385C182.934 272.343 190.621 277.593 198.633 276.078Z" fill="#FFCC46"/>
<path d="M222.397 259.243C227.702 258.214 231.22 253.072 230.192 247.767L207.348 128.188C205.291 117.524 195.006 110.541 184.342 112.598L210.921 251.502C211.949 256.807 217.092 260.271 222.397 259.243Z" fill="#FFDD85"/>
<path d="M224.724 248.795L201.881 129.217C200.203 120.448 192.949 114.168 184.504 113.356L184.342 112.544C195.006 110.487 205.291 117.47 207.348 128.134L230.192 247.712C231.22 253.017 227.702 258.214 222.397 259.189C221.422 259.351 220.502 259.405 219.582 259.297C223.371 257.456 225.591 253.18 224.724 248.795Z" fill="#FFCC46"/>
<path d="M169.996 270.015C175.301 268.986 178.82 263.844 177.791 258.539L151.213 119.636L140.007 121.801C135.514 122.667 132.591 126.943 133.457 131.436L158.466 262.22C159.495 267.579 164.637 271.044 169.996 270.015Z" fill="#FFDD85"/>
<path d="M172.649 259.513L146.07 120.61L151.212 119.636L177.791 258.539C178.82 263.844 175.301 269.041 169.996 270.015C169.13 270.177 168.21 270.231 167.344 270.177C171.187 268.283 173.515 263.952 172.649 259.513Z" fill="#FFCC46"/>
<path d="M175.518 246.792L208.755 240.459L171.404 45.0414C169.672 35.8389 158.142 16.1888 148.993 17.9211C139.791 19.6533 136.381 42.2265 138.167 51.3748L175.518 246.792Z" fill="#FFDD85"/>
<path d="M146.232 19.1119C147.098 18.4623 148.018 18.0293 148.993 17.8669C158.195 16.1346 169.671 35.7846 171.403 44.9871L208.755 240.404L202.963 241.487L165.611 46.0697C164.096 37.8958 154.785 21.3314 146.232 19.1119Z" fill="#FFCC46"/>
<path d="M176.979 237.211C192.569 234.234 202.746 219.185 199.768 203.595L191.215 158.881C188.238 143.291 173.189 133.115 157.599 136.092C142.009 139.069 131.832 154.118 134.81 169.708L143.363 214.421C146.34 229.957 161.389 240.188 176.979 237.211Z" fill="#FF5B41"/>
<path d="M193.003 204.894L184.45 160.18C181.689 145.727 168.589 135.929 154.244 136.904C155.327 136.579 156.464 136.254 157.6 136.037C173.19 133.06 188.239 143.291 191.216 158.827L199.769 203.54C202.747 219.13 192.516 234.179 176.98 237.156C175.843 237.373 174.706 237.535 173.569 237.59C187.211 233.313 195.764 219.347 193.003 204.894Z" fill="#E8462C"/>
<path d="M155.597 140.098L155.705 143.291C152.349 143.291 148.885 142.804 145.745 141.722C144.5 137.337 142.551 133.331 142.551 133.331L155.597 140.098Z" fill="#ED7E94"/>
<path d="M136.218 156.662L133.078 154.064L85.875 101.934C86.1998 101.339 86.5787 100.743 86.9035 100.148C103.143 117.579 121.061 133.331 136.164 152.71C136.922 153.685 136.651 155.146 136.218 156.662Z" fill="#F6DEF8"/>
<path d="M156.031 153.739C156.031 153.739 143.906 155.796 146.179 150.654C147.153 148.488 146.612 144.97 145.692 141.668C148.886 142.804 152.296 143.292 155.652 143.237L156.031 153.739Z" fill="#FF96A9"/>
<path d="M148.939 131.869C148.776 129.488 144.662 126.998 142.064 123.966C143.85 122.613 145.312 121.693 145.312 121.693C179.523 138.203 156.084 144.699 156.084 144.699C156.084 144.699 148.722 140.585 142.984 136.687C146.34 136.633 149.047 135.334 148.939 131.869Z" fill="#ED7E94"/>
<path d="M136.163 130.57C136.109 128.784 139.411 125.915 142.064 123.966C144.716 126.998 148.83 129.434 148.938 131.869C149.047 135.388 146.34 136.687 142.984 136.687C139.249 134.143 136.163 131.761 136.163 130.57Z" fill="#FF96A9"/>
<path d="M154.082 132.357C154.082 132.357 144.392 127.377 137.734 118.066C131.075 108.755 138.654 95.9259 152.458 109.188C160.415 116.821 160.144 126.186 160.144 126.186C160.144 126.186 168.968 126.781 171.783 132.086C174.598 137.391 172.27 143.292 172.27 143.292C172.27 143.292 189.538 147.73 194.248 164.782C198.957 181.834 180.985 185.082 172.811 183.62C164.637 182.159 154.515 153.035 154.515 153.035C154.515 153.035 150.725 140.639 154.406 135.767C154.406 135.767 160.036 135.28 158.033 132.411C155.976 129.542 154.082 132.357 154.082 132.357Z" fill="#2E2362"/>
<path d="M140.766 171.224C139.683 172.902 138.222 174.255 136.598 175.338L136.814 171.765C138.059 171.874 139.413 171.711 140.766 171.224Z" fill="#FF5B41"/>
<path d="M93.8326 245.385C91.2884 236.724 87.1743 229.633 82.8438 222.325C93.8326 231.852 108.124 239.16 122.902 235.371C130.697 233.314 136.597 227.576 141.198 220.863C144.013 221.783 146.828 222.704 149.589 223.732L165.828 221.892C165.828 221.892 176.114 230.228 173.353 239.809C170.592 249.337 159.278 270.069 94.7528 233.638C94.7528 233.638 104.172 244.14 108.124 275.753C106.662 276.457 105.092 276.89 103.522 277.161C101.411 268.337 98.7586 259.514 95.4566 250.582C94.7529 248.904 94.5363 247.117 93.8326 245.385Z" fill="#5B5BCB"/>
<path d="M141.198 220.863C136.597 227.575 130.697 233.313 122.902 235.37C108.124 239.16 93.8327 231.906 82.8439 222.325C87.2286 229.632 91.3426 236.724 93.8327 245.385C94.5365 247.117 94.753 248.849 95.4567 250.582C98.7588 259.513 101.357 268.337 103.522 277.161C98.9212 277.918 93.8869 276.998 89.3397 275.049C75.915 249.282 60.6497 218.156 59.2422 207.817C59.1881 207.817 103.685 208.954 141.198 220.863Z" fill="#8B77E8"/>
<path d="M142.01 221.513C142.01 221.513 153.378 220.538 163.068 229.145C166.803 240.892 168.102 253.397 168.264 266.334C168.427 275.97 168.535 284.793 167.994 294.321C167.994 295.89 167.615 298.001 167.886 298.597C177.684 314.133 185.154 330.21 190.513 347.911C187.103 349.102 183.205 349.319 179.47 348.777C173.678 337.139 166.424 322.361 157.492 303.631C123.497 232.285 142.01 221.513 142.01 221.513Z" fill="#8B77E8"/>
<path d="M155.002 209.874C159.82 198.886 159.008 186.381 165.504 176.258C165.774 177.016 165.991 177.774 166.262 178.532C163.663 185.407 158.412 203.487 165.774 221.946C165.774 221.946 153.811 231.744 142.822 222.271C148.29 219.835 152.566 215.179 155.002 209.874Z" fill="#F6DEF8"/>
<path d="M132.537 157.42L133.078 154.064L134.323 146.16L167.452 175.608C167.452 175.608 166.965 176.637 166.262 178.532C165.991 177.774 165.774 177.016 165.504 176.258C165.071 176.907 164.692 177.611 164.313 178.315C161.065 172.036 155.327 167.813 148.344 165.973C153.161 170.033 161.227 173.01 160.686 180.534C160.469 185.515 153.973 184.161 150.78 182.104C146.07 178.91 143.959 173.335 142.335 168.138C142.876 178.261 149.535 189.196 159.766 191.902C158.466 197.911 157.492 204.082 154.948 209.874C152.512 215.179 148.235 219.834 142.768 222.27C142.497 222.054 142.227 221.783 141.956 221.567C132.754 212.797 132.808 186.272 133.078 177.124C136.11 175.987 138.871 173.984 140.657 171.278C132.699 173.93 125.229 167.055 121.819 160.072C120.79 157.691 121.548 154.876 122.523 152.277C125.879 149.733 132.537 157.42 132.537 157.42Z" fill="white"/>
<path d="M121.873 160.073C125.283 167.056 132.754 173.931 140.711 171.278C138.925 173.985 136.164 175.988 133.133 177.124C133.187 175.122 133.295 173.931 133.295 173.931C133.295 173.931 119.708 167.814 120.899 156.554C121.115 154.281 121.765 152.927 122.631 152.278C121.657 154.876 120.845 157.691 121.873 160.073Z" fill="#F6DEF8"/>
<path d="M100.166 295.62C96.9719 289.665 93.2368 282.574 89.2852 275.05C93.8864 276.998 98.8666 277.865 103.468 277.161C104.983 283.548 106.283 289.882 107.419 296.27C105.038 296.648 102.548 296.324 100.166 295.62Z" fill="#FF96A9"/>
<path d="M109.639 295.728C108.936 295.998 108.178 296.161 107.42 296.269C106.283 289.881 104.984 283.548 103.468 277.16C105.038 276.89 106.608 276.457 108.07 275.753C108.827 281.653 109.369 288.312 109.639 295.728Z" fill="#ED7E94"/>
<path d="M109.747 313.321C109.747 313.321 105.849 306.229 100.166 295.674C102.547 296.377 105.037 296.648 107.473 296.269C108.339 301.249 109.097 306.229 109.801 311.21C109.747 311.913 109.747 312.563 109.747 313.321Z" fill="#8B77E8"/>
<path d="M109.801 311.21C109.097 306.23 108.339 301.249 107.473 296.269C108.231 296.161 108.935 295.999 109.693 295.728C109.801 300.546 109.855 305.688 109.801 311.21Z" fill="#5B5BCB"/>
<path d="M168.048 294.321C168.535 284.793 168.481 276.024 168.319 266.334C168.156 253.397 166.857 240.838 163.122 229.145C164.692 230.553 166.208 232.177 167.615 234.071C177.9 247.983 173.461 299.355 173.461 299.355C185.37 306.392 192.137 325.717 195.98 344.609C194.465 346.071 192.57 347.154 190.567 347.912C185.262 330.21 177.738 314.133 167.94 298.597C167.669 298.002 168.048 295.945 168.048 294.321Z" fill="#5B5BCB"/>
<path d="M196.846 371.892C195.33 372.541 193.652 372.92 191.974 373.137C188.834 367.236 184.72 359.333 179.469 348.832C183.204 349.373 187.102 349.156 190.512 347.965C191.757 352.025 192.84 356.193 193.868 360.47C194.843 364.367 195.925 368.103 196.846 371.892Z" fill="#FF96A9"/>
<path d="M199.715 370.214C198.849 370.863 197.875 371.405 196.846 371.838C195.872 368.103 194.843 364.313 193.923 360.362C192.949 356.085 191.812 351.971 190.567 347.857C192.624 347.153 194.464 346.071 195.98 344.555C197.821 353.758 199.012 362.743 199.715 370.214Z" fill="#ED7E94"/>
<path d="M172.486 200.997L163.5 179.885C164.096 178.64 164.746 177.449 165.503 176.258C168.264 184.378 170.646 192.552 172.486 200.997Z" fill="#F6DEF8"/>
<path d="M94.8066 93.7062L110.451 110.812L150.617 150.112L172.595 164.998C172.595 164.998 174.435 168.517 176.763 173.93C180.769 185.677 183.8 197.748 184.504 210.145C177.412 216.857 169.455 222.487 161.064 227.359C160.307 224.327 158.629 221.567 156.463 219.131C163.067 214.475 170.429 208.683 173.677 203.919L172.486 201.05C170.592 192.606 168.264 184.432 165.503 176.258C164.745 177.449 164.096 178.64 163.5 179.885L163.067 178.91L136.164 156.716C136.597 155.2 136.867 153.739 136.164 152.764C121.007 133.385 103.143 117.687 86.9033 100.202C88.9062 97.2248 91.4504 94.7888 94.8066 93.7062Z" fill="white"/>
<path d="M176.817 173.93C181.039 183.674 186.993 199.535 187.102 211.661C187.102 211.661 175.571 222.108 161.497 229.957C161.443 229.091 161.335 228.225 161.118 227.359C169.509 222.487 177.466 216.857 184.557 210.145C183.854 197.749 180.822 185.677 176.817 173.93Z" fill="#F6DEF8"/>
<path d="M64.1138 76.0052C61.8403 75.8428 59.4043 78.0081 61.0824 80.011C63.789 83.259 68.6068 85.749 72.2878 82.9883C76.9431 88.997 81.8692 94.6267 87.0117 100.148C86.6328 100.744 86.308 101.285 85.9832 101.935L71.3675 85.8031C71.3675 85.8031 62.4357 84.9912 59.296 80.7689C56.1564 76.5466 60.4869 76.1135 60.4869 76.1135C60.4869 76.1135 53.8828 70.6461 54.4241 66.099C55.7233 70.7002 58.6465 74.5437 64.1138 76.0052Z" fill="#ED7E94"/>
<path d="M94.8069 93.7062C91.4507 94.843 88.8524 97.2248 86.9578 100.202C86.633 99.8773 86.3082 99.4984 85.9834 99.1736C88.4735 96.467 91.2884 94.2475 94.8069 93.7062Z" fill="#ED7E94"/>
<path d="M59.4585 61.3893C71.53 57.3294 78.5672 75.8968 78.5672 75.8968L94.8069 93.6521C91.2883 94.2476 88.4734 96.467 85.9833 99.1194C81.2197 93.9227 76.5643 88.6178 72.2338 82.9881C68.5528 85.7488 63.735 83.2587 61.0284 80.0108C59.4044 77.9538 61.8404 75.8426 64.0598 76.005C58.6466 74.4893 55.7234 70.7 54.3701 66.0988C54.6408 64.2583 56.0482 62.5802 59.4585 61.3893Z" fill="#FF96A9"/>
<path d="M156.031 153.739L144.609 157.907L146.666 146.16L150.672 150.058L156.031 153.739Z" fill="#FF96A9"/>
<path d="M142.334 168.084C143.958 173.281 146.07 178.857 150.779 182.05C153.973 184.107 160.469 185.461 160.685 180.481C161.227 172.956 153.161 170.033 148.343 165.919C155.326 167.759 161.064 171.982 164.312 178.261C162.039 182.538 160.794 187.139 159.819 191.848C149.534 189.142 142.876 178.261 142.334 168.084Z" fill="#F6DEF8"/>
<path d="M156.356 219.185L141.686 226.926C141.686 226.926 131.563 228.388 129.127 230.445C126.745 232.502 122.794 242.354 124.526 243.978C126.258 245.602 130.751 238.185 130.751 238.185C130.751 238.185 132.592 243.599 137.355 244.14C142.173 244.681 146.287 236.561 146.287 236.561L160.361 230.39C160.849 225.952 160.253 221.134 156.356 219.185Z" fill="#FF96A9"/>
<path d="M156.518 219.077L156.356 219.131C160.253 221.08 160.849 225.897 160.416 230.39L161.499 229.903C161.499 229.957 164.476 221.675 156.518 219.077Z" fill="#ED7E94"/>
<path d="M161.498 229.957C161.498 229.957 161.985 228.604 162.039 226.818L144.608 234.396C144.608 234.396 142.876 241.542 137.842 241.596C132.808 241.65 130.751 235.479 130.751 235.479C130.751 235.479 127.449 243.545 124.525 243.978C126.258 245.602 130.751 238.186 130.751 238.186C130.751 238.186 132.591 243.599 137.355 244.14C142.173 244.681 146.287 236.562 146.287 236.562L161.498 229.957Z" fill="#ED7E94"/>
<path d="M170.051 163.212L168.427 162.13C153.27 172.523 155.272 194.338 164.691 208.575C164.854 208.683 164.962 208.846 165.125 208.954C165.125 208.954 148.939 175.933 170.051 163.212Z" fill="#E8462C"/>
<path d="M168.427 162.13L163.392 158.719C163.392 158.719 135.893 183.62 164.691 208.575C155.327 194.338 153.269 172.523 168.427 162.13Z" fill="#FF5B41"/>
<path d="M132.537 188.492C130.426 173.443 135.135 156.283 146.178 145.727L143.58 143.183C125.987 159.044 130.48 181.346 132.537 188.492Z" fill="#FF5B41"/>
<path d="M132.537 188.492C132.97 189.954 133.295 190.766 133.295 190.766C130.155 163.916 146.665 146.161 146.665 146.161L146.178 145.673C135.135 156.283 130.426 173.443 132.537 188.492Z" fill="#E8462C"/>
<path d="M139.358 127.864L142.335 130.733C142.335 130.733 140.062 131.599 138.654 130.733C137.247 129.813 139.358 127.864 139.358 127.864Z" fill="white"/>
</g>
</g>
<defs>
<filter id="filter0_b_205_5170" x="-41.5625" y="249.976" width="525.7" height="380.733" filterUnits="userSpaceOnUse" color-interpolation-filters="sRGB">
<feFlood flood-opacity="0" result="BackgroundImageFix"/>
<feGaussianBlur in="BackgroundImage" stdDeviation="15"/>
<feComposite in2="SourceAlpha" operator="in" result="effect1_backgroundBlur_205_5170"/>
<feBlend mode="normal" in="SourceGraphic" in2="effect1_backgroundBlur_205_5170" result="shape"/>
</filter>
<filter id="filter1_b_205_5170" x="86.8398" y="320.672" width="468.52" height="309.983" filterUnits="userSpaceOnUse" color-interpolation-filters="sRGB">
<feFlood flood-opacity="0" result="BackgroundImageFix"/>
<feGaussianBlur in="BackgroundImage" stdDeviation="15"/>
<feComposite in2="SourceAlpha" operator="in" result="effect1_backgroundBlur_205_5170"/>
<feBlend mode="normal" in="SourceGraphic" in2="effect1_backgroundBlur_205_5170" result="shape"/>
</filter>
<radialGradient id="paint0_radial_205_5170" cx="0" cy="0" r="1" gradientUnits="userSpaceOnUse" gradientTransform="translate(424.358 297.284) rotate(137.342) scale(361.026 375.172)">
<stop stop-color="white" stop-opacity="0.700689"/>
<stop offset="1" stop-color="#F8FFF8" stop-opacity="0.246825"/>
</radialGradient>
<radialGradient id="paint1_radial_205_5170" cx="0" cy="0" r="1" gradientUnits="userSpaceOnUse" gradientTransform="translate(499.237 364.162) rotate(140.694) scale(301 307.664)">
<stop stop-color="white" stop-opacity="0.700689"/>
<stop offset="1" stop-color="#F8FFF8" stop-opacity="0.246825"/>
</radialGradient>
</defs>
</svg>
