<svg width="133" height="208" viewBox="0 0 133 208" fill="none" xmlns="http://www.w3.org/2000/svg">
<path d="M70.5 208C91.2107 208 108 206.433 108 204.5C108 202.567 91.2107 201 70.5 201C49.7893 201 33 202.567 33 204.5C33 206.433 49.7893 208 70.5 208Z" fill="#462F94"/>
<path d="M47.7371 58.422C46.6876 54.9236 43.889 53.1745 40.3906 53.8741C36.8923 54.9236 35.1431 57.7223 36.1926 61.5705C37.2421 65.0688 40.0408 66.818 43.5391 66.1183C47.0375 65.0688 48.4368 61.9203 47.7371 58.422ZM38.2916 15.7422L22.1992 19.9402L35.8428 50.7256L42.8395 48.9765L38.2916 15.7422Z" fill="#A4AEC3" fill-opacity="0.6"/>
<path d="M109.658 72.0666C110.708 71.0171 112.107 71.0171 113.157 72.0666C114.206 73.1161 114.206 74.5155 113.157 75.565C112.107 76.6145 110.708 76.6145 109.658 75.565C108.609 74.5155 108.609 73.1161 109.658 72.0666ZM114.206 68.9181L126.45 53.5254L132.747 59.8224L116.305 71.0171L114.206 68.9181Z" fill="#A4AEC3"/>
<path d="M70.826 50.726C66.2782 50.3762 62.7798 53.1748 62.0802 58.0725C61.7303 62.6204 64.529 66.4685 69.0769 66.8184C73.9745 67.1682 77.1231 64.0197 77.4729 59.4719C78.1726 54.5742 75.3739 51.0758 70.826 50.726ZM76.0736 45.4785L87.2682 2.09901L63.4795 0L66.9779 44.7788L76.0736 45.4785Z" fill="#A4AEC3"/>
<path d="M114.349 40.8208C119.105 39.9823 122.282 35.4464 121.443 30.6896C120.605 25.9329 116.069 22.7565 111.312 23.595C106.555 24.4335 103.379 28.9694 104.218 33.7262C105.056 38.483 109.592 41.6594 114.349 40.8208Z" fill="#A4AEC3" fill-opacity="0.6"/>
<path d="M101.989 57.6457C104.272 57.2429 105.797 55.0655 105.394 52.7823C104.991 50.499 102.814 48.9745 100.531 49.3773C98.2474 49.78 96.723 51.9574 97.1257 54.2407C97.5284 56.5239 99.7058 58.0484 101.989 57.6457Z" fill="#A4AEC3" fill-opacity="0.6"/>
<path d="M94.2166 68.5585C95.168 68.3908 95.8032 67.4836 95.6355 66.5323C95.4678 65.5809 94.5607 64.9456 93.6093 65.1133C92.6579 65.281 92.0227 66.1882 92.1904 67.1396C92.3581 68.0909 93.2653 68.7262 94.2166 68.5585Z" fill="#A4AEC3" fill-opacity="0.6"/>
<path d="M14.4056 61.0305C14.6487 57.1741 11.7196 53.8508 7.86312 53.6076C4.00668 53.3645 0.683335 56.2937 0.440212 60.1501C0.19709 64.0066 3.12626 67.3299 6.9827 67.573C10.8391 67.8161 14.1625 64.887 14.4056 61.0305Z" fill="#A4AEC3"/>
<path d="M24.9142 73.5011C25.0236 71.7657 23.7055 70.2702 21.9701 70.1608C20.2347 70.0514 18.7392 71.3695 18.6298 73.1049C18.5203 74.8403 19.8385 76.3358 21.5739 76.4452C23.3092 76.5546 24.8048 75.2365 24.9142 73.5011Z" fill="#A4AEC3"/>
<path d="M78.5221 75.215C68.027 76.2645 63.829 100.403 62.4297 110.898C62.4297 111.948 62.7795 113.347 63.4792 114.047C64.1789 114.746 65.2284 115.096 65.928 114.746C66.2779 114.746 66.2779 114.746 66.6277 114.746C76.7729 111.598 99.862 102.852 99.1623 92.7068C98.4626 82.2117 89.3669 74.5154 78.5221 75.215ZM76.7729 90.9576C80.6211 90.6078 84.1194 93.4064 84.4693 97.2546C83.7696 99.0038 78.5221 101.802 71.8752 104.601C73.2746 97.6044 75.3736 91.6573 76.7729 90.9576Z" fill="#FF4141"/>
<path d="M69.4262 110.548C66.2777 100.403 57.5318 77.3139 47.3866 78.0136C36.8916 79.0631 28.8454 88.1588 29.8949 99.0037C30.9444 109.499 55.083 113.697 65.578 115.096C65.9278 115.096 65.9278 115.096 66.2776 115.096C67.3272 115.096 68.0268 114.746 68.7265 113.697C69.4262 112.997 69.776 111.598 69.4262 110.548ZM45.6374 100.753C45.2876 96.9047 48.0863 93.4063 51.9344 93.0565C53.6836 93.7561 56.4823 99.0037 59.281 105.651C52.2843 104.251 46.3371 102.152 45.6374 100.753Z" fill="#FF4141"/>
<path d="M55.4325 112.297C55.0826 106.35 59.2807 101.452 64.878 101.102C70.8252 100.753 75.7229 104.951 76.0727 110.548L55.4325 112.297Z" fill="#D83232"/>
<path d="M109.308 107.749L22.8984 115.445L35.4925 184.013C35.8423 185.762 37.5915 187.161 39.3407 186.812L105.459 180.864C107.209 180.864 108.608 179.115 108.608 177.366L109.308 107.749Z" fill="url(#paint0_linear_205_3725)"/>
<path d="M18.3504 119.295L21.499 137.486L114.555 129.44V110.899C114.555 108.8 112.806 107.4 110.707 107.4L21.499 115.097C19.4 115.447 18.0006 117.546 18.3504 119.295Z" fill="url(#paint1_linear_205_3725)"/>
<path d="M76.3595 110.483L55.4492 112.312L61.7908 184.802L82.7011 182.972L76.3595 110.483Z" fill="#F55142"/>
<path d="M108.957 141.334V130.14L27.0957 137.136L29.1947 148.331L108.957 141.334Z" fill="url(#paint2_linear_205_3725)"/>
<path d="M76.4237 110.548L55.4336 112.297L62.0805 184.713L82.7207 182.964L76.4237 110.548Z" fill="#FF4141"/>
<defs>
<linearGradient id="paint0_linear_205_3725" x1="26.0743" y1="151.425" x2="112.329" y2="143.879" gradientUnits="userSpaceOnUse">
<stop stop-color="#F7B855"/>
<stop offset="1" stop-color="#F5AB35"/>
</linearGradient>
<linearGradient id="paint1_linear_205_3725" x1="18.9479" y1="126.809" x2="115.073" y2="118.399" gradientUnits="userSpaceOnUse">
<stop stop-color="#F7B855"/>
<stop offset="1" stop-color="#F5AB35"/>
</linearGradient>
<linearGradient id="paint2_linear_205_3725" x1="27.4811" y1="142.853" x2="109.454" y2="135.681" gradientUnits="userSpaceOnUse">
<stop stop-color="#F39C12"/>
<stop offset="1" stop-color="#F38812"/>
</linearGradient>
</defs>
</svg>
