<svg width="27" height="100" viewBox="0 0 27 100" fill="none" xmlns="http://www.w3.org/2000/svg">
<path d="M26.9698 88.6311C26.9698 91.7247 25.8097 94.4316 23.4896 96.7517C21.3241 98.9173 18.6945 100 15.6009 100C12.5073 100 9.80046 98.9173 7.48028 96.7517C5.16009 94.4316 4 91.6473 4 88.3991C4 85.1508 5.16009 82.4439 7.48028 80.2784C9.80046 78.1129 12.5073 77.0302 15.6009 77.0302C18.6945 77.0302 21.3241 78.1903 23.4896 80.5104C25.8097 82.8306 26.9698 85.5375 26.9698 88.6311ZM6.08817 9.51275C6.08817 6.88321 7.09358 4.64037 9.10441 2.78422C11.1152 0.92807 13.3581 0 15.8329 0C18.4625 0 20.7053 0.92807 22.5615 2.78422C24.5723 4.64037 25.5777 7.19257 25.5777 10.4408C25.5777 12.9157 25.0364 18.8708 23.9536 28.3063C23.9536 28.3063 23.0255 35.8855 21.1694 51.0441C20.396 56.6125 19.7773 61.0982 19.3132 64.5012C18.6945 66.6667 17.6118 67.9814 16.065 68.4455C15.7556 68.4455 15.2142 68.2135 14.4408 67.7494C13.6674 67.2854 13.0487 66.6667 12.5847 65.8933C11.1926 58.4687 9.72312 47.8732 8.17633 34.1067C6.78422 20.1856 6.08817 11.9876 6.08817 9.51275Z" fill="#FE9736"/>
<path d="M16 68.5H12L14 65.5L16 68.5Z" fill="#FE9736"/>
<path d="M22.9698 88.6311C22.9698 91.7247 21.8097 94.4316 19.4896 96.7517C17.3241 98.9173 14.6945 100 11.6009 100C8.50735 100 5.80046 98.9173 3.48028 96.7517C1.16009 94.4316 0 91.6473 0 88.3991C0 85.1508 1.16009 82.4439 3.48028 80.2784C5.80046 78.1129 8.50735 77.0302 11.6009 77.0302C14.6945 77.0302 17.3241 78.1903 19.4896 80.5104C21.8097 82.8306 22.9698 85.5375 22.9698 88.6311ZM2.08817 9.51275C2.08817 6.88321 3.09358 4.64037 5.10441 2.78422C7.11523 0.92807 9.35808 0 11.8329 0C14.4625 0 16.7053 0.92807 18.5615 2.78422C20.5723 4.64037 21.5777 7.19257 21.5777 10.4408C21.5777 12.9157 21.0364 18.8708 19.9536 28.3063C19.9536 28.3063 19.0255 35.8855 17.1694 51.0441C16.396 56.6125 15.7773 61.0982 15.3132 64.5012C14.6945 66.6667 13.6118 67.9814 12.065 68.4455C11.7556 68.4455 11.2142 68.2135 10.4408 67.7494C9.66744 67.2854 9.04873 66.6667 8.58469 65.8933C7.19258 58.4687 5.72312 47.8732 4.17633 34.1067C2.78422 20.1856 2.08817 11.9876 2.08817 9.51275Z" fill="#FFCC46"/>
</svg>
